<svg xmlns="http://www.w3.org/2000/svg" xmlns:xlink="http://www.w3.org/1999/xlink" width="500" zoomAndPan="magnify" viewBox="0 0 375 374.999991" height="500" preserveAspectRatio="xMidYMid meet" version="1.0"><path fill="#ffffff" d="M 319.875 215.796875 C 319.292969 204.378906 309.570312 195.597656 298.152344 196.179688 C 289.449219 196.625 282.289062 202.390625 279.628906 210.164062 L 248.136719 205.492188 C 248.191406 204.453125 248.222656 203.40625 248.222656 202.355469 C 248.222656 170.015625 222.003906 143.800781 189.660156 143.800781 C 180.433594 143.800781 171.710938 145.941406 163.945312 149.742188 L 135.609375 97.007812 C 139.617188 93.96875 142.753906 89.703125 144.3125 84.515625 C 148.230469 71.503906 140.851562 57.777344 127.839844 53.859375 C 114.824219 49.945312 101.097656 57.320312 97.179688 70.332031 C 93.261719 83.347656 100.636719 97.070312 113.652344 100.988281 C 118.785156 102.53125 124.019531 102.296875 128.726562 100.675781 L 157.183594 153.628906 C 143.972656 162.449219 134.558594 176.496094 131.882812 192.816406 L 98.019531 191.070312 C 97.222656 180.121094 88.109375 171.484375 76.957031 171.484375 C 65.28125 171.484375 55.816406 180.949219 55.816406 192.621094 C 55.816406 204.296875 65.28125 213.761719 76.957031 213.761719 C 86.46875 213.761719 94.511719 207.476562 97.167969 198.832031 L 131.144531 200.582031 C 131.125 201.171875 131.097656 201.757812 131.097656 202.355469 C 131.097656 222.410156 141.1875 240.101562 156.558594 250.65625 L 129.640625 277.5625 C 125.613281 274.683594 120.699219 272.976562 115.375 272.972656 C 101.78125 272.972656 90.761719 283.984375 90.757812 297.578125 C 90.757812 311.167969 101.773438 322.1875 115.363281 322.1875 C 128.957031 322.191406 139.976562 311.175781 139.980469 297.585938 C 139.980469 292.136719 138.1875 287.117188 135.191406 283.039062 L 163.503906 254.742188 C 171.378906 258.679688 180.257812 260.910156 189.660156 260.910156 C 218.34375 260.910156 242.195312 240.28125 247.230469 213.054688 L 278.535156 217.699219 C 278.539062 217.765625 278.53125 217.828125 278.535156 217.894531 C 279.117188 229.308594 288.84375 238.089844 300.257812 237.511719 C 311.675781 236.933594 320.457031 227.207031 319.875 215.796875 Z M 117.257812 89.015625 C 110.855469 87.089844 107.226562 80.339844 109.152344 73.9375 C 111.078125 67.535156 117.832031 63.910156 124.234375 65.835938 C 130.636719 67.761719 134.261719 74.511719 132.335938 80.914062 C 130.410156 87.316406 123.660156 90.941406 117.257812 89.015625 Z M 76.957031 204.941406 C 70.152344 204.941406 64.636719 199.425781 64.636719 192.621094 C 64.636719 185.820312 70.152344 180.304688 76.957031 180.304688 C 83.761719 180.304688 89.277344 185.820312 89.277344 192.621094 C 89.277344 199.425781 83.761719 204.941406 76.957031 204.941406 Z M 115.367188 310.039062 C 108.488281 310.035156 102.914062 304.457031 102.914062 297.582031 C 102.914062 290.703125 108.492188 285.128906 115.371094 285.128906 C 118.605469 285.132812 121.542969 286.375 123.753906 288.398438 L 124.558594 289.199219 C 126.578125 291.414062 127.820312 294.351562 127.820312 297.585938 C 127.824219 304.464844 122.246094 310.039062 115.367188 310.039062 Z M 189.660156 238.59375 C 169.640625 238.59375 153.414062 222.371094 153.414062 202.355469 C 153.414062 182.339844 169.640625 166.113281 189.660156 166.113281 C 209.675781 166.113281 225.902344 182.339844 225.902344 202.355469 C 225.902344 222.371094 209.675781 238.59375 189.660156 238.59375 Z M 299.71875 226.96875 C 294.128906 227.253906 289.363281 222.953125 289.078125 217.359375 C 288.792969 211.769531 293.097656 207.007812 298.6875 206.722656 C 304.28125 206.4375 309.042969 210.738281 309.328125 216.332031 C 309.613281 221.921875 305.3125 226.683594 299.71875 226.96875 Z M 299.71875 226.96875 " fill-opacity="1" fill-rule="nonzero"/></svg>