<svg xmlns="http://www.w3.org/2000/svg" xmlns:xlink="http://www.w3.org/1999/xlink" width="500" zoomAndPan="magnify" viewBox="0 0 375 374.999991" height="500" preserveAspectRatio="xMidYMid meet" version="1.0"><path fill="#000000" d="M 316.453125 215.757812 C 315.875 204.359375 306.160156 195.585938 294.761719 196.167969 C 286.066406 196.613281 278.917969 202.371094 276.261719 210.132812 L 244.8125 205.46875 C 244.867188 204.429688 244.898438 203.386719 244.898438 202.335938 C 244.898438 170.039062 218.714844 143.859375 186.414062 143.859375 C 177.199219 143.859375 168.488281 145.996094 160.734375 149.789062 L 132.433594 97.125 C 136.4375 94.089844 139.566406 89.828125 141.125 84.652344 C 145.035156 71.652344 137.671875 57.949219 124.671875 54.035156 C 111.675781 50.125 97.96875 57.488281 94.054688 70.484375 C 90.144531 83.480469 97.507812 97.1875 110.503906 101.097656 C 115.632812 102.640625 120.859375 102.410156 125.558594 100.789062 L 153.980469 153.675781 C 140.785156 162.484375 131.386719 176.511719 128.714844 192.808594 L 94.894531 191.066406 C 94.097656 180.132812 85 171.503906 73.859375 171.503906 C 62.199219 171.503906 52.746094 180.957031 52.746094 192.613281 C 52.746094 204.273438 62.199219 213.726562 73.859375 213.726562 C 83.359375 213.726562 91.390625 207.449219 94.042969 198.820312 L 127.972656 200.566406 C 127.957031 201.152344 127.929688 201.738281 127.929688 202.335938 C 127.929688 222.363281 138.003906 240.035156 153.355469 250.574219 L 126.472656 277.441406 C 122.453125 274.570312 117.542969 272.863281 112.226562 272.863281 C 98.652344 272.859375 87.644531 283.859375 87.644531 297.433594 C 87.640625 311.007812 98.644531 322.011719 112.214844 322.011719 C 125.789062 322.015625 136.796875 311.015625 136.796875 297.441406 C 136.800781 292 135.011719 286.988281 132.015625 282.914062 L 160.289062 254.652344 C 168.152344 258.585938 177.019531 260.8125 186.414062 260.8125 C 215.058594 260.8125 238.878906 240.210938 243.90625 213.023438 L 275.167969 217.660156 C 275.171875 217.726562 275.167969 217.789062 275.167969 217.855469 C 275.75 229.253906 285.460938 238.023438 296.863281 237.445312 C 308.265625 236.871094 317.035156 227.15625 316.453125 215.757812 Z M 114.105469 89.144531 C 107.710938 87.222656 104.089844 80.476562 106.011719 74.085938 C 107.9375 67.691406 114.679688 64.070312 121.074219 65.992188 C 127.464844 67.917969 131.089844 74.660156 129.164062 81.054688 C 127.242188 87.445312 120.5 91.066406 114.105469 89.144531 Z M 73.859375 204.921875 C 67.0625 204.921875 61.554688 199.410156 61.554688 192.617188 C 61.554688 185.820312 67.0625 180.3125 73.859375 180.3125 C 80.65625 180.3125 86.164062 185.820312 86.164062 192.617188 C 86.164062 199.410156 80.65625 204.921875 73.859375 204.921875 Z M 112.21875 309.878906 C 105.347656 309.875 99.78125 304.304688 99.78125 297.4375 C 99.78125 290.570312 105.355469 285 112.222656 285.003906 C 115.453125 285.003906 118.386719 286.246094 120.597656 288.265625 L 121.398438 289.066406 C 123.414062 291.277344 124.65625 294.210938 124.65625 297.441406 C 124.65625 304.3125 119.085938 309.878906 112.21875 309.878906 Z M 186.414062 238.527344 C 166.421875 238.527344 150.214844 222.324219 150.214844 202.335938 C 150.214844 182.347656 166.421875 166.140625 186.414062 166.140625 C 206.402344 166.140625 222.609375 182.347656 222.609375 202.335938 C 222.605469 222.324219 206.402344 238.527344 186.414062 238.527344 Z M 296.324219 226.917969 C 290.742188 227.203125 285.984375 222.90625 285.699219 217.324219 C 285.414062 211.738281 289.710938 206.980469 295.292969 206.699219 C 300.878906 206.414062 305.636719 210.710938 305.921875 216.292969 C 306.207031 221.875 301.910156 226.632812 296.324219 226.917969 Z M 296.324219 226.917969 " fill-opacity="1" fill-rule="nonzero"/></svg>