<svg xmlns="http://www.w3.org/2000/svg" xmlns:xlink="http://www.w3.org/1999/xlink" width="500" zoomAndPan="magnify" viewBox="0 0 375 374.999991" height="500" preserveAspectRatio="xMidYMid meet" version="1.0"><defs><clipPath id="b0755936f3"><path d="M 3.75 0 L 369 0 L 369 375 L 3.75 375 Z M 3.75 0 " clip-rule="nonzero"/></clipPath></defs><g clip-path="url(#b0755936f3)"><path fill="#000000" d="M 108.851562 57.734375 C 108.851562 50.316406 105.917969 46.148438 101.589844 43.675781 C 98.503906 41.976562 95.253906 41.664062 89.390625 41.664062 L 78.113281 41.664062 L 77.800781 75.039062 L 89.539062 75.039062 C 101.277344 75.039062 108.851562 68.855469 108.851562 57.734375 M 92.625 88.636719 L 77.796875 88.636719 L 77.488281 124.472656 L 91.710938 124.472656 C 104.210938 124.472656 114.417969 119.214844 114.417969 106.242188 C 114.417969 94.195312 103.90625 88.636719 92.628906 88.636719 Z M 305.332031 249.007812 C 304.929688 249.007812 304.542969 249.058594 304.140625 249.066406 C 307.234375 242.089844 309.574219 234.867188 311.15625 227.398438 C 312.734375 219.929688 313.527344 212.378906 313.527344 204.746094 C 313.527344 144.070312 264.347656 94.886719 203.671875 94.886719 C 192.941406 94.886719 182.59375 96.5 172.789062 99.367188 C 173.570312 94.734375 174.066406 90.007812 174.066406 85.15625 C 174.066406 38.121094 135.9375 0 88.914062 0 C 41.871094 0 3.75 38.121094 3.75 85.15625 C 3.75 132.179688 41.871094 170.308594 88.914062 170.308594 C 92.574219 170.308594 96.152344 170.003906 99.691406 169.554688 C 95.800781 180.964844 93.84375 192.695312 93.828125 204.746094 C 93.828125 265.40625 143.011719 314.585938 203.671875 314.585938 C 217.441406 314.585938 230.554688 311.945312 242.695312 307.324219 C 242.585938 308.835938 242.46875 310.34375 242.46875 311.878906 C 242.46875 346.601562 270.609375 374.75 305.332031 374.75 C 340.058594 374.75 368.203125 346.601562 368.203125 311.878906 C 368.203125 277.15625 340.058594 249.007812 305.332031 249.007812 Z M 94.476562 137.136719 L 49.214844 137.136719 L 49.214844 124.46875 L 60.039062 124.46875 L 60.652344 41.667969 L 49.214844 41.667969 L 49.214844 28.992188 L 92.316406 28.992188 C 103.601562 28.992188 110.707031 30.234375 117.351562 35.171875 C 122.445312 38.886719 127.082031 46.453125 127.082031 55.5625 C 127.082031 68.089844 119.351562 79.207031 105.609375 80.289062 L 105.609375 80.589844 C 120.132812 80.4375 133.5625 90.328125 133.5625 106.859375 C 133.5625 125.238281 120.589844 137.136719 94.476562 137.136719 Z M 242.523438 197.007812 L 242.523438 215.335938 L 197.109375 215.335938 L 196.695312 263.664062 L 214.601562 263.664062 L 214.601562 280.742188 L 158.578125 280.742188 L 158.578125 263.664062 L 173.15625 263.664062 L 173.988281 152.011719 L 157.113281 152.011719 L 157.113281 134.925781 L 259.601562 134.925781 L 260.4375 173.25 L 241.0625 173.25 L 239.8125 152.011719 L 197.527344 152.011719 L 197.109375 197.007812 Z M 320.722656 283.46875 L 313.523438 283.46875 L 313.523438 340.160156 L 320.722656 340.160156 L 320.722656 351.816406 L 289.636719 351.816406 L 289.636719 340.160156 L 296.839844 340.160156 L 296.839844 283.46875 L 289.636719 283.46875 L 289.636719 271.820312 L 320.722656 271.820312 Z M 320.722656 283.46875 " fill-opacity="1" fill-rule="nonzero"/></g></svg>