<svg xmlns="http://www.w3.org/2000/svg" xmlns:xlink="http://www.w3.org/1999/xlink" width="500" zoomAndPan="magnify" viewBox="0 0 375 374.999991" height="500" preserveAspectRatio="xMidYMid meet" version="1.0"><path fill="#0078c1" d="M 11.144531 144.792969 L 363.644531 144.792969 L 363.644531 230.097656 L 11.144531 230.097656 Z M 11.144531 144.792969 " fill-opacity="1" fill-rule="nonzero"/><path fill="#ffffff" d="M 156.136719 189.023438 L 154.089844 189.023438 L 154.089844 196.023438 L 155.613281 196.023438 C 158.324219 196.023438 159.707031 194.925781 159.707031 192.414062 C 159.703125 190.082031 158.78125 189.023438 156.136719 189.023438 M 155.96875 182.296875 C 155.351562 182.296875 154.710938 182.296875 154.089844 182.363281 L 154.089844 188.242188 L 156.066406 188.242188 C 158.230469 188.242188 158.96875 187.183594 158.96875 185.300781 C 158.96875 183.292969 158.277344 182.296875 155.96875 182.296875 Z M 157.015625 196.800781 C 154.304688 196.800781 151.570312 196.710938 148.859375 196.800781 L 148.859375 196.089844 C 149.40625 196.089844 151.066406 196.023438 151.066406 195.289062 L 151.066406 183.074219 C 151.066406 182.320312 149.429688 182.253906 148.859375 182.277344 L 148.832031 181.566406 C 151.664062 181.652344 154.515625 181.566406 157.351562 181.566406 C 160.039062 181.566406 162.128906 182.191406 162.128906 184.980469 C 162.128906 187.246094 160.46875 188.246094 158.179688 188.523438 L 158.179688 188.609375 C 161.011719 188.785156 162.96875 189.800781 162.96875 192.589844 C 162.96875 195.742188 160.039062 196.800781 157.015625 196.800781 Z M 172.269531 191.074219 C 170.007812 191.269531 168.175781 191.417969 168.175781 193.972656 C 168.175781 195.007812 168.535156 196.042969 169.890625 196.042969 C 171.769531 196.042969 172.269531 194.488281 172.269531 193.0625 M 174.03125 196.84375 C 173.148438 196.84375 172.292969 196.710938 172.292969 195.742188 C 171.246094 196.652344 170.199219 197.015625 168.746094 197.015625 C 166.441406 197.015625 165.273438 195.957031 165.273438 193.863281 C 165.273438 190.296875 169.628906 190.53125 172.269531 190.359375 L 172.269531 188.71875 C 172.269531 187.550781 171.675781 186.902344 170.34375 186.902344 C 168.820312 186.902344 168.367188 187.59375 168.367188 188.867188 C 168.367188 189.433594 167.890625 189.539062 167.394531 189.539062 C 166.632812 189.5625 166.085938 189.519531 166.085938 188.652344 C 166.085938 186.621094 168.441406 186.1875 170.226562 186.1875 C 173.011719 186.1875 175.007812 186.558594 175.007812 189.476562 L 175.007812 194.425781 C 175.007812 195.890625 175.148438 196.089844 176.792969 196.109375 L 176.792969 196.800781 C 175.863281 196.800781 174.933594 196.84375 174.03125 196.84375 Z M 185.617188 196.800781 L 185.617188 196.128906 C 186.210938 196.109375 187.351562 196.042969 187.351562 195.289062 L 187.351562 189.730469 C 187.351562 188.390625 187.089844 187.265625 185.355469 187.265625 C 183.355469 187.265625 182.640625 188.828125 182.640625 190.402344 L 182.640625 195.289062 C 182.640625 195.976562 183.832031 196.109375 184.378906 196.109375 L 184.402344 196.777344 C 182.332031 196.691406 180.070312 196.710938 178.003906 196.800781 L 178.003906 196.128906 C 178.621094 196.109375 179.882812 196.089844 179.882812 195.289062 L 179.882812 187.9375 C 179.882812 187.160156 178.617188 187.117188 178.003906 187.09375 L 178.003906 186.425781 C 179.527344 186.425781 181.050781 186.445312 182.570312 186.382812 L 182.570312 187.914062 L 182.617188 187.914062 C 183.710938 186.726562 184.804688 186.183594 186.542969 186.183594 C 189.132812 186.183594 190.113281 187.332031 190.113281 189.597656 L 190.113281 195.289062 C 190.113281 196.039062 191.371094 196.105469 191.96875 196.105469 L 191.96875 196.800781 C 189.898438 196.734375 187.6875 196.710938 185.617188 196.800781 M 201.226562 196.777344 L 201.226562 196.109375 C 201.417969 196.109375 202.082031 196.132812 202.011719 195.828125 C 201.9375 195.523438 201.441406 195.09375 201.175781 194.75 C 200.515625 193.929688 199.867188 193.105469 199.179688 192.304688 C 199.15625 192.28125 198.871094 191.851562 198.871094 191.851562 L 197.917969 192.695312 L 197.917969 195.355469 C 197.917969 196.21875 199.128906 196.109375 199.773438 196.109375 L 199.773438 196.800781 C 197.660156 196.710938 195.417969 196.710938 193.304688 196.800781 L 193.304688 196.109375 C 193.875 196.109375 195.160156 196.023438 195.160156 195.289062 L 195.160156 182.515625 C 195.160156 181.734375 193.941406 181.691406 193.324219 181.671875 L 193.300781 181.003906 C 194.824219 181.003906 196.394531 181.042969 197.917969 180.960938 L 197.894531 191.699219 C 197.894531 191.699219 201.699219 187.660156 201.699219 187.269531 C 201.699219 187.097656 200.820312 187.054688 200.652344 187.054688 L 200.652344 186.429688 L 205.367188 186.429688 L 205.367188 187.03125 L 205.078125 187.03125 C 204.554688 187.03125 203.484375 187.054688 203.105469 187.378906 C 202.152344 188.179688 200.582031 190.058594 200.582031 190.058594 L 204.9375 195.246094 C 205.414062 195.808594 206.175781 196.109375 206.914062 196.132812 L 206.914062 196.804688 C 205.035156 196.695312 203.082031 196.777344 201.226562 196.777344 M 218.417969 186.902344 C 215.609375 186.902344 215.730469 189.710938 215.730469 191.550781 C 215.730469 193.382812 215.609375 196.328125 218.417969 196.328125 C 221.226562 196.328125 221.109375 193.382812 221.109375 191.550781 C 221.109375 189.710938 221.226562 186.902344 218.417969 186.902344 M 218.417969 197.015625 C 214.660156 197.015625 212.710938 194.984375 212.710938 191.65625 C 212.710938 188.328125 214.632812 186.1875 218.417969 186.1875 C 222.226562 186.1875 224.105469 188.328125 224.105469 191.65625 C 224.105469 194.964844 222.152344 197.015625 218.417969 197.015625 Z M 233.71875 183.984375 C 231.695312 183.984375 233.527344 181.542969 231.527344 181.542969 C 230.265625 181.542969 230.21875 182.664062 230.21875 183.527344 L 230.21875 186.425781 L 232.667969 186.425781 L 232.667969 187.183594 L 230.21875 187.183594 L 230.21875 195.289062 C 230.21875 196.128906 231.648438 196.109375 232.269531 196.109375 L 232.242188 196.800781 C 230.050781 196.734375 227.765625 196.710938 225.578125 196.800781 L 225.578125 196.109375 C 226.199219 196.089844 227.457031 196.089844 227.457031 195.289062 L 227.457031 187.183594 L 225.601562 187.183594 L 225.601562 186.425781 L 227.457031 186.425781 L 227.457031 184.761719 C 227.457031 182.234375 228.890625 180.871094 231.695312 180.871094 C 233.214844 180.871094 235.050781 181.347656 235.050781 183.007812 C 235.050781 183.917969 234.574219 183.984375 233.71875 183.984375 M 254.527344 196.800781 L 254.527344 196.089844 C 255.097656 196.089844 256.929688 196.089844 256.929688 195.289062 L 256.929688 183.636719 L 250.53125 196.949219 L 249.984375 196.949219 L 243.703125 183.683594 L 243.703125 195.289062 C 243.703125 196.089844 245.511719 196.089844 246.105469 196.089844 L 246.105469 196.800781 C 244.273438 196.734375 242.324219 196.710938 240.492188 196.800781 L 240.492188 196.089844 C 241.085938 196.089844 242.699219 196.089844 242.699219 195.289062 L 242.699219 183.074219 C 242.699219 182.320312 241.058594 182.277344 240.492188 182.277344 L 240.515625 181.5625 C 242.25 181.652344 244.128906 181.652344 245.867188 181.5625 L 251.386719 193.019531 L 256.929688 181.5625 C 258.644531 181.652344 260.476562 181.652344 262.191406 181.5625 L 262.191406 182.277344 C 261.621094 182.277344 259.929688 182.296875 259.929688 183.074219 L 259.929688 195.289062 C 259.929688 196.089844 261.59375 196.089844 262.191406 196.089844 L 262.191406 196.800781 C 259.859375 196.710938 256.859375 196.710938 254.527344 196.800781 M 269.253906 186.902344 C 266.449219 186.902344 266.566406 189.710938 266.566406 191.550781 C 266.566406 193.382812 266.449219 196.328125 269.253906 196.328125 C 272.0625 196.328125 271.945312 193.382812 271.945312 191.550781 C 271.949219 189.710938 272.066406 186.902344 269.253906 186.902344 M 269.253906 197.015625 C 265.496094 197.015625 263.546875 194.984375 263.546875 191.65625 C 263.546875 188.328125 265.472656 186.1875 269.253906 186.1875 C 273.0625 186.1875 274.941406 188.328125 274.941406 191.65625 C 274.941406 194.964844 272.992188 197.015625 269.253906 197.015625 Z M 283.960938 196.800781 L 283.960938 196.128906 C 284.554688 196.109375 285.695312 196.042969 285.695312 195.289062 L 285.695312 189.730469 C 285.695312 188.390625 285.4375 187.265625 283.699219 187.265625 C 281.703125 187.265625 280.992188 188.828125 280.992188 190.402344 L 280.992188 195.289062 C 280.992188 195.976562 282.175781 196.109375 282.722656 196.109375 L 282.75 196.777344 C 280.679688 196.691406 278.421875 196.710938 276.347656 196.800781 L 276.347656 196.128906 C 276.96875 196.109375 278.226562 196.089844 278.226562 195.289062 L 278.226562 187.9375 C 278.226562 187.160156 276.96875 187.117188 276.347656 187.09375 L 276.347656 186.425781 C 277.875 186.425781 279.394531 186.445312 280.917969 186.382812 L 280.917969 187.914062 L 280.964844 187.914062 C 282.058594 186.726562 283.152344 186.183594 284.890625 186.183594 C 287.484375 186.183594 288.460938 187.332031 288.460938 189.597656 L 288.460938 195.289062 C 288.460938 196.039062 289.71875 196.105469 290.316406 196.105469 L 290.316406 196.800781 C 288.242188 196.734375 286.03125 196.710938 283.960938 196.800781 M 295.335938 196.996094 C 293.121094 196.996094 292.503906 195.957031 292.503906 194.101562 L 292.503906 187.183594 L 290.789062 187.183594 L 290.789062 186.429688 L 292.503906 186.429688 L 292.503906 184.222656 L 295.242188 183.984375 L 295.242188 186.425781 L 297.761719 186.425781 L 297.761719 187.183594 L 295.242188 187.183594 L 295.242188 194.46875 C 295.242188 195.289062 295.453125 195.914062 296.476562 195.914062 C 296.929688 195.914062 297.570312 195.546875 297.925781 195.289062 L 298.425781 195.957031 C 297.476562 196.519531 296.476562 196.996094 295.335938 196.996094 M 308.464844 189.539062 C 306.375 189.539062 308.042969 187.246094 306.609375 187.246094 C 305.066406 187.246094 304.683594 189.886719 304.683594 190.898438 L 304.683594 195.289062 C 304.683594 196.109375 306.066406 196.109375 306.683594 196.109375 L 306.683594 196.800781 C 304.492188 196.734375 302.238281 196.710938 300.046875 196.800781 L 300.046875 196.109375 C 300.640625 196.109375 301.921875 196.066406 301.921875 195.289062 L 301.921875 187.917969 C 301.921875 187.140625 300.664062 187.097656 300.046875 187.074219 L 300.019531 186.429688 C 301.542969 186.429688 303.089844 186.449219 304.613281 186.386719 L 304.613281 188.027344 L 304.664062 188.003906 C 305.234375 186.988281 306.207031 186.1875 307.515625 186.1875 C 308.894531 186.1875 309.730469 186.945312 309.730469 188.199219 C 309.730469 189.023438 309.488281 189.539062 308.464844 189.539062 M 318.722656 189.90625 C 318.722656 188.476562 318.4375 186.878906 316.484375 186.878906 C 314.292969 186.878906 314.15625 189.128906 314.128906 190.617188 L 318.722656 190.617188 M 314.128906 191.375 L 314.128906 191.875 C 314.128906 193.796875 314.320312 196.222656 317.078125 196.222656 C 319.171875 196.222656 320.125 195.203125 320.480469 193.410156 L 321.4375 193.410156 C 320.910156 196.066406 319.578125 197.019531 316.628906 197.019531 C 312.703125 197.019531 311.109375 194.792969 311.109375 191.441406 C 311.109375 188.222656 313.0625 186.1875 316.675781 186.1875 C 320.199219 186.1875 321.71875 188.136719 321.71875 191.183594 L 321.71875 191.378906 L 314.128906 191.378906 Z M 330.738281 191.074219 C 328.476562 191.269531 326.644531 191.417969 326.644531 193.972656 C 326.644531 195.007812 327.003906 196.042969 328.359375 196.042969 C 330.242188 196.042969 330.738281 194.488281 330.738281 193.0625 M 332.496094 196.84375 C 331.617188 196.84375 330.761719 196.710938 330.761719 195.742188 C 329.714844 196.652344 328.667969 197.015625 327.214844 197.015625 C 324.90625 197.015625 323.742188 195.957031 323.742188 193.863281 C 323.742188 190.296875 328.09375 190.53125 330.734375 190.359375 L 330.734375 188.71875 C 330.734375 187.550781 330.140625 186.902344 328.808594 186.902344 C 327.285156 186.902344 326.835938 187.59375 326.835938 188.867188 C 326.835938 189.433594 326.359375 189.539062 325.859375 189.539062 C 325.097656 189.5625 324.550781 189.519531 324.550781 188.652344 C 324.550781 186.621094 326.90625 186.1875 328.691406 186.1875 C 331.476562 186.1875 333.472656 186.558594 333.472656 189.476562 L 333.472656 194.425781 C 333.472656 195.890625 333.621094 196.089844 335.261719 196.109375 L 335.261719 196.800781 C 334.328125 196.800781 333.402344 196.84375 332.496094 196.84375 Z M 336.757812 196.800781 L 336.757812 196.109375 C 337.351562 196.109375 338.640625 196.042969 338.640625 195.289062 L 338.640625 182.492188 C 338.640625 181.734375 337.351562 181.671875 336.757812 181.671875 L 336.78125 181.003906 C 338.304688 181.003906 339.875 181.042969 341.398438 180.960938 L 341.398438 195.289062 C 341.398438 196.042969 342.707031 196.109375 343.300781 196.109375 L 343.300781 196.800781 C 341.121094 196.710938 338.9375 196.710938 336.757812 196.800781 " fill-opacity="1" fill-rule="nonzero"/><path fill="#ed1c24" d="M 118.113281 165.921875 C 106.230469 165.921875 96.585938 175.558594 96.585938 187.445312 C 96.585938 199.328125 106.230469 208.96875 118.113281 208.96875 C 130.011719 208.96875 139.648438 199.328125 139.648438 187.445312 C 139.648438 175.558594 130.011719 165.921875 118.113281 165.921875 " fill-opacity="1" fill-rule="nonzero"/><path fill="#ffffff" d="M 107.871094 190.375 L 128.214844 190.375 L 128.214844 196.796875 L 107.871094 196.796875 Z M 107.871094 190.375 " fill-opacity="1" fill-rule="nonzero"/><path fill="#ffffff" d="M 117.382812 180.78125 C 117.648438 181.121094 117.875 181.222656 118.113281 181.226562 C 118.355469 181.21875 118.570312 181.136719 118.835938 180.78125 C 118.835938 180.78125 122.234375 176.316406 122.414062 176.101562 C 122.871094 175.53125 123.425781 175.53125 123.882812 176.101562 L 128.214844 181.582031 L 128.214844 190.378906 L 123.914062 184.855469 C 123.410156 184.222656 122.832031 184.21875 122.324219 184.855469 C 122.152344 185.078125 118.851562 189.449219 118.851562 189.449219 C 118.339844 190.097656 117.84375 190.097656 117.335938 189.449219 C 117.335938 189.449219 113.957031 185.054688 113.804688 184.855469 C 113.3125 184.234375 112.757812 184.21875 112.222656 184.855469 L 107.871094 190.378906 L 107.871094 181.609375 C 107.871094 181.609375 112.015625 176.414062 112.277344 176.101562 C 112.746094 175.535156 113.308594 175.535156 113.769531 176.097656 L 117.382812 180.78125 M 42.558594 192.414062 C 42.558594 194.839844 41.746094 195.992188 38.917969 195.992188 L 37.152344 195.992188 L 37.152344 189.210938 L 39.03125 189.210938 C 41.605469 189.207031 42.558594 190.113281 42.558594 192.414062 M 46.347656 192.664062 C 46.347656 189.84375 44.046875 188.828125 41.257812 188.761719 L 41.257812 188.65625 C 43.628906 188.464844 45.582031 187.46875 45.582031 185.070312 C 45.582031 182.402344 43.371094 181.902344 40.90625 181.902344 C 37.933594 181.902344 34.449219 181.984375 31.488281 181.902344 L 31.488281 182.644531 C 32.113281 182.605469 33.632812 182.6875 33.632812 183.476562 L 33.632812 195.203125 C 33.632812 195.960938 32.074219 196.0625 31.488281 196.0625 L 31.488281 196.785156 C 34.355469 196.710938 37.75 196.785156 40.625 196.785156 C 43.652344 196.785156 46.347656 195.761719 46.347656 192.664062 Z M 41.957031 185.515625 C 41.957031 187.386719 41.140625 188.421875 38.984375 188.421875 L 37.152344 188.421875 L 37.152344 182.6875 C 37.390625 182.664062 38.171875 182.644531 38.402344 182.644531 L 39.03125 182.644531 C 41.230469 182.644531 41.957031 183.625 41.957031 185.515625 Z M 65.507812 196.761719 C 64.175781 196.761719 62.847656 196.746094 61.519531 196.785156 L 61.519531 196.046875 C 62.121094 196.046875 63.800781 196.011719 63.800781 195.203125 L 63.800781 184.273438 L 63.753906 184.273438 L 57.648438 196.984375 L 57.019531 196.984375 L 51.082031 184.273438 L 51.035156 184.273438 L 51.035156 195.203125 C 51.035156 196.03125 52.78125 196.046875 53.410156 196.046875 L 53.433594 196.785156 C 51.777344 196.734375 49.515625 196.695312 47.878906 196.785156 L 47.878906 196.046875 C 48.511719 196.046875 50.027344 195.996094 50.027344 195.203125 L 50.027344 183.488281 C 50.027344 182.707031 48.464844 182.644531 47.878906 182.644531 L 47.855469 181.902344 C 49.75 181.980469 51.777344 181.980469 53.664062 181.902344 L 58.742188 192.546875 L 63.917969 181.921875 C 65.734375 182.007812 67.695312 181.980469 69.515625 181.902344 L 69.515625 182.644531 C 68.910156 182.644531 67.324219 182.683594 67.324219 183.488281 L 67.324219 195.203125 C 67.324219 196.011719 68.886719 196.046875 69.515625 196.046875 L 69.515625 196.785156 C 68.1875 196.746094 66.835938 196.761719 65.507812 196.761719 M 87.460938 189.328125 C 87.460938 184.402344 84.449219 181.640625 79.019531 181.640625 C 73.585938 181.640625 70.554688 184.378906 70.554688 189.328125 C 70.554688 194.277344 73.5625 197.035156 79.019531 197.035156 C 84.472656 197.035156 87.460938 194.277344 87.460938 189.328125 M 83.519531 189.328125 C 83.519531 192.234375 83.234375 196.296875 79.019531 196.296875 C 74.804688 196.296875 74.496094 192.234375 74.496094 189.328125 C 74.496094 186.417969 74.804688 182.382812 79.019531 182.382812 C 83.210938 182.382812 83.519531 186.4375 83.519531 189.328125 Z M 141.773438 177.34375 C 140.578125 177.34375 139.609375 176.359375 139.609375 175.140625 C 139.609375 173.921875 140.578125 172.9375 141.773438 172.9375 C 142.972656 172.9375 143.945312 173.921875 143.945312 175.140625 C 143.945312 176.359375 142.976562 177.34375 141.773438 177.34375 M 141.773438 172.582031 C 140.363281 172.582031 139.214844 173.726562 139.214844 175.140625 C 139.214844 176.554688 140.363281 177.703125 141.773438 177.703125 C 143.1875 177.703125 144.335938 176.554688 144.335938 175.140625 C 144.335938 173.726562 143.191406 172.582031 141.773438 172.582031 Z M 141.773438 172.582031 " fill-opacity="1" fill-rule="nonzero"/><path fill="#ffffff" d="M 141.207031 174.996094 L 141.207031 173.976562 L 141.824219 173.976562 C 142.347656 173.976562 142.582031 174.132812 142.582031 174.488281 C 142.582031 174.84375 142.347656 174.996094 141.824219 174.996094 L 141.207031 174.996094 M 142.960938 174.5 C 142.960938 173.933594 142.632812 173.671875 141.988281 173.671875 L 140.851562 173.671875 L 140.851562 176.609375 L 141.207031 176.609375 L 141.207031 175.304688 L 141.824219 175.304688 L 142.652344 176.609375 L 143.082031 176.609375 L 142.203125 175.304688 C 142.671875 175.230469 142.960938 174.910156 142.960938 174.5 Z M 142.960938 174.5 " fill-opacity="1" fill-rule="nonzero"/></svg>