<svg xmlns="http://www.w3.org/2000/svg" xmlns:xlink="http://www.w3.org/1999/xlink" width="500" zoomAndPan="magnify" viewBox="0 0 375 374.999991" height="500" preserveAspectRatio="xMidYMid meet" version="1.0"><path fill="#fff" d="M 187.5 375 C 83.941406 375 0 291.058594 0 187.5 C 0 83.941406 83.941406 0 187.5 0 C 291.058594 0 375 83.941406 375 187.5 C 375 291.058594 291.058594 375 187.5 375 Z M 186.292969 51.539062 L 186.292969 51.457031 L 243.105469 210.9375 C 243.214844 211.171875 243.300781 211.417969 243.355469 211.667969 C 243.414062 211.921875 243.441406 212.179688 243.441406 212.4375 C 243.441406 212.699219 243.414062 212.957031 243.355469 213.207031 C 243.300781 213.460938 243.214844 213.707031 243.105469 213.941406 C 242.992188 214.175781 242.859375 214.394531 242.699219 214.601562 C 242.539062 214.804688 242.359375 214.988281 242.160156 215.152344 C 241.957031 215.320312 241.742188 215.460938 241.511719 215.578125 C 241.277344 215.695312 241.035156 215.785156 240.785156 215.847656 L 198.667969 227.449219 C 195.234375 228.304688 196.007812 233.976562 199.535156 234.152344 L 306.867188 255.550781 C 308.929688 255.890625 310.992188 256.582031 313.136719 256.582031 C 272.945312 187.238281 232.726562 117.914062 192.480469 48.609375 C 190.769531 44.917969 184.582031 47.671875 186.292969 51.539062 Z M 180.105469 51.890625 C 139.664062 121.734375 99.152344 191.53125 58.59375 261.304688 L 58.59375 263.296875 C 59.449219 264.492188 60.480469 265.699219 62.027344 265.699219 C 64.183594 265.441406 65.296875 263.378906 66.585938 262.007812 L 177.269531 131.976562 C 178.394531 130.335938 180.878906 129.316406 182.601562 130.863281 C 193.265625 142.207031 203.578125 153.890625 214.394531 165.234375 C 216.457031 167.460938 220.675781 164.976562 219.550781 161.976562 C 206.917969 125.882812 193.863281 89.789062 181.136719 53.695312 C 180.84375 53.066406 180.5 52.464844 180.105469 51.890625 Z M 146.25 175.722656 C 120.386719 206.484375 94.6875 237.597656 68.90625 268.535156 L 314.765625 268.535156 L 316.40625 266.8125 L 316.40625 264.410156 C 315.550781 263.71875 314.765625 262.863281 313.652344 262.6875 C 255.738281 251.085938 197.8125 239.0625 139.886719 227.460938 C 138.082031 227.367188 136.371094 225.65625 137.050781 223.757812 C 141.527344 208.898438 146.074219 194.027344 150.375 179.074219 C 151.066406 176.578125 148.3125 175.125 146.25 175.722656 Z M 146.25 175.722656 " fill-opacity="1" fill-rule="nonzero"/></svg>