<svg xmlns="http://www.w3.org/2000/svg" xmlns:xlink="http://www.w3.org/1999/xlink" width="500" zoomAndPan="magnify" viewBox="0 0 375 374.999991" height="500" preserveAspectRatio="xMidYMid meet" version="1.0"><defs><clipPath id="2992436ed6"><path d="M 4.832031 127.246094 L 370.082031 127.246094 L 370.082031 247.996094 L 4.832031 247.996094 Z M 4.832031 127.246094 " clip-rule="nonzero"/></clipPath></defs><path fill="#000000" d="M 19.078125 183.347656 C 19.238281 183.105469 19.320312 182.84375 19.320312 182.683594 C 19.398438 182.363281 19.238281 181.863281 18.820312 181.460938 C 17.917969 180.398438 16.199219 179.578125 14.976562 179.738281 C 13.015625 179.898438 11.292969 181.542969 10.972656 183.425781 C 10.652344 185.3125 12.035156 186.714844 13.917969 186.535156 C 15.558594 186.476562 18.179688 184.75 19.078125 183.347656 Z M 19.078125 183.347656 " fill-opacity="1" fill-rule="nonzero"/><path fill="#000000" d="M 38.308594 180.820312 C 38.46875 179.675781 37.167969 178.695312 34.308594 177.710938 C 25.804688 174.683594 20.71875 166.960938 19.078125 155.328125 L 19.078125 155.246094 L 19 155.167969 C 18.597656 154.765625 18.097656 154.425781 17.519531 154.847656 C 16.378906 155.828125 17.117188 159.839844 19.820312 171.253906 L 20.878906 175.765625 C 21.460938 178.3125 21.621094 180.359375 21.28125 182.324219 C 20.960938 184.371094 20.300781 186.515625 18.898438 189.304688 L 16.4375 194.296875 C 9.8125 207.675781 7.59375 212.589844 8.492188 213.574219 C 8.894531 213.972656 9.632812 213.492188 10.214844 212.910156 L 10.292969 212.832031 C 10.292969 212.75 10.375 212.671875 10.375 212.671875 C 12.175781 208.316406 14.136719 204.46875 16.257812 201.097656 C 21 193.554688 26.644531 188.140625 33.449219 184.769531 C 35.988281 183.546875 37.449219 182.464844 38.03125 181.582031 C 38.230469 181.300781 38.308594 181.0625 38.308594 180.820312 Z M 97.144531 157.515625 L 97.304688 157.515625 C 97.382812 157.515625 97.464844 157.433594 97.464844 157.433594 C 98.125 157.113281 98.863281 156.773438 99.183594 156.289062 C 99.265625 156.128906 99.34375 155.96875 99.34375 155.707031 C 99.265625 154.0625 93.203125 153.902344 77.332031 154.144531 L 71.609375 154.222656 C 68.507812 154.222656 66.367188 153.902344 64.566406 153.160156 C 62.84375 152.417969 61.285156 151.195312 59.742188 149.148438 L 56.878906 145.539062 C 49.757812 136.515625 47.136719 133.566406 45.835938 134.386719 C 45.675781 134.46875 45.59375 134.628906 45.515625 134.710938 C 45.273438 135.109375 45.273438 135.691406 45.273438 136.195312 L 45.273438 136.273438 L 45.355469 136.355469 C 53.136719 144.316406 56.082031 153.984375 53.457031 164.976562 C 52.636719 168.503906 52.636719 170.390625 53.539062 170.871094 C 54.4375 171.351562 56.242188 170.371094 59.261719 167.84375 C 68.828125 159.902344 81.273438 156.371094 97.144531 157.515625 Z M 97.144531 157.515625 " fill-opacity="1" fill-rule="nonzero"/><path fill="#000000" d="M 71.527344 141.609375 C 69.808594 140.945312 67.347656 142.191406 65.964844 144.398438 C 64.664062 146.441406 64.484375 150.472656 65.644531 150.957031 C 66.867188 151.457031 70.808594 148.988281 72.109375 146.863281 C 73.570312 144.636719 73.25 142.25 71.527344 141.609375 Z M 49.597656 216.984375 L 53.597656 212.070312 C 55.800781 209.359375 57.679688 207.554688 59.824219 206.332031 C 61.863281 205.109375 64.324219 204.285156 67.6875 203.703125 L 73.832031 202.722656 C 90.941406 199.933594 97.324219 198.628906 97.644531 196.726562 C 97.722656 195.824219 96.742188 195.421875 95.84375 195.160156 C 95.84375 195.160156 95.761719 195.160156 95.683594 195.082031 L 95.523438 195.082031 C 78.492188 199.433594 65.644531 197.789062 57.0625 190.648438 C 54.4375 188.523438 52.71875 187.78125 51.65625 188.441406 C 51.417969 188.601562 51.257812 188.761719 51.078125 189.023438 C 50.417969 190.007812 50.175781 191.890625 50.335938 194.839844 C 50.578125 203.042969 48.136719 211.40625 42.894531 219.769531 C 40.511719 223.542969 37.648438 227.230469 34.207031 230.921875 L 34.128906 231.003906 C 34.128906 231.082031 34.046875 231.164062 34.046875 231.164062 C 33.808594 232.066406 33.546875 233.046875 34.207031 233.46875 C 35.347656 234.371094 39.210938 229.9375 49.597656 216.984375 Z M 49.597656 216.984375 " fill-opacity="1" fill-rule="nonzero"/><g clip-path="url(#2992436ed6)"><path fill="#000000" d="M 60.164062 216.320312 C 60.742188 217.625 61.804688 218.527344 63.023438 218.949219 C 64.003906 219.269531 65.066406 219.109375 65.886719 218.628906 C 66.785156 218.125 67.445312 217.222656 67.765625 216.160156 C 68.167969 214.855469 68.085938 213.292969 67.527344 212.070312 C 66.464844 209.761719 62.542969 207.554688 61.144531 208.457031 C 60.984375 208.539062 60.742188 208.777344 60.5625 209.039062 C 60.402344 209.28125 60.242188 209.621094 60.164062 210.023438 C 59.503906 211.90625 59.503906 214.777344 60.164062 216.320312 Z M 133.804688 173.339844 C 133.964844 173.257812 134.046875 173.097656 134.046875 172.9375 C 134.046875 172.777344 133.964844 172.617188 133.804688 172.535156 C 132.664062 171.792969 107.691406 156.632812 86.65625 162.125 C 86.496094 162.207031 86.335938 162.289062 86.257812 162.449219 C 86.175781 162.527344 86.175781 162.609375 86.175781 162.6875 C 86.175781 162.929688 86.335938 163.089844 86.578125 163.089844 C 100.484375 164.074219 113.992188 171.535156 117.996094 173.921875 L 118.65625 174.320312 L 117.996094 174.824219 C 113.914062 177.851562 99.824219 187.941406 85.335938 191.628906 C 85.097656 191.710938 84.835938 191.953125 84.835938 192.210938 C 84.835938 192.453125 84.996094 192.714844 85.335938 192.714844 C 106.96875 194.597656 132.746094 174.242188 133.804688 173.339844 Z M 45.914062 144.234375 C 46.074219 144.074219 46.15625 143.914062 46.15625 143.65625 C 42.070312 130.355469 24.5625 127.328125 23.820312 127.246094 C 23.742188 127.246094 23.660156 127.246094 23.5 127.328125 C 23.402344 127.410156 23.320312 127.488281 23.242188 127.648438 C 23 128.472656 16.859375 148.96875 23.980469 159.640625 C 24.0625 159.800781 24.300781 159.800781 24.480469 159.71875 C 24.640625 159.640625 24.722656 159.398438 24.722656 159.21875 C 23 149.632812 25.703125 138.058594 26.601562 134.769531 L 26.761719 134.269531 L 27.164062 134.347656 C 29.785156 135.011719 39.269531 137.636719 45.414062 144.277344 C 45.515625 144.398438 45.753906 144.398438 45.914062 144.234375 Z M 36.988281 220.832031 C 37.070312 220.59375 37.070312 220.332031 36.910156 220.171875 C 36.75 220.011719 36.507812 220.089844 36.328125 220.25 C 27.402344 230.179688 15.296875 235.835938 11.933594 237.320312 L 11.355469 237.5625 L 11.355469 236.898438 C 11.515625 232.808594 12.496094 218.765625 17.417969 206.953125 C 17.5 206.714844 17.5 206.453125 17.339844 206.371094 C 17.179688 206.292969 17.019531 206.371094 16.835938 206.53125 C 5.570312 220.671875 4.832031 246.265625 4.832031 247.410156 C 4.832031 247.570312 4.910156 247.648438 4.992188 247.730469 C 5.070312 247.808594 5.230469 247.808594 5.3125 247.808594 C 6.230469 247.589844 28.484375 239.285156 36.988281 220.832031 Z M 187.175781 205.671875 L 194.140625 205.671875 L 194.140625 212.230469 L 194.300781 212.230469 C 196.421875 207.554688 201.664062 204.6875 207.148438 204.6875 C 217.292969 204.6875 221.796875 211.328125 221.796875 222.398438 L 221.796875 246.925781 L 214.589844 246.925781 L 214.589844 225.507812 C 214.589844 215.917969 212.628906 211.226562 206.328125 210.824219 C 198.140625 210.824219 194.460938 217.804688 194.460938 227.8125 L 194.460938 246.925781 L 187.253906 246.925781 L 187.253906 205.671875 Z M 255.253906 208.617188 C 258.855469 206.3125 263.199219 204.769531 268.183594 204.769531 C 279.386719 204.769531 283.890625 210.585938 283.890625 221.835938 L 283.890625 238.90625 C 283.890625 243.578125 284.050781 245.804688 284.210938 247.027344 L 277.425781 247.027344 L 277.425781 241.691406 L 277.265625 241.691406 C 275.546875 244.238281 271.703125 248.011719 265.160156 248.011719 C 256.734375 248.011719 250.832031 244.160156 250.832031 235.132812 C 250.832031 224.804688 261.558594 221.515625 269.003906 221.515625 C 271.863281 221.515625 273.824219 221.515625 276.6875 221.675781 C 276.6875 214.535156 274.226562 210.925781 267.023438 210.925781 C 262.9375 210.925781 258.597656 212.570312 255.65625 215.117188 Z M 276.628906 227.3125 C 275.066406 227.3125 273.605469 227.152344 272.042969 227.152344 C 268.121094 227.152344 258.457031 227.8125 258.457031 235.113281 C 258.457031 239.464844 262.457031 241.832031 265.742188 241.832031 C 272.863281 241.832031 276.628906 237.160156 276.628906 231.003906 Z M 312.226562 212.390625 C 311.167969 212.148438 310.1875 212.070312 309.285156 212.070312 C 302.5 212.070312 298.078125 218.546875 298.078125 228.957031 L 298.078125 247.085938 L 290.476562 247.085938 L 290.476562 206.070312 L 297.597656 206.070312 L 297.597656 212.789062 L 297.757812 212.789062 C 299.800781 208.519531 304.144531 205.410156 308.484375 205.410156 C 310.125 205.410156 311.1875 205.570312 312.246094 205.730469 Z M 350.1875 204.769531 C 362.054688 204.769531 370.082031 213.792969 370.082031 226.429688 C 370.082031 238.242188 361.976562 248.011719 350.1875 248.011719 C 338.324219 248.011719 330.21875 238.242188 330.21875 226.429688 C 330.316406 213.792969 338.242188 204.769531 350.1875 204.769531 M 350.1875 241.832031 C 358.613281 241.832031 362.375 233.710938 362.375 226.328125 C 362.375 218.445312 357.875 210.824219 350.1875 210.824219 C 342.40625 210.824219 337.921875 218.445312 337.921875 226.328125 C 337.921875 233.710938 341.683594 241.832031 350.1875 241.832031 Z M 247.890625 205.671875 L 237.324219 205.671875 L 237.324219 193.695312 L 229.800781 196.164062 L 229.800781 205.671875 L 223.578125 211.90625 L 229.800781 211.90625 L 229.800781 236.015625 C 229.800781 244.300781 234.621094 247.992188 242.488281 247.992188 C 244.6875 247.992188 246.988281 247.410156 248.632812 247.007812 L 248.632812 240.609375 C 247.492188 241.269531 245.847656 241.914062 243.808594 241.914062 C 240.285156 241.914062 237.425781 239.285156 237.425781 234.53125 L 237.425781 211.988281 L 247.890625 211.988281 Z M 316.96875 205.671875 L 324.574219 205.671875 L 324.574219 247.007812 L 316.96875 247.007812 Z M 320.730469 200.175781 C 323.273438 200.175781 325.394531 198.128906 325.394531 195.5 C 325.394531 192.953125 323.355469 190.828125 320.730469 190.828125 C 318.109375 190.828125 316.070312 192.875 316.070312 195.5 C 316.070312 198.128906 318.191406 200.175781 320.730469 200.175781 Z M 155.65625 189.503906 C 171.945312 189.503906 181.511719 201.980469 181.511719 218.707031 C 181.511719 235.855469 172.027344 247.910156 155.65625 247.910156 C 139.289062 247.910156 129.882812 235.855469 129.882812 218.707031 C 129.882812 201.980469 139.367188 189.503906 155.65625 189.503906 M 155.65625 240.851562 C 168.023438 240.851562 173.328125 230.019531 173.328125 218.707031 C 173.328125 207.214844 167.523438 196.566406 155.65625 196.644531 C 143.871094 196.566406 138.066406 207.234375 138.066406 218.707031 C 138.066406 230.019531 143.308594 240.851562 155.65625 240.851562 Z M 155.65625 240.851562 " fill-opacity="1" fill-rule="nonzero"/></g></svg>