<svg xmlns="http://www.w3.org/2000/svg" xmlns:xlink="http://www.w3.org/1999/xlink" width="64" zoomAndPan="magnify" viewBox="0 0 48 48" height="64" preserveAspectRatio="xMidYMid meet" version="1.0"><defs><clipPath id="ce499c3b55"><path d="M 0.488281 2 L 47.507812 2 L 47.507812 45 L 0.488281 45 Z M 0.488281 2 " clip-rule="nonzero"/></clipPath></defs><g clip-path="url(#ce499c3b55)"><path fill="#fff" d="M 45.160156 21.160156 L 2.839844 21.160156 C 1.542969 21.160156 0.488281 22.210938 0.488281 23.511719 C 0.488281 24.808594 1.542969 25.859375 2.839844 25.859375 L 45.160156 25.859375 C 46.457031 25.859375 47.511719 24.808594 47.511719 23.511719 C 47.511719 22.210938 46.457031 21.160156 45.160156 21.160156 Z M 45.160156 39.96875 L 2.839844 39.96875 C 1.542969 39.96875 0.488281 41.019531 0.488281 42.320312 C 0.488281 43.617188 1.542969 44.667969 2.839844 44.667969 L 45.160156 44.667969 C 46.457031 44.667969 47.511719 43.617188 47.511719 42.320312 C 47.511719 41.019531 46.457031 39.96875 45.160156 39.96875 Z M 2.839844 7.054688 L 45.160156 7.054688 C 46.457031 7.054688 47.511719 6.003906 47.511719 4.703125 C 47.511719 3.402344 46.457031 2.351562 45.160156 2.351562 L 2.839844 2.351562 C 1.542969 2.351562 0.488281 3.402344 0.488281 4.703125 C 0.488281 6.003906 1.542969 7.054688 2.839844 7.054688 Z M 2.839844 7.054688 " fill-opacity="1" fill-rule="evenodd"/></g></svg>