<svg xmlns="http://www.w3.org/2000/svg" xmlns:xlink="http://www.w3.org/1999/xlink" width="64" zoomAndPan="magnify" viewBox="0 0 48 48" height="64" preserveAspectRatio="xMidYMid meet" version="1.0"><defs><clipPath id="063dfa0036"><path d="M 0.488281 0 L 47.507812 0 L 47.507812 47.019531 L 0.488281 47.019531 Z M 0.488281 0 " clip-rule="nonzero"/></clipPath></defs><g clip-path="url(#063dfa0036)"><path fill="#ffffff" d="M 36.820312 0.0234375 L 11.234375 0.0234375 C 10.53125 0.0234375 9.835938 0.09375 9.144531 0.230469 C 8.453125 0.371094 7.785156 0.574219 7.132812 0.84375 C 6.484375 1.113281 5.867188 1.445312 5.28125 1.835938 C 4.695312 2.226562 4.15625 2.671875 3.65625 3.167969 C 3.160156 3.667969 2.714844 4.207031 2.324219 4.792969 C 1.933594 5.378906 1.601562 5.996094 1.332031 6.644531 C 1.0625 7.296875 0.859375 7.964844 0.722656 8.65625 C 0.582031 9.347656 0.515625 10.042969 0.511719 10.746094 L 0.511719 36.328125 C 0.515625 37.03125 0.582031 37.730469 0.722656 38.421875 C 0.859375 39.109375 1.0625 39.78125 1.332031 40.429688 C 1.601562 41.082031 1.933594 41.699219 2.324219 42.285156 C 2.714844 42.867188 3.160156 43.410156 3.65625 43.90625 C 4.15625 44.40625 4.695312 44.851562 5.28125 45.242188 C 5.867188 45.632812 6.484375 45.960938 7.132812 46.230469 C 7.785156 46.503906 8.453125 46.707031 9.144531 46.84375 C 9.835938 46.980469 10.53125 47.050781 11.234375 47.050781 L 36.820312 47.050781 C 37.523438 47.050781 38.21875 46.980469 38.910156 46.84375 C 39.601562 46.707031 40.269531 46.503906 40.921875 46.230469 C 41.570312 45.960938 42.1875 45.632812 42.773438 45.242188 C 43.359375 44.851562 43.898438 44.40625 44.398438 43.90625 C 44.894531 43.410156 45.339844 42.867188 45.730469 42.285156 C 46.121094 41.699219 46.453125 41.082031 46.722656 40.429688 C 46.992188 39.78125 47.195312 39.109375 47.332031 38.421875 C 47.472656 37.730469 47.542969 37.03125 47.542969 36.328125 L 47.542969 10.746094 C 47.542969 10.042969 47.472656 9.347656 47.332031 8.65625 C 47.195312 7.964844 46.992188 7.296875 46.722656 6.644531 C 46.453125 5.996094 46.121094 5.378906 45.730469 4.792969 C 45.339844 4.207031 44.894531 3.667969 44.398438 3.167969 C 43.898438 2.671875 43.359375 2.226562 42.773438 1.835938 C 42.1875 1.445312 41.570312 1.113281 40.921875 0.84375 C 40.269531 0.574219 39.601562 0.371094 38.910156 0.230469 C 38.21875 0.09375 37.523438 0.0234375 36.820312 0.0234375 Z M 45.179688 36.328125 C 45.179688 36.878906 45.125 37.421875 45.015625 37.960938 C 44.910156 38.496094 44.75 39.019531 44.539062 39.527344 C 44.328125 40.035156 44.070312 40.515625 43.765625 40.972656 C 43.460938 41.425781 43.117188 41.847656 42.726562 42.238281 C 42.339844 42.625 41.917969 42.972656 41.460938 43.277344 C 41.003906 43.582031 40.523438 43.839844 40.015625 44.050781 C 39.511719 44.261719 38.988281 44.417969 38.449219 44.527344 C 37.910156 44.632812 37.367188 44.6875 36.820312 44.6875 L 11.234375 44.6875 C 10.6875 44.6875 10.144531 44.632812 9.605469 44.527344 C 9.066406 44.417969 8.546875 44.261719 8.039062 44.050781 C 7.53125 43.839844 7.050781 43.582031 6.59375 43.277344 C 6.136719 42.972656 5.714844 42.625 5.328125 42.238281 C 4.941406 41.847656 4.59375 41.425781 4.289062 40.972656 C 3.984375 40.515625 3.726562 40.035156 3.515625 39.527344 C 3.304688 39.019531 3.144531 38.496094 3.039062 37.960938 C 2.929688 37.421875 2.878906 36.878906 2.875 36.328125 L 2.875 10.746094 C 2.878906 10.199219 2.929688 9.65625 3.039062 9.117188 C 3.144531 8.578125 3.304688 8.054688 3.515625 7.550781 C 3.726562 7.042969 3.984375 6.5625 4.289062 6.105469 C 4.59375 5.648438 4.941406 5.226562 5.328125 4.839844 C 5.714844 4.449219 6.136719 4.105469 6.59375 3.800781 C 7.050781 3.492188 7.53125 3.234375 8.039062 3.027344 C 8.546875 2.816406 9.066406 2.65625 9.605469 2.550781 C 10.144531 2.441406 10.6875 2.386719 11.234375 2.386719 L 36.820312 2.386719 C 37.367188 2.386719 37.910156 2.441406 38.449219 2.550781 C 38.988281 2.65625 39.511719 2.816406 40.015625 3.027344 C 40.523438 3.234375 41.003906 3.492188 41.460938 3.800781 C 41.917969 4.105469 42.339844 4.449219 42.726562 4.839844 C 43.117188 5.226562 43.460938 5.648438 43.765625 6.105469 C 44.070312 6.5625 44.328125 7.042969 44.539062 7.550781 C 44.75 8.054688 44.910156 8.578125 45.015625 9.117188 C 45.125 9.65625 45.179688 10.199219 45.179688 10.746094 Z M 45.179688 36.328125 " fill-opacity="1" fill-rule="nonzero"/></g><path fill="#ffffff" d="M 40.570312 10.308594 C 40.570312 10.621094 40.507812 10.921875 40.390625 11.210938 C 40.269531 11.5 40.097656 11.757812 39.875 11.976562 C 39.65625 12.199219 39.398438 12.371094 39.109375 12.492188 C 38.820312 12.609375 38.519531 12.671875 38.207031 12.671875 C 37.890625 12.671875 37.589844 12.609375 37.300781 12.492188 C 37.011719 12.371094 36.753906 12.199219 36.535156 11.976562 C 36.3125 11.757812 36.140625 11.5 36.023438 11.210938 C 35.902344 10.921875 35.839844 10.621094 35.839844 10.308594 C 35.839844 9.992188 35.902344 9.691406 36.023438 9.402344 C 36.140625 9.113281 36.3125 8.855469 36.535156 8.636719 C 36.753906 8.414062 37.011719 8.242188 37.300781 8.121094 C 37.589844 8.003906 37.890625 7.941406 38.207031 7.941406 C 38.519531 7.941406 38.820312 8.003906 39.109375 8.121094 C 39.398438 8.242188 39.65625 8.414062 39.875 8.636719 C 40.097656 8.855469 40.269531 9.113281 40.390625 9.402344 C 40.507812 9.691406 40.570312 9.992188 40.570312 10.308594 Z M 40.570312 10.308594 " fill-opacity="1" fill-rule="nonzero"/><path fill="#ffffff" d="M 24.027344 9.566406 C 23.109375 9.566406 22.203125 9.65625 21.300781 9.832031 C 20.402344 10.011719 19.527344 10.277344 18.679688 10.628906 C 17.832031 10.980469 17.027344 11.410156 16.265625 11.921875 C 15.503906 12.429688 14.796875 13.007812 14.148438 13.65625 C 13.5 14.308594 12.917969 15.011719 12.410156 15.777344 C 11.898438 16.539062 11.46875 17.34375 11.117188 18.191406 C 10.769531 19.039062 10.503906 19.914062 10.324219 20.8125 C 10.144531 21.710938 10.054688 22.621094 10.054688 23.539062 C 10.054688 24.457031 10.144531 25.363281 10.324219 26.265625 C 10.503906 27.164062 10.769531 28.039062 11.117188 28.886719 C 11.46875 29.734375 11.902344 30.539062 12.410156 31.300781 C 12.921875 32.0625 13.5 32.769531 14.148438 33.417969 C 14.796875 34.066406 15.503906 34.644531 16.265625 35.15625 C 17.027344 35.664062 17.832031 36.097656 18.679688 36.445312 C 19.527344 36.796875 20.402344 37.0625 21.300781 37.242188 C 22.203125 37.421875 23.109375 37.511719 24.027344 37.511719 C 24.945312 37.511719 25.855469 37.421875 26.753906 37.242188 C 27.652344 37.0625 28.527344 36.796875 29.375 36.445312 C 30.222656 36.097656 31.027344 35.664062 31.792969 35.15625 C 32.554688 34.644531 33.261719 34.066406 33.910156 33.417969 C 34.558594 32.769531 35.136719 32.0625 35.644531 31.300781 C 36.15625 30.539062 36.585938 29.734375 36.9375 28.886719 C 37.289062 28.039062 37.554688 27.164062 37.734375 26.265625 C 37.910156 25.363281 38 24.457031 38 23.539062 C 38 22.621094 37.910156 21.710938 37.730469 20.8125 C 37.550781 19.914062 37.285156 19.039062 36.933594 18.191406 C 36.582031 17.347656 36.152344 16.542969 35.640625 15.777344 C 35.132812 15.015625 34.550781 14.3125 33.902344 13.664062 C 33.253906 13.015625 32.550781 12.433594 31.785156 11.925781 C 31.023438 11.414062 30.21875 10.984375 29.371094 10.632812 C 28.523438 10.28125 27.652344 10.015625 26.753906 9.835938 C 25.851562 9.65625 24.945312 9.566406 24.027344 9.566406 Z M 24.027344 35.148438 C 23.265625 35.148438 22.511719 35.074219 21.761719 34.925781 C 21.015625 34.773438 20.289062 34.554688 19.585938 34.261719 C 18.882812 33.972656 18.210938 33.613281 17.578125 33.191406 C 16.945312 32.765625 16.359375 32.285156 15.820312 31.746094 C 15.28125 31.207031 14.796875 30.621094 14.375 29.988281 C 13.953125 29.355469 13.59375 28.683594 13.300781 27.980469 C 13.011719 27.277344 12.789062 26.550781 12.640625 25.804688 C 12.492188 25.054688 12.417969 24.300781 12.417969 23.539062 C 12.417969 22.777344 12.492188 22.019531 12.640625 21.273438 C 12.789062 20.527344 13.011719 19.800781 13.300781 19.09375 C 13.59375 18.390625 13.953125 17.722656 14.375 17.089844 C 14.796875 16.453125 15.28125 15.867188 15.820312 15.328125 C 16.359375 14.789062 16.945312 14.308594 17.578125 13.886719 C 18.210938 13.460938 18.882812 13.105469 19.585938 12.8125 C 20.289062 12.519531 21.015625 12.300781 21.761719 12.152344 C 22.511719 12.003906 23.265625 11.929688 24.027344 11.929688 C 24.789062 11.929688 25.546875 12.003906 26.292969 12.152344 C 27.039062 12.300781 27.765625 12.519531 28.46875 12.8125 C 29.175781 13.105469 29.84375 13.460938 30.476562 13.886719 C 31.109375 14.308594 31.699219 14.789062 32.238281 15.328125 C 32.777344 15.867188 33.257812 16.453125 33.679688 17.089844 C 34.105469 17.722656 34.460938 18.390625 34.753906 19.09375 C 35.042969 19.800781 35.265625 20.527344 35.414062 21.273438 C 35.5625 22.019531 35.636719 22.777344 35.636719 23.539062 C 35.636719 24.300781 35.5625 25.054688 35.410156 25.800781 C 35.261719 26.550781 35.042969 27.273438 34.75 27.976562 C 34.457031 28.683594 34.101562 29.351562 33.675781 29.984375 C 33.253906 30.617188 32.773438 31.203125 32.234375 31.742188 C 31.695312 32.28125 31.109375 32.761719 30.472656 33.1875 C 29.839844 33.609375 29.171875 33.96875 28.46875 34.261719 C 27.765625 34.550781 27.039062 34.773438 26.292969 34.921875 C 25.542969 35.070312 24.789062 35.144531 24.027344 35.148438 Z M 24.027344 35.148438 " fill-opacity="#d3d3d3" fill-rule="nonzero"/></svg>