<svg xmlns="http://www.w3.org/2000/svg" xmlns:xlink="http://www.w3.org/1999/xlink" width="64" zoomAndPan="magnify" viewBox="0 0 48 48" height="64" preserveAspectRatio="xMidYMid meet" version="1.0"><defs><clipPath id="29e54605a5"><path d="M 0.488281 0 L 47.507812 0 L 47.507812 47.019531 L 0.488281 47.019531 Z M 0.488281 0 " clip-rule="nonzero"/></clipPath></defs><g clip-path="url(#29e54605a5)"><path fill="#d3d3d3" d="M 43.582031 0 L 4.441406 0 C 2.277344 0 0.535156 1.765625 0.535156 3.90625 L 0.535156 43.117188 C 0.535156 45.28125 2.300781 47.019531 4.441406 47.019531 L 43.558594 47.019531 C 45.722656 47.019531 47.464844 45.257812 47.464844 43.117188 L 47.464844 3.90625 C 47.488281 1.765625 45.746094 0 43.582031 0 Z M 14.4375 38.789062 L 7.5 38.789062 L 7.5 17.945312 L 14.4375 17.945312 Z M 10.957031 15.429688 C 8.769531 15.429688 7.003906 13.667969 7.003906 11.480469 C 7.003906 9.292969 8.769531 7.527344 10.957031 7.527344 C 13.144531 7.527344 14.910156 9.292969 14.910156 11.480469 C 14.910156 13.667969 13.144531 15.429688 10.957031 15.429688 Z M 40.546875 38.789062 L 33.585938 38.789062 L 33.421875 26.414062 C 33.421875 26.414062 33.585938 23.121094 29.988281 23.144531 C 26.386719 23.167969 25.894531 26.414062 25.894531 26.414062 L 25.894531 38.789062 L 18.882812 38.789062 L 18.882812 17.945312 L 25.609375 17.945312 L 25.609375 20.816406 C 25.609375 20.816406 25.894531 19.875 27.445312 18.769531 C 29 17.664062 31.5625 17.429688 32.667969 17.476562 C 33.773438 17.523438 35.277344 17.335938 37.796875 19.078125 C 40.5 20.933594 40.570312 25.804688 40.570312 25.804688 Z M 40.546875 38.789062 " fill-opacity="1" fill-rule="nonzero"/></g></svg>