<svg xmlns="http://www.w3.org/2000/svg" xmlns:xlink="http://www.w3.org/1999/xlink" width="64" zoomAndPan="magnify" viewBox="0 0 48 48" height="64" preserveAspectRatio="xMidYMid meet" version="1.0"><defs><clipPath id="fe9b7be8c5"><path d="M 0.488281 3 L 29 3 L 29 44.09375 L 0.488281 44.09375 Z M 0.488281 3 " clip-rule="nonzero"/></clipPath><clipPath id="36ce7b6d77"><path d="M 9 2.949219 L 39 2.949219 L 39 44.09375 L 9 44.09375 Z M 9 2.949219 " clip-rule="nonzero"/></clipPath><clipPath id="d873f2e648"><path d="M 18 2.949219 L 47.507812 2.949219 L 47.507812 44.09375 L 18 44.09375 Z M 18 2.949219 " clip-rule="nonzero"/></clipPath></defs><g clip-path="url(#fe9b7be8c5)"><path fill="#fd3842" d="M 0.523438 3 L 0.488281 44.027344 L 28.964844 23.554688 Z M 0.523438 3 " fill-opacity="1" fill-rule="nonzero"/></g><g clip-path="url(#36ce7b6d77)"><path fill="#fff" d="M 10.09375 3.601562 L 37.710938 23.554688 L 10.078125 43.410156 L 10.09375 3.601562 M 10.09375 2.949219 C 10 2.949219 9.902344 2.964844 9.804688 3.015625 C 9.589844 3.128906 9.445312 3.355469 9.445312 3.601562 L 9.429688 43.410156 C 9.429688 43.652344 9.558594 43.882812 9.785156 43.996094 C 9.882812 44.042969 9.980469 44.058594 10.078125 44.058594 C 10.210938 44.058594 10.339844 44.011719 10.453125 43.929688 L 38.082031 24.074219 C 38.246094 23.945312 38.359375 23.75 38.359375 23.554688 C 38.359375 23.34375 38.261719 23.148438 38.082031 23.03125 L 10.484375 3.078125 C 10.371094 3 10.242188 2.949219 10.09375 2.949219 Z M 10.09375 2.949219 " fill-opacity="1" fill-rule="nonzero"/></g><g clip-path="url(#d873f2e648)"><path fill="#fff" d="M 19.261719 3.632812 L 46.859375 23.585938 L 19.230469 43.441406 L 19.261719 3.632812 M 19.261719 2.980469 C 19.164062 2.980469 19.066406 3 18.96875 3.046875 C 18.757812 3.160156 18.613281 3.386719 18.613281 3.632812 L 18.578125 43.441406 C 18.578125 43.6875 18.710938 43.914062 18.9375 44.027344 C 19.035156 44.074219 19.132812 44.09375 19.230469 44.09375 C 19.359375 44.09375 19.488281 44.042969 19.605469 43.960938 L 47.234375 24.105469 C 47.394531 23.976562 47.511719 23.78125 47.511719 23.585938 C 47.511719 23.375 47.414062 23.179688 47.234375 23.066406 L 19.652344 3.113281 C 19.539062 3.03125 19.390625 2.980469 19.261719 2.980469 Z M 19.261719 2.980469 " fill-opacity="1" fill-rule="nonzero"/></g></svg>