<?xml version="1.0" standalone="no"?>
<!DOCTYPE svg PUBLIC "-//W3C//DTD SVG 20010904//EN"
 "http://www.w3.org/TR/2001/REC-SVG-20010904/DTD/svg10.dtd">
<svg version="1.0" xmlns="http://www.w3.org/2000/svg"
 width="518.000000pt" height="282.000000pt" viewBox="0 0 518.000000 282.000000"
 preserveAspectRatio="xMidYMid meet">

<g transform="translate(0.000000,282.000000) scale(0.100000,-0.100000)"
fill="#000000" stroke="none">
<path d="M0 1410 l0 -1410 2590 0 2590 0 0 1410 0 1410 -2590 0 -2590 0 0
-1410z m2758 1240 c37 -23 66 -81 58 -115 -8 -31 -45 -75 -71 -85 -28 -10 -32
-33 -41 -205 l-7 -131 83 -13 82 -14 22 26 c59 70 153 60 191 -20 17 -35 17
-41 3 -80 -14 -40 -14 -43 4 -60 16 -14 22 -15 36 -5 34 24 68 33 109 30 l42
-3 17 63 c17 62 17 63 -4 85 -29 30 -29 86 -2 115 31 33 92 30 119 -4 12 -15
21 -37 21 -50 0 -31 -47 -84 -75 -84 -20 0 -25 -9 -40 -65 l-18 -64 32 -27
c42 -35 61 -74 61 -124 0 -103 -96 -184 -196 -166 -19 4 -52 23 -73 42 l-39
34 -141 -61 c-133 -58 -141 -63 -141 -90 0 -25 4 -28 53 -38 28 -6 150 -31
269 -54 l217 -44 20 28 c41 55 123 55 174 -1 53 -59 25 -158 -52 -181 -56 -17
-108 10 -137 71 l-22 45 -263 52 c-166 34 -265 49 -267 43 -9 -27 -56 -69 -92
-84 l-40 -16 0 -112 c0 -62 4 -118 8 -124 4 -6 22 -19 39 -28 38 -19 63 -62
63 -107 0 -22 -10 -41 -34 -65 -28 -28 -41 -34 -78 -34 -67 1 -108 44 -108
115 0 29 8 45 34 71 19 19 42 34 51 34 14 0 16 6 11 31 -3 17 -6 74 -6 125 0
94 0 95 -27 104 -55 20 -78 38 -100 81 -28 53 -29 93 -3 144 18 36 19 40 3 57
-12 13 -25 16 -52 12 -43 -7 -86 21 -93 60 -13 64 53 121 108 94 43 -20 62
-60 46 -100 -10 -28 -10 -35 7 -51 17 -18 20 -18 49 -3 17 9 37 16 45 16 11 0
16 37 24 178 5 97 9 178 8 179 -1 2 -62 14 -135 28 l-133 24 -29 -24 c-16 -14
-42 -25 -58 -25 -24 0 -34 -11 -84 -94 -31 -52 -56 -99 -56 -104 0 -5 7 -15
14 -22 23 -18 39 -77 32 -115 -4 -18 -17 -48 -30 -67 l-23 -35 76 -116 c65
-100 79 -115 98 -111 44 12 92 -32 93 -84 0 -73 -85 -108 -136 -56 -22 22 -25
31 -20 67 3 23 7 49 8 57 1 8 -29 63 -67 123 l-70 107 -34 -7 c-19 -3 -50 -6
-69 -7 -28 -1 -39 -8 -64 -42 -26 -36 -28 -45 -18 -64 7 -13 12 -40 12 -61 -1
-68 -46 -109 -118 -109 -52 0 -104 53 -104 107 0 75 61 129 136 121 22 -2 33
5 57 38 l29 42 -22 30 c-26 35 -37 110 -21 139 9 18 6 24 -27 46 -34 22 -41
23 -63 11 -36 -20 -67 -17 -94 11 -41 40 -33 105 16 130 39 21 53 19 88 -11
25 -20 31 -34 31 -64 0 -33 5 -41 35 -60 l34 -21 22 20 c30 27 79 43 125 39
37 -3 38 -2 93 85 54 86 56 91 55 157 l0 68 -60 65 c-59 64 -61 66 -101 60
-35 -5 -45 -2 -67 20 -53 53 -20 137 54 137 56 0 85 -36 77 -95 -7 -45 -6 -46
59 -115 53 -56 69 -68 83 -60 33 17 101 -15 101 -47 0 -7 10 -17 23 -22 20 -8
211 -42 247 -45 12 -1 17 27 26 154 l11 155 -38 33 c-66 57 -62 131 10 179 42
28 66 29 109 3z m-2308 -1935 l0 -76 32 17 c39 20 110 14 147 -13 63 -47 91
-127 71 -202 -27 -100 -138 -158 -220 -116 -17 9 -30 11 -30 5 0 -6 -24 -10
-55 -10 l-55 0 0 235 0 235 55 0 55 0 0 -75z m1970 -40 l0 -116 53 56 52 56
60 -3 60 -3 -69 -72 -69 -72 59 -72 c33 -39 69 -84 82 -100 l23 -29 -60 0 -60
0 -53 64 c-62 76 -78 74 -78 -10 l0 -54 -55 0 -55 0 0 235 0 235 55 0 55 0 0
-115z m1600 40 c0 -41 2 -75 4 -75 2 0 17 7 32 15 98 51 224 -41 224 -163 0
-59 -33 -126 -74 -152 -50 -30 -119 -37 -153 -15 -18 12 -28 14 -31 7 -2 -7
-25 -12 -53 -12 l-49 0 0 235 0 235 50 0 50 0 0 -75z m-2992 -72 c54 -41 84
-108 74 -170 -3 -22 -7 -23 -118 -23 -65 0 -114 -4 -114 -9 0 -32 81 -51 133
-32 21 8 29 5 53 -20 27 -28 27 -29 8 -44 -24 -18 -80 -35 -118 -35 -126 0
-219 115 -185 229 14 48 70 107 113 121 46 14 124 6 154 -17z m316 13 c33 -14
66 -50 66 -72 0 -7 -18 -15 -41 -19 -30 -5 -45 -3 -58 9 -10 10 -25 14 -35 10
-31 -12 -12 -36 46 -58 76 -28 103 -55 103 -105 0 -112 -181 -152 -257 -57
-26 31 -22 43 18 56 29 10 38 9 52 -2 23 -20 49 -28 67 -22 31 12 13 36 -49
63 -70 32 -96 60 -96 106 0 80 97 127 184 91z m242 -1 c5 -13 10 -12 37 1 76
40 178 -11 209 -104 32 -94 -4 -186 -86 -223 -50 -23 -88 -24 -126 -4 l-30 16
0 -76 0 -75 -55 0 -55 0 0 233 c0 129 3 237 7 240 13 14 93 7 99 -8z m594 -19
c76 -50 99 -167 48 -243 -34 -52 -88 -78 -158 -78 -96 1 -163 61 -176 158 -11
79 44 162 124 188 44 14 121 2 162 -25z m790 12 c57 -29 90 -84 90 -150 l0
-48 -122 0 -123 -1 28 -24 c30 -27 83 -33 119 -14 17 9 25 6 49 -17 27 -26 28
-29 12 -46 -23 -26 -89 -41 -147 -34 -193 22 -225 273 -45 345 41 16 93 12
139 -11z m387 7 c43 -18 73 -43 73 -60 0 -6 -15 -19 -34 -28 -31 -14 -38 -15
-65 -1 -37 19 -75 10 -101 -23 -26 -33 -25 -73 1 -107 16 -21 29 -26 63 -26
23 0 47 5 53 11 8 8 62 -8 92 -28 11 -8 -47 -54 -85 -69 -104 -40 -227 28
-241 134 -12 89 24 158 102 193 49 23 94 24 142 4z m220 -15 c8 -14 30 -63 51
-110 l38 -84 49 112 49 112 48 0 c26 0 48 -4 48 -10 0 -5 -46 -113 -102 -240
l-102 -230 -53 0 -53 0 26 58 c15 31 28 64 31 72 2 8 -28 86 -66 172 -39 87
-71 162 -71 168 0 7 18 10 47 8 39 -2 50 -8 60 -28z m1032 -3 c45 -30 74 -93
69 -148 l-3 -34 -120 -5 -120 -5 29 -22 c30 -24 84 -30 114 -14 13 7 26 2 52
-19 l34 -28 -34 -21 c-119 -72 -280 -8 -297 117 -8 58 4 107 34 143 61 72 164
87 242 36z m231 -11 l5 -39 15 28 c16 30 63 55 105 55 23 0 25 -3 25 -49 l0
-48 -42 -6 c-28 -4 -51 -15 -71 -36 -29 -28 -31 -36 -35 -121 l-4 -90 -49 0
-49 0 0 176 0 175 48 -3 c47 -3 47 -3 52 -42z"/>
<path d="M2655 2605 c-30 -30 -31 -54 -4 -89 26 -33 68 -34 97 -3 28 30 28 68
-1 95 -30 29 -62 28 -92 -3z"/>
<path d="M2020 2455 c-14 -17 -5 -51 15 -59 33 -12 61 19 50 55 -8 23 -47 25
-65 4z"/>
<path d="M3307 2214 c-12 -12 -8 -51 7 -63 24 -20 58 4 54 37 -2 20 -9 28 -28
30 -14 2 -29 0 -33 -4z"/>
<path d="M2264 2174 c-8 -33 15 -59 44 -50 46 15 34 76 -14 76 -17 0 -25 -7
-30 -26z"/>
<path d="M2940 2107 c-62 -32 -45 -119 25 -125 47 -4 75 19 75 64 0 23 -7 38
-26 53 -31 24 -40 25 -74 8z"/>
<path d="M2687 2015 c-4 -33 -9 -115 -13 -182 -6 -109 -5 -123 9 -123 9 0 32
-14 52 -31 19 -17 41 -29 49 -26 8 3 73 31 144 62 130 57 131 58 125 86 -3 17
2 48 12 75 16 43 16 46 0 64 -13 15 -22 17 -36 10 -10 -6 -36 -10 -59 -10 -34
0 -48 6 -76 34 -19 19 -34 43 -34 53 0 17 -13 22 -84 34 l-84 15 -5 -61z"/>
<path d="M1751 1966 c-7 -8 -10 -24 -6 -35 14 -45 79 -30 73 17 -2 21 -9 28
-29 30 -14 2 -31 -4 -38 -12z"/>
<path d="M3152 1920 c-68 -41 -78 -133 -21 -189 39 -39 86 -48 134 -25 84 39
99 139 31 201 -43 39 -93 44 -144 13z"/>
<path d="M1987 1850 c-67 -53 -51 -152 29 -179 34 -12 47 -12 72 -2 41 17 65
55 65 105 0 80 -102 126 -166 76z"/>
<path d="M2407 1813 c-13 -12 -7 -52 9 -61 38 -21 80 21 54 53 -13 15 -51 20
-63 8z"/>
<path d="M2594 1670 c-34 -13 -74 -69 -74 -101 0 -92 88 -146 170 -104 123 63
32 257 -96 205z"/>
<path d="M1795 1505 c-28 -27 -31 -45 -14 -78 16 -30 28 -37 65 -37 62 0 89
75 44 120 -27 27 -66 25 -95 -5z"/>
<path d="M3385 1450 c-41 -45 -10 -120 50 -120 63 0 98 77 55 120 -26 26 -81
26 -105 0z"/>
<path d="M2297 1363 c-12 -12 -7 -50 8 -63 19 -15 52 -4 60 21 4 11 1 26 -5
34 -13 15 -51 20 -63 8z"/>
<path d="M2630 1103 c-75 -27 -60 -133 19 -133 32 0 71 39 71 70 0 38 -54 76
-90 63z"/>
<path d="M490 567 c-46 -24 -60 -94 -27 -136 37 -45 120 -26 135 31 20 77 -43
139 -108 105z"/>
<path d="M4063 570 c-37 -15 -55 -77 -37 -125 10 -24 60 -46 89 -39 33 8 65
50 65 85 0 55 -66 100 -117 79z"/>
<path d="M892 564 c-37 -26 -25 -34 51 -34 l72 1 -28 24 c-32 29 -63 32 -95 9z"/>
<path d="M1633 570 c-71 -28 -65 -137 10 -163 22 -8 66 8 83 31 19 25 17 86
-3 110 -22 24 -60 33 -90 22z"/>
<path d="M2043 570 c-27 -11 -43 -40 -43 -80 0 -43 14 -65 49 -79 39 -17 85 6
100 50 14 41 -8 95 -44 109 -31 12 -33 12 -62 0z"/>
<path d="M2843 555 l-28 -24 73 -1 c75 0 87 8 50 34 -32 23 -63 20 -95 -9z"/>
<path d="M4460 555 l-23 -25 72 0 c67 0 71 1 62 19 -21 39 -77 42 -111 6z"/>
</g>
</svg>
