<svg xmlns="http://www.w3.org/2000/svg" xmlns:xlink="http://www.w3.org/1999/xlink" width="500" zoomAndPan="magnify" viewBox="0 0 375 374.999991" height="500" preserveAspectRatio="xMidYMid meet" version="1.0"><rect x="-37.5" width="450" fill="#ffffff" y="-37.499999" height="449.999989" fill-opacity="1"/><path fill="#2b2b2d" d="M 157.960938 182.296875 L 155.054688 195.15625 L 125.054688 195.15625 L 125.515625 193.472656 L 130.871094 193.472656 L 138.066406 160.410156 L 132.402344 160.410156 L 133.011719 158.574219 L 151.074219 158.574219 L 150.613281 160.410156 L 144.800781 160.410156 L 137.605469 193.472656 L 143.421875 193.472656 C 147.25 193.472656 148.777344 193.625 151.226562 191.480469 C 153.0625 189.953125 155.359375 186.582031 156.429688 182.300781 L 157.960938 182.300781 Z M 170.359375 196.070312 C 164.542969 196.070312 159.796875 191.171875 159.796875 184.746094 C 159.796875 176.175781 168.214844 169.285156 174.796875 169.285156 C 180.765625 169.285156 184.746094 174.796875 184.746094 180.152344 C 184.746094 183.367188 183.523438 186.429688 181.683594 189.335938 C 178.316406 194.234375 173.878906 196.070312 170.359375 196.070312 Z M 179.234375 176.175781 C 179.234375 173.265625 178.011719 170.820312 174.949219 170.820312 C 172.652344 170.820312 170.359375 172.195312 169.132812 174.183594 C 167.449219 177.09375 165.15625 184.285156 165.15625 188.417969 C 165.15625 192.703125 167.757812 194.082031 169.898438 194.082031 C 171.582031 194.082031 173.417969 193.316406 174.492188 192.09375 C 176.328125 189.949219 177.554688 185.972656 178.316406 182.605469 C 178.777344 180.152344 179.234375 178.316406 179.234375 176.175781 Z M 199.132812 170.054688 L 197.910156 176.175781 C 200.046875 170.972656 204.488281 168.980469 208.160156 168.980469 C 210.914062 168.980469 213.671875 169.898438 213.671875 173.726562 C 213.671875 174.796875 213.519531 175.714844 213.367188 176.632812 L 210 189.492188 C 209.542969 191.785156 209.695312 191.171875 209.542969 191.632812 C 209.234375 193.011719 210.152344 193.011719 210.765625 193.011719 C 211.6875 193.011719 212.449219 192.402344 212.910156 191.785156 C 214.441406 189.800781 214.285156 190.257812 215.511719 187.960938 L 217.195312 188.878906 C 215.96875 191.480469 213.519531 196.070312 208.777344 196.070312 C 206.480469 196.070312 204.492188 194.539062 204.492188 191.785156 C 204.492188 191.019531 204.644531 190.410156 204.796875 189.492188 L 207.859375 176.023438 C 208.011719 175.257812 208.164062 174.492188 208.320312 173.878906 C 208.621094 172.195312 206.9375 171.585938 206.019531 171.585938 C 204.492188 171.585938 202.652344 172.960938 200.660156 175.105469 C 197.601562 178.472656 196.222656 182.601562 195.457031 185.359375 L 193.164062 195.308594 L 187.652344 195.308594 L 193.316406 171.734375 L 188.265625 171.734375 L 188.417969 170.054688 Z M 248.566406 189.183594 C 246.578125 193.011719 244.28125 195.609375 240.457031 195.765625 C 237.394531 195.917969 236.9375 193.46875 236.78125 191.941406 L 236.78125 191.171875 L 236.324219 191.78125 C 235.097656 193.621094 232.191406 196.066406 228.515625 196.066406 C 224.386719 196.066406 219.488281 192.089844 219.488281 185.660156 C 219.488281 176.628906 227.601562 169.132812 233.875 169.132812 C 237.699219 169.132812 239.382812 170.355469 240.304688 171.886719 L 243.363281 158.878906 L 237.699219 158.878906 L 238.3125 157.195312 L 249.332031 157.195312 L 242.136719 186.273438 C 241.527344 189.183594 241.066406 190.867188 241.066406 191.9375 C 241.066406 192.855469 241.375 193.160156 242.136719 193.007812 C 243.363281 192.855469 243.820312 192.089844 244.742188 191.019531 C 245.042969 190.558594 246.425781 188.570312 246.730469 188.113281 Z M 234.945312 170.816406 C 233.261719 170.816406 230.96875 171.585938 229.128906 174.644531 C 225.917969 180.308594 225 184.285156 225 188.417969 C 225 192.09375 226.832031 193.929688 229.128906 193.929688 C 230.199219 193.929688 231.582031 193.625 232.957031 192.246094 C 235.40625 190.101562 236.324219 187.65625 237.855469 182.757812 C 241.066406 173.113281 237.238281 170.816406 234.945312 170.816406 Z M 261.578125 195.765625 C 255.761719 195.765625 251.011719 191.019531 251.011719 184.589844 C 251.011719 176.023438 259.433594 169.132812 266.015625 169.132812 C 272.136719 169.132812 276.113281 174.488281 276.113281 180 C 276.113281 183.058594 274.890625 186.273438 272.898438 189.027344 C 269.535156 193.929688 265.097656 195.765625 261.578125 195.765625 Z M 270.453125 176.023438 C 270.453125 172.960938 269.230469 170.664062 266.167969 170.664062 C 263.875 170.664062 261.578125 172.042969 260.351562 174.03125 C 258.667969 176.785156 256.375 184.132812 256.375 188.113281 C 256.375 192.550781 258.976562 193.925781 261.117188 193.925781 C 262.800781 193.925781 264.636719 193.007812 265.707031 191.78125 C 267.542969 189.636719 268.769531 185.816406 269.535156 182.296875 C 270.144531 180 270.453125 178.011719 270.453125 176.023438 Z M 290.65625 170.054688 L 289.277344 176.175781 C 291.421875 170.972656 295.859375 168.980469 299.53125 168.980469 C 302.4375 168.980469 305.191406 169.898438 305.191406 173.726562 C 305.191406 174.796875 304.890625 175.714844 304.734375 176.632812 L 301.519531 189.492188 C 301.066406 191.785156 301.066406 191.171875 301.066406 191.632812 C 300.757812 193.011719 301.519531 193.011719 302.132812 193.011719 C 303.054688 193.011719 303.820312 192.402344 304.433594 191.785156 C 305.964844 189.800781 305.808594 190.257812 307.03125 187.960938 L 308.5625 188.878906 C 307.492188 191.480469 305.042969 196.070312 300.144531 196.070312 C 298.003906 196.070312 296.011719 194.539062 296.011719 191.785156 C 296.011719 191.019531 296.167969 190.410156 296.320312 189.492188 L 299.226562 176.023438 C 299.535156 175.257812 299.683594 174.492188 299.683594 173.878906 C 299.992188 172.195312 298.460938 171.585938 297.390625 171.585938 C 296.011719 171.585938 294.175781 172.960938 292.183594 175.105469 C 289.125 178.472656 287.746094 182.601562 286.980469 185.359375 L 284.53125 195.308594 L 279.175781 195.308594 L 284.835938 171.734375 L 279.636719 171.734375 L 279.789062 170.054688 Z M 52.664062 158.265625 L 53.886719 158.265625 L 54.042969 156.890625 L 55.265625 156.890625 L 53.734375 159.492188 C 53.734375 159.796875 54.191406 159.644531 54.5 159.644531 L 54.652344 159.492188 L 54.652344 160.714844 C 53.429688 161.175781 52.054688 160.714844 52.054688 160.714844 L 52.054688 159.492188 C 52.207031 159.644531 52.820312 159.796875 52.972656 159.492188 L 51.441406 156.890625 L 52.664062 156.890625 Z M 26.644531 179.695312 C 26.949219 180.152344 27.105469 180.613281 27.257812 181.070312 C 27.714844 182.144531 28.175781 183.0625 28.785156 184.132812 L 26.796875 185.816406 C 27.871094 187.195312 29.09375 188.417969 30.164062 189.796875 C 33.378906 187.5 36.59375 185.050781 40.113281 183.214844 C 41.644531 182.453125 43.785156 183.0625 45.46875 182.296875 C 44.09375 183.371094 43.328125 184.898438 42.101562 185.972656 C 42.867188 186.890625 43.171875 188.113281 43.785156 189.1875 C 42.253906 189.1875 40.574219 189.339844 39.195312 188.878906 C 39.5 189.644531 39.5 191.632812 39.65625 192.554688 C 38.277344 191.945312 36.746094 191.632812 35.523438 190.5625 C 35.675781 192.554688 34.910156 194.085938 34.296875 195.769531 C 33.226562 194.851562 32.308594 193.933594 31.695312 192.859375 C 31.082031 194.238281 29.707031 195.3125 28.785156 196.6875 L 26.796875 199.597656 C 27.257812 198.371094 27.410156 196.84375 27.410156 195.460938 C 23.585938 194.851562 19.300781 193.015625 17.769531 189.03125 C 17.464844 188.246094 17.3125 187.429688 17.308594 186.585938 C 18.378906 188.730469 20.675781 189.953125 22.816406 190.261719 C 19.449219 188.269531 16.851562 184.75 16.542969 180.769531 C 17.613281 182.914062 19.910156 185.054688 22.050781 185.976562 L 22.050781 185.820312 C 18.53125 182.457031 16.386719 178.320312 16.851562 173.421875 C 17.179688 174.929688 17.78125 176.320312 18.652344 177.589844 C 19.527344 178.863281 20.609375 179.921875 21.898438 180.769531 C 18.992188 176.941406 16.851562 172.199219 18.535156 167.148438 C 18.6875 172.347656 22.207031 176.941406 26.644531 179.695312 Z M 89.703125 180.917969 C 92.457031 179.234375 94.140625 176.328125 94.90625 173.574219 C 95.210938 178.472656 93.070312 182.601562 89.550781 185.96875 C 91.84375 185.050781 93.988281 183.058594 95.058594 180.917969 C 94.90625 183.519531 93.683594 185.816406 91.84375 187.804688 C 90.925781 188.726562 89.855469 189.640625 88.785156 190.257812 C 89.796875 190.089844 90.769531 189.78125 91.695312 189.335938 C 92.84375 188.652344 93.761719 187.734375 94.449219 186.582031 C 94.292969 189.796875 91.847656 192.855469 88.9375 194.082031 C 87.40625 194.691406 85.878906 195.152344 84.195312 195.457031 C 84.195312 196.835938 84.347656 198.363281 84.808594 199.589844 C 83.582031 197.601562 82.050781 195.609375 80.519531 193.773438 C 80.261719 193.503906 80.058594 193.199219 79.910156 192.855469 C 79.296875 193.925781 78.378906 194.84375 77.308594 195.765625 C 76.699219 194.082031 75.929688 192.550781 76.085938 190.558594 C 74.863281 191.78125 73.332031 191.9375 71.953125 192.546875 C 71.953125 191.324219 71.953125 190.097656 72.414062 189.023438 C 70.730469 189.332031 69.046875 189.179688 67.820312 189.179688 C 68.28125 188.109375 68.738281 186.882812 69.503906 185.964844 C 68.125 184.894531 67.363281 183.363281 66.136719 182.292969 C 67.511719 182.902344 69.65625 182.597656 71.1875 183.054688 C 72.875 183.988281 74.507812 185.007812 76.085938 186.117188 L 80.21875 189.023438 L 81.289062 189.792969 L 81.441406 189.792969 L 84.8125 185.8125 L 82.972656 184.28125 C 83.738281 182.902344 84.351562 181.371094 84.8125 179.84375 C 89.25 176.933594 92.921875 172.496094 93.074219 167.140625 C 94.75 172.195312 92.609375 177.09375 89.703125 180.917969 Z M 89.703125 180.917969 " fill-opacity="1" fill-rule="evenodd"/><path fill="#2b2b2d" d="M 26.339844 178.472656 C 25.117188 177.859375 24.042969 176.632812 23.277344 175.5625 C 23.429688 172.65625 24.195312 170.054688 25.421875 167.453125 C 24.808594 171.277344 25.421875 175.101562 26.339844 178.472656 Z M 88.324219 175.714844 C 87.558594 176.785156 86.488281 177.859375 85.265625 178.472656 C 86.183594 175.101562 86.796875 171.277344 86.183594 167.605469 C 87.460938 170.160156 88.171875 172.863281 88.324219 175.714844 Z M 29.09375 174.644531 C 29.398438 173.726562 29.707031 172.808594 30.320312 171.890625 C 30.320312 172.960938 30.167969 174.183594 30.777344 175.101562 C 32.460938 174.796875 34.453125 174.492188 36.289062 174.796875 C 35.371094 175.101562 34.296875 175.871094 33.839844 176.785156 C 33.6875 176.632812 33.6875 176.328125 33.535156 176.175781 C 33.074219 176.175781 32.617188 176.328125 32.15625 176.328125 L 33.535156 177.707031 C 33.378906 178.472656 33.230469 179.542969 33.535156 180.308594 C 33.6875 178.316406 34.757812 176.480469 36.441406 175.5625 C 37.359375 175.101562 38.433594 174.796875 39.351562 175.410156 C 39.808594 175.867188 39.960938 176.480469 39.808594 177.09375 C 39.808594 176.785156 39.503906 176.480469 39.195312 176.328125 C 37.820312 175.867188 36.746094 176.9375 35.984375 178.011719 C 35.828125 178.164062 35.523438 178.46875 35.523438 178.777344 C 36.136719 179.234375 36.902344 179.082031 37.667969 178.929688 C 38.277344 178.777344 38.738281 178.621094 39.351562 178.164062 C 38.277344 179.691406 36.59375 180.304688 35.21875 180.917969 L 35.675781 181.683594 C 35.371094 181.992188 35.066406 182.296875 34.757812 182.453125 L 33.839844 181.226562 C 32.769531 181.992188 31.699219 182.605469 30.777344 183.371094 L 31.542969 184.441406 C 31.238281 184.746094 30.933594 185.054688 30.625 185.054688 C 28.023438 181.6875 26.035156 176.789062 28.023438 172.503906 L 28.636719 171.585938 C 28.636719 172.65625 28.636719 173.726562 29.09375 174.644531 Z M 81.589844 184.285156 L 80.976562 185.050781 C 80.671875 185.050781 80.363281 184.746094 80.058594 184.59375 C 80.214844 184.132812 80.671875 183.828125 80.828125 183.371094 C 79.90625 182.601562 78.835938 181.992188 77.765625 181.226562 L 76.847656 182.449219 L 76.695312 182.449219 C 76.390625 182.140625 76.082031 181.992188 75.777344 181.835938 C 75.929688 181.53125 76.234375 181.226562 76.390625 180.917969 C 75.777344 180.613281 75.164062 180.460938 74.550781 180 C 73.632812 179.695312 72.714844 179.082031 72.257812 178.164062 C 73.175781 178.929688 74.703125 179.234375 76.082031 178.929688 C 76.082031 178.625 75.777344 178.472656 75.777344 178.164062 C 75.007812 177.09375 73.785156 176.175781 72.410156 176.328125 C 72.101562 176.328125 71.949219 176.632812 71.796875 176.941406 L 71.796875 177.09375 C 71.644531 176.785156 71.644531 176.023438 71.949219 175.714844 C 72.410156 175.105469 73.175781 175.105469 73.9375 175.257812 C 75.625 175.5625 77.308594 177.09375 77.765625 178.777344 C 77.917969 179.238281 77.917969 179.851562 78.070312 180.460938 C 78.375 179.542969 78.222656 178.316406 78.070312 177.707031 C 78.53125 177.246094 78.988281 176.789062 79.449219 176.484375 C 78.988281 176.328125 78.53125 176.328125 78.070312 176.175781 C 78.070312 176.332031 77.917969 176.636719 77.765625 176.789062 C 77.308594 176.023438 76.390625 175.105469 75.316406 174.953125 C 77 174.492188 79.140625 174.796875 80.828125 175.257812 C 81.4375 174.339844 81.285156 173.113281 81.132812 172.042969 C 81.898438 172.808594 82.203125 173.726562 82.507812 174.796875 C 82.96875 173.726562 83.121094 172.808594 82.96875 171.585938 C 85.722656 175.5625 84.039062 180.917969 81.589844 184.285156 Z M 81.589844 184.285156 " fill-opacity="1" fill-rule="evenodd"/><path fill="#2b2b2d" d="M 53.582031 149.390625 L 55.113281 149.390625 L 55.113281 148.167969 L 56.492188 148.167969 L 56.492188 149.390625 L 57.867188 149.390625 L 57.867188 148.167969 L 59.246094 148.167969 L 59.246094 152.910156 L 58.328125 153.679688 L 58.328125 157.046875 L 60.929688 157.046875 C 61.082031 156.738281 61.386719 156.433594 61.847656 156.585938 L 64.449219 156.585938 C 64.296875 157.351562 63.992188 158.269531 63.226562 158.730469 C 63.007812 158.929688 62.753906 159.03125 62.460938 159.035156 C 63.070312 159.496094 63.226562 160.257812 63.070312 161.023438 C 62.917969 161.332031 62.765625 161.636719 62.460938 161.789062 C 63.070312 162.707031 63.226562 163.933594 62.460938 164.851562 C 63.839844 165.617188 62.460938 166.6875 62.613281 167.757812 C 63.074219 168.066406 63.53125 168.371094 63.6875 168.984375 C 63.6875 169.597656 63.53125 170.207031 63.074219 170.515625 C 62.921875 170.667969 62.613281 170.667969 62.464844 170.667969 C 62.464844 171.128906 62.921875 171.585938 63.382812 171.890625 C 64.300781 172.503906 65.832031 172.351562 66.902344 171.890625 C 67.363281 171.585938 67.972656 170.972656 68.125 170.359375 C 68.28125 170.054688 68.125 169.75 67.972656 169.441406 C 67.511719 168.828125 66.75 168.675781 66.136719 168.828125 C 65.625 168.996094 65.214844 169.304688 64.914062 169.746094 C 64.453125 168.066406 64.605469 165.921875 66.136719 164.847656 C 66.902344 164.542969 67.972656 164.542969 68.738281 165.003906 C 68.894531 165.003906 69.042969 165.308594 69.351562 165.460938 C 69.195312 163.011719 69.503906 160.410156 71.800781 159.035156 C 73.175781 158.265625 75.164062 158.421875 76.542969 159.339844 L 77.460938 160.105469 C 77.882812 160.140625 78.296875 160.113281 78.707031 160.027344 C 79.121094 159.9375 79.507812 159.789062 79.878906 159.585938 C 80.246094 159.382812 80.574219 159.128906 80.867188 158.824219 C 81.160156 158.523438 81.402344 158.183594 81.59375 157.808594 C 81.902344 157.503906 82.054688 156.890625 82.054688 156.433594 C 82.496094 156.757812 82.878906 157.144531 83.203125 157.585938 C 83.53125 158.027344 83.78125 158.511719 83.957031 159.03125 C 84.136719 159.550781 84.234375 160.085938 84.246094 160.632812 C 84.261719 161.183594 84.195312 161.722656 84.042969 162.25 C 83.890625 162.402344 84.042969 162.554688 84.199219 162.707031 C 85.882812 163.015625 87.105469 161.941406 88.328125 160.871094 C 88.484375 163.472656 87.5625 166.074219 85.117188 167.296875 C 83.738281 167.910156 81.902344 167.605469 80.679688 166.6875 C 79.453125 165.769531 78.6875 164.542969 78.078125 163.320312 C 77.617188 162.707031 76.699219 162.859375 75.78125 163.015625 C 74.558594 163.167969 73.332031 164.085938 72.71875 165.160156 C 72.566406 165.617188 72.414062 165.921875 72.414062 166.382812 C 72.566406 166.382812 72.875 166.226562 73.027344 166.074219 C 74.097656 165.617188 75.476562 165.921875 76.242188 166.6875 C 77.007812 167.453125 77.160156 168.675781 76.851562 169.597656 C 76.546875 170.667969 75.472656 171.738281 74.554688 172.046875 C 74.402344 170.972656 73.789062 170.515625 73.179688 170.515625 C 71.648438 170.207031 71.035156 171.738281 69.964844 172.503906 C 68.894531 173.574219 67.054688 174.339844 67.207031 176.023438 C 67.207031 176.789062 67.667969 177.554688 68.28125 178.011719 C 68.585938 178.164062 68.894531 178.316406 69.199219 178.316406 C 67.207031 179.082031 64.453125 179.234375 62.769531 177.707031 C 62.3125 178.316406 62.925781 179.542969 63.074219 179.695312 C 63.535156 180.613281 64.148438 181.378906 64.148438 182.453125 C 63.230469 181.535156 62.160156 181.226562 60.78125 181.535156 C 60.78125 181.535156 60.015625 181.535156 56.496094 183.675781 C 55.578125 184.289062 54.8125 184.59375 54.8125 184.59375 C 54.8125 184.59375 54.507812 184.441406 54.355469 184.441406 C 53.28125 183.675781 52.058594 183.0625 50.988281 182.605469 C 50.574219 182.175781 50.371094 181.667969 50.375 181.074219 C 50.449219 180.769531 50.59375 180.511719 50.816406 180.289062 C 51.035156 180.070312 51.296875 179.921875 51.597656 179.851562 L 51.597656 179.542969 L 50.835938 178.320312 C 50.269531 178.1875 49.707031 178.035156 49.148438 177.859375 C 47.160156 178.777344 44.40625 179.082031 42.261719 178.320312 C 43.027344 178.167969 43.792969 177.707031 44.101562 176.941406 C 44.40625 176.175781 44.40625 175.105469 43.792969 174.492188 C 42.722656 173.269531 41.34375 172.503906 40.429688 171.128906 C 39.816406 170.667969 38.898438 170.359375 38.132812 170.515625 C 37.820312 170.644531 37.566406 170.847656 37.375 171.125 C 37.179688 171.402344 37.074219 171.710938 37.0625 172.046875 C 35.835938 171.589844 34.613281 170.058594 34.613281 168.679688 C 34.613281 167.609375 35.070312 166.84375 35.835938 166.230469 C 36.90625 165.769531 38.285156 165.769531 39.050781 166.382812 C 39.050781 165.3125 38.441406 164.394531 37.675781 163.78125 C 36.601562 163.015625 34.917969 162.558594 33.695312 163.171875 C 32.777344 164.546875 32.011719 165.925781 30.636719 166.84375 C 29.410156 167.609375 27.574219 167.761719 26.195312 166.996094 C 24.054688 165.773438 23.136719 163.324219 23.289062 160.875 C 24.054688 161.488281 24.96875 162.25 25.886719 162.558594 C 26.347656 162.710938 27.265625 162.863281 27.726562 162.40625 C 27.417969 161.945312 27.265625 161.027344 27.265625 160.722656 C 27.417969 159.039062 28.183594 157.355469 29.5625 156.285156 C 29.5625 157.816406 30.9375 159.34375 32.316406 159.804688 C 32.929688 159.957031 33.539062 160.113281 34.152344 160.113281 C 35.375 158.886719 36.90625 158.273438 38.589844 158.582031 C 39.96875 158.886719 41.34375 160.113281 41.804688 161.335938 C 42.261719 162.5625 42.261719 164.09375 42.261719 165.46875 C 42.875 164.703125 43.792969 164.398438 44.863281 164.703125 C 45.9375 164.855469 46.546875 166.082031 46.699219 167 C 46.855469 167.917969 46.855469 168.988281 46.699219 169.753906 C 46.242188 169.140625 45.632812 168.679688 44.710938 168.835938 C 44.25 168.835938 43.792969 168.988281 43.488281 169.449219 C 43.179688 169.90625 43.332031 170.671875 43.640625 171.128906 C 44.710938 172.507812 46.699219 172.660156 48.230469 172.355469 C 48.691406 172.199219 49 172.050781 49.457031 171.894531 C 49.148438 172.355469 49.148438 173.117188 49.609375 173.578125 C 51.140625 175.109375 53.742188 174.957031 55.730469 174.496094 C 57.273438 174.042969 58.753906 173.429688 60.167969 172.660156 C 59.097656 174.039062 60.476562 175.570312 60.78125 176.945312 C 61.238281 176.179688 61.855469 175.414062 62.160156 174.496094 C 62.3125 176.027344 63.230469 177.40625 64.761719 177.863281 C 65.371094 178.019531 66.136719 178.019531 66.902344 177.863281 C 66.292969 177.097656 65.984375 176.179688 66.292969 175.261719 C 66.445312 174.039062 67.667969 173.425781 67.824219 172.355469 C 66.597656 173.117188 64.761719 173.425781 63.382812 172.8125 C 62.464844 172.507812 61.699219 171.589844 61.238281 170.671875 C 58.792969 172.660156 55.730469 173.730469 52.210938 173.425781 C 52.515625 172.660156 52.976562 172.050781 53.28125 171.285156 L 52.058594 171.285156 L 50.988281 173.273438 C 50.554688 173.023438 50.25 172.667969 50.070312 172.203125 C 50.070312 171.742188 50.21875 171.128906 50.527344 170.824219 C 50.375 170.671875 50.070312 170.671875 49.914062 170.671875 C 49.585938 170.570312 49.296875 170.398438 49.054688 170.15625 C 48.8125 169.910156 48.636719 169.625 48.539062 169.292969 C 48.539062 168.53125 48.996094 167.765625 49.761719 167.765625 C 49.761719 167.460938 49.609375 166.847656 49.761719 166.542969 C 49.84375 166.3125 49.980469 166.128906 50.179688 165.988281 C 50.375 165.847656 50.59375 165.777344 50.835938 165.773438 C 50.835938 165.773438 50.835938 165.621094 50.988281 165.621094 L 50.988281 164.550781 L 49.148438 164.089844 L 47.3125 159.34375 C 47.3125 159.34375 48.691406 158.425781 49.304688 157.96875 C 48.84375 157.664062 49.457031 157.355469 49.457031 156.894531 L 50.222656 155.976562 C 50.070312 155.210938 50.222656 154.445312 49.917969 153.832031 C 50.683594 154.140625 51.292969 154.75 52.0625 154.75 L 53.132812 154.597656 L 53.132812 153.679688 L 52.367188 152.914062 L 52.367188 148.167969 L 53.589844 148.167969 L 53.589844 149.390625 Z M 55.722656 151.6875 C 54.652344 152.144531 54.804688 153.21875 54.804688 154.285156 L 56.640625 154.285156 C 56.640625 153.675781 56.792969 153.214844 56.640625 152.605469 C 56.492188 152.296875 56.183594 151.6875 55.722656 151.6875 Z M 50.828125 155.207031 L 50.980469 156.277344 C 50.671875 156.738281 50.210938 157.046875 50.210938 157.65625 L 50.980469 158.730469 C 50.980469 159.1875 50.671875 159.648438 50.519531 160.105469 L 51.441406 161.941406 L 52.359375 161.941406 L 53.277344 163.015625 L 54.195312 161.941406 L 54.960938 161.941406 L 56.03125 160.105469 C 55.722656 159.648438 55.417969 159.1875 55.417969 158.730469 L 56.339844 157.65625 C 56.183594 157.046875 55.878906 156.738281 55.570312 156.277344 L 55.570312 155.207031 L 54.652344 155.667969 C 53.683594 155.351562 52.714844 155.351562 51.746094 155.667969 Z M 61.691406 157.347656 C 61.539062 157.5 61.386719 157.65625 61.082031 157.808594 C 60.316406 157.960938 59.089844 157.65625 58.328125 157.960938 C 58.019531 158.117188 57.867188 158.421875 57.714844 158.730469 C 57.714844 159.035156 57.558594 159.492188 57.867188 159.648438 C 58.480469 160.566406 59.859375 160.257812 60.777344 160.257812 L 61.082031 160.566406 C 61.082031 160.71875 60.929688 160.871094 60.777344 160.871094 L 56.492188 160.871094 C 56.183594 161.484375 55.722656 161.941406 55.722656 162.707031 L 54.5 162.707031 L 53.277344 164.238281 L 52.054688 162.707031 L 50.675781 162.707031 L 50.675781 162.25 L 49.605469 160.105469 C 49.773438 159.703125 49.925781 159.296875 50.0625 158.882812 L 49.757812 158.574219 L 48.378906 159.648438 L 49.757812 163.472656 L 50.980469 163.777344 L 50.980469 163.472656 L 51.746094 163.472656 L 51.59375 166.074219 C 51.59375 166.535156 51.136719 166.226562 50.828125 166.382812 C 50.371094 166.6875 50.675781 167.453125 50.523438 167.757812 C 50.855469 167.519531 51.226562 167.371094 51.632812 167.316406 C 52.039062 167.261719 52.433594 167.308594 52.820312 167.453125 L 53.738281 164.851562 C 55.574219 165.003906 57.5625 164.546875 58.941406 163.167969 C 59.402344 164.085938 60.015625 164.851562 60.777344 165.617188 L 60.777344 166.078125 C 60.777344 166.535156 60.320312 166.078125 60.011719 166.382812 C 59.707031 166.382812 59.707031 166.996094 59.707031 167.300781 L 60.316406 167.761719 C 60.777344 167.457031 61.390625 167.457031 61.847656 167.457031 L 62.304688 165.621094 L 61.539062 164.699219 C 61.847656 164.546875 62 164.242188 62.152344 163.9375 C 62.304688 163.171875 62.152344 162.40625 61.539062 161.792969 C 62.152344 161.488281 62.304688 161.027344 62.304688 160.414062 C 62.152344 158.882812 60.316406 159.496094 59.246094 159.34375 C 58.632812 159.34375 58.632812 158.578125 59.246094 158.578125 C 60.316406 158.578125 61.695312 158.730469 62.613281 158.269531 C 63.070312 158.117188 63.378906 157.660156 63.378906 157.351562 L 61.691406 157.351562 Z M 29.09375 158.113281 L 28.941406 158.265625 C 28.023438 159.644531 28.023438 161.636719 28.941406 163.011719 C 28.636719 163.167969 28.484375 163.316406 28.175781 163.472656 C 26.953125 163.929688 25.421875 163.625 24.347656 162.859375 C 24.65625 164.085938 25.421875 165.460938 26.644531 166.226562 C 27.71875 166.683594 28.941406 166.683594 29.859375 166.074219 C 32.003906 164.847656 32.308594 162.703125 33.53125 161.023438 C 31.695312 161.023438 29.859375 159.796875 29.09375 158.113281 Z M 82.355469 158.113281 C 81.742188 159.949219 79.90625 161.023438 78.070312 161.023438 C 79.140625 162.554688 79.445312 164.390625 81.128906 165.765625 C 82.046875 166.378906 83.117188 166.839844 84.34375 166.378906 C 85.875 165.921875 86.945312 164.390625 87.253906 162.859375 C 86.792969 163.164062 86.183594 163.46875 85.570312 163.625 C 84.496094 163.777344 83.425781 163.625 82.660156 163.011719 C 82.816406 162.859375 82.816406 162.703125 82.96875 162.554688 C 83.578125 161.175781 83.425781 159.339844 82.355469 158.113281 Z M 58.632812 164.234375 L 57.558594 165 C 57.558594 165.308594 57.867188 165.460938 58.019531 165.613281 C 58.019531 165.765625 58.019531 166.222656 57.867188 166.222656 C 57.710938 166.378906 57.253906 166.222656 57.101562 166.378906 C 56.792969 166.378906 56.640625 166.683594 56.640625 166.988281 C 57.101562 166.988281 57.558594 166.988281 57.867188 167.449219 C 58.171875 167.292969 58.480469 166.988281 58.9375 167.140625 C 58.9375 166.679688 58.9375 166.375 59.242188 165.917969 C 59.242188 165.761719 59.550781 165.613281 59.703125 165.613281 C 59.296875 165.191406 58.941406 164.730469 58.632812 164.234375 Z M 57.101562 167.757812 C 56.796875 167.605469 56.183594 167.605469 55.878906 167.910156 C 56.644531 168.367188 56.796875 169.441406 57.714844 169.59375 C 58.023438 169.746094 58.328125 169.59375 58.484375 169.441406 C 58.019531 168.980469 57.714844 168.214844 57.101562 167.757812 Z M 54.652344 167.757812 C 54.195312 167.605469 53.886719 167.757812 53.582031 168.0625 L 54.804688 169.285156 C 55.265625 169.59375 55.878906 169.746094 56.335938 169.441406 C 55.722656 168.828125 55.265625 168.0625 54.652344 167.757812 Z M 58.328125 167.910156 C 58.785156 168.523438 59.089844 169.132812 59.703125 169.746094 C 60.0625 169.90625 60.417969 169.90625 60.777344 169.746094 C 60.316406 169.132812 60.011719 168.523438 59.550781 168.0625 C 59.246094 167.757812 58.632812 167.757812 58.328125 167.910156 Z M 52.511719 168.0625 C 52.050781 167.910156 51.589844 167.910156 51.285156 168.214844 C 51.898438 168.671875 52.359375 169.285156 52.972656 169.746094 C 53.277344 169.898438 53.890625 169.746094 54.195312 169.59375 C 53.582031 168.980469 53.121094 168.367188 52.511719 168.0625 Z M 60.621094 168.367188 C 61.082031 168.828125 61.390625 169.59375 62 169.898438 C 62.304688 170.054688 62.613281 170.054688 62.765625 169.746094 C 62.921875 169.59375 62.921875 169.285156 62.921875 168.980469 C 62.460938 168.214844 61.386719 168.0625 60.621094 168.367188 Z M 50.367188 168.523438 C 50.214844 168.367188 49.910156 168.523438 49.601562 168.523438 C 49.449219 168.675781 49.449219 168.980469 49.449219 169.285156 C 49.601562 169.59375 49.753906 169.898438 50.0625 169.898438 C 50.671875 170.054688 51.4375 170.054688 51.898438 169.746094 C 51.441406 169.285156 50.980469 168.675781 50.367188 168.523438 Z M 43.785156 172.5 C 44.859375 173.878906 45.773438 175.5625 45.011719 177.246094 C 44.859375 177.550781 44.703125 177.703125 44.554688 177.855469 C 46.234375 178.011719 47.613281 177.703125 48.839844 176.9375 C 49.605469 177.246094 50.523438 177.398438 51.441406 177.398438 C 52.359375 179.234375 53.277344 180.917969 53.886719 182.90625 C 54.042969 181.53125 53.886719 180 53.582031 178.621094 C 53.429688 178.164062 53.277344 177.703125 53.121094 177.398438 C 54.347656 177.242188 55.570312 176.785156 56.644531 176.324219 C 57.410156 175.867188 58.328125 175.40625 58.941406 174.488281 C 56.953125 175.710938 54.652344 176.324219 52.054688 176.480469 C 50.523438 176.480469 48.839844 176.480469 48.074219 174.949219 C 47.769531 174.335938 48.226562 173.570312 48.378906 173.113281 C 46.847656 173.574219 45.011719 173.265625 43.785156 172.5 Z M 38.890625 182.601562 L 34.605469 185.511719 L 30.472656 188.417969 L 30.320312 188.417969 L 28.175781 185.816406 C 28.480469 185.511719 28.941406 185.203125 29.25 184.898438 L 30.472656 186.277344 C 31.238281 185.816406 32.003906 185.203125 32.769531 184.59375 C 32.617188 184.289062 32.15625 183.828125 32.003906 183.523438 L 33.535156 182.296875 L 34.453125 183.523438 C 35.21875 182.910156 36.136719 182.453125 36.898438 181.992188 L 36.59375 181.378906 C 37.054688 181.070312 37.511719 180.765625 38.125 180.613281 Z M 75.007812 181.378906 L 74.703125 181.988281 L 77.152344 183.519531 C 77.460938 183.214844 77.765625 182.753906 78.070312 182.449219 L 79.601562 183.519531 L 78.835938 184.589844 L 81.132812 186.429688 C 81.589844 185.96875 81.898438 185.511719 82.355469 185.050781 C 82.660156 185.203125 83.121094 185.511719 83.425781 185.816406 L 83.425781 185.96875 L 81.128906 188.417969 L 75.621094 184.589844 L 72.710938 182.753906 L 73.476562 180.609375 C 74.089844 180.765625 74.550781 181.070312 75.007812 181.378906 Z M 47.460938 190.558594 L 49.296875 187.652344 L 51.132812 190.558594 Z M 63.988281 190.558594 L 60.472656 190.558594 C 60.972656 189.558594 61.535156 188.589844 62.152344 187.652344 C 62.765625 188.574219 63.378906 189.640625 63.988281 190.558594 Z M 50.214844 196.839844 C 49.910156 197.449219 49.757812 198.367188 49.605469 199.285156 C 49.910156 199.4375 50.371094 199.285156 50.675781 199.132812 L 50.828125 199.132812 L 50.828125 200.050781 C 50.523438 199.898438 50.214844 199.898438 49.757812 199.898438 C 49.757812 200.359375 49.910156 200.820312 49.757812 201.429688 L 48.839844 201.429688 C 48.839844 200.820312 48.839844 200.359375 48.992188 199.898438 C 48.535156 199.898438 48.074219 199.898438 47.769531 200.050781 L 47.769531 199.132812 C 48.074219 199.285156 48.535156 199.4375 48.992188 199.285156 C 48.992188 198.367188 48.6875 197.601562 48.378906 196.839844 C 48.6875 196.378906 49.144531 195.765625 49.296875 195.308594 C 49.449219 195.765625 49.910156 196.378906 50.214844 196.839844 Z M 50.214844 196.839844 " fill-opacity="1" fill-rule="evenodd"/><path fill="#2b2b2d" d="M 64.140625 183.523438 L 65.976562 183.523438 C 66.589844 184.441406 67.355469 185.359375 68.121094 185.972656 C 67.203125 187.347656 66.742188 189.03125 65.671875 190.410156 L 67.355469 190.410156 C 67.507812 191.941406 67.660156 193.472656 68.425781 194.695312 L 58.324219 194.695312 L 58.324219 202.039062 L 67.660156 202.039062 C 67.203125 208.773438 62 215.355469 55.722656 217.804688 C 49.449219 215.355469 44.398438 208.773438 43.9375 202.039062 L 53.121094 202.039062 L 53.121094 194.695312 L 43.171875 194.695312 C 43.9375 193.472656 44.089844 191.941406 44.089844 190.410156 L 45.773438 190.410156 L 45.773438 190.257812 C 44.699219 189.03125 44.394531 187.5 43.476562 186.125 C 43.476562 186.125 43.324219 185.972656 43.476562 185.972656 C 44.222656 185.222656 44.886719 184.40625 45.464844 183.523438 L 50.824219 183.523438 C 52.199219 184.132812 53.425781 184.746094 54.648438 185.664062 C 56.484375 184.746094 58.167969 183.675781 60.003906 182.605469 C 60.921875 182.300781 62.148438 181.992188 63.0625 182.605469 C 63.378906 182.910156 63.835938 183.214844 64.140625 183.523438 Z M 64.753906 186.734375 L 46.847656 186.734375 L 46.847656 187.347656 L 48.683594 187.347656 L 46.539062 190.871094 C 46.691406 191.328125 47 191.941406 47.457031 192.246094 C 48.222656 192.855469 49.292969 193.011719 50.210938 192.703125 C 50.980469 192.402344 51.742188 191.785156 52.050781 190.871094 L 50.0625 187.347656 L 54.652344 187.347656 L 54.652344 188.726562 L 55.570312 188.726562 L 54.347656 190.257812 L 55.722656 191.632812 L 57.101562 190.257812 L 55.878906 188.726562 L 56.796875 188.726562 L 56.949219 187.347656 L 61.539062 187.347656 C 61.539062 187.347656 60.164062 189.796875 59.398438 190.871094 C 59.550781 191.171875 59.855469 191.632812 60.007812 191.941406 C 60.773438 192.859375 61.996094 193.011719 63.066406 192.707031 C 63.835938 192.554688 64.753906 191.632812 64.90625 190.871094 L 62.761719 187.347656 L 64.75 187.347656 L 64.75 186.734375 Z M 53.121094 206.175781 L 45.929688 206.175781 C 47 209.695312 49.757812 213.210938 53.121094 215.355469 Z M 58.328125 206.175781 L 58.328125 215.355469 C 60.472656 213.980469 62.304688 212.140625 63.835938 210 C 64.601562 208.773438 65.214844 207.550781 65.671875 206.175781 Z M 82.046875 214.4375 C 81.894531 215.5625 81.894531 216.683594 82.046875 217.804688 L 81.285156 217.804688 C 81.589844 217.035156 81.4375 215.964844 81.4375 215.050781 C 81.132812 215.8125 80.976562 216.582031 80.828125 217.34375 L 80.210938 217.34375 C 80.210938 216.582031 80.058594 215.964844 79.753906 215.355469 L 79.753906 217.65625 L 79.90625 217.804688 C 79.601562 217.957031 79.292969 217.957031 79.140625 217.957031 L 79.292969 217.65625 C 79.292969 216.734375 79.292969 215.664062 79.140625 214.746094 C 79.445312 214.59375 79.753906 214.59375 80.210938 214.59375 C 80.210938 215.050781 80.515625 215.664062 80.515625 216.125 C 80.671875 215.664062 80.976562 215.050781 80.976562 214.441406 L 82.046875 214.441406 Z M 33.226562 215.203125 L 33.226562 217.804688 L 33.378906 218.109375 C 33.074219 218.109375 32.769531 217.957031 32.460938 217.957031 L 32.617188 217.652344 C 32.617188 216.582031 32.769531 215.507812 32.460938 214.589844 L 33.378906 214.742188 Z M 78.375 215.203125 C 78.222656 216.273438 78.683594 217.652344 77.765625 218.261719 C 77.308594 218.414062 76.847656 218.566406 76.539062 218.261719 L 76.390625 217.957031 L 76.390625 215.660156 L 76.234375 215.507812 C 76.390625 215.351562 76.847656 215.203125 77.152344 215.203125 L 76.847656 215.507812 L 77 217.804688 C 77.304688 218.261719 77.609375 217.804688 77.765625 217.652344 L 77.765625 215.351562 L 77.613281 215.050781 C 77.917969 214.898438 78.222656 214.898438 78.53125 214.742188 Z M 31.695312 215.050781 C 32 215.8125 32 216.582031 31.542969 217.195312 C 31.082031 217.957031 30.164062 217.804688 29.246094 217.804688 C 29.855469 217.035156 29.550781 215.8125 29.550781 214.742188 C 29.550781 214.589844 29.398438 214.589844 29.398438 214.4375 C 30.316406 214.4375 31.238281 214.285156 31.695312 215.050781 Z M 30.316406 214.898438 L 30.164062 217.34375 C 30.46875 217.34375 30.777344 217.34375 30.929688 217.039062 C 31.238281 216.582031 31.238281 215.8125 31.085938 215.203125 C 30.929688 214.898438 30.625 214.898438 30.316406 214.898438 Z M 35.980469 215.507812 L 35.980469 216.273438 C 35.675781 216.121094 35.523438 215.664062 35.0625 215.8125 C 34.453125 216.273438 34.605469 216.886719 34.757812 217.496094 C 34.757812 217.804688 34.910156 218.109375 35.21875 218.265625 C 35.523438 218.265625 35.675781 218.265625 35.980469 218.109375 L 35.980469 218.878906 C 35.21875 218.878906 34.605469 218.726562 34.144531 217.957031 C 33.835938 217.347656 33.835938 216.273438 34.296875 215.8125 C 34.601562 215.355469 35.0625 215.203125 35.523438 215.355469 C 35.675781 215.351562 35.828125 215.507812 35.980469 215.507812 Z M 75.925781 216.121094 L 75.925781 216.273438 C 75.621094 216.121094 75.46875 216.121094 75.160156 216.273438 L 75.007812 216.425781 C 75.160156 217.195312 75.007812 218.261719 75.316406 219.027344 L 74.398438 219.488281 C 74.703125 218.566406 74.398438 217.496094 74.550781 216.582031 C 74.246094 216.582031 73.9375 217.035156 73.785156 217.34375 C 73.628906 217.039062 73.785156 216.734375 73.785156 216.425781 C 74.398438 216.121094 75.007812 215.964844 75.773438 215.507812 C 75.925781 215.664062 75.925781 215.964844 75.925781 216.121094 Z M 38.429688 217.496094 C 38.277344 217.195312 37.972656 216.886719 37.664062 216.886719 C 37.511719 217.804688 37.511719 218.875 37.664062 219.640625 L 36.898438 219.335938 C 37.050781 218.417969 36.898438 217.5 37.050781 216.425781 C 36.742188 216.425781 36.59375 216.273438 36.285156 216.425781 L 36.285156 215.816406 L 38.429688 216.738281 Z M 73.324219 217.496094 C 73.324219 217.34375 73.019531 217.34375 72.867188 217.34375 C 72.472656 217.59375 72.269531 217.953125 72.253906 218.417969 C 72.253906 218.875 72.253906 219.488281 72.710938 219.640625 C 73.019531 219.796875 73.324219 219.488281 73.476562 219.183594 L 73.476562 219.949219 C 73.171875 220.101562 72.710938 220.410156 72.40625 220.253906 C 72.164062 220.152344 71.972656 219.988281 71.832031 219.761719 C 71.691406 219.539062 71.625 219.292969 71.640625 219.03125 C 71.488281 218.109375 71.792969 217.347656 72.710938 216.886719 C 72.867188 216.734375 73.171875 216.886719 73.324219 216.734375 Z M 39.65625 217.34375 L 39.5 217.652344 L 39.5 219.949219 C 39.5 220.101562 39.804688 220.25 39.960938 220.40625 C 40.113281 220.40625 40.417969 220.25 40.417969 220.101562 C 40.265625 219.335938 40.570312 218.417969 40.265625 217.652344 L 41.03125 218.109375 C 40.726562 218.566406 40.878906 219.179688 40.878906 219.792969 C 40.878906 221.320312 39.65625 220.863281 39.347656 220.558594 C 39.042969 220.25 38.890625 220.101562 38.890625 219.640625 C 38.734375 218.722656 39.042969 217.652344 38.734375 216.882812 Z M 42.714844 218.726562 C 42.714844 219.335938 42.871094 219.796875 43.023438 220.40625 C 43.328125 219.949219 43.480469 219.488281 43.636719 219.027344 C 43.789062 219.027344 44.246094 219.027344 44.554688 219.179688 L 44.398438 219.640625 L 44.554688 222.089844 L 44.554688 222.394531 C 44.398438 222.546875 43.941406 222.394531 43.785156 222.394531 C 43.632812 222.242188 43.941406 222.089844 43.941406 222.089844 L 43.941406 219.640625 C 43.636719 220.40625 43.328125 221.019531 43.171875 221.628906 L 42.714844 221.472656 C 42.714844 220.710938 42.410156 219.945312 42.253906 219.179688 C 42.101562 220.046875 42.101562 220.914062 42.253906 221.78125 C 41.949219 221.78125 41.796875 221.628906 41.644531 221.628906 L 41.488281 221.628906 L 41.644531 221.472656 C 41.796875 220.558594 41.644531 219.488281 41.644531 218.566406 L 41.488281 218.261719 Z M 70.722656 218.109375 C 70.878906 219.027344 71.183594 219.792969 71.488281 220.558594 L 71.640625 220.863281 C 71.335938 220.863281 71.03125 221.171875 70.722656 221.171875 C 70.878906 220.863281 70.722656 220.710938 70.722656 220.40625 C 70.417969 220.40625 70.113281 220.558594 69.804688 220.710938 C 69.804688 221.015625 69.804688 221.320312 69.957031 221.628906 C 69.652344 221.78125 69.347656 221.933594 69.039062 221.933594 C 69.5 220.859375 69.652344 219.792969 69.804688 218.722656 L 69.804688 218.414062 C 70.113281 218.261719 70.417969 218.109375 70.722656 218.109375 Z M 70.570312 219.949219 L 70.265625 218.726562 L 69.957031 220.101562 Z M 68.886719 219.335938 C 69.039062 219.640625 69.039062 220.25 68.734375 220.558594 C 68.578125 220.863281 68.121094 220.863281 67.660156 221.019531 C 67.660156 221.472656 67.660156 221.933594 67.816406 222.242188 C 67.507812 222.394531 67.203125 222.242188 66.898438 222.394531 C 67.203125 221.472656 67.050781 220.40625 67.050781 219.335938 L 66.898438 219.027344 C 67.664062 219.179688 68.429688 218.570312 68.886719 219.335938 Z M 67.664062 219.335938 L 67.664062 220.558594 C 67.816406 220.558594 68.121094 220.558594 68.121094 220.40625 C 68.277344 220.101562 68.277344 219.796875 68.277344 219.640625 C 68.273438 219.335938 67.816406 219.335938 67.664062 219.335938 Z M 67.664062 219.335938 " fill-opacity="1" fill-rule="evenodd"/><path fill="#2b2b2d" d="M 43.023438 190.257812 C 43.175781 191.941406 42.714844 193.46875 41.644531 194.847656 C 41.796875 195.152344 42.105469 195.457031 42.257812 195.609375 C 42.867188 195.609375 43.328125 195.765625 43.636719 195.457031 C 44.09375 195.15625 44.398438 195.457031 44.554688 195.765625 C 44.859375 195.765625 45.011719 195.765625 45.316406 195.609375 C 45.316406 195.765625 45.164062 196.070312 45.011719 196.070312 C 44.859375 196.226562 44.859375 196.226562 44.707031 196.226562 C 44.402344 196.527344 44.246094 196.835938 43.789062 196.679688 C 43.636719 196.378906 43.328125 196.527344 43.023438 196.527344 C 43.480469 196.988281 43.941406 197.449219 44.554688 197.601562 L 45.472656 197.601562 C 45.777344 197.753906 45.625 198.210938 45.929688 198.367188 L 46.386719 198.367188 C 46.234375 198.824219 45.625 198.671875 45.316406 198.980469 C 44.550781 199.132812 44.246094 198.367188 43.785156 198.210938 L 43.019531 197.601562 C 43.019531 198.367188 43.328125 198.980469 43.785156 199.589844 C 44.09375 199.742188 44.398438 199.742188 44.554688 199.894531 C 44.859375 200.046875 44.554688 200.503906 45.011719 200.503906 L 45.46875 200.503906 C 45.164062 200.964844 44.550781 200.8125 44.246094 201.117188 C 43.941406 201.273438 43.636719 201.117188 43.328125 200.964844 C 43.171875 200.660156 43.171875 200.355469 43.171875 200.042969 C 42.410156 199.28125 42.101562 198.210938 41.796875 197.292969 C 41.644531 197.445312 41.492188 197.597656 41.644531 197.75 C 41.644531 197.90625 41.949219 198.207031 41.644531 198.515625 C 41.488281 198.667969 41.644531 198.976562 41.644531 199.128906 C 41.488281 198.976562 41.335938 198.820312 41.03125 198.667969 C 40.878906 198.667969 40.421875 198.363281 40.878906 197.597656 C 40.878906 197.136719 41.183594 196.675781 41.335938 196.222656 C 41.335938 196.066406 41.03125 195.761719 40.878906 195.605469 C 39.042969 197.292969 36.746094 198.058594 34.601562 198.976562 C 34.144531 199.28125 33.53125 199.894531 33.378906 200.503906 C 33.378906 200.8125 33.53125 200.960938 33.835938 201.273438 C 35.675781 201.730469 37.207031 200.042969 39.042969 201.117188 C 40.265625 201.882812 39.65625 203.875 41.335938 204.332031 C 40.570312 204.636719 39.65625 205.097656 39.347656 206.011719 C 39.195312 206.933594 39.195312 208.3125 39.804688 209.074219 C 41.183594 210.605469 44.09375 209.074219 44.703125 211.523438 C 44.703125 211.980469 44.703125 212.441406 44.246094 212.75 C 44.246094 213.03125 44.179688 213.292969 44.042969 213.539062 C 43.90625 213.785156 43.71875 213.980469 43.480469 214.125 L 43.023438 214.277344 C 43.175781 213.972656 43.328125 213.667969 43.175781 213.359375 C 43.050781 213.078125 42.847656 212.875 42.566406 212.75 C 42.566406 213.054688 42.410156 213.515625 42.257812 213.820312 C 41.953125 214.277344 41.492188 214.277344 41.035156 214.433594 C 41.339844 213.972656 41.339844 213.664062 41.1875 213.207031 C 41.1875 213.054688 41.035156 212.75 40.882812 212.75 C 40.578125 213.359375 39.964844 213.972656 39.199219 214.125 C 39.351562 213.820312 39.503906 213.515625 39.351562 213.054688 C 39.351562 212.441406 38.433594 212.59375 38.28125 211.980469 C 37.667969 211.0625 36.75 210.449219 35.679688 210.605469 C 36.289062 209.6875 37.207031 208.769531 36.75 207.542969 C 36.597656 206.933594 35.984375 206.320312 35.371094 206.167969 L 34.453125 206.167969 C 34.148438 205.25 33.535156 204.179688 32.617188 204.023438 C 32.464844 204.023438 32.464844 203.871094 32.3125 204.023438 C 33.230469 205.25 33.382812 207.390625 32.617188 208.921875 C 32.007812 210.757812 29.863281 211.21875 28.789062 212.75 C 33.839844 212.441406 37.820312 214.585938 41.800781 216.578125 C 42.566406 216.878906 43.484375 217.1875 44.402344 217.339844 C 44.554688 216.882812 44.402344 216.421875 44.859375 216.269531 C 46.390625 215.808594 48.226562 216.269531 49.453125 217.339844 C 50.066406 217.800781 49.757812 218.722656 49.910156 219.332031 C 50.523438 219.636719 51.289062 219.636719 52.054688 219.941406 C 54.964844 220.246094 58.332031 220.246094 61.085938 219.636719 C 61.238281 219.484375 61.542969 219.484375 61.695312 219.332031 C 61.695312 218.722656 61.542969 218.105469 61.851562 217.648438 C 63.226562 216.421875 65.0625 215.808594 66.75 216.269531 C 67.207031 216.578125 67.054688 216.878906 67.054688 217.339844 C 69.808594 217.035156 71.949219 215.351562 74.402344 214.433594 C 77 213.363281 79.757812 212.597656 82.820312 212.753906 C 81.59375 211.222656 79.296875 210.609375 78.6875 208.464844 C 78.226562 207.085938 78.378906 205.253906 79.296875 204.027344 C 78.976562 204.023438 78.675781 204.101562 78.402344 204.265625 C 78.125 204.433594 77.914062 204.660156 77.769531 204.945312 C 77.460938 205.402344 77.308594 205.863281 77.15625 206.171875 C 76.390625 206.171875 75.472656 206.324219 75.011719 207.089844 C 74.550781 207.699219 74.550781 208.773438 75.011719 209.539062 L 75.777344 210.613281 C 74.707031 210.457031 73.789062 211.222656 73.175781 212.140625 C 72.871094 212.753906 71.953125 212.597656 72.105469 213.367188 C 72.105469 213.671875 72.105469 213.824219 72.410156 213.976562 C 71.949219 213.976562 71.492188 213.824219 71.1875 213.367188 C 70.878906 213.210938 70.878906 212.757812 70.574219 212.757812 C 70.113281 213.058594 70.269531 213.671875 70.421875 214.132812 L 70.421875 214.285156 C 70.113281 214.4375 69.808594 214.285156 69.5 214.132812 C 69.207031 213.71875 69.054688 213.261719 69.042969 212.757812 C 68.738281 212.757812 68.582031 212.90625 68.429688 213.210938 C 68.277344 213.367188 68.277344 213.671875 68.277344 213.980469 L 68.429688 214.285156 C 67.96875 214.132812 67.359375 213.671875 67.207031 213.210938 L 67.207031 212.757812 C 66.902344 212.449219 66.75 211.835938 66.902344 211.375 C 67.667969 208.621094 71.949219 211.070312 72.257812 207.703125 C 72.410156 206.628906 72.257812 205.558594 71.1875 204.796875 C 70.878906 204.644531 70.574219 204.492188 70.113281 204.335938 C 71.796875 203.878906 71.1875 201.738281 72.871094 200.96875 C 74.550781 200.207031 76.082031 201.890625 77.769531 201.121094 C 78.226562 200.96875 78.226562 200.667969 78.226562 200.207031 C 77.15625 198.675781 75.320312 198.523438 73.789062 197.601562 C 72.714844 196.992188 71.644531 196.53125 70.726562 195.613281 C 70.421875 195.769531 70.269531 196.070312 70.269531 196.226562 C 70.269531 196.683594 70.574219 197.144531 70.726562 197.753906 C 71.03125 198.0625 70.882812 198.523438 70.574219 198.523438 C 70.421875 198.828125 70.113281 198.980469 69.808594 199.132812 C 69.960938 198.980469 69.960938 198.828125 69.960938 198.675781 C 69.652344 198.523438 69.652344 198.214844 69.808594 197.910156 C 69.960938 197.753906 69.808594 197.601562 69.808594 197.449219 L 69.808594 197.300781 C 69.503906 198.339844 69.042969 199.308594 68.429688 200.207031 C 68.429688 200.507812 68.429688 200.816406 68.125 200.96875 C 67.820312 201.125 67.511719 201.121094 67.207031 201.121094 C 66.902344 200.820312 66.289062 200.96875 65.980469 200.511719 C 66.289062 200.511719 66.59375 200.511719 66.75 200.359375 C 66.75 200.050781 67.054688 199.902344 67.207031 199.75 C 67.359375 199.597656 67.511719 199.75 67.664062 199.597656 C 68.125 198.984375 68.429688 198.371094 68.582031 197.757812 L 68.429688 197.757812 C 67.96875 198.21875 67.359375 198.371094 66.746094 198.832031 C 66.441406 198.984375 66.132812 198.984375 65.828125 198.679688 C 65.675781 198.832031 65.214844 198.679688 65.0625 198.371094 C 65.214844 198.371094 65.519531 198.527344 65.675781 198.21875 C 65.675781 198.066406 65.828125 197.761719 65.980469 197.609375 C 66.285156 197.457031 66.589844 197.609375 66.746094 197.761719 C 66.898438 197.761719 67.203125 197.761719 67.359375 197.457031 C 67.664062 197.304688 68.121094 196.847656 68.429688 196.535156 C 67.96875 196.234375 67.507812 196.996094 67.050781 196.535156 L 66.898438 196.234375 C 66.546875 196.238281 66.292969 196.085938 66.128906 195.773438 L 66.128906 195.617188 C 66.285156 195.617188 66.589844 195.773438 66.898438 195.773438 C 67.050781 195.464844 67.203125 195.464844 67.507812 195.464844 C 67.660156 195.464844 67.964844 195.464844 68.121094 195.617188 C 68.578125 195.617188 69.039062 195.925781 69.34375 195.464844 L 69.957031 194.855469 C 68.886719 193.632812 68.273438 191.949219 68.578125 190.265625 C 69.496094 190.265625 70.265625 190.265625 71.183594 190.109375 C 71.027344 191.339844 71.027344 192.714844 70.875 193.9375 C 70.875 193.9375 72.867188 193.480469 75.316406 192.410156 C 75.46875 194.246094 76.386719 195.777344 76.996094 197.308594 C 77.914062 196.390625 78.984375 195.777344 79.90625 194.707031 C 81.742188 196.691406 83.734375 198.835938 84.496094 201.4375 C 84.804688 202.96875 84.804688 204.804688 86.488281 205.570312 C 86.792969 205.726562 87.101562 205.726562 87.40625 205.726562 C 87.710938 205.726562 87.863281 205.417969 87.863281 205.265625 C 88.019531 203.890625 87.101562 202.96875 86.640625 201.746094 C 86.03125 200.675781 85.875 198.835938 86.640625 197.917969 C 87.714844 196.539062 89.855469 197.613281 90.925781 196.390625 C 91.082031 196.082031 91.234375 195.777344 91.386719 195.46875 C 91.539062 196.078125 91.234375 196.691406 91.234375 197.308594 C 91.539062 197.152344 91.996094 197 92.304688 196.847656 L 93.222656 195.929688 C 92.457031 197.609375 92.765625 200.058594 90.46875 200.515625 C 89.855469 200.515625 89.246094 200.515625 88.632812 200.367188 C 88.324219 200.367188 88.175781 200.515625 88.019531 200.671875 L 88.019531 201.128906 C 88.632812 202.964844 90.46875 204.804688 89.246094 206.792969 C 88.632812 207.558594 87.714844 207.710938 86.949219 207.558594 C 86.183594 207.253906 85.570312 206.792969 84.960938 206.183594 L 84.808594 206.636719 C 84.652344 208.9375 84.960938 211.691406 87.101562 212.914062 C 87.253906 212.914062 87.558594 213.066406 87.714844 213.066406 L 87.40625 213.375 L 87.40625 213.527344 C 88.480469 213.679688 89.703125 213.679688 90.773438 213.527344 L 90.925781 220.257812 C 89.246094 220.566406 87.40625 220.257812 85.875 219.957031 C 84.652344 220.722656 84.191406 222.101562 82.96875 222.554688 C 82.660156 222.710938 82.660156 223.015625 82.816406 223.324219 C 82.816406 223.476562 82.96875 223.628906 83.121094 223.78125 C 82.507812 223.78125 81.894531 223.324219 81.742188 222.863281 C 81.589844 222.710938 81.589844 222.554688 81.589844 222.25 C 81.128906 222.402344 80.976562 222.863281 80.976562 223.324219 L 80.976562 223.628906 C 80.367188 223.476562 79.90625 222.710938 79.90625 222.101562 C 79.601562 222.101562 79.292969 222.554688 79.292969 222.863281 L 79.140625 223.171875 C 78.679688 222.558594 78.527344 221.027344 78.984375 220.109375 L 79.292969 219.804688 C 78.375 219.804688 77.609375 220.109375 76.84375 220.261719 C 72.710938 221.332031 69.34375 225.007812 64.753906 223.9375 L 64.753906 222.253906 C 64.292969 222.101562 63.988281 222.40625 63.679688 222.558594 L 63.679688 225.160156 C 62.148438 226.539062 60.007812 226.539062 58.171875 226.84375 L 53.570312 226.84375 C 51.621094 226.707031 49.777344 226.328125 48.222656 225.46875 L 47.917969 225.316406 L 47.917969 222.558594 C 47.613281 222.253906 47.304688 222.253906 46.84375 222.101562 L 46.84375 223.9375 L 46.691406 224.089844 C 44.855469 224.394531 43.019531 223.9375 41.335938 223.324219 L 36.4375 220.871094 C 35.214844 220.417969 33.835938 219.957031 32.304688 219.804688 C 33.070312 220.570312 33.070312 222.101562 32.457031 223.015625 L 32.457031 223.171875 C 32.304688 222.710938 32.152344 222.25 31.695312 221.941406 C 31.539062 222.402344 31.539062 222.863281 31.234375 223.171875 C 31.082031 223.320312 30.929688 223.472656 30.625 223.625 C 30.625 223.171875 30.625 222.554688 30.164062 222.25 C 30.011719 222.859375 29.398438 223.625 28.636719 223.78125 L 28.480469 223.78125 C 28.785156 223.472656 28.941406 223.011719 28.785156 222.707031 C 27.5625 222.097656 26.949219 220.566406 25.726562 219.953125 C 24.195312 220.257812 22.511719 220.566406 20.828125 220.257812 L 20.828125 213.523438 C 21.898438 213.675781 23.125 213.675781 24.195312 213.371094 L 23.886719 213.066406 C 25.113281 212.914062 26.03125 211.691406 26.492188 210.617188 C 26.949219 209.238281 26.949219 207.707031 26.644531 206.179688 L 25.726562 207.097656 C 24.960938 207.554688 23.738281 207.707031 22.820312 207.253906 C 22.511719 207.023438 22.285156 206.726562 22.148438 206.367188 C 22.007812 206.007812 21.976562 205.640625 22.050781 205.261719 C 22.207031 203.730469 23.125 202.507812 23.738281 200.976562 C 23.738281 200.671875 23.582031 200.515625 23.429688 200.367188 C 22.054688 200.515625 20.675781 200.671875 19.757812 199.601562 C 18.839844 198.527344 18.992188 196.996094 18.53125 195.925781 C 18.992188 196.691406 19.757812 196.996094 20.367188 197.304688 C 20.367188 196.691406 20.0625 196.078125 20.214844 195.464844 C 20.519531 196.078125 21.132812 196.691406 21.746094 196.847656 C 22.96875 197.148438 24.347656 196.847656 25.113281 198.070312 C 26.492188 200.515625 24.042969 202.507812 23.738281 204.804688 C 23.738281 205.109375 23.738281 205.261719 23.886719 205.566406 C 24.195312 205.722656 24.5 205.875 24.808594 205.722656 C 27.410156 204.953125 26.492188 201.894531 27.5625 200.058594 C 28.636719 198.222656 30.164062 196.386719 31.695312 194.703125 C 32.613281 195.621094 33.53125 196.386719 34.601562 197.308594 C 35.214844 195.777344 36.132812 194.246094 36.285156 192.410156 C 37.664062 193.019531 39.195312 193.480469 40.574219 193.933594 C 40.574219 192.710938 40.574219 191.335938 40.421875 190.109375 C 41.1875 190.257812 42.105469 190.101562 43.023438 190.257812 Z M 28.328125 213.824219 C 27.871094 214.742188 28.023438 215.964844 28.175781 217.035156 C 28.328125 217.652344 28.785156 218.414062 29.398438 218.566406 C 32.308594 218.566406 35.0625 219.179688 37.359375 220.25 C 40.113281 221.472656 42.5625 223.464844 45.929688 223.160156 L 45.929688 218.261719 C 44.398438 218.414062 42.867188 218.105469 41.492188 217.492188 C 37.359375 215.351562 33.378906 213.210938 28.328125 213.824219 Z M 75.160156 215.050781 L 70.265625 217.34375 C 68.886719 217.957031 67.355469 218.417969 65.671875 218.265625 L 65.671875 223.164062 C 67.050781 223.316406 68.273438 223.007812 69.496094 222.550781 L 74.242188 220.253906 C 76.230469 219.488281 78.222656 218.878906 80.363281 218.726562 C 80.976562 218.570312 81.894531 218.878906 82.507812 218.417969 C 82.792969 218.273438 83.019531 218.0625 83.183594 217.785156 C 83.351562 217.507812 83.429688 217.210938 83.425781 216.886719 C 83.578125 215.96875 83.734375 214.746094 83.273438 213.828125 C 80.460938 213.511719 77.757812 213.921875 75.160156 215.050781 Z M 24.808594 214.285156 C 23.738281 214.4375 22.820312 214.589844 21.746094 214.589844 L 21.746094 219.488281 C 22.511719 219.488281 23.429688 219.488281 24.347656 219.183594 C 25.113281 217.957031 25.417969 216.273438 25.113281 214.746094 Z M 86.792969 214.285156 C 86.027344 215.8125 86.332031 217.957031 87.253906 219.335938 C 88.171875 219.488281 89.089844 219.488281 90.007812 219.488281 L 90.007812 214.589844 C 88.785156 214.589844 87.863281 214.4375 86.792969 214.285156 Z M 48.839844 219.949219 L 48.839844 224.847656 C 49.144531 225.152344 49.757812 225.304688 50.214844 225.457031 C 52.972656 226.070312 56.183594 226.222656 59.09375 225.761719 C 60.316406 225.609375 61.695312 225.457031 62.765625 224.691406 L 62.765625 219.945312 C 61.847656 220.40625 60.777344 220.558594 59.707031 220.710938 C 56.183594 221.171875 52.050781 221.171875 48.839844 219.949219 Z M 48.839844 219.949219 " fill-opacity="1" fill-rule="evenodd"/><path fill="#2b2b2d" d="M 50.980469 221.476562 C 50.980469 222.089844 51.132812 222.546875 51.285156 223.007812 C 51.441406 222.546875 51.589844 222.089844 51.589844 221.632812 C 51.898438 221.632812 52.359375 221.632812 52.664062 221.78125 L 52.511719 222.089844 C 52.664062 223.164062 52.511719 224.078125 52.664062 224.996094 L 51.898438 224.996094 C 52.054688 224.230469 52.054688 223.164062 52.054688 222.394531 C 51.746094 223.003906 51.441406 223.617188 51.441406 224.382812 C 51.441406 224.382812 51.136719 224.382812 50.984375 224.230469 C 50.984375 223.464844 50.675781 222.851562 50.523438 222.089844 C 50.371094 222.953125 50.371094 223.820312 50.523438 224.6875 L 49.914062 224.382812 C 50.21875 223.617188 50.066406 222.703125 50.066406 221.78125 C 49.914062 221.628906 49.914062 221.320312 49.914062 221.171875 Z M 61.691406 221.324219 C 61.386719 222.09375 61.539062 223.164062 61.539062 224.234375 L 61.539062 224.386719 C 61.324219 224.582031 61.066406 224.683594 60.773438 224.691406 C 60.925781 223.773438 60.925781 223.007812 60.925781 222.089844 C 60.773438 222.855469 60.46875 223.464844 60.316406 224.234375 C 60.160156 224.386719 60.011719 224.386719 59.855469 224.386719 C 59.855469 223.617188 59.550781 223.007812 59.398438 222.394531 C 59.398438 223.164062 59.242188 224.234375 59.550781 225 C 59.242188 225 58.9375 225 58.632812 225.152344 C 58.9375 224.234375 58.785156 223.164062 58.9375 222.09375 L 58.632812 221.78125 C 59.089844 221.78125 59.398438 221.78125 59.703125 221.632812 C 59.859375 221.78125 59.859375 222.089844 59.859375 222.242188 L 60.164062 223.164062 C 60.316406 222.546875 60.472656 222.089844 60.472656 221.476562 C 60.929688 221.476562 61.234375 221.324219 61.691406 221.324219 Z M 55.113281 222.546875 C 54.808594 222.242188 54.503906 222.242188 54.195312 222.394531 L 54.195312 223.164062 C 54.347656 223.316406 54.652344 223.316406 54.960938 223.164062 L 54.960938 223.773438 C 54.652344 223.621094 54.5 223.621094 54.195312 223.621094 L 54.195312 224.691406 C 54.347656 224.847656 54.804688 224.847656 55.113281 224.691406 L 55.265625 224.691406 L 55.265625 225.304688 C 54.652344 225.304688 53.890625 225.152344 53.277344 225.152344 C 53.429688 224.847656 53.582031 224.539062 53.582031 224.078125 C 53.429688 223.3125 53.734375 222.546875 53.277344 221.78125 L 55.113281 221.933594 Z M 58.171875 221.78125 C 57.867188 222.703125 58.019531 223.773438 57.867188 224.691406 C 57.867188 224.84375 57.710938 225.148438 57.40625 225.304688 C 56.183594 225.609375 55.875 224.691406 55.875 224.691406 C 55.875 223.773438 56.03125 222.703125 55.722656 221.933594 L 56.640625 221.933594 C 56.335938 222.703125 56.488281 223.617188 56.488281 224.539062 C 56.640625 224.691406 56.792969 224.691406 56.949219 224.84375 C 57.101562 224.84375 57.40625 224.691406 57.558594 224.539062 C 57.558594 223.617188 57.558594 222.855469 57.40625 222.089844 L 57.40625 221.933594 C 57.558594 221.78125 57.867188 221.933594 58.171875 221.78125 Z M 130.414062 214.589844 C 130.414062 215.050781 130.414062 215.511719 130.566406 215.8125 C 131.023438 216.734375 132.097656 217.039062 133.167969 217.039062 C 133.933594 217.039062 135.3125 216.734375 135.3125 215.511719 C 135.3125 214.589844 134.542969 214.285156 131.636719 213.519531 C 128.882812 212.757812 125.824219 211.988281 125.824219 208.621094 C 125.824219 204.644531 129.1875 202.960938 132.710938 202.960938 C 136.382812 202.960938 139.75 204.335938 139.902344 208.46875 L 134.851562 208.46875 C 135.003906 207.859375 134.699219 207.398438 134.238281 207.089844 C 133.769531 206.796875 133.261719 206.640625 132.707031 206.632812 C 131.941406 206.632812 130.71875 206.9375 130.71875 207.859375 C 130.871094 209.082031 133.320312 209.390625 135.769531 210.003906 C 138.21875 210.617188 140.515625 211.835938 140.515625 214.902344 C 140.515625 219.339844 136.535156 220.867188 132.710938 220.867188 C 130.722656 220.867188 125.210938 220.101562 125.210938 214.59375 L 130.414062 214.59375 Z M 145.871094 207.703125 L 140.972656 207.703125 L 140.972656 203.261719 L 155.816406 203.261719 L 155.816406 207.703125 L 151.074219 207.703125 L 151.074219 220.40625 L 145.871094 220.40625 Z M 161.636719 211.835938 C 161.636719 208.007812 163.625 207.089844 165 207.089844 C 166.378906 207.089844 168.367188 208.011719 168.367188 211.835938 C 168.367188 215.660156 166.378906 216.582031 165 216.582031 C 163.625 216.582031 161.636719 215.664062 161.636719 211.835938 Z M 156.277344 211.835938 C 156.277344 217.039062 159.796875 220.863281 165.003906 220.863281 C 170.207031 220.863281 173.574219 217.039062 173.574219 211.835938 C 173.574219 206.628906 170.207031 202.960938 165.003906 202.960938 C 159.796875 202.960938 156.277344 206.628906 156.277344 211.835938 Z M 186.734375 209.691406 C 186.582031 209.082031 186.121094 207.089844 183.980469 207.089844 C 181.53125 207.089844 180.613281 209.539062 180.613281 211.832031 C 180.613281 214.128906 181.53125 216.578125 183.980469 216.578125 C 185.664062 216.578125 186.429688 215.351562 186.734375 213.667969 L 191.941406 213.667969 C 191.941406 217.191406 189.027344 220.859375 184.132812 220.859375 C 178.472656 220.859375 175.410156 216.882812 175.410156 211.832031 C 175.410156 206.472656 178.777344 202.957031 184.132812 202.957031 C 188.726562 202.957031 191.328125 205.402344 191.785156 209.691406 Z M 194.082031 203.261719 L 199.4375 203.261719 L 199.4375 209.234375 L 204.183594 203.261719 L 210.613281 203.261719 L 204.488281 210 L 211.683594 220.40625 L 205.101562 220.40625 L 200.816406 213.671875 L 199.4375 215.351562 L 199.4375 220.40625 L 194.082031 220.40625 Z M 218.722656 203.261719 L 232.800781 203.261719 L 232.800781 207.703125 L 223.925781 207.703125 L 223.925781 209.84375 L 232.039062 209.84375 L 232.039062 213.824219 L 223.925781 213.824219 L 223.925781 215.964844 L 233.109375 215.964844 L 233.109375 220.40625 L 218.722656 220.40625 Z M 240.148438 211.375 L 234.636719 203.261719 L 240.761719 203.261719 L 243.363281 208.007812 L 245.8125 203.261719 L 251.78125 203.261719 L 246.273438 211.375 L 252.394531 220.40625 L 245.964844 220.40625 L 243.058594 215.351562 L 239.996094 220.40625 L 234.027344 220.40625 Z M 263.71875 209.691406 C 263.566406 209.082031 263.105469 207.089844 260.960938 207.089844 C 258.363281 207.089844 257.597656 209.539062 257.597656 211.832031 C 257.597656 214.128906 258.367188 216.578125 260.960938 216.578125 C 262.648438 216.578125 263.414062 215.351562 263.71875 213.667969 L 268.773438 213.667969 C 268.773438 217.191406 266.015625 220.859375 260.960938 220.859375 C 255.453125 220.859375 252.394531 216.882812 252.394531 211.832031 C 252.394531 206.472656 255.761719 202.957031 260.960938 202.957031 C 265.707031 202.957031 268.3125 205.402344 268.773438 209.691406 Z M 271.21875 203.261719 L 276.421875 203.261719 L 276.421875 209.234375 L 281.316406 209.234375 L 281.316406 203.261719 L 286.675781 203.261719 L 286.675781 220.40625 L 281.316406 220.40625 L 281.316406 213.671875 L 276.421875 213.671875 L 276.421875 220.40625 L 271.21875 220.40625 Z M 295.097656 214.285156 L 296.777344 209.082031 L 298.304688 214.285156 Z M 287.898438 220.40625 L 293.105469 220.40625 L 293.867188 217.957031 L 299.378906 217.957031 L 300.144531 220.40625 L 305.503906 220.40625 L 299.378906 203.265625 L 294.175781 203.265625 Z M 307.03125 203.261719 L 312.386719 203.261719 L 317.285156 212.445312 L 317.4375 212.445312 L 317.4375 203.261719 L 322.335938 203.261719 L 322.335938 220.40625 L 317.285156 220.40625 L 312.082031 211.066406 L 311.929688 211.066406 L 311.929688 220.40625 L 307.03125 220.40625 Z M 337.640625 218.726562 C 336.570312 220.101562 334.734375 220.863281 332.742188 220.863281 C 327.691406 220.863281 324.628906 216.886719 324.628906 211.988281 C 324.628906 205.558594 329.222656 202.960938 333.050781 202.960938 C 337.488281 202.960938 340.242188 205.257812 341.007812 209.234375 L 335.957031 209.234375 C 335.648438 208.011719 334.734375 207.089844 333.351562 207.089844 C 329.835938 207.089844 329.988281 210.917969 329.988281 212.140625 C 329.988281 213.671875 330.597656 216.582031 333.816406 216.582031 C 335.039062 216.582031 336.265625 215.96875 336.570312 214.59375 L 334.121094 214.59375 L 334.121094 210.917969 L 341.164062 210.917969 L 341.164062 220.410156 L 337.792969 220.410156 Z M 344.070312 203.261719 L 358.304688 203.261719 L 358.304688 207.703125 L 349.425781 207.703125 L 349.425781 209.84375 L 357.382812 209.84375 L 357.382812 213.824219 L 349.425781 213.824219 L 349.425781 215.964844 L 358.457031 215.964844 L 358.457031 220.40625 L 344.070312 220.40625 Z M 344.070312 203.261719 " fill-opacity="1" fill-rule="evenodd"/></svg>