<svg xmlns="http://www.w3.org/2000/svg" xmlns:xlink="http://www.w3.org/1999/xlink" width="500" zoomAndPan="magnify" viewBox="0 0 375 374.999991" height="500" preserveAspectRatio="xMidYMid meet" version="1.0"><path fill="#005daa" d="M 281.402344 280.945312 C 281.402344 289.121094 278.058594 293.871094 271.515625 296.402344 C 246.097656 306.207031 215.996094 311.253906 187.371094 311.253906 C 158.730469 311.253906 128.628906 306.203125 103.214844 296.402344 C 96.675781 293.871094 93.324219 289.121094 93.324219 280.945312 L 93.324219 63.746094 L 281.402344 63.746094 Z M 281.402344 280.945312 " fill-opacity="1" fill-rule="nonzero"/><path fill="#ffd200" d="M 143.765625 196.109375 C 117.722656 179.832031 109.132812 172.628906 108.390625 161.953125 C 108.265625 159.789062 108.761719 156.128906 109.667969 153.519531 L 107.214844 151.890625 C 105.253906 155.023438 104.003906 159.140625 104.003906 162.917969 C 104.003906 169.089844 105.96875 173.757812 108.390625 177.484375 C 112.046875 183.125 115.894531 186.671875 125.382812 193.796875 C 135.597656 201.46875 142.570312 210.425781 146.585938 219.804688 L 148.039062 219.804688 L 148.039062 209.164062 C 161.835938 217.011719 174.015625 224.382812 180.003906 237.570312 L 181.449219 237.570312 C 179.105469 223.90625 171.378906 213.367188 143.765625 196.109375 M 263.722656 237.589844 L 261.941406 237.589844 C 261.941406 227.867188 253.03125 225.207031 243.703125 225.207031 L 214.535156 225.207031 C 215.476562 230.003906 215.910156 235.621094 215.191406 240.925781 L 213.738281 240.925781 C 211.039062 219.058594 198.703125 208.238281 181.445312 196.632812 L 181.445312 206.59375 L 179.992188 206.59375 C 175.402344 196.320312 165.332031 186.691406 155.800781 179.851562 C 153.265625 178.042969 150.625 176.167969 148.023438 174.3125 L 148.023438 185.035156 L 146.574219 185.035156 C 142.527344 174.394531 135.191406 166.457031 124.71875 156.996094 C 113.402344 146.804688 108.851562 140.703125 106.199219 133.691406 C 104.589844 129.441406 104.140625 126.007812 104.082031 121.347656 C 103.980469 113.007812 108.199219 105.476562 113.441406 102.664062 L 113.441406 106.703125 C 110.84375 110.148438 109.5 114.523438 109.488281 118.957031 C 109.476562 123.054688 110.453125 127.609375 112.492188 131.484375 C 118.859375 143.617188 140.3125 158.515625 153.925781 167.671875 C 196.285156 196.109375 204.742188 201.070312 211.773438 216.164062 C 212.558594 217.84375 213.335938 220.101562 213.988281 222.734375 C 220.105469 221.785156 242.304688 218.394531 246.390625 217.746094 C 247.1875 217.621094 248.816406 217.425781 249.664062 217.367188 C 253.492188 214.949219 256.472656 211.863281 259.082031 208.015625 L 242.863281 206.753906 C 242.019531 208.613281 241.199219 210.1875 240.46875 211.4375 L 239.136719 211.4375 C 239.585938 209.789062 239.96875 208.160156 240.308594 206.558594 L 236.152344 206.261719 L 236.152344 205.367188 L 240.644531 204.808594 C 241.503906 200.214844 241.917969 195.863281 241.996094 191.800781 L 221.539062 190.632812 C 221.4375 192.738281 221.417969 194.714844 221.492188 196.558594 L 220.1875 196.558594 C 219.738281 194.507812 219.398438 192.480469 219.140625 190.503906 L 214.660156 190.238281 L 214.660156 188.875 L 218.921875 188.644531 C 218.324219 183.21875 218.285156 178.167969 218.5 173.820312 L 206.546875 173.28125 C 207.101562 174.335938 207.6875 175.390625 208.097656 176.558594 C 210.683594 183.78125 210.066406 192.238281 209.21875 196.136719 L 207.765625 196.136719 C 207.554688 191.632812 206.046875 186.105469 204.605469 182.742188 C 201.296875 174.9375 193.882812 168.03125 181.4375 160.03125 L 181.4375 170.003906 L 179.988281 170.003906 C 175.855469 156.910156 165.550781 149.617188 150.238281 141.746094 C 137.605469 135.257812 133.683594 127.433594 134.394531 115.328125 L 138.667969 117.859375 C 139.757812 129.175781 148.441406 135.71875 157.542969 135.652344 C 162.898438 135.605469 167.914062 134.890625 172.757812 133.929688 C 179.761719 132.503906 186.238281 131.308594 191.648438 133.21875 L 191.648438 126.539062 L 187.394531 126.539062 C 185.871094 127.847656 182.789062 129.367188 178.257812 129.445312 C 173.277344 129.53125 163.847656 126.660156 163.847656 116.113281 C 163.847656 106.953125 171.589844 105.484375 177.890625 105.484375 C 181.277344 105.484375 186.890625 105.367188 188.792969 105.265625 C 190.195312 105.171875 191.253906 104.960938 191.941406 104.273438 C 192.65625 103.574219 192.871094 102.851562 193.03125 101.914062 C 193.230469 100.773438 193.230469 99.617188 193.230469 97.652344 L 193.230469 90.957031 L 164.011719 90.957031 L 164.011719 102.550781 L 152.949219 98.335938 L 152.949219 95.5625 L 158.242188 95.5625 L 158.242188 90.957031 L 138.535156 90.957031 L 138.535156 81.335938 L 131.816406 81.335938 C 128.230469 81.335938 124.085938 83.859375 123.789062 88.742188 C 123.515625 93.421875 125.617188 97.371094 130.4375 97.371094 L 131.296875 97.371094 L 131.296875 102.976562 L 130.4375 102.976562 C 121.996094 102.976562 115.640625 96.632812 115.640625 88.214844 C 115.640625 79.433594 123.101562 72.746094 132.136719 72.746094 L 146.386719 72.746094 L 146.386719 82.371094 L 201.828125 82.371094 L 201.828125 96.59375 C 201.828125 98.996094 201.6875 102.207031 201.460938 104.238281 C 201.289062 105.722656 200.769531 108.386719 197.972656 110.527344 C 196.273438 111.8125 193.726562 112.332031 189.597656 112.351562 C 188.242188 112.355469 184.3125 112.292969 179.601562 112 C 173.285156 111.59375 171.488281 114.042969 171.230469 116.308594 C 171.179688 116.785156 171.179688 117.246094 171.242188 117.691406 C 174.199219 115.402344 178.386719 113.78125 183.132812 115.285156 C 191.496094 117.917969 193.886719 118.148438 198.246094 114.722656 L 198.6875 115.699219 C 198.210938 116.429688 197.378906 117.476562 196.15625 118.402344 L 200.195312 118.402344 L 200.195312 140.320312 L 212.773438 132.765625 L 248.085938 132.765625 C 248.085938 132.765625 263.003906 140.570312 265.453125 141.855469 C 267.621094 143 268.472656 144.378906 268.804688 146.402344 C 269.097656 148.09375 268.648438 150.238281 267.824219 151.609375 C 267.308594 152.464844 263.25 159.117188 261.113281 162.671875 C 267.113281 169.171875 271.160156 178.265625 271.160156 188.394531 C 271.160156 197.578125 267.769531 209.414062 256.746094 218.214844 C 261.597656 219.804688 264.707031 222.453125 267.144531 225.933594 Z M 184.992188 119.585938 C 180.03125 118.496094 177.261719 119.109375 174.414062 121.828125 C 175.8125 122.496094 177.558594 122.855469 179.484375 122.726562 C 182.277344 122.527344 184 120.859375 184.992188 119.585938 M 182.132812 151.160156 L 196.109375 142.777344 C 193.359375 141.417969 190.324219 140.546875 186.730469 140.503906 C 181.910156 140.417969 173.78125 142.628906 169.855469 143.242188 C 171.613281 144.4375 177.84375 148.429688 182.132812 151.160156 M 244.507812 152.050781 L 246.445312 149.320312 L 243.449219 145.324219 L 243.945312 144.433594 L 252.371094 148.980469 L 250.53125 154.5625 C 251.894531 155.21875 253.148438 156.039062 254.808594 157.140625 L 260.257812 148.179688 L 246.144531 140.800781 L 214.972656 140.800781 L 189.667969 156.039062 C 194.414062 159.34375 198.800781 162.914062 201.90625 166.515625 C 208.679688 156.632812 220.597656 150.34375 232.398438 150.34375 C 236.253906 150.347656 240.746094 150.761719 244.507812 152.050781 M 241.972656 187.421875 C 241.800781 182.761719 241.226562 178.542969 240.441406 174.824219 L 223.921875 174.074219 C 222.792969 179.109375 222.042969 184.019531 221.699219 188.503906 Z M 247.527344 175.152344 C 248.058594 179.421875 248.125 183.417969 247.84375 187.109375 L 264.210938 186.253906 C 263.796875 182.585938 262.777344 179.09375 261.152344 175.78125 Z M 239.195312 169.789062 C 237.484375 163.871094 235.441406 159.761719 234.367188 157.828125 C 233.675781 157.789062 232.984375 157.769531 232.292969 157.769531 C 231.136719 157.769531 229.980469 157.917969 228.863281 158.039062 C 227.214844 162.175781 225.867188 166.351562 224.773438 170.589844 Z M 243.734375 159.855469 C 244.957031 163.148438 245.875 166.320312 246.542969 169.378906 L 256.542969 168.832031 C 253.023438 164.769531 248.753906 161.777344 243.734375 159.855469 M 262.136719 202.121094 C 263.308594 199.265625 264.054688 196.527344 264.277344 193.0625 L 247.265625 192.09375 C 246.492188 196.867188 245.226562 201.015625 243.867188 204.410156 Z M 220.1875 160.527344 C 214.492188 163.082031 210.566406 166.550781 207.054688 171.53125 L 218.699219 170.921875 C 219.117188 165.746094 219.796875 162.304688 220.1875 160.527344 " fill-opacity="1" fill-rule="nonzero"/><path fill="#ffffff" d="M 198.585938 262.742188 C 203.335938 261.972656 207.863281 258.277344 207.863281 252.691406 C 207.863281 247.65625 205.722656 242.128906 190.917969 242.128906 L 165.925781 242.128906 L 165.925781 242.535156 C 166.683594 242.765625 167.886719 243.382812 168.671875 244.144531 C 170.367188 245.816406 170.929688 248.285156 171 251.582031 L 171 289.023438 L 191.703125 289.023438 C 203.089844 289.023438 211.335938 284.6875 211.335938 274.710938 C 211.339844 266.609375 205.039062 263.167969 198.585938 262.742188 M 187.933594 246.589844 C 193.230469 246.589844 196.824219 247.75 196.824219 253.40625 C 196.824219 259.445312 192.011719 261.105469 186.519531 261.105469 L 181.785156 261.105469 L 181.785156 246.589844 Z M 188.46875 284.597656 L 181.785156 284.597656 L 181.785156 265.445312 L 188.164062 265.445312 C 196.925781 265.445312 200.285156 268.066406 200.285156 274.632812 C 200.28125 281.734375 195.890625 284.597656 188.46875 284.597656 M 147.5 289.015625 L 160.996094 289.015625 L 143.765625 266.972656 C 150.667969 265.121094 155.839844 261.335938 155.839844 254.460938 C 155.839844 246.402344 151.011719 242.125 138.40625 242.125 L 112.328125 242.125 L 112.328125 242.527344 C 113.292969 242.863281 114.363281 243.488281 115.074219 244.175781 C 116.894531 245.980469 117.441406 248.734375 117.441406 252.449219 L 117.441406 289.015625 L 128.265625 289.015625 L 128.265625 268.238281 L 132.210938 268.238281 Z M 128.269531 246.589844 L 135.550781 246.589844 C 141.625 246.589844 144.792969 248.371094 144.792969 254.820312 C 144.792969 260.582031 140.65625 264 134 264 L 128.269531 264 Z M 255.101562 248.558594 C 257.988281 250.1875 258.875 252.34375 258.898438 252.363281 C 259.03125 252.519531 259.34375 252.46875 259.34375 252.46875 L 261.699219 244.445312 C 261.699219 244.445312 257.46875 241.402344 247.40625 241.402344 C 232.175781 241.402344 220.773438 249.082031 220.773438 265.890625 C 220.773438 284.828125 234.351562 289.75 246.335938 289.75 C 257.46875 289.75 261.855469 286.195312 261.855469 286.195312 L 261.855469 280.699219 C 261.855469 280.699219 257.914062 284.378906 249.46875 284.378906 C 242.511719 284.378906 232.265625 281.1875 232.058594 265.625 C 231.851562 251.238281 238.117188 246.558594 246.496094 246.558594 C 251.175781 246.558594 253.511719 247.65625 255.101562 248.558594 " fill-opacity="1" fill-rule="nonzero"/></svg>