<svg xmlns="http://www.w3.org/2000/svg" xmlns:xlink="http://www.w3.org/1999/xlink" width="500" zoomAndPan="magnify" viewBox="0 0 375 374.999991" height="500" preserveAspectRatio="xMidYMid meet" version="1.0"><defs><clipPath id="14ca319e8a"><path d="M 0 0 L 375 0 L 375 69.046875 L 0 69.046875 Z M 0 0 " clip-rule="nonzero"/></clipPath><clipPath id="60f7c24098"><path d="M 187.5 69.046875 L 375 0 L 0 0 Z M 187.5 69.046875 " clip-rule="nonzero"/></clipPath><clipPath id="a2140c78bf"><path d="M 0 305.949219 L 375 305.949219 L 375 375 L 0 375 Z M 0 305.949219 " clip-rule="nonzero"/></clipPath><clipPath id="ff5d9f6c66"><path d="M 187.5 305.949219 L 0 375 L 375 375 Z M 187.5 305.949219 " clip-rule="nonzero"/></clipPath></defs><rect x="-37.5" width="450" fill="#ffffff" y="-37.499999" height="449.999989" fill-opacity="1"/><rect x="-37.5" width="450" fill="#ffffff" y="-37.499999" height="449.999989" fill-opacity="1"/><g clip-path="url(#14ca319e8a)"><g clip-path="url(#60f7c24098)"><path fill="#0a0410" d="M 0 0 L 375 0 L 375 69.046875 L 0 69.046875 Z M 0 0 " fill-opacity="1" fill-rule="nonzero"/></g></g><g clip-path="url(#a2140c78bf)"><g clip-path="url(#ff5d9f6c66)"><path fill="#0a0410" d="M 375 375 L 0 375 L 0 305.949219 L 375 305.949219 Z M 375 375 " fill-opacity="1" fill-rule="nonzero"/></g></g></svg>