<svg xmlns="http://www.w3.org/2000/svg" xmlns:xlink="http://www.w3.org/1999/xlink" width="500" zoomAndPan="magnify" viewBox="0 0 375 374.999991" height="500" preserveAspectRatio="xMidYMid meet" version="1.0"><defs><clipPath id="47180d1c19"><path d="M 3.328125 154.347656 L 371.578125 154.347656 L 371.578125 220.347656 L 3.328125 220.347656 Z M 3.328125 154.347656 " clip-rule="nonzero"/></clipPath></defs><g clip-path="url(#47180d1c19)"><path fill="#ee3224" d="M 155.078125 198.800781 C 158.757812 198.800781 160.921875 195.585938 160.921875 191.761719 C 160.921875 187.882812 158.863281 184.671875 155.078125 184.671875 C 151.132812 184.671875 149.242188 187.882812 149.242188 191.761719 C 149.242188 195.585938 151.410156 198.800781 155.078125 198.800781 M 155.078125 205.285156 C 146.265625 205.285156 139.953125 200.011719 139.953125 191.761719 C 139.953125 183.613281 146.492188 178.1875 155.078125 178.1875 C 163.664062 178.1875 170.207031 183.578125 170.207031 191.761719 C 170.207031 200.011719 163.84375 205.285156 155.078125 205.285156 Z M 263.597656 191.769531 C 263.597656 188.304688 261.613281 185.226562 258.15625 185.226562 C 255.117188 185.226562 252.664062 187.8125 252.664062 191.769531 C 252.664062 195.605469 254.671875 198.335938 258.15625 198.335938 C 261.300781 198.335938 263.597656 195.730469 263.597656 191.769531 M 243.765625 204.730469 L 243.765625 168.183594 L 252.804688 168.183594 L 252.804688 180.707031 L 252.90625 180.707031 C 253.542969 180.308594 256.464844 178.21875 260.761719 178.21875 C 267.800781 178.21875 272.972656 183.851562 272.972656 191.304688 C 272.972656 200.621094 267.238281 205.308594 260.707031 205.308594 C 255.765625 205.308594 253.257812 203.019531 252.640625 202.355469 L 252.5 202.355469 L 252.367188 204.730469 Z M 199.742188 165.722656 C 199.410156 165.722656 199.082031 165.757812 198.753906 165.824219 C 198.425781 165.890625 198.109375 165.984375 197.800781 166.113281 C 197.496094 166.242188 197.203125 166.398438 196.925781 166.582031 C 196.648438 166.765625 196.390625 166.976562 196.15625 167.210938 C 195.921875 167.445312 195.710938 167.703125 195.523438 167.976562 C 195.339844 168.253906 195.183594 168.542969 195.054688 168.851562 C 194.925781 169.15625 194.828125 169.472656 194.761719 169.796875 C 194.695312 170.125 194.660156 170.453125 194.660156 170.785156 C 194.660156 171.117188 194.695312 171.445312 194.761719 171.769531 C 194.828125 172.09375 194.925781 172.410156 195.054688 172.71875 C 195.179688 173.023438 195.339844 173.316406 195.523438 173.589844 C 195.710938 173.867188 195.917969 174.125 196.15625 174.359375 C 196.390625 174.59375 196.648438 174.800781 196.925781 174.988281 C 197.203125 175.171875 197.492188 175.328125 197.800781 175.457031 C 198.109375 175.585938 198.425781 175.679688 198.753906 175.746094 C 199.082031 175.8125 199.410156 175.847656 199.742188 175.847656 C 200.078125 175.847656 200.40625 175.8125 200.734375 175.746094 C 201.0625 175.683594 201.378906 175.585938 201.6875 175.457031 C 201.996094 175.328125 202.289062 175.171875 202.5625 174.988281 C 202.839844 174.804688 203.097656 174.59375 203.332031 174.359375 C 203.570312 174.125 203.78125 173.867188 203.964844 173.59375 C 204.152344 173.316406 204.308594 173.023438 204.4375 172.71875 C 204.5625 172.410156 204.660156 172.097656 204.726562 171.769531 C 204.792969 171.445312 204.828125 171.117188 204.828125 170.785156 C 204.828125 170.453125 204.792969 170.125 204.726562 169.796875 C 204.660156 169.472656 204.5625 169.15625 204.433594 168.851562 C 204.304688 168.542969 204.148438 168.253906 203.964844 167.976562 C 203.777344 167.703125 203.566406 167.445312 203.332031 167.210938 C 203.097656 166.976562 202.839844 166.765625 202.5625 166.582031 C 202.285156 166.398438 201.992188 166.242188 201.6875 166.113281 C 201.378906 165.984375 201.0625 165.890625 200.734375 165.824219 C 200.40625 165.757812 200.078125 165.722656 199.742188 165.722656 M 195.207031 178.847656 L 204.28125 178.847656 L 204.28125 204.789062 L 195.207031 204.789062 Z M 311.664062 204.753906 L 320.46875 204.753906 L 320.46875 191.363281 C 320.46875 188.226562 322.558594 186.078125 325.226562 186.078125 C 328.277344 186.078125 330.011719 188.054688 330.011719 191.363281 L 330.011719 204.753906 L 338.820312 204.753906 L 338.820312 189.148438 C 338.820312 183.273438 335.019531 178.246094 328.054688 178.246094 C 323.398438 178.246094 320.980469 180.761719 319.875 181.753906 L 319.6875 181.753906 L 319.597656 178.882812 L 311.664062 178.882812 L 311.664062 204.753906 M 344.382812 204.757812 L 353.410156 204.757812 L 353.410156 192.753906 L 353.507812 192.753906 L 361.527344 204.757812 L 371.578125 204.757812 L 361.898438 191.019531 L 371.328125 178.867188 L 361.292969 178.867188 L 353.507812 189.554688 L 353.410156 189.554688 L 353.410156 168.214844 L 344.382812 168.214844 Z M 137.648438 179.230469 C 136.96875 179.042969 134.484375 178.191406 131.191406 178.191406 C 123.03125 178.191406 116.917969 183.277344 116.917969 191.742188 C 116.917969 199.4375 122.410156 205.289062 130.824219 205.289062 C 134.410156 205.289062 137.046875 204.335938 137.648438 204.160156 L 137.207031 196.601562 C 136.507812 196.917969 134.707031 197.941406 132.625 197.941406 C 128.96875 197.941406 126.300781 195.367188 126.300781 191.742188 C 126.300781 187.9375 129.15625 185.484375 132.730469 185.484375 C 134.742188 185.484375 136.539062 186.417969 137.210938 186.746094 Z M 217.917969 191.53125 C 217.917969 195.816406 220.324219 198.496094 223.433594 198.496094 C 226.25 198.496094 228.996094 195.867188 228.996094 191.882812 C 228.996094 187.867188 226.5625 185.117188 223.433594 185.117188 C 220.195312 185.121094 217.917969 187.996094 217.917969 191.53125 M 237.925781 178.832031 L 237.925781 204.75 L 229.132812 204.75 L 229 202.136719 L 228.808594 202.136719 C 227.835938 203.015625 225.804688 205.324219 220.132812 205.324219 C 213.84375 205.324219 208.335938 199.878906 208.335938 191.769531 C 208.335938 184.242188 213.222656 178.230469 220.714844 178.230469 C 225.808594 178.230469 227.890625 180.46875 228.671875 181.175781 L 228.90625 181.175781 L 228.996094 178.832031 Z M 285.796875 191.515625 C 285.796875 195.800781 288.199219 198.484375 291.3125 198.484375 C 294.128906 198.484375 296.875 195.851562 296.875 191.867188 C 296.875 187.851562 294.441406 185.105469 291.3125 185.105469 C 288.070312 185.105469 285.796875 187.984375 285.796875 191.515625 M 305.804688 178.820312 L 305.804688 204.742188 L 297.007812 204.742188 L 296.878906 202.125 L 296.691406 202.125 C 295.714844 203 293.683594 205.316406 288.011719 205.316406 C 281.722656 205.316406 276.214844 199.867188 276.214844 191.757812 C 276.214844 184.226562 281.101562 178.21875 288.59375 178.21875 C 293.691406 178.21875 295.769531 180.457031 296.550781 181.164062 L 296.785156 181.164062 L 296.875 178.820312 Z M 87.859375 203.792969 C 90.390625 204.554688 94.238281 205.253906 98.316406 205.253906 C 106.042969 205.253906 113.75 202.527344 113.75 194.082031 C 113.75 182.488281 97.699219 184.09375 97.699219 179.472656 C 97.699219 177.109375 100.167969 176.597656 102.585938 176.597656 C 105.9375 176.597656 110.183594 178.203125 111.128906 178.582031 L 111.855469 170.59375 C 109.511719 169.800781 105.960938 169.347656 102.617188 169.347656 C 94.988281 169.347656 87.464844 172.320312 87.464844 179.839844 C 87.464844 191.230469 103.472656 188.859375 103.472656 194.832031 C 103.472656 197.132812 101.171875 198.003906 98.226562 198.003906 C 94.1875 198.003906 90.386719 195.992188 88.742188 195.265625 Z M 190.816406 197.6875 C 190.371094 197.808594 189.148438 198.121094 188.3125 198.121094 C 186.476562 198.121094 184.472656 197.265625 184.472656 194.101562 L 184.472656 185.339844 L 190.160156 185.339844 L 190.160156 178.824219 L 184.472656 178.824219 L 184.472656 170.476562 L 175.414062 170.476562 L 175.414062 178.824219 L 171.457031 178.824219 L 171.457031 185.339844 L 175.414062 185.339844 L 175.414062 195.589844 C 175.414062 201.230469 178.042969 205.269531 184.742188 205.269531 C 186.6875 205.269531 188.472656 205.011719 189.699219 204.78125 Z M 55.902344 187.375 C 56.128906 198.566406 45.96875 207.019531 37.480469 207.019531 L 16.492188 207.019531 L 3.328125 220.082031 L 37.253906 220.082031 C 48.082031 220.082031 58.472656 210.378906 58.472656 198.796875 C 58.472656 195.394531 58.058594 190.960938 55.902344 187.601562 L 55.902344 187.375 M 52.300781 195.621094 C 53.609375 193.289062 54.253906 190.730469 54.410156 188.238281 L 44.890625 188.238281 C 44.890625 190.550781 44.503906 193.0625 43.632812 195.621094 Z M 43.011719 197.082031 C 41.929688 199.824219 39.363281 203.382812 36.863281 205.328125 C 41.703125 205.328125 47.230469 203.226562 51.269531 197.082031 Z M 41.929688 195.621094 C 42.78125 193.289062 43.167969 190.730469 43.398438 188.238281 L 28.992188 188.238281 C 29.222656 190.730469 29.613281 193.289062 30.460938 195.621094 Z M 28.8125 195.621094 C 27.964844 193.0625 27.503906 190.550781 27.503906 188.238281 L 17.984375 188.238281 C 18.214844 190.730469 18.835938 193.289062 20.09375 195.621094 Z M 36.21875 203.84375 C 38.101562 202.152344 40.210938 199.414062 41.289062 197.082031 L 31.105469 197.082031 C 32.183594 199.414062 34.292969 202.152344 36.21875 203.84375 Z M 20.941406 197.082031 C 25.164062 203.226562 30.691406 205.328125 35.601562 205.328125 C 33.027344 203.382812 30.304688 199.824219 29.429688 197.082031 Z M 43.632812 179.378906 C 44.503906 181.640625 44.890625 184.199219 44.890625 186.753906 L 54.410156 186.753906 C 54.253906 184.199219 53.609375 181.640625 52.300781 179.378906 Z M 51.269531 177.664062 C 47.230469 171.769531 41.703125 169.441406 36.863281 169.441406 C 39.363281 171.316406 41.929688 174.878906 43.011719 177.664062 Z M 30.460938 179.378906 C 29.613281 181.640625 29.222656 184.199219 28.992188 186.753906 L 43.398438 186.753906 C 43.167969 184.199219 42.777344 181.640625 41.929688 179.378906 Z M 20.09375 179.378906 C 18.835938 181.640625 18.214844 184.199219 17.988281 186.753906 L 27.503906 186.753906 C 27.503906 184.199219 27.964844 181.640625 28.816406 179.378906 Z M 36.21875 171.085938 C 34.292969 172.777344 32.183594 175.332031 31.105469 177.664062 L 41.289062 177.664062 C 40.210938 175.332031 38.101562 172.777344 36.21875 171.085938 Z M 29.429688 177.664062 C 30.304688 174.878906 33.03125 171.3125 35.601562 169.441406 C 30.691406 169.441406 25.164062 171.769531 20.945312 177.664062 Z M 16.492188 187.144531 C 14.382812 183.808594 13.921875 179.378906 13.921875 175.972656 C 13.921875 164.390625 24.316406 154.617188 35.140625 154.617188 L 69.070312 154.617188 L 55.902344 167.839844 L 34.914062 167.839844 C 26.472656 167.839844 16.261719 176.363281 16.492188 187.144531 Z M 16.492188 187.144531 " fill-opacity="1" fill-rule="nonzero"/></g></svg>