<svg xmlns="http://www.w3.org/2000/svg" xmlns:xlink="http://www.w3.org/1999/xlink" width="500" zoomAndPan="magnify" viewBox="0 0 375 374.999991" height="500" preserveAspectRatio="xMidYMid meet" version="1.0"><defs><clipPath id="65a2d18e71"><path d="M 4.386719 8.050781 L 370.386719 8.050781 L 370.386719 367.300781 L 4.386719 367.300781 Z M 4.386719 8.050781 " clip-rule="nonzero"/></clipPath></defs><path fill="#a9b0bb" d="M 248.648438 335.789062 L 126.128906 335.789062 C 135.910156 321.929688 144.015625 286.222656 140.503906 258.671875 L 233.410156 258.671875 C 229.898438 286.222656 238.875 321.929688 248.648438 335.789062 Z M 248.648438 335.789062 " fill-opacity="1" fill-rule="evenodd"/><path fill="#cad0d7" d="M 104.296875 331.023438 L 270.480469 331.023438 C 279.027344 331.023438 286.015625 338.027344 286.015625 346.582031 C 286.015625 355.140625 279.027344 362.144531 270.480469 362.144531 L 104.296875 362.144531 C 95.75 362.144531 88.761719 355.140625 88.761719 346.582031 C 88.761719 338.027344 95.75 331.023438 104.296875 331.023438 Z M 104.296875 331.023438 " fill-opacity="1" fill-rule="evenodd"/><path fill="#a9b0bb" d="M 346.386719 13.277344 C 356.738281 13.277344 365.132812 21.6875 365.132812 32.058594 L 365.132812 243.230469 C 365.132812 257.347656 353.707031 268.789062 339.613281 268.789062 L 35.160156 268.789062 C 21.0625 268.789062 9.640625 257.347656 9.640625 243.230469 L 9.640625 38.839844 C 9.640625 24.722656 21.0625 13.277344 35.160156 13.277344 Z M 346.386719 13.277344 " fill-opacity="1" fill-rule="evenodd"/><path fill="#a4d4ff" d="M 24.449219 203.109375 L 350.320312 203.109375 C 350.320312 146.09375 350.320312 89.074219 350.320312 32.058594 C 350.320312 29.878906 348.566406 28.113281 346.386719 28.113281 L 35.160156 28.113281 C 29.238281 28.113281 24.449219 32.910156 24.449219 38.839844 C 24.449219 93.597656 24.449219 148.351562 24.449219 203.109375 Z M 24.449219 203.109375 " fill-opacity="1" fill-rule="evenodd"/><path fill="#cad0d7" d="M 365.132812 217.945312 L 365.132812 243.230469 C 365.132812 257.347656 353.707031 268.789062 339.613281 268.789062 L 35.160156 268.789062 C 21.0625 268.789062 9.640625 257.347656 9.640625 243.230469 L 9.640625 217.945312 Z M 365.132812 217.945312 " fill-opacity="1" fill-rule="evenodd"/><path fill="#fdcd56" d="M 65.636719 66.339844 C 71.414062 66.339844 76.128906 61.617188 76.128906 55.832031 C 76.128906 50.042969 71.414062 45.324219 65.636719 45.324219 C 59.859375 45.324219 55.148438 50.042969 55.148438 55.832031 C 55.148438 61.617188 59.859375 66.339844 65.636719 66.339844 Z M 65.636719 66.339844 " fill-opacity="1" fill-rule="evenodd"/><path fill="#fdcd56" d="M 45.722656 150.984375 C 51.5 150.984375 56.210938 146.265625 56.210938 140.480469 C 56.210938 134.691406 51.5 129.972656 45.722656 129.972656 C 39.941406 129.972656 35.230469 134.691406 35.230469 140.480469 C 35.230469 146.265625 39.941406 150.984375 45.722656 150.984375 Z M 45.722656 150.984375 " fill-opacity="1" fill-rule="evenodd"/><path fill="#636c77" d="M 85.972656 191.023438 L 107.210938 169.75 L 118.210938 180.769531 L 96.976562 202.042969 Z M 85.972656 191.023438 " fill-opacity="1" fill-rule="evenodd"/><path fill="#a9b0bb" d="M 186.804688 101.046875 C 188.097656 102.339844 189.320312 103.691406 190.476562 105.101562 C 191.632812 106.515625 192.71875 107.980469 193.730469 109.496094 C 194.742188 111.015625 195.679688 112.582031 196.539062 114.191406 C 197.398438 115.800781 198.179688 117.449219 198.875 119.136719 C 199.574219 120.824219 200.1875 122.542969 200.714844 124.289062 C 201.246094 126.039062 201.6875 127.808594 202.042969 129.597656 C 202.398438 131.390625 202.667969 133.195312 202.847656 135.011719 C 203.023438 136.828125 203.113281 138.652344 203.113281 140.476562 C 203.113281 142.304688 203.023438 144.125 202.847656 145.945312 C 202.667969 147.761719 202.398438 149.566406 202.042969 151.355469 C 201.6875 153.148438 201.246094 154.917969 200.71875 156.664062 C 200.1875 158.414062 199.574219 160.128906 198.875 161.816406 C 198.179688 163.503906 197.398438 165.152344 196.539062 166.765625 C 195.679688 168.375 194.746094 169.941406 193.730469 171.457031 C 192.71875 172.976562 191.632812 174.441406 190.476562 175.855469 C 189.320312 177.265625 188.097656 178.617188 186.808594 179.910156 C 185.519531 181.199219 184.167969 182.425781 182.757812 183.585938 C 181.351562 184.742188 179.886719 185.828125 178.371094 186.84375 C 176.855469 187.859375 175.292969 188.796875 173.683594 189.65625 C 172.078125 190.519531 170.429688 191.296875 168.746094 191.996094 C 167.0625 192.695312 165.347656 193.3125 163.601562 193.839844 C 161.855469 194.371094 160.089844 194.8125 158.300781 195.171875 C 156.511719 195.527344 154.710938 195.792969 152.898438 195.972656 C 151.082031 196.152344 149.261719 196.242188 147.441406 196.242188 C 145.617188 196.242188 143.796875 196.152344 141.984375 195.972656 C 140.167969 195.796875 138.367188 195.527344 136.578125 195.171875 C 134.789062 194.816406 133.023438 194.371094 131.277344 193.839844 C 129.535156 193.3125 127.820312 192.695312 126.132812 191.996094 C 124.449219 191.300781 122.804688 190.519531 121.195312 189.660156 C 119.585938 188.796875 118.023438 187.859375 116.507812 186.84375 C 114.992188 185.832031 113.53125 184.742188 112.121094 183.585938 C 110.710938 182.425781 109.359375 181.203125 108.070312 179.910156 C 106.78125 178.617188 105.558594 177.265625 104.402344 175.855469 C 103.246094 174.445312 102.160156 172.980469 101.148438 171.460938 C 100.132812 169.941406 99.199219 168.378906 98.339844 166.765625 C 97.480469 165.15625 96.699219 163.507812 96.003906 161.820312 C 95.304688 160.132812 94.691406 158.414062 94.160156 156.667969 C 93.632812 154.917969 93.191406 153.148438 92.832031 151.359375 C 92.476562 149.566406 92.210938 147.761719 92.03125 145.945312 C 91.851562 144.128906 91.765625 142.304688 91.765625 140.480469 C 91.765625 138.652344 91.851562 136.832031 92.03125 135.015625 C 92.210938 133.195312 92.476562 131.390625 92.832031 129.601562 C 93.1875 127.808594 93.632812 126.039062 94.160156 124.292969 C 94.691406 122.542969 95.304688 120.828125 96 119.140625 C 96.699219 117.453125 97.476562 115.804688 98.335938 114.191406 C 99.195312 112.582031 100.132812 111.019531 101.144531 109.5 C 102.160156 107.980469 103.246094 106.515625 104.402344 105.105469 C 105.558594 103.691406 106.78125 102.339844 108.070312 101.050781 C 109.359375 99.757812 110.707031 98.53125 112.117188 97.375 C 113.527344 96.214844 114.992188 95.128906 116.507812 94.113281 C 118.023438 93.097656 119.585938 92.160156 121.191406 91.300781 C 122.800781 90.4375 124.449219 89.660156 126.132812 88.960938 C 127.816406 88.261719 129.53125 87.648438 131.277344 87.117188 C 133.019531 86.585938 134.789062 86.144531 136.578125 85.785156 C 138.363281 85.429688 140.167969 85.164062 141.980469 84.984375 C 143.796875 84.804688 145.613281 84.714844 147.4375 84.714844 C 149.261719 84.714844 151.082031 84.804688 152.894531 84.984375 C 154.710938 85.164062 156.511719 85.429688 158.300781 85.785156 C 160.089844 86.144531 161.855469 86.585938 163.601562 87.117188 C 165.34375 87.644531 167.058594 88.261719 168.742188 88.960938 C 170.429688 89.660156 172.074219 90.4375 173.683594 91.300781 C 175.292969 92.160156 176.851562 93.097656 178.371094 94.113281 C 179.886719 95.128906 181.347656 96.214844 182.757812 97.371094 C 184.167969 98.53125 185.515625 99.757812 186.804688 101.046875 Z M 186.804688 101.046875 " fill-opacity="1" fill-rule="nonzero"/><path fill="#c7e0ec" d="M 188.386719 133.828125 C 188.605469 135.167969 188.757812 136.519531 188.84375 137.878906 C 188.925781 139.234375 188.945312 140.59375 188.898438 141.953125 C 188.847656 143.316406 188.734375 144.667969 188.554688 146.015625 C 188.371094 147.367188 188.125 148.703125 187.8125 150.027344 C 187.5 151.351562 187.125 152.65625 186.683594 153.941406 C 186.242188 155.230469 185.742188 156.492188 185.175781 157.730469 C 184.613281 158.96875 183.988281 160.175781 183.308594 161.351562 C 182.625 162.527344 181.886719 163.667969 181.09375 164.773438 C 180.296875 165.875 179.449219 166.9375 178.550781 167.957031 C 177.652344 168.980469 176.707031 169.953125 175.714844 170.878906 C 174.71875 171.808594 173.683594 172.683594 172.601562 173.507812 C 171.523438 174.332031 170.40625 175.105469 169.25 175.820312 C 168.09375 176.535156 166.90625 177.191406 165.683594 177.789062 C 164.464844 178.386719 163.21875 178.925781 161.945312 179.402344 C 160.671875 179.875 159.378906 180.289062 158.066406 180.636719 C 156.753906 180.984375 155.425781 181.269531 154.085938 181.484375 C 152.746094 181.703125 151.398438 181.855469 150.039062 181.941406 C 148.683594 182.027344 147.328125 182.042969 145.972656 181.996094 C 144.613281 181.949219 143.261719 181.832031 141.914062 181.652344 C 140.570312 181.46875 139.234375 181.222656 137.914062 180.910156 C 136.589844 180.597656 135.285156 180.21875 134 179.78125 C 132.714844 179.339844 131.457031 178.835938 130.21875 178.269531 C 128.984375 177.707031 127.777344 177.082031 126.605469 176.398438 C 125.429688 175.714844 124.292969 174.972656 123.191406 174.179688 C 122.085938 173.382812 121.027344 172.535156 120.007812 171.636719 C 118.988281 170.734375 118.015625 169.789062 117.089844 168.792969 C 116.164062 167.796875 115.289062 166.757812 114.46875 165.675781 C 113.644531 164.59375 112.875 163.472656 112.160156 162.316406 C 111.445312 161.160156 110.789062 159.96875 110.191406 158.746094 C 109.59375 157.523438 109.058594 156.277344 108.585938 155.003906 C 108.109375 153.726562 107.699219 152.433594 107.351562 151.117188 C 107.003906 149.800781 106.71875 148.472656 106.503906 147.128906 C 106.285156 145.785156 106.132812 144.4375 106.046875 143.078125 C 105.964844 141.71875 105.945312 140.359375 105.992188 139 C 106.042969 137.640625 106.15625 136.289062 106.335938 134.9375 C 106.519531 133.589844 106.765625 132.253906 107.078125 130.929688 C 107.390625 129.605469 107.765625 128.300781 108.207031 127.011719 C 108.644531 125.726562 109.148438 124.464844 109.710938 123.226562 C 110.277344 121.988281 110.898438 120.78125 111.582031 119.605469 C 112.265625 118.429688 113.003906 117.289062 113.796875 116.183594 C 114.59375 115.082031 115.4375 114.019531 116.335938 112.996094 C 117.234375 111.976562 118.183594 111.003906 119.175781 110.078125 C 120.171875 109.148438 121.207031 108.273438 122.289062 107.449219 C 123.367188 106.621094 124.484375 105.851562 125.640625 105.136719 C 126.796875 104.421875 127.984375 103.765625 129.203125 103.167969 C 130.425781 102.566406 131.671875 102.03125 132.945312 101.554688 C 134.21875 101.078125 135.511719 100.667969 136.824219 100.320312 C 138.136719 99.972656 139.464844 99.6875 140.804688 99.46875 C 142.144531 99.253906 143.492188 99.101562 144.847656 99.015625 C 146.207031 98.929688 147.5625 98.910156 148.917969 98.960938 C 150.277344 99.007812 151.628906 99.125 152.976562 99.304688 C 154.320312 99.488281 155.65625 99.734375 156.976562 100.046875 C 158.300781 100.359375 159.605469 100.734375 160.890625 101.175781 C 162.175781 101.617188 163.433594 102.121094 164.671875 102.6875 C 165.90625 103.25 167.109375 103.875 168.285156 104.558594 C 169.460938 105.242188 170.597656 105.980469 171.699219 106.777344 C 172.800781 107.574219 173.863281 108.421875 174.882812 109.320312 C 175.902344 110.222656 176.871094 111.167969 177.796875 112.164062 C 178.722656 113.160156 179.597656 114.199219 180.421875 115.28125 C 181.246094 116.363281 182.015625 117.480469 182.730469 118.640625 C 183.445312 119.796875 184.101562 120.988281 184.699219 122.210938 C 185.292969 123.429688 185.832031 124.679688 186.304688 125.953125 C 186.78125 127.230469 187.191406 128.523438 187.539062 129.839844 C 187.886719 131.15625 188.171875 132.484375 188.386719 133.828125 Z M 188.386719 133.828125 " fill-opacity="1" fill-rule="nonzero"/><path fill="#937661" d="M 99.484375 196.929688 L 91.078125 188.511719 C 88.300781 185.730469 83.757812 185.730469 80.980469 188.511719 L 42.34375 227.207031 C 39.566406 229.988281 39.566406 234.539062 42.34375 237.320312 L 50.75 245.742188 C 53.527344 248.523438 58.074219 248.523438 60.851562 245.742188 L 99.484375 207.046875 C 102.261719 204.265625 102.261719 199.714844 99.484375 196.929688 Z M 99.484375 196.929688 " fill-opacity="1" fill-rule="evenodd"/><g clip-path="url(#65a2d18e71)"><path fill="#000000" d="M 147.429688 107.773438 C 165.449219 107.773438 180.085938 122.445312 180.085938 140.480469 C 180.085938 158.511719 165.449219 173.1875 147.429688 173.1875 C 129.449219 173.1875 114.777344 158.511719 114.777344 140.480469 C 114.777344 122.445312 129.449219 107.773438 147.429688 107.773438 Z M 147.429688 183.570312 C 171.164062 183.570312 190.46875 164.238281 190.46875 140.480469 C 190.46875 116.71875 171.164062 97.390625 147.429688 97.390625 C 123.699219 97.390625 104.425781 116.71875 104.425781 140.480469 C 104.425781 164.238281 123.699219 183.570312 147.429688 183.570312 Z M 207.792969 109.382812 C 204.898438 109.382812 202.597656 107.054688 202.597656 104.1875 L 202.597656 97.074219 C 202.597656 90.660156 197.199219 85.230469 190.785156 85.230469 C 187.925781 85.230469 185.59375 82.90625 185.59375 80.035156 C 185.59375 77.171875 187.925781 74.84375 190.785156 74.84375 C 202.808594 74.84375 212.949219 85.027344 212.949219 97.074219 L 212.949219 104.1875 C 212.949219 107.054688 210.648438 109.382812 207.792969 109.382812 Z M 226.820312 71.179688 C 232.289062 78.792969 235.183594 87.742188 235.183594 97.074219 L 235.183594 105.902344 C 235.183594 108.765625 232.882812 111.09375 229.992188 111.09375 C 227.132812 111.09375 224.832031 108.765625 224.832031 105.902344 L 224.832031 97.074219 C 224.832031 89.941406 222.601562 83.085938 218.386719 77.253906 C 216.710938 74.933594 217.234375 71.683594 219.570312 70.007812 C 221.90625 68.328125 225.144531 68.855469 226.820312 71.179688 Z M 235.183594 122.933594 L 235.183594 130.347656 C 235.183594 133.207031 232.882812 135.535156 229.992188 135.535156 C 227.132812 135.535156 224.832031 133.207031 224.832031 130.347656 L 224.832031 122.933594 C 224.832031 120.0625 227.132812 117.742188 229.992188 117.742188 C 232.882812 117.742188 235.183594 120.0625 235.183594 122.933594 Z M 181.269531 64.347656 C 178.519531 65.15625 175.660156 63.582031 174.824219 60.832031 C 174.023438 58.078125 175.589844 55.195312 178.34375 54.386719 C 189.671875 51.046875 202.078125 52.460938 212.390625 58.28125 C 214.902344 59.679688 215.773438 62.851562 214.378906 65.347656 C 213.4375 67.042969 211.660156 68 209.847656 68 C 208.976562 68 208.105469 67.78125 207.304688 67.328125 C 199.425781 62.878906 189.949219 61.796875 181.269531 64.347656 Z M 168.828125 64.167969 C 170.746094 66.320312 170.535156 69.601562 168.375 71.5 C 167.121094 72.613281 165.902344 73.820312 164.820312 75.105469 C 163.808594 76.3125 162.347656 76.933594 160.882812 76.933594 C 159.699219 76.933594 158.476562 76.53125 157.539062 75.707031 C 155.34375 73.847656 155.0625 70.570312 156.910156 68.382812 C 158.339844 66.722656 159.871094 65.144531 161.511719 63.695312 C 163.671875 61.804688 166.945312 62.019531 168.828125 64.167969 Z M 212.078125 156.863281 C 216.363281 153.382812 219.816406 148.886719 222.011719 143.855469 C 223.125 141.226562 226.191406 140.03125 228.804688 141.183594 C 231.453125 142.332031 232.640625 145.386719 231.488281 148.015625 C 228.632812 154.5625 224.171875 160.417969 218.59375 164.941406 C 217.621094 165.710938 216.46875 166.09375 215.320312 166.09375 C 213.820312 166.09375 212.324219 165.433594 211.277344 164.164062 C 209.5 161.929688 209.847656 158.667969 212.078125 156.863281 Z M 130.703125 68.25 C 129.484375 70.839844 130.5625 73.9375 133.144531 75.183594 C 133.875 75.535156 134.605469 75.707031 135.375 75.707031 C 137.289062 75.707031 139.171875 74.625 140.042969 72.765625 C 145.027344 62.46875 152.867188 53.992188 162.765625 48.261719 C 165.238281 46.820312 166.074219 43.644531 164.648438 41.160156 C 163.21875 38.683594 160.046875 37.832031 157.574219 39.269531 C 145.863281 46.058594 136.59375 56.078125 130.703125 68.25 Z M 172.382812 38.132812 C 171.757812 35.335938 173.5 32.5625 176.320312 31.929688 C 181.027344 30.875 185.90625 30.34375 190.785156 30.34375 C 193.644531 30.34375 195.941406 32.667969 195.941406 35.535156 C 195.941406 38.398438 193.640625 40.730469 190.785156 40.730469 C 186.671875 40.730469 182.558594 41.175781 178.585938 42.070312 C 178.203125 42.15625 177.820312 42.195312 177.4375 42.195312 C 175.066406 42.195312 172.90625 40.550781 172.382812 38.132812 Z M 205.421875 37.078125 C 204.515625 39.800781 205.980469 42.746094 208.664062 43.664062 C 226.15625 49.585938 239.679688 63.742188 244.835938 81.507812 C 245.5 83.777344 247.554688 85.253906 249.820312 85.253906 C 250.273438 85.253906 250.761719 85.1875 251.25 85.050781 C 254 84.25 255.605469 81.375 254.804688 78.613281 C 248.703125 57.582031 232.707031 40.839844 212.007812 33.824219 C 209.289062 32.90625 206.363281 34.363281 205.421875 37.078125 Z M 252.222656 91.882812 C 255.082031 91.882812 257.417969 94.203125 257.417969 97.074219 L 257.417969 109.980469 C 257.417969 112.855469 255.082031 115.175781 252.222656 115.175781 C 249.367188 115.175781 247.03125 112.855469 247.03125 109.980469 L 247.03125 97.074219 C 247.03125 94.203125 249.367188 91.882812 252.222656 91.882812 Z M 233.058594 175.179688 C 234.871094 177.417969 234.484375 180.683594 232.257812 182.480469 C 222.949219 189.925781 211.867188 194.746094 200.160156 196.414062 C 199.914062 196.445312 199.671875 196.46875 199.425781 196.46875 C 196.882812 196.46875 194.6875 194.601562 194.304688 192.007812 C 193.886719 189.167969 195.871094 186.535156 198.695312 186.136719 C 208.558594 184.726562 217.933594 180.652344 225.773438 174.367188 C 228.039062 172.566406 231.28125 172.9375 233.058594 175.179688 Z M 257.417969 130.347656 C 257.417969 143.96875 253.269531 157.101562 245.5 168.316406 C 244.488281 169.769531 242.882812 170.542969 241.210938 170.542969 C 240.199219 170.542969 239.191406 170.246094 238.285156 169.613281 C 235.914062 167.976562 235.355469 164.742188 236.960938 162.390625 C 243.546875 152.925781 247.03125 141.84375 247.03125 130.347656 C 247.03125 127.472656 249.367188 125.152344 252.222656 125.152344 C 255.082031 125.152344 257.417969 127.472656 257.417969 130.347656 Z M 206.605469 243.367188 C 206.605469 246.234375 204.269531 248.554688 201.414062 248.554688 L 173.359375 248.554688 C 170.5 248.554688 168.167969 246.234375 168.167969 243.367188 C 168.167969 240.5 170.503906 238.171875 173.359375 238.171875 L 201.414062 238.171875 C 204.269531 238.171875 206.605469 240.5 206.605469 243.367188 Z M 339.628906 263.601562 C 350.816406 263.601562 359.945312 254.460938 359.945312 243.234375 L 359.945312 223.136719 L 90.765625 223.136719 L 64.523438 249.410156 C 62.117188 251.824219 58.949219 253.023438 55.8125 253.023438 C 52.640625 253.023438 49.503906 251.820312 47.097656 249.410156 L 38.664062 240.992188 C 33.855469 236.175781 33.855469 228.347656 38.664062 223.535156 L 39.082031 223.136719 L 14.828125 223.136719 L 14.828125 243.234375 C 14.828125 254.460938 23.957031 263.601562 35.144531 263.601562 Z M 237.65625 325.828125 L 137.011719 325.828125 C 142.691406 311.355469 146.316406 291.730469 146.523438 273.988281 L 227.480469 273.988281 C 227.796875 291.511719 231.699219 311.148438 237.65625 325.828125 Z M 280.835938 346.582031 C 280.835938 352.304688 276.203125 356.953125 270.484375 356.953125 L 104.289062 356.953125 C 98.570312 356.953125 93.9375 352.304688 93.9375 346.582031 C 93.9375 340.867188 98.570312 336.214844 104.289062 336.214844 L 270.484375 336.214844 C 276.203125 336.214844 280.835938 340.867188 280.835938 346.582031 Z M 51.035156 140.480469 C 51.035156 143.40625 48.632812 145.796875 45.703125 145.796875 C 42.777344 145.796875 40.40625 143.40625 40.40625 140.480469 C 40.40625 137.546875 42.777344 135.167969 45.703125 135.167969 C 48.632812 135.167969 51.035156 137.546875 51.035156 140.480469 Z M 65.640625 61.144531 C 62.710938 61.144531 60.34375 58.761719 60.34375 55.828125 C 60.34375 52.902344 62.710938 50.511719 65.640625 50.511719 C 68.566406 50.511719 70.9375 52.902344 70.9375 55.828125 C 70.9375 58.761719 68.566406 61.144531 65.640625 61.144531 Z M 106.308594 185.355469 L 100.765625 190.890625 L 97.109375 187.210938 L 102.648438 181.679688 C 103.800781 182.953125 105.019531 184.183594 106.308594 185.355469 Z M 147.429688 89.910156 C 119.585938 89.910156 96.933594 112.59375 96.933594 140.480469 C 96.933594 168.359375 119.585938 191.046875 147.429688 191.046875 C 175.277344 191.046875 197.929688 168.359375 197.929688 140.480469 C 197.929688 112.59375 175.277344 89.910156 147.429688 89.910156 Z M 46.019531 230.878906 L 84.632812 192.179688 C 85.015625 191.8125 85.539062 191.617188 86.023438 191.617188 C 86.546875 191.617188 87.035156 191.8125 87.417969 192.179688 L 95.816406 200.601562 C 96.304688 201.097656 96.375 201.683594 96.375 201.988281 C 96.375 202.292969 96.304688 202.878906 95.816406 203.375 L 57.167969 242.066406 C 56.4375 242.820312 55.183594 242.820312 54.417969 242.066406 L 46.019531 233.648438 C 45.25 232.898438 45.25 231.628906 46.019531 230.878906 Z M 35.144531 18.46875 C 23.957031 18.46875 14.828125 27.605469 14.828125 38.839844 L 14.828125 212.75 L 49.433594 212.75 L 77.3125 184.835938 C 80.277344 181.871094 84.386719 180.742188 88.222656 181.433594 L 96.238281 173.382812 C 91.007812 165.261719 87.664062 155.820312 86.828125 145.667969 L 60.480469 145.667969 C 58.355469 151.78125 52.535156 156.183594 45.703125 156.183594 C 37.0625 156.183594 30.058594 149.136719 30.058594 140.480469 C 30.058594 131.820312 37.0625 124.78125 45.703125 124.78125 C 52.535156 124.78125 58.355469 129.179688 60.480469 135.285156 L 86.828125 135.285156 C 87.664062 125.226562 90.976562 115.855469 96.132812 107.773438 L 65.640625 107.773438 C 62.78125 107.773438 60.445312 105.453125 60.445312 102.578125 L 60.445312 70.628906 C 54.347656 68.480469 49.957031 62.664062 49.957031 55.828125 C 49.957031 47.171875 56.996094 40.125 65.640625 40.125 C 74.28125 40.125 81.320312 47.171875 81.320312 55.828125 C 81.320312 62.664062 76.929688 68.480469 70.832031 70.628906 L 70.832031 97.386719 L 104.425781 97.386719 C 115.4375 86.359375 130.667969 79.523438 147.429688 79.523438 C 180.992188 79.523438 208.3125 106.863281 208.3125 140.476562 C 208.3125 174.089844 180.992188 201.429688 147.429688 201.429688 C 135.339844 201.429688 124.082031 197.867188 114.566406 191.75 L 106.550781 199.800781 C 106.691406 200.511719 106.761719 201.246094 106.761719 201.988281 C 106.761719 205.285156 105.472656 208.390625 103.136719 210.71875 L 101.113281 212.75 L 359.945312 212.75 L 359.945312 32.054688 C 359.945312 24.566406 353.878906 18.46875 346.386719 18.46875 Z M 346.386719 8.082031 L 35.144531 8.082031 C 18.242188 8.082031 4.441406 21.882812 4.441406 38.839844 L 4.441406 243.234375 C 4.441406 260.1875 18.242188 273.988281 35.144531 273.988281 L 136.140625 273.988281 C 135.929688 293.867188 131.121094 313.972656 125.753906 325.828125 L 104.289062 325.828125 C 92.855469 325.828125 83.585938 335.136719 83.585938 346.582031 C 83.585938 358.03125 92.855469 367.339844 104.289062 367.339844 L 270.484375 367.339844 C 281.917969 367.339844 291.1875 358.027344 291.1875 346.582031 C 291.1875 335.136719 281.917969 325.828125 270.484375 325.828125 L 248.984375 325.828125 C 243.339844 313.757812 238.214844 293.578125 237.832031 273.988281 L 339.628906 273.988281 C 356.53125 273.988281 370.328125 260.183594 370.328125 243.234375 L 370.328125 32.054688 C 370.332031 18.839844 359.597656 8.082031 346.386719 8.082031 Z M 346.386719 8.082031 " fill-opacity="1" fill-rule="evenodd"/></g></svg>