<svg xmlns="http://www.w3.org/2000/svg" xmlns:xlink="http://www.w3.org/1999/xlink" width="500" zoomAndPan="magnify" viewBox="0 0 375 374.999991" height="500" preserveAspectRatio="xMidYMid meet" version="1.0"><path fill="#e6e9ed" d="M 0 43.75 L 181.25 43.75 L 181.25 268.75 L 0 268.75 Z M 0 43.75 " fill-opacity="1" fill-rule="nonzero"/><path fill="#ccd1d9" d="M 181.25 268.75 L 181.25 43.75 L 168.4375 43.75 C 156.65625 63.195312 150 85.917969 150 110.011719 L 150 229.863281 L 148.769531 230.21875 C 130.539062 235.417969 117.09375 250.613281 113.523438 268.757812 L 181.25 268.757812 Z M 181.25 268.75 " fill-opacity="1" fill-rule="nonzero"/><path fill="#969faa" d="M 287.5 200 L 287.5 225 L 347.800781 242.230469 C 363.898438 246.832031 375 261.542969 375 278.289062 L 375 375 L 125 375 L 125 278.289062 C 125 261.542969 136.101562 246.832031 152.199219 242.230469 L 212.5 225 L 212.5 200 Z M 287.5 200 " fill-opacity="1" fill-rule="nonzero"/><path fill="#838f9b" d="M 162.5 375 L 175 375 L 175 300 Z M 162.5 375 " fill-opacity="1" fill-rule="nonzero"/><path fill="#838f9b" d="M 337.5 375 L 325 375 L 325 300 Z M 337.5 375 " fill-opacity="1" fill-rule="nonzero"/><path fill="#f0d0b4" d="M 325 350 L 375 350 L 375 375 L 325 375 Z M 325 350 " fill-opacity="1" fill-rule="nonzero"/><path fill="#5b6570" d="M 261.488281 288.824219 L 314.769531 265.988281 C 328.5625 260.082031 337.5 246.523438 337.5 231.523438 L 337.5 110.007812 C 337.5 59.480469 304.542969 14.863281 256.25 0 L 243.75 0 C 195.457031 14.863281 162.5 59.480469 162.5 110.007812 L 162.5 231.519531 C 162.5 246.519531 171.4375 260.074219 185.226562 265.988281 L 238.511719 288.824219 Z M 261.488281 288.824219 " fill-opacity="1" fill-rule="nonzero"/><path fill="#838f9b" d="M 253.75 281.25 L 287.5 225 L 287.5 193.75 L 212.5 193.75 L 212.5 225 L 246.570312 281.789062 Z M 253.75 281.25 " fill-opacity="1" fill-rule="nonzero"/><path fill="#656d78" d="M 212.5 214.855469 C 223.542969 221.269531 236.332031 225 250 225 C 263.667969 225 276.457031 221.269531 287.5 214.855469 L 287.5 193.75 L 212.5 193.75 Z M 212.5 214.855469 " fill-opacity="1" fill-rule="nonzero"/><path fill="#838f9b" d="M 312.5 112.5 L 312.5 150 C 312.5 184.519531 284.519531 212.5 250 212.5 C 215.480469 212.5 187.5 184.519531 187.5 150 L 187.5 112.5 Z M 312.5 112.5 " fill-opacity="1" fill-rule="nonzero"/><path fill="#ccd1d9" d="M 325 325 L 375 325 L 375 350 L 325 350 Z M 325 325 " fill-opacity="1" fill-rule="nonzero"/><path fill="#aab2bd" d="M 329.167969 325 L 325 325 L 325 350 L 333.332031 350 Z M 329.167969 325 " fill-opacity="1" fill-rule="nonzero"/><path fill="#ecc19c" d="M 325 350 L 325 375 L 337.5 375 L 333.332031 350 Z M 325 350 " fill-opacity="1" fill-rule="nonzero"/><path fill="#656d78" d="M 275 356.25 L 262.5 356.25 L 262.5 351.511719 C 262.5 338.320312 258.101562 325.792969 250 315.617188 C 241.898438 325.792969 237.5 338.320312 237.5 351.511719 L 237.5 356.25 L 225 356.25 L 225 351.511719 C 225 332.742188 232.3125 315.101562 245.582031 301.832031 L 250 297.414062 L 254.417969 301.832031 C 267.6875 315.101562 275 332.742188 275 351.511719 Z M 275 356.25 " fill-opacity="1" fill-rule="nonzero"/><path fill="#ccd1d9" d="M 262.5 293.75 C 262.5 294.570312 262.417969 295.382812 262.261719 296.1875 C 262.101562 296.992188 261.863281 297.773438 261.546875 298.535156 C 261.234375 299.292969 260.847656 300.011719 260.394531 300.695312 C 259.9375 301.378906 259.417969 302.007812 258.839844 302.589844 C 258.257812 303.167969 257.628906 303.6875 256.945312 304.144531 C 256.261719 304.597656 255.542969 304.984375 254.785156 305.296875 C 254.023438 305.613281 253.242188 305.851562 252.4375 306.011719 C 251.632812 306.167969 250.820312 306.25 250 306.25 C 249.179688 306.25 248.367188 306.167969 247.5625 306.011719 C 246.757812 305.851562 245.976562 305.613281 245.214844 305.296875 C 244.457031 304.984375 243.738281 304.597656 243.054688 304.144531 C 242.371094 303.6875 241.742188 303.167969 241.160156 302.589844 C 240.582031 302.007812 240.0625 301.378906 239.605469 300.695312 C 239.152344 300.011719 238.765625 299.292969 238.453125 298.535156 C 238.136719 297.773438 237.898438 296.992188 237.738281 296.1875 C 237.578125 295.382812 237.5 294.570312 237.5 293.75 C 237.5 292.929688 237.578125 292.117188 237.738281 291.3125 C 237.898438 290.507812 238.136719 289.726562 238.453125 288.964844 C 238.765625 288.207031 239.152344 287.488281 239.605469 286.804688 C 240.0625 286.121094 240.582031 285.492188 241.160156 284.910156 C 241.742188 284.332031 242.371094 283.8125 243.054688 283.355469 C 243.738281 282.902344 244.457031 282.515625 245.214844 282.203125 C 245.976562 281.886719 246.757812 281.648438 247.5625 281.488281 C 248.367188 281.328125 249.179688 281.25 250 281.25 C 250.820312 281.25 251.632812 281.328125 252.4375 281.488281 C 253.242188 281.648438 254.023438 281.886719 254.785156 282.203125 C 255.542969 282.515625 256.261719 282.902344 256.945312 283.355469 C 257.628906 283.8125 258.257812 284.332031 258.839844 284.910156 C 259.417969 285.492188 259.9375 286.121094 260.394531 286.804688 C 260.847656 287.488281 261.234375 288.207031 261.546875 288.964844 C 261.863281 289.726562 262.101562 290.507812 262.261719 291.3125 C 262.417969 292.117188 262.5 292.929688 262.5 293.75 Z M 262.5 293.75 " fill-opacity="1" fill-rule="nonzero"/><path fill="#ff826e" d="M 0 43.75 L 193.75 43.75 L 193.75 93.75 L 0 93.75 Z M 0 43.75 " fill-opacity="1" fill-rule="nonzero"/><path fill="#fc6e51" d="M 168.4375 43.75 C 159.351562 58.757812 153.351562 75.71875 151.0625 93.75 L 193.75 93.75 L 193.75 43.75 Z M 168.4375 43.75 " fill-opacity="1" fill-rule="nonzero"/><path fill="#ecc19c" d="M 312.5 150 L 312.5 112.5 L 187.5 112.5 L 187.5 150 C 187.5 152.082031 187.613281 154.144531 187.8125 156.175781 L 225.375 146.78125 C 233.425781 144.769531 241.699219 143.75 250 143.75 C 258.300781 143.75 266.574219 144.769531 274.625 146.78125 L 312.1875 156.175781 C 312.386719 154.144531 312.5 152.082031 312.5 150 Z M 312.5 150 " fill-opacity="1" fill-rule="nonzero"/><path fill="#838f9b" d="M 256.25 0 L 243.75 0 C 195.457031 14.863281 162.5 59.480469 162.5 110.007812 L 162.5 137.5 C 162.5 137.5 200 87.5 250 87.5 C 300 87.5 337.5 137.5 337.5 137.5 L 337.5 110.007812 C 337.5 59.480469 304.542969 14.863281 256.25 0 Z M 256.25 0 " fill-opacity="1" fill-rule="nonzero"/><path fill="#51565b" d="M 218.75 131.25 C 218.75 131.660156 218.710938 132.066406 218.628906 132.46875 C 218.550781 132.871094 218.429688 133.261719 218.273438 133.640625 C 218.117188 134.019531 217.925781 134.382812 217.695312 134.722656 C 217.46875 135.0625 217.210938 135.378906 216.917969 135.667969 C 216.628906 135.960938 216.3125 136.21875 215.972656 136.445312 C 215.632812 136.675781 215.269531 136.867188 214.890625 137.023438 C 214.511719 137.179688 214.121094 137.300781 213.71875 137.378906 C 213.316406 137.460938 212.910156 137.5 212.5 137.5 C 212.089844 137.5 211.683594 137.460938 211.28125 137.378906 C 210.878906 137.300781 210.488281 137.179688 210.109375 137.023438 C 209.730469 136.867188 209.367188 136.675781 209.027344 136.445312 C 208.6875 136.21875 208.371094 135.960938 208.082031 135.667969 C 207.789062 135.378906 207.53125 135.0625 207.304688 134.722656 C 207.074219 134.382812 206.882812 134.019531 206.726562 133.640625 C 206.570312 133.261719 206.449219 132.871094 206.371094 132.46875 C 206.289062 132.066406 206.25 131.660156 206.25 131.25 C 206.25 130.839844 206.289062 130.433594 206.371094 130.03125 C 206.449219 129.628906 206.570312 129.238281 206.726562 128.859375 C 206.882812 128.480469 207.074219 128.117188 207.304688 127.777344 C 207.53125 127.4375 207.789062 127.121094 208.082031 126.832031 C 208.371094 126.539062 208.6875 126.28125 209.027344 126.054688 C 209.367188 125.824219 209.730469 125.632812 210.109375 125.476562 C 210.488281 125.320312 210.878906 125.199219 211.28125 125.121094 C 211.683594 125.039062 212.089844 125 212.5 125 C 212.910156 125 213.316406 125.039062 213.71875 125.121094 C 214.121094 125.199219 214.511719 125.320312 214.890625 125.476562 C 215.269531 125.632812 215.632812 125.824219 215.972656 126.054688 C 216.3125 126.28125 216.628906 126.539062 216.917969 126.832031 C 217.210938 127.121094 217.46875 127.4375 217.695312 127.777344 C 217.925781 128.117188 218.117188 128.480469 218.273438 128.859375 C 218.429688 129.238281 218.550781 129.628906 218.628906 130.03125 C 218.710938 130.433594 218.75 130.839844 218.75 131.25 Z M 218.75 131.25 " fill-opacity="1" fill-rule="nonzero"/><path fill="#51565b" d="M 293.75 131.25 C 293.75 131.660156 293.710938 132.066406 293.628906 132.46875 C 293.550781 132.871094 293.429688 133.261719 293.273438 133.640625 C 293.117188 134.019531 292.925781 134.382812 292.695312 134.722656 C 292.46875 135.0625 292.210938 135.378906 291.917969 135.667969 C 291.628906 135.960938 291.3125 136.21875 290.972656 136.445312 C 290.632812 136.675781 290.269531 136.867188 289.890625 137.023438 C 289.511719 137.179688 289.121094 137.300781 288.71875 137.378906 C 288.316406 137.460938 287.910156 137.5 287.5 137.5 C 287.089844 137.5 286.683594 137.460938 286.28125 137.378906 C 285.878906 137.300781 285.488281 137.179688 285.109375 137.023438 C 284.730469 136.867188 284.367188 136.675781 284.027344 136.445312 C 283.6875 136.21875 283.371094 135.960938 283.082031 135.667969 C 282.789062 135.378906 282.53125 135.0625 282.304688 134.722656 C 282.074219 134.382812 281.882812 134.019531 281.726562 133.640625 C 281.570312 133.261719 281.449219 132.871094 281.371094 132.46875 C 281.289062 132.066406 281.25 131.660156 281.25 131.25 C 281.25 130.839844 281.289062 130.433594 281.371094 130.03125 C 281.449219 129.628906 281.570312 129.238281 281.726562 128.859375 C 281.882812 128.480469 282.074219 128.117188 282.304688 127.777344 C 282.53125 127.4375 282.789062 127.121094 283.082031 126.832031 C 283.371094 126.539062 283.6875 126.28125 284.027344 126.054688 C 284.367188 125.824219 284.730469 125.632812 285.109375 125.476562 C 285.488281 125.320312 285.878906 125.199219 286.28125 125.121094 C 286.683594 125.039062 287.089844 125 287.5 125 C 287.910156 125 288.316406 125.039062 288.71875 125.121094 C 289.121094 125.199219 289.511719 125.320312 289.890625 125.476562 C 290.269531 125.632812 290.632812 125.824219 290.972656 126.054688 C 291.3125 126.28125 291.628906 126.539062 291.917969 126.832031 C 292.210938 127.121094 292.46875 127.4375 292.695312 127.777344 C 292.925781 128.117188 293.117188 128.480469 293.273438 128.859375 C 293.429688 129.238281 293.550781 129.628906 293.628906 130.03125 C 293.710938 130.433594 293.75 130.839844 293.75 131.25 Z M 293.75 131.25 " fill-opacity="1" fill-rule="nonzero"/><path fill="#f0d0b4" d="M 125 350 L 175 350 L 175 375 L 125 375 Z M 125 350 " fill-opacity="1" fill-rule="nonzero"/><path fill="#ecc19c" d="M 162.5 375 L 175 375 L 175 350 L 166.667969 350 Z M 162.5 375 " fill-opacity="1" fill-rule="nonzero"/><path fill="#ccd1d9" d="M 125 325 L 175 325 L 175 350 L 125 350 Z M 125 325 " fill-opacity="1" fill-rule="nonzero"/><path fill="#aab2bd" d="M 166.667969 350 L 175 350 L 175 325 L 170.832031 325 Z M 166.667969 350 " fill-opacity="1" fill-rule="nonzero"/><path fill="#656d78" d="M 18.75 62.5 L 31.25 62.5 L 31.25 75 L 18.75 75 Z M 18.75 62.5 " fill-opacity="1" fill-rule="nonzero"/><path fill="#656d78" d="M 43.75 62.5 L 56.25 62.5 L 56.25 75 L 43.75 75 Z M 43.75 62.5 " fill-opacity="1" fill-rule="nonzero"/><path fill="#656d78" d="M 68.75 62.5 L 81.25 62.5 L 81.25 75 L 68.75 75 Z M 68.75 62.5 " fill-opacity="1" fill-rule="nonzero"/><path fill="#656d78" d="M 45.117188 210.15625 L 17 175 L 45.117188 139.84375 L 54.882812 147.65625 L 33 175 L 54.882812 202.34375 Z M 45.117188 210.15625 " fill-opacity="1" fill-rule="nonzero"/><path fill="#656d78" d="M 117.382812 210.15625 L 107.617188 202.34375 L 129.5 175 L 107.617188 147.65625 L 117.382812 139.84375 L 145.5 175 Z M 117.382812 210.15625 " fill-opacity="1" fill-rule="nonzero"/><path fill="#656d78" d="M 62.960938 203.941406 L 87.941406 141.433594 L 99.546875 146.070312 L 74.566406 208.578125 Z M 62.960938 203.941406 " fill-opacity="1" fill-rule="nonzero"/></svg>