<svg xmlns="http://www.w3.org/2000/svg" xmlns:xlink="http://www.w3.org/1999/xlink" width="500" zoomAndPan="magnify" viewBox="0 0 375 374.999991" height="500" preserveAspectRatio="xMidYMid meet" version="1.0"><defs><clipPath id="7dac778960"><path d="M 222 29 L 364.53125 29 L 364.53125 172 L 222 172 Z M 222 29 " clip-rule="nonzero"/></clipPath></defs><path fill="#00a651" d="M 229.296875 36.285156 L 216.503906 57.363281 C 204.539062 50.5 192.699219 43.421875 180.523438 36.972656 C 178.125 35.703125 173.527344 35.570312 171.507812 37.054688 C 132.351562 65.730469 88.964844 80.710938 40.144531 78.742188 C 39.347656 78.710938 38.542969 78.902344 37.398438 79.027344 C 37.074219 79.898438 36.410156 80.847656 36.394531 81.8125 C 35.484375 138.488281 41.332031 193.949219 67.324219 245.476562 C 89.351562 289.144531 123.257812 320.105469 168.441406 338.824219 C 173.855469 341.066406 178.472656 341.058594 183.882812 338.726562 C 244.902344 312.460938 283.316406 266.433594 302.539062 203.492188 C 303.25 201.167969 303.953125 198.847656 304.765625 196.183594 C 308.695312 195.863281 312.726562 195.613281 316.742188 195.195312 C 320.464844 194.804688 324.167969 194.234375 328.839844 193.617188 C 323.648438 215.519531 316.152344 235.613281 306.347656 254.871094 C 279.328125 307.953125 237.417969 344.652344 182.558594 366.832031 C 178.800781 368.347656 173.394531 368.285156 169.585938 366.808594 C 96.640625 338.472656 51.808594 284.488281 29.148438 210.847656 C 14.074219 161.867188 10.535156 111.382812 11.324219 60.453125 C 11.335938 59.679688 11.632812 58.914062 11.863281 57.863281 C 24.816406 57.183594 37.71875 56.730469 50.589844 55.796875 C 94.179688 52.632812 133.242188 37.125 168.207031 11.300781 C 174.046875 6.984375 177.804688 6.996094 183.761719 10.605469 C 198.527344 19.550781 213.824219 27.632812 229.296875 36.285156 Z M 229.296875 36.285156 " fill-opacity="1" fill-rule="nonzero"/><path fill="#f7941d" d="M 203.992188 176.671875 C 203.1875 176.617188 202.382812 176.585938 201.402344 176.539062 C 201.351562 175.609375 201.285156 174.804688 201.265625 174.003906 C 201.039062 166.066406 201.125 158.105469 200.519531 150.195312 C 199.804688 140.882812 190.664062 132.101562 181.375 131.640625 C 174.355469 131.289062 167.308594 131.542969 160.273438 131.457031 C 150.097656 131.332031 139.015625 140.921875 139.035156 153.40625 C 139.046875 157.753906 138.910156 162.097656 138.871094 166.445312 C 138.839844 169.789062 138.867188 173.128906 138.867188 176.460938 C 136.75 176.667969 135.183594 176.742188 133.640625 176.992188 C 129.644531 177.640625 125.058594 182.203125 125.035156 185.976562 C 124.929688 202.382812 124.921875 218.789062 125.007812 235.195312 C 125.039062 239.777344 130.0625 244.429688 134.664062 244.4375 C 158.101562 244.476562 181.539062 244.472656 204.976562 244.425781 C 210.21875 244.414062 214.917969 239.921875 214.96875 234.621094 C 215.121094 219.039062 215.140625 203.457031 215.027344 187.871094 C 214.976562 181.378906 210.515625 177.128906 203.992188 176.671875 Z M 176.785156 207.625 C 175.152344 209.296875 174.660156 210.980469 174.695312 213.195312 C 174.769531 217.613281 174.707031 222.035156 174.511719 226.453125 C 174.394531 229.164062 173.738281 229.613281 171 229.667969 C 165.671875 229.777344 165.402344 229.535156 165.308594 224.25 C 165.273438 222.300781 165.300781 220.351562 165.300781 218.402344 L 165.25 218.402344 C 165.25 217.128906 165.214844 215.855469 165.257812 214.582031 C 165.347656 211.820312 165.164062 209.5 162.84375 207.179688 C 159.128906 203.460938 159.917969 197.636719 163.855469 194.164062 C 167.523438 190.925781 173.160156 191.132812 176.71875 194.632812 C 180.203125 198.058594 180.375 203.957031 176.785156 207.625 Z M 185.917969 176.5 L 153.605469 176.5 C 153.890625 168.269531 153.988281 160.203125 154.535156 152.164062 C 154.769531 148.679688 157.207031 146.636719 160.777344 146.574219 C 167.207031 146.460938 173.644531 146.601562 180.074219 146.835938 C 182.890625 146.941406 184.859375 148.777344 185.316406 151.542969 C 185.71875 153.96875 185.855469 156.457031 185.894531 158.917969 C 185.972656 164.683594 185.917969 170.441406 185.917969 176.5 Z M 185.917969 176.5 " fill-opacity="1" fill-rule="nonzero"/><g clip-path="url(#7dac778960)"><path fill="#f7941d" d="M 293.660156 29.894531 C 254.519531 29.894531 222.789062 61.648438 222.789062 100.820312 C 222.789062 139.988281 254.519531 171.742188 293.660156 171.742188 C 332.804688 171.742188 364.53125 139.988281 364.53125 100.820312 C 364.53125 61.648438 332.800781 29.894531 293.660156 29.894531 Z M 334.386719 82.921875 C 333.839844 83.65625 333.175781 84.308594 332.527344 84.960938 C 318.152344 99.355469 303.773438 113.75 289.382812 128.140625 C 284.328125 133.199219 280.144531 133.210938 275.121094 128.191406 C 268.007812 121.082031 260.898438 113.964844 253.792969 106.847656 C 251.425781 104.476562 250.582031 101.644531 251.511719 98.414062 C 252.421875 95.253906 254.628906 93.339844 257.804688 92.671875 C 260.9375 92.007812 263.5 93.210938 265.695312 95.410156 C 270.574219 100.304688 275.460938 105.191406 280.359375 110.066406 C 280.949219 110.65625 281.5625 111.214844 282.570312 112.171875 C 283.140625 111.390625 283.554688 110.628906 284.140625 110.042969 C 296.5 97.644531 308.867188 85.253906 321.242188 72.871094 C 322.976562 71.132812 324.859375 69.789062 327.417969 69.699219 C 330.886719 69.578125 333.5625 70.964844 335.164062 74.058594 C 336.753906 77.132812 336.464844 80.140625 334.386719 82.921875 Z M 334.386719 82.921875 " fill-opacity="1" fill-rule="nonzero"/></g></svg>