<svg xmlns="http://www.w3.org/2000/svg" xmlns:xlink="http://www.w3.org/1999/xlink" width="500" zoomAndPan="magnify" viewBox="0 0 375 374.999991" height="500" preserveAspectRatio="xMidYMid meet" version="1.0"><path fill="#000000" d="M 275.402344 121.019531 L 275.417969 121.019531 L 275.417969 120.960938 Z M 275.402344 121.019531 " fill-opacity="1" fill-rule="nonzero"/><path fill="#f2bb30" d="M 310.441406 268.546875 C 334.097656 268.546875 342.84375 252.046875 351.0625 227.316406 C 359.582031 201.847656 359.210938 177.339844 351.0625 144.714844 C 345.199219 121.21875 334.109375 103.484375 310.441406 103.484375 L 279.960938 103.484375 L 279.960938 139.5625 C 279.960938 167.542969 256.222656 191.128906 229.164062 191.128906 L 147.925781 191.128906 C 125.703125 191.128906 107.304688 210.136719 107.304688 232.425781 L 107.304688 309.859375 C 107.304688 331.910156 126.472656 344.84375 147.925781 351.160156 C 173.621094 358.6875 198.355469 360.050781 229.148438 351.160156 C 249.605469 345.226562 269.765625 333.273438 269.765625 309.859375 L 269.765625 278.894531 L 188.601562 278.894531 L 188.601562 268.558594 L 310.441406 268.558594 Z M 234.246094 299.511719 C 242.679688 299.511719 249.535156 306.4375 249.535156 314.957031 C 249.535156 323.5625 242.691406 330.476562 234.246094 330.476562 C 225.867188 330.476562 218.953125 323.476562 218.953125 314.957031 C 219.039062 306.355469 225.898438 299.511719 234.246094 299.511719 Z M 234.246094 299.511719 " fill-opacity="1" fill-rule="nonzero"/><path fill="#35668f" d="M 65.464844 268.558594 L 93.378906 268.558594 L 93.378906 231.433594 C 93.378906 204.585938 116.574219 180.917969 144.175781 180.917969 L 225.398438 180.917969 C 247.988281 180.917969 266.019531 162.292969 266.019531 139.617188 L 266.019531 62.128906 C 266.019531 40.078125 247.460938 23.554688 225.398438 19.847656 C 198.167969 15.347656 168.582031 15.601562 144.175781 19.933594 L 144.191406 19.917969 C 109.804688 25.996094 103.585938 38.6875 103.585938 62.183594 L 103.585938 93.148438 L 184.894531 93.148438 L 184.894531 103.5 L 73.074219 103.5 C 49.421875 103.5 28.722656 117.726562 22.277344 144.730469 C 14.820312 175.695312 14.523438 195.003906 22.277344 227.332031 C 28.039062 251.367188 41.824219 268.558594 65.464844 268.558594 Z M 139.09375 72.464844 C 130.660156 72.464844 123.800781 65.535156 123.800781 57.015625 C 123.902344 48.414062 130.660156 41.5 139.09375 41.5 C 147.46875 41.5 154.382812 48.484375 154.382812 57.015625 C 154.382812 65.550781 147.539062 72.464844 139.09375 72.464844 Z M 139.09375 72.464844 " fill-opacity="1" fill-rule="nonzero"/></svg>