<svg xmlns="http://www.w3.org/2000/svg" xmlns:xlink="http://www.w3.org/1999/xlink" width="500" zoomAndPan="magnify" viewBox="0 0 375 374.999991" height="500" preserveAspectRatio="xMidYMid meet" version="1.0"><defs><clipPath id="b0d03ff5c9"><path d="M 200 135 L 329.71875 135 L 329.71875 370 L 200 370 Z M 200 135 " clip-rule="nonzero"/></clipPath></defs><path fill="#311514" d="M 255.941406 153.441406 C 255.65625 142.625 255.375 131.898438 255.09375 121.078125 C 254.621094 102.453125 254.152344 83.824219 253.679688 65.195312 C 253.492188 57.105469 254.058594 48.921875 252.457031 40.832031 C 248.03125 17.5 226.191406 9.691406 207.457031 9.691406 C 198.324219 9.691406 188.628906 10.914062 180.816406 16.464844 C 171.589844 23.050781 168.671875 34.902344 168.105469 46.476562 C 167.636719 55.320312 167.636719 64.160156 167.351562 72.910156 C 166.882812 88.527344 166.507812 104.144531 166.035156 119.667969 C 166.035156 119.761719 166.035156 119.949219 166.035156 120.046875 C 166.035156 120.046875 165.375 141.496094 165.375 141.496094 C 165.375 141.496094 255.941406 153.441406 255.941406 153.441406 Z M 255.941406 153.441406 " fill-opacity="1" fill-rule="nonzero"/><path fill="#f8ab94" d="M 194.089844 106.214844 C 193.714844 107.4375 193.996094 145.824219 193.996094 145.824219 L 224.308594 146.011719 L 224.496094 93.515625 Z M 194.089844 106.214844 " fill-opacity="1" fill-rule="nonzero"/><path fill="#311514" d="M 192.960938 120.046875 L 219.226562 101.042969 L 192.960938 102.074219 Z M 192.960938 120.046875 " fill-opacity="1" fill-rule="nonzero"/><path fill="#f8ab94" d="M 185.617188 27.847656 C 179.214844 29.539062 174.789062 34.808594 172.71875 40.925781 C 171.496094 44.5 171.683594 47.980469 171.871094 51.742188 C 171.964844 54.753906 172.058594 57.859375 172.25 60.871094 C 172.4375 66.890625 172.71875 72.816406 172.90625 78.839844 C 172.90625 79.96875 173 81.097656 173 82.226562 C 173.097656 84.578125 173.847656 87.023438 174.695312 89.1875 C 180.0625 103.488281 197.667969 109.320312 211.601562 105.179688 C 221.203125 102.265625 229.296875 94.457031 232.3125 84.859375 C 232.59375 84.105469 232.78125 83.355469 232.875 82.507812 C 232.875 82.320312 233.0625 82.226562 233.253906 82.320312 C 241.253906 87.304688 249.351562 80.34375 250.667969 72.160156 C 251.140625 69.523438 250.949219 67.078125 250.199219 65.007812 C 249.066406 62 246.714844 59.835938 242.855469 58.707031 C 240.3125 57.953125 237.582031 57.859375 235.136719 58.800781 C 233.910156 59.269531 232.59375 59.929688 231.746094 60.964844 C 230.710938 62.28125 229.769531 63.972656 229.582031 64.445312 C 229.582031 64.539062 229.488281 64.539062 229.390625 64.539062 L 229.203125 64.539062 C 229.109375 64.726562 187.6875 46.476562 185.617188 27.847656 " fill-opacity="1" fill-rule="nonzero"/><path fill="#311514" d="M 207.738281 69.996094 C 207.738281 70.371094 207.667969 70.730469 207.523438 71.074219 C 207.382812 71.421875 207.175781 71.726562 206.914062 71.992188 C 206.648438 72.253906 206.34375 72.460938 205.996094 72.601562 C 205.652344 72.746094 205.289062 72.816406 204.914062 72.816406 C 204.542969 72.816406 204.179688 72.746094 203.835938 72.601562 C 203.488281 72.460938 203.183594 72.253906 202.917969 71.992188 C 202.652344 71.726562 202.449219 71.421875 202.304688 71.074219 C 202.164062 70.730469 202.089844 70.371094 202.089844 69.996094 C 202.089844 69.621094 202.164062 69.261719 202.304688 68.914062 C 202.449219 68.570312 202.652344 68.265625 202.917969 68 C 203.183594 67.734375 203.488281 67.53125 203.835938 67.386719 C 204.179688 67.246094 204.542969 67.171875 204.914062 67.171875 C 205.289062 67.171875 205.652344 67.246094 205.996094 67.386719 C 206.34375 67.53125 206.648438 67.734375 206.914062 68 C 207.175781 68.265625 207.382812 68.570312 207.523438 68.914062 C 207.667969 69.261719 207.738281 69.621094 207.738281 69.996094 Z M 207.738281 69.996094 " fill-opacity="1" fill-rule="nonzero"/><path fill="#311514" d="M 183.355469 69.996094 C 183.355469 70.371094 183.285156 70.730469 183.140625 71.074219 C 183 71.421875 182.796875 71.726562 182.53125 71.992188 C 182.265625 72.253906 181.960938 72.460938 181.613281 72.601562 C 181.269531 72.746094 180.90625 72.816406 180.53125 72.816406 C 180.160156 72.816406 179.796875 72.746094 179.453125 72.601562 C 179.105469 72.460938 178.800781 72.253906 178.535156 71.992188 C 178.269531 71.726562 178.066406 71.421875 177.925781 71.074219 C 177.78125 70.730469 177.707031 70.371094 177.707031 69.996094 C 177.707031 69.621094 177.78125 69.261719 177.925781 68.914062 C 178.066406 68.570312 178.269531 68.265625 178.535156 68 C 178.800781 67.734375 179.105469 67.53125 179.453125 67.386719 C 179.796875 67.246094 180.160156 67.171875 180.53125 67.171875 C 180.90625 67.171875 181.269531 67.246094 181.613281 67.386719 C 181.960938 67.53125 182.265625 67.734375 182.53125 68 C 182.796875 68.265625 183 68.570312 183.140625 68.914062 C 183.285156 69.261719 183.355469 69.621094 183.355469 69.996094 Z M 183.355469 69.996094 " fill-opacity="1" fill-rule="nonzero"/><path fill="#311514" d="M 187.6875 80.4375 C 187.3125 80.4375 186.839844 80.34375 186.464844 80.34375 C 186.371094 80.34375 186.085938 80.34375 185.898438 80.34375 C 185.898438 80.25 185.992188 80.15625 185.992188 80.0625 C 186.085938 79.777344 186.085938 79.496094 186.179688 79.214844 C 186.277344 78.648438 186.464844 78.085938 186.558594 77.617188 C 186.839844 76.488281 187.121094 75.453125 187.40625 74.324219 C 187.59375 73.476562 186.277344 73.097656 186.085938 73.945312 C 185.617188 75.734375 185.238281 77.519531 184.769531 79.214844 C 184.582031 79.875 184.015625 81.191406 185.050781 81.472656 C 185.429688 81.566406 185.898438 81.566406 186.371094 81.660156 L 187.6875 81.847656 C 188.0625 81.847656 188.347656 81.472656 188.347656 81.191406 C 188.347656 80.71875 188.066406 80.4375 187.6875 80.4375 Z M 187.6875 80.4375 " fill-opacity="1" fill-rule="nonzero"/><path fill="#311514" d="M 172.15625 60.773438 C 172.15625 60.773438 172.058594 60.773438 172.15625 60.773438 C 171.871094 60.964844 171.683594 61.246094 171.589844 61.527344 C 171.589844 61.808594 171.777344 62.09375 172.058594 62.28125 C 172.90625 62.84375 174.320312 62.9375 175.261719 63.03125 C 176.484375 63.222656 177.707031 63.222656 178.933594 63.222656 C 180.722656 63.222656 182.511719 63.03125 184.203125 62.375 C 184.488281 62.28125 184.675781 62.1875 184.957031 62 C 185.429688 61.527344 185.238281 60.871094 184.675781 60.585938 C 182.980469 59.644531 180.34375 59.644531 178.554688 59.644531 C 176.484375 59.550781 173.941406 59.742188 172.15625 60.773438 Z M 172.15625 60.773438 " fill-opacity="1" fill-rule="nonzero"/><path fill="#311514" d="M 200.019531 60.492188 C 199.644531 60.679688 199.457031 60.871094 199.457031 61.152344 C 199.457031 61.433594 199.644531 61.808594 199.925781 62 C 200.773438 62.65625 202.1875 62.84375 203.222656 63.03125 C 204.445312 63.316406 205.761719 63.410156 207.082031 63.410156 C 208.964844 63.503906 210.847656 63.503906 212.636719 62.9375 C 212.917969 62.84375 213.199219 62.75 213.386719 62.5625 C 213.953125 62.09375 213.765625 61.433594 213.199219 61.058594 C 211.503906 60.023438 208.777344 59.742188 206.796875 59.644531 C 204.632812 59.457031 201.996094 59.457031 200.019531 60.492188 Z M 200.019531 60.492188 " fill-opacity="1" fill-rule="nonzero"/><path fill="#311514" d="M 242.195312 62.65625 C 240.03125 63.878906 238.523438 65.949219 237.394531 68.113281 C 236.171875 70.746094 235.230469 73.570312 234.570312 76.390625 C 234.382812 77.144531 234.945312 77.519531 235.511719 77.519531 C 235.511719 77.519531 235.605469 77.519531 235.605469 77.519531 L 235.886719 77.519531 C 236.078125 77.519531 236.359375 77.425781 236.546875 77.238281 C 237.960938 75.828125 239.183594 74.230469 240.125 72.535156 C 240.59375 71.6875 240.972656 70.746094 240.878906 69.710938 C 240.785156 68.867188 240.40625 68.113281 239.75 67.738281 C 240.59375 66.324219 241.632812 65.101562 243.136719 64.257812 C 244.265625 63.691406 243.324219 62 242.195312 62.65625 Z M 242.195312 62.65625 " fill-opacity="1" fill-rule="nonzero"/><path fill="#7e2777" d="M 181.003906 133.6875 L 193.996094 127.476562 L 203.972656 144.035156 L 224.496094 127.289062 L 237.394531 135.757812 L 206.046875 218.265625 L 188.816406 214.78125 C 188.816406 214.6875 177.898438 137.355469 181.003906 133.6875 Z M 181.003906 133.6875 " fill-opacity="1" fill-rule="nonzero"/><g clip-path="url(#b0d03ff5c9)"><path fill="#f5a0b5" d="M 329.371094 291.550781 C 328.992188 288.542969 328.242188 285.53125 327.675781 282.425781 C 323.0625 259.46875 316.753906 236.796875 311.296875 214.03125 C 310.449219 210.359375 309.507812 206.691406 308.660156 203.023438 C 304.800781 187.125 297.738281 168.496094 285.125 157.394531 C 277.875 150.902344 267.425781 148.363281 258.578125 144.601562 C 252.175781 141.871094 245.679688 139.144531 239.277344 136.414062 L 237.394531 135.566406 L 208.679688 193.613281 C 208.679688 193.613281 200.867188 369.542969 200.304688 369.355469 C 200.304688 369.167969 275.425781 368.414062 275.425781 368.414062 L 261.683594 289.105469 C 261.683594 289.105469 299.246094 311.496094 299.246094 311.496094 C 306.210938 313.941406 314.96875 315.636719 321.558594 311.308594 C 325.792969 308.578125 328.148438 303.875 329.183594 299.078125 C 329.652344 296.632812 329.652344 294.09375 329.371094 291.550781 Z M 261.117188 259.847656 L 272.699219 213.371094 C 272.980469 212.148438 274.675781 212.054688 275.144531 213.183594 L 297.269531 271.230469 C 297.644531 272.265625 296.703125 273.207031 295.667969 272.828125 Z M 261.117188 259.847656 " fill-opacity="1" fill-rule="nonzero"/></g><path fill="#f5a0b5" d="M 181.003906 133.6875 L 149.5625 146.953125 C 149.5625 146.953125 135.628906 149.773438 131.484375 170.660156 L 197.195312 206.035156 Z M 181.003906 133.6875 " fill-opacity="1" fill-rule="nonzero"/><path fill="#f0a01f" d="M 234.945312 191.453125 C 234.945312 191.453125 219.601562 324.101562 239.089844 371.046875 C 239.089844 371.046875 113.882812 375 73.210938 336.238281 C 73.210938 336.238281 45.535156 197.753906 73.210938 106.496094 C 73.210938 106.496094 100.324219 183.265625 234.945312 191.453125 Z M 234.945312 191.453125 " fill-opacity="1" fill-rule="nonzero"/><path fill="#f8ab94" d="M 62.007812 167.179688 L 72.363281 180.160156 C 72.363281 180.160156 73.964844 183.832031 70.671875 184.675781 L 66.527344 182.703125 L 70.199219 186.371094 C 70.199219 186.371094 73.117188 189.382812 69.632812 192.582031 C 69.632812 192.582031 72.269531 197.191406 68.503906 198.976562 L 66.246094 198.976562 L 68.597656 201.800781 C 68.597656 201.800781 70.105469 205.375 66.808594 206.035156 L 56.738281 202.175781 C 56.738281 202.175781 54.382812 199.164062 56.738281 195.496094 C 56.738281 195.496094 51.277344 190.511719 56.359375 185.429688 C 56.359375 185.429688 53.628906 179.503906 58.242188 176.492188 C 58.242188 176.492188 53.535156 171.035156 57.867188 167.929688 C 58.054688 167.835938 59.75 166.425781 62.007812 167.179688 Z M 62.007812 167.179688 " fill-opacity="1" fill-rule="nonzero"/><path fill="#f0a01f" d="M 166.976562 44.78125 L 255.46875 44.78125 L 255.46875 40.078125 C 255.46875 17.96875 237.394531 0 214.988281 0 L 209.339844 0 C 185.898438 0 166.976562 18.816406 166.976562 41.960938 Z M 166.976562 44.78125 " fill-opacity="1" fill-rule="nonzero"/><path fill="#f0a01f" d="M 255.46875 44.125 L 255.28125 55.601562 L 165.660156 55.601562 C 163.023438 55.601562 161.515625 52.214844 163.117188 49.863281 L 167.164062 44.125 Z M 255.46875 44.125 " fill-opacity="1" fill-rule="nonzero"/><path fill="#311514" d="M 197.949219 3.855469 C 192.960938 12.324219 189.476562 21.542969 187.59375 31.140625 C 187.027344 33.867188 186.652344 36.503906 186.371094 39.230469 C 186.277344 39.890625 187.3125 39.890625 187.40625 39.230469 C 188.441406 29.636719 190.984375 20.226562 195.125 11.476562 C 196.253906 9.03125 197.574219 6.679688 198.890625 4.328125 C 199.171875 3.855469 198.324219 3.292969 197.949219 3.855469 Z M 197.949219 3.855469 " fill-opacity="1" fill-rule="nonzero"/><path fill="#311514" d="M 214.425781 1.222656 C 209.90625 10.914062 206.703125 21.167969 204.914062 31.609375 C 204.445312 34.527344 203.972656 37.539062 203.691406 40.453125 C 203.597656 41.113281 204.632812 41.113281 204.726562 40.453125 C 205.761719 30.011719 208.117188 19.757812 211.882812 9.878906 C 212.917969 7.054688 214.046875 4.328125 215.367188 1.597656 C 215.554688 1.128906 214.707031 0.660156 214.425781 1.222656 Z M 214.425781 1.222656 " fill-opacity="1" fill-rule="nonzero"/><path fill="#311514" d="M 252.550781 43.652344 L 169.425781 43.652344 C 168.765625 43.652344 168.765625 44.6875 169.425781 44.6875 L 252.550781 44.6875 C 253.210938 44.59375 253.210938 43.652344 252.550781 43.652344 Z M 252.550781 43.652344 " fill-opacity="1" fill-rule="nonzero"/><path fill="#311514" d="M 223.367188 162.570312 C 217.058594 156.265625 210.660156 149.960938 204.257812 143.847656 C 203.972656 143.566406 203.597656 143.847656 203.691406 144.128906 C 203.597656 144.128906 203.503906 144.128906 203.503906 144.222656 C 198.136719 148.832031 192.582031 153.253906 186.933594 157.394531 C 186.558594 157.675781 186.933594 158.335938 187.3125 158.054688 C 193.054688 153.820312 198.609375 149.398438 203.972656 144.789062 C 203.972656 144.789062 203.972656 144.695312 204.070312 144.695312 C 210.46875 150.714844 216.777344 156.925781 222.898438 163.132812 C 223.179688 163.414062 223.742188 162.851562 223.367188 162.570312 Z M 223.367188 162.570312 " fill-opacity="1" fill-rule="nonzero"/><path fill="#f5a0b5" d="M 195.878906 151.46875 L 199.457031 163.132812 L 194.558594 186.558594 L 209.71875 189.003906 L 205.105469 163.132812 L 211.128906 151.46875 L 203.972656 144.601562 Z M 195.878906 151.46875 " fill-opacity="1" fill-rule="nonzero"/><path fill="#311514" d="M 199.925781 163.511719 C 201.527344 163.511719 203.128906 163.511719 204.726562 163.511719 C 205.199219 163.511719 205.199219 162.757812 204.726562 162.757812 C 203.128906 162.757812 201.527344 162.757812 199.925781 162.757812 C 199.457031 162.757812 199.457031 163.511719 199.925781 163.511719 Z M 199.925781 163.511719 " fill-opacity="1" fill-rule="nonzero"/><path fill="#311514" d="M 59.375 177.902344 C 61.445312 179.222656 63.515625 180.539062 65.585938 181.761719 C 65.964844 182.042969 66.339844 181.386719 65.964844 181.101562 C 63.890625 179.785156 61.820312 178.46875 59.75 177.246094 C 59.375 176.964844 58.996094 177.621094 59.375 177.902344 Z M 59.375 177.902344 " fill-opacity="1" fill-rule="nonzero"/><path fill="#311514" d="M 58.148438 186.464844 C 61.539062 188.253906 64.832031 190.132812 68.222656 191.921875 C 68.597656 192.109375 68.976562 191.546875 68.597656 191.261719 C 65.210938 189.476562 61.914062 187.59375 58.527344 185.804688 C 58.148438 185.617188 57.773438 186.277344 58.148438 186.464844 Z M 58.148438 186.464844 " fill-opacity="1" fill-rule="nonzero"/><path fill="#311514" d="M 58.242188 195.871094 C 60.785156 196.8125 63.234375 197.753906 65.773438 198.789062 C 66.246094 198.976562 66.433594 198.226562 65.964844 198.035156 C 63.515625 197.003906 60.972656 196.0625 58.433594 195.121094 C 57.960938 195.027344 57.773438 195.683594 58.242188 195.871094 Z M 58.242188 195.871094 " fill-opacity="1" fill-rule="nonzero"/><path fill="#311514" d="M 236.921875 277.0625 C 243.984375 280.921875 251.515625 284.121094 258.765625 287.695312 C 260.554688 288.542969 262.34375 289.480469 264.035156 290.421875 C 264.414062 290.609375 264.789062 290.046875 264.414062 289.765625 C 257.351562 285.90625 249.820312 282.707031 242.574219 279.132812 C 240.785156 278.285156 238.996094 277.34375 237.300781 276.40625 C 236.828125 276.214844 236.453125 276.78125 236.921875 277.0625 Z M 236.921875 277.0625 " fill-opacity="1" fill-rule="nonzero"/><path fill="#311514" d="M 244.925781 252.980469 C 251.515625 255.894531 258.105469 258.90625 264.695312 261.917969 C 265.167969 262.105469 265.542969 261.445312 265.070312 261.257812 C 258.578125 258.152344 251.988281 255.238281 245.300781 252.320312 C 244.925781 252.226562 244.550781 252.789062 244.925781 252.980469 Z M 244.925781 252.980469 " fill-opacity="1" fill-rule="nonzero"/><path fill="#311514" d="M 244.644531 252.507812 C 242.289062 260.597656 239.277344 268.503906 236.734375 276.59375 C 236.640625 277.0625 237.300781 277.25 237.488281 276.78125 C 240.03125 268.691406 243.042969 260.789062 245.398438 252.695312 C 245.492188 252.226562 244.738281 252.039062 244.644531 252.507812 Z M 244.644531 252.507812 " fill-opacity="1" fill-rule="nonzero"/><path fill="#311514" d="M 202.1875 81.753906 C 200.585938 84.953125 197.382812 86.929688 194.183594 88.246094 C 193.808594 88.433594 193.523438 88.714844 193.714844 89.1875 C 193.808594 89.5625 194.277344 89.84375 194.65625 89.65625 C 198.230469 88.152344 201.808594 86.082031 203.597656 82.507812 C 203.878906 81.660156 202.5625 80.90625 202.1875 81.753906 Z M 202.1875 81.753906 " fill-opacity="1" fill-rule="nonzero"/><path fill="#f8ab94" d="M 243.984375 254.296875 L 237.394531 244.324219 L 231.085938 237.171875 L 230.710938 244.136719 L 217.625 237.171875 L 207.550781 231.625 L 201.621094 227.484375 C 201.621094 227.484375 197.195312 228.613281 199.738281 232 L 206.703125 238.867188 L 210.5625 242.066406 L 195.40625 232.753906 C 195.40625 232.753906 191.925781 232.375 192.394531 236.421875 C 192.394531 236.421875 188.160156 237.078125 189.664062 241.691406 L 196.539062 249.875 L 198.890625 252.039062 L 191.265625 247.050781 C 191.265625 247.050781 187.5 246.957031 189.289062 250.53125 L 201.808594 262.480469 C 201.808594 262.480469 219.507812 271.605469 222.898438 272.171875 C 226.285156 272.640625 237.488281 274.429688 237.488281 274.429688 L 243.984375 255.050781 " fill-opacity="1" fill-rule="nonzero"/><path fill="#311514" d="M 213.386719 250.34375 C 205.953125 246.394531 199.078125 241.5 192.867188 235.855469 C 192.488281 235.574219 192.019531 236.042969 192.300781 236.421875 C 198.609375 242.066406 205.480469 247.050781 212.917969 251.003906 C 213.484375 251.191406 213.859375 250.628906 213.386719 250.34375 Z M 213.386719 250.34375 " fill-opacity="1" fill-rule="nonzero"/><path fill="#311514" d="M 216.210938 244.417969 C 214.613281 243.664062 213.011719 242.820312 211.503906 241.972656 C 211.128906 241.691406 210.753906 242.347656 211.128906 242.628906 C 212.636719 243.476562 214.234375 244.324219 215.835938 245.078125 C 216.308594 245.265625 216.683594 244.605469 216.210938 244.417969 Z M 216.210938 244.417969 " fill-opacity="1" fill-rule="nonzero"/><path fill="#311514" d="M 208.398438 257.589844 C 205.292969 255.988281 202.28125 254.109375 199.363281 251.945312 C 198.984375 251.660156 198.609375 252.320312 198.984375 252.601562 C 201.808594 254.671875 204.820312 256.554688 208.023438 258.246094 C 208.492188 258.4375 208.871094 257.777344 208.398438 257.589844 Z M 208.398438 257.589844 " fill-opacity="1" fill-rule="nonzero"/><path fill="#311514" d="M 233.722656 268.40625 C 232.6875 268.691406 231.746094 268.878906 230.710938 269.160156 C 230.523438 269.160156 230.429688 269.441406 230.429688 269.632812 C 230.523438 269.820312 230.710938 269.914062 230.898438 269.914062 C 231.933594 269.632812 232.875 269.441406 233.910156 269.160156 C 234.097656 269.160156 234.195312 268.878906 234.195312 268.691406 C 234.195312 268.503906 233.910156 268.40625 233.722656 268.40625 Z M 233.722656 268.40625 " fill-opacity="1" fill-rule="nonzero"/><path fill="#311514" d="M 275.992188 214.5 C 274.203125 210.738281 272.507812 206.972656 270.71875 203.210938 C 270.53125 202.742188 269.875 203.117188 270.0625 203.585938 C 271.851562 207.351562 273.542969 211.113281 275.332031 214.878906 C 275.523438 215.253906 276.179688 214.878906 275.992188 214.5 Z M 275.992188 214.5 " fill-opacity="1" fill-rule="nonzero"/><path fill="#311514" d="M 311.296875 279.507812 C 307.339844 276.875 303.105469 274.804688 298.679688 273.113281 C 298.210938 272.925781 298.023438 273.675781 298.492188 273.863281 C 302.824219 275.464844 307.058594 277.628906 310.917969 280.167969 C 311.390625 280.449219 311.671875 279.792969 311.296875 279.507812 Z M 311.296875 279.507812 " fill-opacity="1" fill-rule="nonzero"/><path fill="#311514" d="M 263.09375 306.417969 C 252.738281 307.546875 242.289062 307.167969 232.027344 305.191406 C 231.558594 305.097656 231.371094 305.851562 231.839844 305.945312 C 242.101562 307.921875 252.644531 308.390625 263.09375 307.261719 C 263.566406 307.074219 263.566406 306.320312 263.09375 306.417969 Z M 263.09375 306.417969 " fill-opacity="1" fill-rule="nonzero"/><path fill="#f5a0b5" d="M 247.375 81.003906 C 246.808594 80.25 245.773438 81.285156 246.339844 82.039062 C 247.5625 83.542969 248.125 85.707031 247.65625 87.683594 C 247.183594 89.5625 245.867188 91.164062 244.078125 92.007812 C 240.5 93.703125 235.980469 91.351562 235.511719 87.398438 C 235.230469 85.234375 236.171875 83.070312 237.960938 81.753906 C 238.710938 81.191406 237.960938 79.96875 237.207031 80.4375 C 235.230469 81.847656 234.097656 84.105469 234.003906 86.457031 C 234.003906 88.90625 235.230469 91.070312 237.113281 92.480469 C 241.160156 95.492188 247.28125 93.515625 248.878906 88.714844 C 249.820312 86.175781 249.164062 83.167969 247.375 81.003906 Z M 247.375 81.003906 " fill-opacity="1" fill-rule="nonzero"/></svg>