<svg xmlns="http://www.w3.org/2000/svg" xmlns:xlink="http://www.w3.org/1999/xlink" width="500" zoomAndPan="magnify" viewBox="0 0 375 374.999991" height="500" preserveAspectRatio="xMidYMid meet" version="1.0"><defs><clipPath id="6fa964813e"><path d="M 8.105469 23.128906 L 366.605469 23.128906 L 366.605469 351.628906 L 8.105469 351.628906 Z M 8.105469 23.128906 " clip-rule="nonzero"/></clipPath></defs><g clip-path="url(#6fa964813e)"><path fill="#000000" d="M 314.265625 262.039062 C 309.789062 262.039062 306.800781 265.027344 306.800781 269.503906 L 306.800781 314.300781 C 306.800781 326.246094 296.351562 336.699219 284.40625 336.699219 L 45.515625 336.699219 C 33.570312 336.699219 23.117188 326.246094 23.117188 314.300781 L 23.117188 97.789062 L 306.800781 97.789062 L 306.800781 150.050781 C 306.800781 154.53125 309.789062 157.515625 314.265625 157.515625 C 318.746094 157.515625 321.734375 154.53125 321.734375 150.050781 L 321.734375 60.460938 C 321.734375 39.554688 305.308594 23.128906 284.40625 23.128906 L 45.515625 23.128906 C 24.609375 23.128906 8.1875 39.554688 8.1875 60.460938 L 8.1875 314.300781 C 8.1875 335.207031 24.609375 351.628906 45.515625 351.628906 L 284.40625 351.628906 C 305.308594 351.628906 321.734375 335.207031 321.734375 314.300781 L 321.734375 269.503906 C 321.734375 265.027344 318.746094 262.039062 314.265625 262.039062 Z M 105.238281 52.996094 C 109.714844 52.996094 112.703125 55.980469 112.703125 60.460938 C 112.703125 64.941406 109.714844 67.925781 105.238281 67.925781 C 100.757812 67.925781 97.769531 64.941406 97.769531 60.460938 C 97.769531 55.980469 100.757812 52.996094 105.238281 52.996094 Z M 75.375 52.996094 C 79.855469 52.996094 82.839844 55.980469 82.839844 60.460938 C 82.839844 64.941406 79.855469 67.925781 75.375 67.925781 C 70.894531 67.925781 67.910156 64.941406 67.910156 60.460938 C 67.910156 55.980469 70.894531 52.996094 75.375 52.996094 Z M 45.515625 52.996094 C 49.992188 52.996094 52.980469 55.980469 52.980469 60.460938 C 52.980469 64.941406 49.992188 67.925781 45.515625 67.925781 C 41.035156 67.925781 38.046875 64.941406 38.046875 60.460938 C 38.046875 55.980469 41.035156 52.996094 45.515625 52.996094 Z M 344.128906 172.449219 L 329.199219 172.449219 C 324.71875 172.449219 321.734375 175.433594 321.734375 179.914062 L 321.734375 239.640625 C 321.734375 244.121094 324.71875 247.109375 329.199219 247.109375 C 333.675781 247.109375 336.664062 244.121094 336.664062 239.640625 L 336.664062 217.246094 L 344.128906 217.246094 C 356.074219 217.246094 366.523438 206.792969 366.523438 194.847656 C 366.523438 182.902344 356.074219 172.449219 344.128906 172.449219 Z M 344.128906 202.3125 L 336.664062 202.3125 L 336.664062 187.378906 L 344.128906 187.378906 C 348.609375 187.378906 351.59375 190.367188 351.59375 194.847656 C 351.59375 199.324219 348.609375 202.3125 344.128906 202.3125 Z M 269.476562 172.449219 C 264.996094 172.449219 262.007812 175.433594 262.007812 179.914062 L 262.007812 239.640625 C 262.007812 244.121094 264.996094 247.109375 269.476562 247.109375 C 273.953125 247.109375 276.941406 244.121094 276.941406 239.640625 L 276.941406 217.246094 L 284.40625 217.246094 C 296.351562 217.246094 306.800781 206.792969 306.800781 194.847656 C 306.800781 182.902344 296.351562 172.449219 284.40625 172.449219 Z M 291.871094 194.847656 C 291.871094 199.324219 288.886719 202.3125 284.40625 202.3125 L 276.941406 202.3125 L 276.941406 187.378906 L 284.40625 187.378906 C 288.886719 187.378906 291.871094 190.367188 291.871094 194.847656 Z M 209.753906 176.929688 L 187.355469 236.65625 C 185.863281 241.136719 187.355469 244.121094 191.835938 245.613281 C 196.3125 247.109375 199.300781 245.613281 200.792969 241.136719 L 205.273438 230.683594 L 229.160156 230.683594 L 233.640625 241.136719 C 235.132812 244.121094 238.121094 245.613281 241.105469 245.613281 C 242.597656 245.613281 242.597656 245.613281 244.09375 245.613281 C 248.570312 244.121094 250.066406 239.640625 248.570312 236.65625 L 226.175781 176.929688 C 221.695312 170.957031 212.738281 170.957031 209.753906 176.929688 Z M 211.246094 217.246094 L 217.21875 200.820312 L 223.191406 217.246094 Z M 211.246094 217.246094 " fill-opacity="1" fill-rule="nonzero"/></g></svg>