<svg xmlns="http://www.w3.org/2000/svg" xmlns:xlink="http://www.w3.org/1999/xlink" width="500" zoomAndPan="magnify" viewBox="0 0 375 374.999991" height="500" preserveAspectRatio="xMidYMid meet" version="1.0"><defs><clipPath id="0b77f6a711"><path d="M 259 43.976562 L 297 43.976562 L 297 81 L 259 81 Z M 259 43.976562 " clip-rule="nonzero"/></clipPath><clipPath id="0eaef18766"><path d="M 149 316 L 237 316 L 237 331.226562 L 149 331.226562 Z M 149 316 " clip-rule="nonzero"/></clipPath></defs><path fill="#4590b0" d="M 271.148438 141.796875 L 284.476562 128.460938 L 276.328125 120.316406 C 276.34375 120.265625 276.367188 120.21875 276.402344 120.179688 L 287.648438 120.179688 L 287.648438 101.351562 L 276.316406 101.351562 C 276.316406 101.246094 276.222656 101.164062 276.191406 101.089844 L 284.042969 93.242188 L 270.714844 79.90625 L 262.875 87.761719 C 262.726562 87.679688 262.574219 87.609375 262.417969 87.550781 L 262.417969 76.710938 L 243.585938 76.710938 L 243.585938 87.59375 C 243.375 87.667969 243.207031 87.773438 243.015625 87.859375 L 235.511719 80.339844 L 222.1875 93.664062 L 229.878906 101.363281 C 229.828125 101.566406 229.757812 101.765625 229.667969 101.957031 L 219.003906 101.957031 L 219.003906 120.84375 L 230.089844 120.84375 C 230.164062 120.984375 230.226562 121.128906 230.28125 121.277344 L 222.628906 128.945312 L 235.945312 142.28125 L 243.96875 134.253906 L 244.230469 134.339844 L 244.230469 145.457031 L 263.085938 145.457031 L 263.085938 133.875 C 263.136719 133.875 263.171875 133.875 263.203125 133.875 Z M 241.632812 122.304688 C 241.257812 121.929688 240.902344 121.535156 240.566406 121.125 C 240.230469 120.714844 239.914062 120.289062 239.621094 119.847656 C 239.324219 119.40625 239.054688 118.949219 238.804688 118.480469 C 238.554688 118.015625 238.328125 117.535156 238.125 117.042969 C 237.921875 116.554688 237.746094 116.054688 237.589844 115.546875 C 237.4375 115.039062 237.308594 114.523438 237.207031 114.003906 C 237.101562 113.480469 237.027344 112.957031 236.972656 112.429688 C 236.921875 111.902344 236.898438 111.371094 236.898438 110.839844 C 236.898438 110.308594 236.921875 109.78125 236.976562 109.253906 C 237.027344 108.722656 237.105469 108.199219 237.210938 107.679688 C 237.3125 107.160156 237.441406 106.644531 237.597656 106.136719 C 237.75 105.628906 237.929688 105.128906 238.132812 104.640625 C 238.335938 104.148438 238.5625 103.667969 238.8125 103.203125 C 239.0625 102.734375 239.335938 102.277344 239.628906 101.839844 C 239.925781 101.398438 240.242188 100.972656 240.578125 100.5625 C 240.914062 100.152344 241.269531 99.757812 241.644531 99.382812 C 242.019531 99.007812 242.414062 98.652344 242.824219 98.316406 C 243.234375 97.976562 243.660156 97.664062 244.101562 97.367188 C 244.542969 97.074219 244.996094 96.800781 245.464844 96.550781 C 245.933594 96.300781 246.410156 96.074219 246.902344 95.871094 C 247.390625 95.667969 247.890625 95.488281 248.398438 95.335938 C 248.90625 95.179688 249.417969 95.050781 249.9375 94.949219 C 250.460938 94.84375 250.984375 94.765625 251.511719 94.714844 C 252.039062 94.664062 252.566406 94.636719 253.097656 94.636719 C 253.628906 94.636719 254.15625 94.664062 254.6875 94.714844 C 255.214844 94.765625 255.738281 94.84375 256.257812 94.949219 C 256.777344 95.050781 257.292969 95.179688 257.800781 95.335938 C 258.308594 95.488281 258.804688 95.667969 259.296875 95.871094 C 259.785156 96.074219 260.265625 96.300781 260.734375 96.550781 C 261.199219 96.800781 261.65625 97.074219 262.097656 97.367188 C 262.539062 97.664062 262.964844 97.976562 263.375 98.316406 C 263.78125 98.652344 264.175781 99.007812 264.550781 99.382812 C 264.925781 99.757812 265.28125 100.152344 265.617188 100.5625 C 265.957031 100.972656 266.269531 101.398438 266.566406 101.839844 C 266.859375 102.277344 267.132812 102.734375 267.382812 103.203125 C 267.632812 103.667969 267.859375 104.148438 268.0625 104.640625 C 268.265625 105.128906 268.445312 105.628906 268.601562 106.136719 C 268.753906 106.644531 268.882812 107.160156 268.988281 107.679688 C 269.089844 108.199219 269.167969 108.722656 269.222656 109.253906 C 269.273438 109.78125 269.300781 110.308594 269.300781 110.839844 C 269.300781 111.371094 269.273438 111.902344 269.222656 112.429688 C 269.171875 112.957031 269.09375 113.480469 268.992188 114.003906 C 268.886719 114.523438 268.757812 115.039062 268.605469 115.546875 C 268.453125 116.054688 268.273438 116.554688 268.070312 117.042969 C 267.867188 117.535156 267.644531 118.015625 267.394531 118.480469 C 267.144531 118.949219 266.871094 119.40625 266.578125 119.847656 C 266.28125 120.289062 265.96875 120.714844 265.632812 121.125 C 265.296875 121.535156 264.941406 121.929688 264.566406 122.304688 C 264.191406 122.679688 263.796875 123.039062 263.386719 123.375 C 262.976562 123.714844 262.550781 124.03125 262.109375 124.324219 C 261.667969 124.621094 261.210938 124.894531 260.742188 125.144531 C 260.277344 125.394531 259.796875 125.625 259.304688 125.828125 C 258.816406 126.03125 258.316406 126.210938 257.808594 126.363281 C 257.296875 126.519531 256.785156 126.648438 256.261719 126.75 C 255.742188 126.855469 255.21875 126.933594 254.6875 126.984375 C 254.160156 127.039062 253.628906 127.0625 253.097656 127.0625 C 252.566406 127.0625 252.039062 127.039062 251.507812 126.984375 C 250.980469 126.933594 250.453125 126.855469 249.933594 126.75 C 249.414062 126.648438 248.898438 126.519531 248.390625 126.363281 C 247.882812 126.210938 247.382812 126.03125 246.890625 125.828125 C 246.402344 125.625 245.921875 125.394531 245.453125 125.144531 C 244.984375 124.894531 244.53125 124.621094 244.089844 124.324219 C 243.644531 124.03125 243.21875 123.714844 242.808594 123.375 C 242.398438 123.039062 242.007812 122.679688 241.632812 122.304688 Z M 241.632812 122.304688 " fill-opacity="1" fill-rule="nonzero"/><g clip-path="url(#0b77f6a711)"><path fill="#4590b0" d="M 273.292969 80.71875 L 283.378906 80.71875 L 283.378906 74.554688 L 283.449219 74.554688 L 287.679688 78.785156 L 294.789062 71.65625 L 290.511719 67.425781 C 290.53125 67.375 290.550781 67.328125 290.5625 67.277344 L 296.492188 67.277344 L 296.492188 57.144531 L 290.5625 57.144531 C 290.535156 57.0625 290.503906 56.980469 290.46875 56.902344 L 294.558594 52.808594 L 287.433594 45.691406 L 283.3125 49.804688 C 283.214844 49.757812 283.113281 49.71875 283.007812 49.6875 L 283.007812 43.976562 L 272.925781 43.976562 L 272.925781 49.804688 C 272.820312 49.804688 272.734375 49.910156 272.628906 49.953125 L 268.601562 45.921875 L 261.511719 53.050781 L 265.738281 57.28125 C 265.714844 57.363281 265.6875 57.4375 265.652344 57.515625 L 259.820312 57.515625 L 259.820312 67.605469 L 265.886719 67.605469 C 265.902344 67.648438 265.925781 67.691406 265.949219 67.730469 L 261.722656 71.960938 L 268.84375 79.089844 L 273.210938 74.722656 L 273.273438 74.722656 Z M 269.5 62.179688 C 269.5 61.609375 269.558594 61.046875 269.667969 60.488281 C 269.78125 59.929688 269.945312 59.386719 270.164062 58.863281 C 270.382812 58.335938 270.648438 57.835938 270.964844 57.363281 C 271.28125 56.890625 271.640625 56.453125 272.042969 56.050781 C 272.445312 55.648438 272.882812 55.292969 273.355469 54.976562 C 273.832031 54.660156 274.328125 54.394531 274.855469 54.175781 C 275.378906 53.957031 275.921875 53.792969 276.480469 53.683594 C 277.039062 53.570312 277.601562 53.515625 278.171875 53.515625 C 278.738281 53.515625 279.300781 53.574219 279.859375 53.683594 C 280.417969 53.796875 280.960938 53.960938 281.484375 54.179688 C 282.011719 54.394531 282.507812 54.664062 282.980469 54.980469 C 283.453125 55.296875 283.890625 55.65625 284.292969 56.058594 C 284.695312 56.460938 285.054688 56.898438 285.371094 57.371094 C 285.6875 57.84375 285.953125 58.34375 286.171875 58.867188 C 286.390625 59.394531 286.554688 59.9375 286.664062 60.496094 C 286.777344 61.054688 286.832031 61.617188 286.832031 62.1875 C 286.832031 62.753906 286.777344 63.320312 286.667969 63.878906 C 286.554688 64.433594 286.390625 64.976562 286.175781 65.503906 C 285.957031 66.03125 285.691406 66.527344 285.375 67.003906 C 285.058594 67.476562 284.703125 67.914062 284.300781 68.316406 C 283.898438 68.71875 283.460938 69.078125 282.988281 69.394531 C 282.515625 69.710938 282.015625 69.980469 281.492188 70.199219 C 280.964844 70.417969 280.425781 70.582031 279.867188 70.695312 C 279.308594 70.804688 278.746094 70.859375 278.175781 70.863281 C 277.605469 70.863281 277.042969 70.808594 276.484375 70.695312 C 275.925781 70.585938 275.382812 70.421875 274.855469 70.203125 C 274.328125 69.984375 273.828125 69.71875 273.355469 69.402344 C 272.878906 69.085938 272.441406 68.726562 272.039062 68.320312 C 271.636719 67.917969 271.277344 67.480469 270.960938 67.003906 C 270.644531 66.53125 270.375 66.03125 270.15625 65.503906 C 269.941406 64.976562 269.777344 64.433594 269.664062 63.875 C 269.554688 63.3125 269.5 62.75 269.5 62.179688 Z M 269.5 62.179688 " fill-opacity="1" fill-rule="nonzero"/></g><path fill="#54c4d0" d="M 170.253906 277.332031 L 216.511719 277.332031 L 216.511719 329.3125 L 170.253906 329.3125 Z M 170.253906 277.332031 " fill-opacity="1" fill-rule="nonzero"/><path fill="#45a6af" d="M 170.253906 277.332031 L 216.511719 277.332031 L 216.511719 295.394531 L 170.253906 295.394531 Z M 170.253906 277.332031 " fill-opacity="1" fill-rule="nonzero"/><g clip-path="url(#0eaef18766)"><path fill="#45a6af" d="M 158.753906 316.714844 L 227.988281 316.714844 C 228.5625 316.714844 229.132812 316.773438 229.695312 316.886719 C 230.261719 316.996094 230.808594 317.164062 231.339844 317.382812 C 231.871094 317.605469 232.375 317.875 232.855469 318.195312 C 233.332031 318.515625 233.777344 318.878906 234.183594 319.285156 C 234.589844 319.691406 234.953125 320.132812 235.273438 320.613281 C 235.59375 321.09375 235.863281 321.597656 236.082031 322.128906 C 236.300781 322.660156 236.46875 323.210938 236.582031 323.773438 C 236.691406 324.339844 236.75 324.910156 236.75 325.484375 L 236.75 331.238281 L 149.980469 331.238281 L 149.980469 325.484375 C 149.980469 324.910156 150.039062 324.335938 150.152344 323.773438 C 150.261719 323.207031 150.429688 322.660156 150.648438 322.125 C 150.871094 321.59375 151.140625 321.089844 151.460938 320.609375 C 151.78125 320.132812 152.144531 319.6875 152.550781 319.28125 C 152.960938 318.875 153.402344 318.511719 153.882812 318.191406 C 154.359375 317.871094 154.867188 317.601562 155.398438 317.382812 C 155.929688 317.160156 156.476562 316.996094 157.042969 316.882812 C 157.609375 316.773438 158.179688 316.714844 158.753906 316.714844 Z M 158.753906 316.714844 " fill-opacity="1" fill-rule="nonzero"/></g><path fill="#45a6b0" d="M 73.464844 115.578125 L 313.285156 115.578125 C 313.839844 115.578125 314.390625 115.632812 314.9375 115.742188 C 315.480469 115.847656 316.011719 116.011719 316.523438 116.222656 C 317.039062 116.4375 317.527344 116.695312 317.988281 117.007812 C 318.449219 117.316406 318.878906 117.667969 319.273438 118.058594 C 319.664062 118.453125 320.015625 118.878906 320.324219 119.34375 C 320.632812 119.804688 320.894531 120.292969 321.105469 120.808594 C 321.320312 121.320312 321.480469 121.851562 321.589844 122.398438 C 321.695312 122.941406 321.75 123.492188 321.75 124.050781 L 321.75 274.84375 C 321.75 275.402344 321.695312 275.953125 321.589844 276.5 C 321.480469 277.042969 321.320312 277.574219 321.105469 278.085938 C 320.894531 278.601562 320.632812 279.089844 320.324219 279.550781 C 320.015625 280.015625 319.664062 280.441406 319.273438 280.835938 C 318.878906 281.230469 318.449219 281.582031 317.988281 281.890625 C 317.527344 282.199219 317.039062 282.460938 316.523438 282.671875 C 316.011719 282.886719 315.480469 283.046875 314.9375 283.152344 C 314.390625 283.261719 313.839844 283.316406 313.285156 283.316406 L 73.464844 283.316406 C 72.910156 283.316406 72.359375 283.261719 71.816406 283.152344 C 71.269531 283.046875 70.742188 282.886719 70.226562 282.671875 C 69.714844 282.460938 69.226562 282.199219 68.761719 281.890625 C 68.300781 281.582031 67.875 281.230469 67.480469 280.835938 C 67.085938 280.441406 66.738281 280.015625 66.429688 279.550781 C 66.117188 279.089844 65.859375 278.601562 65.644531 278.085938 C 65.433594 277.574219 65.273438 277.042969 65.164062 276.5 C 65.054688 275.953125 65 275.402344 65 274.84375 L 65 124.050781 C 65 123.492188 65.054688 122.941406 65.164062 122.398438 C 65.273438 121.851562 65.433594 121.320312 65.644531 120.808594 C 65.859375 120.292969 66.117188 119.804688 66.429688 119.34375 C 66.738281 118.878906 67.085938 118.453125 67.480469 118.058594 C 67.875 117.667969 68.300781 117.316406 68.761719 117.007812 C 69.226562 116.695312 69.714844 116.4375 70.226562 116.222656 C 70.742188 116.011719 71.269531 115.847656 71.816406 115.742188 C 72.359375 115.632812 72.910156 115.578125 73.464844 115.578125 Z M 73.464844 115.578125 " fill-opacity="1" fill-rule="nonzero"/><path fill="#ffffff" d="M 314.957031 125.792969 L 314.957031 273.101562 C 314.957031 273.554688 314.867188 273.988281 314.695312 274.40625 C 314.523438 274.824219 314.277344 275.195312 313.957031 275.515625 C 313.636719 275.835938 313.265625 276.082031 312.847656 276.257812 C 312.429688 276.429688 311.996094 276.515625 311.542969 276.515625 L 75.210938 276.515625 C 74.757812 276.515625 74.320312 276.429688 73.902344 276.257812 C 73.484375 276.082031 73.117188 275.835938 72.796875 275.515625 C 72.476562 275.195312 72.230469 274.824219 72.054688 274.40625 C 71.882812 273.988281 71.796875 273.554688 71.796875 273.101562 L 71.796875 125.792969 C 71.796875 125.34375 71.882812 124.90625 72.054688 124.488281 C 72.230469 124.070312 72.476562 123.699219 72.796875 123.378906 C 73.117188 123.058594 73.484375 122.8125 73.902344 122.640625 C 74.320312 122.464844 74.757812 122.378906 75.210938 122.378906 L 311.542969 122.378906 C 311.996094 122.378906 312.429688 122.464844 312.847656 122.640625 C 313.265625 122.8125 313.636719 123.058594 313.957031 123.378906 C 314.277344 123.699219 314.523438 124.070312 314.695312 124.488281 C 314.867188 124.90625 314.957031 125.34375 314.957031 125.792969 Z M 314.957031 125.792969 " fill-opacity="1" fill-rule="nonzero"/><path fill="#45a6af" d="M 11.664062 90.722656 L 126.710938 90.722656 C 127.019531 90.722656 127.316406 90.78125 127.601562 90.902344 C 127.886719 91.019531 128.136719 91.1875 128.355469 91.40625 C 128.574219 91.625 128.742188 91.875 128.859375 92.160156 C 128.976562 92.445312 129.035156 92.742188 129.035156 93.050781 L 129.035156 164.324219 C 129.035156 164.632812 128.976562 164.929688 128.859375 165.214844 C 128.742188 165.5 128.574219 165.75 128.355469 165.96875 C 128.136719 166.1875 127.886719 166.355469 127.601562 166.472656 C 127.316406 166.589844 127.019531 166.652344 126.710938 166.652344 L 11.664062 166.652344 C 11.355469 166.652344 11.058594 166.589844 10.773438 166.472656 C 10.488281 166.355469 10.234375 166.1875 10.019531 165.96875 C 9.800781 165.75 9.632812 165.5 9.515625 165.214844 C 9.394531 164.929688 9.335938 164.632812 9.335938 164.324219 L 9.335938 93.050781 C 9.335938 92.742188 9.394531 92.445312 9.515625 92.160156 C 9.632812 91.875 9.800781 91.625 10.019531 91.40625 C 10.234375 91.1875 10.488281 91.019531 10.773438 90.902344 C 11.058594 90.78125 11.355469 90.722656 11.664062 90.722656 Z M 11.664062 90.722656 " fill-opacity="1" fill-rule="nonzero"/><path fill="#ffffff" d="M 127.386719 98.742188 L 127.386719 162.886719 C 127.386719 163.128906 127.339844 163.363281 127.246094 163.589844 C 127.152344 163.816406 127.019531 164.015625 126.847656 164.1875 C 126.675781 164.359375 126.476562 164.492188 126.25 164.585938 C 126.027344 164.679688 125.792969 164.726562 125.546875 164.726562 L 12.824219 164.726562 C 12.582031 164.726562 12.347656 164.679688 12.121094 164.585938 C 11.894531 164.492188 11.695312 164.359375 11.523438 164.1875 C 11.351562 164.015625 11.21875 163.816406 11.125 163.589844 C 11.03125 163.363281 10.984375 163.128906 10.984375 162.886719 L 10.984375 98.742188 C 10.984375 98.496094 11.03125 98.261719 11.125 98.035156 C 11.21875 97.8125 11.351562 97.613281 11.523438 97.441406 C 11.695312 97.265625 11.894531 97.132812 12.121094 97.039062 C 12.347656 96.949219 12.582031 96.902344 12.824219 96.902344 L 125.546875 96.902344 C 125.792969 96.902344 126.027344 96.949219 126.25 97.039062 C 126.476562 97.132812 126.675781 97.265625 126.847656 97.441406 C 127.019531 97.613281 127.152344 97.8125 127.246094 98.035156 C 127.339844 98.261719 127.386719 98.496094 127.386719 98.742188 Z M 127.386719 98.742188 " fill-opacity="1" fill-rule="nonzero"/><path fill="#ffffff" d="M 126.605469 93.8125 C 126.605469 94.011719 126.566406 94.207031 126.488281 94.390625 C 126.414062 94.578125 126.304688 94.738281 126.160156 94.882812 C 126.019531 95.023438 125.855469 95.132812 125.671875 95.210938 C 125.488281 95.285156 125.292969 95.324219 125.09375 95.324219 C 124.894531 95.324219 124.699219 95.285156 124.515625 95.210938 C 124.328125 95.132812 124.167969 95.023438 124.023438 94.882812 C 123.882812 94.738281 123.773438 94.578125 123.695312 94.390625 C 123.621094 94.207031 123.582031 94.011719 123.582031 93.8125 C 123.582031 93.613281 123.621094 93.417969 123.695312 93.234375 C 123.773438 93.046875 123.882812 92.886719 124.023438 92.742188 C 124.167969 92.601562 124.328125 92.492188 124.515625 92.414062 C 124.699219 92.339844 124.894531 92.300781 125.09375 92.300781 C 125.292969 92.300781 125.488281 92.339844 125.671875 92.414062 C 125.855469 92.492188 126.019531 92.601562 126.160156 92.742188 C 126.304688 92.886719 126.414062 93.046875 126.488281 93.234375 C 126.566406 93.417969 126.605469 93.613281 126.605469 93.8125 Z M 126.605469 93.8125 " fill-opacity="1" fill-rule="nonzero"/><path fill="#ffffff" d="M 121.59375 93.8125 C 121.59375 94.011719 121.558594 94.207031 121.480469 94.390625 C 121.402344 94.578125 121.292969 94.738281 121.152344 94.882812 C 121.011719 95.023438 120.847656 95.132812 120.664062 95.210938 C 120.476562 95.285156 120.285156 95.324219 120.082031 95.324219 C 119.882812 95.324219 119.691406 95.285156 119.503906 95.210938 C 119.320312 95.132812 119.15625 95.023438 119.015625 94.882812 C 118.875 94.738281 118.765625 94.578125 118.6875 94.390625 C 118.609375 94.207031 118.574219 94.011719 118.574219 93.8125 C 118.574219 93.613281 118.609375 93.417969 118.6875 93.234375 C 118.765625 93.046875 118.875 92.886719 119.015625 92.742188 C 119.15625 92.601562 119.320312 92.492188 119.503906 92.414062 C 119.691406 92.339844 119.882812 92.300781 120.082031 92.300781 C 120.285156 92.300781 120.476562 92.339844 120.664062 92.414062 C 120.847656 92.492188 121.011719 92.601562 121.152344 92.742188 C 121.292969 92.886719 121.402344 93.046875 121.480469 93.234375 C 121.558594 93.417969 121.59375 93.613281 121.59375 93.8125 Z M 121.59375 93.8125 " fill-opacity="1" fill-rule="nonzero"/><path fill="#ffffff" d="M 116.597656 93.8125 C 116.597656 94.011719 116.558594 94.207031 116.480469 94.390625 C 116.40625 94.578125 116.296875 94.738281 116.152344 94.882812 C 116.011719 95.023438 115.847656 95.132812 115.664062 95.210938 C 115.476562 95.285156 115.285156 95.324219 115.085938 95.324219 C 114.882812 95.324219 114.691406 95.285156 114.507812 95.210938 C 114.320312 95.132812 114.15625 95.023438 114.015625 94.882812 C 113.875 94.738281 113.765625 94.578125 113.6875 94.390625 C 113.613281 94.207031 113.574219 94.011719 113.574219 93.8125 C 113.574219 93.613281 113.613281 93.417969 113.6875 93.234375 C 113.765625 93.046875 113.875 92.886719 114.015625 92.742188 C 114.15625 92.601562 114.320312 92.492188 114.507812 92.414062 C 114.691406 92.339844 114.882812 92.300781 115.085938 92.300781 C 115.285156 92.300781 115.476562 92.339844 115.660156 92.417969 C 115.847656 92.496094 116.007812 92.605469 116.152344 92.746094 C 116.292969 92.886719 116.402344 93.050781 116.476562 93.234375 C 116.554688 93.417969 116.59375 93.613281 116.597656 93.8125 Z M 116.597656 93.8125 " fill-opacity="1" fill-rule="nonzero"/><path fill="#4590af" d="M 27.410156 109.042969 C 27.40625 109.445312 27.363281 109.84375 27.285156 110.238281 C 27.203125 110.628906 27.082031 111.011719 26.925781 111.382812 C 26.769531 111.753906 26.582031 112.105469 26.355469 112.441406 C 26.128906 112.773438 25.875 113.082031 25.585938 113.363281 C 25.300781 113.644531 24.992188 113.898438 24.65625 114.121094 C 24.320312 114.339844 23.964844 114.527344 23.59375 114.679688 C 23.222656 114.832031 22.835938 114.945312 22.441406 115.023438 C 22.046875 115.097656 21.648438 115.136719 21.246094 115.132812 C 20.847656 115.132812 20.449219 115.089844 20.054688 115.011719 C 19.660156 114.929688 19.277344 114.8125 18.90625 114.65625 C 18.535156 114.5 18.183594 114.308594 17.851562 114.085938 C 17.519531 113.859375 17.210938 113.605469 16.925781 113.320312 C 16.644531 113.03125 16.390625 112.722656 16.167969 112.386719 C 15.945312 112.050781 15.761719 111.699219 15.609375 111.324219 C 15.453125 110.953125 15.339844 110.570312 15.261719 110.175781 C 15.1875 109.78125 15.148438 109.382812 15.148438 108.980469 C 15.152344 108.578125 15.191406 108.179688 15.273438 107.785156 C 15.351562 107.390625 15.46875 107.007812 15.625 106.636719 C 15.777344 106.265625 15.96875 105.910156 16.191406 105.578125 C 16.417969 105.242188 16.671875 104.933594 16.957031 104.652344 C 17.242188 104.367188 17.550781 104.113281 17.886719 103.890625 C 18.222656 103.667969 18.574219 103.480469 18.945312 103.328125 C 19.316406 103.175781 19.699219 103.058594 20.09375 102.980469 C 20.488281 102.902344 20.886719 102.863281 21.289062 102.867188 C 21.695312 102.867188 22.09375 102.90625 22.488281 102.988281 C 22.886719 103.066406 23.269531 103.183594 23.640625 103.339844 C 24.015625 103.496094 24.367188 103.6875 24.703125 103.910156 C 25.039062 104.136719 25.347656 104.394531 25.632812 104.679688 C 25.917969 104.96875 26.171875 105.28125 26.394531 105.617188 C 26.617188 105.953125 26.804688 106.308594 26.957031 106.683594 C 27.109375 107.058594 27.222656 107.445312 27.300781 107.839844 C 27.375 108.238281 27.410156 108.636719 27.410156 109.042969 Z M 27.410156 109.042969 " fill-opacity="1" fill-rule="nonzero"/><path fill="#d5d4eb" d="M 30.21875 102.949219 L 121.605469 102.949219 L 121.605469 105.847656 L 30.21875 105.847656 Z M 30.21875 102.949219 " fill-opacity="1" fill-rule="nonzero"/><path fill="#d5d4eb" d="M 30.21875 107.582031 L 92.414062 107.582031 L 92.414062 110.480469 L 30.21875 110.480469 Z M 30.21875 107.582031 " fill-opacity="1" fill-rule="nonzero"/><path fill="#d5d4eb" d="M 30.21875 112.511719 L 62.558594 112.511719 L 62.558594 115.410156 L 30.21875 115.410156 Z M 30.21875 112.511719 " fill-opacity="1" fill-rule="nonzero"/><path fill="#4590af" d="M 27.410156 128.566406 C 27.410156 128.96875 27.371094 129.367188 27.292969 129.761719 C 27.214844 130.160156 27.097656 130.542969 26.945312 130.914062 C 26.792969 131.289062 26.605469 131.640625 26.378906 131.976562 C 26.15625 132.3125 25.902344 132.625 25.617188 132.910156 C 25.335938 133.195312 25.023438 133.449219 24.691406 133.671875 C 24.355469 133.898438 24.003906 134.085938 23.628906 134.242188 C 23.257812 134.394531 22.875 134.511719 22.480469 134.59375 C 22.085938 134.671875 21.6875 134.710938 21.28125 134.710938 C 20.878906 134.710938 20.480469 134.671875 20.085938 134.59375 C 19.691406 134.515625 19.308594 134.398438 18.933594 134.246094 C 18.5625 134.089844 18.210938 133.902344 17.875 133.675781 C 17.539062 133.453125 17.230469 133.199219 16.945312 132.914062 C 16.660156 132.628906 16.40625 132.320312 16.183594 131.984375 C 15.957031 131.648438 15.769531 131.292969 15.617188 130.921875 C 15.460938 130.550781 15.34375 130.164062 15.265625 129.769531 C 15.1875 129.375 15.148438 128.976562 15.148438 128.574219 C 15.148438 128.167969 15.191406 127.769531 15.269531 127.375 C 15.347656 126.980469 15.464844 126.597656 15.617188 126.222656 C 15.773438 125.851562 15.960938 125.5 16.1875 125.164062 C 16.410156 124.828125 16.664062 124.519531 16.949219 124.234375 C 17.234375 123.949219 17.546875 123.695312 17.878906 123.472656 C 18.214844 123.25 18.570312 123.058594 18.941406 122.90625 C 19.3125 122.753906 19.699219 122.636719 20.09375 122.558594 C 20.488281 122.480469 20.886719 122.441406 21.289062 122.441406 C 21.691406 122.441406 22.089844 122.480469 22.484375 122.558594 C 22.878906 122.636719 23.261719 122.753906 23.632812 122.910156 C 24.003906 123.0625 24.355469 123.25 24.691406 123.472656 C 25.023438 123.699219 25.332031 123.953125 25.617188 124.234375 C 25.902344 124.519531 26.15625 124.828125 26.378906 125.164062 C 26.601562 125.496094 26.789062 125.851562 26.941406 126.222656 C 27.097656 126.59375 27.214844 126.976562 27.292969 127.371094 C 27.371094 127.765625 27.410156 128.164062 27.410156 128.566406 Z M 27.410156 128.566406 " fill-opacity="1" fill-rule="nonzero"/><path fill="#d5d4eb" d="M 30.21875 122.484375 L 121.605469 122.484375 L 121.605469 125.382812 L 30.21875 125.382812 Z M 30.21875 122.484375 " fill-opacity="1" fill-rule="nonzero"/><path fill="#d5d4eb" d="M 30.21875 127.117188 L 92.414062 127.117188 L 92.414062 130.015625 L 30.21875 130.015625 Z M 30.21875 127.117188 " fill-opacity="1" fill-rule="nonzero"/><path fill="#d5d4eb" d="M 30.21875 132.035156 L 62.558594 132.035156 L 62.558594 134.933594 L 30.21875 134.933594 Z M 30.21875 132.035156 " fill-opacity="1" fill-rule="nonzero"/><path fill="#4590af" d="M 27.410156 148.101562 C 27.410156 148.503906 27.375 148.902344 27.296875 149.300781 C 27.21875 149.695312 27.105469 150.078125 26.953125 150.453125 C 26.800781 150.828125 26.613281 151.179688 26.390625 151.519531 C 26.167969 151.855469 25.914062 152.164062 25.632812 152.453125 C 25.347656 152.738281 25.039062 152.992188 24.703125 153.21875 C 24.371094 153.445312 24.015625 153.636719 23.644531 153.789062 C 23.273438 153.945312 22.890625 154.0625 22.496094 154.144531 C 22.097656 154.222656 21.699219 154.265625 21.296875 154.265625 C 20.894531 154.265625 20.496094 154.230469 20.097656 154.152344 C 19.703125 154.074219 19.320312 153.957031 18.945312 153.804688 C 18.574219 153.652344 18.21875 153.460938 17.882812 153.238281 C 17.546875 153.015625 17.238281 152.761719 16.953125 152.476562 C 16.667969 152.191406 16.414062 151.882812 16.1875 151.546875 C 15.964844 151.210938 15.773438 150.859375 15.621094 150.484375 C 15.464844 150.113281 15.347656 149.730469 15.269531 149.332031 C 15.191406 148.9375 15.148438 148.539062 15.148438 148.136719 C 15.148438 147.730469 15.1875 147.332031 15.265625 146.9375 C 15.347656 146.542969 15.460938 146.15625 15.617188 145.785156 C 15.769531 145.410156 15.960938 145.058594 16.183594 144.722656 C 16.40625 144.386719 16.664062 144.078125 16.949219 143.792969 C 17.234375 143.507812 17.542969 143.253906 17.878906 143.027344 C 18.214844 142.804688 18.566406 142.617188 18.941406 142.460938 C 19.3125 142.308594 19.695312 142.191406 20.09375 142.113281 C 20.488281 142.035156 20.886719 141.996094 21.289062 141.996094 C 21.691406 142 22.085938 142.039062 22.480469 142.117188 C 22.875 142.195312 23.253906 142.3125 23.625 142.464844 C 23.996094 142.617188 24.347656 142.804688 24.679688 143.027344 C 25.015625 143.25 25.324219 143.503906 25.605469 143.785156 C 25.890625 144.070312 26.144531 144.378906 26.367188 144.710938 C 26.589844 145.042969 26.78125 145.394531 26.933594 145.765625 C 27.089844 146.136719 27.207031 146.515625 27.285156 146.910156 C 27.367188 147.300781 27.40625 147.699219 27.410156 148.101562 Z M 27.410156 148.101562 " fill-opacity="1" fill-rule="nonzero"/><path fill="#d5d4eb" d="M 30.21875 142.007812 L 121.605469 142.007812 L 121.605469 144.90625 L 30.21875 144.90625 Z M 30.21875 142.007812 " fill-opacity="1" fill-rule="nonzero"/><path fill="#d5d4eb" d="M 30.21875 146.652344 L 92.414062 146.652344 L 92.414062 149.550781 L 30.21875 149.550781 Z M 30.21875 146.652344 " fill-opacity="1" fill-rule="nonzero"/><path fill="#d5d4eb" d="M 30.21875 151.570312 L 62.558594 151.570312 L 62.558594 154.46875 L 30.21875 154.46875 Z M 30.21875 151.570312 " fill-opacity="1" fill-rule="nonzero"/><path stroke-linecap="butt" transform="matrix(1.056845, 0, 0, 1.057621, 0.174258, 43.977268)" fill="none" stroke-linejoin="miter" d="M 2.440896 38.041653 L 127.300324 38.041653 L 127.300324 122.839094 L 2.440896 122.839094 Z M 2.440896 38.041653 " stroke="#4590b1" stroke-width="1" stroke-opacity="1" stroke-miterlimit="10"/><path fill="#45a6af" d="M 0.175781 81.617188 L 5.34375 81.617188 L 5.34375 86.789062 L 0.175781 86.789062 Z M 0.175781 81.617188 " fill-opacity="1" fill-rule="nonzero"/><path fill="#45a6af" d="M 0.175781 171.304688 L 5.34375 171.304688 L 5.34375 176.476562 L 0.175781 176.476562 Z M 0.175781 171.304688 " fill-opacity="1" fill-rule="nonzero"/><path fill="#45a6af" d="M 132.132812 81.617188 L 137.300781 81.617188 L 137.300781 86.789062 L 132.132812 86.789062 Z M 132.132812 81.617188 " fill-opacity="1" fill-rule="nonzero"/><path fill="#38356e" d="M 132.132812 171.304688 L 137.300781 171.304688 L 137.300781 176.476562 L 132.132812 176.476562 Z M 132.132812 171.304688 " fill-opacity="1" fill-rule="nonzero"/><path fill="#45a6af" d="M 277.914062 239.964844 L 365.578125 239.964844 C 365.886719 239.964844 366.183594 240.023438 366.46875 240.140625 C 366.753906 240.261719 367.003906 240.429688 367.222656 240.648438 C 367.441406 240.863281 367.609375 241.117188 367.726562 241.402344 C 367.84375 241.6875 367.902344 241.984375 367.902344 242.292969 L 367.902344 301.804688 C 367.902344 302.113281 367.84375 302.410156 367.726562 302.695312 C 367.609375 302.980469 367.441406 303.230469 367.222656 303.449219 C 367.003906 303.667969 366.753906 303.835938 366.46875 303.953125 C 366.183594 304.070312 365.886719 304.132812 365.578125 304.132812 L 277.914062 304.132812 C 277.605469 304.132812 277.308594 304.070312 277.023438 303.953125 C 276.738281 303.835938 276.488281 303.667969 276.269531 303.449219 C 276.050781 303.230469 275.882812 302.980469 275.765625 302.695312 C 275.648438 302.410156 275.589844 302.113281 275.589844 301.804688 L 275.589844 242.292969 C 275.589844 241.984375 275.648438 241.6875 275.765625 241.402344 C 275.882812 241.117188 276.050781 240.863281 276.269531 240.648438 C 276.488281 240.429688 276.738281 240.261719 277.023438 240.140625 C 277.308594 240.023438 277.605469 239.964844 277.914062 239.964844 Z M 277.914062 239.964844 " fill-opacity="1" fill-rule="nonzero"/><path fill="#ffffff" d="M 366.519531 246.660156 L 366.519531 301.023438 C 366.519531 301.21875 366.480469 301.40625 366.40625 301.589844 C 366.332031 301.769531 366.222656 301.929688 366.085938 302.070312 C 365.945312 302.207031 365.785156 302.3125 365.605469 302.390625 C 365.425781 302.464844 365.234375 302.503906 365.039062 302.503906 L 278.472656 302.503906 C 278.277344 302.503906 278.089844 302.464844 277.90625 302.390625 C 277.726562 302.3125 277.566406 302.207031 277.425781 302.070312 C 277.289062 301.929688 277.179688 301.769531 277.105469 301.589844 C 277.03125 301.40625 276.992188 301.21875 276.992188 301.023438 L 276.992188 246.660156 C 276.992188 246.464844 277.03125 246.273438 277.105469 246.09375 C 277.179688 245.910156 277.289062 245.75 277.425781 245.613281 C 277.566406 245.472656 277.726562 245.367188 277.90625 245.292969 C 278.089844 245.214844 278.277344 245.179688 278.472656 245.179688 L 365.039062 245.179688 C 365.234375 245.179688 365.425781 245.214844 365.605469 245.292969 C 365.785156 245.367188 365.945312 245.472656 366.085938 245.613281 C 366.222656 245.75 366.332031 245.910156 366.40625 246.09375 C 366.480469 246.273438 366.519531 246.464844 366.519531 246.660156 Z M 366.519531 246.660156 " fill-opacity="1" fill-rule="nonzero"/><path fill="#ffffff" d="M 365.863281 242.578125 C 365.863281 242.746094 365.832031 242.910156 365.765625 243.066406 C 365.703125 243.222656 365.609375 243.363281 365.488281 243.480469 C 365.371094 243.601562 365.230469 243.695312 365.074219 243.757812 C 364.917969 243.824219 364.753906 243.855469 364.585938 243.855469 C 364.414062 243.855469 364.253906 243.824219 364.09375 243.757812 C 363.9375 243.695312 363.800781 243.601562 363.679688 243.480469 C 363.5625 243.363281 363.46875 243.222656 363.402344 243.066406 C 363.339844 242.910156 363.304688 242.746094 363.304688 242.578125 C 363.304688 242.40625 363.339844 242.246094 363.402344 242.085938 C 363.46875 241.929688 363.5625 241.792969 363.679688 241.671875 C 363.800781 241.550781 363.9375 241.460938 364.09375 241.394531 C 364.253906 241.332031 364.414062 241.296875 364.585938 241.296875 C 364.753906 241.300781 364.917969 241.332031 365.074219 241.398438 C 365.230469 241.464844 365.367188 241.554688 365.484375 241.675781 C 365.605469 241.796875 365.699219 241.933594 365.761719 242.089844 C 365.828125 242.246094 365.863281 242.40625 365.863281 242.578125 Z M 365.863281 242.578125 " fill-opacity="1" fill-rule="nonzero"/><path fill="#ffffff" d="M 361.636719 242.578125 C 361.636719 242.75 361.605469 242.914062 361.542969 243.074219 C 361.476562 243.234375 361.382812 243.375 361.261719 243.496094 C 361.144531 243.617188 361.003906 243.710938 360.84375 243.777344 C 360.6875 243.84375 360.523438 243.878906 360.351562 243.878906 C 360.179688 243.878906 360.015625 243.847656 359.855469 243.78125 C 359.695312 243.714844 359.554688 243.621094 359.433594 243.5 C 359.3125 243.378906 359.21875 243.238281 359.15625 243.082031 C 359.089844 242.921875 359.058594 242.757812 359.058594 242.585938 C 359.058594 242.414062 359.089844 242.246094 359.15625 242.089844 C 359.222656 241.929688 359.316406 241.792969 359.441406 241.671875 C 359.5625 241.550781 359.703125 241.457031 359.863281 241.390625 C 360.019531 241.328125 360.1875 241.296875 360.359375 241.296875 C 360.527344 241.300781 360.6875 241.332031 360.84375 241.398438 C 361 241.464844 361.140625 241.554688 361.257812 241.675781 C 361.378906 241.796875 361.472656 241.933594 361.535156 242.089844 C 361.601562 242.246094 361.636719 242.40625 361.636719 242.578125 Z M 361.636719 242.578125 " fill-opacity="1" fill-rule="nonzero"/><path fill="#ffffff" d="M 357.398438 242.578125 C 357.398438 242.746094 357.367188 242.910156 357.300781 243.066406 C 357.234375 243.222656 357.144531 243.363281 357.023438 243.480469 C 356.902344 243.601562 356.765625 243.695312 356.609375 243.757812 C 356.453125 243.824219 356.289062 243.855469 356.121094 243.855469 C 355.949219 243.855469 355.785156 243.824219 355.628906 243.757812 C 355.472656 243.695312 355.335938 243.601562 355.214844 243.480469 C 355.09375 243.363281 355.003906 243.222656 354.9375 243.066406 C 354.875 242.910156 354.839844 242.746094 354.839844 242.578125 C 354.839844 242.40625 354.875 242.246094 354.9375 242.085938 C 355.003906 241.929688 355.09375 241.792969 355.214844 241.671875 C 355.335938 241.550781 355.472656 241.460938 355.628906 241.394531 C 355.785156 241.332031 355.949219 241.296875 356.121094 241.296875 C 356.289062 241.300781 356.453125 241.332031 356.605469 241.398438 C 356.761719 241.464844 356.902344 241.554688 357.019531 241.675781 C 357.140625 241.796875 357.234375 241.933594 357.296875 242.089844 C 357.363281 242.246094 357.398438 242.40625 357.398438 242.578125 Z M 357.398438 242.578125 " fill-opacity="1" fill-rule="nonzero"/><path fill="#4590b0" d="M 325.03125 260.960938 C 325.875 261.175781 326.695312 261.46875 327.480469 261.847656 C 328.269531 262.222656 329.015625 262.671875 329.714844 263.195312 C 330.414062 263.714844 331.054688 264.300781 331.640625 264.953125 C 332.222656 265.601562 332.738281 266.300781 333.183594 267.050781 C 333.632812 267.800781 334 268.589844 334.292969 269.414062 C 334.582031 270.234375 334.792969 271.078125 334.917969 271.945312 C 335.042969 272.808594 335.082031 273.675781 335.039062 274.550781 C 334.992188 275.421875 334.863281 276.28125 334.648438 277.128906 C 334.433594 277.976562 334.136719 278.792969 333.761719 279.582031 C 333.386719 280.371094 332.9375 281.113281 332.414062 281.8125 C 331.890625 282.515625 331.308594 283.15625 330.660156 283.742188 C 330.007812 284.328125 329.308594 284.84375 328.558594 285.289062 C 327.808594 285.734375 327.023438 286.105469 326.199219 286.398438 C 325.378906 286.6875 324.535156 286.898438 323.671875 287.023438 C 322.804688 287.148438 321.9375 287.1875 321.066406 287.140625 C 320.195312 287.097656 319.335938 286.964844 318.488281 286.75 C 317.644531 286.535156 316.828125 286.242188 316.039062 285.867188 C 315.25 285.488281 314.507812 285.039062 313.808594 284.519531 C 313.109375 283.996094 312.464844 283.410156 311.882812 282.761719 C 311.296875 282.109375 310.78125 281.410156 310.335938 280.660156 C 309.890625 279.910156 309.519531 279.121094 309.230469 278.300781 C 308.9375 277.476562 308.730469 276.632812 308.601562 275.765625 C 308.476562 274.902344 308.4375 274.035156 308.484375 273.160156 C 308.527344 272.289062 308.660156 271.429688 308.875 270.582031 C 309.089844 269.734375 309.382812 268.917969 309.757812 268.128906 C 310.136719 267.339844 310.585938 266.597656 311.105469 265.898438 C 311.628906 265.195312 312.214844 264.554688 312.863281 263.96875 C 313.511719 263.386719 314.210938 262.871094 314.960938 262.421875 C 315.710938 261.976562 316.496094 261.605469 317.320312 261.316406 C 318.144531 261.023438 318.988281 260.8125 319.851562 260.6875 C 320.714844 260.5625 321.582031 260.523438 322.453125 260.570312 C 323.324219 260.613281 324.183594 260.746094 325.03125 260.960938 Z M 325.03125 260.960938 " fill-opacity="1" fill-rule="nonzero"/><path fill="#ffffff" d="M 329.53125 273.839844 L 323.367188 277.40625 L 317.21875 280.957031 L 317.21875 266.734375 L 323.367188 270.289062 Z M 329.53125 273.839844 " fill-opacity="1" fill-rule="nonzero"/><path fill="#d5d4eb" d="M 276.984375 296.496094 L 366.507812 296.496094 L 366.507812 298.261719 L 276.984375 298.261719 Z M 276.984375 296.496094 " fill-opacity="1" fill-rule="nonzero"/><path fill="#4590b0" d="M 276.984375 296.496094 L 297.148438 296.496094 L 297.148438 298.261719 L 276.984375 298.261719 Z M 276.984375 296.496094 " fill-opacity="1" fill-rule="nonzero"/><path fill="#4590b0" d="M 298.511719 297.382812 C 298.511719 297.5625 298.476562 297.734375 298.40625 297.902344 C 298.339844 298.066406 298.242188 298.214844 298.113281 298.339844 C 297.988281 298.46875 297.839844 298.566406 297.675781 298.632812 C 297.511719 298.703125 297.335938 298.738281 297.160156 298.738281 C 296.980469 298.738281 296.804688 298.703125 296.640625 298.632812 C 296.476562 298.566406 296.328125 298.46875 296.203125 298.339844 C 296.074219 298.214844 295.976562 298.066406 295.910156 297.902344 C 295.839844 297.734375 295.804688 297.5625 295.804688 297.382812 C 295.804688 297.203125 295.839844 297.03125 295.910156 296.867188 C 295.976562 296.699219 296.074219 296.554688 296.203125 296.425781 C 296.328125 296.300781 296.476562 296.203125 296.640625 296.132812 C 296.804688 296.0625 296.980469 296.03125 297.160156 296.03125 C 297.335938 296.03125 297.511719 296.0625 297.675781 296.132812 C 297.839844 296.203125 297.988281 296.300781 298.113281 296.425781 C 298.242188 296.554688 298.339844 296.699219 298.40625 296.867188 C 298.476562 297.03125 298.511719 297.203125 298.511719 297.382812 Z M 298.511719 297.382812 " fill-opacity="1" fill-rule="nonzero"/><path stroke-linecap="butt" transform="matrix(1.056845, 0, 0, 1.057621, 0.174258, 43.977268)" fill="none" stroke-linejoin="miter" d="M 255.929818 181.280224 L 352.628327 181.280224 L 352.628327 251.10081 L 255.929818 251.10081 Z M 255.929818 181.280224 " stroke="#4590b1" stroke-width="1" stroke-opacity="1" stroke-miterlimit="10"/><path fill="#38356e" d="M 268.65625 233.703125 L 272.660156 233.703125 L 272.660156 237.710938 L 268.65625 237.710938 Z M 268.65625 233.703125 " fill-opacity="1" fill-rule="nonzero"/><path fill="#45a6af" d="M 268.65625 307.546875 L 272.660156 307.546875 L 272.660156 311.554688 L 268.65625 311.554688 Z M 268.65625 307.546875 " fill-opacity="1" fill-rule="nonzero"/><path fill="#45a6af" d="M 370.851562 233.703125 L 374.859375 233.703125 L 374.859375 237.710938 L 370.851562 237.710938 Z M 370.851562 233.703125 " fill-opacity="1" fill-rule="nonzero"/><path fill="#45a6af" d="M 370.851562 307.546875 L 374.859375 307.546875 L 374.859375 311.554688 L 370.851562 311.554688 Z M 370.851562 307.546875 " fill-opacity="1" fill-rule="nonzero"/><path fill="#45a6af" d="M 352.75 139.246094 L 309.046875 139.246094 C 308.84375 139.25 308.644531 139.210938 308.453125 139.132812 C 308.261719 139.054688 308.09375 138.945312 307.949219 138.800781 C 307.804688 138.65625 307.691406 138.488281 307.613281 138.296875 C 307.535156 138.105469 307.492188 137.910156 307.492188 137.703125 L 307.492188 106.449219 C 307.496094 106.246094 307.535156 106.046875 307.617188 105.859375 C 307.695312 105.671875 307.808594 105.503906 307.953125 105.359375 C 308.097656 105.214844 308.265625 105.101562 308.457031 105.023438 C 308.644531 104.945312 308.84375 104.90625 309.046875 104.90625 L 326.8125 104.90625 C 327.226562 104.917969 327.578125 105.070312 327.871094 105.363281 L 330.753906 108.25 C 331.046875 108.542969 331.398438 108.695312 331.8125 108.703125 L 352.675781 108.703125 C 352.878906 108.703125 353.074219 108.742188 353.265625 108.820312 C 353.453125 108.898438 353.621094 109.011719 353.765625 109.15625 C 353.910156 109.300781 354.019531 109.46875 354.101562 109.65625 C 354.179688 109.847656 354.21875 110.042969 354.21875 110.246094 L 354.21875 137.746094 C 354.210938 137.941406 354.171875 138.128906 354.09375 138.308594 C 354.019531 138.488281 353.914062 138.644531 353.777344 138.785156 C 353.640625 138.925781 353.484375 139.035156 353.304688 139.113281 C 353.128906 139.195312 352.941406 139.238281 352.75 139.246094 Z M 352.75 139.246094 " fill-opacity="1" fill-rule="nonzero"/><path fill="#d5d4eb" d="M 348.785156 86.589844 L 348.785156 125.910156 L 311.679688 125.910156 L 311.679688 80.71875 L 342.917969 80.71875 Z M 348.785156 86.589844 " fill-opacity="1" fill-rule="nonzero"/><path fill="#cbcae0" d="M 342.917969 86.589844 L 342.917969 80.71875 L 348.785156 86.589844 Z M 342.917969 86.589844 " fill-opacity="1" fill-rule="nonzero"/><path fill="#e7e6ff" d="M 351.089844 88.640625 L 351.089844 127.972656 L 313.984375 127.972656 L 313.984375 82.769531 L 345.222656 82.769531 Z M 351.089844 88.640625 " fill-opacity="1" fill-rule="nonzero"/><path fill="#54c4d0" d="M 354.398438 139.246094 L 310.6875 139.246094 C 310.480469 139.246094 310.285156 139.207031 310.09375 139.128906 C 309.90625 139.050781 309.738281 138.941406 309.59375 138.796875 C 309.449219 138.652344 309.339844 138.484375 309.261719 138.292969 C 309.183594 138.105469 309.144531 137.910156 309.144531 137.703125 L 309.144531 110.894531 C 309.144531 110.6875 309.183594 110.492188 309.261719 110.300781 C 309.339844 110.113281 309.449219 109.945312 309.59375 109.800781 C 309.738281 109.65625 309.90625 109.542969 310.09375 109.464844 C 310.285156 109.386719 310.480469 109.347656 310.6875 109.347656 L 328.453125 109.347656 C 328.863281 109.359375 329.21875 109.511719 329.507812 109.804688 L 332.394531 112.691406 C 332.683594 112.984375 333.039062 113.136719 333.449219 113.144531 L 354.324219 113.144531 C 354.527344 113.144531 354.722656 113.183594 354.914062 113.261719 C 355.101562 113.339844 355.269531 113.453125 355.414062 113.597656 C 355.558594 113.742188 355.671875 113.910156 355.75 114.097656 C 355.828125 114.289062 355.867188 114.484375 355.867188 114.691406 L 355.867188 137.703125 C 355.867188 137.902344 355.828125 138.09375 355.757812 138.277344 C 355.683594 138.460938 355.578125 138.625 355.441406 138.769531 C 355.304688 138.914062 355.144531 139.027344 354.964844 139.109375 C 354.785156 139.191406 354.59375 139.238281 354.398438 139.246094 Z M 354.398438 139.246094 " fill-opacity="1" fill-rule="nonzero"/><path fill="#cbcae0" d="M 345.222656 88.640625 L 345.222656 82.769531 L 351.089844 88.640625 Z M 345.222656 88.640625 " fill-opacity="1" fill-rule="nonzero"/><path fill="#cbcae0" d="M 315.570312 85.351562 L 343.660156 85.351562 L 343.660156 86.875 L 315.570312 86.875 Z M 315.570312 85.351562 " fill-opacity="1" fill-rule="nonzero"/><path fill="#cbcae0" d="M 315.664062 91.117188 L 349.410156 91.117188 L 349.410156 92.078125 L 315.664062 92.078125 Z M 315.664062 91.117188 " fill-opacity="1" fill-rule="nonzero"/><path fill="#cbcae0" d="M 315.664062 93.832031 L 349.410156 93.832031 L 349.410156 94.796875 L 315.664062 94.796875 Z M 315.664062 93.832031 " fill-opacity="1" fill-rule="nonzero"/><path fill="#cbcae0" d="M 315.664062 96.5625 L 343.394531 96.5625 L 343.394531 97.523438 L 315.664062 97.523438 Z M 315.664062 96.5625 " fill-opacity="1" fill-rule="nonzero"/><path fill="#cbcae0" d="M 315.664062 99.289062 L 343.394531 99.289062 L 343.394531 100.253906 L 315.664062 100.253906 Z M 315.664062 99.289062 " fill-opacity="1" fill-rule="nonzero"/><path fill="#cbcae0" d="M 315.664062 102.019531 L 334.421875 102.019531 L 334.421875 102.980469 L 315.664062 102.980469 Z M 315.664062 102.019531 " fill-opacity="1" fill-rule="nonzero"/><path fill="#cbcae0" d="M 315.664062 104.75 L 334.421875 104.75 L 334.421875 105.710938 L 315.664062 105.710938 Z M 315.664062 104.75 " fill-opacity="1" fill-rule="nonzero"/><path fill="#4590b0" d="M 328.925781 228.648438 C 329.964844 226.738281 330.742188 224.730469 331.261719 222.621094 L 331.261719 209.738281 C 331.265625 209.382812 331.332031 209.042969 331.46875 208.714844 C 331.605469 208.386719 331.800781 208.097656 332.050781 207.84375 C 332.304688 207.59375 332.59375 207.402344 332.921875 207.265625 C 333.25 207.128906 333.59375 207.0625 333.945312 207.0625 L 367.765625 207.0625 C 368.121094 207.0625 368.460938 207.128906 368.789062 207.265625 C 369.117188 207.402344 369.40625 207.59375 369.65625 207.847656 C 369.90625 208.097656 370.101562 208.386719 370.234375 208.714844 C 370.371094 209.042969 370.441406 209.382812 370.441406 209.738281 L 370.441406 223.433594 C 370.441406 223.789062 370.371094 224.132812 370.238281 224.460938 C 370.101562 224.789062 369.90625 225.078125 369.65625 225.332031 C 369.40625 225.582031 369.117188 225.777344 368.789062 225.914062 C 368.460938 226.050781 368.121094 226.121094 367.765625 226.121094 L 335.742188 226.121094 C 334.09375 227.945312 332.074219 229.132812 329.675781 229.683594 C 329.378906 229.75 329.140625 229.660156 328.964844 229.414062 C 328.785156 229.164062 328.773438 228.910156 328.925781 228.648438 Z M 328.925781 228.648438 " fill-opacity="1" fill-rule="nonzero"/><path fill="#ffffff" d="M 357.746094 211.664062 C 358.105469 211.496094 358.484375 211.398438 358.882812 211.371094 C 359.277344 211.34375 359.664062 211.390625 360.042969 211.511719 C 360.421875 211.628906 360.765625 211.816406 361.074219 212.0625 C 361.386719 212.3125 361.640625 212.609375 361.835938 212.953125 C 362.03125 212.605469 362.28125 212.300781 362.589844 212.050781 C 362.898438 211.796875 363.242188 211.609375 363.625 211.488281 C 364.003906 211.367188 364.394531 211.324219 364.792969 211.355469 C 365.191406 211.382812 365.570312 211.488281 365.925781 211.664062 C 366.273438 211.863281 366.582031 212.105469 366.855469 212.394531 C 367.128906 212.683594 367.355469 213.003906 367.539062 213.359375 C 367.71875 213.714844 367.847656 214.089844 367.917969 214.480469 C 367.992188 214.871094 368.007812 215.265625 367.964844 215.660156 C 367.871094 216.457031 367.628906 217.207031 367.25 217.910156 C 366.867188 218.617188 366.371094 219.226562 365.757812 219.742188 C 364.578125 220.734375 363.273438 221.511719 361.835938 222.070312 C 360.402344 221.511719 359.09375 220.738281 357.917969 219.742188 C 357.304688 219.226562 356.808594 218.617188 356.425781 217.910156 C 356.042969 217.207031 355.804688 216.457031 355.707031 215.660156 C 355.664062 215.265625 355.679688 214.871094 355.753906 214.480469 C 355.824219 214.085938 355.953125 213.714844 356.132812 213.359375 C 356.3125 213.003906 356.542969 212.679688 356.816406 212.394531 C 357.089844 212.105469 357.402344 211.859375 357.746094 211.664062 Z M 357.746094 211.664062 " fill-opacity="1" fill-rule="nonzero"/><path fill="#ffffff" d="M 338.226562 212.859375 L 338.226562 220.726562 L 335.996094 220.726562 L 335.996094 214.582031 L 334.539062 214.582031 L 334.539062 212.859375 Z M 338.226562 212.859375 " fill-opacity="1" fill-rule="nonzero"/><path fill="#ffffff" d="M 341.082031 220.347656 C 340.527344 220.003906 340.121094 219.535156 339.855469 218.941406 C 339.558594 218.234375 339.410156 217.503906 339.410156 216.738281 C 339.410156 215.976562 339.558594 215.242188 339.855469 214.539062 C 340.121094 213.945312 340.527344 213.476562 341.082031 213.132812 C 341.632812 212.796875 342.230469 212.632812 342.878906 212.648438 C 343.523438 212.628906 344.125 212.792969 344.671875 213.140625 C 345.222656 213.484375 345.632812 213.949219 345.898438 214.539062 C 346.195312 215.242188 346.34375 215.976562 346.34375 216.738281 C 346.34375 217.503906 346.195312 218.234375 345.898438 218.941406 C 345.792969 219.152344 345.667969 219.347656 345.523438 219.53125 C 345.375 219.71875 345.210938 219.886719 345.03125 220.035156 C 344.851562 220.1875 344.65625 220.320312 344.449219 220.429688 C 344.238281 220.539062 344.023438 220.628906 343.796875 220.695312 C 343.570312 220.761719 343.339844 220.804688 343.105469 220.820312 C 342.871094 220.839844 342.636719 220.835938 342.402344 220.804688 C 342.167969 220.773438 341.941406 220.71875 341.71875 220.644531 C 341.496094 220.566406 341.28125 220.46875 341.082031 220.347656 Z M 343.777344 218.464844 C 344.230469 217.3125 344.230469 216.164062 343.777344 215.015625 C 343.582031 214.660156 343.28125 214.476562 342.878906 214.464844 C 342.46875 214.472656 342.164062 214.65625 341.96875 215.015625 C 341.515625 216.164062 341.515625 217.3125 341.96875 218.464844 C 342.164062 218.824219 342.46875 219.007812 342.878906 219.011719 C 343.28125 219.003906 343.582031 218.820312 343.777344 218.464844 Z M 343.777344 218.464844 " fill-opacity="1" fill-rule="nonzero"/><path fill="#ffffff" d="M 348.773438 220.347656 C 348.222656 220.003906 347.8125 219.535156 347.546875 218.941406 C 347.253906 218.234375 347.105469 217.503906 347.105469 216.738281 C 347.105469 215.976562 347.253906 215.242188 347.546875 214.539062 C 347.8125 213.945312 348.222656 213.476562 348.773438 213.132812 C 349.324219 212.796875 349.925781 212.632812 350.570312 212.648438 C 351.214844 212.632812 351.808594 212.796875 352.355469 213.132812 C 352.910156 213.476562 353.324219 213.945312 353.59375 214.539062 C 353.890625 215.242188 354.039062 215.976562 354.039062 216.738281 C 354.039062 217.503906 353.890625 218.234375 353.59375 218.941406 C 353.324219 219.535156 352.910156 220.003906 352.355469 220.347656 C 351.808594 220.683594 351.214844 220.84375 350.570312 220.832031 C 349.925781 220.84375 349.324219 220.683594 348.773438 220.347656 Z M 351.46875 218.464844 C 351.921875 217.3125 351.921875 216.164062 351.46875 215.015625 C 351.273438 214.660156 350.976562 214.476562 350.570312 214.464844 C 350.15625 214.460938 349.859375 214.644531 349.671875 215.015625 C 349.203125 216.164062 349.203125 217.3125 349.671875 218.464844 C 349.859375 218.835938 350.15625 219.019531 350.570312 219.011719 C 350.976562 219.003906 351.273438 218.820312 351.46875 218.464844 Z M 351.46875 218.464844 " fill-opacity="1" fill-rule="nonzero"/><path fill="#45a6af" d="M 85.207031 133.410156 L 301.535156 133.410156 C 301.851562 133.410156 302.164062 133.441406 302.476562 133.503906 C 302.785156 133.566406 303.089844 133.65625 303.382812 133.777344 C 303.675781 133.898438 303.953125 134.046875 304.214844 134.222656 C 304.480469 134.402344 304.722656 134.601562 304.949219 134.824219 C 305.171875 135.050781 305.375 135.292969 305.550781 135.558594 C 305.726562 135.820312 305.875 136.101562 305.996094 136.394531 C 306.117188 136.6875 306.207031 136.988281 306.269531 137.300781 C 306.332031 137.613281 306.363281 137.925781 306.363281 138.242188 L 306.363281 260.640625 C 306.363281 260.957031 306.332031 261.273438 306.269531 261.585938 C 306.207031 261.894531 306.117188 262.199219 305.996094 262.492188 C 305.875 262.785156 305.726562 263.0625 305.550781 263.328125 C 305.375 263.589844 305.171875 263.835938 304.949219 264.058594 C 304.722656 264.285156 304.480469 264.484375 304.214844 264.660156 C 303.953125 264.835938 303.675781 264.984375 303.382812 265.105469 C 303.089844 265.226562 302.785156 265.320312 302.476562 265.382812 C 302.164062 265.445312 301.851562 265.476562 301.535156 265.476562 L 85.207031 265.476562 C 84.890625 265.476562 84.578125 265.445312 84.265625 265.382812 C 83.953125 265.320312 83.652344 265.226562 83.359375 265.105469 C 83.066406 264.984375 82.789062 264.835938 82.523438 264.660156 C 82.261719 264.484375 82.015625 264.285156 81.792969 264.058594 C 81.570312 263.835938 81.367188 263.589844 81.191406 263.328125 C 81.015625 263.0625 80.867188 262.785156 80.746094 262.492188 C 80.625 262.199219 80.53125 261.894531 80.472656 261.585938 C 80.410156 261.273438 80.378906 260.957031 80.378906 260.640625 L 80.378906 138.242188 C 80.378906 137.925781 80.410156 137.613281 80.472656 137.300781 C 80.53125 136.988281 80.625 136.6875 80.746094 136.394531 C 80.867188 136.101562 81.015625 135.820312 81.191406 135.558594 C 81.367188 135.292969 81.570312 135.050781 81.792969 134.824219 C 82.015625 134.601562 82.261719 134.402344 82.523438 134.222656 C 82.789062 134.046875 83.066406 133.898438 83.359375 133.777344 C 83.652344 133.65625 83.953125 133.566406 84.265625 133.503906 C 84.578125 133.441406 84.890625 133.410156 85.207031 133.410156 Z M 85.207031 133.410156 " fill-opacity="1" fill-rule="nonzero"/><path fill="#ffffff" d="M 303.246094 147.984375 L 303.246094 258.929688 C 303.246094 259.316406 303.171875 259.6875 303.023438 260.046875 C 302.875 260.402344 302.664062 260.71875 302.390625 260.992188 C 302.117188 261.265625 301.800781 261.476562 301.445312 261.625 C 301.085938 261.773438 300.714844 261.847656 300.328125 261.847656 L 86.414062 261.847656 C 86.027344 261.847656 85.652344 261.773438 85.296875 261.625 C 84.9375 261.476562 84.625 261.265625 84.351562 260.992188 C 84.078125 260.71875 83.867188 260.402344 83.71875 260.046875 C 83.570312 259.6875 83.496094 259.316406 83.496094 258.929688 L 83.496094 147.984375 C 83.496094 147.597656 83.570312 147.222656 83.71875 146.867188 C 83.867188 146.507812 84.078125 146.195312 84.351562 145.917969 C 84.625 145.644531 84.9375 145.433594 85.296875 145.285156 C 85.652344 145.140625 86.027344 145.066406 86.414062 145.066406 L 300.328125 145.066406 C 300.714844 145.066406 301.085938 145.140625 301.445312 145.285156 C 301.800781 145.433594 302.117188 145.644531 302.390625 145.917969 C 302.664062 146.195312 302.875 146.507812 303.023438 146.867188 C 303.171875 147.222656 303.246094 147.597656 303.246094 147.984375 Z M 303.246094 147.984375 " fill-opacity="1" fill-rule="nonzero"/><path fill="#ffffff" d="M 301.796875 139.246094 C 301.796875 139.628906 301.726562 139.992188 301.578125 140.34375 C 301.433594 140.695312 301.226562 141.003906 300.957031 141.273438 C 300.691406 141.542969 300.378906 141.75 300.03125 141.894531 C 299.679688 142.042969 299.3125 142.113281 298.933594 142.113281 C 298.554688 142.113281 298.1875 142.042969 297.835938 141.894531 C 297.488281 141.75 297.175781 141.542969 296.910156 141.273438 C 296.640625 141.003906 296.433594 140.695312 296.289062 140.34375 C 296.140625 139.992188 296.070312 139.628906 296.070312 139.246094 C 296.070312 138.867188 296.140625 138.503906 296.289062 138.152344 C 296.433594 137.800781 296.640625 137.488281 296.910156 137.222656 C 297.175781 136.953125 297.488281 136.746094 297.835938 136.601562 C 298.1875 136.453125 298.554688 136.382812 298.933594 136.382812 C 299.3125 136.382812 299.679688 136.453125 300.03125 136.601562 C 300.378906 136.746094 300.691406 136.953125 300.957031 137.222656 C 301.226562 137.488281 301.433594 137.800781 301.578125 138.152344 C 301.726562 138.503906 301.796875 138.867188 301.796875 139.246094 Z M 301.796875 139.246094 " fill-opacity="1" fill-rule="nonzero"/><path fill="#ffffff" d="M 292.339844 139.246094 C 292.339844 139.628906 292.265625 139.992188 292.121094 140.34375 C 291.976562 140.695312 291.769531 141.007812 291.5 141.277344 C 291.230469 141.542969 290.917969 141.75 290.570312 141.898438 C 290.21875 142.042969 289.851562 142.113281 289.472656 142.113281 C 289.089844 142.113281 288.726562 142.039062 288.375 141.894531 C 288.023438 141.746094 287.714844 141.539062 287.445312 141.269531 C 287.175781 141 286.972656 140.691406 286.828125 140.339844 C 286.683594 139.988281 286.609375 139.621094 286.609375 139.242188 C 286.613281 138.859375 286.683594 138.496094 286.832031 138.144531 C 286.976562 137.792969 287.1875 137.484375 287.457031 137.214844 C 287.726562 136.945312 288.035156 136.742188 288.386719 136.597656 C 288.738281 136.453125 289.105469 136.378906 289.484375 136.382812 C 289.863281 136.382812 290.230469 136.453125 290.578125 136.601562 C 290.929688 136.746094 291.238281 136.953125 291.507812 137.222656 C 291.773438 137.492188 291.980469 137.800781 292.125 138.152344 C 292.269531 138.503906 292.339844 138.867188 292.339844 139.246094 Z M 292.339844 139.246094 " fill-opacity="1" fill-rule="nonzero"/><path fill="#ffffff" d="M 282.890625 139.246094 C 282.890625 139.628906 282.816406 139.992188 282.671875 140.34375 C 282.527344 140.695312 282.320312 141.003906 282.050781 141.273438 C 281.785156 141.542969 281.472656 141.75 281.121094 141.894531 C 280.773438 142.042969 280.40625 142.113281 280.027344 142.113281 C 279.648438 142.113281 279.28125 142.042969 278.929688 141.894531 C 278.578125 141.75 278.269531 141.542969 278 141.273438 C 277.734375 141.003906 277.527344 140.695312 277.378906 140.34375 C 277.234375 139.992188 277.164062 139.628906 277.164062 139.246094 C 277.164062 138.867188 277.234375 138.503906 277.378906 138.152344 C 277.527344 137.800781 277.734375 137.488281 278 137.222656 C 278.269531 136.953125 278.578125 136.746094 278.929688 136.601562 C 279.28125 136.453125 279.648438 136.382812 280.027344 136.382812 C 280.40625 136.382812 280.773438 136.453125 281.121094 136.601562 C 281.472656 136.746094 281.785156 136.953125 282.050781 137.222656 C 282.320312 137.488281 282.527344 137.800781 282.671875 138.152344 C 282.816406 138.503906 282.890625 138.867188 282.890625 139.246094 Z M 282.890625 139.246094 " fill-opacity="1" fill-rule="nonzero"/><path stroke-linecap="butt" transform="matrix(1.056845, 0, 0, 1.057621, 0.174258, 43.977268)" fill="none" stroke-linejoin="round" d="M 163.230536 156.970073 L 163.230536 158.469606 L 161.729901 158.469606 " stroke="#38356e" stroke-width="0.5" stroke-opacity="1" stroke-miterlimit="4"/><path fill="#38356e" d="M 167.886719 211.84375 L 164.671875 211.84375 L 164.671875 211.3125 L 167.886719 211.3125 M 161.460938 211.84375 L 158.246094 211.84375 L 158.246094 211.3125 L 161.460938 211.3125 M 155.035156 211.84375 L 151.820312 211.84375 L 151.820312 211.3125 L 155.035156 211.3125 M 148.609375 211.84375 L 145.394531 211.84375 L 145.394531 211.3125 L 148.609375 211.3125 M 142.183594 211.84375 L 138.96875 211.84375 L 138.96875 211.3125 L 142.183594 211.3125 M 135.757812 211.84375 L 132.542969 211.84375 L 132.542969 211.3125 L 135.757812 211.3125 M 129.332031 211.84375 L 126.117188 211.84375 L 126.117188 211.3125 L 129.332031 211.3125 M 122.90625 211.84375 L 119.691406 211.84375 L 119.691406 211.3125 L 122.90625 211.3125 M 116.480469 211.84375 L 113.265625 211.84375 L 113.265625 211.3125 L 116.480469 211.3125 M 110.054688 211.84375 L 106.839844 211.84375 L 106.839844 211.3125 L 110.054688 211.3125 M 103.628906 211.84375 L 100.414062 211.84375 L 100.414062 211.3125 L 103.628906 211.3125 M 97.203125 211.84375 L 93.992188 211.84375 L 93.992188 211.3125 L 97.203125 211.3125 " fill-opacity="1" fill-rule="nonzero"/><path stroke-linecap="butt" transform="matrix(1.056845, 0, 0, 1.057621, 0.174258, 43.977268)" fill="none" stroke-linejoin="round" d="M 85.711316 158.469606 L 84.210681 158.469606 L 84.210681 156.970073 " stroke="#38356e" stroke-width="0.5" stroke-opacity="1" stroke-miterlimit="4"/><path fill="#38356e" d="M 88.90625 206.648438 L 88.90625 203.308594 L 89.433594 203.308594 L 89.433594 206.648438 M 88.90625 199.964844 L 88.90625 196.625 L 89.433594 196.625 L 89.433594 199.964844 M 88.90625 193.28125 L 88.90625 189.941406 L 89.433594 189.941406 L 89.433594 193.28125 M 88.90625 186.597656 L 88.90625 183.253906 L 89.433594 183.253906 L 89.433594 186.597656 M 88.90625 179.914062 L 88.90625 176.570312 L 89.433594 176.570312 L 89.433594 179.914062 M 88.90625 173.230469 L 88.90625 169.886719 L 89.433594 169.886719 L 89.433594 173.230469 M 88.90625 166.546875 L 88.90625 163.203125 L 89.433594 163.203125 L 89.433594 166.546875 M 88.90625 159.859375 L 88.90625 156.519531 L 89.433594 156.519531 L 89.433594 159.859375 " fill-opacity="1" fill-rule="nonzero"/><path stroke-linecap="butt" transform="matrix(1.056845, 0, 0, 1.057621, 0.174258, 43.977268)" fill="none" stroke-linejoin="round" d="M 84.210681 103.241759 L 84.210681 101.738533 L 85.711316 101.738533 " stroke="#38356e" stroke-width="0.5" stroke-opacity="1" stroke-miterlimit="4"/><path fill="#38356e" d="M 93.96875 151.316406 L 97.183594 151.316406 L 97.183594 151.84375 L 93.96875 151.84375 M 100.394531 151.316406 L 103.609375 151.316406 L 103.609375 151.84375 L 100.394531 151.84375 M 106.820312 151.316406 L 110.035156 151.316406 L 110.035156 151.84375 L 106.820312 151.84375 M 113.246094 151.316406 L 116.457031 151.316406 L 116.457031 151.84375 L 113.246094 151.84375 M 119.671875 151.316406 L 122.882812 151.316406 L 122.882812 151.84375 L 119.671875 151.84375 M 126.097656 151.316406 L 129.308594 151.316406 L 129.308594 151.84375 L 126.097656 151.84375 M 132.523438 151.316406 L 135.734375 151.316406 L 135.734375 151.84375 L 132.523438 151.84375 M 138.949219 151.316406 L 142.160156 151.316406 L 142.160156 151.84375 L 138.949219 151.84375 M 145.375 151.316406 L 148.585938 151.316406 L 148.585938 151.84375 L 145.375 151.84375 M 151.800781 151.316406 L 155.011719 151.316406 L 155.011719 151.84375 L 151.800781 151.84375 M 158.226562 151.316406 L 161.4375 151.316406 L 161.4375 151.84375 L 158.226562 151.84375 M 164.652344 151.316406 L 167.863281 151.316406 L 167.863281 151.84375 L 164.652344 151.84375 " fill-opacity="1" fill-rule="nonzero"/><path stroke-linecap="butt" transform="matrix(1.056845, 0, 0, 1.057621, 0.174258, 43.977268)" fill="none" stroke-linejoin="round" d="M 161.729901 101.738533 L 163.230536 101.738533 L 163.230536 103.241759 " stroke="#38356e" stroke-width="0.5" stroke-opacity="1" stroke-miterlimit="4"/><path fill="#38356e" d="M 172.945312 156.507812 L 172.945312 159.851562 L 172.417969 159.851562 L 172.417969 156.507812 M 172.945312 163.191406 L 172.945312 166.535156 L 172.417969 166.535156 L 172.417969 163.191406 M 172.945312 169.875 L 172.945312 173.21875 L 172.417969 173.21875 L 172.417969 169.875 M 172.945312 176.5625 L 172.945312 179.902344 L 172.417969 179.902344 L 172.417969 176.5625 M 172.945312 183.246094 L 172.945312 186.585938 L 172.417969 186.585938 L 172.417969 183.246094 M 172.945312 189.929688 L 172.945312 193.269531 L 172.417969 193.269531 L 172.417969 189.929688 M 172.945312 196.613281 L 172.945312 199.957031 L 172.417969 199.957031 L 172.417969 196.613281 M 172.945312 203.296875 L 172.945312 206.640625 L 172.417969 206.640625 L 172.417969 203.296875 " fill-opacity="1" fill-rule="nonzero"/><path fill="#45a6af" d="M 98.9375 161.246094 L 182.449219 161.246094 L 182.449219 221.246094 L 98.9375 221.246094 Z M 98.9375 161.246094 " fill-opacity="1" fill-rule="nonzero"/><path stroke-linecap="round" transform="matrix(1.056845, 0, 0, 1.057621, 0.174258, 43.977268)" fill="none" stroke-linejoin="round" d="M 167.351736 163.060538 L 98.400177 163.060538 L 120.129805 122.078248 L 136.459368 150.240645 L 147.529318 138.550942 Z M 167.351736 163.060538 " stroke="#ffffff" stroke-width="2" stroke-opacity="1" stroke-miterlimit="4"/><path stroke-linecap="round" transform="matrix(1.056845, 0, 0, 1.057621, 0.174258, 43.977268)" fill="none" stroke-linejoin="round" d="M 146.450044 124.33124 C 146.450044 124.774451 146.40569 125.213969 146.320679 125.6461 C 146.231971 126.081925 146.106302 126.502976 145.93628 126.912947 C 145.766257 127.322917 145.559273 127.710727 145.311631 128.08007 C 145.067686 128.449413 144.786779 128.789209 144.472607 129.10315 C 144.158435 129.417092 143.818389 129.697792 143.448775 129.941559 C 143.082857 130.189018 142.691066 130.39585 142.28449 130.565748 C 141.874218 130.735646 141.452858 130.864916 141.016713 130.949865 C 140.580568 131.038507 140.144423 131.079135 139.700885 131.079135 C 139.257348 131.079135 138.817507 131.038507 138.381362 130.949865 C 137.948913 130.864916 137.527553 130.735646 137.117281 130.565748 C 136.707009 130.39585 136.318914 130.189018 135.9493 129.941559 C 135.579685 129.697792 135.23964 129.417092 134.925468 129.10315 C 134.614992 128.789209 134.334085 128.449413 134.086443 128.08007 C 133.842498 127.710727 133.631818 127.322917 133.465491 126.912947 C 133.295469 126.502976 133.166104 126.081925 133.081092 125.6461 C 132.992385 125.213969 132.951727 124.774451 132.951727 124.33124 C 132.951727 123.888028 132.992385 123.44851 133.081092 123.012685 C 133.166104 122.576861 133.295469 122.15581 133.465491 121.745839 C 133.631818 121.335868 133.842498 120.948058 134.086443 120.578716 C 134.334085 120.213066 134.614992 119.869577 134.925468 119.555636 C 135.23964 119.245388 135.579685 118.964687 135.9493 118.717227 C 136.318914 118.469767 136.707009 118.262935 137.117281 118.093038 C 137.527553 117.92314 137.948913 117.797563 138.381362 117.708921 C 138.817507 117.623972 139.257348 117.579651 139.700885 117.579651 C 140.144423 117.579651 140.580568 117.623972 141.016713 117.708921 C 141.452858 117.797563 141.874218 117.92314 142.28449 118.093038 C 142.691066 118.262935 143.082857 118.469767 143.448775 118.717227 C 143.818389 118.964687 144.158435 119.245388 144.472607 119.555636 C 144.786779 119.869577 145.067686 120.213066 145.311631 120.578716 C 145.559273 120.948058 145.766257 121.335868 145.93628 121.745839 C 146.106302 122.15581 146.231971 122.576861 146.320679 123.012685 C 146.40569 123.44851 146.450044 123.888028 146.450044 124.33124 Z M 146.450044 124.33124 " stroke="#ffffff" stroke-width="2" stroke-opacity="1" stroke-miterlimit="4"/><path fill="#d5d4eb" d="M 192.042969 152.511719 L 296.070312 152.511719 L 296.070312 158.910156 L 192.042969 158.910156 Z M 192.042969 152.511719 " fill-opacity="1" fill-rule="nonzero"/><path fill="#d5d4eb" d="M 192.042969 164.292969 L 221.941406 164.292969 L 221.941406 167.496094 L 192.042969 167.496094 Z M 192.042969 164.292969 " fill-opacity="1" fill-rule="nonzero"/><path fill="#d5d4eb" d="M 226.023438 164.292969 L 238.15625 164.292969 L 238.15625 167.496094 L 226.023438 167.496094 Z M 226.023438 164.292969 " fill-opacity="1" fill-rule="nonzero"/><path fill="#d5d4eb" d="M 242.804688 164.292969 L 274.636719 164.292969 L 274.636719 167.496094 L 242.804688 167.496094 Z M 242.804688 164.292969 " fill-opacity="1" fill-rule="nonzero"/><path fill="#d5d4eb" d="M 277.164062 164.292969 L 296.070312 164.292969 L 296.070312 167.496094 L 277.164062 167.496094 Z M 277.164062 164.292969 " fill-opacity="1" fill-rule="nonzero"/><path fill="#d5d4eb" d="M 192.042969 172.277344 L 231.453125 172.277344 L 231.453125 175.480469 L 192.042969 175.480469 Z M 192.042969 172.277344 " fill-opacity="1" fill-rule="nonzero"/><path fill="#d5d4eb" d="M 235.820312 172.277344 L 251.152344 172.277344 L 251.152344 175.480469 L 235.820312 175.480469 Z M 235.820312 172.277344 " fill-opacity="1" fill-rule="nonzero"/><path fill="#d5d4eb" d="M 254.652344 172.277344 L 269.988281 172.277344 L 269.988281 175.480469 L 254.652344 175.480469 Z M 254.652344 172.277344 " fill-opacity="1" fill-rule="nonzero"/><path fill="#d5d4eb" d="M 272.355469 172.277344 L 291.820312 172.277344 L 291.820312 175.480469 L 272.355469 175.480469 Z M 272.355469 172.277344 " fill-opacity="1" fill-rule="nonzero"/><path fill="#d5d4eb" d="M 192.042969 180.25 L 203.015625 180.25 L 203.015625 183.457031 L 192.042969 183.457031 Z M 192.042969 180.25 " fill-opacity="1" fill-rule="nonzero"/><path fill="#d5d4eb" d="M 243.492188 180.25 L 263.191406 180.25 L 263.191406 183.457031 L 243.492188 183.457031 Z M 243.492188 180.25 " fill-opacity="1" fill-rule="nonzero"/><path fill="#d5d4eb" d="M 205.539062 180.25 L 240.195312 180.25 L 240.195312 183.457031 L 205.539062 183.457031 Z M 205.539062 180.25 " fill-opacity="1" fill-rule="nonzero"/><path fill="#d5d4eb" d="M 192.042969 188.226562 L 216.890625 188.226562 L 216.890625 191.429688 L 192.042969 191.429688 Z M 192.042969 188.226562 " fill-opacity="1" fill-rule="nonzero"/><path fill="#d5d4eb" d="M 221.160156 188.226562 L 229.507812 188.226562 L 229.507812 191.429688 L 221.160156 191.429688 Z M 221.160156 188.226562 " fill-opacity="1" fill-rule="nonzero"/><path fill="#d5d4eb" d="M 233.398438 188.226562 L 249.800781 188.226562 L 249.800781 191.429688 L 233.398438 191.429688 Z M 233.398438 188.226562 " fill-opacity="1" fill-rule="nonzero"/><path fill="#d5d4eb" d="M 192.042969 196.199219 L 201.554688 196.199219 L 201.554688 199.40625 L 192.042969 199.40625 Z M 192.042969 196.199219 " fill-opacity="1" fill-rule="nonzero"/><path fill="#d5d4eb" d="M 205.148438 196.199219 L 226.023438 196.199219 L 226.023438 199.40625 L 205.148438 199.40625 Z M 205.148438 196.199219 " fill-opacity="1" fill-rule="nonzero"/><path fill="#d5d4eb" d="M 89.171875 227.613281 L 182.449219 227.613281 L 182.449219 255.375 L 89.171875 255.375 Z M 89.171875 227.613281 " fill-opacity="1" fill-rule="nonzero"/><path fill="#ffffff" d="M 91.644531 229.496094 L 109.347656 229.496094 L 109.347656 245.972656 L 91.644531 245.972656 Z M 91.644531 229.496094 " fill-opacity="1" fill-rule="nonzero"/><path fill="#ffffff" d="M 91.644531 248.425781 L 109.347656 248.425781 L 109.347656 253.324219 L 91.644531 253.324219 Z M 91.644531 248.425781 " fill-opacity="1" fill-rule="nonzero"/><path fill="#ffffff" d="M 131.910156 253.324219 L 114.207031 253.324219 L 114.207031 236.84375 L 131.910156 236.84375 Z M 131.910156 253.324219 " fill-opacity="1" fill-rule="nonzero"/><path fill="#ffffff" d="M 131.910156 234.390625 L 114.207031 234.390625 L 114.207031 229.496094 L 131.910156 229.496094 Z M 131.910156 234.390625 " fill-opacity="1" fill-rule="nonzero"/><path fill="#ffffff" d="M 138.515625 229.496094 L 156.21875 229.496094 L 156.21875 245.972656 L 138.515625 245.972656 Z M 138.515625 229.496094 " fill-opacity="1" fill-rule="nonzero"/><path fill="#ffffff" d="M 138.515625 248.425781 L 156.21875 248.425781 L 156.21875 253.324219 L 138.515625 253.324219 Z M 138.515625 248.425781 " fill-opacity="1" fill-rule="nonzero"/><path fill="#ffffff" d="M 178.769531 253.324219 L 161.066406 253.324219 L 161.066406 236.84375 L 178.769531 236.84375 Z M 178.769531 253.324219 " fill-opacity="1" fill-rule="nonzero"/><path fill="#ffffff" d="M 178.769531 234.390625 L 161.066406 234.390625 L 161.066406 229.496094 L 178.769531 229.496094 Z M 178.769531 234.390625 " fill-opacity="1" fill-rule="nonzero"/><path fill="#46a6ae" d="M 299.207031 210.871094 L 194.210938 210.871094 L 194.210938 207.316406 C 194.210938 207.027344 194.269531 206.746094 194.382812 206.480469 C 194.492188 206.210938 194.652344 205.976562 194.859375 205.769531 C 195.066406 205.566406 195.300781 205.410156 195.570312 205.300781 C 195.839844 205.191406 196.117188 205.136719 196.410156 205.136719 L 297.042969 205.136719 C 297.332031 205.136719 297.609375 205.191406 297.875 205.304688 C 298.140625 205.414062 298.378906 205.570312 298.582031 205.777344 C 298.785156 205.980469 298.941406 206.214844 299.054688 206.484375 C 299.164062 206.75 299.21875 207.027344 299.21875 207.316406 Z M 299.207031 210.871094 " fill-opacity="1" fill-rule="nonzero"/><path fill="#46a6ae" d="M 298.152344 209.769531 L 298.152344 253.28125 C 298.152344 253.519531 298.105469 253.75 298.015625 253.972656 C 297.921875 254.195312 297.792969 254.390625 297.621094 254.558594 C 297.453125 254.730469 297.257812 254.859375 297.035156 254.953125 C 296.816406 255.042969 296.585938 255.089844 296.34375 255.089844 L 197.085938 255.089844 C 196.84375 255.089844 196.613281 255.046875 196.390625 254.953125 C 196.167969 254.863281 195.972656 254.734375 195.800781 254.5625 C 195.628906 254.394531 195.5 254.199219 195.40625 253.976562 C 195.3125 253.753906 195.269531 253.519531 195.269531 253.28125 L 195.269531 209.769531 L 298.152344 209.769531 M 299.207031 208.710938 L 194.210938 208.710938 L 194.210938 253.28125 C 194.210938 253.660156 194.285156 254.027344 194.429688 254.378906 C 194.574219 254.730469 194.785156 255.042969 195.054688 255.3125 C 195.324219 255.578125 195.632812 255.785156 195.984375 255.929688 C 196.339844 256.078125 196.703125 256.148438 197.085938 256.148438 L 296.34375 256.148438 C 296.722656 256.148438 297.089844 256.074219 297.441406 255.929688 C 297.792969 255.78125 298.101562 255.574219 298.371094 255.308594 C 298.636719 255.039062 298.84375 254.726562 298.992188 254.378906 C 299.136719 254.027344 299.207031 253.660156 299.207031 253.28125 Z M 299.207031 208.710938 " fill-opacity="1" fill-rule="nonzero"/><path fill="#d5d4eb" d="M 197.867188 214.414062 L 211.078125 214.414062 L 211.078125 252.550781 L 197.867188 252.550781 Z M 197.867188 214.414062 " fill-opacity="1" fill-rule="nonzero"/><path fill="#d5d4eb" d="M 230.789062 214.414062 L 294.621094 214.414062 L 294.621094 252.550781 L 230.789062 252.550781 Z M 230.789062 214.414062 " fill-opacity="1" fill-rule="nonzero"/><path fill="#ffffff" d="M 234.191406 216.433594 L 291.492188 216.433594 L 291.492188 220.324219 L 234.191406 220.324219 Z M 234.191406 216.433594 " fill-opacity="1" fill-rule="nonzero"/><path fill="#ffffff" d="M 234.191406 222.664062 L 291.492188 222.664062 L 291.492188 224.609375 L 234.191406 224.609375 Z M 234.191406 222.664062 " fill-opacity="1" fill-rule="nonzero"/><path fill="#d5d4eb" d="M 213.847656 222.664062 L 227.058594 222.664062 L 227.058594 227.210938 L 213.847656 227.210938 Z M 213.847656 222.664062 " fill-opacity="1" fill-rule="nonzero"/><path fill="#ffffff" d="M 234.191406 226.363281 L 246.515625 226.363281 L 246.515625 249.695312 L 234.191406 249.695312 Z M 234.191406 226.363281 " fill-opacity="1" fill-rule="nonzero"/><path fill="#ffffff" d="M 264.449219 226.363281 L 276.773438 226.363281 L 276.773438 249.695312 L 264.449219 249.695312 Z M 264.449219 226.363281 " fill-opacity="1" fill-rule="nonzero"/><path fill="#ffffff" d="M 262.589844 250.222656 L 249.25 250.222656 L 249.25 225.835938 L 262.632812 225.835938 Z M 250.265625 249.167969 L 261.53125 249.167969 L 261.53125 226.894531 L 250.308594 226.894531 Z M 250.265625 249.167969 " fill-opacity="1" fill-rule="nonzero"/><path fill="#ffffff" d="M 292.023438 250.222656 L 278.640625 250.222656 L 278.640625 225.835938 L 292.023438 225.835938 Z M 279.699219 249.167969 L 290.964844 249.167969 L 290.964844 226.894531 L 279.699219 226.894531 Z M 279.699219 249.167969 " fill-opacity="1" fill-rule="nonzero"/><path fill="#d5d4eb" d="M 213.847656 230.910156 L 227.058594 230.910156 L 227.058594 235.460938 L 213.847656 235.460938 Z M 213.847656 230.910156 " fill-opacity="1" fill-rule="nonzero"/><path fill="#d5d4eb" d="M 213.847656 239.160156 L 227.058594 239.160156 L 227.058594 243.710938 L 213.847656 243.710938 Z M 213.847656 239.160156 " fill-opacity="1" fill-rule="nonzero"/><path fill="#d5d4eb" d="M 213.847656 247.410156 L 227.058594 247.410156 L 227.058594 251.957031 L 213.847656 251.957031 Z M 213.847656 247.410156 " fill-opacity="1" fill-rule="nonzero"/><path fill="#4590b0" d="M 197.265625 86.25 L 159.125 86.25 C 158.523438 86.25 157.925781 86.308594 157.335938 86.425781 C 156.746094 86.542969 156.171875 86.71875 155.617188 86.949219 C 155.0625 87.179688 154.535156 87.460938 154.03125 87.796875 C 153.53125 88.128906 153.070312 88.511719 152.644531 88.9375 C 152.21875 89.363281 151.839844 89.824219 151.503906 90.324219 C 151.171875 90.828125 150.886719 91.355469 150.660156 91.910156 C 150.429688 92.46875 150.253906 93.039062 150.136719 93.632812 C 150.019531 94.222656 149.960938 94.816406 149.960938 95.421875 C 149.96875 96.917969 150.320312 98.328125 151.019531 99.652344 L 148.039062 105.085938 C 147.859375 105.394531 147.789062 105.726562 147.828125 106.082031 C 147.867188 106.4375 148.007812 106.746094 148.25 107.011719 C 148.492188 107.273438 148.789062 107.4375 149.140625 107.503906 C 149.492188 107.570312 149.828125 107.527344 150.152344 107.371094 L 157.273438 104.355469 C 157.902344 104.488281 158.535156 104.554688 159.175781 104.558594 L 197.316406 104.558594 C 197.917969 104.558594 198.515625 104.5 199.105469 104.382812 C 199.695312 104.265625 200.269531 104.089844 200.824219 103.859375 C 201.378906 103.628906 201.910156 103.347656 202.410156 103.011719 C 202.910156 102.679688 203.371094 102.296875 203.796875 101.871094 C 204.222656 101.445312 204.601562 100.984375 204.9375 100.484375 C 205.269531 99.980469 205.554688 99.453125 205.785156 98.898438 C 206.011719 98.339844 206.1875 97.769531 206.304688 97.175781 C 206.421875 96.585938 206.480469 95.992188 206.480469 95.386719 C 206.480469 94.785156 206.417969 94.1875 206.296875 93.597656 C 206.179688 93.007812 206.003906 92.433594 205.769531 91.875 C 205.535156 91.320312 205.25 90.792969 204.914062 90.292969 C 204.578125 89.792969 204.195312 89.332031 203.765625 88.90625 C 203.339844 88.480469 202.875 88.101562 202.371094 87.769531 C 201.867188 87.4375 201.339844 87.15625 200.78125 86.929688 C 200.222656 86.703125 199.648438 86.53125 199.054688 86.417969 C 198.464844 86.300781 197.867188 86.246094 197.265625 86.25 Z M 197.265625 86.25 " fill-opacity="1" fill-rule="nonzero"/><path fill="#ffffff" d="M 164.058594 95.460938 C 164.058594 95.894531 163.976562 96.308594 163.8125 96.703125 C 163.648438 97.101562 163.414062 97.453125 163.109375 97.757812 C 162.804688 98.0625 162.453125 98.296875 162.054688 98.460938 C 161.660156 98.625 161.246094 98.710938 160.816406 98.710938 C 160.382812 98.710938 159.96875 98.625 159.574219 98.460938 C 159.175781 98.296875 158.824219 98.0625 158.519531 97.757812 C 158.214844 97.453125 157.980469 97.101562 157.816406 96.703125 C 157.652344 96.308594 157.570312 95.894531 157.570312 95.460938 C 157.570312 95.03125 157.652344 94.617188 157.816406 94.21875 C 157.980469 93.820312 158.214844 93.472656 158.519531 93.167969 C 158.824219 92.863281 159.175781 92.628906 159.574219 92.460938 C 159.96875 92.296875 160.382812 92.214844 160.816406 92.214844 C 161.246094 92.214844 161.660156 92.296875 162.054688 92.460938 C 162.453125 92.628906 162.804688 92.863281 163.109375 93.167969 C 163.414062 93.472656 163.648438 93.820312 163.8125 94.21875 C 163.976562 94.617188 164.058594 95.03125 164.058594 95.460938 Z M 164.058594 95.460938 " fill-opacity="1" fill-rule="nonzero"/><path fill="#ffffff" d="M 175.894531 95.460938 C 175.894531 95.894531 175.8125 96.308594 175.648438 96.703125 C 175.484375 97.101562 175.25 97.453125 174.945312 97.757812 C 174.640625 98.0625 174.289062 98.296875 173.894531 98.460938 C 173.496094 98.625 173.082031 98.710938 172.652344 98.710938 C 172.222656 98.710938 171.808594 98.625 171.410156 98.460938 C 171.011719 98.296875 170.660156 98.0625 170.355469 97.757812 C 170.054688 97.453125 169.820312 97.101562 169.652344 96.703125 C 169.488281 96.308594 169.40625 95.894531 169.40625 95.460938 C 169.40625 95.03125 169.488281 94.617188 169.652344 94.21875 C 169.820312 93.820312 170.054688 93.472656 170.355469 93.167969 C 170.660156 92.863281 171.011719 92.628906 171.410156 92.460938 C 171.808594 92.296875 172.222656 92.214844 172.652344 92.214844 C 173.082031 92.214844 173.496094 92.300781 173.890625 92.464844 C 174.289062 92.628906 174.636719 92.867188 174.941406 93.167969 C 175.246094 93.472656 175.480469 93.824219 175.644531 94.222656 C 175.8125 94.617188 175.894531 95.03125 175.894531 95.460938 Z M 175.894531 95.460938 " fill-opacity="1" fill-rule="nonzero"/><path fill="#ffffff" d="M 187.722656 95.460938 C 187.722656 95.894531 187.640625 96.308594 187.476562 96.703125 C 187.308594 97.101562 187.074219 97.453125 186.773438 97.757812 C 186.46875 98.0625 186.117188 98.296875 185.71875 98.460938 C 185.320312 98.625 184.90625 98.710938 184.476562 98.710938 C 184.046875 98.710938 183.632812 98.625 183.234375 98.460938 C 182.839844 98.296875 182.488281 98.0625 182.183594 97.757812 C 181.878906 97.453125 181.644531 97.101562 181.480469 96.703125 C 181.316406 96.308594 181.234375 95.894531 181.234375 95.460938 C 181.234375 95.03125 181.316406 94.617188 181.480469 94.21875 C 181.644531 93.820312 181.878906 93.472656 182.183594 93.167969 C 182.488281 92.863281 182.839844 92.628906 183.234375 92.460938 C 183.632812 92.296875 184.046875 92.214844 184.476562 92.214844 C 184.90625 92.214844 185.320312 92.296875 185.71875 92.460938 C 186.117188 92.628906 186.46875 92.863281 186.773438 93.167969 C 187.074219 93.472656 187.308594 93.820312 187.476562 94.21875 C 187.640625 94.617188 187.722656 95.03125 187.722656 95.460938 Z M 187.722656 95.460938 " fill-opacity="1" fill-rule="nonzero"/><path fill="#ffffff" d="M 199.578125 95.460938 C 199.578125 95.894531 199.496094 96.308594 199.332031 96.703125 C 199.167969 97.101562 198.933594 97.453125 198.628906 97.757812 C 198.324219 98.0625 197.972656 98.296875 197.578125 98.460938 C 197.179688 98.625 196.765625 98.710938 196.335938 98.710938 C 195.90625 98.710938 195.492188 98.625 195.09375 98.460938 C 194.695312 98.296875 194.34375 98.0625 194.039062 97.757812 C 193.738281 97.453125 193.503906 97.101562 193.335938 96.703125 C 193.171875 96.308594 193.089844 95.894531 193.089844 95.460938 C 193.089844 95.03125 193.171875 94.617188 193.335938 94.21875 C 193.503906 93.820312 193.738281 93.472656 194.039062 93.167969 C 194.34375 92.863281 194.695312 92.628906 195.09375 92.460938 C 195.492188 92.296875 195.90625 92.214844 196.335938 92.214844 C 196.765625 92.214844 197.179688 92.300781 197.574219 92.464844 C 197.972656 92.628906 198.324219 92.867188 198.625 93.167969 C 198.929688 93.472656 199.164062 93.824219 199.328125 94.222656 C 199.496094 94.617188 199.578125 95.03125 199.578125 95.460938 Z M 199.578125 95.460938 " fill-opacity="1" fill-rule="nonzero"/><path fill="#4590b0" d="M 338.925781 179.183594 L 300.78125 179.183594 C 300.179688 179.183594 299.585938 179.242188 298.996094 179.359375 C 298.40625 179.476562 297.832031 179.652344 297.277344 179.882812 C 296.722656 180.113281 296.191406 180.394531 295.691406 180.730469 C 295.191406 181.0625 294.730469 181.445312 294.304688 181.871094 C 293.878906 182.296875 293.5 182.757812 293.164062 183.257812 C 292.832031 183.757812 292.546875 184.289062 292.316406 184.84375 C 292.085938 185.402344 291.914062 185.972656 291.796875 186.5625 C 291.679688 187.15625 291.621094 187.75 291.621094 188.351562 C 291.621094 189.851562 291.972656 191.261719 292.675781 192.582031 L 289.6875 198.050781 C 289.511719 198.363281 289.445312 198.691406 289.484375 199.046875 C 289.527344 199.402344 289.667969 199.707031 289.90625 199.96875 C 290.148438 200.230469 290.445312 200.398438 290.792969 200.464844 C 291.140625 200.535156 291.476562 200.496094 291.800781 200.347656 L 298.914062 197.320312 C 299.542969 197.457031 300.179688 197.527344 300.824219 197.523438 L 338.96875 197.523438 C 339.570312 197.523438 340.164062 197.464844 340.753906 197.347656 C 341.34375 197.230469 341.917969 197.054688 342.472656 196.824219 C 343.027344 196.59375 343.558594 196.3125 344.058594 195.976562 C 344.558594 195.644531 345.019531 195.261719 345.445312 194.835938 C 345.871094 194.410156 346.25 193.949219 346.585938 193.449219 C 346.917969 192.945312 347.203125 192.417969 347.433594 191.863281 C 347.664062 191.304688 347.835938 190.734375 347.953125 190.140625 C 348.070312 189.550781 348.128906 188.957031 348.128906 188.351562 C 348.128906 187.75 348.070312 187.152344 347.953125 186.558594 C 347.835938 185.96875 347.660156 185.390625 347.429688 184.835938 C 347.195312 184.277344 346.914062 183.746094 346.578125 183.246094 C 346.242188 182.742188 345.859375 182.28125 345.429688 181.855469 C 345.003906 181.429688 344.539062 181.046875 344.035156 180.714844 C 343.53125 180.378906 343.003906 180.097656 342.445312 179.871094 C 341.886719 179.640625 341.3125 179.46875 340.71875 179.351562 C 340.125 179.238281 339.527344 179.179688 338.925781 179.183594 Z M 338.925781 179.183594 " fill-opacity="1" fill-rule="nonzero"/><path fill="#ffffff" d="M 305.71875 188.417969 C 305.71875 188.847656 305.636719 189.261719 305.472656 189.660156 C 305.308594 190.058594 305.074219 190.40625 304.769531 190.710938 C 304.464844 191.015625 304.113281 191.25 303.714844 191.417969 C 303.316406 191.582031 302.90625 191.664062 302.472656 191.664062 C 302.042969 191.664062 301.628906 191.582031 301.234375 191.417969 C 300.835938 191.25 300.484375 191.015625 300.179688 190.710938 C 299.875 190.40625 299.640625 190.058594 299.476562 189.660156 C 299.3125 189.261719 299.230469 188.847656 299.230469 188.417969 C 299.230469 187.984375 299.3125 187.570312 299.476562 187.175781 C 299.640625 186.777344 299.875 186.425781 300.179688 186.121094 C 300.484375 185.816406 300.835938 185.582031 301.234375 185.417969 C 301.628906 185.253906 302.042969 185.167969 302.472656 185.167969 C 302.90625 185.167969 303.316406 185.253906 303.714844 185.417969 C 304.113281 185.582031 304.464844 185.816406 304.769531 186.121094 C 305.074219 186.425781 305.308594 186.777344 305.472656 187.175781 C 305.636719 187.570312 305.71875 187.984375 305.71875 188.417969 Z M 305.71875 188.417969 " fill-opacity="1" fill-rule="nonzero"/><path fill="#ffffff" d="M 317.542969 188.417969 C 317.542969 188.847656 317.460938 189.261719 317.296875 189.660156 C 317.132812 190.058594 316.898438 190.410156 316.59375 190.714844 C 316.289062 191.019531 315.9375 191.253906 315.539062 191.417969 C 315.140625 191.582031 314.726562 191.664062 314.296875 191.664062 C 313.867188 191.664062 313.453125 191.582031 313.054688 191.414062 C 312.65625 191.25 312.304688 191.015625 312.003906 190.707031 C 311.699219 190.402344 311.464844 190.050781 311.300781 189.652344 C 311.136719 189.253906 311.054688 188.839844 311.054688 188.410156 C 311.058594 187.980469 311.140625 187.5625 311.304688 187.167969 C 311.472656 186.769531 311.707031 186.417969 312.011719 186.113281 C 312.316406 185.8125 312.667969 185.578125 313.066406 185.414062 C 313.464844 185.25 313.878906 185.167969 314.3125 185.167969 C 314.738281 185.171875 315.152344 185.253906 315.550781 185.417969 C 315.945312 185.585938 316.296875 185.820312 316.597656 186.125 C 316.902344 186.429688 317.136719 186.78125 317.296875 187.175781 C 317.460938 187.574219 317.542969 187.988281 317.542969 188.417969 Z M 317.542969 188.417969 " fill-opacity="1" fill-rule="nonzero"/><path fill="#ffffff" d="M 329.382812 188.417969 C 329.382812 188.847656 329.300781 189.261719 329.132812 189.660156 C 328.96875 190.058594 328.734375 190.40625 328.429688 190.710938 C 328.125 191.015625 327.777344 191.25 327.378906 191.417969 C 326.980469 191.582031 326.566406 191.664062 326.136719 191.664062 C 325.707031 191.664062 325.292969 191.582031 324.894531 191.417969 C 324.496094 191.25 324.148438 191.015625 323.84375 190.710938 C 323.539062 190.40625 323.304688 190.058594 323.140625 189.660156 C 322.976562 189.261719 322.890625 188.847656 322.890625 188.417969 C 322.890625 187.984375 322.976562 187.570312 323.140625 187.175781 C 323.304688 186.777344 323.539062 186.425781 323.84375 186.121094 C 324.148438 185.816406 324.496094 185.582031 324.894531 185.417969 C 325.292969 185.253906 325.707031 185.167969 326.136719 185.167969 C 326.566406 185.167969 326.980469 185.253906 327.378906 185.417969 C 327.777344 185.582031 328.125 185.816406 328.429688 186.121094 C 328.734375 186.425781 328.96875 186.777344 329.132812 187.175781 C 329.300781 187.570312 329.382812 187.984375 329.382812 188.417969 Z M 329.382812 188.417969 " fill-opacity="1" fill-rule="nonzero"/><path fill="#ffffff" d="M 341.195312 188.417969 C 341.195312 188.847656 341.113281 189.261719 340.949219 189.660156 C 340.785156 190.058594 340.550781 190.410156 340.246094 190.714844 C 339.941406 191.019531 339.589844 191.253906 339.191406 191.417969 C 338.792969 191.582031 338.378906 191.664062 337.949219 191.664062 C 337.519531 191.664062 337.105469 191.582031 336.707031 191.414062 C 336.308594 191.25 335.957031 191.015625 335.65625 190.707031 C 335.351562 190.402344 335.117188 190.050781 334.953125 189.652344 C 334.789062 189.253906 334.707031 188.839844 334.707031 188.410156 C 334.707031 187.980469 334.792969 187.5625 334.957031 187.167969 C 335.125 186.769531 335.359375 186.417969 335.664062 186.113281 C 335.96875 185.8125 336.320312 185.578125 336.71875 185.414062 C 337.117188 185.25 337.53125 185.167969 337.964844 185.167969 C 338.390625 185.171875 338.804688 185.253906 339.203125 185.417969 C 339.597656 185.585938 339.949219 185.820312 340.25 186.125 C 340.554688 186.429688 340.785156 186.78125 340.949219 187.175781 C 341.113281 187.574219 341.195312 187.988281 341.195312 188.417969 Z M 341.195312 188.417969 " fill-opacity="1" fill-rule="nonzero"/><path fill="#4590b0" d="M 106.417969 252.445312 L 104.886719 253.734375 C 102.335938 255.898438 99.566406 257.730469 96.578125 259.234375 C 93.59375 260.738281 90.472656 261.867188 87.214844 262.628906 L 85.019531 263.148438 C 84.460938 262.414062 83.867188 261.714844 83.230469 261.050781 C 82.59375 260.386719 81.917969 259.761719 81.207031 259.175781 C 80.496094 258.59375 79.753906 258.050781 78.980469 257.554688 C 78.207031 257.054688 77.40625 256.605469 76.578125 256.203125 C 75.75 255.796875 74.902344 255.445312 74.035156 255.140625 C 73.164062 254.835938 72.28125 254.585938 71.382812 254.386719 C 70.484375 254.1875 69.578125 254.039062 68.664062 253.945312 C 67.746094 253.855469 66.832031 253.816406 65.910156 253.828125 C 64.992188 253.84375 64.074219 253.914062 63.164062 254.035156 C 62.25 254.160156 61.347656 254.335938 60.457031 254.5625 C 59.566406 254.792969 58.691406 255.070312 57.832031 255.402344 C 56.976562 255.734375 56.140625 256.117188 55.324219 256.546875 C 54.511719 256.976562 53.726562 257.453125 52.96875 257.972656 C 52.210938 258.496094 51.484375 259.0625 50.792969 259.667969 C 50.101562 260.277344 49.449219 260.921875 48.835938 261.609375 C 48.21875 262.292969 47.644531 263.011719 47.113281 263.761719 C 46.582031 264.515625 46.097656 265.292969 45.660156 266.105469 C 45.21875 266.914062 44.828125 267.746094 44.488281 268.601562 C 44.144531 269.453125 43.855469 270.328125 43.617188 271.214844 C 43.375 272.105469 43.191406 273.003906 43.054688 273.914062 C 42.921875 274.828125 42.84375 275.742188 42.816406 276.664062 C 42.789062 277.582031 42.820312 278.503906 42.902344 279.417969 C 42.984375 280.335938 43.117188 281.246094 43.304688 282.148438 C 43.496094 283.046875 43.734375 283.933594 44.027344 284.808594 C 44.320312 285.679688 44.664062 286.535156 45.058594 287.367188 C 45.453125 288.199219 45.890625 289.003906 46.378906 289.785156 C 46.867188 290.566406 47.398438 291.316406 47.976562 292.035156 C 48.550781 292.753906 49.167969 293.433594 49.824219 294.082031 C 50.480469 294.726562 51.171875 295.332031 51.898438 295.894531 C 52.625 296.460938 53.382812 296.980469 54.171875 297.457031 C 54.957031 297.929688 55.769531 298.359375 56.609375 298.738281 C 57.449219 299.117188 58.304688 299.445312 59.183594 299.726562 C 60.058594 300.003906 60.949219 300.230469 61.851562 300.402344 C 62.757812 300.578125 63.667969 300.699219 64.585938 300.765625 C 65.503906 300.832031 66.421875 300.84375 67.339844 300.804688 C 68.257812 300.761719 69.171875 300.667969 70.082031 300.519531 C 70.988281 300.371094 71.886719 300.167969 72.769531 299.914062 C 73.65625 299.660156 74.519531 299.355469 75.371094 299 C 76.21875 298.644531 77.042969 298.238281 77.84375 297.785156 C 78.644531 297.332031 79.417969 296.835938 80.160156 296.292969 C 80.902344 295.746094 81.609375 295.160156 82.285156 294.535156 C 82.957031 293.90625 83.59375 293.242188 84.1875 292.542969 C 84.785156 291.839844 85.335938 291.105469 85.84375 290.339844 C 86.355469 289.570312 86.816406 288.777344 87.234375 287.957031 C 87.648438 287.136719 88.015625 286.292969 88.335938 285.429688 C 88.652344 284.5625 88.917969 283.683594 89.128906 282.789062 C 89.34375 281.894531 89.503906 280.988281 89.613281 280.074219 C 89.71875 279.160156 89.773438 278.242188 89.773438 277.320312 C 89.773438 276.949219 89.773438 276.589844 89.773438 276.261719 L 91.886719 274.769531 C 95.625 272.171875 98.863281 269.046875 101.59375 265.402344 C 104.324219 261.753906 106.410156 257.769531 107.855469 253.449219 C 107.9375 253.253906 107.945312 253.058594 107.886719 252.855469 C 107.828125 252.652344 107.710938 252.492188 107.539062 252.371094 C 107.367188 252.25 107.175781 252.199219 106.964844 252.210938 C 106.757812 252.226562 106.574219 252.304688 106.417969 252.445312 Z M 106.417969 252.445312 " fill-opacity="1" fill-rule="nonzero"/><path fill="#ffffff" d="M 68.003906 262.875 L 71.171875 269.324219 C 71.472656 269.921875 71.949219 270.277344 72.609375 270.382812 L 79.722656 271.441406 C 80.082031 271.492188 80.398438 271.636719 80.675781 271.871094 C 80.953125 272.105469 81.144531 272.398438 81.257812 272.742188 C 81.371094 273.085938 81.382812 273.433594 81.296875 273.789062 C 81.210938 274.140625 81.039062 274.441406 80.78125 274.699219 L 75.632812 279.722656 C 75.15625 280.191406 74.972656 280.753906 75.082031 281.414062 L 76.296875 288.5 C 76.363281 288.859375 76.324219 289.207031 76.1875 289.542969 C 76.050781 289.882812 75.835938 290.15625 75.542969 290.371094 C 75.246094 290.585938 74.917969 290.703125 74.554688 290.726562 C 74.191406 290.753906 73.851562 290.679688 73.53125 290.507812 L 67.1875 287.167969 C 66.59375 286.851562 66 286.851562 65.402344 287.167969 L 59.0625 290.507812 C 58.742188 290.679688 58.398438 290.753906 58.035156 290.726562 C 57.671875 290.703125 57.34375 290.585938 57.050781 290.371094 C 56.753906 290.15625 56.539062 289.882812 56.402344 289.542969 C 56.265625 289.207031 56.230469 288.859375 56.292969 288.5 L 57.507812 281.414062 C 57.617188 280.753906 57.433594 280.191406 56.957031 279.722656 L 51.8125 274.699219 C 51.554688 274.441406 51.382812 274.140625 51.296875 273.789062 C 51.210938 273.433594 51.222656 273.085938 51.332031 272.742188 C 51.445312 272.398438 51.640625 272.105469 51.917969 271.871094 C 52.191406 271.636719 52.511719 271.492188 52.867188 271.441406 L 59.980469 270.382812 C 60.640625 270.277344 61.121094 269.925781 61.417969 269.324219 L 64.589844 262.875 C 64.75 262.550781 64.988281 262.296875 65.292969 262.105469 C 65.601562 261.917969 65.933594 261.824219 66.296875 261.824219 C 66.65625 261.824219 66.992188 261.917969 67.296875 262.105469 C 67.605469 262.296875 67.839844 262.550781 68.003906 262.875 Z M 68.003906 262.875 " fill-opacity="1" fill-rule="nonzero"/><path fill="#45a6af" d="M 14.242188 191.472656 L 75.621094 191.472656 L 75.621094 207.335938 L 14.242188 207.335938 Z M 14.242188 191.472656 " fill-opacity="1" fill-rule="nonzero"/><path fill="#ffffff" d="M 35.84375 194.011719 L 32.015625 204.585938 L 29.078125 204.585938 L 26.699219 198.050781 L 24.25 204.597656 L 21.3125 204.597656 L 17.507812 194.023438 L 20.390625 194.023438 L 22.886719 201.160156 L 25.464844 194.023438 L 28.054688 194.023438 L 30.570312 201.160156 L 33.136719 194.023438 Z M 35.84375 194.011719 " fill-opacity="1" fill-rule="nonzero"/><path fill="#ffffff" d="M 53.945312 194.011719 L 50.132812 204.585938 L 47.183594 204.585938 L 44.816406 198.050781 L 42.363281 204.597656 L 39.425781 204.597656 L 35.621094 194.023438 L 38.507812 194.023438 L 40.988281 201.160156 L 43.578125 194.023438 L 46.167969 194.023438 L 48.671875 201.160156 L 51.242188 194.023438 Z M 53.945312 194.011719 " fill-opacity="1" fill-rule="nonzero"/><path fill="#ffffff" d="M 72.0625 194.011719 L 68.246094 204.585938 L 65.296875 204.585938 L 62.929688 198.050781 L 60.476562 204.597656 L 57.539062 204.597656 L 53.734375 194.023438 L 56.621094 194.023438 L 59.105469 201.160156 L 61.691406 194.023438 L 64.304688 194.023438 L 66.808594 201.160156 L 69.375 194.023438 Z M 72.0625 194.011719 " fill-opacity="1" fill-rule="nonzero"/><path stroke-linecap="round" transform="matrix(1.056845, 0, 0, 1.057621, 0.174258, 43.977268)" fill="none" stroke-linejoin="round" d="M 10.22867 139.459526 L 16.379053 139.459526 " stroke="#ffffff" stroke-width="2" stroke-opacity="1" stroke-miterlimit="4"/><path stroke-linecap="round" transform="matrix(1.056845, 0, 0, 1.057621, 0.174258, 43.977268)" fill="none" stroke-linejoin="round" d="M 10.22867 154.458542 L 16.379053 154.458542 " stroke="#ffffff" stroke-width="2" stroke-opacity="1" stroke-miterlimit="4"/><path stroke-linecap="round" transform="matrix(1.056845, 0, 0, 1.057621, 0.174258, 43.977268)" fill="none" stroke-linejoin="round" d="M 13.311254 139.459526 L 13.311254 154.458542 " stroke="#ffffff" stroke-width="2" stroke-opacity="1" stroke-miterlimit="4"/><path fill="#222042" d="M 185.015625 192.109375 L 179.636719 190.667969 L 174.257812 189.21875 L 175.707031 194.605469 L 177.144531 199.988281 L 180.089844 197.035156 L 186.230469 203.191406 L 188.207031 201.203125 L 182.066406 195.058594 Z M 185.015625 192.109375 " fill-opacity="1" fill-rule="nonzero"/></svg>