<svg xmlns="http://www.w3.org/2000/svg" xmlns:xlink="http://www.w3.org/1999/xlink" width="500" zoomAndPan="magnify" viewBox="0 0 375 374.999991" height="500" preserveAspectRatio="xMidYMid meet" version="1.0"><path fill="#604533" d="M 209.359375 176.445312 C 209.625 195.59375 206.964844 211.917969 193.746094 218.046875 C 198.832031 229.738281 198.996094 241.257812 193.746094 252.589844 L 187.476562 259.140625 L 181.207031 252.589844 C 175.09375 240.863281 174.855469 229.339844 181.207031 218.046875 C 180.992188 211.328125 182.226562 205.414062 187.476562 201.738281 L 187.476562 201.707031 C 186.859375 190.558594 189.820312 182.277344 196.851562 177.261719 C 200.710938 177.140625 204.898438 176.898438 209.359375 176.445312 Z M 209.359375 176.445312 " fill-opacity="1" fill-rule="nonzero"/><path fill="#655f68" d="M 243.847656 169.242188 L 243.847656 169.210938 C 245.023438 168.847656 246.136719 168.488281 247.253906 168.097656 C 250.871094 166.859375 254.335938 170.355469 253.011719 173.945312 C 251.109375 179.128906 249.089844 184.402344 246.890625 189.800781 C 243.304688 198.664062 239.597656 207.042969 235.886719 214.910156 C 234.894531 216.992188 234.382812 219.25 234.382812 221.574219 L 234.382812 227.300781 C 234.382812 231.429688 236.039062 235.410156 238.933594 238.304688 L 253.160156 252.589844 C 229.867188 259.039062 207.722656 263.351562 193.746094 252.589844 L 193.746094 218.046875 L 209.359375 176.445312 C 221.335938 166.445312 232.863281 163.476562 243.847656 169.242188 Z M 243.847656 169.242188 " fill-opacity="1" fill-rule="nonzero"/><path fill="#5d5560" d="M 165.589844 176.445312 C 176.519531 186.050781 180.691406 200.683594 181.207031 218.046875 L 181.207031 252.589844 C 158.9375 265.484375 138.703125 267.75 121.789062 252.589844 L 136.019531 238.304688 C 138.914062 235.410156 140.570312 231.429688 140.570312 227.300781 L 140.570312 221.574219 C 140.570312 219.25 140.058594 216.992188 139.0625 214.910156 C 135.355469 207.042969 131.648438 198.664062 128.0625 189.800781 C 125.859375 184.402344 123.839844 179.128906 121.941406 173.945312 C 120.613281 170.355469 124.082031 166.859375 127.699219 168.097656 C 128.8125 168.488281 129.929688 168.847656 131.105469 169.210938 L 131.105469 169.242188 C 145.554688 163.476562 156.847656 166.433594 165.589844 176.445312 Z M 165.589844 176.445312 " fill-opacity="1" fill-rule="nonzero"/><path fill="#655f68" d="M 281.648438 290.453125 C 312.003906 307.785156 327.707031 335.039062 321.953125 356.167969 C 321.953125 356.230469 321.921875 356.257812 321.921875 356.320312 C 318.847656 367.441406 308.566406 375.007812 297.050781 375.007812 L 266.453125 375.007812 Z M 281.648438 290.453125 " fill-opacity="1" fill-rule="nonzero"/><path fill="#5d5560" d="M 108.859375 374.980469 L 108.859375 375.007812 L 77.898438 375.007812 C 66.382812 375.007812 56.105469 367.441406 53.03125 356.320312 C 53.03125 356.257812 53 356.230469 53 356.167969 C 47.242188 334.945312 63.429688 307.574219 93.996094 290.242188 Z M 108.859375 374.980469 " fill-opacity="1" fill-rule="nonzero"/><path fill="#cdc7b9" d="M 187.820312 355.871094 L 281.40625 362.4375 C 280.140625 369.582031 273.960938 375.007812 266.453125 375.007812 L 109.21875 375.007812 C 109.101562 375.007812 108.980469 375.007812 108.859375 374.980469 C 101.535156 374.828125 95.472656 369.460938 94.238281 362.4375 Z M 187.820312 355.871094 " fill-opacity="1" fill-rule="nonzero"/><path fill="#e4e4e4" d="M 281.648438 290.453125 L 281.648438 359.753906 C 281.648438 360.660156 281.558594 361.566406 281.40625 362.4375 L 94.238281 362.4375 C 94.085938 361.566406 93.996094 360.660156 93.996094 359.753906 L 93.996094 267.84375 C 93.996094 259.402344 100.808594 252.589844 109.21875 252.589844 L 266.453125 252.589844 C 274.867188 252.589844 281.648438 259.402344 281.648438 267.84375 Z M 281.648438 290.453125 " fill-opacity="1" fill-rule="nonzero"/><path fill="#f7b6ad" d="M 255.753906 123.964844 C 264.074219 126.648438 269.199219 135.027344 267.839844 143.40625 C 266.394531 152.238281 258.105469 158.75 248.878906 157.90625 L 248.457031 157.757812 C 250.207031 152.8125 251.835938 147.265625 253.160156 141.175781 C 253.855469 137.949219 254.398438 134.847656 254.820312 131.890625 C 255.242188 129.117188 255.542969 126.496094 255.753906 123.964844 Z M 255.753906 123.964844 " fill-opacity="1" fill-rule="nonzero"/><path fill="#f7b6ad" d="M 126.492188 157.757812 L 126.070312 157.90625 C 116.847656 158.75 108.558594 152.238281 107.109375 143.40625 C 105.753906 135.027344 110.878906 126.648438 119.199219 123.964844 C 119.410156 126.496094 119.710938 129.117188 120.132812 131.890625 C 120.554688 134.847656 121.097656 137.949219 121.789062 141.175781 C 123.117188 147.265625 124.746094 152.8125 126.492188 157.757812 Z M 126.492188 157.757812 " fill-opacity="1" fill-rule="nonzero"/><path fill="#543927" d="M 187.476562 201.707031 L 187.476562 201.738281 L 181.207031 218.046875 L 165.589844 176.445312 C 170.335938 172.359375 174.5 173.019531 178.101562 177.261719 C 186.210938 181.417969 188.539062 190.207031 187.476562 201.707031 Z M 187.476562 201.707031 " fill-opacity="1" fill-rule="nonzero"/><path fill="#fec4b9" d="M 254.820312 131.890625 C 254.398438 134.847656 253.855469 137.949219 253.160156 141.175781 C 251.835938 147.265625 250.207031 152.8125 248.457031 157.757812 C 246.980469 162.007812 245.382812 165.835938 243.847656 169.210938 L 243.847656 169.242188 C 238.179688 171.050781 231.878906 172.738281 225.007812 174.125 C 219.488281 175.210938 214.246094 175.964844 209.359375 176.445312 C 204.898438 176.898438 200.710938 177.140625 196.851562 177.261719 L 187.476562 201.707031 L 178.101562 177.261719 C 174.242188 177.140625 170.050781 176.898438 165.589844 176.445312 C 160.707031 175.964844 155.460938 175.210938 149.945312 174.125 C 143.074219 172.738281 136.773438 171.050781 131.105469 169.242188 L 131.105469 169.210938 C 129.566406 165.835938 127.96875 162.007812 126.492188 157.757812 C 124.746094 152.8125 123.117188 147.265625 121.789062 141.175781 C 121.097656 137.949219 120.554688 134.847656 120.132812 131.890625 Z M 254.820312 131.890625 " fill-opacity="1" fill-rule="nonzero"/><path fill="#5d5560" d="M 174.964844 120.527344 C 166.613281 125.65625 158.273438 125.121094 149.945312 118.871094 C 140.597656 109.773438 129.921875 108.914062 118.6875 114.621094 L 118.6875 114.648438 C 118.746094 117.511719 118.898438 120.648438 119.199219 123.964844 C 119.410156 126.496094 119.710938 129.117188 120.132812 131.890625 L 187.476562 150.21875 L 254.820312 131.890625 C 255.242188 129.117188 255.542969 126.496094 255.753906 123.964844 C 256.054688 120.648438 256.207031 117.511719 256.265625 114.648438 L 256.265625 114.621094 C 246.574219 108.453125 236.027344 109.71875 225.007812 118.871094 C 217.679688 123.796875 209.167969 123.621094 199.984375 120.527344 C 192.207031 113.175781 184.007812 111.308594 174.964844 120.527344 Z M 174.964844 120.527344 " fill-opacity="1" fill-rule="nonzero"/><path fill="#655f68" d="M 271.910156 86.222656 C 302.71875 89.085938 309.261719 92.792969 309.441406 95.628906 C 309.832031 101.085938 287.496094 109.132812 256.265625 114.621094 C 246.558594 116.335938 236.007812 117.816406 225.007812 118.871094 C 218.136719 125.242188 209.792969 125.777344 199.984375 120.527344 C 195.824219 120.679688 191.664062 120.738281 187.476562 120.738281 C 183.285156 120.738281 179.125 120.679688 174.964844 120.527344 C 165.90625 125.199219 157.410156 125.789062 149.945312 118.871094 C 138.941406 117.816406 128.390625 116.335938 118.6875 114.621094 C 87.457031 109.132812 65.117188 101.085938 65.511719 95.628906 C 65.691406 92.792969 72.234375 89.085938 103.039062 86.222656 Z M 271.910156 86.222656 " fill-opacity="1" fill-rule="nonzero"/><path fill="#604533" d="M 267.449219 68.378906 C 268.957031 73.863281 270.433594 79.800781 271.910156 86.222656 C 239.175781 93.609375 210.203125 95.628906 187.476562 95.628906 C 153.925781 95.628906 125.195312 91.226562 103.039062 86.222656 C 104.519531 79.800781 105.996094 73.863281 107.503906 68.378906 Z M 267.449219 68.378906 " fill-opacity="1" fill-rule="nonzero"/><path fill="#655f68" d="M 225.007812 1.457031 C 237.605469 3.386719 253.34375 17.101562 267.449219 68.378906 C 236.519531 74.949219 209.148438 76.789062 187.476562 76.789062 C 156.125 76.789062 129.023438 72.960938 107.503906 68.378906 C 121.609375 17.101562 137.34375 3.386719 149.945312 1.457031 C 158.71875 0.128906 165.199219 4.589844 187.476562 4.589844 C 209.753906 4.589844 216.234375 0.128906 225.007812 1.457031 Z M 225.007812 1.457031 " fill-opacity="1" fill-rule="nonzero"/><path fill="#e15c63" d="M 221.71875 337.507812 C 224.644531 343.144531 220.542969 349.898438 214.214844 349.898438 L 160.738281 349.898438 C 154.40625 349.898438 150.308594 343.144531 153.230469 337.507812 L 179.96875 285.902344 C 183.136719 279.8125 191.816406 279.8125 194.980469 285.902344 Z M 193.746094 331.058594 C 193.746094 327.589844 190.941406 324.789062 187.476562 324.789062 C 184.007812 324.789062 181.207031 327.589844 181.207031 331.058594 C 181.207031 334.523438 184.007812 337.328125 187.476562 337.328125 C 190.941406 337.328125 193.746094 334.523438 193.746094 331.058594 Z M 193.746094 331.058594 " fill-opacity="1" fill-rule="nonzero"/><path fill="#e7f2f1" d="M 193.746094 331.058594 C 193.746094 331.46875 193.707031 331.878906 193.625 332.28125 C 193.546875 332.683594 193.425781 333.078125 193.269531 333.457031 C 193.109375 333.835938 192.917969 334.199219 192.6875 334.542969 C 192.460938 334.882812 192.199219 335.199219 191.910156 335.492188 C 191.617188 335.78125 191.300781 336.042969 190.960938 336.269531 C 190.617188 336.5 190.253906 336.691406 189.875 336.851562 C 189.496094 337.007812 189.101562 337.128906 188.699219 337.207031 C 188.296875 337.289062 187.886719 337.328125 187.476562 337.328125 C 187.0625 337.328125 186.65625 337.289062 186.253906 337.207031 C 185.847656 337.128906 185.457031 337.007812 185.078125 336.851562 C 184.695312 336.691406 184.335938 336.5 183.992188 336.269531 C 183.648438 336.042969 183.332031 335.78125 183.042969 335.492188 C 182.75 335.199219 182.492188 334.882812 182.261719 334.542969 C 182.035156 334.199219 181.839844 333.835938 181.683594 333.457031 C 181.527344 333.078125 181.40625 332.683594 181.328125 332.28125 C 181.246094 331.878906 181.207031 331.46875 181.207031 331.058594 C 181.207031 330.644531 181.246094 330.238281 181.328125 329.835938 C 181.40625 329.429688 181.527344 329.039062 181.683594 328.660156 C 181.839844 328.277344 182.035156 327.917969 182.261719 327.574219 C 182.492188 327.230469 182.75 326.914062 183.042969 326.625 C 183.332031 326.332031 183.648438 326.074219 183.992188 325.84375 C 184.335938 325.617188 184.695312 325.421875 185.078125 325.265625 C 185.457031 325.109375 185.847656 324.988281 186.253906 324.910156 C 186.65625 324.828125 187.0625 324.789062 187.476562 324.789062 C 187.886719 324.789062 188.296875 324.828125 188.699219 324.910156 C 189.101562 324.988281 189.496094 325.109375 189.875 325.265625 C 190.253906 325.421875 190.617188 325.617188 190.960938 325.84375 C 191.300781 326.074219 191.617188 326.332031 191.910156 326.625 C 192.199219 326.914062 192.460938 327.230469 192.6875 327.574219 C 192.917969 327.917969 193.109375 328.277344 193.269531 328.660156 C 193.425781 329.039062 193.546875 329.429688 193.625 329.835938 C 193.707031 330.238281 193.746094 330.644531 193.746094 331.058594 Z M 193.746094 331.058594 " fill-opacity="1" fill-rule="nonzero"/><path fill="#d0e6a6" d="M 225.007812 118.871094 C 225.757812 126.707031 219.578125 133.339844 212.496094 133.308594 C 206.015625 133.277344 200.195312 127.703125 199.984375 120.527344 C 208.457031 120.226562 216.867188 119.652344 225.007812 118.871094 Z M 225.007812 118.871094 " fill-opacity="1" fill-rule="nonzero"/><path fill="#d0e6a6" d="M 174.964844 120.527344 C 174.753906 127.703125 168.9375 133.277344 162.457031 133.308594 C 155.371094 133.339844 149.191406 126.707031 149.945312 118.871094 C 158.085938 119.652344 166.496094 120.226562 174.964844 120.527344 Z M 174.964844 120.527344 " fill-opacity="1" fill-rule="nonzero"/><path fill="#bcb7ad" d="M 97.101562 368.917969 C 98.246094 368.917969 125.105469 369.191406 157.390625 362.4375 L 281.40625 362.4375 C 280.140625 369.582031 273.960938 375.007812 266.453125 375.007812 L 109.21875 375.007812 C 109.101562 375.007812 108.980469 375.007812 108.859375 374.980469 C 104.035156 374.886719 99.785156 372.539062 97.101562 368.917969 Z M 97.101562 368.917969 " fill-opacity="1" fill-rule="nonzero"/><path fill="#d1d1d1" d="M 157.390625 362.4375 C 170.777344 359.636719 185.09375 355.625 198.871094 349.898438 L 214.214844 349.898438 C 220.332031 349.898438 224.34375 343.628906 221.992188 338.113281 C 249.453125 321.019531 270.523438 294.460938 270.523438 253.164062 C 276.945312 254.914062 281.648438 260.820312 281.648438 267.84375 L 281.648438 359.753906 C 281.648438 360.660156 281.558594 361.566406 281.40625 362.4375 Z M 157.390625 362.4375 " fill-opacity="1" fill-rule="nonzero"/><path fill="#d14b62" d="M 221.992188 338.113281 C 224.34375 343.628906 220.332031 349.898438 214.214844 349.898438 L 198.871094 349.898438 C 206.859375 346.582031 214.667969 342.695312 221.992188 338.113281 Z M 221.992188 338.113281 " fill-opacity="1" fill-rule="nonzero"/><path fill="#5d5560" d="M 217.078125 75.640625 C 229.46875 60.417969 232.179688 37.027344 216.957031 1.605469 C 219.761719 1.183594 222.292969 1.035156 225.007812 1.457031 C 237.605469 3.386719 253.34375 17.101562 267.449219 68.378906 C 249.300781 72.234375 232.359375 74.464844 217.078125 75.640625 Z M 217.078125 75.640625 " fill-opacity="1" fill-rule="nonzero"/><path fill="#543927" d="M 267.449219 68.378906 C 268.957031 73.863281 270.433594 79.800781 271.910156 86.222656 C 239.175781 93.609375 210.203125 95.628906 187.476562 95.628906 C 186.449219 95.628906 185.425781 95.628906 184.402344 95.597656 C 197.753906 91.527344 209.300781 85.199219 217.078125 75.640625 C 232.359375 74.464844 249.300781 72.234375 267.449219 68.378906 Z M 267.449219 68.378906 " fill-opacity="1" fill-rule="nonzero"/><path fill="#5d5560" d="M 309.441406 95.628906 C 309.832031 101.085938 287.496094 109.132812 256.265625 114.621094 C 246.558594 116.335938 236.007812 117.816406 225.007812 118.871094 C 216.867188 119.652344 208.457031 120.226562 199.984375 120.527344 C 195.824219 120.679688 191.664062 120.738281 187.476562 120.738281 C 183.285156 120.738281 179.125 120.679688 174.964844 120.527344 C 166.496094 120.226562 158.085938 119.652344 149.945312 118.871094 C 138.941406 117.816406 128.390625 116.335938 118.6875 114.621094 C 87.457031 109.132812 65.117188 101.085938 65.511719 95.628906 C 65.511719 95.628906 136.441406 110.21875 184.402344 95.597656 C 185.425781 95.628906 186.449219 95.628906 187.476562 95.628906 C 210.203125 95.628906 239.175781 93.609375 271.910156 86.222656 C 302.71875 89.085938 309.261719 92.792969 309.441406 95.628906 Z M 309.441406 95.628906 " fill-opacity="1" fill-rule="nonzero"/><path fill="#524956" d="M 256.265625 114.621094 L 256.265625 114.648438 C 256.207031 117.511719 256.054688 120.648438 255.753906 123.964844 C 243.996094 126.765625 232.269531 128.847656 220.574219 130.144531 C 223.589844 127.492188 225.429688 123.390625 225.007812 118.871094 C 236.007812 117.816406 246.558594 116.335938 256.265625 114.621094 Z M 256.265625 114.621094 " fill-opacity="1" fill-rule="nonzero"/><path fill="#c4d69d" d="M 225.007812 118.871094 C 225.429688 123.390625 223.589844 127.492188 220.574219 130.144531 C 215.78125 130.6875 210.957031 131.109375 206.164062 131.410156 C 202.636719 129.210938 200.136719 125.199219 199.984375 120.527344 C 208.457031 120.226562 216.867188 119.652344 225.007812 118.871094 Z M 225.007812 118.871094 " fill-opacity="1" fill-rule="nonzero"/><path fill="#524956" d="M 199.984375 120.527344 C 200.136719 125.199219 202.636719 129.210938 206.164062 131.410156 C 193.835938 132.132812 181.507812 132.074219 169.207031 131.136719 C 172.523438 128.878906 174.84375 125.019531 174.964844 120.527344 C 179.125 120.679688 183.285156 120.738281 187.476562 120.738281 C 191.664062 120.738281 195.824219 120.679688 199.984375 120.527344 Z M 199.984375 120.527344 " fill-opacity="1" fill-rule="nonzero"/><path fill="#c4d69d" d="M 174.964844 120.527344 C 174.84375 125.019531 172.523438 128.878906 169.207031 131.136719 C 164.054688 130.777344 158.898438 130.234375 153.773438 129.570312 C 151.121094 126.917969 149.554688 123.058594 149.945312 118.871094 C 158.085938 119.652344 166.496094 120.226562 174.964844 120.527344 Z M 174.964844 120.527344 " fill-opacity="1" fill-rule="nonzero"/><path fill="#524956" d="M 118.6875 114.621094 C 128.390625 116.335938 138.941406 117.816406 149.945312 118.871094 C 149.554688 123.058594 151.121094 126.917969 153.773438 129.570312 C 142.199219 128.09375 130.652344 125.863281 119.109375 122.910156 C 118.867188 119.984375 118.746094 117.210938 118.6875 114.648438 Z M 118.6875 114.621094 " fill-opacity="1" fill-rule="nonzero"/><path fill="#e7f2f1" d="M 187.476562 293.527344 C 185.8125 293.527344 184.460938 294.878906 184.460938 296.542969 L 184.460938 315.351562 C 184.460938 317.015625 185.8125 318.367188 187.476562 318.367188 C 189.140625 318.367188 190.492188 317.015625 190.492188 315.351562 L 190.492188 296.542969 C 190.492188 294.878906 189.140625 293.527344 187.476562 293.527344 Z M 187.476562 293.527344 " fill-opacity="1" fill-rule="nonzero"/><path fill="#ad6a6a" d="M 205.003906 153.039062 C 203.5 152.332031 201.699219 152.980469 200.992188 154.488281 C 197.359375 162.238281 183.910156 162.15625 183.78125 162.128906 C 182.074219 162.148438 180.75 163.433594 180.722656 165.09375 C 180.695312 166.757812 182.019531 168.125 183.679688 168.15625 C 183.714844 168.15625 183.785156 168.15625 183.894531 168.15625 C 185.988281 168.15625 201.417969 167.78125 206.449219 157.042969 C 207.15625 155.539062 206.507812 153.742188 205.003906 153.039062 Z M 205.003906 153.039062 " fill-opacity="1" fill-rule="nonzero"/></svg>