<svg xmlns="http://www.w3.org/2000/svg" xmlns:xlink="http://www.w3.org/1999/xlink" width="500" zoomAndPan="magnify" viewBox="0 0 375 374.999991" height="500" preserveAspectRatio="xMidYMid meet" version="1.0"><defs><clipPath id="10c502b38a"><path d="M 25.042969 145 L 349.707031 145 L 349.707031 352.871094 L 25.042969 352.871094 Z M 25.042969 145 " clip-rule="nonzero"/></clipPath></defs><path fill="#ee4d28" d="M 314.703125 117.09375 L 231.582031 24.855469 C 208.988281 -0.0234375 165.769531 -0.0234375 143.15625 24.855469 L 60.042969 117.09375 C 52.140625 125.796875 47.6875 136.886719 46.976562 148.539062 C 86.027344 124.144531 141.34375 114.320312 187.375 114.320312 C 232.800781 114.320312 289.125 124.304688 327.742188 148.238281 C 326.96875 136.695312 322.535156 125.722656 314.703125 117.09375 " fill-opacity="1" fill-rule="nonzero"/><path fill="#ee4d28" d="M 187.375 135.984375 C 168.65625 135.984375 150.414062 137.652344 133.265625 140.621094 L 133.265625 146.816406 C 133.265625 176.675781 157.539062 200.972656 187.375 200.972656 C 217.210938 200.972656 241.484375 176.679688 241.484375 146.816406 L 241.484375 140.648438 C 224.328125 137.710938 206.152344 135.984375 187.375 135.984375 " fill-opacity="1" fill-rule="nonzero"/><g clip-path="url(#10c502b38a)"><path fill="#ee4d28" d="M 291.789062 209.277344 L 313.011719 188.023438 C 317.707031 183.328125 321.324219 177.855469 323.867188 171.925781 C 308.535156 160.621094 287.625 151.4375 263.128906 145.207031 L 263.128906 146.816406 C 263.128906 188.617188 229.140625 222.636719 187.375 222.636719 C 145.609375 222.636719 111.617188 188.617188 111.617188 146.816406 L 111.617188 145.226562 C 87.121094 151.488281 66.097656 160.664062 50.816406 171.808594 C 53.359375 177.785156 57.011719 183.292969 61.734375 188.023438 L 82.957031 209.277344 C 48.113281 224.582031 25.042969 259.046875 25.042969 298.457031 L 25.042969 341.78125 C 25.042969 347.769531 29.878906 352.617188 35.863281 352.617188 L 89.976562 352.617188 L 89.976562 276.792969 C 89.976562 258.875 104.539062 244.300781 122.441406 244.300781 L 252.308594 244.300781 C 270.207031 244.300781 284.773438 258.875 284.773438 276.792969 L 284.773438 352.613281 L 338.882812 352.613281 C 344.863281 352.613281 349.707031 347.769531 349.707031 341.78125 L 349.707031 298.457031 C 349.707031 259.046875 326.632812 224.582031 291.789062 209.277344 " fill-opacity="1" fill-rule="nonzero"/></g><path fill="#ee4d28" d="M 252.308594 265.964844 L 122.441406 265.964844 C 116.464844 265.964844 111.617188 270.8125 111.617188 276.792969 L 111.617188 364.167969 C 111.617188 370.152344 116.464844 375 122.441406 375 L 252.308594 375 C 258.28125 375 263.128906 370.152344 263.128906 364.167969 L 263.128906 276.792969 C 263.128906 270.8125 258.28125 265.964844 252.308594 265.964844 Z M 209.015625 309.285156 L 165.726562 309.285156 C 159.75 309.285156 154.90625 304.441406 154.90625 298.457031 C 154.90625 292.46875 159.746094 287.625 165.726562 287.625 L 209.015625 287.625 C 215 287.625 219.839844 292.46875 219.839844 298.457031 C 219.839844 304.441406 215 309.285156 209.015625 309.285156 " fill-opacity="1" fill-rule="nonzero"/></svg>