<svg xmlns="http://www.w3.org/2000/svg" xmlns:xlink="http://www.w3.org/1999/xlink" width="500" zoomAndPan="magnify" viewBox="0 0 375 374.999991" height="500" preserveAspectRatio="xMidYMid meet" version="1.0"><defs><clipPath id="82a837d859"><path d="M 200 200 L 325.6875 200 L 325.6875 273 L 200 273 Z M 200 200 " clip-rule="nonzero"/></clipPath><clipPath id="9953d789cc"><path d="M 207 191 L 325.6875 191 L 325.6875 369 L 207 369 Z M 207 191 " clip-rule="nonzero"/></clipPath><clipPath id="3d228f6e37"><path d="M 282 187 L 325.6875 187 L 325.6875 212 L 282 212 Z M 282 187 " clip-rule="nonzero"/></clipPath></defs><path fill="#4c5671" d="M 204.46875 139.199219 L 122.265625 168.648438 L 75.367188 202.339844 C 75.367188 202.339844 69.867188 204.667969 64.738281 215.085938 L 64.738281 353.609375 C 74.554688 364.871094 95.558594 374.78125 140.480469 363.5625 C 222.53125 343.074219 251.433594 311.53125 260.820312 275.476562 C 270.109375 239.804688 260.042969 146.714844 204.46875 139.199219 Z M 204.46875 139.199219 " fill-opacity="1" fill-rule="nonzero"/><path fill="#272e3a" d="M 117.207031 172.28125 L 111.988281 200.929688 L 126.589844 200.929688 L 119.289062 220.421875 C 131.828125 238.546875 157.640625 257.996094 192.296875 278.3125 C 192.296875 278.3125 160.648438 208.574219 117.207031 172.28125 Z M 117.207031 172.28125 " fill-opacity="1" fill-rule="nonzero"/><path fill="#272e3a" d="M 204.46875 139.203125 L 225.351562 159.65625 L 213.054688 159.65625 L 223.253906 173.515625 C 223.253906 173.515625 218.449219 226.929688 192.296875 278.316406 C 192.296875 278.316406 201.511719 146.660156 204.46875 139.203125 Z M 204.46875 139.203125 " fill-opacity="1" fill-rule="nonzero"/><path fill="#373f51" d="M 204.46875 139.203125 L 122.265625 168.644531 L 117.207031 172.28125 C 146.757812 212.445312 192.296875 278.316406 192.296875 278.316406 C 208.941406 221.078125 204.46875 139.203125 204.46875 139.203125 Z M 204.46875 139.203125 " fill-opacity="1" fill-rule="nonzero"/><path fill="#f7c9a4" d="M 206.066406 140.515625 L 202.917969 120.863281 L 121.792969 140.039062 L 121.792969 168.648438 C 121.792969 168.648438 152.144531 189.226562 176.097656 195.917969 C 179.859375 196.96875 184.042969 195.070312 186.644531 192.164062 C 192.667969 185.433594 206.777344 154.15625 206.066406 140.515625 Z M 206.066406 140.515625 " fill-opacity="1" fill-rule="nonzero"/><path fill="#f9d5b4" d="M 221.84375 83.761719 C 221.84375 83.761719 213.6875 173.972656 172.070312 177.628906 C 130.453125 181.292969 99.851562 123.265625 103.109375 81.558594 C 106.371094 39.851562 203.992188 42.066406 221.84375 83.761719 Z M 221.84375 83.761719 " fill-opacity="1" fill-rule="nonzero"/><path fill="#4c5671" d="M 157.066406 78.105469 L 102.214844 78.105469 C 101.945312 89.5625 103.230469 100.691406 105.464844 109.867188 C 105.464844 109.867188 104.992188 92.132812 117.859375 102.695312 C 117.859375 102.695312 124.308594 92.578125 121.792969 122.203125 L 127.453125 125.148438 C 127.453125 125.148438 124.339844 106.15625 139.875 98.53125 C 146.339844 95.359375 150.589844 90.074219 157.066406 90.769531 Z M 157.066406 78.105469 " fill-opacity="1" fill-rule="nonzero"/><path fill="#4c5671" d="M 153.789062 127.152344 C 156.90625 126.625 160.015625 126.03125 163.0625 125.378906 C 168.972656 124.089844 174.53125 119.613281 177.082031 114.191406 C 178.25 111.789062 179.417969 109.332031 180.519531 106.8125 C 180.574219 106.746094 180.574219 106.6875 180.570312 106.621094 C 181.625 105.585938 182.761719 104.910156 183.910156 104.542969 C 185.789062 103.949219 187.476562 104.355469 188.714844 105.644531 L 188.777344 105.703125 C 189.21875 107.035156 189.722656 108.425781 190.285156 109.75 C 191.847656 113.792969 196.542969 115.207031 201.722656 112.90625 C 204.375 111.722656 207.023438 110.539062 209.605469 109.234375 C 218.316406 104.96875 222.78125 92.550781 219.300781 86.023438 C 217.375 82.1875 213.449219 81.40625 209.082031 83.847656 C 204.769531 86.285156 200.328125 88.550781 195.695312 90.636719 C 191.78125 92.378906 188.441406 96.921875 187.910156 100.890625 C 186.785156 100.574219 185.554688 100.640625 184.222656 101.019531 C 183.3125 101.3125 182.351562 101.792969 181.460938 102.453125 C 181.167969 99.210938 178.480469 97.316406 174.542969 98.570312 C 169.507812 100.121094 164.277344 101.441406 158.917969 102.640625 C 153.496094 103.785156 147.660156 107.660156 144.277344 112.511719 C 138.300781 120.824219 143.21875 128.8125 153.789062 127.152344 Z M 153.789062 127.152344 " fill-opacity="1" fill-rule="nonzero"/><path fill="#272e3a" d="M 200.832031 111.476562 C 203.503906 110.3125 206.132812 109.089844 208.710938 107.820312 C 216.523438 104.023438 220.914062 92.457031 217.914062 86.664062 C 214.683594 80.148438 207.242188 87.203125 196.421875 92.085938 C 192.21875 94.023438 188.445312 100.207031 189.757812 103.742188 C 191.761719 109.054688 192.988281 114.933594 200.832031 111.476562 Z M 200.832031 111.476562 " fill-opacity="1" fill-rule="nonzero"/><path fill="#272e3a" d="M 153.085938 125.539062 C 162.34375 124.003906 170.769531 122.9375 175.386719 113.460938 C 185.25 93.484375 177.453125 100.335938 159.511719 104.1875 C 143.316406 107.789062 136.859375 128.21875 153.085938 125.539062 Z M 153.085938 125.539062 " fill-opacity="1" fill-rule="nonzero"/><path fill="#414a61" d="M 106.855469 54.199219 C 81.765625 71.929688 84.539062 95.828125 113.183594 107.585938 C 141.765625 119.316406 185.34375 114.445312 210.433594 96.710938 C 235.578125 78.941406 232.691406 55.054688 204.109375 43.324219 C 175.464844 31.566406 132 36.429688 106.855469 54.199219 Z M 106.855469 54.199219 " fill-opacity="1" fill-rule="nonzero"/><path fill="#373f51" d="M 133.28125 7.929688 C 136.523438 7.878906 139.511719 8.824219 142.273438 10.625 C 146.761719 13.46875 152.464844 12.800781 156.0625 9.015625 C 158.265625 6.636719 160.910156 5.035156 164 4.347656 C 180.371094 0.679688 201.742188 29.558594 209.027344 56.535156 C 209.714844 58.960938 210.71875 64.371094 210.78125 64.667969 L 210.730469 64.675781 C 212.082031 71.917969 207.160156 79.859375 196.160156 86.5 C 177.183594 97.910156 145.714844 101.578125 124.359375 94.871094 C 112.035156 90.960938 105.265625 84.367188 104.710938 77.039062 L 104.476562 77.0625 C 104.203125 74.402344 104.03125 71.644531 104.023438 68.78125 C 104.015625 40.953125 116.445312 8.128906 133.28125 7.929688 Z M 133.28125 7.929688 " fill-opacity="1" fill-rule="nonzero"/><path fill="#272e3a" d="M 210.78125 64.667969 C 210.773438 64.640625 210.753906 64.535156 210.734375 64.433594 C 208.917969 69.671875 204.203125 74.941406 196.503906 79.589844 C 177.082031 91.265625 144.882812 95.019531 123.027344 88.15625 C 113.328125 85.074219 107.027344 80.367188 104.359375 74.945312 C 104.414062 75.636719 104.40625 76.382812 104.476562 77.066406 L 104.710938 77.035156 C 105.265625 84.367188 112.035156 90.960938 124.359375 94.871094 C 145.714844 101.582031 177.183594 97.914062 196.160156 86.5 C 207.160156 79.859375 212.082031 71.917969 210.730469 64.671875 Z M 210.78125 64.667969 " fill-opacity="1" fill-rule="nonzero"/><path fill="#e3e7f0" d="M 280.261719 161.792969 L 280.339844 188.957031 C 280.347656 192.445312 282.820312 193.808594 285.824219 192.078125 L 309.53125 178.40625 L 309.78125 231.953125 C 309.789062 235.441406 307.335938 239.691406 304.292969 241.441406 L 215.226562 292.796875 C 212.1875 294.550781 209.753906 293.121094 209.742188 289.632812 L 209.417969 208.921875 C 209.410156 205.433594 211.824219 201.25 214.867188 199.496094 Z M 280.261719 161.792969 " fill-opacity="1" fill-rule="nonzero"/><path fill="#ed5d71" d="M 280.261719 161.792969 L 309.53125 178.40625 L 285.824219 192.078125 C 282.820312 193.808594 280.347656 192.445312 280.339844 188.957031 Z M 280.261719 161.792969 " fill-opacity="1" fill-rule="nonzero"/><path fill="#b4bed7" d="M 226.03125 239.105469 L 226.082031 250.886719 L 296.480469 210.292969 L 296.429688 198.511719 Z M 226.03125 239.105469 " fill-opacity="1" fill-rule="nonzero"/><path fill="#b4bed7" d="M 226.03125 212.917969 L 226.082031 224.699219 L 265.398438 202.027344 L 265.351562 190.246094 Z M 226.03125 212.917969 " fill-opacity="1" fill-rule="nonzero"/><path fill="#febb61" d="M 200.03125 268.433594 L 199.828125 363.984375 L 207.652344 368.492188 L 207.855469 272.941406 Z M 200.03125 268.433594 " fill-opacity="1" fill-rule="nonzero"/><g clip-path="url(#82a837d859)"><path fill="#ffdd94" d="M 207.855469 272.945312 L 325.023438 204.941406 L 317.199219 200.433594 L 200.03125 268.433594 Z M 207.855469 272.945312 " fill-opacity="1" fill-rule="nonzero"/></g><g clip-path="url(#9953d789cc)"><path fill="#efa143" d="M 325.082031 191.710938 L 324.804688 300.488281 L 207.660156 368.441406 L 207.847656 272.898438 L 279.066406 231.609375 L 290.453125 211.847656 Z M 325.082031 191.710938 " fill-opacity="1" fill-rule="nonzero"/></g><path fill="#febb61" d="M 290.4375 211.804688 L 279.082031 231.601562 L 271.261719 227.09375 L 282.613281 207.296875 Z M 290.4375 211.804688 " fill-opacity="1" fill-rule="nonzero"/><g clip-path="url(#3d228f6e37)"><path fill="#ffdd94" d="M 290.4375 211.804688 L 325.054688 191.71875 L 317.230469 187.207031 L 282.613281 207.296875 Z M 290.4375 211.804688 " fill-opacity="1" fill-rule="nonzero"/></g><path fill="#373f51" d="M 118.882812 267.59375 C 110.859375 213.421875 93.792969 197.59375 80.933594 199.273438 C 69.671875 200.742188 59.453125 218.492188 56.183594 232.660156 C 49.410156 262.234375 53.183594 314.039062 59.15625 351.050781 C 60.8125 361.316406 69.761719 368.773438 80.175781 368.691406 L 106.671875 368.476562 C 105.257812 364.414062 116.25 339.992188 117.207031 335.90625 C 121.277344 318.070312 122.976562 295.242188 118.882812 267.59375 Z M 118.882812 267.59375 " fill-opacity="1" fill-rule="nonzero"/></svg>