<svg xmlns="http://www.w3.org/2000/svg" xmlns:xlink="http://www.w3.org/1999/xlink" width="500" zoomAndPan="magnify" viewBox="0 0 375 374.999991" height="500" preserveAspectRatio="xMidYMid meet" version="1.0"><path fill="#2ca5c3" d="M 0 195.472656 L 2.722656 133.679688 C 2.960938 131.308594 3.265625 128.289062 5.144531 126.8125 C 7.121094 125.261719 11.070312 124.53125 13.535156 123.847656 C 19.667969 122.15625 23.882812 120.617188 30.0625 118.867188 L 39.558594 128.335938 L 49.054688 118.867188 C 53.976562 120.261719 57.648438 121.519531 62.039062 122.828125 C 59.8125 125.675781 59.148438 129.21875 58.777344 132.910156 L 54.617188 174.167969 L 55.996094 195.472656 Z M 64.25 211.015625 L 62.3125 176.011719 L 66.40625 135.386719 C 66.644531 133.015625 66.949219 129.996094 68.828125 128.519531 C 70.804688 126.96875 74.753906 126.238281 77.21875 125.554688 C 83.355469 123.859375 87.566406 122.324219 93.746094 120.574219 L 103.242188 130.042969 L 107.269531 126.027344 C 105.960938 129.730469 104.710938 133.453125 103.492188 137.167969 C 101.847656 142.179688 101.316406 147.46875 102.253906 152.679688 C 105.753906 172.074219 110.972656 191.875 115.890625 211.011719 L 64.25 211.011719 Z M 103.242188 74.238281 C 112.054688 74.238281 119.199219 81.132812 119.199219 89.648438 C 119.199219 97.878906 113.269531 115.648438 103.242188 115.648438 C 93.214844 115.648438 87.285156 97.878906 87.285156 89.648438 C 87.285156 81.136719 94.429688 74.238281 103.242188 74.238281 Z M 375 190.359375 L 372.277344 131.976562 C 372.140625 129.597656 371.734375 126.585938 369.855469 125.109375 C 367.882812 123.558594 363.929688 122.828125 361.464844 122.144531 C 355.328125 120.449219 351.117188 118.914062 344.9375 117.164062 L 335.441406 126.632812 L 325.945312 117.164062 C 321.023438 118.558594 317.347656 119.816406 312.960938 121.125 C 315.1875 123.96875 315.855469 127.511719 316.226562 131.207031 L 320.386719 172.464844 L 319.007812 190.359375 Z M 335.441406 70.828125 C 326.628906 70.828125 319.484375 77.726562 319.484375 86.238281 C 319.484375 94.46875 325.410156 112.238281 335.441406 112.238281 C 345.46875 112.238281 351.398438 94.46875 351.398438 86.238281 C 351.398438 77.726562 344.253906 70.828125 335.441406 70.828125 Z M 310.753906 222.945312 L 312.6875 176.011719 L 308.59375 135.382812 C 308.351562 133.011719 308.050781 129.996094 306.167969 128.519531 C 304.195312 126.96875 300.246094 126.238281 297.78125 125.554688 C 291.644531 123.859375 287.433594 122.320312 281.253906 120.574219 L 271.757812 130.042969 L 267.730469 126.027344 C 269.039062 129.730469 270.292969 133.453125 271.511719 137.167969 C 273.152344 142.175781 273.683594 147.46875 272.746094 152.675781 C 269.207031 172.3125 263.898438 192.367188 258.929688 211.722656 C 257.648438 216.703125 254.898438 220.46875 251.4375 222.941406 L 310.753906 222.941406 Z M 271.757812 74.238281 C 262.945312 74.238281 255.800781 81.132812 255.800781 89.648438 C 255.800781 97.878906 261.730469 115.648438 271.757812 115.648438 C 281.785156 115.648438 287.71875 97.878906 287.71875 89.648438 C 287.714844 81.136719 280.570312 74.238281 271.757812 74.238281 Z M 187.5 61.375 C 172.636719 61.371094 163.851562 35.039062 163.851562 22.839844 C 163.851562 10.222656 174.4375 0 187.5 0 C 200.558594 0 211.148438 10.222656 211.148438 22.84375 C 211.148438 35.039062 202.359375 61.371094 187.5 61.375 Z M 232.089844 200.402344 C 231.921875 173.171875 230.28125 147.296875 229.785156 119.699219 C 235.199219 128.429688 237.898438 137.121094 240.796875 146.945312 C 238.8125 161.726562 236.359375 181.996094 232.089844 200.402344 Z M 224.625 75.992188 C 215.875 73.574219 211.140625 71.378906 202.316406 68.882812 C 199.773438 79.03125 196.628906 99.453125 191.925781 108.835938 L 191.242188 83.730469 L 187.5 81.25 L 183.753906 83.730469 L 183.074219 108.835938 C 178.371094 99.453125 175.226562 79.035156 172.683594 68.882812 L 140.378906 78.765625 C 138.46875 79.292969 139.183594 80.898438 137.921875 82.648438 C 125.5625 99.824219 118.007812 120.25 111.585938 139.828125 C 110.796875 142.238281 109.78125 146.386719 110.640625 151.167969 C 113.652344 167.890625 120.953125 196.46875 124.328125 209.605469 C 127.070312 220.296875 138.964844 219.824219 142.945312 212.847656 C 142.96875 214.554688 142.996094 221.347656 143.03125 223.070312 L 147.941406 223.070312 C 150.460938 272.671875 155.738281 323.367188 156.890625 371.371094 C 156.941406 373.375 158.597656 375 160.609375 375 L 176.808594 375 C 178.816406 375 180.476562 373.386719 180.527344 371.382812 L 184.265625 228.828125 C 184.382812 224.28125 190.613281 224.28125 190.734375 228.828125 L 194.472656 371.382812 C 194.519531 373.386719 196.183594 375 198.1875 375 L 214.386719 375 C 216.398438 375 218.058594 373.378906 218.109375 371.371094 C 219.261719 323.367188 224.535156 272.671875 227.054688 223.070312 L 231.96875 223.070312 C 232.003906 221.347656 232.03125 214.554688 232.054688 212.847656 C 236.035156 219.824219 247.929688 220.296875 250.671875 209.605469 C 254.050781 196.46875 261.34375 167.890625 264.359375 151.167969 C 265.222656 146.386719 264.207031 142.242188 263.414062 139.828125 C 256.992188 120.25 249.441406 99.820312 237.078125 82.648438 C 233.960938 78.316406 240.664062 80.441406 224.625 75.992188 Z M 142.910156 200.402344 C 143.078125 173.171875 144.71875 147.296875 145.214844 119.699219 C 139.800781 128.429688 137.300781 136.863281 134.203125 146.945312 C 136.1875 161.726562 138.640625 181.996094 142.910156 200.402344 Z M 39.558594 72.53125 C 48.371094 72.53125 55.515625 79.429688 55.515625 87.945312 C 55.515625 96.175781 49.589844 113.945312 39.558594 113.945312 C 29.53125 113.945312 23.601562 96.175781 23.601562 87.945312 C 23.601562 79.429688 30.75 72.53125 39.558594 72.53125 Z M 39.558594 72.53125 " fill-opacity="1" fill-rule="evenodd"/></svg>