<svg xmlns="http://www.w3.org/2000/svg" xmlns:xlink="http://www.w3.org/1999/xlink" width="64" zoomAndPan="magnify" viewBox="0 0 48 48" height="64" preserveAspectRatio="xMidYMid meet" version="1.0"><defs><clipPath id="79f587475c"><path d="M 2 3 L 47.507812 3 L 47.507812 45 L 2 45 Z M 2 3 " clip-rule="nonzero"/></clipPath></defs><g clip-path="url(#79f587475c)"><path fill="#d3d3d3" d="M 11.378906 31.214844 C 9.160156 33.085938 4.699219 36.589844 2.675781 38.171875 C 6.242188 41.371094 10.8125 43.527344 15.941406 44.09375 C 28.984375 45.527344 40.722656 36.128906 42.15625 23.101562 C 42.382812 21.078125 42.394531 18.847656 42.125 16.632812 L 47.507812 12.324219 L 40.964844 11.605469 L 40.964844 11.613281 C 39.6875 8.078125 37.421875 5.058594 33.792969 3.640625 C 28.222656 1.460938 21.289062 5.542969 20.605469 11.742188 C 20.25 14.96875 21.488281 18.003906 23.6875 20.0625 L 9.570312 8.328125 C 9.570312 8.328125 0.515625 21.015625 11.378906 31.214844 Z M 29.164062 11.941406 C 29.304688 10.679688 30.4375 9.769531 31.699219 9.910156 C 32.960938 10.046875 33.871094 11.179688 33.730469 12.441406 C 33.59375 13.699219 32.457031 14.609375 31.195312 14.472656 C 29.9375 14.332031 29.027344 13.199219 29.164062 11.941406 Z M 29.164062 11.941406 " fill-opacity="1" fill-rule="nonzero"/></g></svg>