<svg xmlns="http://www.w3.org/2000/svg" xmlns:xlink="http://www.w3.org/1999/xlink" width="500" zoomAndPan="magnify" viewBox="0 0 375 374.999991" height="500" preserveAspectRatio="xMidYMid meet" version="1.0"><path stroke-linecap="round" transform="matrix(-1.128627, 0.668214, 0.668092, 1.128832, 667.456953, -239.822372)" fill-opacity="1" fill="#a4a4a4" fill-rule="nonzero" stroke-linejoin="round" d="M 433.349474 149.060156 L 443.362596 149.060598 C 443.658856 149.058247 443.943505 149.118138 444.217118 149.229547 C 444.488167 149.342473 444.731861 149.502736 444.94051 149.714888 C 445.150206 149.92296 445.310158 150.163938 445.422931 150.436305 C 445.537221 150.711234 445.594759 150.995534 445.592982 151.290723 L 445.593292 170.585923 C 445.595595 170.882157 445.538217 171.165273 445.424191 171.440397 C 445.311212 171.711441 445.150896 171.955139 444.941255 172.162287 C 444.730568 172.373514 444.489543 172.533491 444.217135 172.646297 C 443.942164 172.760621 443.657829 172.818199 443.362615 172.81647 L 433.349493 172.816028 C 433.053233 172.818379 432.770101 172.761051 432.494971 172.647079 C 432.223922 172.534153 431.982791 172.372373 431.773095 172.164301 C 431.561883 171.953666 431.401931 171.712688 431.289158 171.440321 C 431.174868 171.165392 431.118847 170.883654 431.119107 170.585903 L 431.118797 151.290703 C 431.120574 150.995514 431.176435 150.709836 431.287898 150.436229 C 431.40344 150.163668 431.56271 149.92405 431.773397 149.712822 C 431.981521 149.503112 432.222546 149.343135 432.494954 149.230329 C 432.769925 149.116005 433.05426 149.058427 433.349474 149.060156 " stroke="#484848" stroke-width="2.312" stroke-opacity="1" stroke-miterlimit="4"/><path fill="#6b6b6b" d="M 268.558594 218.320312 L 269.191406 219.921875 L 282.253906 250.195312 L 279.511719 252.015625 L 261.898438 220.914062 L 267.078125 218.90625 Z M 268.558594 218.320312 " fill-opacity="0.63" fill-rule="nonzero"/><path fill="#ffffff" d="M 301.320312 252.871094 L 300.441406 251.390625 L 284.484375 224.546875 L 281.402344 223.574219 L 295.191406 256.550781 L 299.953125 253.6875 Z M 301.320312 252.871094 " fill-opacity="0.63" fill-rule="nonzero"/><path stroke-linecap="round" transform="matrix(-1.128627, 0.668214, 0.668092, 1.128832, 667.456953, -239.822372)" fill="none" stroke-linejoin="round" d="M 433.349474 149.060156 L 443.362596 149.060598 C 443.658856 149.058247 443.943505 149.118138 444.217118 149.229547 C 444.488167 149.342473 444.731861 149.502736 444.94051 149.714888 C 445.150206 149.92296 445.310158 150.163938 445.422931 150.436305 C 445.537221 150.711234 445.594759 150.995534 445.592982 151.290723 L 445.593292 170.585923 C 445.595595 170.882157 445.538217 171.165273 445.424191 171.440397 C 445.311212 171.711441 445.150896 171.955139 444.941255 172.162287 C 444.730568 172.373514 444.489543 172.533491 444.217135 172.646297 C 443.942164 172.760621 443.657829 172.818199 443.362615 172.81647 L 433.349493 172.816028 C 433.053233 172.818379 432.770101 172.761051 432.494971 172.647079 C 432.223922 172.534153 431.982791 172.372373 431.773095 172.164301 C 431.561883 171.953666 431.401931 171.712688 431.289158 171.440321 C 431.174868 171.165392 431.118847 170.883654 431.119107 170.585903 L 431.118797 151.290703 C 431.120574 150.995514 431.176435 150.709836 431.287898 150.436229 C 431.40344 150.163668 431.56271 149.92405 431.773397 149.712822 C 431.981521 149.503112 432.222546 149.343135 432.494954 149.230329 C 432.769925 149.116005 433.05426 149.058427 433.349474 149.060156 " stroke="#484848" stroke-width="2.312" stroke-opacity="1" stroke-miterlimit="4"/><path stroke-linecap="round" transform="matrix(-1.128627, 0.668214, 0.668092, 1.128832, 667.456953, -239.822372)" fill-opacity="1" fill="#a4a4a4" fill-rule="nonzero" stroke-linejoin="round" d="M 431.171259 130.950358 L 445.686817 130.950109 C 445.969792 130.948703 446.240684 131.002894 446.502057 131.111167 C 446.760867 131.220957 446.991851 131.371442 447.190353 131.572299 C 447.391417 131.771638 447.545303 132.002366 447.650491 132.26192 C 447.759759 132.522519 447.813793 132.795053 447.813637 133.07544 L 447.812388 154.326708 C 447.813749 154.609658 447.75951 154.880535 447.651186 155.141903 C 447.543908 155.39919 447.390809 155.631695 447.189904 155.830211 C 446.990515 156.03129 446.762305 156.183682 446.500149 156.290419 C 446.239509 156.39972 445.969506 156.452275 445.686532 156.453681 L 431.170973 156.45393 C 430.886481 156.452774 430.615589 156.398582 430.355733 156.292872 C 430.096923 156.183082 429.864423 156.030034 429.665921 155.829178 C 429.466373 155.632401 429.312488 155.401673 429.205782 155.139556 C 429.096514 154.878957 429.043998 154.608987 429.042636 154.326037 L 429.043886 133.074768 C 429.044041 132.794381 429.098281 132.523504 429.206605 132.262137 C 429.312366 132.002286 429.466981 131.772344 429.66637 131.571265 C 429.864713 131.374266 430.095485 131.220358 430.356125 131.111057 C 430.618281 131.004319 430.886767 130.949202 431.171259 130.950358 " stroke="#484848" stroke-width="2" stroke-opacity="1" stroke-miterlimit="4"/><path fill="#ffffff" d="M 286.015625 223.070312 L 285.136719 221.585938 L 269.179688 194.746094 L 266.09375 193.769531 L 279.886719 226.75 L 284.644531 223.882812 L 286.015625 223.066406 Z M 286.015625 223.070312 " fill-opacity="0.63" fill-rule="nonzero"/><path fill="#6b6b6b" d="M 256.269531 201.84375 L 256.902344 203.449219 L 269.964844 233.71875 L 267.222656 235.539062 L 249.609375 204.4375 L 254.789062 202.429688 Z M 256.269531 201.84375 " fill-opacity="0.63" fill-rule="nonzero"/><path stroke-linecap="round" transform="matrix(-1.128627, 0.668214, 0.668092, 1.128832, 667.456953, -239.822372)" fill="none" stroke-linejoin="round" d="M 431.171259 130.950358 L 445.686817 130.950109 C 445.969792 130.948703 446.240684 131.002894 446.502057 131.111167 C 446.760867 131.220957 446.991851 131.371442 447.190353 131.572299 C 447.391417 131.771638 447.545303 132.002366 447.650491 132.26192 C 447.759759 132.522519 447.813793 132.795053 447.813637 133.07544 L 447.812388 154.326708 C 447.813749 154.609658 447.75951 154.880535 447.651186 155.141903 C 447.543908 155.39919 447.390809 155.631695 447.189904 155.830211 C 446.990515 156.03129 446.762305 156.183682 446.500149 156.290419 C 446.239509 156.39972 445.969506 156.452275 445.686532 156.453681 L 431.170973 156.45393 C 430.886481 156.452774 430.615589 156.398582 430.355733 156.292872 C 430.096923 156.183082 429.864423 156.030034 429.665921 155.829178 C 429.466373 155.632401 429.312488 155.401673 429.205782 155.139556 C 429.096514 154.878957 429.043998 154.608987 429.042636 154.326037 L 429.043886 133.074768 C 429.044041 132.794381 429.098281 132.523504 429.206605 132.262137 C 429.312366 132.002286 429.466981 131.772344 429.66637 131.571265 C 429.864713 131.374266 430.095485 131.220358 430.356125 131.111057 C 430.618281 131.004319 430.886767 130.949202 431.171259 130.950358 " stroke="#484848" stroke-width="2" stroke-opacity="1" stroke-miterlimit="4"/><path stroke-linecap="round" transform="matrix(-1.436628, 0, 0, 1.225872, 680.146832, -225.018662)" fill-opacity="1" fill="#a4a4a4" fill-rule="nonzero" stroke-linejoin="round" d="M 315.500145 337.988857 C 315.500145 347.860654 308.672632 355.865159 300.249041 355.865159 C 291.82817 355.865159 285.000657 347.860654 285.000657 337.988857 C 285.000657 328.117059 291.82817 320.115741 300.249041 320.115741 C 308.672632 320.115741 315.500145 328.117059 315.500145 337.988857 Z M 315.500145 337.988857 " stroke="#484848" stroke-width="2" stroke-opacity="1" stroke-miterlimit="4"/><path stroke-linecap="round" transform="matrix(-1.311513, 0, 0, 1.311752, 667.456953, -239.822372)" fill-opacity="1" fill="#a4a4a4" fill-rule="nonzero" stroke-linejoin="round" d="M 262.611074 380.879334 C 261.699674 380.134862 260.365338 380.265889 259.62073 381.177123 L 250.673527 392.108948 C 245.047273 398.925332 244.591573 405.70896 249.190269 412.784421 L 262.036237 397.090954 C 262.408541 396.635337 262.929766 396.379238 263.47184 396.325636 C 264.010936 396.272034 264.570881 396.417951 265.02658 396.793165 L 270.226919 401.048566 C 270.682618 401.420802 270.935785 401.941932 270.989397 402.48093 C 271.045987 403.022905 270.897065 403.582748 270.524762 404.038365 L 257.756233 419.63654 C 264.961055 422.283882 272.174812 420.306564 277.22325 413.844548 L 286.170453 402.912724 C 286.918039 402.00149 286.78401 400.670374 285.87261 399.922925 L 284.851009 388.910697 L 273.220241 379.39039 Z M 262.611074 380.879334 " stroke="#484848" stroke-width="2.023" stroke-opacity="1" stroke-miterlimit="4"/><path fill="#808080" d="M 329.742188 310.445312 C 311.9375 310.550781 305.539062 297.632812 298.347656 285.769531 L 299.332031 267.484375 L 293.59375 268.222656 L 293.265625 284.621094 L 292.363281 287.078125 L 306.871094 305.933594 L 315.3125 310.9375 L 324.496094 312.25 Z M 329.742188 310.445312 " fill-opacity="1" fill-rule="nonzero"/><path stroke-linecap="round" transform="matrix(-1.311513, 0, 0, 1.311752, 667.456953, -239.822372)" fill="none" stroke-linejoin="round" d="M 262.611074 380.879334 C 261.699674 380.134862 260.365338 380.265889 259.62073 381.177123 L 250.673527 392.108948 C 245.047273 398.925332 244.591573 405.70896 249.190269 412.784421 L 262.036237 397.090954 C 262.408541 396.635337 262.929766 396.379238 263.47184 396.325636 C 264.010936 396.272034 264.570881 396.417951 265.02658 396.793165 L 270.226919 401.048566 C 270.682618 401.420802 270.935785 401.941932 270.989397 402.48093 C 271.045987 403.022905 270.897065 403.582748 270.524762 404.038365 L 257.756233 419.63654 C 264.961055 422.283882 272.174812 420.306564 277.22325 413.844548 L 286.170453 402.912724 C 286.918039 402.00149 286.78401 400.670374 285.87261 399.922925 L 284.851009 388.910697 L 273.220241 379.39039 Z M 262.611074 380.879334 " stroke="#484848" stroke-width="2.023" stroke-opacity="1" stroke-miterlimit="4"/><path fill="#ffffff" d="M 340.234375 296.5 C 347.738281 285.839844 333.257812 271.921875 324.988281 262.476562 L 308.839844 260.097656 C 308.6875 262.71875 309.023438 262.765625 307.347656 264.734375 C 308.683594 264.71875 319.875 266.273438 320.742188 266.621094 C 330.71875 270.625 343.304688 285.324219 340.234375 296.5 Z M 340.234375 296.5 " fill-opacity="0.63" fill-rule="nonzero"/><path stroke-linecap="round" transform="matrix(-1.138299, -0.260799, -0.26776, 1.169033, 702.69231, -103.045541)" fill-opacity="1" fill="#a4a4a4" fill-rule="nonzero" stroke-linejoin="round" d="M 284.961242 369.649531 C 284.959206 376.485654 279.181713 382.023311 272.054065 382.023733 C 264.926417 382.024154 259.149842 376.485156 259.151878 369.649032 C 259.149907 362.815356 264.928146 357.274524 272.055047 357.277277 C 279.182695 357.276856 284.95927 362.815854 284.961242 369.649531 Z M 284.961242 369.649531 " stroke="#484848" stroke-width="2.217" stroke-opacity="1" stroke-miterlimit="4"/><path fill="#ffffff" d="M 306.515625 259.957031 C 302.894531 252.558594 296.269531 248.570312 287.421875 247.097656 C 297.707031 244.460938 305.746094 245.789062 306.515625 259.957031 Z M 306.515625 259.957031 " fill-opacity="0.63" fill-rule="nonzero"/><path fill="#ffffff" d="M 266.59375 195.890625 C 265.535156 179.734375 254.894531 173.261719 241.941406 171.421875 C 255.050781 166.507812 273.035156 178.730469 266.59375 195.890625 Z M 266.59375 195.890625 " fill-opacity="0.63" fill-rule="nonzero"/><path stroke-linecap="round" transform="matrix(1.128606, 0.668189, -0.668068, 1.128812, -292.562379, -239.822372)" fill-opacity="1" fill="#a4a4a4" fill-rule="nonzero" stroke-linejoin="round" d="M 433.351014 149.061028 L 443.362847 149.058991 C 443.658069 149.060723 443.94377 149.116537 444.214824 149.229468 C 444.489959 149.343444 444.731094 149.50523 444.940793 149.713309 C 445.150491 149.921388 445.311962 150.164935 445.424735 150.437309 C 445.537509 150.709683 445.595046 150.99399 445.594783 151.291748 L 445.593416 170.584827 C 445.593153 170.882585 445.537288 171.16827 445.424304 171.439319 C 445.310274 171.714448 445.150998 171.95407 444.940305 172.165301 C 444.730657 172.372451 444.491143 172.534993 444.218727 172.647799 C 443.942232 172.759561 443.65789 172.817138 443.364186 172.817968 L 433.350835 172.817444 C 433.053051 172.817229 432.769913 172.759897 432.496295 172.648483 C 432.223724 172.53299 431.980025 172.372721 431.77289 172.163125 C 431.563192 171.955046 431.403237 171.714061 431.288947 171.439125 C 431.176174 171.166751 431.118637 170.882444 431.1189 170.584686 L 431.120267 151.291608 C 431.117967 150.995367 431.175348 150.712244 431.289379 150.437115 C 431.400846 150.163504 431.562685 149.922364 431.770815 149.712651 C 431.983025 149.503983 432.224057 149.344004 432.496472 149.231197 C 432.768888 149.118391 433.053229 149.060813 433.351014 149.061028 " stroke="#484848" stroke-width="2.312" stroke-opacity="1" stroke-miterlimit="4"/><path fill="#6b6b6b" d="M 106.335938 218.320312 L 105.703125 219.921875 L 92.640625 250.195312 L 95.382812 252.015625 L 112.996094 220.914062 L 107.816406 218.90625 Z M 106.335938 218.320312 " fill-opacity="0.63" fill-rule="nonzero"/><path fill="#ffffff" d="M 73.574219 252.871094 L 74.453125 251.390625 L 90.410156 224.546875 L 93.492188 223.574219 L 79.703125 256.550781 L 74.941406 253.6875 Z M 73.574219 252.871094 " fill-opacity="0.63" fill-rule="nonzero"/><path stroke-linecap="round" transform="matrix(1.128606, 0.668189, -0.668068, 1.128812, -292.562379, -239.822372)" fill="none" stroke-linejoin="round" d="M 433.351014 149.061028 L 443.362847 149.058991 C 443.658069 149.060723 443.94377 149.116537 444.214824 149.229468 C 444.489959 149.343444 444.731094 149.50523 444.940793 149.713309 C 445.150491 149.921388 445.311962 150.164935 445.424735 150.437309 C 445.537509 150.709683 445.595046 150.99399 445.594783 151.291748 L 445.593416 170.584827 C 445.593153 170.882585 445.537288 171.16827 445.424304 171.439319 C 445.310274 171.714448 445.150998 171.95407 444.940305 172.165301 C 444.730657 172.372451 444.491143 172.534993 444.218727 172.647799 C 443.942232 172.759561 443.65789 172.817138 443.364186 172.817968 L 433.350835 172.817444 C 433.053051 172.817229 432.769913 172.759897 432.496295 172.648483 C 432.223724 172.53299 431.980025 172.372721 431.77289 172.163125 C 431.563192 171.955046 431.403237 171.714061 431.288947 171.439125 C 431.176174 171.166751 431.118637 170.882444 431.1189 170.584686 L 431.120267 151.291608 C 431.117967 150.995367 431.175348 150.712244 431.289379 150.437115 C 431.400846 150.163504 431.562685 149.922364 431.770815 149.712651 C 431.983025 149.503983 432.224057 149.344004 432.496472 149.231197 C 432.768888 149.118391 433.053229 149.060813 433.351014 149.061028 " stroke="#484848" stroke-width="2.312" stroke-opacity="1" stroke-miterlimit="4"/><path stroke-linecap="round" transform="matrix(1.128606, 0.668189, -0.668068, 1.128812, -292.562379, -239.822372)" fill-opacity="1" fill="#a4a4a4" fill-rule="nonzero" stroke-linejoin="round" d="M 431.168819 130.949752 L 445.68879 130.95067 C 445.969208 130.950783 446.240106 131.004978 446.501484 131.113256 C 446.761345 131.218971 446.991287 131.373541 447.192354 131.572887 C 447.389342 131.771187 447.543229 132.001921 447.652497 132.262527 C 447.759203 132.524651 447.814281 132.793111 447.813078 133.077584 L 447.814215 154.327821 C 447.814057 154.608215 447.759814 154.879098 447.651485 155.14047 C 447.543156 155.401843 447.391099 155.630272 447.191704 155.831354 C 446.990792 156.029873 446.760012 156.183783 446.501929 156.291567 C 446.239766 156.398305 445.96871 156.454938 445.686775 156.452263 L 431.170884 156.45239 C 430.887903 156.453794 430.617005 156.399599 430.355627 156.291322 C 430.094249 156.183044 429.865824 156.031036 429.66732 155.830174 C 429.466252 155.630828 429.312365 155.400094 429.204614 155.14205 C 429.097908 154.879927 429.043876 154.607387 429.044033 154.326993 L 429.042896 133.076756 C 429.043054 132.796363 429.09578 132.522917 429.205626 132.264107 C 429.313955 132.002735 429.468575 131.772789 429.665407 131.573224 C 429.866319 131.374705 430.095582 131.218232 430.357745 131.111494 C 430.615828 131.00371 430.888401 130.949639 431.168819 130.949752 " stroke="#484848" stroke-width="2" stroke-opacity="1" stroke-miterlimit="4"/><path fill="#ffffff" d="M 88.878906 223.070312 L 89.757812 221.585938 L 105.714844 194.746094 L 108.800781 193.769531 L 95.007812 226.75 L 90.25 223.882812 L 88.878906 223.066406 Z M 88.878906 223.070312 " fill-opacity="0.63" fill-rule="nonzero"/><path fill="#6b6b6b" d="M 118.625 201.84375 L 117.992188 203.449219 L 104.929688 233.71875 L 107.671875 235.539062 L 125.285156 204.4375 L 120.105469 202.429688 Z M 118.625 201.84375 " fill-opacity="0.63" fill-rule="nonzero"/><path stroke-linecap="round" transform="matrix(1.128606, 0.668189, -0.668068, 1.128812, -292.562379, -239.822372)" fill="none" stroke-linejoin="round" d="M 431.168819 130.949752 L 445.68879 130.95067 C 445.969208 130.950783 446.240106 131.004978 446.501484 131.113256 C 446.761345 131.218971 446.991287 131.373541 447.192354 131.572887 C 447.389342 131.771187 447.543229 132.001921 447.652497 132.262527 C 447.759203 132.524651 447.814281 132.793111 447.813078 133.077584 L 447.814215 154.327821 C 447.814057 154.608215 447.759814 154.879098 447.651485 155.14047 C 447.543156 155.401843 447.391099 155.630272 447.191704 155.831354 C 446.990792 156.029873 446.760012 156.183783 446.501929 156.291567 C 446.239766 156.398305 445.96871 156.454938 445.686775 156.452263 L 431.170884 156.45239 C 430.887903 156.453794 430.617005 156.399599 430.355627 156.291322 C 430.094249 156.183044 429.865824 156.031036 429.66732 155.830174 C 429.466252 155.630828 429.312365 155.400094 429.204614 155.14205 C 429.097908 154.879927 429.043876 154.607387 429.044033 154.326993 L 429.042896 133.076756 C 429.043054 132.796363 429.09578 132.522917 429.205626 132.264107 C 429.313955 132.002735 429.468575 131.772789 429.665407 131.573224 C 429.866319 131.374705 430.095582 131.218232 430.357745 131.111494 C 430.615828 131.00371 430.888401 130.949639 431.168819 130.949752 " stroke="#484848" stroke-width="2" stroke-opacity="1" stroke-miterlimit="4"/><path stroke-linecap="round" transform="matrix(1.436628, 0, 0, 1.225872, -305.252467, -225.018662)" fill-opacity="1" fill="#a4a4a4" fill-rule="nonzero" stroke-linejoin="round" d="M 315.500261 337.988857 C 315.500261 347.860654 308.672748 355.865159 300.249157 355.865159 C 291.828285 355.865159 285.000772 347.860654 285.000772 337.988857 C 285.000772 328.117059 291.828285 320.115741 300.249157 320.115741 C 308.672748 320.115741 315.500261 328.117059 315.500261 337.988857 Z M 315.500261 337.988857 " stroke="#484848" stroke-width="2" stroke-opacity="1" stroke-miterlimit="4"/><path stroke-linecap="round" transform="matrix(1.311513, 0, 0, 1.311752, -292.562554, -239.822372)" fill-opacity="1" fill="#a4a4a4" fill-rule="nonzero" stroke-linejoin="round" d="M 262.611175 380.879334 C 261.699775 380.134862 260.365439 380.265889 259.620831 381.177123 L 250.673628 392.108948 C 245.047374 398.925332 244.591674 405.70896 249.19037 412.784421 L 262.036338 397.090954 C 262.408642 396.635337 262.929867 396.379238 263.468963 396.325636 C 264.011037 396.272034 264.570982 396.417951 265.026681 396.793165 L 270.22702 401.048566 C 270.682719 401.420802 270.935886 401.941932 270.989498 402.48093 C 271.046088 403.022905 270.897166 403.582748 270.524863 404.038365 L 257.756334 419.63654 C 264.961156 422.283882 272.174913 420.306564 277.223351 413.844548 L 286.170554 402.912724 C 286.91814 402.00149 286.784111 400.670374 285.872711 399.922925 L 284.85111 388.910697 L 273.220342 379.39039 Z M 262.611175 380.879334 " stroke="#484848" stroke-width="2.023" stroke-opacity="1" stroke-miterlimit="4"/><path fill="#808080" d="M 45.152344 310.445312 C 62.957031 310.550781 69.351562 297.632812 76.546875 285.769531 L 75.5625 267.484375 L 81.300781 268.222656 L 81.628906 284.621094 L 82.53125 287.078125 L 68.023438 305.933594 L 59.578125 310.9375 L 50.398438 312.25 Z M 45.152344 310.445312 " fill-opacity="1" fill-rule="nonzero"/><path stroke-linecap="round" transform="matrix(1.311513, 0, 0, 1.311752, -292.562554, -239.822372)" fill="none" stroke-linejoin="round" d="M 262.611175 380.879334 C 261.699775 380.134862 260.365439 380.265889 259.620831 381.177123 L 250.673628 392.108948 C 245.047374 398.925332 244.591674 405.70896 249.19037 412.784421 L 262.036338 397.090954 C 262.408642 396.635337 262.929867 396.379238 263.468963 396.325636 C 264.011037 396.272034 264.570982 396.417951 265.026681 396.793165 L 270.22702 401.048566 C 270.682719 401.420802 270.935886 401.941932 270.989498 402.48093 C 271.046088 403.022905 270.897166 403.582748 270.524863 404.038365 L 257.756334 419.63654 C 264.961156 422.283882 272.174913 420.306564 277.223351 413.844548 L 286.170554 402.912724 C 286.91814 402.00149 286.784111 400.670374 285.872711 399.922925 L 284.85111 388.910697 L 273.220342 379.39039 Z M 262.611175 380.879334 " stroke="#484848" stroke-width="2.023" stroke-opacity="1" stroke-miterlimit="4"/><path fill="#ffffff" d="M 34.660156 296.5 C 27.15625 285.839844 41.636719 271.921875 49.90625 262.476562 L 66.054688 260.097656 C 66.207031 262.71875 65.871094 262.765625 67.546875 264.734375 C 66.210938 264.71875 55.019531 266.273438 54.152344 266.621094 C 44.175781 270.625 31.589844 285.324219 34.660156 296.5 Z M 34.660156 296.5 " fill-opacity="0.63" fill-rule="nonzero"/><path stroke-linecap="round" transform="matrix(1.138299, -0.260799, 0.26776, 1.169033, -327.797904, -103.045541)" fill-opacity="1" fill="#a4a4a4" fill-rule="nonzero" stroke-linejoin="round" d="M 284.961346 369.649554 C 284.95931 376.485678 279.181817 382.023334 272.05417 382.023756 C 264.926522 382.024178 259.149947 376.485179 259.148722 369.648328 C 259.150011 362.815379 264.928251 357.274547 272.055152 357.277301 C 279.182799 357.276879 284.959375 362.815878 284.961346 369.649554 Z M 284.961346 369.649554 " stroke="#484848" stroke-width="2.217" stroke-opacity="1" stroke-miterlimit="4"/><path fill="#ffffff" d="M 68.378906 259.957031 C 72 252.558594 78.625 248.570312 87.472656 247.097656 C 77.1875 244.460938 69.148438 245.789062 68.378906 259.957031 Z M 68.378906 259.957031 " fill-opacity="0.63" fill-rule="nonzero"/><path fill="#ffffff" d="M 108.300781 195.890625 C 109.359375 179.734375 120 173.261719 132.953125 171.421875 C 119.84375 166.507812 101.859375 178.730469 108.300781 195.890625 Z M 108.300781 195.890625 " fill-opacity="0.63" fill-rule="nonzero"/><path stroke-linecap="round" transform="matrix(-1.311513, 0, 0, 1.311752, 672.998696, -240.280383)" fill-opacity="1" fill="#a4a4a4" fill-rule="nonzero" stroke-linejoin="round" d="M 332.341138 435.839972 L 356.383023 435.839972 C 356.800004 435.839972 357.214005 435.881663 357.625029 435.962066 C 358.033073 436.042469 358.432183 436.164562 358.816401 436.325368 C 359.203596 436.483196 359.569943 436.679737 359.91842 436.912012 C 360.263917 437.144287 360.585588 437.409319 360.883431 437.70413 C 361.178295 437.998941 361.440397 438.320553 361.672715 438.668965 C 361.905032 439.0144 362.101609 439.383658 362.262444 439.767806 C 362.420301 440.154931 362.542416 440.553968 362.622834 440.961939 C 362.70623 441.372887 362.744949 441.786814 362.744949 442.203718 C 362.744949 442.620622 362.70623 443.034549 362.622834 443.445497 C 362.542416 443.856445 362.420301 444.252504 362.262444 444.63963 C 362.101609 445.026755 361.905032 445.393035 361.672715 445.73847 C 361.440397 446.086883 361.178295 446.408495 360.883431 446.703306 C 360.585588 446.998117 360.263917 447.263149 359.91842 447.495424 C 359.569943 447.727699 359.203596 447.92424 358.816401 448.085046 C 358.432183 448.242874 358.033073 448.364967 357.625029 448.44537 C 357.214005 448.528751 356.800004 448.567463 356.383023 448.567463 L 332.341138 448.567463 C 331.921179 448.567463 331.507178 448.525773 331.099133 448.44537 C 330.688109 448.364967 330.291978 448.242874 329.904782 448.082068 C 329.517587 447.92424 329.15124 447.727699 328.805742 447.495424 C 328.457266 447.263149 328.135595 446.998117 327.840731 446.703306 C 327.545866 446.408495 327.280786 446.086883 327.048468 445.73847 C 326.816151 445.393035 326.619574 445.026755 326.461718 444.63963 C 326.300882 444.252504 326.178767 443.856445 326.098349 443.445497 C 326.017932 443.034549 325.976234 442.620622 325.976234 442.203718 C 325.976234 441.786814 326.017932 441.372887 326.098349 440.961939 C 326.178767 440.553968 326.300882 440.154931 326.461718 439.767806 C 326.619574 439.383658 326.816151 439.0144 327.048468 438.668965 C 327.280786 438.320553 327.545866 437.998941 327.840731 437.70413 C 328.135595 437.409319 328.457266 437.144287 328.805742 436.912012 C 329.15124 436.679737 329.517587 436.483196 329.904782 436.325368 C 330.291978 436.164562 330.688109 436.042469 331.099133 435.962066 C 331.507178 435.881663 331.921179 435.839972 332.341138 435.839972 " stroke="#484848" stroke-width="2" stroke-opacity="1" stroke-miterlimit="4"/><path stroke-linecap="round" transform="matrix(-1.311513, 0, 0, 1.311752, 672.998696, -240.280383)" fill-opacity="1" fill="#a4a4a4" fill-rule="nonzero" stroke-linejoin="round" d="M 332.341138 423.839086 L 356.383023 423.839086 C 356.800004 423.839086 357.214005 423.880776 357.625029 423.961179 C 358.033073 424.04456 358.432183 424.163676 358.816401 424.324482 C 359.203596 424.485287 359.569943 424.681828 359.91842 424.911125 C 360.263917 425.143401 360.585588 425.408433 360.883431 425.703243 C 361.178295 425.998054 361.440397 426.319666 361.672715 426.668079 C 361.905032 427.016492 362.101609 427.382772 362.262444 427.769897 C 362.420301 428.154045 362.542416 428.553082 362.622834 428.961052 C 362.70623 429.372001 362.744949 429.785927 362.744949 430.202831 C 362.744949 430.622714 362.70623 431.03664 362.622834 431.44461 C 362.542416 431.855559 362.420301 432.254596 362.262444 432.638743 C 362.101609 433.025869 361.905032 433.392149 361.672715 433.740562 C 361.440397 434.085997 361.178295 434.407608 360.883431 434.705397 C 360.585588 435.000208 360.263917 435.262262 359.91842 435.494537 C 359.569943 435.726813 359.203596 435.923353 358.816401 436.084159 C 358.432183 436.244965 358.033073 436.364081 357.625029 436.444484 C 357.214005 436.527864 356.800004 436.566577 356.383023 436.566577 L 332.341138 436.566577 C 331.921179 436.566577 331.507178 436.527864 331.099133 436.444484 C 330.688109 436.364081 330.291978 436.241987 329.904782 436.084159 C 329.517587 435.923353 329.15124 435.726813 328.805742 435.494537 C 328.457266 435.262262 328.135595 435.000208 327.840731 434.705397 C 327.545866 434.407608 327.280786 434.085997 327.048468 433.740562 C 326.816151 433.392149 326.619574 433.025869 326.461718 432.638743 C 326.300882 432.254596 326.178767 431.855559 326.098349 431.44461 C 326.017932 431.03664 325.976234 430.622714 325.976234 430.202831 C 325.976234 429.785927 326.017932 429.372001 326.098349 428.961052 C 326.178767 428.553082 326.300882 428.154045 326.461718 427.769897 C 326.619574 427.382772 326.816151 427.016492 327.048468 426.668079 C 327.280786 426.319666 327.545866 425.998054 327.840731 425.703243 C 328.135595 425.408433 328.457266 425.143401 328.805742 424.911125 C 329.15124 424.681828 329.517587 424.485287 329.904782 424.324482 C 330.291978 424.163676 330.688109 424.04456 331.099133 423.961179 C 331.507178 423.880776 331.921179 423.839086 332.341138 423.839086 " stroke="#484848" stroke-width="2" stroke-opacity="1" stroke-miterlimit="4"/><path stroke-linecap="round" transform="matrix(-1.311513, 0, 0, 1.311752, 672.998696, -240.280383)" fill-opacity="1" fill="#a4a4a4" fill-rule="nonzero" stroke-linejoin="round" d="M 332.341138 411.841177 L 356.383023 411.841177 C 356.800004 411.841177 357.214005 411.87989 357.625029 411.963271 C 358.033073 412.043674 358.432183 412.165767 358.816401 412.323595 C 359.203596 412.484401 359.569943 412.680941 359.91842 412.913217 C 360.263917 413.145492 360.585588 413.407546 360.883431 413.705335 C 361.178295 414.000146 361.440397 414.321757 361.672715 414.667192 C 361.905032 415.015605 362.101609 415.381885 362.262444 415.769011 C 362.420301 416.156136 362.542416 416.552195 362.622834 416.963144 C 362.70623 417.371114 362.744949 417.785041 362.744949 418.204923 C 362.744949 418.621827 362.70623 419.035753 362.622834 419.446702 C 362.542416 419.854672 362.420301 420.253709 362.262444 420.640835 C 362.101609 421.024982 361.905032 421.391262 361.672715 421.739675 C 361.440397 422.088088 361.178295 422.4097 360.883431 422.704511 C 360.585588 422.999322 360.263917 423.264354 359.91842 423.496629 C 359.569943 423.728904 359.203596 423.922467 358.816401 424.083273 C 358.432183 424.244079 358.033073 424.363194 357.625029 424.446575 C 357.214005 424.526978 356.800004 424.568668 356.383023 424.568668 L 332.341138 424.568668 C 331.921179 424.568668 331.507178 424.526978 331.099133 424.446575 C 330.688109 424.363194 330.291978 424.244079 329.904782 424.083273 C 329.517587 423.922467 329.15124 423.728904 328.805742 423.496629 C 328.457266 423.264354 328.135595 422.999322 327.840731 422.704511 C 327.545866 422.4097 327.280786 422.088088 327.048468 421.739675 C 326.816151 421.391262 326.619574 421.024982 326.461718 420.640835 C 326.300882 420.253709 326.178767 419.854672 326.098349 419.446702 C 326.017932 419.035753 325.976234 418.621827 325.976234 418.204923 C 325.976234 417.785041 326.017932 417.371114 326.098349 416.963144 C 326.178767 416.552195 326.300882 416.153158 326.461718 415.769011 C 326.619574 415.381885 326.816151 415.015605 327.048468 414.667192 C 327.280786 414.321757 327.545866 414.000146 327.840731 413.705335 C 328.135595 413.407546 328.457266 413.145492 328.805742 412.913217 C 329.15124 412.680941 329.517587 412.484401 329.904782 412.323595 C 330.291978 412.165767 330.688109 412.043674 331.099133 411.963271 C 331.507178 411.87989 331.921179 411.841177 332.341138 411.841177 " stroke="#484848" stroke-width="2" stroke-opacity="1" stroke-miterlimit="4"/><path stroke-linecap="round" transform="matrix(-1.311513, 0, 0, 1.311752, 672.998696, -240.280383)" fill-opacity="1" fill="#a4a4a4" fill-rule="nonzero" stroke-linejoin="round" d="M 331.989683 399.471033 L 356.031569 399.471033 C 356.448549 399.471033 356.862551 399.509745 357.273574 399.593126 C 357.684597 399.673529 358.080728 399.795622 358.467924 399.95345 C 358.852142 400.114256 359.221467 400.310797 359.566965 400.543072 C 359.915441 400.775347 360.237112 401.037401 360.531976 401.33519 C 360.826841 401.630001 361.091921 401.951613 361.324238 402.297048 C 361.556556 402.645461 361.750154 403.011741 361.910989 403.398866 C 362.071824 403.785992 362.190961 404.182051 362.274357 404.592999 C 362.354775 405.00097 362.396473 405.414896 362.396473 405.834778 C 362.396473 406.251682 362.354775 406.665609 362.274357 407.076557 C 362.190961 407.484528 362.071824 407.883565 361.910989 408.27069 C 361.750154 408.654838 361.556556 409.021118 361.324238 409.369531 C 361.091921 409.717943 360.826841 410.039555 360.531976 410.334366 C 360.237112 410.629177 359.915441 410.894209 359.566965 411.126484 C 359.221467 411.358759 358.852142 411.552322 358.467924 411.713128 C 358.080728 411.873934 357.684597 411.993049 357.273574 412.07643 C 356.862551 412.156833 356.448549 412.198524 356.031569 412.198524 L 331.989683 412.198524 C 331.572703 412.198524 331.158701 412.156833 330.747678 412.07643 C 330.339633 411.993049 329.940524 411.873934 329.553328 411.713128 C 329.16911 411.552322 328.802763 411.358759 328.454287 411.126484 C 328.105811 410.894209 327.78414 410.629177 327.489276 410.334366 C 327.194411 410.039555 326.929331 409.717943 326.697014 409.369531 C 326.467674 409.021118 326.271098 408.654838 326.110263 408.27069 C 325.949428 407.883565 325.83029 407.484528 325.746894 407.076557 C 325.666477 406.665609 325.624779 406.251682 325.624779 405.834778 C 325.624779 405.414896 325.666477 405.00097 325.746894 404.592999 C 325.83029 404.182051 325.949428 403.785992 326.110263 403.398866 C 326.271098 403.011741 326.467674 402.645461 326.697014 402.297048 C 326.929331 401.951613 327.194411 401.630001 327.489276 401.33519 C 327.78414 401.037401 328.105811 400.775347 328.454287 400.543072 C 328.802763 400.310797 329.16911 400.114256 329.553328 399.95345 C 329.940524 399.795622 330.339633 399.673529 330.747678 399.593126 C 331.158701 399.509745 331.572703 399.471033 331.989683 399.471033 " stroke="#484848" stroke-width="2" stroke-opacity="1" stroke-miterlimit="4"/><path fill="#808080" d="M 212.316406 283.109375 C 209.285156 288.371094 206.765625 293.683594 212.316406 299.804688 C 208.828125 304.644531 205.367188 309.488281 212.546875 316.035156 C 205.839844 322.308594 208.464844 327.023438 212.085938 331.574219 C 206.128906 341.617188 211.414062 343.0625 212.085938 348.035156 L 198.171875 348.269531 L 199.332031 344.789062 L 196.550781 340.617188 L 197.941406 334.585938 L 202.347656 331.109375 L 197.710938 327.628906 L 196.78125 322.527344 L 201.652344 316.035156 L 198.40625 313.023438 L 197.246094 307.222656 L 202.808594 299.574219 L 198.636719 296.324219 L 197.015625 291.457031 L 200.027344 285.660156 L 203.042969 283.109375 L 211.15625 283.804688 Z M 212.316406 283.109375 " fill-opacity="1" fill-rule="nonzero"/><path fill="#ffffff" d="M 231.058594 283.265625 C 234.089844 288.527344 236.609375 293.84375 231.058594 299.960938 C 234.542969 304.800781 238.007812 309.644531 230.828125 316.195312 C 237.535156 322.464844 234.90625 327.179688 231.289062 331.730469 C 237.246094 341.773438 231.960938 343.21875 231.289062 348.195312 L 245.199219 348.425781 L 244.042969 344.949219 L 246.824219 340.773438 L 245.433594 334.746094 L 241.027344 331.265625 L 245.664062 327.789062 L 246.59375 322.6875 L 241.722656 316.195312 L 244.96875 313.179688 L 246.128906 307.382812 L 240.5625 299.730469 L 244.738281 296.484375 L 246.359375 291.613281 L 243.347656 285.816406 L 240.332031 283.265625 L 232.21875 283.960938 Z M 231.058594 283.265625 " fill-opacity="0.63" fill-rule="nonzero"/><path stroke-linecap="round" transform="matrix(-1.311513, 0, 0, 1.311752, 672.998696, -240.280383)" fill="none" stroke-linejoin="round" d="M 332.031381 436.471285 L 356.695758 436.471285 C 357.094868 436.471285 357.488021 436.509997 357.878195 436.587422 C 358.268369 436.664847 358.64663 436.778007 359.012977 436.929879 C 359.379324 437.081751 359.7278 437.269358 360.058406 437.489722 C 360.389011 437.710086 360.69579 437.960228 360.975762 438.243128 C 361.255735 438.523049 361.508901 438.829771 361.729305 439.160317 C 361.949709 439.490862 362.134371 439.839275 362.28925 440.205555 C 362.44115 440.571836 362.55433 440.950027 362.631769 441.340131 C 362.709208 441.730234 362.747928 442.123315 362.747928 442.522352 C 362.747928 442.918411 362.709208 443.311492 362.631769 443.701595 C 362.55433 444.091699 362.44115 444.46989 362.28925 444.83617 C 362.134371 445.205428 361.949709 445.553841 361.729305 445.884387 C 361.508901 446.214932 361.255735 446.518677 360.975762 446.801576 C 360.69579 447.081498 360.389011 447.33164 360.058406 447.552004 C 359.7278 447.772367 359.379324 447.959974 359.012977 448.111847 C 358.64663 448.263719 358.268369 448.379857 357.878195 448.457282 C 357.488021 448.534707 357.094868 448.573419 356.695758 448.573419 L 332.031381 448.573419 C 331.632272 448.573419 331.239119 448.534707 330.848945 448.457282 C 330.45877 448.379857 330.08051 448.263719 329.714163 448.111847 C 329.347816 447.959974 328.99934 447.775345 328.668734 447.552004 C 328.338128 447.33164 328.03135 447.081498 327.751378 446.801576 C 327.471405 446.518677 327.218239 446.214932 326.997835 445.884387 C 326.777431 445.553841 326.58979 445.205428 326.43789 444.83617 C 326.28599 444.46989 326.17281 444.091699 326.095371 443.701595 C 326.017932 443.311492 325.979212 442.918411 325.979212 442.522352 C 325.979212 442.123315 326.017932 441.730234 326.095371 441.340131 C 326.17281 440.950027 326.28599 440.571836 326.43789 440.205555 C 326.58979 439.839275 326.777431 439.490862 326.997835 439.160317 C 327.218239 438.829771 327.471405 438.523049 327.751378 438.243128 C 328.03135 437.960228 328.338128 437.710086 328.668734 437.489722 C 328.99934 437.269358 329.347816 437.081751 329.714163 436.929879 C 330.08051 436.778007 330.45877 436.664847 330.848945 436.587422 C 331.239119 436.509997 331.632272 436.471285 332.031381 436.471285 " stroke="#484848" stroke-width="2" stroke-opacity="1" stroke-miterlimit="4"/><path stroke-linecap="round" transform="matrix(-1.311513, 0, 0, 1.311752, 672.998696, -240.280383)" fill="none" stroke-linejoin="round" d="M 331.968834 424.589513 L 356.761284 424.589513 C 357.154437 424.589513 357.544611 424.628226 357.931807 424.705651 C 358.316024 424.783076 358.691306 424.896236 359.054675 425.04513 C 359.418043 425.197003 359.763541 425.381632 360.08819 425.599017 C 360.415817 425.816403 360.719617 426.066546 360.996611 426.343489 C 361.273605 426.623411 361.523793 426.924177 361.741219 427.251745 C 361.958644 427.579313 362.143307 427.924747 362.295207 428.28805 C 362.444128 428.651352 362.560287 429.023588 362.634748 429.410713 C 362.712187 429.794861 362.750906 430.184964 362.750906 430.578045 C 362.750906 430.971126 362.712187 431.36123 362.634748 431.748355 C 362.560287 432.132502 362.444128 432.507716 362.295207 432.871019 C 362.143307 433.234321 361.958644 433.579756 361.741219 433.907323 C 361.523793 434.231913 361.273605 434.535658 360.996611 434.812601 C 360.719617 435.092523 360.415817 435.339687 360.08819 435.560051 C 359.763541 435.777437 359.418043 435.962066 359.054675 436.11096 C 358.691306 436.262832 358.316024 436.375992 357.931807 436.453417 C 357.544611 436.530842 357.154437 436.566577 356.761284 436.566577 L 331.968834 436.566577 C 331.575682 436.566577 331.188486 436.530842 330.80129 436.453417 C 330.417072 436.375992 330.04179 436.262832 329.678422 436.11096 C 329.315053 435.962066 328.969556 435.777437 328.641928 435.560051 C 328.314301 435.339687 328.01348 435.092523 327.736486 434.812601 C 327.456513 434.535658 327.209303 434.231913 326.9889 433.907323 C 326.771474 433.579756 326.586812 433.234321 326.43789 432.871019 C 326.28599 432.507716 326.17281 432.132502 326.095371 431.748355 C 326.017932 431.36123 325.98219 430.971126 325.98219 430.578045 C 325.98219 430.184964 326.017932 429.794861 326.095371 429.410713 C 326.17281 429.023588 326.28599 428.651352 326.43789 428.28805 C 326.586812 427.924747 326.771474 427.579313 326.9889 427.251745 C 327.209303 426.924177 327.456513 426.623411 327.736486 426.343489 C 328.01348 426.066546 328.314301 425.816403 328.641928 425.599017 C 328.969556 425.381632 329.315053 425.197003 329.678422 425.04513 C 330.04179 424.896236 330.417072 424.783076 330.80129 424.705651 C 331.188486 424.628226 331.575682 424.589513 331.968834 424.589513 " stroke="#484848" stroke-width="2" stroke-opacity="1" stroke-miterlimit="4"/><path stroke-linecap="round" transform="matrix(-1.311513, 0, 0, 1.311752, 672.998696, -240.280383)" fill="none" stroke-linejoin="round" d="M 332.09095 412.341462 L 356.633211 412.341462 C 357.032321 412.341462 357.431431 412.380175 357.824583 412.4576 C 358.217736 412.535025 358.601954 412.651163 358.971279 412.806013 C 359.343583 412.957885 359.695037 413.14847 360.028621 413.371811 C 360.362206 413.592175 360.671962 413.848273 360.954913 414.131173 C 361.237864 414.414072 361.494009 414.723772 361.714413 415.057296 C 361.937795 415.390819 362.128414 415.74221 362.280314 416.114446 C 362.435193 416.486682 362.551351 416.867851 362.628791 417.260932 C 362.70623 417.654014 362.744949 418.05305 362.744949 418.455065 C 362.744949 418.854102 362.70623 419.253139 362.628791 419.64622 C 362.551351 420.039301 362.435193 420.423449 362.280314 420.792707 C 362.128414 421.164943 361.937795 421.516334 361.714413 421.849857 C 361.494009 422.18338 361.237864 422.493081 360.954913 422.77598 C 360.671962 423.061857 360.362206 423.314978 360.028621 423.538319 C 359.695037 423.761661 359.343583 423.949268 358.971279 424.104118 C 358.601954 424.25599 358.217736 424.372128 357.824583 424.449553 C 357.431431 424.529956 357.032321 424.568668 356.633211 424.568668 L 332.09095 424.568668 C 331.688862 424.568668 331.289752 424.529956 330.8966 424.449553 C 330.503447 424.372128 330.122208 424.25599 329.749904 424.10114 C 329.380579 423.949268 329.026146 423.761661 328.692562 423.538319 C 328.358977 423.314978 328.049221 423.061857 327.76627 422.77598 C 327.483319 422.493081 327.230153 422.18338 327.00677 421.849857 C 326.783388 421.516334 326.595747 421.164943 326.440869 420.792707 C 326.288969 420.423449 326.17281 420.039301 326.092392 419.64622 C 326.014953 419.253139 325.976234 418.854102 325.976234 418.455065 C 325.976234 418.05305 326.014953 417.654014 326.092392 417.260932 C 326.17281 416.867851 326.288969 416.483704 326.440869 416.114446 C 326.595747 415.74221 326.783388 415.390819 327.00677 415.057296 C 327.230153 414.723772 327.483319 414.414072 327.76627 414.131173 C 328.049221 413.848273 328.358977 413.592175 328.692562 413.371811 C 329.026146 413.14847 329.380579 412.957885 329.749904 412.806013 C 330.122208 412.651163 330.503447 412.535025 330.8966 412.4576 C 331.289752 412.380175 331.688862 412.341462 332.09095 412.341462 " stroke="#484848" stroke-width="2" stroke-opacity="1" stroke-miterlimit="4"/><path stroke-linecap="round" transform="matrix(-1.311513, 0, 0, 1.311752, 672.998696, -240.280383)" fill="none" stroke-linejoin="round" d="M 331.989683 399.471033 L 356.031569 399.471033 C 356.448549 399.471033 356.862551 399.509745 357.273574 399.593126 C 357.684597 399.673529 358.080728 399.795622 358.467924 399.95345 C 358.852142 400.114256 359.221467 400.310797 359.566965 400.543072 C 359.915441 400.775347 360.237112 401.037401 360.531976 401.33519 C 360.826841 401.630001 361.091921 401.951613 361.324238 402.297048 C 361.556556 402.645461 361.750154 403.011741 361.910989 403.398866 C 362.071824 403.785992 362.190961 404.182051 362.274357 404.592999 C 362.354775 405.00097 362.396473 405.414896 362.396473 405.834778 C 362.396473 406.251682 362.354775 406.665609 362.274357 407.076557 C 362.190961 407.484528 362.071824 407.883565 361.910989 408.27069 C 361.750154 408.654838 361.556556 409.021118 361.324238 409.369531 C 361.091921 409.717943 360.826841 410.039555 360.531976 410.334366 C 360.237112 410.629177 359.915441 410.894209 359.566965 411.126484 C 359.221467 411.358759 358.852142 411.552322 358.467924 411.713128 C 358.080728 411.873934 357.684597 411.993049 357.273574 412.07643 C 356.862551 412.156833 356.448549 412.198524 356.031569 412.198524 L 331.989683 412.198524 C 331.572703 412.198524 331.158701 412.156833 330.747678 412.07643 C 330.339633 411.993049 329.940524 411.873934 329.553328 411.713128 C 329.16911 411.552322 328.802763 411.358759 328.454287 411.126484 C 328.105811 410.894209 327.78414 410.629177 327.489276 410.334366 C 327.194411 410.039555 326.929331 409.717943 326.697014 409.369531 C 326.467674 409.021118 326.271098 408.654838 326.110263 408.27069 C 325.949428 407.883565 325.83029 407.484528 325.746894 407.076557 C 325.666477 406.665609 325.624779 406.251682 325.624779 405.834778 C 325.624779 405.414896 325.666477 405.00097 325.746894 404.592999 C 325.83029 404.182051 325.949428 403.785992 326.110263 403.398866 C 326.271098 403.011741 326.467674 402.645461 326.697014 402.297048 C 326.929331 401.951613 327.194411 401.630001 327.489276 401.33519 C 327.78414 401.037401 328.105811 400.775347 328.454287 400.543072 C 328.802763 400.310797 329.16911 400.114256 329.553328 399.95345 C 329.940524 399.795622 330.339633 399.673529 330.747678 399.593126 C 331.158701 399.509745 331.572703 399.471033 331.989683 399.471033 " stroke="#484848" stroke-width="2" stroke-opacity="1" stroke-miterlimit="4"/><path stroke-linecap="round" transform="matrix(-1.311513, 0, 0, 1.311752, 672.998696, -240.280383)" fill-opacity="1" fill="#a4a4a4" fill-rule="nonzero" stroke-linejoin="round" d="M 363.099383 466.69982 C 359.248273 467.015476 301.416101 467.712302 300.168139 466.345452 C 300.168139 452.775218 314.863712 441.774902 332.993414 441.774902 C 343.30176 441.774902 355.995827 443.564612 362.015234 446.652682 C 363.021943 448.50195 363.099383 460.845294 363.099383 466.69982 Z M 363.099383 466.69982 " stroke="#484848" stroke-width="2" stroke-opacity="1" stroke-miterlimit="4"/><path fill="#808080" d="M 279.097656 368.203125 C 237.332031 366.726562 197.144531 373.089844 205.605469 343.15625 L 197.488281 345.941406 L 196.792969 372.375 L 278.867188 372.144531 Z M 279.097656 368.203125 " fill-opacity="1" fill-rule="nonzero"/><path stroke-linecap="round" transform="matrix(-1.311513, 0, 0, 1.311752, 672.998696, -240.280383)" fill="none" stroke-linejoin="round" d="M 363.099383 466.69982 C 359.248273 467.015476 301.416101 467.712302 300.168139 466.345452 C 300.168139 452.775218 314.863712 441.774902 332.993414 441.774902 C 343.30176 441.774902 355.995827 443.564612 362.015234 446.652682 C 363.021943 448.50195 363.099383 460.845294 363.099383 466.69982 Z M 363.099383 466.69982 " stroke="#484848" stroke-width="2" stroke-opacity="1" stroke-miterlimit="4"/><path fill="#ffffff" d="M 271.308594 358.992188 C 262.019531 351.105469 252.636719 344.972656 230.015625 343.066406 C 246.882812 340.226562 264.050781 344.894531 271.308594 358.992188 Z M 271.308594 358.992188 " fill-opacity="0.63" fill-rule="nonzero"/><path stroke-linecap="round" transform="matrix(0.934526, 0, 0, 0.934696, -159.205723, -14.822407)" fill-opacity="1" fill="#a4a4a4" fill-rule="nonzero" stroke-linejoin="round" d="M 455.798872 113.750812 L 473.877061 113.750812 L 473.877061 153.444542 L 455.798872 153.444542 Z M 455.798872 113.750812 " stroke="#484848" stroke-width="2.807" stroke-opacity="1" stroke-miterlimit="4"/><path fill="#e3e3e3" d="M 261.910156 92.816406 L 282.402344 92.816406 L 282.402344 101.34375 L 261.910156 101.34375 Z M 261.910156 92.816406 " fill-opacity="1" fill-rule="nonzero"/><path fill="#000000" d="M 261.84375 118.765625 L 282.335938 118.765625 L 282.335938 127.289062 L 261.84375 127.289062 Z M 261.84375 118.765625 " fill-opacity="0.35" fill-rule="nonzero"/><path stroke-linecap="round" transform="matrix(0.934526, 0, 0, 0.934696, -159.205723, -14.822407)" fill-opacity="1" fill="#a4a4a4" fill-rule="nonzero" stroke-linejoin="round" d="M 348.470855 175.970253 L 399.670796 175.970253 L 399.670796 195.25711 L 348.470855 195.25711 Z M 348.470855 175.970253 " stroke="#484848" stroke-width="2.807" stroke-opacity="1" stroke-miterlimit="4"/><path stroke-linecap="round" transform="matrix(0.934526, 0, 0, 0.934696, -159.205723, -14.822407)" fill-opacity="1" fill="#a4a4a4" fill-rule="nonzero" stroke-linejoin="round" d="M 344.328546 195.328155 L 404.160039 195.328155 L 404.160039 214.47292 L 344.328546 214.47292 Z M 344.328546 195.328155 " stroke="#484848" stroke-width="2.807" stroke-opacity="1" stroke-miterlimit="4"/><path stroke-linecap="round" transform="matrix(0.934526, 0, 0, 0.934696, -159.205723, -14.822407)" fill-opacity="1" fill="#a4a4a4" fill-rule="nonzero" stroke-linejoin="round" d="M 307.520098 204.380231 L 437.377928 204.380231 L 437.377928 319.478674 L 307.520098 319.478674 Z M 307.520098 204.380231 " stroke="#484848" stroke-width="2.807" stroke-opacity="1" stroke-miterlimit="4"/><path stroke-linecap="round" transform="matrix(0.934526, 0, 0, 0.934696, -159.205723, -14.822407)" fill-opacity="1" fill="#a4a4a4" fill-rule="nonzero" stroke-linejoin="round" d="M 270.548633 113.750812 L 288.626823 113.750812 L 288.626823 153.444542 L 270.548633 153.444542 Z M 270.548633 113.750812 " stroke="#484848" stroke-width="2.807" stroke-opacity="1" stroke-miterlimit="4"/><path fill="#e3e3e3" d="M 94.667969 92.695312 L 115.160156 92.695312 L 115.160156 101.222656 L 94.667969 101.222656 Z M 94.667969 92.695312 " fill-opacity="1" fill-rule="nonzero"/><path fill="#000000" d="M 94.996094 118.933594 L 115.488281 118.933594 L 115.488281 127.460938 L 94.996094 127.460938 Z M 94.996094 118.933594 " fill-opacity="0.35" fill-rule="nonzero"/><path stroke-linecap="round" transform="matrix(0.934526, 0, 0, 0.934696, -159.205723, -14.822407)" fill-opacity="1" fill="#a4a4a4" fill-rule="nonzero" stroke-linejoin="round" d="M 287.259986 88.993426 L 456.567979 88.993426 L 456.567979 176.074732 L 287.259986 176.074732 Z M 287.259986 88.993426 " stroke="#484848" stroke-width="2.807" stroke-opacity="1" stroke-miterlimit="4"/><path fill="#000000" d="M 244.996094 69.636719 L 266.191406 69.636719 L 266.191406 156.097656 L 244.996094 156.097656 C 251.121094 127.277344 254.765625 98.457031 244.996094 69.636719 Z M 244.996094 69.636719 " fill-opacity="0.329" fill-rule="nonzero"/><path stroke-linecap="round" transform="matrix(0.934526, 0, 0, 0.934696, -159.205723, -14.822407)" fill-opacity="1" fill="#a4a4a4" fill-rule="nonzero" stroke-linejoin="round" d="M 279.811354 139.310599 L 302.968157 139.310599 L 324.653624 162.308556 L 417.293373 162.308556 L 441.92987 139.310599 L 465.086672 139.310599 L 465.086672 186.719071 L 279.807174 186.719071 L 279.807174 139.310599 Z M 279.811354 139.310599 " stroke="#484848" stroke-width="2.807" stroke-opacity="1" stroke-miterlimit="4"/><path stroke-linecap="butt" transform="matrix(1.698874, 0, 0, 1.588422, -421.928944, -310.391903)" fill-opacity="1" fill="#ffffff" fill-rule="nonzero" stroke-linejoin="miter" d="M 353.549441 256.109428 C 353.549441 262.525484 348.688684 267.726695 342.692066 267.726695 C 336.693148 267.726695 331.832392 262.525484 331.832392 256.109428 C 331.832392 249.693371 336.693148 244.49216 342.692066 244.49216 C 348.688684 244.49216 353.549441 249.693371 353.549441 256.109428 Z M 353.549441 256.109428 " stroke="#484848" stroke-width="1" stroke-opacity="1" stroke-miterlimit="4"/><path stroke-linecap="butt" transform="matrix(1.698874, 0, 0, 1.588422, -366.614326, -311.39204)" fill-opacity="1" fill="#ffffff" fill-rule="nonzero" stroke-linejoin="miter" d="M 353.550493 256.109514 C 353.550493 262.525571 348.687438 267.726782 342.690819 267.726782 C 336.6942 267.726782 331.831145 262.525571 331.831145 256.109514 C 331.831145 249.693457 336.6942 244.492246 342.690819 244.492246 C 348.687438 244.492246 353.550493 249.693457 353.550493 256.109514 Z M 353.550493 256.109514 " stroke="#484848" stroke-width="1" stroke-opacity="1" stroke-miterlimit="4"/><path fill="#000000" d="M 166.550781 101.085938 C 166.550781 107.503906 161.347656 112.703125 154.929688 112.703125 C 148.515625 112.703125 143.3125 107.503906 143.3125 101.085938 C 143.3125 94.667969 148.515625 89.464844 154.929688 89.464844 C 161.347656 89.464844 166.550781 94.667969 166.550781 101.085938 Z M 166.550781 101.085938 " fill-opacity="1" fill-rule="nonzero"/><path fill="#000000" d="M 221.863281 100.421875 C 221.863281 106.839844 216.664062 112.042969 210.246094 112.042969 C 203.828125 112.042969 198.628906 106.839844 198.628906 100.421875 C 198.628906 94.003906 203.828125 88.800781 210.246094 88.800781 C 216.664062 88.800781 221.863281 94.003906 221.863281 100.421875 Z M 221.863281 100.421875 " fill-opacity="1" fill-rule="nonzero"/><path fill="#e5e5e5" d="M 111.84375 112.371094 L 113.167969 72.289062 L 182.390625 71.292969 L 119.128906 77.257812 Z M 111.84375 112.371094 " fill-opacity="1" fill-rule="nonzero"/><path fill="#000000" d="M 254.265625 116.679688 L 274.136719 116.597656 L 274.136719 158.339844 L 242.34375 158.339844 C 245.097656 149.695312 246.753906 140.5 242.179688 128.191406 Z M 254.265625 116.679688 " fill-opacity="0.329" fill-rule="nonzero"/><path fill="#e5e5e5" d="M 104.917969 125.578125 L 105.042969 157.351562 L 162.925781 157.402344 L 110.28125 152.417969 Z M 104.917969 125.578125 " fill-opacity="1" fill-rule="nonzero"/><path stroke-linecap="butt" transform="matrix(0.934526, 0, 0, 0.934696, -159.205723, -14.822407)" fill-opacity="1" fill="#a4a4a4" fill-rule="nonzero" stroke-linejoin="miter" d="M 365.888616 45.843525 L 372.342425 45.843525 L 381.270752 89.010143 L 356.462878 89.010143 Z M 365.888616 45.843525 " stroke="#484848" stroke-width="2.807" stroke-opacity="1" stroke-miterlimit="4"/><path stroke-linecap="butt" transform="matrix(1.311513, 0, 0, 1.311752, -119.602392, -237.962344)" fill-opacity="1" fill="#604aff" fill-rule="nonzero" stroke-linejoin="miter" d="M 244.309315 194.460102 C 244.309315 201.002521 239.323423 206.30316 233.172966 206.30316 C 227.022508 206.30316 222.036617 201.002521 222.036617 194.460102 C 222.036617 187.917683 227.022508 182.617043 233.172966 182.617043 C 239.323423 182.617043 244.309315 187.917683 244.309315 194.460102 Z M 244.309315 194.460102 " stroke="#00054d" stroke-width="2" stroke-opacity="1" stroke-miterlimit="4"/><path fill="#ffffff" d="M 175.542969 11.011719 C 182.152344 7.023438 189.304688 7.417969 196.859375 11.050781 C 190.332031 3.320312 183.476562 0.0078125 175.542969 11.011719 Z M 175.542969 11.011719 " fill-opacity="0.63" fill-rule="nonzero"/><path fill="#000000" d="M 173.363281 21.453125 C 182.925781 27.980469 191.640625 28.820312 199.019531 20.714844 C 197.144531 31.597656 179.792969 37.734375 173.363281 21.453125 Z M 173.363281 21.453125 " fill-opacity="0.35" fill-rule="nonzero"/><path stroke-linecap="round" transform="matrix(0.934526, 0, 0, 0.934696, -159.205723, -14.822407)" fill-opacity="1" fill="#484848" fill-rule="nonzero" stroke-linejoin="round" d="M 347.179257 288.728362 L 397.539032 288.728362 C 397.990465 288.728362 398.425177 288.816125 398.83899 288.987471 C 399.256983 289.158816 399.620637 289.405387 399.942491 289.723004 C 400.260166 290.040621 400.502601 290.408387 400.678158 290.826304 C 400.849536 291.240042 400.933134 291.674675 400.933134 292.121846 L 400.933134 292.314088 C 400.933134 292.761258 400.849536 293.195892 400.678158 293.609629 C 400.502601 294.027546 400.260166 294.395313 399.942491 294.71293 C 399.620637 295.030546 399.256983 295.277117 398.83899 295.448463 C 398.425177 295.619809 397.990465 295.707571 397.539032 295.707571 L 347.179257 295.707571 C 346.732005 295.707571 346.297292 295.619809 345.8793 295.448463 C 345.465487 295.277117 345.097653 295.030546 344.779978 294.71293 C 344.462304 294.395313 344.215688 294.027546 344.044311 293.609629 C 343.872934 293.195892 343.785156 292.761258 343.785156 292.314088 L 343.785156 292.121846 C 343.785156 291.674675 343.872934 291.240042 344.044311 290.826304 C 344.215688 290.408387 344.462304 290.040621 344.779978 289.723004 C 345.097653 289.405387 345.465487 289.158816 345.8793 288.987471 C 346.297292 288.816125 346.732005 288.728362 347.179257 288.728362 " stroke="#484848" stroke-width="1.795" stroke-opacity="1" stroke-miterlimit="4"/><path stroke-linecap="round" transform="matrix(0.934526, 0, 0, 0.934696, -159.205723, -14.822407)" fill-opacity="1" fill="#484848" fill-rule="nonzero" stroke-linejoin="round" d="M 347.881485 302.059905 L 398.24126 302.059905 C 398.692693 302.059905 399.123225 302.147668 399.541218 302.319014 C 399.955031 302.49036 400.322865 302.73693 400.640539 303.054547 C 400.958214 303.372164 401.204829 303.739931 401.376206 304.153668 C 401.547584 304.571585 401.635362 305.002039 401.635362 305.453389 L 401.635362 305.641452 C 401.635362 306.092802 401.547584 306.523256 401.376206 306.941173 C 401.204829 307.35491 400.958214 307.722677 400.640539 308.040294 C 400.322865 308.362089 399.955031 308.604481 399.541218 308.775827 C 399.123225 308.951352 398.692693 309.034935 398.24126 309.034935 L 347.881485 309.034935 C 347.430053 309.034935 346.99534 308.951352 346.581528 308.775827 C 346.163535 308.604481 345.799881 308.362089 345.482206 308.040294 C 345.160352 307.722677 344.917916 307.35491 344.746539 306.941173 C 344.570982 306.523256 344.487383 306.092802 344.487383 305.641452 L 344.487383 305.453389 C 344.487383 305.002039 344.570982 304.571585 344.746539 304.153668 C 344.917916 303.739931 345.160352 303.372164 345.482206 303.054547 C 345.799881 302.73693 346.163535 302.49036 346.581528 302.319014 C 346.99534 302.147668 347.430053 302.059905 347.881485 302.059905 " stroke="#484848" stroke-width="1.795" stroke-opacity="1" stroke-miterlimit="4"/><path stroke-linecap="round" transform="matrix(1.251143, 0, 0, 1.379144, -275.329871, -191.685559)" fill-opacity="1" fill="#ff0000" fill-rule="nonzero" stroke-linejoin="round" d="M 342.500745 330.989763 C 342.500745 334.371617 339.478509 337.116187 335.750667 337.116187 C 332.022825 337.116187 329.000589 334.371617 329.000589 330.989763 C 329.000589 327.607909 332.022825 324.866171 335.750667 324.866171 C 339.478509 324.866171 342.500745 327.607909 342.500745 330.989763 Z M 342.500745 330.989763 " stroke="#484848" stroke-width="2" stroke-opacity="1" stroke-miterlimit="4"/><path stroke-linecap="round" transform="matrix(1.251143, 0, 0, 1.379144, -186.147156, -191.685559)" fill-opacity="1" fill="#ff0000" fill-rule="nonzero" stroke-linejoin="round" d="M 342.501448 330.989763 C 342.501448 334.371617 339.479211 337.116187 335.751369 337.116187 C 332.023528 337.116187 329.001291 334.371617 329.001291 330.989763 C 329.001291 327.607909 332.023528 324.866171 335.751369 324.866171 C 339.479211 324.866171 342.501448 327.607909 342.501448 330.989763 Z M 342.501448 330.989763 " stroke="#484848" stroke-width="2" stroke-opacity="1" stroke-miterlimit="4"/><path stroke-linecap="round" transform="matrix(0.934526, 0, 0, 0.934696, -159.205723, -14.822407)" fill-opacity="1" fill="#dbfffc" fill-rule="nonzero" stroke-linejoin="round" d="M 318.208175 212.738566 L 426.150641 212.738566 C 426.602073 212.738566 427.032606 212.826328 427.450599 212.997674 C 427.864412 213.16902 428.232245 213.415591 428.54992 213.733208 C 428.867594 214.050824 429.11421 214.418591 429.285587 214.836508 C 429.456964 215.250245 429.544743 215.684879 429.544743 216.132049 L 429.544743 279.517478 C 429.544743 279.968828 429.456964 280.399282 429.285587 280.817199 C 429.11421 281.230936 428.867594 281.598703 428.54992 281.91632 C 428.232245 282.233936 427.864412 282.480507 427.450599 282.651853 C 427.032606 282.823199 426.602073 282.910961 426.150641 282.910961 L 318.208175 282.910961 C 317.760922 282.910961 317.32621 282.823199 316.912397 282.651853 C 316.494404 282.480507 316.126571 282.233936 315.808896 281.91632 C 315.491221 281.598703 315.248786 281.230936 315.073229 280.817199 C 314.901852 280.399282 314.818253 279.968828 314.818253 279.517478 L 314.818253 216.132049 C 314.818253 215.684879 314.901852 215.250245 315.073229 214.836508 C 315.248786 214.418591 315.491221 214.050824 315.808896 213.733208 C 316.126571 213.415591 316.494404 213.16902 316.912397 212.997674 C 317.32621 212.826328 317.760922 212.738566 318.208175 212.738566 " stroke="#484848" stroke-width="2.807" stroke-opacity="1" stroke-miterlimit="4"/><path stroke-linecap="round" transform="matrix(0.934526, 0, 0, 0.934696, -159.205723, -14.822407)" fill="none" stroke-linejoin="round" d="M 315.520481 253.439475 L 328.850272 253.439475 L 338.677283 223.265888 L 344.642041 253.790525 L 352.007074 240.458981 L 363.234362 270.281518 L 369.901347 250.982124 L 385.337822 250.631074 L 391.653693 227.478488 L 397.969565 265.019947 L 404.285436 240.458981 L 407.792396 253.088425 L 428.144467 253.088425 " stroke="#00a799" stroke-width="2.807" stroke-opacity="1" stroke-miterlimit="4"/><path fill="#ffffff" d="M 138.179688 246.582031 L 138.203125 192.46875 C 138.082031 188.894531 140.9375 187.050781 143.769531 186.929688 L 235.765625 186.695312 L 147.386719 192.046875 C 144.238281 192.445312 142.917969 194.144531 142.828125 196.726562 L 138.015625 237.238281 Z M 138.179688 246.582031 " fill-opacity="0.95" fill-rule="nonzero"/><path stroke-linecap="round" transform="matrix(0.934526, 0, 0, 0.934696, -159.205723, -14.822407)" fill="none" stroke-linejoin="round" d="M 318.208175 212.738566 L 426.150641 212.738566 C 426.602073 212.738566 427.032606 212.826328 427.450599 212.997674 C 427.864412 213.16902 428.232245 213.415591 428.54992 213.733208 C 428.867594 214.050824 429.11421 214.418591 429.285587 214.836508 C 429.456964 215.250245 429.544743 215.684879 429.544743 216.132049 L 429.544743 279.517478 C 429.544743 279.968828 429.456964 280.399282 429.285587 280.817199 C 429.11421 281.230936 428.867594 281.598703 428.54992 281.91632 C 428.232245 282.233936 427.864412 282.480507 427.450599 282.651853 C 427.032606 282.823199 426.602073 282.910961 426.150641 282.910961 L 318.208175 282.910961 C 317.760922 282.910961 317.32621 282.823199 316.912397 282.651853 C 316.494404 282.480507 316.126571 282.233936 315.808896 281.91632 C 315.491221 281.598703 315.248786 281.230936 315.073229 280.817199 C 314.901852 280.399282 314.818253 279.968828 314.818253 279.517478 L 314.818253 216.132049 C 314.818253 215.684879 314.901852 215.250245 315.073229 214.836508 C 315.248786 214.418591 315.491221 214.050824 315.808896 213.733208 C 316.126571 213.415591 316.494404 213.16902 316.912397 212.997674 C 317.32621 212.826328 317.760922 212.738566 318.208175 212.738566 " stroke="#484848" stroke-width="2.807" stroke-opacity="1" stroke-miterlimit="4"/><path fill="#ffffff" d="M 138.339844 262.511719 C 142.324219 260.34375 146.636719 260.558594 151.191406 262.53125 C 147.257812 258.335938 143.121094 256.539062 138.339844 262.511719 Z M 138.339844 262.511719 " fill-opacity="0.63" fill-rule="nonzero"/><path fill="#ffffff" d="M 227.59375 262.457031 C 231.582031 260.289062 235.894531 260.503906 240.449219 262.476562 C 236.511719 258.28125 232.378906 256.484375 227.59375 262.457031 Z M 227.59375 262.457031 " fill-opacity="0.63" fill-rule="nonzero"/><path stroke-linecap="round" transform="matrix(1.311513, 0, 0, 1.311752, -292.562554, -239.822372)" fill-opacity="1" fill="#a4a4a4" fill-rule="nonzero" stroke-linejoin="round" d="M 332.339195 435.839225 L 356.38108 435.839225 C 356.801039 435.839225 357.21504 435.880916 357.623085 435.961319 C 358.034109 436.0447 358.43024 436.163815 358.817436 436.324621 C 359.204632 436.485427 359.570978 436.681967 359.916476 436.911265 C 360.264953 437.14354 360.586623 437.408572 360.881487 437.703383 C 361.176352 437.998194 361.441432 438.319806 361.67375 438.668218 C 361.906067 439.016631 362.102644 439.382911 362.2605 439.770037 C 362.421336 440.154184 362.543451 440.553221 362.623869 440.961192 C 362.704287 441.37214 362.745985 441.786067 362.745985 442.202971 C 362.745985 442.622853 362.704287 443.036779 362.623869 443.44475 C 362.543451 443.855698 362.421336 444.254735 362.2605 444.638883 C 362.102644 445.026008 361.906067 445.392288 361.67375 445.740701 C 361.441432 446.086136 361.176352 446.407748 360.881487 446.702559 C 360.586623 447.000348 360.264953 447.262402 359.916476 447.494677 C 359.570978 447.726952 359.204632 447.923493 358.817436 448.084299 C 358.43024 448.242127 358.034109 448.36422 357.623085 448.444623 C 357.21504 448.528004 356.801039 448.566716 356.38108 448.566716 L 332.339195 448.566716 C 331.922215 448.566716 331.508213 448.528004 331.09719 448.444623 C 330.689145 448.36422 330.290035 448.242127 329.905818 448.084299 C 329.518622 447.923493 329.152275 447.726952 328.803799 447.494677 C 328.458301 447.262402 328.13663 447.000348 327.838787 446.702559 C 327.543923 446.407748 327.281821 446.086136 327.049503 445.740701 C 326.817186 445.392288 326.62061 445.026008 326.459774 444.638883 C 326.301918 444.254735 326.179802 443.855698 326.099384 443.44475 C 326.015988 443.036779 325.977269 442.622853 325.977269 442.202971 C 325.977269 441.786067 326.015988 441.37214 326.099384 440.961192 C 326.179802 440.553221 326.301918 440.154184 326.459774 439.770037 C 326.62061 439.382911 326.817186 439.016631 327.049503 438.668218 C 327.281821 438.319806 327.543923 437.998194 327.838787 437.703383 C 328.13663 437.408572 328.458301 437.14354 328.803799 436.911265 C 329.152275 436.67899 329.518622 436.485427 329.905818 436.324621 C 330.290035 436.163815 330.689145 436.0447 331.09719 435.961319 C 331.508213 435.880916 331.922215 435.839225 332.339195 435.839225 " stroke="#484848" stroke-width="2" stroke-opacity="1" stroke-miterlimit="4"/><path stroke-linecap="round" transform="matrix(1.311513, 0, 0, 1.311752, -292.562554, -239.822372)" fill-opacity="1" fill="#a4a4a4" fill-rule="nonzero" stroke-linejoin="round" d="M 332.339195 423.841317 L 356.38108 423.841317 C 356.801039 423.841317 357.21504 423.880029 357.623085 423.96341 C 358.034109 424.043813 358.43024 424.165906 358.817436 424.323734 C 359.204632 424.48454 359.570978 424.681081 359.916476 424.913356 C 360.264953 425.145631 360.586623 425.407686 360.881487 425.705474 C 361.176352 426.000285 361.441432 426.321897 361.67375 426.667332 C 361.906067 427.015745 362.102644 427.382025 362.2605 427.76915 C 362.421336 428.153298 362.543451 428.552335 362.623869 428.963283 C 362.704287 429.371254 362.745985 429.78518 362.745985 430.205062 C 362.745985 430.621966 362.704287 431.035893 362.623869 431.446841 C 362.543451 431.854812 362.421336 432.253849 362.2605 432.637996 C 362.102644 433.025122 361.906067 433.391402 361.67375 433.739815 C 361.441432 434.088228 361.176352 434.409839 360.881487 434.70465 C 360.586623 434.999461 360.264953 435.264493 359.916476 435.496768 C 359.570978 435.729044 359.204632 435.922606 358.817436 436.083412 C 358.43024 436.244218 358.034109 436.363334 357.623085 436.446714 C 357.21504 436.527117 356.801039 436.568808 356.38108 436.568808 L 332.339195 436.568808 C 331.922215 436.568808 331.508213 436.527117 331.09719 436.446714 C 330.689145 436.363334 330.290035 436.244218 329.905818 436.083412 C 329.518622 435.922606 329.152275 435.729044 328.803799 435.496768 C 328.458301 435.264493 328.13663 434.999461 327.838787 434.70465 C 327.543923 434.409839 327.281821 434.088228 327.049503 433.739815 C 326.817186 433.391402 326.62061 433.025122 326.459774 432.637996 C 326.301918 432.253849 326.179802 431.854812 326.099384 431.446841 C 326.015988 431.035893 325.977269 430.621966 325.977269 430.205062 C 325.977269 429.78518 326.015988 429.371254 326.099384 428.963283 C 326.179802 428.552335 326.301918 428.153298 326.459774 427.76915 C 326.62061 427.382025 326.817186 427.015745 327.049503 426.667332 C 327.281821 426.321897 327.543923 426.000285 327.838787 425.702496 C 328.13663 425.407686 328.458301 425.145631 328.803799 424.913356 C 329.152275 424.681081 329.518622 424.48454 329.905818 424.323734 C 330.290035 424.165906 330.689145 424.043813 331.09719 423.96341 C 331.508213 423.880029 331.922215 423.841317 332.339195 423.841317 " stroke="#484848" stroke-width="2" stroke-opacity="1" stroke-miterlimit="4"/><path stroke-linecap="round" transform="matrix(1.311513, 0, 0, 1.311752, -292.562554, -239.822372)" fill-opacity="1" fill="#a4a4a4" fill-rule="nonzero" stroke-linejoin="round" d="M 332.339195 411.84043 L 356.38108 411.84043 C 356.801039 411.84043 357.21504 411.882121 357.623085 411.962524 C 358.034109 412.042927 358.43024 412.16502 358.817436 412.325826 C 359.204632 412.483654 359.570978 412.680194 359.916476 412.91247 C 360.264953 413.144745 360.586623 413.409777 360.881487 413.704588 C 361.176352 413.999399 361.441432 414.32101 361.67375 414.669423 C 361.906067 415.014858 362.102644 415.384116 362.2605 415.768264 C 362.421336 416.155389 362.543451 416.551448 362.623869 416.962397 C 362.704287 417.373345 362.745985 417.787271 362.745985 418.204176 C 362.745985 418.62108 362.704287 419.035006 362.623869 419.445955 C 362.543451 419.856903 362.421336 420.252962 362.2605 420.640088 C 362.102644 421.024235 361.906067 421.393493 361.67375 421.738928 C 361.441432 422.087341 361.176352 422.408953 360.881487 422.703764 C 360.586623 422.998575 360.264953 423.263607 359.916476 423.495882 C 359.570978 423.728157 359.204632 423.924698 358.817436 424.082526 C 358.43024 424.243332 358.034109 424.365425 357.623085 424.445828 C 357.21504 424.526231 356.801039 424.567921 356.38108 424.567921 L 332.339195 424.567921 C 331.922215 424.567921 331.508213 424.526231 331.09719 424.445828 C 330.689145 424.365425 330.290035 424.243332 329.905818 424.082526 C 329.518622 423.924698 329.152275 423.728157 328.803799 423.495882 C 328.458301 423.263607 328.13663 422.998575 327.838787 422.703764 C 327.543923 422.408953 327.281821 422.087341 327.049503 421.738928 C 326.817186 421.393493 326.62061 421.024235 326.459774 420.640088 C 326.301918 420.252962 326.179802 419.853925 326.099384 419.445955 C 326.015988 419.035006 325.977269 418.62108 325.977269 418.204176 C 325.977269 417.787271 326.015988 417.373345 326.099384 416.962397 C 326.179802 416.551448 326.301918 416.155389 326.459774 415.768264 C 326.62061 415.381138 326.817186 415.014858 327.049503 414.669423 C 327.281821 414.32101 327.543923 413.999399 327.838787 413.704588 C 328.13663 413.409777 328.458301 413.144745 328.803799 412.91247 C 329.152275 412.680194 329.518622 412.483654 329.905818 412.325826 C 330.290035 412.16502 330.689145 412.042927 331.09719 411.962524 C 331.508213 411.882121 331.922215 411.84043 332.339195 411.84043 " stroke="#484848" stroke-width="2" stroke-opacity="1" stroke-miterlimit="4"/><path stroke-linecap="round" transform="matrix(1.311513, 0, 0, 1.311752, -292.562554, -239.822372)" fill-opacity="1" fill="#a4a4a4" fill-rule="nonzero" stroke-linejoin="round" d="M 331.990718 399.470286 L 356.032604 399.470286 C 356.449584 399.470286 356.863586 399.511976 357.274609 399.592379 C 357.682654 399.672782 358.081763 399.794875 358.465981 399.955681 C 358.853177 400.113509 359.219524 400.31005 359.568 400.542325 C 359.916476 400.7746 360.235168 401.039632 360.533011 401.334443 C 360.827876 401.629254 361.089978 401.950866 361.322295 402.299279 C 361.554613 402.644714 361.751189 403.013972 361.912024 403.398119 C 362.072859 403.785245 362.191997 404.181304 362.272414 404.592252 C 362.35581 405.003201 362.39453 405.417127 362.39453 405.834031 C 362.39453 406.250935 362.35581 406.664862 362.272414 407.07581 C 362.191997 407.486759 362.072859 407.882818 361.912024 408.269943 C 361.751189 408.654091 361.554613 409.023349 361.322295 409.368784 C 361.089978 409.717196 360.827876 410.038808 360.533011 410.333619 C 360.235168 410.62843 359.916476 410.893462 359.568 411.125737 C 359.219524 411.358012 358.853177 411.554553 358.465981 411.712381 C 358.081763 411.873187 357.682654 411.99528 357.274609 412.075683 C 356.863586 412.156086 356.449584 412.197777 356.032604 412.197777 L 331.990718 412.197777 C 331.57076 412.197777 331.156758 412.156086 330.748713 412.075683 C 330.33769 411.99528 329.941559 411.873187 329.554363 411.712381 C 329.167167 411.554553 328.80082 411.358012 328.455322 411.125737 C 328.106846 410.893462 327.785176 410.62843 327.490311 410.333619 C 327.195446 410.038808 326.930366 409.717196 326.698049 409.368784 C 326.465731 409.023349 326.269155 408.654091 326.111298 408.269943 C 325.950463 407.882818 325.828347 407.486759 325.74793 407.07581 C 325.667512 406.664862 325.625814 406.250935 325.625814 405.834031 C 325.625814 405.417127 325.667512 405.003201 325.74793 404.592252 C 325.828347 404.181304 325.950463 403.785245 326.111298 403.398119 C 326.269155 403.013972 326.465731 402.644714 326.698049 402.299279 C 326.930366 401.950866 327.195446 401.629254 327.490311 401.334443 C 327.785176 401.039632 328.106846 400.7746 328.455322 400.542325 C 328.80082 400.31005 329.167167 400.113509 329.554363 399.955681 C 329.941559 399.794875 330.33769 399.672782 330.748713 399.592379 C 331.159737 399.511976 331.57076 399.470286 331.990718 399.470286 " stroke="#484848" stroke-width="2" stroke-opacity="1" stroke-miterlimit="4"/><path fill="#808080" d="M 168.121094 283.566406 C 171.148438 288.828125 173.671875 294.144531 168.121094 300.261719 C 171.605469 305.101562 175.070312 309.945312 167.886719 316.496094 C 174.597656 322.765625 171.96875 327.480469 168.351562 332.03125 C 174.308594 342.074219 169.023438 343.519531 168.351562 348.496094 L 182.261719 348.726562 L 181.101562 345.25 L 183.886719 341.074219 L 182.496094 335.046875 L 178.089844 331.566406 L 182.726562 328.089844 L 183.652344 322.988281 L 178.785156 316.496094 L 182.03125 313.480469 L 183.191406 307.683594 L 177.625 300.03125 L 181.800781 296.785156 L 183.421875 291.914062 L 180.40625 286.117188 L 177.394531 283.566406 L 169.277344 284.261719 Z M 168.121094 283.566406 " fill-opacity="1" fill-rule="nonzero"/><path fill="#ffffff" d="M 149.378906 283.722656 C 146.347656 288.984375 143.828125 294.300781 149.378906 300.421875 C 145.890625 305.261719 142.425781 310.105469 149.609375 316.652344 C 142.898438 322.921875 145.527344 327.636719 149.144531 332.1875 C 143.191406 342.230469 148.472656 343.675781 149.144531 348.652344 L 135.234375 348.882812 L 136.394531 345.40625 L 133.613281 341.230469 L 135.003906 335.203125 L 139.410156 331.722656 L 134.769531 328.246094 L 133.84375 323.144531 L 138.710938 316.652344 L 135.46875 313.636719 L 134.308594 307.839844 L 139.871094 300.1875 L 135.699219 296.941406 L 134.074219 292.070312 L 137.089844 286.273438 L 140.105469 283.722656 L 148.21875 284.417969 Z M 149.378906 283.722656 " fill-opacity="0.63" fill-rule="nonzero"/><path stroke-linecap="round" transform="matrix(1.311513, 0, 0, 1.311752, -292.562554, -239.822372)" fill="none" stroke-linejoin="round" d="M 332.029438 436.470537 L 356.696794 436.470537 C 357.092925 436.470537 357.489056 436.50925 357.876252 436.586675 C 358.266426 436.6641 358.644687 436.77726 359.014012 436.929132 C 359.380359 437.083982 359.728835 437.268611 360.059441 437.488975 C 360.390047 437.709339 360.693846 437.962459 360.976797 438.242381 C 361.25677 438.522302 361.506958 438.829024 361.727362 439.15957 C 361.950744 439.490115 362.135406 439.838528 362.287306 440.204808 C 362.439206 440.574066 362.555365 440.952258 362.632804 441.342361 C 362.710243 441.729487 362.748963 442.125546 362.748963 442.521605 C 362.748963 442.917664 362.710243 443.313723 362.632804 443.700848 C 362.555365 444.090952 362.439206 444.469143 362.287306 444.838401 C 362.135406 445.204681 361.950744 445.553094 361.727362 445.88364 C 361.506958 446.214185 361.25677 446.520908 360.976797 446.800829 C 360.693846 447.080751 360.390047 447.330893 360.059441 447.554235 C 359.728835 447.774598 359.380359 447.959227 359.014012 448.1111 C 358.644687 448.262972 358.266426 448.379109 357.876252 448.456535 C 357.489056 448.53396 357.092925 448.572672 356.696794 448.572672 L 332.029438 448.572672 C 331.633307 448.572672 331.240154 448.53396 330.84998 448.456535 C 330.459806 448.379109 330.081545 448.26595 329.715198 448.1111 C 329.345873 447.959227 328.997396 447.774598 328.666791 447.554235 C 328.336185 447.333871 328.032385 447.080751 327.752413 446.800829 C 327.469462 446.520908 327.219274 446.214185 326.99887 445.88364 C 326.778466 445.553094 326.590825 445.204681 326.438925 444.838401 C 326.287025 444.469143 326.170867 444.090952 326.093427 443.700848 C 326.015988 443.313723 325.977269 442.917664 325.977269 442.521605 C 325.977269 442.125546 326.015988 441.729487 326.093427 441.342361 C 326.170867 440.952258 326.287025 440.574066 326.438925 440.204808 C 326.590825 439.838528 326.778466 439.490115 326.99887 439.15957 C 327.219274 438.829024 327.469462 438.522302 327.752413 438.242381 C 328.032385 437.962459 328.336185 437.709339 328.666791 437.488975 C 328.997396 437.268611 329.345873 437.083982 329.715198 436.93211 C 330.081545 436.77726 330.459806 436.6641 330.84998 436.586675 C 331.240154 436.50925 331.633307 436.470537 332.029438 436.470537 " stroke="#484848" stroke-width="2" stroke-opacity="1" stroke-miterlimit="4"/><path stroke-linecap="round" transform="matrix(1.311513, 0, 0, 1.311752, -292.562554, -239.822372)" fill="none" stroke-linejoin="round" d="M 331.969869 424.588766 L 356.762319 424.588766 C 357.155472 424.588766 357.545646 424.627479 357.929864 424.704904 C 358.317059 424.782329 358.689363 424.895489 359.052732 425.044383 C 359.4161 425.196256 359.761598 425.380885 360.089225 425.59827 C 360.416852 425.818634 360.717674 426.065799 360.997646 426.342742 C 361.27464 426.622664 361.52185 426.92343 361.742254 427.250998 C 361.959679 427.578565 362.144342 427.924 362.296242 428.287303 C 362.445163 428.650605 362.558343 429.025819 362.635783 429.409966 C 362.713222 429.797092 362.751941 430.187195 362.751941 430.580276 C 362.751941 430.973357 362.713222 431.360483 362.635783 431.747608 C 362.558343 432.131755 362.445163 432.506969 362.296242 432.870272 C 362.144342 433.233574 361.959679 433.579009 361.742254 433.906576 C 361.52185 434.234144 361.27464 434.534911 360.997646 434.814832 C 360.717674 435.091776 360.416852 435.33894 360.089225 435.559304 C 359.761598 435.77669 359.4161 435.961319 359.052732 436.113191 C 358.689363 436.262085 358.317059 436.375245 357.929864 436.45267 C 357.545646 436.530095 357.155472 436.568808 356.762319 436.568808 L 331.969869 436.568808 C 331.576717 436.568808 331.186542 436.530095 330.802325 436.45267 C 330.415129 436.375245 330.042825 436.262085 329.679457 436.113191 C 329.316088 435.961319 328.970591 435.77669 328.642963 435.559304 C 328.315336 435.33894 328.014515 435.091776 327.734542 434.814832 C 327.457548 434.534911 327.20736 434.234144 326.989935 433.906576 C 326.772509 433.579009 326.587847 433.233574 326.435947 432.870272 C 326.287025 432.506969 326.173845 432.131755 326.096406 431.747608 C 326.018967 431.360483 325.980247 430.973357 325.980247 430.580276 C 325.980247 430.187195 326.018967 429.797092 326.096406 429.409966 C 326.173845 429.025819 326.287025 428.650605 326.435947 428.287303 C 326.587847 427.924 326.772509 427.578565 326.989935 427.250998 C 327.20736 426.92343 327.457548 426.622664 327.734542 426.342742 C 328.014515 426.065799 328.315336 425.818634 328.642963 425.59827 C 328.970591 425.380885 329.316088 425.196256 329.679457 425.047361 C 330.042825 424.895489 330.415129 424.782329 330.802325 424.704904 C 331.186542 424.627479 331.576717 424.588766 331.969869 424.588766 " stroke="#484848" stroke-width="2" stroke-opacity="1" stroke-miterlimit="4"/><path stroke-linecap="round" transform="matrix(1.311513, 0, 0, 1.311752, -292.562554, -239.822372)" fill="none" stroke-linejoin="round" d="M 332.089007 412.340715 L 356.631268 412.340715 C 357.033356 412.340715 357.432466 412.379428 357.825619 412.456853 C 358.218771 412.537256 358.60001 412.650416 358.972314 412.805266 C 359.341639 412.960116 359.696072 413.147723 360.029657 413.371064 C 360.363241 413.594406 360.670019 413.847526 360.955948 414.130426 C 361.238899 414.413325 361.492066 414.723025 361.715448 415.056549 C 361.93883 415.390072 362.126471 415.744441 362.281349 416.113699 C 362.433249 416.485935 362.549408 416.867104 362.629826 417.260185 C 362.707265 417.656244 362.745985 418.052303 362.745985 418.454318 C 362.745985 418.856333 362.707265 419.252392 362.629826 419.645473 C 362.549408 420.041532 362.433249 420.422702 362.281349 420.794938 C 362.126471 421.164196 361.93883 421.515587 361.715448 421.852088 C 361.492066 422.185611 361.238899 422.492334 360.955948 422.778211 C 360.670019 423.06111 360.363241 423.314231 360.029657 423.537572 C 359.696072 423.760914 359.341639 423.948521 358.972314 424.103371 C 358.60001 424.255243 358.218771 424.371381 357.825619 424.451784 C 357.432466 424.529209 357.033356 424.567921 356.631268 424.567921 L 332.089007 424.567921 C 331.689897 424.567921 331.290787 424.529209 330.897635 424.451784 C 330.504482 424.371381 330.120265 424.255243 329.750939 424.103371 C 329.378636 423.948521 329.027181 423.760914 328.693597 423.537572 C 328.360013 423.314231 328.050256 423.06111 327.767305 422.778211 C 327.481376 422.492334 327.228209 422.185611 327.007805 421.852088 C 326.784423 421.515587 326.593804 421.164196 326.441904 420.794938 C 326.287025 420.422702 326.170867 420.041532 326.093427 419.645473 C 326.015988 419.252392 325.977269 418.856333 325.977269 418.454318 C 325.977269 418.052303 326.015988 417.656244 326.093427 417.260185 C 326.170867 416.867104 326.287025 416.485935 326.441904 416.113699 C 326.593804 415.744441 326.784423 415.390072 327.007805 415.056549 C 327.228209 414.723025 327.481376 414.413325 327.767305 414.130426 C 328.050256 413.847526 328.360013 413.594406 328.693597 413.371064 C 329.027181 413.147723 329.378636 412.960116 329.750939 412.805266 C 330.120265 412.650416 330.504482 412.537256 330.897635 412.456853 C 331.290787 412.379428 331.689897 412.340715 332.089007 412.340715 " stroke="#484848" stroke-width="2" stroke-opacity="1" stroke-miterlimit="4"/><path stroke-linecap="round" transform="matrix(1.311513, 0, 0, 1.311752, -292.562554, -239.822372)" fill="none" stroke-linejoin="round" d="M 331.990718 399.470286 L 356.032604 399.470286 C 356.449584 399.470286 356.863586 399.511976 357.274609 399.592379 C 357.682654 399.672782 358.081763 399.794875 358.465981 399.955681 C 358.853177 400.113509 359.219524 400.31005 359.568 400.542325 C 359.916476 400.7746 360.235168 401.039632 360.533011 401.334443 C 360.827876 401.629254 361.089978 401.950866 361.322295 402.299279 C 361.554613 402.644714 361.751189 403.013972 361.912024 403.398119 C 362.072859 403.785245 362.191997 404.181304 362.272414 404.592252 C 362.35581 405.003201 362.39453 405.417127 362.39453 405.834031 C 362.39453 406.250935 362.35581 406.664862 362.272414 407.07581 C 362.191997 407.486759 362.072859 407.882818 361.912024 408.269943 C 361.751189 408.654091 361.554613 409.023349 361.322295 409.368784 C 361.089978 409.717196 360.827876 410.038808 360.533011 410.333619 C 360.235168 410.62843 359.916476 410.893462 359.568 411.125737 C 359.219524 411.358012 358.853177 411.554553 358.465981 411.712381 C 358.081763 411.873187 357.682654 411.99528 357.274609 412.075683 C 356.863586 412.156086 356.449584 412.197777 356.032604 412.197777 L 331.990718 412.197777 C 331.57076 412.197777 331.156758 412.156086 330.748713 412.075683 C 330.33769 411.99528 329.941559 411.873187 329.554363 411.712381 C 329.167167 411.554553 328.80082 411.358012 328.455322 411.125737 C 328.106846 410.893462 327.785176 410.62843 327.490311 410.333619 C 327.195446 410.038808 326.930366 409.717196 326.698049 409.368784 C 326.465731 409.023349 326.269155 408.654091 326.111298 408.269943 C 325.950463 407.882818 325.828347 407.486759 325.74793 407.07581 C 325.667512 406.664862 325.625814 406.250935 325.625814 405.834031 C 325.625814 405.417127 325.667512 405.003201 325.74793 404.592252 C 325.828347 404.181304 325.950463 403.785245 326.111298 403.398119 C 326.269155 403.013972 326.465731 402.644714 326.698049 402.299279 C 326.930366 401.950866 327.195446 401.629254 327.490311 401.334443 C 327.785176 401.039632 328.106846 400.7746 328.455322 400.542325 C 328.80082 400.31005 329.167167 400.113509 329.554363 399.955681 C 329.941559 399.794875 330.33769 399.672782 330.748713 399.592379 C 331.159737 399.511976 331.57076 399.470286 331.990718 399.470286 " stroke="#484848" stroke-width="2" stroke-opacity="1" stroke-miterlimit="4"/><path stroke-linecap="round" transform="matrix(1.311513, 0, 0, 1.311752, -292.562554, -239.822372)" fill-opacity="1" fill="#a4a4a4" fill-rule="nonzero" stroke-linejoin="round" d="M 363.100418 466.699073 C 359.249308 467.014729 301.414158 467.711555 300.166196 466.347683 C 300.166196 452.774471 314.864747 441.774155 332.994449 441.774155 C 343.299816 441.774155 355.996863 443.563865 362.013291 446.651935 C 363.02 448.501203 363.100418 460.844546 363.100418 466.699073 Z M 363.100418 466.699073 " stroke="#484848" stroke-width="2" stroke-opacity="1" stroke-miterlimit="4"/><path fill="#808080" d="M 101.335938 368.660156 C 143.105469 367.183594 183.292969 373.546875 174.832031 343.617188 L 182.945312 346.398438 L 183.640625 372.835938 L 101.570312 372.601562 Z M 101.335938 368.660156 " fill-opacity="1" fill-rule="nonzero"/><path stroke-linecap="round" transform="matrix(1.311513, 0, 0, 1.311752, -292.562554, -239.822372)" fill="none" stroke-linejoin="round" d="M 363.100418 466.699073 C 359.249308 467.014729 301.414158 467.711555 300.166196 466.347683 C 300.166196 452.774471 314.864747 441.774155 332.994449 441.774155 C 343.299816 441.774155 355.996863 443.563865 362.013291 446.651935 C 363.02 448.501203 363.100418 460.844546 363.100418 466.699073 Z M 363.100418 466.699073 " stroke="#484848" stroke-width="2" stroke-opacity="1" stroke-miterlimit="4"/><path fill="#ffffff" d="M 109.128906 359.453125 C 118.414062 351.5625 127.796875 345.429688 150.421875 343.527344 C 133.554688 340.683594 116.386719 345.355469 109.128906 359.453125 Z M 109.128906 359.453125 " fill-opacity="0.63" fill-rule="nonzero"/></svg>