<svg xmlns="http://www.w3.org/2000/svg" xmlns:xlink="http://www.w3.org/1999/xlink" width="500" zoomAndPan="magnify" viewBox="0 0 375 374.999991" height="500" preserveAspectRatio="xMidYMid meet" version="1.0"><defs><clipPath id="979a5080f7"><path d="M 136 40.382812 L 137 40.382812 L 137 40.964844 L 136 40.964844 Z M 136 40.382812 " clip-rule="nonzero"/></clipPath><clipPath id="a301005ef0"><path d="M 136.128906 40.742188 C 136.3125 40.566406 137.351562 40.871094 136.128906 40.742188 Z M 136.128906 40.742188 " clip-rule="nonzero"/></clipPath><clipPath id="abec33c2e4"><path d="M 136.128906 40.742188 C 136.3125 40.566406 137.351562 40.871094 136.128906 40.742188 " clip-rule="nonzero"/></clipPath><clipPath id="bcdd4adcf8"><path d="M 136.167969 40.351562 L 137.40625 40.578125 L 137.3125 41.082031 L 136.074219 40.859375 Z M 136.167969 40.351562 " clip-rule="nonzero"/></clipPath><linearGradient x1="-11.056963" gradientTransform="matrix(-0.0049895, 0.0277895, 0.0277895, 0.0049895, 136.416902, 40.773809)" y1="0" x2="5.1848" gradientUnits="userSpaceOnUse" y2="0" id="96caa5d826"><stop stop-opacity="1" stop-color="rgb(100%, 79.998779%, 82.398987%)" offset="0"/><stop stop-opacity="1" stop-color="rgb(100%, 79.998779%, 82.398987%)" offset="0.5"/><stop stop-opacity="1" stop-color="rgb(100%, 79.998779%, 82.398987%)" offset="0.625"/><stop stop-opacity="1" stop-color="rgb(100%, 79.998779%, 82.398987%)" offset="0.6875"/><stop stop-opacity="1" stop-color="rgb(99.714661%, 79.31366%, 81.671143%)" offset="0.691406"/><stop stop-opacity="1" stop-color="rgb(99.429321%, 78.62854%, 80.943298%)" offset="0.695312"/><stop stop-opacity="1" stop-color="rgb(98.733521%, 77.598572%, 79.518127%)" offset="0.699219"/><stop stop-opacity="1" stop-color="rgb(98.03772%, 76.570129%, 78.094482%)" offset="0.703125"/><stop stop-opacity="1" stop-color="rgb(97.390747%, 75.318909%, 76.542664%)" offset="0.707031"/><stop stop-opacity="1" stop-color="rgb(96.7453%, 74.067688%, 74.990845%)" offset="0.710937"/><stop stop-opacity="1" stop-color="rgb(96.134949%, 72.872925%, 73.620605%)" offset="0.714844"/><stop stop-opacity="1" stop-color="rgb(95.526123%, 71.679688%, 72.250366%)" offset="0.71875"/><stop stop-opacity="1" stop-color="rgb(95.011902%, 70.704651%, 71.154785%)" offset="0.722656"/><stop stop-opacity="1" stop-color="rgb(94.499207%, 69.729614%, 70.06073%)" offset="0.726562"/><stop stop-opacity="1" stop-color="rgb(94.316101%, 69.381714%, 69.546509%)" offset="0.730469"/><stop stop-opacity="1" stop-color="rgb(94.134521%, 69.033813%, 69.033813%)" offset="0.734375"/><stop stop-opacity="1" stop-color="rgb(94.116211%, 69.015503%, 69.015503%)" offset="0.75"/><stop stop-opacity="1" stop-color="rgb(94.099426%, 68.998718%, 68.998718%)" offset="1"/></linearGradient><clipPath id="8e1f6326b0"><path d="M 112.5 0 L 172 0 L 172 97 L 112.5 97 Z M 112.5 0 " clip-rule="nonzero"/></clipPath><clipPath id="ece97742af"><path d="M 216.386719 342.085938 L 243.8125 342.085938 L 243.8125 375 L 216.386719 375 Z M 216.386719 342.085938 " clip-rule="nonzero"/></clipPath><clipPath id="5e379ed0e1"><path d="M 251.402344 109.242188 L 256 109.242188 L 256 133.753906 L 251.402344 133.753906 Z M 251.402344 109.242188 " clip-rule="nonzero"/></clipPath><clipPath id="ea6b0f626c"><path d="M 251.519531 133.65625 C 251.519531 133.65625 251.519531 133.652344 251.519531 133.652344 C 251.519531 133.652344 251.519531 133.652344 251.519531 133.65625 M 255.828125 117.992188 C 255.828125 117.992188 255.828125 117.988281 255.828125 117.984375 C 255.828125 117.988281 255.828125 117.992188 255.828125 117.992188 M 255.832031 117.945312 C 255.832031 117.941406 255.832031 117.941406 255.835938 117.9375 C 255.832031 117.941406 255.832031 117.941406 255.832031 117.945312 M 255.835938 117.90625 C 255.835938 117.902344 255.835938 117.898438 255.839844 117.890625 C 255.835938 117.898438 255.835938 117.902344 255.835938 117.90625 M 255.839844 117.859375 C 255.839844 117.855469 255.839844 117.847656 255.84375 117.84375 C 255.839844 117.847656 255.839844 117.855469 255.839844 117.859375 M 255.84375 117.816406 C 255.84375 117.808594 255.84375 117.800781 255.847656 117.792969 C 255.84375 117.800781 255.84375 117.808594 255.84375 117.816406 M 255.851562 117.773438 C 255.851562 117.765625 255.851562 117.761719 255.851562 117.753906 C 255.851562 117.761719 255.851562 117.765625 255.851562 117.773438 M 255.855469 117.722656 C 255.855469 117.714844 255.855469 117.710938 255.855469 117.699219 C 255.855469 117.707031 255.855469 117.714844 255.855469 117.722656 M 255.855469 117.683594 C 255.859375 117.671875 255.859375 117.660156 255.863281 117.652344 C 255.859375 117.660156 255.859375 117.671875 255.855469 117.683594 M 255.863281 117.632812 C 255.863281 117.628906 255.863281 117.621094 255.863281 117.613281 C 255.863281 117.621094 255.863281 117.628906 255.863281 117.632812 M 255.867188 117.605469 C 255.867188 117.589844 255.867188 117.574219 255.867188 117.558594 C 255.867188 117.574219 255.867188 117.589844 255.867188 117.605469 M 255.871094 117.550781 C 256.164062 114.25 255.882812 111.480469 255.019531 109.296875 C 255.027344 109.320312 255.035156 109.339844 255.042969 109.363281 C 255.886719 111.535156 256.164062 114.285156 255.871094 117.550781 " clip-rule="nonzero"/></clipPath><clipPath id="4f9a8b67a1"><path d="M 251.519531 133.65625 C 251.519531 133.65625 251.519531 133.652344 251.519531 133.652344 C 251.519531 133.652344 251.519531 133.652344 251.519531 133.65625 M 255.828125 117.992188 C 255.828125 117.992188 255.828125 117.988281 255.828125 117.984375 C 255.828125 117.988281 255.828125 117.992188 255.828125 117.992188 M 255.832031 117.945312 C 255.832031 117.941406 255.832031 117.941406 255.835938 117.9375 C 255.832031 117.941406 255.832031 117.941406 255.832031 117.945312 M 255.835938 117.90625 C 255.835938 117.902344 255.835938 117.898438 255.839844 117.890625 C 255.835938 117.898438 255.835938 117.902344 255.835938 117.90625 M 255.839844 117.859375 C 255.839844 117.855469 255.839844 117.847656 255.84375 117.84375 C 255.839844 117.847656 255.839844 117.855469 255.839844 117.859375 M 255.84375 117.816406 C 255.84375 117.808594 255.84375 117.800781 255.847656 117.792969 C 255.84375 117.800781 255.84375 117.808594 255.84375 117.816406 M 255.851562 117.773438 C 255.851562 117.765625 255.851562 117.761719 255.851562 117.753906 C 255.851562 117.761719 255.851562 117.765625 255.851562 117.773438 M 255.855469 117.722656 C 255.855469 117.714844 255.855469 117.710938 255.855469 117.699219 C 255.855469 117.707031 255.855469 117.714844 255.855469 117.722656 M 255.855469 117.683594 C 255.859375 117.671875 255.859375 117.660156 255.863281 117.652344 C 255.859375 117.660156 255.859375 117.671875 255.855469 117.683594 M 255.863281 117.632812 C 255.863281 117.628906 255.863281 117.621094 255.863281 117.613281 C 255.863281 117.621094 255.863281 117.628906 255.863281 117.632812 M 255.867188 117.605469 C 255.867188 117.589844 255.867188 117.574219 255.867188 117.558594 C 255.867188 117.574219 255.867188 117.589844 255.867188 117.605469 M 255.871094 117.550781 C 256.164062 114.25 255.882812 111.480469 255.019531 109.296875 C 255.027344 109.320312 255.035156 109.339844 255.042969 109.363281 C 255.886719 111.535156 256.164062 114.285156 255.871094 117.550781 " clip-rule="nonzero"/></clipPath><clipPath id="6bad288af4"><path d="M 249.882812 109.40625 L 256.144531 108.984375 L 257.800781 133.546875 L 251.539062 133.96875 Z M 249.882812 109.40625 " clip-rule="nonzero"/></clipPath><linearGradient x1="0.0373697" gradientTransform="matrix(6.476722, 96.1163, 96.1163, -6.476722, 235.054139, 106.797457)" y1="0" x2="0.292836" gradientUnits="userSpaceOnUse" y2="0" id="8f5d5b969a"><stop stop-opacity="1" stop-color="rgb(82.699585%, 88.198853%, 95.698547%)" offset="0"/><stop stop-opacity="1" stop-color="rgb(82.70874%, 88.209534%, 95.698547%)" offset="0.03125"/><stop stop-opacity="1" stop-color="rgb(82.911682%, 88.409424%, 95.698547%)" offset="0.0625"/><stop stop-opacity="1" stop-color="rgb(83.204651%, 88.598633%, 95.698547%)" offset="0.09375"/><stop stop-opacity="1" stop-color="rgb(83.401489%, 88.606262%, 95.698547%)" offset="0.125"/><stop stop-opacity="1" stop-color="rgb(83.506775%, 88.806152%, 95.707703%)" offset="0.15625"/><stop stop-opacity="1" stop-color="rgb(83.711243%, 89.002991%, 95.907593%)" offset="0.1875"/><stop stop-opacity="1" stop-color="rgb(84.007263%, 89.10675%, 96.099854%)" offset="0.203125"/><stop stop-opacity="1" stop-color="rgb(84.202576%, 89.303589%, 96.099854%)" offset="0.21875"/><stop stop-opacity="1" stop-color="rgb(84.30481%, 89.399719%, 96.099854%)" offset="0.25"/><stop stop-opacity="1" stop-color="rgb(84.5047%, 89.405823%, 96.099854%)" offset="0.28125"/><stop stop-opacity="1" stop-color="rgb(84.700012%, 89.605713%, 96.099854%)" offset="0.3125"/><stop stop-opacity="1" stop-color="rgb(84.803772%, 89.7995%, 96.099854%)" offset="0.328125"/><stop stop-opacity="1" stop-color="rgb(85.002136%, 89.7995%, 96.099854%)" offset="0.34375"/><stop stop-opacity="1" stop-color="rgb(85.102844%, 89.802551%, 96.102905%)" offset="0.375"/><stop stop-opacity="1" stop-color="rgb(85.20813%, 89.907837%, 96.208191%)" offset="0.390625"/><stop stop-opacity="1" stop-color="rgb(85.409546%, 90.103149%, 96.403503%)" offset="0.40625"/><stop stop-opacity="1" stop-color="rgb(85.704041%, 90.19928%, 96.499634%)" offset="0.4375"/><stop stop-opacity="1" stop-color="rgb(86.000061%, 90.299988%, 96.499634%)" offset="0.46875"/><stop stop-opacity="1" stop-color="rgb(86.199951%, 90.499878%, 96.499634%)" offset="0.5"/><stop stop-opacity="1" stop-color="rgb(86.302185%, 90.602112%, 96.499634%)" offset="0.53125"/><stop stop-opacity="1" stop-color="rgb(86.500549%, 90.800476%, 96.499634%)" offset="0.5625"/><stop stop-opacity="1" stop-color="rgb(86.79657%, 90.997314%, 96.598816%)" offset="0.578125"/><stop stop-opacity="1" stop-color="rgb(86.997986%, 90.99884%, 96.798706%)" offset="0.59375"/><stop stop-opacity="1" stop-color="rgb(87.098694%, 90.99884%, 96.899414%)" offset="0.625"/><stop stop-opacity="1" stop-color="rgb(87.199402%, 91.099548%, 96.899414%)" offset="0.65625"/><stop stop-opacity="1" stop-color="rgb(87.39624%, 91.296387%, 96.899414%)" offset="0.6875"/><stop stop-opacity="1" stop-color="rgb(87.57019%, 91.494751%, 96.899414%)" offset="0.703125"/><stop stop-opacity="1" stop-color="rgb(87.719727%, 91.694641%, 96.899414%)" offset="0.71875"/><stop stop-opacity="1" stop-color="rgb(87.797546%, 91.796875%, 96.899414%)" offset="0.75"/><stop stop-opacity="1" stop-color="rgb(87.898254%, 91.899109%, 96.899414%)" offset="0.765625"/><stop stop-opacity="1" stop-color="rgb(88.09967%, 92.098999%, 96.899414%)" offset="0.78125"/><stop stop-opacity="1" stop-color="rgb(88.394165%, 92.199707%, 97.094727%)" offset="0.8125"/><stop stop-opacity="1" stop-color="rgb(88.594055%, 92.347717%, 97.294617%)" offset="0.875"/><stop stop-opacity="1" stop-color="rgb(88.696289%, 92.497253%, 97.299194%)" offset="0.890625"/><stop stop-opacity="1" stop-color="rgb(88.896179%, 92.498779%, 97.299194%)" offset="0.90625"/><stop stop-opacity="1" stop-color="rgb(89.190674%, 92.692566%, 97.299194%)" offset="0.9375"/><stop stop-opacity="1" stop-color="rgb(89.489746%, 92.892456%, 97.299194%)" offset="0.96875"/><stop stop-opacity="1" stop-color="rgb(89.694214%, 92.89856%, 97.299194%)" offset="1"/></linearGradient><clipPath id="d0df08acb9"><path d="M 226 106.324219 L 256 106.324219 L 256 157 L 226 157 Z M 226 106.324219 " clip-rule="nonzero"/></clipPath><clipPath id="1bc25ac286"><path d="M 238.746094 156.617188 C 237.671875 156.617188 236.128906 156.273438 234.203125 154.914062 C 234.199219 154.914062 234.195312 154.917969 234.191406 154.917969 C 233.582031 154.484375 232.9375 153.953125 232.257812 153.296875 C 229.707031 150.839844 227.269531 145.835938 226.269531 139.5 C 228.800781 131.160156 231.621094 125.792969 235.914062 119.183594 C 241.617188 110.402344 246.335938 107.484375 249.398438 106.566406 C 249.851562 106.429688 250.304688 106.363281 250.753906 106.363281 C 252.597656 106.363281 254.285156 107.480469 255.019531 109.296875 C 255.882812 111.480469 256.164062 114.25 255.871094 117.550781 C 255.871094 117.554688 255.867188 117.558594 255.867188 117.558594 C 255.867188 117.574219 255.867188 117.589844 255.867188 117.605469 C 255.863281 117.605469 255.863281 117.609375 255.863281 117.613281 C 255.863281 117.621094 255.863281 117.628906 255.863281 117.632812 C 255.863281 117.640625 255.863281 117.644531 255.863281 117.652344 C 255.859375 117.660156 255.859375 117.671875 255.855469 117.683594 C 255.855469 117.691406 255.855469 117.695312 255.855469 117.699219 C 255.855469 117.710938 255.855469 117.714844 255.855469 117.722656 C 255.851562 117.734375 255.851562 117.746094 255.851562 117.753906 C 255.851562 117.761719 255.851562 117.765625 255.851562 117.773438 C 255.847656 117.777344 255.847656 117.789062 255.847656 117.792969 C 255.84375 117.800781 255.84375 117.808594 255.84375 117.816406 C 255.84375 117.824219 255.84375 117.832031 255.84375 117.84375 C 255.839844 117.847656 255.839844 117.855469 255.839844 117.859375 C 255.839844 117.871094 255.839844 117.882812 255.839844 117.890625 C 255.835938 117.898438 255.835938 117.902344 255.835938 117.90625 C 255.835938 117.914062 255.835938 117.925781 255.835938 117.9375 C 255.832031 117.941406 255.832031 117.941406 255.832031 117.945312 C 255.832031 117.957031 255.828125 117.972656 255.828125 117.984375 C 255.828125 117.988281 255.828125 117.992188 255.828125 117.992188 C 255.375 122.355469 253.941406 127.617188 251.519531 133.652344 C 251.519531 133.652344 251.519531 133.65625 251.519531 133.65625 C 251.511719 133.675781 251.503906 133.695312 251.492188 133.71875 C 251.398438 133.957031 243.507812 146.28125 239.128906 156.601562 C 239.007812 156.609375 238.882812 156.617188 238.746094 156.617188 " clip-rule="nonzero"/></clipPath><clipPath id="73ff77582d"><path d="M 238.746094 156.617188 C 237.671875 156.617188 236.128906 156.273438 234.203125 154.914062 C 234.199219 154.914062 234.195312 154.917969 234.191406 154.917969 C 233.582031 154.484375 232.9375 153.953125 232.257812 153.296875 C 229.707031 150.839844 227.269531 145.835938 226.269531 139.5 C 228.800781 131.160156 231.621094 125.792969 235.914062 119.183594 C 241.617188 110.402344 246.335938 107.484375 249.398438 106.566406 C 249.851562 106.429688 250.304688 106.363281 250.753906 106.363281 C 252.597656 106.363281 254.285156 107.480469 255.019531 109.296875 C 255.882812 111.480469 256.164062 114.25 255.871094 117.550781 C 255.871094 117.554688 255.867188 117.558594 255.867188 117.558594 C 255.867188 117.574219 255.867188 117.589844 255.867188 117.605469 C 255.863281 117.605469 255.863281 117.609375 255.863281 117.613281 C 255.863281 117.621094 255.863281 117.628906 255.863281 117.632812 C 255.863281 117.640625 255.863281 117.644531 255.863281 117.652344 C 255.859375 117.660156 255.859375 117.671875 255.855469 117.683594 C 255.855469 117.691406 255.855469 117.695312 255.855469 117.699219 C 255.855469 117.710938 255.855469 117.714844 255.855469 117.722656 C 255.851562 117.734375 255.851562 117.746094 255.851562 117.753906 C 255.851562 117.761719 255.851562 117.765625 255.851562 117.773438 C 255.847656 117.777344 255.847656 117.789062 255.847656 117.792969 C 255.84375 117.800781 255.84375 117.808594 255.84375 117.816406 C 255.84375 117.824219 255.84375 117.832031 255.84375 117.84375 C 255.839844 117.847656 255.839844 117.855469 255.839844 117.859375 C 255.839844 117.871094 255.839844 117.882812 255.839844 117.890625 C 255.835938 117.898438 255.835938 117.902344 255.835938 117.90625 C 255.835938 117.914062 255.835938 117.925781 255.835938 117.9375 C 255.832031 117.941406 255.832031 117.941406 255.832031 117.945312 C 255.832031 117.957031 255.828125 117.972656 255.828125 117.984375 C 255.828125 117.988281 255.828125 117.992188 255.828125 117.992188 C 255.375 122.355469 253.941406 127.617188 251.519531 133.652344 C 251.519531 133.652344 251.519531 133.65625 251.519531 133.65625 C 251.511719 133.675781 251.503906 133.695312 251.492188 133.71875 C 251.398438 133.957031 243.507812 146.28125 239.128906 156.601562 C 239.007812 156.609375 238.882812 156.617188 238.746094 156.617188 " clip-rule="nonzero"/></clipPath><clipPath id="56633441dd"><path d="M 222.898438 106.59375 L 256.03125 104.359375 L 259.535156 156.390625 L 226.40625 158.621094 Z M 222.898438 106.59375 " clip-rule="nonzero"/></clipPath><linearGradient x1="-0.0106129" gradientTransform="matrix(6.476722, 96.1163, 96.1163, -6.476722, 235.054139, 106.797457)" y1="0" x2="0.530654" gradientUnits="userSpaceOnUse" y2="0" id="1cc5499421"><stop stop-opacity="1" stop-color="rgb(71.398926%, 79.199219%, 90.99884%)" offset="0"/><stop stop-opacity="1" stop-color="rgb(71.409607%, 79.2099%, 90.99884%)" offset="0.03125"/><stop stop-opacity="1" stop-color="rgb(71.617126%, 79.40979%, 90.99884%)" offset="0.046875"/><stop stop-opacity="1" stop-color="rgb(72.0047%, 79.598999%, 90.99884%)" offset="0.0625"/><stop stop-opacity="1" stop-color="rgb(72.198486%, 79.701233%, 91.101074%)" offset="0.078125"/><stop stop-opacity="1" stop-color="rgb(72.201538%, 79.899597%, 91.299438%)" offset="0.09375"/><stop stop-opacity="1" stop-color="rgb(72.3526%, 80.010986%, 91.398621%)" offset="0.109375"/><stop stop-opacity="1" stop-color="rgb(72.505188%, 80.210876%, 91.398621%)" offset="0.125"/><stop stop-opacity="1" stop-color="rgb(72.705078%, 80.400085%, 91.398621%)" offset="0.140625"/><stop stop-opacity="1" stop-color="rgb(72.898865%, 80.506897%, 91.398621%)" offset="0.148438"/><stop stop-opacity="1" stop-color="rgb(72.898865%, 80.705261%, 91.398621%)" offset="0.15625"/><stop stop-opacity="1" stop-color="rgb(72.903442%, 80.799866%, 91.398621%)" offset="0.171875"/><stop stop-opacity="1" stop-color="rgb(73.103333%, 80.799866%, 91.398621%)" offset="0.1875"/><stop stop-opacity="1" stop-color="rgb(73.402405%, 80.9021%, 91.398621%)" offset="0.195312"/><stop stop-opacity="1" stop-color="rgb(73.609924%, 81.10199%, 91.398621%)" offset="0.203125"/><stop stop-opacity="1" stop-color="rgb(73.905945%, 81.199646%, 91.398621%)" offset="0.21875"/><stop stop-opacity="1" stop-color="rgb(74.104309%, 81.199646%, 91.398621%)" offset="0.25"/><stop stop-opacity="1" stop-color="rgb(74.302673%, 81.199646%, 91.398621%)" offset="0.265625"/><stop stop-opacity="1" stop-color="rgb(74.601746%, 81.303406%, 91.50238%)" offset="0.273438"/><stop stop-opacity="1" stop-color="rgb(74.810791%, 81.503296%, 91.702271%)" offset="0.28125"/><stop stop-opacity="1" stop-color="rgb(75.106812%, 81.600952%, 91.799927%)" offset="0.296875"/><stop stop-opacity="1" stop-color="rgb(75.299072%, 81.799316%, 91.799927%)" offset="0.3125"/><stop stop-opacity="1" stop-color="rgb(75.299072%, 81.996155%, 91.799927%)" offset="0.34375"/><stop stop-opacity="1" stop-color="rgb(75.402832%, 82.102966%, 91.799927%)" offset="0.351563"/><stop stop-opacity="1" stop-color="rgb(75.610352%, 82.302856%, 91.80603%)" offset="0.359375"/><stop stop-opacity="1" stop-color="rgb(75.907898%, 82.398987%, 92.00592%)" offset="0.375"/><stop stop-opacity="1" stop-color="rgb(76.202393%, 82.475281%, 92.199707%)" offset="0.390625"/><stop stop-opacity="1" stop-color="rgb(76.400757%, 82.624817%, 92.199707%)" offset="0.40625"/><stop stop-opacity="1" stop-color="rgb(76.693726%, 82.894897%, 92.199707%)" offset="0.4375"/><stop stop-opacity="1" stop-color="rgb(76.992798%, 83.19397%, 92.199707%)" offset="0.445312"/><stop stop-opacity="1" stop-color="rgb(77.200317%, 83.398438%, 92.201233%)" offset="0.453125"/><stop stop-opacity="1" stop-color="rgb(77.449036%, 83.499146%, 92.349243%)" offset="0.46875"/><stop stop-opacity="1" stop-color="rgb(77.597046%, 83.598328%, 92.497253%)" offset="0.484375"/><stop stop-opacity="1" stop-color="rgb(77.598572%, 83.798218%, 92.498779%)" offset="0.5"/><stop stop-opacity="1" stop-color="rgb(77.79541%, 83.898926%, 92.498779%)" offset="0.515625"/><stop stop-opacity="1" stop-color="rgb(77.9953%, 83.998108%, 92.498779%)" offset="0.523438"/><stop stop-opacity="1" stop-color="rgb(78.00293%, 84.197998%, 92.498779%)" offset="0.53125"/><stop stop-opacity="1" stop-color="rgb(78.199768%, 84.298706%, 92.498779%)" offset="0.546875"/><stop stop-opacity="1" stop-color="rgb(78.396606%, 84.492493%, 92.498779%)" offset="0.5625"/><stop stop-opacity="1" stop-color="rgb(78.399658%, 84.692383%, 92.498779%)" offset="0.578125"/><stop stop-opacity="1" stop-color="rgb(78.594971%, 84.698486%, 92.695618%)" offset="0.59375"/><stop stop-opacity="1" stop-color="rgb(78.894043%, 84.797668%, 92.893982%)" offset="0.601562"/><stop stop-opacity="1" stop-color="rgb(79.101562%, 84.999084%, 92.89856%)" offset="0.609375"/><stop stop-opacity="1" stop-color="rgb(79.400635%, 85.099792%, 92.89856%)" offset="0.625"/><stop stop-opacity="1" stop-color="rgb(79.597473%, 85.099792%, 92.89856%)" offset="0.65625"/><stop stop-opacity="1" stop-color="rgb(79.795837%, 85.099792%, 92.89856%)" offset="0.671875"/><stop stop-opacity="1" stop-color="rgb(80.186462%, 85.290527%, 93.089294%)" offset="0.6875"/><stop stop-opacity="1" stop-color="rgb(80.484009%, 85.490417%, 93.29071%)" offset="0.695312"/><stop stop-opacity="1" stop-color="rgb(80.691528%, 85.499573%, 93.299866%)" offset="0.703125"/><stop stop-opacity="1" stop-color="rgb(80.79834%, 85.693359%, 93.299866%)" offset="0.71875"/><stop stop-opacity="1" stop-color="rgb(80.799866%, 85.89325%, 93.299866%)" offset="0.75"/><stop stop-opacity="1" stop-color="rgb(80.990601%, 86.090088%, 93.299866%)" offset="0.765625"/><stop stop-opacity="1" stop-color="rgb(81.285095%, 86.289978%, 93.39447%)" offset="0.773437"/><stop stop-opacity="1" stop-color="rgb(81.492615%, 86.299133%, 93.592834%)" offset="0.78125"/><stop stop-opacity="1" stop-color="rgb(81.5979%, 86.49292%, 93.69812%)" offset="0.8125"/><stop stop-opacity="1" stop-color="rgb(81.690979%, 86.69281%, 93.699646%)" offset="0.820312"/><stop stop-opacity="1" stop-color="rgb(81.887817%, 86.698914%, 93.699646%)" offset="0.828125"/><stop stop-opacity="1" stop-color="rgb(82.18689%, 86.889648%, 93.699646%)" offset="0.84375"/><stop stop-opacity="1" stop-color="rgb(82.539368%, 87.089539%, 93.699646%)" offset="0.859375"/><stop stop-opacity="1" stop-color="rgb(82.698059%, 87.29248%, 93.893433%)" offset="0.875"/><stop stop-opacity="1" stop-color="rgb(82.888794%, 87.493896%, 94.093323%)" offset="0.890625"/><stop stop-opacity="1" stop-color="rgb(83.088684%, 87.5%, 94.099426%)" offset="0.90625"/><stop stop-opacity="1" stop-color="rgb(83.291626%, 87.644958%, 94.099426%)" offset="0.9375"/><stop stop-opacity="1" stop-color="rgb(83.491516%, 87.884521%, 94.099426%)" offset="0.945312"/><stop stop-opacity="1" stop-color="rgb(83.499146%, 88.082886%, 94.099426%)" offset="0.953125"/><stop stop-opacity="1" stop-color="rgb(83.688354%, 88.192749%, 94.099426%)" offset="0.96875"/><stop stop-opacity="1" stop-color="rgb(83.888245%, 88.198853%, 94.099426%)" offset="0.984375"/><stop stop-opacity="1" stop-color="rgb(84.091187%, 88.391113%, 94.291687%)" offset="1"/></linearGradient><clipPath id="98180df7a3"><path d="M 175 77.550781 L 249.140625 77.550781 L 249.140625 198.949219 L 175 198.949219 Z M 175 77.550781 " clip-rule="nonzero"/></clipPath><clipPath id="2b88da2db3"><path d="M 219.074219 198.949219 C 211.324219 198.949219 202.265625 196.917969 194.128906 193.148438 C 194.046875 193.109375 193.96875 193.070312 193.886719 193.035156 C 193.398438 191.148438 193.125 188.828125 192.933594 186.148438 C 192.890625 185.539062 192.851562 184.914062 192.816406 184.269531 C 192.917969 186.066406 193.042969 187.707031 193.21875 189.207031 C 193.273438 184.472656 193.390625 179.890625 193.558594 175.488281 C 199.300781 177.996094 206.042969 180.296875 212.382812 181.433594 C 215.410156 181.976562 218.375 182.246094 221.210938 182.246094 C 227.128906 182.246094 232.445312 181.050781 236.554688 178.796875 C 236.515625 182.203125 236.761719 187.679688 236.78125 191.101562 C 236.574219 191.667969 236.304688 192.214844 235.960938 192.738281 C 235.144531 193.996094 233.921875 195.128906 232.285156 196.078125 C 228.941406 198.023438 224.304688 198.949219 219.074219 198.949219 M 190.75 191.441406 C 190.328125 191.234375 189.894531 191.039062 189.488281 190.804688 C 183.058594 187.09375 178.679688 182.820312 176.632812 178.746094 C 175.25 175.996094 174.933594 173.339844 175.765625 171.007812 C 175.765625 171.007812 176.21875 168.445312 176.824219 164.492188 C 178.003906 165.773438 179.285156 167.054688 180.792969 168.324219 C 182.828125 170.042969 186.707031 172.332031 191.476562 174.550781 C 191.207031 179.765625 190.960938 185.390625 190.75 191.445312 M 221.195312 175.664062 C 218.75 175.664062 216.167969 175.433594 213.546875 174.964844 C 206.652344 173.722656 199.433594 171.023438 193.882812 168.40625 C 194.105469 164.128906 194.375 160.054688 194.671875 156.207031 C 200.632812 158.890625 207.820312 161.410156 214.550781 162.621094 C 217.578125 163.164062 220.542969 163.433594 223.382812 163.433594 C 229.519531 163.433594 235.039062 162.175781 239.207031 159.753906 C 239.417969 159.632812 239.589844 159.484375 239.789062 159.359375 C 239.289062 161.921875 238.589844 165.730469 237.90625 169.507812 L 237.152344 169.234375 C 236.648438 170.632812 235.5 171.859375 233.734375 172.882812 C 230.589844 174.714844 226.164062 175.664062 221.195312 175.664062 M 191.871094 167.425781 C 188.671875 165.8125 186.226562 164.308594 185.03125 163.300781 C 181.695312 160.480469 179.375 157.671875 178.148438 155.132812 C 178.53125 152.179688 178.898438 149.035156 179.199219 145.90625 C 180.328125 147.113281 181.546875 148.316406 182.960938 149.511719 C 184.863281 151.117188 188.359375 153.210938 192.6875 155.285156 C 192.40625 159.011719 192.132812 163.058594 191.871094 167.425781 M 223.339844 156.851562 C 220.898438 156.851562 218.328125 156.621094 215.714844 156.152344 C 208.488281 154.851562 200.90625 151.945312 195.261719 149.214844 C 196.523438 135.398438 198.042969 125.328125 198.816406 120.644531 C 202.308594 117.554688 211.027344 109.871094 217.304688 104.640625 C 225.828125 97.535156 229.296875 92.769531 236.542969 91.3125 C 236.875 91.246094 237.214844 91.1875 237.5625 91.136719 C 240.941406 94.089844 249.136719 101.742188 249.140625 101.746094 C 248.773438 101.605469 248.390625 101.492188 247.996094 101.398438 C 247.34375 101.25 246.65625 101.167969 245.941406 101.167969 C 241.136719 101.167969 235.097656 104.789062 230.085938 115.011719 C 225.816406 123.714844 225.152344 132.4375 226.269531 139.5 C 227.269531 145.835938 229.707031 150.839844 232.257812 153.296875 C 232.9375 153.953125 233.582031 154.484375 234.191406 154.917969 C 231.230469 156.191406 227.472656 156.851562 223.339844 156.851562 M 193.261719 148.214844 C 190.441406 146.753906 188.296875 145.414062 187.203125 144.488281 C 183.480469 141.347656 180.976562 138.199219 179.90625 135.445312 C 179.910156 135.226562 179.914062 135.003906 179.921875 134.785156 C 179.96875 132.652344 182.320312 130.238281 182.335938 128.035156 C 182.335938 128.035156 182.144531 113.183594 182.335938 108.257812 C 183.316406 82.960938 193.46875 77.550781 193.46875 77.550781 L 196.632812 77.785156 C 196.433594 78.042969 196.234375 78.375 196.046875 78.8125 C 195.851562 79.285156 195.664062 79.875 195.503906 80.632812 C 198.636719 81.59375 200.585938 82.554688 201.855469 83.449219 C 200.679688 84.734375 199.496094 86.316406 198.457031 88.277344 C 196.601562 91.78125 195.207031 96.503906 195.117188 102.953125 C 195.003906 111.105469 196.023438 116.914062 196.703125 119.839844 C 196.117188 123.046875 194.667969 131.957031 193.261719 148.214844 M 197.285156 122.003906 C 197.296875 121.992188 197.691406 121.648438 198.367188 121.042969 C 197.699219 121.636719 197.296875 121.992188 197.285156 122.003906 " clip-rule="nonzero"/></clipPath><clipPath id="cb68eafca5"><path d="M 219.074219 198.949219 C 211.324219 198.949219 202.265625 196.917969 194.128906 193.148438 C 194.046875 193.109375 193.96875 193.070312 193.886719 193.035156 C 193.398438 191.148438 193.125 188.828125 192.933594 186.148438 C 192.890625 185.539062 192.851562 184.914062 192.816406 184.269531 C 192.917969 186.066406 193.042969 187.707031 193.21875 189.207031 C 193.273438 184.472656 193.390625 179.890625 193.558594 175.488281 C 199.300781 177.996094 206.042969 180.296875 212.382812 181.433594 C 215.410156 181.976562 218.375 182.246094 221.210938 182.246094 C 227.128906 182.246094 232.445312 181.050781 236.554688 178.796875 C 236.515625 182.203125 236.761719 187.679688 236.78125 191.101562 C 236.574219 191.667969 236.304688 192.214844 235.960938 192.738281 C 235.144531 193.996094 233.921875 195.128906 232.285156 196.078125 C 228.941406 198.023438 224.304688 198.949219 219.074219 198.949219 M 190.75 191.441406 C 190.328125 191.234375 189.894531 191.039062 189.488281 190.804688 C 183.058594 187.09375 178.679688 182.820312 176.632812 178.746094 C 175.25 175.996094 174.933594 173.339844 175.765625 171.007812 C 175.765625 171.007812 176.21875 168.445312 176.824219 164.492188 C 178.003906 165.773438 179.285156 167.054688 180.792969 168.324219 C 182.828125 170.042969 186.707031 172.332031 191.476562 174.550781 C 191.207031 179.765625 190.960938 185.390625 190.75 191.445312 M 221.195312 175.664062 C 218.75 175.664062 216.167969 175.433594 213.546875 174.964844 C 206.652344 173.722656 199.433594 171.023438 193.882812 168.40625 C 194.105469 164.128906 194.375 160.054688 194.671875 156.207031 C 200.632812 158.890625 207.820312 161.410156 214.550781 162.621094 C 217.578125 163.164062 220.542969 163.433594 223.382812 163.433594 C 229.519531 163.433594 235.039062 162.175781 239.207031 159.753906 C 239.417969 159.632812 239.589844 159.484375 239.789062 159.359375 C 239.289062 161.921875 238.589844 165.730469 237.90625 169.507812 L 237.152344 169.234375 C 236.648438 170.632812 235.5 171.859375 233.734375 172.882812 C 230.589844 174.714844 226.164062 175.664062 221.195312 175.664062 M 191.871094 167.425781 C 188.671875 165.8125 186.226562 164.308594 185.03125 163.300781 C 181.695312 160.480469 179.375 157.671875 178.148438 155.132812 C 178.53125 152.179688 178.898438 149.035156 179.199219 145.90625 C 180.328125 147.113281 181.546875 148.316406 182.960938 149.511719 C 184.863281 151.117188 188.359375 153.210938 192.6875 155.285156 C 192.40625 159.011719 192.132812 163.058594 191.871094 167.425781 M 223.339844 156.851562 C 220.898438 156.851562 218.328125 156.621094 215.714844 156.152344 C 208.488281 154.851562 200.90625 151.945312 195.261719 149.214844 C 196.523438 135.398438 198.042969 125.328125 198.816406 120.644531 C 202.308594 117.554688 211.027344 109.871094 217.304688 104.640625 C 225.828125 97.535156 229.296875 92.769531 236.542969 91.3125 C 236.875 91.246094 237.214844 91.1875 237.5625 91.136719 C 240.941406 94.089844 249.136719 101.742188 249.140625 101.746094 C 248.773438 101.605469 248.390625 101.492188 247.996094 101.398438 C 247.34375 101.25 246.65625 101.167969 245.941406 101.167969 C 241.136719 101.167969 235.097656 104.789062 230.085938 115.011719 C 225.816406 123.714844 225.152344 132.4375 226.269531 139.5 C 227.269531 145.835938 229.707031 150.839844 232.257812 153.296875 C 232.9375 153.953125 233.582031 154.484375 234.191406 154.917969 C 231.230469 156.191406 227.472656 156.851562 223.339844 156.851562 M 193.261719 148.214844 C 190.441406 146.753906 188.296875 145.414062 187.203125 144.488281 C 183.480469 141.347656 180.976562 138.199219 179.90625 135.445312 C 179.910156 135.226562 179.914062 135.003906 179.921875 134.785156 C 179.96875 132.652344 182.320312 130.238281 182.335938 128.035156 C 182.335938 128.035156 182.144531 113.183594 182.335938 108.257812 C 183.316406 82.960938 193.46875 77.550781 193.46875 77.550781 L 196.632812 77.785156 C 196.433594 78.042969 196.234375 78.375 196.046875 78.8125 C 195.851562 79.285156 195.664062 79.875 195.503906 80.632812 C 198.636719 81.59375 200.585938 82.554688 201.855469 83.449219 C 200.679688 84.734375 199.496094 86.316406 198.457031 88.277344 C 196.601562 91.78125 195.207031 96.503906 195.117188 102.953125 C 195.003906 111.105469 196.023438 116.914062 196.703125 119.839844 C 196.117188 123.046875 194.667969 131.957031 193.261719 148.214844 M 197.285156 122.003906 C 197.296875 121.992188 197.691406 121.648438 198.367188 121.042969 C 197.699219 121.636719 197.296875 121.992188 197.285156 122.003906 " clip-rule="nonzero"/></clipPath><linearGradient x1="0.26554" gradientTransform="matrix(126.607144, 0, 0, 126.607144, 141.334031, 138.251067)" y1="0" x2="0.851494" gradientUnits="userSpaceOnUse" y2="0" id="c460a8fc81"><stop stop-opacity="1" stop-color="rgb(98.399353%, 38.398743%, 0.39978%)" offset="0"/><stop stop-opacity="1" stop-color="rgb(98.405457%, 38.398743%, 0.39978%)" offset="0.015625"/><stop stop-opacity="1" stop-color="rgb(98.516846%, 38.398743%, 0.39978%)" offset="0.0234375"/><stop stop-opacity="1" stop-color="rgb(98.724365%, 38.398743%, 0.39978%)" offset="0.03125"/><stop stop-opacity="1" stop-color="rgb(99.023438%, 38.398743%, 0.39978%)" offset="0.046875"/><stop stop-opacity="1" stop-color="rgb(99.411011%, 38.398743%, 0.39978%)" offset="0.0625"/><stop stop-opacity="1" stop-color="rgb(99.705505%, 38.398743%, 0.39978%)" offset="0.078125"/><stop stop-opacity="1" stop-color="rgb(99.902344%, 38.40332%, 0.402832%)" offset="0.09375"/><stop stop-opacity="1" stop-color="rgb(100%, 38.508606%, 0.508118%)" offset="0.109375"/><stop stop-opacity="1" stop-color="rgb(100%, 38.703918%, 0.70343%)" offset="0.125"/><stop stop-opacity="1" stop-color="rgb(100%, 38.806152%, 0.805664%)" offset="0.140625"/><stop stop-opacity="1" stop-color="rgb(100%, 39.006042%, 1.005554%)" offset="0.15625"/><stop stop-opacity="1" stop-color="rgb(100%, 39.208984%, 1.208496%)" offset="0.171875"/><stop stop-opacity="1" stop-color="rgb(100%, 39.315796%, 1.316833%)" offset="0.179687"/><stop stop-opacity="1" stop-color="rgb(100%, 39.511108%, 1.512146%)" offset="0.1875"/><stop stop-opacity="1" stop-color="rgb(100%, 39.804077%, 1.803589%)" offset="0.203125"/><stop stop-opacity="1" stop-color="rgb(100%, 40.007019%, 2.008057%)" offset="0.21875"/><stop stop-opacity="1" stop-color="rgb(100%, 40.119934%, 2.120972%)" offset="0.226562"/><stop stop-opacity="1" stop-color="rgb(100%, 40.327454%, 2.323914%)" offset="0.234375"/><stop stop-opacity="1" stop-color="rgb(100%, 40.614319%, 2.560425%)" offset="0.25"/><stop stop-opacity="1" stop-color="rgb(100%, 40.805054%, 2.705383%)" offset="0.265625"/><stop stop-opacity="1" stop-color="rgb(100%, 40.916443%, 2.816772%)" offset="0.273437"/><stop stop-opacity="1" stop-color="rgb(100%, 41.123962%, 3.024292%)" offset="0.28125"/><stop stop-opacity="1" stop-color="rgb(100%, 41.418457%, 3.318787%)" offset="0.3125"/><stop stop-opacity="1" stop-color="rgb(100%, 41.712952%, 3.613281%)" offset="0.320312"/><stop stop-opacity="1" stop-color="rgb(100%, 41.920471%, 3.820801%)" offset="0.328125"/><stop stop-opacity="1" stop-color="rgb(100%, 42.121887%, 4.022217%)" offset="0.335937"/><stop stop-opacity="1" stop-color="rgb(100%, 42.315674%, 4.217529%)" offset="0.34375"/><stop stop-opacity="1" stop-color="rgb(100%, 42.489624%, 4.420471%)" offset="0.351562"/><stop stop-opacity="1" stop-color="rgb(100%, 42.649841%, 4.626465%)" offset="0.359375"/><stop stop-opacity="1" stop-color="rgb(100%, 42.926025%, 4.925537%)" offset="0.375"/><stop stop-opacity="1" stop-color="rgb(100%, 43.310547%, 5.310059%)" offset="0.390625"/><stop stop-opacity="1" stop-color="rgb(100%, 43.513489%, 5.513%)" offset="0.40625"/><stop stop-opacity="1" stop-color="rgb(100%, 43.722534%, 5.723572%)" offset="0.421875"/><stop stop-opacity="1" stop-color="rgb(100%, 44.015503%, 6.016541%)" offset="0.429687"/><stop stop-opacity="1" stop-color="rgb(100%, 44.210815%, 6.211853%)" offset="0.4375"/><stop stop-opacity="1" stop-color="rgb(100%, 44.413757%, 6.413269%)" offset="0.445312"/><stop stop-opacity="1" stop-color="rgb(100%, 44.621277%, 6.620789%)" offset="0.453125"/><stop stop-opacity="1" stop-color="rgb(100%, 44.822693%, 6.822205%)" offset="0.460937"/><stop stop-opacity="1" stop-color="rgb(100%, 45.018005%, 7.017517%)" offset="0.46875"/><stop stop-opacity="1" stop-color="rgb(100%, 45.219421%, 7.220459%)" offset="0.476562"/><stop stop-opacity="1" stop-color="rgb(100%, 45.426941%, 7.423401%)" offset="0.484375"/><stop stop-opacity="1" stop-color="rgb(100%, 45.726013%, 7.672119%)" offset="0.5"/><stop stop-opacity="1" stop-color="rgb(100%, 46.018982%, 7.919312%)" offset="0.507813"/><stop stop-opacity="1" stop-color="rgb(100%, 46.214294%, 8.114624%)" offset="0.515625"/><stop stop-opacity="1" stop-color="rgb(100%, 46.417236%, 8.31604%)" offset="0.523438"/><stop stop-opacity="1" stop-color="rgb(100%, 46.62323%, 8.52356%)" offset="0.53125"/><stop stop-opacity="1" stop-color="rgb(100%, 46.922302%, 8.822632%)" offset="0.546875"/><stop stop-opacity="1" stop-color="rgb(100%, 47.311401%, 9.213257%)" offset="0.5625"/><stop stop-opacity="1" stop-color="rgb(100%, 47.653198%, 9.603882%)" offset="0.578125"/><stop stop-opacity="1" stop-color="rgb(100%, 47.819519%, 9.819031%)" offset="0.585938"/><stop stop-opacity="1" stop-color="rgb(100%, 48.019409%, 10.018921%)" offset="0.59375"/><stop stop-opacity="1" stop-color="rgb(100%, 48.21167%, 10.211182%)" offset="0.601562"/><stop stop-opacity="1" stop-color="rgb(100%, 48.41156%, 10.411072%)" offset="0.609375"/><stop stop-opacity="1" stop-color="rgb(100%, 48.625183%, 10.624695%)" offset="0.617188"/><stop stop-opacity="1" stop-color="rgb(100%, 48.825073%, 10.824585%)" offset="0.625"/><stop stop-opacity="1" stop-color="rgb(100%, 49.015808%, 11.01532%)" offset="0.632812"/><stop stop-opacity="1" stop-color="rgb(100%, 49.215698%, 11.216736%)" offset="0.640625"/><stop stop-opacity="1" stop-color="rgb(100%, 49.430847%, 11.431885%)" offset="0.648438"/><stop stop-opacity="1" stop-color="rgb(100%, 49.630737%, 11.631775%)" offset="0.65625"/><stop stop-opacity="1" stop-color="rgb(100%, 49.821472%, 11.82251%)" offset="0.664062"/><stop stop-opacity="1" stop-color="rgb(100%, 50.022888%, 12.0224%)" offset="0.671875"/><stop stop-opacity="1" stop-color="rgb(100%, 50.213623%, 12.210083%)" offset="0.679687"/><stop stop-opacity="1" stop-color="rgb(100%, 50.422668%, 12.3703%)" offset="0.683594"/><stop stop-opacity="1" stop-color="rgb(100%, 50.619507%, 12.519836%)" offset="0.6875"/><stop stop-opacity="1" stop-color="rgb(100%, 50.808716%, 12.709045%)" offset="0.695312"/><stop stop-opacity="1" stop-color="rgb(100%, 51.023865%, 12.924194%)" offset="0.703125"/><stop stop-opacity="1" stop-color="rgb(100%, 51.239014%, 13.139343%)" offset="0.71875"/><stop stop-opacity="1" stop-color="rgb(100%, 51.61438%, 13.514709%)" offset="0.726562"/><stop stop-opacity="1" stop-color="rgb(100%, 51.829529%, 13.729858%)" offset="0.734375"/><stop stop-opacity="1" stop-color="rgb(100%, 52.046204%, 13.951111%)" offset="0.75"/><stop stop-opacity="1" stop-color="rgb(100%, 52.378845%, 14.334106%)" offset="0.765625"/><stop stop-opacity="1" stop-color="rgb(100%, 52.745056%, 14.744568%)" offset="0.769531"/><stop stop-opacity="1" stop-color="rgb(100%, 52.964783%, 14.964294%)" offset="0.773438"/><stop stop-opacity="1" stop-color="rgb(100%, 53.131104%, 15.132141%)" offset="0.78125"/><stop stop-opacity="1" stop-color="rgb(100%, 53.321838%, 15.322876%)" offset="0.789063"/><stop stop-opacity="1" stop-color="rgb(100%, 53.521729%, 15.522766%)" offset="0.796875"/><stop stop-opacity="1" stop-color="rgb(100%, 53.712463%, 15.713501%)" offset="0.804688"/><stop stop-opacity="1" stop-color="rgb(100%, 53.912354%, 15.913391%)" offset="0.8125"/><stop stop-opacity="1" stop-color="rgb(100%, 54.127502%, 16.12854%)" offset="0.820313"/><stop stop-opacity="1" stop-color="rgb(100%, 54.328918%, 16.32843%)" offset="0.828125"/><stop stop-opacity="1" stop-color="rgb(100%, 54.519653%, 16.519165%)" offset="0.835938"/><stop stop-opacity="1" stop-color="rgb(100%, 54.734802%, 16.734314%)" offset="0.84375"/><stop stop-opacity="1" stop-color="rgb(100%, 55.114746%, 17.114258%)" offset="0.851562"/><stop stop-opacity="1" stop-color="rgb(100%, 55.329895%, 17.321777%)" offset="0.859375"/><stop stop-opacity="1" stop-color="rgb(100%, 55.551147%, 17.492676%)" offset="0.875"/><stop stop-opacity="1" stop-color="rgb(100%, 55.937195%, 17.837524%)" offset="0.882812"/><stop stop-opacity="1" stop-color="rgb(100%, 56.315613%, 18.215942%)" offset="0.890625"/><stop stop-opacity="1" stop-color="rgb(100%, 56.498718%, 18.399048%)" offset="0.90625"/><stop stop-opacity="1" stop-color="rgb(100%, 56.498718%, 18.399048%)" offset="0.9375"/><stop stop-opacity="1" stop-color="rgb(100%, 56.498718%, 18.399048%)" offset="1"/></linearGradient><clipPath id="1c24b28d7d"><path d="M 190.75 155.285156 L 194.671875 155.285156 L 194.671875 191.597656 L 190.75 191.597656 Z M 190.75 155.285156 " clip-rule="nonzero"/></clipPath><clipPath id="2c3977f177"><path d="M 191.050781 191.597656 C 190.953125 191.542969 190.851562 191.492188 190.75 191.441406 C 190.960938 185.390625 191.207031 179.765625 191.476562 174.550781 C 192.15625 174.867188 192.847656 175.175781 193.558594 175.488281 C 193.390625 179.890625 193.273438 184.472656 193.21875 189.207031 C 193.042969 187.707031 192.917969 186.066406 192.816406 184.269531 C 192.8125 184.160156 192.804688 184.046875 192.800781 183.9375 C 192.765625 184.078125 192.730469 184.21875 192.699219 184.363281 C 192.15625 186.707031 191.738281 189.140625 191.050781 191.597656 M 193.882812 168.40625 C 193.183594 168.078125 192.511719 167.75 191.871094 167.425781 C 192.132812 163.058594 192.40625 159.011719 192.6875 155.285156 C 193.332031 155.59375 193.996094 155.902344 194.671875 156.207031 C 194.375 160.054688 194.105469 164.128906 193.882812 168.40625 " clip-rule="nonzero"/></clipPath><clipPath id="c4addcebdc"><path d="M 191.050781 191.597656 C 190.953125 191.542969 190.851562 191.492188 190.75 191.441406 C 190.960938 185.390625 191.207031 179.765625 191.476562 174.550781 C 192.15625 174.867188 192.847656 175.175781 193.558594 175.488281 C 193.390625 179.890625 193.273438 184.472656 193.21875 189.207031 C 193.042969 187.707031 192.917969 186.066406 192.816406 184.269531 C 192.8125 184.160156 192.804688 184.046875 192.800781 183.9375 C 192.765625 184.078125 192.730469 184.21875 192.699219 184.363281 C 192.15625 186.707031 191.738281 189.140625 191.050781 191.597656 M 193.882812 168.40625 C 193.183594 168.078125 192.511719 167.75 191.871094 167.425781 C 192.132812 163.058594 192.40625 159.011719 192.6875 155.285156 C 193.332031 155.59375 193.996094 155.902344 194.671875 156.207031 C 194.375 160.054688 194.105469 164.128906 193.882812 168.40625 " clip-rule="nonzero"/></clipPath><clipPath id="a63c7f1237"><path d="M 193.261719 119.839844 L 198.816406 119.839844 L 198.816406 149.214844 L 193.261719 149.214844 Z M 193.261719 119.839844 " clip-rule="nonzero"/></clipPath><clipPath id="b0809a23f2"><path d="M 195.261719 149.214844 C 194.5625 148.878906 193.894531 148.542969 193.261719 148.214844 C 194.667969 131.957031 196.117188 123.046875 196.703125 119.839844 C 197.035156 121.265625 197.285156 122.003906 197.285156 122.003906 C 197.296875 121.992188 197.699219 121.636719 198.367188 121.042969 C 198.507812 120.917969 198.660156 120.789062 198.816406 120.644531 C 198.042969 125.328125 196.523438 135.398438 195.261719 149.214844 " clip-rule="nonzero"/></clipPath><clipPath id="e0ebc2afa7"><path d="M 195.261719 149.214844 C 194.5625 148.878906 193.894531 148.542969 193.261719 148.214844 C 194.667969 131.957031 196.117188 123.046875 196.703125 119.839844 C 197.035156 121.265625 197.285156 122.003906 197.285156 122.003906 C 197.296875 121.992188 197.699219 121.636719 198.367188 121.042969 C 198.507812 120.917969 198.660156 120.789062 198.816406 120.644531 C 198.042969 125.328125 196.523438 135.398438 195.261719 149.214844 " clip-rule="nonzero"/></clipPath><linearGradient x1="0.410138" gradientTransform="matrix(126.607144, 0, 0, 126.607144, 141.334031, 138.251067)" y1="0" x2="0.454034" gradientUnits="userSpaceOnUse" y2="0" id="42e6f38acc"><stop stop-opacity="1" stop-color="rgb(74.099731%, 15.699768%, 0%)" offset="0"/><stop stop-opacity="1" stop-color="rgb(74.099731%, 15.701294%, 0.00152588%)" offset="0.25"/><stop stop-opacity="1" stop-color="rgb(74.099731%, 15.802002%, 0.102234%)" offset="0.375"/><stop stop-opacity="1" stop-color="rgb(74.099731%, 16.000366%, 0.300598%)" offset="0.5"/><stop stop-opacity="1" stop-color="rgb(74.099731%, 16.099548%, 0.39978%)" offset="0.75"/><stop stop-opacity="1" stop-color="rgb(74.099731%, 16.200256%, 0.39978%)" offset="0.875"/><stop stop-opacity="1" stop-color="rgb(74.099731%, 16.400146%, 0.39978%)" offset="1"/></linearGradient><clipPath id="994036315b"><path d="M 216.386719 150.09375 L 262.476562 150.09375 L 262.476562 235.292969 L 216.386719 235.292969 Z M 216.386719 150.09375 " clip-rule="nonzero"/></clipPath><clipPath id="50b54576f3"><path d="M 205 30 L 244 30 L 244 76.5625 L 205 76.5625 Z M 205 30 " clip-rule="nonzero"/></clipPath><clipPath id="2f277ef776"><path d="M 222.324219 30.097656 C 230.828125 29.550781 237.132812 32.832031 239.144531 39.007812 C 247.410156 47.347656 242.753906 57.398438 242.03125 59.050781 C 240.273438 63.070312 234.636719 70.144531 231.414062 73.769531 C 229.964844 75.457031 228.578125 76.398438 228.578125 76.398438 C 226.199219 76.332031 229.707031 70.621094 227.824219 69.730469 C 227.335938 69.5 225.199219 69.457031 224.660156 69.464844 C 223.359375 69.480469 222.414062 70.628906 221.472656 71.527344 C 220.527344 72.421875 218.863281 72.089844 217.882812 71.234375 C 218.691406 69.820312 220.046875 67.289062 221.503906 63.957031 C 221.972656 62.890625 219.953125 59.800781 220.066406 58.640625 C 220.265625 56.609375 222.746094 52.679688 220.9375 51.722656 C 217.683594 49.992188 211.554688 49.523438 206.273438 46.195312 C 200.847656 42.773438 219.121094 30.300781 222.324219 30.097656 Z M 222.324219 30.097656 " clip-rule="nonzero"/></clipPath><clipPath id="3312f258b0"><path d="M 222.324219 30.097656 C 230.828125 29.550781 237.132812 32.832031 239.144531 39.007812 C 247.410156 47.347656 242.753906 57.398438 242.03125 59.050781 C 240.273438 63.070312 234.636719 70.144531 231.414062 73.769531 C 229.964844 75.457031 228.578125 76.398438 228.578125 76.398438 C 226.199219 76.332031 229.707031 70.621094 227.824219 69.730469 C 227.335938 69.5 225.199219 69.457031 224.660156 69.464844 C 223.359375 69.480469 222.414062 70.628906 221.472656 71.527344 C 220.527344 72.421875 218.863281 72.089844 217.882812 71.234375 C 218.691406 69.820312 220.046875 67.289062 221.503906 63.957031 C 221.972656 62.890625 219.953125 59.800781 220.066406 58.640625 C 220.265625 56.609375 222.746094 52.679688 220.9375 51.722656 C 217.683594 49.992188 211.554688 49.523438 206.273438 46.195312 C 200.847656 42.773438 219.121094 30.300781 222.324219 30.097656 " clip-rule="nonzero"/></clipPath><clipPath id="d5e89058a5"><path d="M 261.933594 34.597656 L 242.394531 90.835938 L 186.324219 71.351562 L 205.863281 15.113281 Z M 261.933594 34.597656 " clip-rule="nonzero"/></clipPath><radialGradient gradientTransform="matrix(-0.944606, -0.328207, -0.328207, 0.944606, 225.765699, 19.24603)" gradientUnits="userSpaceOnUse" r="50.388654" cx="0" id="8748fd43d2" cy="0" fx="0" fy="0"><stop stop-opacity="1" stop-color="rgb(84.597778%, 52.098083%, 13.299561%)" offset="0"/><stop stop-opacity="1" stop-color="rgb(84.411621%, 51.911926%, 13.299561%)" offset="0.125"/><stop stop-opacity="1" stop-color="rgb(84.178162%, 51.811218%, 13.299561%)" offset="0.234375"/><stop stop-opacity="1" stop-color="rgb(83.966064%, 51.672363%, 13.299561%)" offset="0.28125"/><stop stop-opacity="1" stop-color="rgb(83.859253%, 51.472473%, 13.259888%)" offset="0.324219"/><stop stop-opacity="1" stop-color="rgb(83.737183%, 51.399231%, 13.137817%)" offset="0.34375"/><stop stop-opacity="1" stop-color="rgb(83.573914%, 51.399231%, 12.9776%)" offset="0.351562"/><stop stop-opacity="1" stop-color="rgb(83.296204%, 51.399231%, 12.89978%)" offset="0.359375"/><stop stop-opacity="1" stop-color="rgb(83.099365%, 51.205444%, 12.89978%)" offset="0.378906"/><stop stop-opacity="1" stop-color="rgb(83.001709%, 51.005554%, 12.89978%)" offset="0.394531"/><stop stop-opacity="1" stop-color="rgb(82.727051%, 50.898743%, 12.89978%)" offset="0.402344"/><stop stop-opacity="1" stop-color="rgb(82.373047%, 50.698853%, 12.89978%)" offset="0.417969"/><stop stop-opacity="1" stop-color="rgb(82.087708%, 50.588989%, 12.889099%)" offset="0.433594"/><stop stop-opacity="1" stop-color="rgb(81.788635%, 50.387573%, 12.689209%)" offset="0.441406"/><stop stop-opacity="1" stop-color="rgb(81.402588%, 50.003052%, 12.5%)" offset="0.457031"/><stop stop-opacity="1" stop-color="rgb(81.202698%, 49.803162%, 12.5%)" offset="0.464844"/><stop stop-opacity="1" stop-color="rgb(81.097412%, 49.798584%, 12.5%)" offset="0.472656"/><stop stop-opacity="1" stop-color="rgb(80.885315%, 49.786377%, 12.5%)" offset="0.476562"/><stop stop-opacity="1" stop-color="rgb(80.580139%, 49.586487%, 12.5%)" offset="0.480469"/><stop stop-opacity="1" stop-color="rgb(80.19104%, 49.395752%, 12.5%)" offset="0.488281"/><stop stop-opacity="1" stop-color="rgb(79.998779%, 49.198914%, 12.5%)" offset="0.496094"/><stop stop-opacity="1" stop-color="rgb(79.808044%, 49.000549%, 12.356567%)" offset="0.503906"/><stop stop-opacity="1" stop-color="rgb(79.608154%, 48.999023%, 12.205505%)" offset="0.507812"/><stop stop-opacity="1" stop-color="rgb(79.417419%, 48.817444%, 12.199402%)" offset="0.511719"/><stop stop-opacity="1" stop-color="rgb(79.217529%, 48.617554%, 12.199402%)" offset="0.515625"/><stop stop-opacity="1" stop-color="rgb(79.176331%, 48.576355%, 12.199402%)" offset="0.519531"/><stop stop-opacity="1" stop-color="rgb(78.97644%, 48.376465%, 12.199402%)" offset="0.523438"/><stop stop-opacity="1" stop-color="rgb(78.785706%, 48.199463%, 12.199402%)" offset="0.527344"/><stop stop-opacity="1" stop-color="rgb(78.585815%, 48.191833%, 12.199402%)" offset="0.53125"/><stop stop-opacity="1" stop-color="rgb(78.396606%, 47.991943%, 12.199402%)" offset="0.535156"/><stop stop-opacity="1" stop-color="rgb(78.198242%, 47.799683%, 12.199402%)" offset="0.539062"/><stop stop-opacity="1" stop-color="rgb(77.807617%, 47.799683%, 12.005615%)" offset="0.542969"/><stop stop-opacity="1" stop-color="rgb(77.455139%, 47.648621%, 11.805725%)" offset="0.546875"/><stop stop-opacity="1" stop-color="rgb(77.124023%, 47.323608%, 11.799622%)" offset="0.558594"/><stop stop-opacity="1" stop-color="rgb(76.902771%, 47.123718%, 11.799622%)" offset="0.5625"/><stop stop-opacity="1" stop-color="rgb(76.663208%, 47.08252%, 11.799622%)" offset="0.566406"/><stop stop-opacity="1" stop-color="rgb(76.283264%, 46.882629%, 11.799622%)" offset="0.570312"/><stop stop-opacity="1" stop-color="rgb(76.092529%, 46.69342%, 11.793518%)" offset="0.574219"/><stop stop-opacity="1" stop-color="rgb(75.891113%, 46.49353%, 11.593628%)" offset="0.578125"/><stop stop-opacity="1" stop-color="rgb(75.500488%, 46.299744%, 11.399841%)" offset="0.582031"/><stop stop-opacity="1" stop-color="rgb(75.302124%, 46.107483%, 11.399841%)" offset="0.585938"/><stop stop-opacity="1" stop-color="rgb(75.111389%, 45.907593%, 11.399841%)" offset="0.589844"/><stop stop-opacity="1" stop-color="rgb(74.728394%, 45.716858%, 11.399841%)" offset="0.59375"/><stop stop-opacity="1" stop-color="rgb(74.337769%, 45.515442%, 11.399841%)" offset="0.597656"/><stop stop-opacity="1" stop-color="rgb(74.09668%, 45.298767%, 11.375427%)" offset="0.601562"/><stop stop-opacity="1" stop-color="rgb(73.857117%, 45.080566%, 11.175537%)" offset="0.605469"/><stop stop-opacity="1" stop-color="rgb(73.466492%, 44.880676%, 10.998535%)" offset="0.609375"/><stop stop-opacity="1" stop-color="rgb(73.075867%, 44.689941%, 10.998535%)" offset="0.613281"/><stop stop-opacity="1" stop-color="rgb(72.689819%, 44.490051%, 10.998535%)" offset="0.617188"/><stop stop-opacity="1" stop-color="rgb(72.499084%, 44.299316%, 10.998535%)" offset="0.621094"/><stop stop-opacity="1" stop-color="rgb(72.3526%, 44.104004%, 10.998535%)" offset="0.625"/><stop stop-opacity="1" stop-color="rgb(72.012329%, 43.904114%, 10.8078%)" offset="0.628906"/><stop stop-opacity="1" stop-color="rgb(71.62323%, 43.713379%, 10.60791%)" offset="0.632812"/><stop stop-opacity="1" stop-color="rgb(71.232605%, 43.513489%, 10.598755%)" offset="0.636719"/><stop stop-opacity="1" stop-color="rgb(70.84198%, 43.322754%, 10.598755%)" offset="0.640625"/><stop stop-opacity="1" stop-color="rgb(70.401001%, 42.921448%, 10.577393%)" offset="0.644531"/><stop stop-opacity="1" stop-color="rgb(69.960022%, 42.684937%, 10.377502%)" offset="0.648438"/><stop stop-opacity="1" stop-color="rgb(69.569397%, 42.523193%, 10.198975%)" offset="0.652344"/><stop stop-opacity="1" stop-color="rgb(69.178772%, 42.185974%, 10.198975%)" offset="0.65625"/><stop stop-opacity="1" stop-color="rgb(68.788147%, 41.996765%, 10.198975%)" offset="0.660156"/><stop stop-opacity="1" stop-color="rgb(68.397522%, 41.798401%, 10.198975%)" offset="0.664062"/><stop stop-opacity="1" stop-color="rgb(68.006897%, 41.407776%, 10.005188%)" offset="0.667969"/><stop stop-opacity="1" stop-color="rgb(67.663574%, 41.204834%, 9.805298%)" offset="0.671875"/><stop stop-opacity="1" stop-color="rgb(67.323303%, 41.014099%, 9.799194%)" offset="0.675781"/><stop stop-opacity="1" stop-color="rgb(66.755676%, 40.635681%, 9.799194%)" offset="0.679688"/><stop stop-opacity="1" stop-color="rgb(66.163635%, 40.245056%, 9.623718%)" offset="0.683594"/><stop stop-opacity="1" stop-color="rgb(65.70282%, 40.003967%, 9.423828%)" offset="0.6875"/><stop stop-opacity="1" stop-color="rgb(65.270996%, 39.770508%, 9.399414%)" offset="0.691406"/><stop stop-opacity="1" stop-color="rgb(64.889526%, 39.39209%, 9.399414%)" offset="0.695312"/><stop stop-opacity="1" stop-color="rgb(64.500427%, 39.199829%, 9.399414%)" offset="0.703125"/><stop stop-opacity="1" stop-color="rgb(64.201355%, 39.097595%, 9.399414%)" offset="0.71875"/><stop stop-opacity="1" stop-color="rgb(63.993835%, 38.897705%, 9.394836%)" offset="0.726562"/><stop stop-opacity="1" stop-color="rgb(63.694763%, 38.60321%, 9.194946%)" offset="0.734375"/><stop stop-opacity="1" stop-color="rgb(63.435364%, 38.40332%, 8.999634%)" offset="0.765625"/><stop stop-opacity="1" stop-color="rgb(63.299561%, 38.398743%, 8.999634%)" offset="0.769531"/><stop stop-opacity="1" stop-color="rgb(63.157654%, 38.392639%, 8.999634%)" offset="0.773438"/><stop stop-opacity="1" stop-color="rgb(62.892151%, 38.192749%, 8.999634%)" offset="0.777344"/><stop stop-opacity="1" stop-color="rgb(62.548828%, 37.806702%, 8.999634%)" offset="0.789062"/><stop stop-opacity="1" stop-color="rgb(62.336731%, 37.606812%, 8.999634%)" offset="0.8125"/><stop stop-opacity="1" stop-color="rgb(62.136841%, 37.594604%, 8.999634%)" offset="0.816406"/><stop stop-opacity="1" stop-color="rgb(61.997986%, 37.445068%, 8.999634%)" offset="0.824219"/><stop stop-opacity="1" stop-color="rgb(61.802673%, 37.298584%, 8.999634%)" offset="0.832031"/><stop stop-opacity="1" stop-color="rgb(61.412048%, 37.298584%, 8.807373%)" offset="0.839844"/><stop stop-opacity="1" stop-color="rgb(61.108398%, 37.199402%, 8.607483%)" offset="0.847656"/><stop stop-opacity="1" stop-color="rgb(60.899353%, 36.99646%, 8.599854%)" offset="0.855469"/><stop stop-opacity="1" stop-color="rgb(60.798645%, 36.697388%, 8.599854%)" offset="0.863281"/><stop stop-opacity="1" stop-color="rgb(60.604858%, 36.500549%, 8.599854%)" offset="0.878906"/><stop stop-opacity="1" stop-color="rgb(60.340881%, 36.434937%, 8.599854%)" offset="0.890625"/><stop stop-opacity="1" stop-color="rgb(60.134888%, 36.235046%, 8.599854%)" offset="0.894531"/><stop stop-opacity="1" stop-color="rgb(59.899902%, 36.099243%, 8.599854%)" offset="0.90625"/><stop stop-opacity="1" stop-color="rgb(59.605408%, 36.004639%, 8.599854%)" offset="0.917969"/><stop stop-opacity="1" stop-color="rgb(59.30481%, 35.804749%, 8.447266%)" offset="0.925781"/><stop stop-opacity="1" stop-color="rgb(59.063721%, 35.56366%, 8.24585%)" offset="0.941406"/><stop stop-opacity="1" stop-color="rgb(58.862305%, 35.36377%, 8.198547%)" offset="0.953125"/><stop stop-opacity="1" stop-color="rgb(58.602905%, 35.299683%, 8.198547%)" offset="0.957031"/><stop stop-opacity="1" stop-color="rgb(58.300781%, 35.197449%, 8.198547%)" offset="0.964844"/><stop stop-opacity="1" stop-color="rgb(58.096313%, 34.997559%, 8.198547%)" offset="0.972656"/><stop stop-opacity="1" stop-color="rgb(57.998657%, 34.899902%, 8.198547%)" offset="1"/></radialGradient></defs><g clip-path="url(#979a5080f7)"><g clip-path="url(#a301005ef0)"><g clip-path="url(#abec33c2e4)"><g clip-path="url(#bcdd4adcf8)"><path fill="url(#96caa5d826)" d="M 136.15625 40.410156 L 137.074219 40.574219 L 136.992188 41.027344 L 136.074219 40.859375 Z M 136.15625 40.410156 " fill-rule="nonzero"/></g></g></g></g><g clip-path="url(#8e1f6326b0)"><path fill="#f7ccbc" d="M 115.3125 20.175781 L 117.378906 16.675781 L 120.160156 16.085938 C 120.160156 16.085938 116.328125 7.371094 115.613281 5.078125 C 114.894531 2.777344 116.71875 0.0078125 118.164062 0.859375 C 119.003906 1.351562 125.835938 16.347656 125.835938 16.347656 L 129.960938 19.925781 C 130.640625 20.515625 131.125 21.296875 131.351562 22.167969 L 135.453125 38.117188 C 135.898438 39.84375 136.617188 41.476562 137.589844 42.96875 C 141.539062 48.992188 152.453125 65.648438 158.222656 73.285156 C 158.84375 74.101562 160.179688 74.90625 161.191406 75.078125 C 164.375 75.621094 167.652344 76.070312 171.199219 76.503906 C 170.140625 76.769531 169.039062 77.394531 167.980469 78.492188 C 164.535156 82.066406 162.863281 88.792969 164.242188 93.539062 C 164.703125 95.113281 165.457031 96.230469 166.363281 96.941406 C 162.671875 95.972656 159.097656 95.023438 154.886719 93.9375 C 150.164062 92.710938 146.148438 89.601562 143.855469 85.292969 C 137.402344 73.152344 129.972656 54.914062 127.390625 48.445312 C 126.769531 46.882812 125.859375 45.484375 124.679688 44.28125 C 122.261719 41.824219 118.167969 37.554688 117.667969 36.367188 C 116.949219 34.675781 114.917969 29.351562 114.917969 29.351562 C 113.105469 28.984375 112.511719 26.203125 112.511719 26.203125 L 115.3125 20.175781 " fill-opacity="1" fill-rule="nonzero"/></g><path fill="#f3ac92" d="M 121.46875 20.679688 C 121.46875 20.679688 122.078125 20.5625 122.675781 22.136719 C 123.269531 23.707031 123.867188 25.761719 123.867188 25.761719 C 123.867188 25.761719 123.859375 28.300781 121.804688 28.773438 C 119.746094 29.25 118.074219 24.050781 118.074219 24.050781 L 121.46875 20.679688 " fill-opacity="1" fill-rule="nonzero"/><path fill="#dfe7f3" d="M 193.605469 78.8125 C 193.605469 78.8125 210.511719 78.40625 221.578125 82.867188 C 232.648438 87.324219 207.054688 135.371094 207.054688 135.371094 L 190.304688 116.289062 C 190.304688 116.289062 183.234375 88.324219 193.605469 78.8125 " fill-opacity="1" fill-rule="nonzero"/><path fill="#dfe7f3" d="M 165.300781 77.839844 C 166.390625 76.695312 167.523438 76.039062 168.621094 75.753906 C 169.296875 75.578125 169.957031 75.550781 170.582031 75.679688 C 170.960938 75.757812 183.960938 77.734375 193.605469 78.8125 C 193.605469 78.8125 182.960938 148.34375 182.695312 144.253906 C 182.484375 140.988281 180.851562 114.433594 179.121094 104.816406 C 178.738281 102.695312 177.15625 101.007812 175.058594 100.496094 C 171.304688 99.578125 166.054688 97.859375 165.652344 97.800781 C 164.980469 97.707031 164.347656 97.433594 163.773438 96.992188 C 162.824219 96.261719 162.035156 95.109375 161.546875 93.476562 C 160.078125 88.566406 161.753906 81.578125 165.300781 77.839844 " fill-opacity="1" fill-rule="nonzero"/><path fill="#8d5d41" d="M 204.171875 324.824219 L 205.359375 335.179688 C 205.359375 335.179688 205.183594 337.269531 202.402344 338.566406 C 199.621094 339.867188 197.300781 340.695312 197.300781 340.695312 L 194.269531 337.863281 C 194.269531 337.863281 191.761719 339.042969 189.648438 341.449219 C 187.347656 344.074219 185.886719 346.472656 181.601562 347.941406 C 176.558594 349.664062 170.53125 350.675781 166.273438 349.1875 C 164.582031 348.597656 164.078125 347.703125 163.941406 347.105469 C 163.855469 346.738281 163.980469 344.691406 164.34375 343.765625 C 165.128906 341.785156 176.867188 335.050781 180.117188 332.28125 C 184.089844 328.886719 187.15625 323.085938 187.15625 323.085938 L 204.171875 324.824219 " fill-opacity="1" fill-rule="nonzero"/><path fill="#3695db" d="M 203.152344 197.277344 C 200.472656 187.808594 186.839844 158.992188 180.285156 161.980469 C 180.285156 161.980469 171.375 195.429688 173.257812 221.230469 C 175.144531 247.027344 175.769531 256.492188 177.125 261.5625 C 177.390625 262.554688 177.632812 263.363281 177.863281 264.085938 C 178.34375 265.515625 179.0625 267.757812 180.078125 271.773438 C 180.097656 271.859375 180.117188 271.949219 180.136719 272.039062 C 180.894531 276.554688 182.128906 284.132812 183.125 291.363281 C 184.753906 307.953125 185.269531 325.296875 185.265625 325.519531 C 185.21875 327.191406 186.339844 328.8125 188.636719 329.863281 C 192.074219 331.433594 198.085938 331.460938 201.925781 328.800781 C 204.003906 327.359375 204.859375 325.585938 204.527344 323.9375 C 204.328125 322.953125 203.664062 305.859375 203.945312 295.5625 C 204.308594 282.398438 203.015625 274.488281 199.1875 261.125 C 198.050781 257.15625 197.789062 252.984375 198.414062 248.902344 C 199.667969 240.65625 201.273438 233.777344 202.765625 226.976562 C 205.335938 215.253906 205.828125 206.75 203.152344 197.277344 " fill-opacity="1" fill-rule="nonzero"/><g clip-path="url(#ece97742af)"><path fill="#8d5d41" d="M 243.1875 342.488281 L 227.007812 342.960938 C 227.007812 342.960938 226.515625 346.339844 225.828125 348.300781 C 225.140625 350.261719 220.632812 358.464844 219.234375 361.34375 C 218.371094 363.132812 216.832031 368.476562 216.707031 372.921875 C 216.707031 372.921875 217.613281 374.507812 222.414062 374.984375 C 227.21875 375.460938 236.578125 370.90625 237.9375 365.738281 C 239.296875 360.574219 241.160156 352.914062 241.160156 352.914062 C 241.160156 352.914062 243.289062 351.097656 243.589844 348.265625 C 243.617188 347.996094 243.1875 342.488281 243.1875 342.488281 " fill-opacity="1" fill-rule="nonzero"/></g><path fill="#64ade3" d="M 191.5 156.492188 C 191.476562 155.824219 195.597656 156.492188 195.597656 156.492188 L 234.234375 178.15625 C 235.429688 189.273438 239.003906 215.4375 238.886719 222.671875 C 238.75 231.335938 239.605469 262.625 239.839844 271.0625 C 243.253906 280.101562 245.375 296.398438 244.828125 306.207031 C 244.1875 317.648438 244.023438 340.453125 244.167969 341.449219 C 244.414062 343.109375 243.472656 344.839844 241.324219 346.171875 C 237.351562 348.632812 231.347656 348.296875 228 346.550781 C 225.753906 345.386719 224.71875 343.707031 224.851562 342.042969 C 224.875 341.722656 226.15625 306.453125 222.234375 287.308594 C 221.507812 283.75 220.949219 281.675781 220.441406 280.214844 C 219.601562 277.332031 218.835938 277.191406 217.433594 271.359375 C 216.296875 266.625 208.660156 243.832031 203.695312 226.136719 C 200.90625 216.203125 197.96875 206.816406 195.839844 199.902344 C 190.429688 182.347656 191.503906 156.691406 191.5 156.492188 " fill-opacity="1" fill-rule="nonzero"/><path fill="#64ade3" d="M 244.828125 306.207031 C 245.402344 295.925781 243.0625 278.429688 239.355469 269.726562 C 239.355469 269.726562 240.144531 275.054688 231.699219 278.867188 C 225.027344 281.878906 222.21875 282 220.441406 280.214844 C 220.949219 281.675781 221.507812 283.75 222.234375 287.308594 C 226.15625 306.453125 224.875 341.722656 224.851562 342.042969 C 224.71875 343.707031 225.757812 345.386719 228 346.550781 C 231.347656 348.296875 237.355469 348.632812 241.324219 346.171875 C 243.472656 344.839844 244.414062 343.109375 244.167969 341.449219 C 244.023438 340.453125 244.1875 317.648438 244.828125 306.207031 " fill-opacity="1" fill-rule="nonzero"/><path fill="#ffffff" d="M 229.503906 83.621094 C 229.503906 83.621094 229.804688 80.855469 227.351562 78.460938 C 224.902344 76.066406 223.183594 86.285156 223.183594 86.285156 L 226.121094 87.503906 L 229.503906 83.621094 " fill-opacity="1" fill-rule="nonzero"/><path fill="#ffffff" d="M 198.917969 110.484375 L 198.933594 92.929688 C 198.933594 92.929688 201.621094 86.777344 205.636719 83.957031 C 209.65625 81.140625 207.621094 89.054688 207.621094 89.054688 L 198.917969 110.484375 " fill-opacity="1" fill-rule="nonzero"/><path fill="#f4bba6" d="M 204.167969 86.179688 C 203.652344 84.78125 202.253906 82.707031 195.503906 80.632812 C 196.5 75.898438 198.523438 77.132812 198.523438 77.132812 L 207.574219 70.105469 L 217.921875 65.953125 L 226.449219 52.4375 L 232.5 61.046875 C 232.5 61.046875 226.496094 81.179688 228.3125 83.445312 C 231.773438 87.757812 209.011719 103.515625 207.128906 105.164062 L 198.917969 110.484375 C 198.917969 110.484375 204.160156 98.367188 204.324219 94.152344 C 204.460938 90.597656 204.5 87.078125 204.167969 86.179688 " fill-opacity="1" fill-rule="nonzero"/><path fill="#dfe7f3" d="M 182.835938 165.953125 C 183.28125 165.128906 184.125 148.820312 184.074219 134.605469 C 184.039062 123.558594 183.714844 114.746094 183.917969 109.578125 C 184.898438 84.28125 193.210938 80.148438 193.210938 80.148438 L 198.25 87.816406 C 198.714844 88.808594 199.878906 91.4375 199.492188 96.390625 L 198.917969 110.484375 C 199.195312 110.269531 203.550781 102.253906 203.691406 101.964844 C 203.9375 102.179688 210.375 97.960938 216.808594 93.746094 C 223.246094 89.527344 229.683594 85.304688 229.933594 85.523438 C 239.558594 94.007812 249.582031 102.488281 253.230469 106.40625 C 257.40625 110.890625 256.832031 120.4375 251.492188 133.71875 C 251.375 134.015625 240.796875 150.96875 238.285156 161.558594 C 237.457031 165.046875 236.082031 179.683594 235.6875 182.019531 C 235.34375 184.046875 234.058594 185.730469 232.207031 186.628906 C 223.746094 190.710938 202.925781 190.867188 192.800781 183.9375 C 185.628906 179.027344 181.832031 170.882812 182.835938 165.953125 " fill-opacity="1" fill-rule="nonzero"/><g clip-path="url(#5e379ed0e1)"><g clip-path="url(#ea6b0f626c)"><g clip-path="url(#4f9a8b67a1)"><g clip-path="url(#6bad288af4)"><path fill="url(#8f5d5b969a)" d="M 249.886719 109.40625 L 256.046875 108.992188 L 257.703125 133.546875 L 251.539062 133.960938 Z M 249.886719 109.40625 " fill-rule="nonzero"/></g></g></g></g><g clip-path="url(#d0df08acb9)"><g clip-path="url(#1bc25ac286)"><g clip-path="url(#73ff77582d)"><g clip-path="url(#56633441dd)"><path fill="url(#1cc5499421)" d="M 222.898438 106.589844 L 255.933594 104.367188 L 259.441406 156.390625 L 226.40625 158.617188 Z M 222.898438 106.589844 " fill-rule="nonzero"/></g></g></g></g><g clip-path="url(#98180df7a3)"><g clip-path="url(#2b88da2db3)"><g clip-path="url(#cb68eafca5)"><path fill="url(#c460a8fc81)" d="M 174.953125 77.550781 L 174.953125 198.949219 L 249.140625 198.949219 L 249.140625 77.550781 Z M 174.953125 77.550781 " fill-rule="nonzero"/></g></g></g><path fill="#e6f6ff" d="M 182.960938 149.511719 C 187.628906 153.449219 201.90625 160.347656 214.550781 162.621094 C 217.578125 163.164062 220.542969 163.433594 223.382812 163.433594 C 229.519531 163.433594 235.039062 162.175781 239.207031 159.753906 C 239.417969 159.632812 239.585938 159.484375 239.789062 159.355469 C 240.125 157.636719 240.371094 156.460938 240.457031 156.25 C 240.457031 156.25 238.109375 157.671875 234.203125 154.914062 C 229.492188 156.945312 222.757812 157.414062 215.714844 156.152344 C 203.628906 153.976562 190.539062 147.308594 187.203125 144.488281 C 183.472656 141.34375 180.96875 138.191406 179.898438 135.433594 C 179.804688 138.691406 179.546875 142.28125 179.199219 145.90625 C 180.328125 147.109375 181.546875 148.316406 182.960938 149.511719 " fill-opacity="1" fill-rule="nonzero"/><path fill="#e6f6ff" d="M 233.734375 172.882812 C 229.039062 175.617188 221.480469 176.386719 213.546875 174.964844 C 201.457031 172.789062 188.367188 166.117188 185.03125 163.300781 C 181.695312 160.480469 179.375 157.667969 178.148438 155.132812 C 177.695312 158.644531 177.226562 161.863281 176.824219 164.492188 C 178.003906 165.773438 179.285156 167.050781 180.792969 168.324219 C 185.457031 172.261719 199.734375 179.160156 212.382812 181.433594 C 215.410156 181.976562 218.375 182.246094 221.210938 182.246094 C 227.128906 182.246094 232.445312 181.050781 236.554688 178.792969 C 236.566406 177.667969 236.609375 176.769531 236.703125 176.246094 C 237.0625 174.21875 237.480469 171.871094 237.910156 169.507812 L 237.152344 169.234375 C 236.648438 170.632812 235.5 171.859375 233.734375 172.882812 " fill-opacity="1" fill-rule="nonzero"/><path fill="#283a0f" d="M 191.050781 191.597656 C 190.953125 191.542969 190.847656 191.496094 190.75 191.445312 C 190.851562 191.492188 190.953125 191.542969 191.050781 191.597656 C 191.738281 189.140625 192.15625 186.707031 192.699219 184.363281 C 192.15625 186.707031 191.738281 189.140625 191.050781 191.597656 " fill-opacity="1" fill-rule="nonzero"/><path fill="#4a430f" d="M 192.699219 184.363281 C 192.730469 184.21875 192.765625 184.078125 192.800781 183.9375 C 192.804688 184.046875 192.8125 184.160156 192.816406 184.269531 C 192.8125 184.160156 192.804688 184.046875 192.800781 183.9375 C 192.765625 184.078125 192.730469 184.21875 192.699219 184.363281 " fill-opacity="1" fill-rule="nonzero"/><g clip-path="url(#1c24b28d7d)"><g clip-path="url(#2c3977f177)"><g clip-path="url(#c4addcebdc)"><path fill="#bd2800" d="M 190.75 155.285156 L 190.75 191.597656 L 194.671875 191.597656 L 194.671875 155.285156 Z M 190.75 155.285156 " fill-opacity="1" fill-rule="nonzero"/></g></g></g><path fill="#a55a10" d="M 197.285156 122.003906 C 197.285156 122.003906 197.035156 121.265625 196.703125 119.839844 C 196.707031 119.832031 196.710938 119.824219 196.710938 119.8125 C 197.035156 121.207031 197.285156 122.003906 197.285156 122.003906 M 198.367188 121.042969 C 198.507812 120.917969 198.660156 120.789062 198.816406 120.644531 C 198.660156 120.789062 198.507812 120.917969 198.367188 121.042969 " fill-opacity="1" fill-rule="nonzero"/><g clip-path="url(#a63c7f1237)"><g clip-path="url(#b0809a23f2)"><g clip-path="url(#e0ebc2afa7)"><path fill="url(#42e6f38acc)" d="M 193.261719 119.839844 L 193.261719 149.214844 L 198.816406 149.214844 L 198.816406 119.839844 Z M 193.261719 119.839844 " fill-rule="nonzero"/></g></g></g><path fill="#aa6011" d="M 194.671875 156.207031 C 193.996094 155.902344 193.332031 155.59375 192.6875 155.285156 C 192.878906 152.789062 193.070312 150.433594 193.261719 148.214844 C 193.894531 148.542969 194.5625 148.878906 195.261719 149.214844 C 195.058594 151.449219 194.859375 153.785156 194.671875 156.207031 " fill-opacity="1" fill-rule="nonzero"/><path fill="#aa6011" d="M 193.558594 175.488281 C 192.847656 175.175781 192.15625 174.867188 191.476562 174.550781 C 191.605469 172.085938 191.738281 169.710938 191.871094 167.425781 C 192.511719 167.75 193.183594 168.078125 193.882812 168.40625 C 193.757812 170.707031 193.652344 173.070312 193.558594 175.488281 " fill-opacity="1" fill-rule="nonzero"/><g clip-path="url(#994036315b)"><path fill="#f7ccbc" d="M 222.667969 220.886719 L 221.613281 224.042969 C 219.976562 227.816406 216.886719 225.859375 216.886719 225.859375 C 217.457031 224.390625 217.8125 221.726562 218.75 218.871094 C 218.886719 218.453125 219.109375 218.050781 219.382812 217.707031 L 223.324219 212.746094 C 224.074219 211.796875 224.867188 211.101562 225.453125 210.757812 C 227.78125 209.378906 232.507812 206.46875 232.796875 205.835938 C 233.90625 203.402344 239.859375 186.3125 243.328125 173.722656 C 244.046875 171.105469 244.148438 168.394531 243.640625 165.730469 C 243.015625 162.433594 241.398438 155.671875 240.851562 152.851562 C 241.382812 153.917969 242.457031 154.863281 244.066406 155.53125 C 248.410156 157.339844 254.976562 156.476562 258.726562 153.59375 C 260.113281 152.523438 260.914062 151.328125 261.15625 150.15625 C 261.976562 158.527344 262.507812 165.285156 262.476562 166.089844 C 261.925781 179.195312 245.511719 211.558594 245.199219 212.53125 C 244.058594 216.117188 241.070312 225.402344 239.449219 229.332031 C 239.035156 230.332031 238.28125 231.105469 237.277344 231.519531 C 234.824219 232.539062 230.800781 234.0625 225.324219 234.941406 C 222.058594 235.46875 221.007812 233.285156 221.007812 233.285156 L 219.148438 230.070312 L 222.804688 227.816406 C 222.804688 227.816406 225.550781 224.265625 226.550781 221 C 226.773438 220.277344 226.84375 218.570312 225.769531 218.648438 C 224.5625 218.730469 222.667969 220.886719 222.667969 220.886719 " fill-opacity="1" fill-rule="nonzero"/></g><path fill="#dfe7f3" d="M 253.898438 106.8125 C 256.707031 109.578125 257.296875 112.773438 258.117188 118.277344 C 259.050781 124.519531 260.160156 135.953125 261.363281 148.019531 C 261.441406 148.769531 261.511719 149.496094 261.582031 150.226562 C 261.324219 151.46875 260.480469 152.730469 259.007812 153.863281 C 255.039062 156.917969 248.089844 157.832031 243.492188 155.914062 C 241.785156 155.207031 240.648438 154.207031 240.085938 153.078125 C 239.964844 152.460938 239.84375 151.832031 239.726562 151.234375 C 238.082031 142.832031 237.304688 139.066406 237.035156 135.808594 C 235.207031 113.644531 250.105469 103.074219 253.898438 106.8125 " fill-opacity="1" fill-rule="nonzero"/><path fill="#dfe7f3" d="M 209.160156 95.859375 C 209.160156 95.859375 207.914062 96.28125 206.257812 98.09375 C 204.09375 100.472656 199.972656 109.214844 199.972656 109.214844 C 199.972656 109.214844 208.28125 109.253906 217.484375 102.863281 C 226.691406 96.472656 209.160156 95.859375 209.160156 95.859375 " fill-opacity="1" fill-rule="nonzero"/><path fill="#ffffff" d="M 226.648438 87.15625 C 230.207031 84.800781 229.078125 80.652344 229.078125 80.652344 L 230.84375 85.65625 C 230.84375 85.65625 231.996094 90.136719 228.503906 94.914062 C 225.410156 99.148438 216.5625 107.351562 216.5625 107.351562 L 213.804688 99.09375 C 212.300781 96.257812 210.0625 95.917969 209.160156 95.859375 C 209.160156 95.859375 222.515625 89.886719 226.648438 87.15625 " fill-opacity="1" fill-rule="nonzero"/><path fill="#ffffff" d="M 203.917969 85.617188 C 203.550781 84.910156 202.855469 84.085938 201.484375 83.199219 C 201.484375 83.199219 196.984375 85.464844 195.296875 88.359375 C 193.609375 91.253906 198.175781 88.449219 199.15625 92.589844 L 199.636719 92.460938 L 203.917969 85.617188 " fill-opacity="1" fill-rule="nonzero"/><path fill="#ccd9ec" d="M 195.296875 88.359375 L 192.101562 94.511719 L 199.578125 92.941406 C 198.976562 88.117188 195.296875 88.359375 195.296875 88.359375 " fill-opacity="1" fill-rule="nonzero"/><path fill="#f7ccbc" d="M 205.226562 40.148438 C 205.226562 40.148438 201.597656 41.421875 198.339844 49.832031 C 198.09375 50.46875 195.585938 60.765625 195.808594 61.410156 C 195.808594 61.410156 198.214844 56.875 197.746094 57.558594 L 193.457031 63.824219 C 193.457031 63.824219 192.664062 65.8125 195.007812 66.632812 C 195.773438 66.898438 195.925781 67.546875 195.769531 68.332031 C 195.367188 70.316406 193.46875 77.550781 193.46875 77.550781 C 193.46875 77.550781 193.441406 81.085938 199.28125 82.753906 C 201.273438 83.324219 219.09375 80.84375 221.628906 77.101562 L 224.0625 72.765625 L 228.234375 63.863281 L 226.953125 46.84375 C 226.953125 46.84375 218.144531 36.109375 205.226562 40.148438 " fill-opacity="1" fill-rule="nonzero"/><path fill="#f7ccbc" d="M 212.144531 34.128906 C 216.476562 31.78125 222.796875 30.738281 231.027344 34.652344 C 247.863281 42.65625 240.332031 57.558594 239.40625 59.671875 C 238.75 61.171875 238.03125 62.566406 237.300781 63.832031 C 234.554688 68.597656 229.542969 71.605469 224.058594 72.027344 L 223.785156 72.050781 C 223.785156 72.050781 218.332031 76.84375 217.011719 77.941406 C 215.691406 79.039062 213.308594 79.847656 211.84375 80.394531 C 209.398438 81.316406 202.035156 83.28125 199.28125 82.753906 C 196.523438 82.226562 193.398438 80.019531 193.148438 77.601562 C 192.898438 75.1875 195.058594 62.714844 195.855469 60.300781 C 196.65625 57.871094 198.019531 54.703125 198.019531 54.703125 C 198.019531 54.703125 201.996094 43.652344 203.050781 42.203125 C 205.039062 39.457031 207.859375 36.453125 212.144531 34.128906 " fill-opacity="1" fill-rule="nonzero"/><path fill="#f4bba6" d="M 229.175781 48.984375 C 229.175781 48.984375 225.046875 48.179688 220.289062 51.863281 C 218.988281 52.867188 222.488281 58.039062 221.164062 59.902344 C 207.417969 79.195312 202.832031 82.933594 199.324219 82.757812 C 202.183594 83.257812 218.191406 80.566406 220.8125 78.089844 C 222.066406 76.914062 225.328125 71.851562 225.328125 71.851562 L 230.59375 70.914062 C 230.59375 70.914062 242.167969 58.902344 242.761719 56.097656 C 240.605469 52.855469 236.617188 49.59375 229.175781 48.984375 " fill-opacity="1" fill-rule="nonzero"/><g clip-path="url(#50b54576f3)"><g clip-path="url(#2f277ef776)"><g clip-path="url(#3312f258b0)"><g clip-path="url(#d5e89058a5)"><path fill="url(#8748fd43d2)" d="M 258.820312 34.890625 L 240.125 88.703125 L 190.292969 71.386719 L 208.988281 17.574219 Z M 258.820312 34.890625 " fill-rule="nonzero"/></g></g></g></g><path fill="#f7ccbc" d="M 229.929688 64.75 C 232.445312 66.90625 229.496094 71.476562 226.367188 73.355469 C 223.238281 75.238281 220.855469 74.925781 219.980469 73.808594 C 219.109375 72.691406 224.132812 65.773438 224.132812 65.773438 C 224.132812 65.773438 227.1875 62.390625 229.929688 64.75 " fill-opacity="1" fill-rule="nonzero"/><path fill="#ffa100" d="M 242.8125 58.980469 C 240.34375 65.105469 226.117188 65.140625 211.035156 59.058594 C 195.953125 52.976562 185.730469 43.078125 188.203125 36.957031 C 190.671875 30.832031 204.898438 30.796875 219.980469 36.875 C 235.0625 42.957031 245.28125 52.855469 242.8125 58.980469 " fill-opacity="1" fill-rule="nonzero"/><path fill="#ffc74f" d="M 230.773438 27.972656 C 219.027344 23.234375 206 28.082031 201.679688 38.796875 C 201.539062 39.152344 201.089844 40.257812 201 40.484375 C 198.816406 45.890625 206.570312 54.121094 218.316406 58.855469 C 230.0625 63.59375 241.351562 63.046875 243.535156 57.636719 C 243.625 57.410156 244.070312 56.304688 244.214844 55.953125 C 248.535156 45.234375 242.515625 32.710938 230.773438 27.972656 " fill-opacity="1" fill-rule="nonzero"/><path fill="#ffb413" d="M 235.40625 35.21875 C 222.792969 30.171875 208.8125 35.335938 204.171875 46.75 C 204.019531 47.128906 203.425781 48.617188 203.410156 48.652344 C 206.433594 52.410156 211.699219 56.1875 218.316406 58.855469 C 230.0625 63.59375 241.351562 63.046875 243.535156 57.636719 C 243.625 57.410156 244.070312 56.304688 244.214844 55.953125 C 244.261719 55.832031 244.304688 55.714844 244.351562 55.597656 C 247.367188 47.675781 243.359375 38.4375 235.40625 35.21875 " fill-opacity="1" fill-rule="nonzero"/><path fill="#ffa100" d="M 204.773438 47.835938 C 209.414062 36.421875 223.398438 31.253906 236.007812 36.300781 C 239.039062 37.53125 241.4375 39.566406 243.132812 42.0625 C 241.425781 39.089844 238.84375 36.609375 235.503906 35.257812 C 222.792969 30.171875 208.8125 35.335938 204.171875 46.75 C 204.019531 47.128906 203.425781 48.617188 203.410156 48.652344 C 203.617188 48.910156 203.914062 49.160156 204.144531 49.417969 C 204.328125 48.953125 204.664062 48.109375 204.773438 47.835938 " fill-opacity="1" fill-rule="nonzero"/></svg>