<svg xmlns="http://www.w3.org/2000/svg" xmlns:xlink="http://www.w3.org/1999/xlink" width="500" zoomAndPan="magnify" viewBox="0 0 375 374.999991" height="500" preserveAspectRatio="xMidYMid meet" version="1.0"><defs><clipPath id="dc75562cd1"><path d="M 82.265625 62 L 107 62 L 107 127 L 82.265625 127 Z M 82.265625 62 " clip-rule="nonzero"/></clipPath><clipPath id="b0b9061553"><path d="M 205.457031 355.058594 L 237.855469 355.058594 L 237.855469 374.9375 L 205.457031 374.9375 Z M 205.457031 355.058594 " clip-rule="nonzero"/></clipPath><clipPath id="4817bb0fad"><path d="M 205.457031 371 L 237.855469 371 L 237.855469 374.9375 L 205.457031 374.9375 Z M 205.457031 371 " clip-rule="nonzero"/></clipPath><clipPath id="5552398abc"><path d="M 222.511719 218.832031 L 293.015625 218.832031 L 293.015625 260 L 222.511719 260 Z M 222.511719 218.832031 " clip-rule="nonzero"/></clipPath><clipPath id="59fc83d5a6"><path d="M 222.511719 255 L 293.015625 255 L 293.015625 260 L 222.511719 260 Z M 222.511719 255 " clip-rule="nonzero"/></clipPath><clipPath id="34fa8cbd28"><path d="M 222.511719 218.832031 L 293 218.832031 L 293 231.601562 L 222.511719 231.601562 Z M 222.511719 218.832031 " clip-rule="nonzero"/></clipPath></defs><path fill="#faa284" d="M 136.285156 148.570312 L 136.199219 148.539062 L 136.140625 148.511719 L 136.007812 148.449219 L 135.925781 148.417969 L 135.882812 148.402344 C 135.773438 148.359375 135.382812 148.191406 134.855469 147.894531 L 134.65625 147.78125 L 134.59375 147.742188 L 134.402344 147.625 C 134.230469 147.523438 134.070312 147.417969 133.921875 147.3125 L 133.746094 147.191406 L 133.703125 147.164062 L 133.648438 147.125 L 133.546875 147.046875 C 132.898438 146.566406 132.394531 146.082031 132.023438 145.59375 C 131.683594 145.152344 131.449219 144.667969 131.289062 144.078125 L 131.269531 144.015625 C 131.046875 143.335938 130.964844 142.605469 131.027344 141.832031 L 131.03125 141.785156 L 131.03125 141.738281 C 131.039062 139.480469 131.554688 136.3125 132.652344 131.761719 L 133.132812 129.761719 L 133.238281 129.320312 C 137.160156 113.089844 141.214844 96.300781 144.273438 90.914062 L 144.285156 90.894531 L 144.296875 90.878906 L 144.347656 90.789062 L 144.410156 90.683594 C 144.476562 90.566406 144.550781 90.457031 144.621094 90.351562 C 146.011719 88.164062 148.253906 86.730469 150.785156 86.402344 C 151.886719 86.257812 153.042969 86.335938 154.128906 86.628906 C 154.394531 86.703125 154.664062 86.785156 154.929688 86.886719 C 158.40625 88.195312 160.640625 91.578125 160.488281 95.296875 L 160.480469 95.480469 L 160.527344 95.65625 L 160.582031 95.851562 C 159.824219 98.628906 159.050781 101.609375 158.230469 104.761719 C 153.558594 122.757812 147.160156 147.40625 138.84375 148.488281 L 138.816406 148.492188 L 138.765625 148.5 L 138.683594 148.515625 L 138.480469 148.546875 L 138.132812 148.605469 C 137.875 148.640625 137.578125 148.648438 137.207031 148.632812 L 137.070312 148.628906 C 136.773438 148.628906 136.488281 148.625 136.285156 148.570312 " fill-opacity="1" fill-rule="nonzero"/><path fill="#cccccc" d="M 152.359375 129.738281 C 156.050781 118.957031 159.09375 105.855469 161.835938 95.84375 C 161.796875 95.671875 161.738281 95.515625 161.695312 95.347656 C 161.867188 91.238281 159.414062 87.289062 155.355469 85.757812 C 153.851562 85.191406 152.214844 85 150.632812 85.207031 C 147.699219 85.585938 145.15625 87.257812 143.613281 89.691406 C 143.527344 89.8125 143.445312 89.941406 143.363281 90.078125 C 143.320312 90.160156 143.265625 90.234375 143.226562 90.320312 C 140.40625 95.28125 136.832031 109.382812 133.292969 123.964844 C 138.382812 125.785156 146.09375 128.371094 152.359375 129.738281 " fill-opacity="1" fill-rule="nonzero"/><path fill="#faa284" d="M 104.496094 108.378906 C 104.496094 108.378906 104.660156 104.445312 103.476562 101.511719 C 103.03125 100.40625 100.910156 98.8125 98.539062 97.566406 L 93.230469 94.527344 C 93.230469 94.527344 91.332031 93.5 90.246094 94.820312 C 89.253906 96.019531 90.347656 97.050781 90.347656 97.050781 C 90.347656 97.050781 88.613281 96.574219 87.828125 97.738281 C 86.996094 98.964844 88.023438 100.304688 88.023438 100.304688 C 88.023438 100.304688 87.160156 100.273438 86.484375 101.578125 C 85.933594 102.652344 86.589844 103.746094 86.589844 103.746094 C 86.589844 103.746094 86.070312 104.371094 85.886719 105.046875 C 85.589844 106.125 86.34375 107.519531 86.34375 107.519531 C 86.34375 107.519531 89.96875 111.710938 97.230469 115.3125 C 97.230469 115.3125 106.230469 117.71875 104.496094 108.378906 " fill-opacity="1" fill-rule="nonzero"/><path fill="#ef8d72" d="M 98.5 97.925781 L 93.199219 95.019531 L 90.347656 97.050781 L 88.023438 100.304688 L 86.589844 103.746094 L 86.605469 107.28125 C 87.238281 108.238281 90.5 110.382812 90.5 110.382812 C 94.539062 106.683594 98.558594 107.980469 98.558594 107.980469 C 95.71875 103.578125 98.5 97.925781 98.5 97.925781 " fill-opacity="1" fill-rule="nonzero"/><g clip-path="url(#dc75562cd1)"><path fill="#725e41" d="M 91.453125 123.386719 C 90.890625 125.464844 88.53125 126.640625 86.113281 125.984375 C 83.695312 125.332031 82.25 123.132812 82.8125 121.050781 L 98.019531 64.925781 C 98.582031 62.84375 100.9375 61.671875 103.355469 62.324219 C 105.777344 62.980469 107.222656 65.179688 106.65625 67.261719 L 91.453125 123.386719 " fill-opacity="1" fill-rule="nonzero"/></g><path fill="#c1c1c1" d="M 110.597656 57.71875 C 110.386719 57.585938 110.082031 57.550781 109.820312 57.480469 L 100.074219 54.84375 C 99.222656 54.617188 98.589844 54.78125 98.179688 55.28125 L 88.4375 51.382812 L 85.675781 61.574219 L 95.816406 63.078125 L 95.722656 63.078125 C 95.507812 63.882812 96.089844 64.796875 97.15625 65.085938 L 106.902344 67.714844 C 107.96875 68.003906 109.019531 67.535156 109.242188 66.730469 L 110.46875 62.648438 C 119.167969 64.363281 120.535156 69.824219 120.535156 69.824219 L 121.105469 67.71875 C 120.558594 61.582031 113.101562 58.582031 110.597656 57.71875 " fill-opacity="1" fill-rule="nonzero"/><path fill="#594d41" d="M 88.605469 52.386719 C 88.757812 51.832031 88.429688 51.261719 87.875 51.109375 L 87.828125 51.097656 C 87.273438 50.949219 86.699219 51.273438 86.546875 51.832031 L 84.085938 60.914062 C 83.9375 61.46875 84.265625 62.042969 84.824219 62.191406 L 84.867188 62.207031 C 85.421875 62.355469 85.996094 62.027344 86.144531 61.46875 L 88.605469 52.386719 " fill-opacity="1" fill-rule="nonzero"/><path fill="#faa284" d="M 90.792969 108.605469 C 91.5 108.578125 91.859375 108.371094 92.023438 107.691406 C 92.1875 107.007812 91.988281 106.40625 91.222656 106.121094 C 91.222656 106.121094 92.6875 106.441406 93.179688 104.90625 C 93.675781 103.371094 92.5 103.058594 92.234375 102.964844 C 92.234375 102.964844 93.6875 103.445312 94.316406 101.816406 C 94.949219 100.1875 93.5 99.746094 93.5 99.746094 C 93.5 99.746094 94.550781 100.121094 95.230469 99.035156 C 95.90625 97.953125 94.941406 97.113281 94.34375 96.757812 C 93.75 96.398438 90.1875 94.480469 90.1875 94.480469 C 90.1875 94.480469 90.160156 94.304688 90.128906 94.050781 C 89.769531 93.960938 87.96875 93.523438 87.253906 94.867188 C 86.523438 96.242188 87.800781 97.035156 87.800781 97.035156 C 87.800781 97.035156 86.003906 96.914062 85.464844 98.210938 C 84.898438 99.582031 86.167969 100.683594 86.167969 100.683594 C 86.167969 100.683594 85.320312 100.828125 84.917969 102.242188 C 84.589844 103.40625 85.449219 104.34375 85.449219 104.34375 C 85.449219 104.34375 85.066406 105.058594 85.015625 105.757812 C 84.941406 106.878906 86.289062 108.21875 86.289062 108.21875 C 86.289062 108.21875 86.464844 107.917969 87.226562 108.101562 C 87.992188 108.285156 90.089844 108.628906 90.792969 108.605469 " fill-opacity="1" fill-rule="nonzero"/><path fill="#ef8d72" d="M 85.449219 104.34375 C 85.449219 104.34375 87.964844 105.417969 91.222656 106.121094 C 91.222656 106.121094 86.507812 104.519531 85.449219 104.34375 " fill-opacity="1" fill-rule="nonzero"/><path fill="#ef8d72" d="M 86.167969 100.683594 C 86.167969 100.683594 89.390625 102.339844 92.234375 102.964844 C 92.234375 102.964844 87.824219 101.0625 86.167969 100.683594 " fill-opacity="1" fill-rule="nonzero"/><path fill="#ef8d72" d="M 87.800781 97.035156 C 87.800781 97.035156 90.375 98.8125 93.5 99.746094 C 93.5 99.746094 89.59375 97.699219 87.800781 97.035156 " fill-opacity="1" fill-rule="nonzero"/><path fill="#faa284" d="M 98.214844 102.339844 C 98.214844 102.339844 100.21875 105.378906 101.992188 104.351562 C 103.769531 103.324219 103.417969 101.382812 102.535156 100.304688 C 101.367188 99.191406 99.578125 97.925781 98.386719 95.714844 C 97.25 93.59375 97.382812 92.773438 96.9375 92.875 C 94.992188 93.328125 93.480469 94.980469 98.214844 102.339844 " fill-opacity="1" fill-rule="nonzero"/><path fill="#faa284" d="M 98.640625 115.117188 C 100.121094 113.339844 101.453125 112.351562 103.300781 110.464844 C 103.59375 110.167969 103.847656 109.90625 104.066406 109.6875 C 108.207031 111.765625 115.589844 116.214844 133.183594 128.507812 C 136.472656 130.808594 138.324219 133.289062 140.113281 134.910156 C 141.511719 136.179688 142.582031 137.5 143.296875 138.835938 L 143.324219 138.890625 L 143.359375 138.9375 C 144.4375 140.546875 144.726562 142.542969 144.148438 144.417969 L 144.144531 144.441406 L 144.136719 144.460938 C 144.089844 144.636719 144.042969 144.789062 144 144.914062 C 143.964844 145.003906 143.9375 145.074219 143.914062 145.132812 L 143.84375 145.226562 L 143.789062 145.339844 C 143.664062 145.597656 143.507812 145.898438 143.316406 146.167969 C 143.210938 146.324219 142.960938 146.679688 142.472656 147.152344 L 142.371094 147.242188 C 141.519531 148.066406 140.511719 148.578125 139.351562 148.785156 C 138.410156 148.972656 137.496094 148.964844 136.597656 148.761719 L 136.546875 148.746094 C 136.359375 148.714844 136.203125 148.679688 136.082031 148.65625 L 136.054688 148.648438 L 136.015625 148.632812 L 135.804688 148.523438 L 135.714844 148.484375 C 135.1875 148.28125 134.691406 148.007812 134.238281 147.675781 L 134.195312 147.644531 L 134.144531 147.617188 C 121.863281 140.210938 102.730469 121.285156 98.640625 115.117188 " fill-opacity="1" fill-rule="nonzero"/><path fill="#ee8c72" d="M 210.285156 367.746094 L 221.351562 367.746094 L 221.351562 339.902344 L 210.285156 339.902344 Z M 210.285156 367.746094 " fill-opacity="1" fill-rule="nonzero"/><g clip-path="url(#b0b9061553)"><path fill="#1e1c1b" d="M 205.78125 374.9375 C 205.78125 374.9375 206.433594 365.476562 207.867188 360.851562 C 207.867188 360.851562 212.332031 361.109375 213.613281 359.515625 C 214.890625 357.914062 222.445312 351.027344 225.921875 359.488281 L 228.429688 364.191406 C 228.429688 364.191406 240.246094 360.574219 236.472656 374.9375 L 205.78125 374.9375 " fill-opacity="1" fill-rule="nonzero"/></g><g clip-path="url(#4817bb0fad)"><path fill="#35312f" d="M 236.46875 374.9375 L 205.78125 374.9375 C 205.78125 374.9375 205.902344 373.027344 206.152344 371.113281 L 237.175781 371.113281 C 237.101562 372.066406 236.882812 373.375 236.46875 374.9375 " fill-opacity="1" fill-rule="nonzero"/></g><path fill="#ee8c72" d="M 168.652344 367.746094 L 179.714844 367.746094 L 179.714844 339.902344 L 168.652344 339.902344 Z M 168.652344 367.746094 " fill-opacity="1" fill-rule="nonzero"/><path fill="#1e1c1b" d="M 165.382812 356.367188 C 165.382812 356.367188 159.261719 361.800781 148.734375 365.339844 C 148.734375 365.339844 129.773438 359.347656 134.789062 374.375 L 184.140625 374.375 C 184.140625 374.375 185.800781 363.660156 182.539062 356.472656 C 182.539062 356.472656 181.320312 355.921875 179.546875 357.578125 C 177.773438 359.242188 171.914062 360.207031 168.984375 359.265625 C 168.984375 359.265625 167.324219 355.816406 165.382812 356.367188 " fill-opacity="1" fill-rule="nonzero"/><path fill="#35312f" d="M 184.492188 370.84375 C 184.375 373.054688 184.140625 374.378906 184.140625 374.378906 L 134.789062 374.378906 C 134.3125 372.945312 134.050781 371.726562 133.976562 370.84375 L 184.492188 370.84375 " fill-opacity="1" fill-rule="nonzero"/><path fill="#e2e2e2" d="M 217.878906 130.511719 C 218.484375 122.085938 223.683594 110.367188 227.390625 101.242188 C 230.800781 100.402344 233.332031 97.335938 233.332031 93.675781 C 233.332031 89.363281 227.472656 86.460938 223.386719 85.070312 C 222.167969 84.65625 221.132812 84.367188 220.253906 84.179688 C 209.863281 78.949219 193.546875 78.949219 193.546875 78.949219 L 172.007812 79.5 C 172.007812 79.5 160.511719 80.015625 147.1875 86.214844 C 147.1875 86.214844 147.617188 97.066406 147.730469 106.613281 C 147.800781 112.398438 152.664062 145.335938 152.519531 153.449219 C 153.082031 159.191406 152.425781 173.875 151.808594 182.878906 C 151.796875 182.996094 151.855469 183.105469 151.953125 183.210938 C 152.632812 184.917969 167.25 186.28125 185.195312 186.28125 C 202.941406 186.28125 217.4375 184.949219 218.414062 183.269531 L 218.46875 183.265625 L 218.46875 183.089844 C 218.550781 177.433594 216.632812 162.78125 216.824219 157.308594 C 217.136719 148.375 217.242188 139.429688 217.878906 130.511719 " fill-opacity="1" fill-rule="nonzero"/><path fill="#ee8c72" d="M 182.386719 90.820312 C 189.957031 90.660156 196.636719 85.628906 196.976562 80.378906 C 190.054688 79.671875 183.984375 80.339844 183.984375 80.339844 L 182.402344 80.367188 C 182.402344 80.367188 176.195312 80.023438 168.382812 81.265625 C 169.125 86.367188 174.945312 90.972656 182.386719 90.820312 " fill-opacity="1" fill-rule="nonzero"/><path fill="#ee8c72" d="M 189.425781 83.308594 L 174.726562 83.308594 L 174.726562 68.289062 L 189.425781 68.289062 L 189.425781 83.308594 " fill-opacity="1" fill-rule="nonzero"/><path fill="#dd725e" d="M 174.726562 70.335938 L 174.726562 74.558594 C 177.753906 75.460938 183.890625 77.082031 189.425781 77.183594 L 189.425781 70.335938 L 174.726562 70.335938 " fill-opacity="1" fill-rule="nonzero"/><path fill="#aa2222" d="M 170.792969 294.890625 C 170.707031 294.890625 170.617188 294.890625 170.523438 294.890625 C 162.0625 294.742188 155.292969 287.75 155.4375 279.289062 L 155.4375 279.230469 L 150.980469 192.25 L 150.847656 189.652344 L 151.296875 189.65625 C 152.683594 181.066406 160.050781 174.648438 169.011719 174.648438 C 169.160156 174.648438 169.304688 174.648438 169.449219 174.648438 C 174.246094 174.761719 178.710938 176.742188 182.027344 180.203125 C 185.339844 183.675781 187.097656 188.21875 186.984375 193.011719 C 186.984375 193.257812 186.960938 193.503906 186.9375 193.757812 L 186.921875 193.90625 L 186.105469 278.515625 C 186.140625 278.996094 186.152344 279.410156 186.148438 279.816406 C 186 288.132812 179.117188 294.890625 170.792969 294.890625 " fill-opacity="1" fill-rule="nonzero"/><path fill="#aa2222" d="M 185.492188 355.691406 C 183.523438 358.597656 177.492188 359.695312 172.191406 359.695312 C 167.675781 359.695312 162.421875 358.882812 159.851562 356.703125 C 159.851562 356.703125 158.261719 355.515625 158.261719 353.117188 L 155.566406 281.511719 C 155.46875 280.707031 155.425781 279.976562 155.4375 279.289062 C 155.578125 270.972656 162.46875 264.214844 170.785156 264.214844 C 170.878906 264.214844 170.96875 264.214844 171.054688 264.214844 C 179.523438 264.363281 186.292969 271.367188 186.148438 279.816406 L 186.328125 352.390625 C 186.328125 352.390625 186.335938 354.773438 185.492188 355.691406 " fill-opacity="1" fill-rule="nonzero"/><path fill="#961e1e" d="M 172.191406 359.695312 C 167.675781 359.695312 162.421875 358.882812 159.851562 356.703125 C 159.851562 356.703125 158.261719 355.515625 158.261719 353.117188 L 155.578125 281.65625 C 156.597656 289.019531 162.863281 294.761719 170.523438 294.890625 C 170.617188 294.890625 170.707031 294.890625 170.792969 294.890625 C 179.117188 294.890625 186 288.132812 186.148438 279.816406 L 186.328125 352.390625 C 186.328125 352.390625 186.335938 354.773438 185.492188 355.691406 C 183.523438 358.597656 177.492188 359.695312 172.191406 359.695312 " fill-opacity="1" fill-rule="nonzero"/><path fill="#aa2222" d="M 210.648438 294.566406 C 202.480469 294.566406 195.75 288.191406 195.316406 280.046875 L 195.316406 280.09375 L 195.316406 279.976562 L 184.742188 193.535156 L 184.417969 190.929688 L 184.871094 190.914062 C 185.699219 182.164062 192.90625 175.101562 201.921875 174.683594 C 202.207031 174.671875 202.488281 174.660156 202.773438 174.660156 C 212.378906 174.660156 220.257812 182.171875 220.703125 191.765625 C 220.722656 192.019531 220.710938 192.253906 220.710938 192.5 L 220.710938 192.660156 L 225.859375 277.125 C 225.921875 277.597656 225.96875 278.019531 225.984375 278.40625 C 226.4375 286.859375 219.921875 294.09375 211.464844 294.542969 C 211.191406 294.5625 210.914062 294.566406 210.648438 294.566406 " fill-opacity="1" fill-rule="nonzero"/><path fill="#aa2222" d="M 230.648438 356.230469 C 228.890625 359.28125 222.953125 360.789062 217.667969 361.164062 C 216.785156 361.226562 215.027344 361.257812 215.027344 361.257812 C 212.777344 361.257812 207.828125 361.019531 205.136719 359.046875 C 205.136719 359.046875 203.558594 358.066406 203.3125 355.578125 L 195.609375 282.238281 C 195.445312 281.449219 195.355469 280.738281 195.316406 280.046875 C 195.101562 275.957031 196.492188 272.023438 199.226562 268.980469 C 201.976562 265.933594 205.734375 264.132812 209.832031 263.917969 C 210.117188 263.902344 210.382812 263.894531 210.660156 263.894531 C 218.828125 263.894531 225.554688 270.269531 225.984375 278.414062 L 231.324219 353.839844 C 231.324219 353.839844 231.21875 355.449219 230.648438 356.230469 " fill-opacity="1" fill-rule="nonzero"/><path fill="#961e1e" d="M 215.027344 361.257812 C 212.777344 361.257812 207.828125 361.019531 205.136719 359.046875 C 205.136719 359.046875 203.558594 358.066406 203.3125 355.578125 L 195.621094 282.378906 C 197.078125 289.371094 203.28125 294.566406 210.648438 294.566406 C 210.914062 294.566406 211.191406 294.5625 211.464844 294.542969 C 219.921875 294.09375 226.4375 286.859375 225.984375 278.414062 L 231.324219 353.839844 C 231.324219 353.839844 231.21875 355.449219 230.648438 356.230469 C 228.890625 359.28125 222.953125 360.789062 217.667969 361.164062 C 216.785156 361.226562 215.027344 361.257812 215.027344 361.257812 " fill-opacity="1" fill-rule="nonzero"/><path fill="#aa2222" d="M 219.628906 180.828125 L 219.371094 136.5625 C 212.121094 136.136719 212.976562 117.832031 212.976562 117.832031 L 151.167969 117.832031 L 150.964844 184.359375 C 150.648438 189.046875 150.9375 197.890625 156.449219 204.539062 C 160.945312 209.972656 167.878906 212.726562 177.054688 212.726562 C 178.273438 212.726562 179.550781 212.675781 180.859375 212.574219 L 190.191406 212.574219 C 201.746094 212.574219 210.351562 211.476562 214.742188 206.136719 C 223.113281 198.035156 219.628906 180.828125 219.628906 180.828125 " fill-opacity="1" fill-rule="nonzero"/><path fill="#aa2222" d="M 208.285156 79.945312 C 208.285156 79.945312 203.597656 96.335938 202.105469 111.234375 L 209.351562 111.234375 C 209.351562 111.234375 213.402344 88.246094 215.746094 81.648438 L 208.285156 79.945312 " fill-opacity="1" fill-rule="nonzero"/><path fill="#b7b7b7" d="M 200.617188 112.941406 L 200.617188 116.980469 C 200.617188 118.390625 201.761719 119.53125 203.175781 119.535156 L 207.007812 119.535156 C 208.421875 119.53125 209.566406 118.390625 209.570312 116.980469 L 209.570312 112.941406 C 209.566406 111.527344 208.421875 110.386719 207.007812 110.382812 L 203.175781 110.382812 C 201.761719 110.386719 200.617188 111.527344 200.617188 112.941406 Z M 203.175781 121.664062 C 200.582031 121.664062 198.484375 119.566406 198.484375 116.980469 L 198.484375 112.941406 C 198.484375 110.351562 200.582031 108.253906 203.175781 108.253906 L 207.007812 108.253906 C 209.597656 108.253906 211.699219 110.351562 211.699219 112.941406 L 211.699219 116.980469 C 211.699219 119.566406 209.597656 121.664062 207.007812 121.664062 L 203.175781 121.664062 " fill-opacity="1" fill-rule="nonzero"/><path fill="#aa2222" d="M 155.859375 82.074219 L 162.253906 80.648438 C 162.253906 80.648438 162.464844 104.636719 163.105469 110.597656 L 156.710938 110.597656 C 156.710938 110.597656 154.792969 92.714844 155.859375 82.074219 " fill-opacity="1" fill-rule="nonzero"/><path fill="#b7b7b7" d="M 161.773438 110.28125 L 157.945312 110.5 C 156.582031 110.578125 155.53125 111.707031 155.53125 113.046875 L 155.539062 113.195312 L 155.769531 117.234375 C 155.839844 118.589844 156.976562 119.640625 158.320312 119.640625 L 158.46875 119.640625 L 162.296875 119.417969 C 163.65625 119.34375 164.710938 118.210938 164.710938 116.867188 L 164.707031 116.71875 L 164.703125 116.71875 L 164.472656 112.6875 C 164.398438 111.328125 163.265625 110.277344 161.917969 110.277344 Z M 153.640625 117.355469 L 153.410156 113.320312 C 153.402344 113.234375 153.398438 113.140625 153.398438 113.046875 C 153.398438 110.578125 155.328125 108.519531 157.824219 108.375 L 161.644531 108.15625 C 161.738281 108.152344 161.828125 108.148438 161.917969 108.148438 C 164.390625 108.148438 166.453125 110.074219 166.601562 112.566406 L 166.832031 116.597656 L 165.769531 116.660156 L 166.832031 116.597656 C 166.835938 116.691406 166.839844 116.78125 166.839844 116.867188 C 166.839844 119.335938 164.914062 121.398438 162.417969 121.546875 L 158.589844 121.765625 C 158.496094 121.769531 158.40625 121.769531 158.320312 121.769531 C 155.847656 121.769531 153.78125 119.84375 153.640625 117.355469 " fill-opacity="1" fill-rule="nonzero"/><path fill="#1e1c1b" d="M 149.085938 173.574219 C 149.015625 176.195312 148.929688 178.394531 148.832031 179.941406 C 148.582031 183.738281 195.25 181.496094 221.605469 180.914062 C 221.652344 178.5 221.347656 175.824219 221.492188 173.085938 C 199.824219 174.679688 159.054688 173.8125 149.085938 173.574219 " fill-opacity="1" fill-rule="nonzero"/><path fill="#35312f" d="M 150.789062 173.574219 C 150.71875 176.195312 150.636719 178.394531 150.535156 179.941406 C 150.3125 183.320312 185.507812 181.917969 212.210938 181.15625 L 212.210938 173.601562 C 189.710938 174.457031 159.417969 173.785156 150.789062 173.574219 " fill-opacity="1" fill-rule="nonzero"/><path fill="#aa2222" d="M 204.691406 181.789062 L 200.707031 181.789062 L 200.707031 173.558594 L 204.691406 173.558594 L 204.691406 181.789062 " fill-opacity="1" fill-rule="nonzero"/><path fill="#aa2222" d="M 164.710938 182.515625 L 160.730469 182.515625 L 160.730469 173.46875 L 164.710938 173.46875 L 164.710938 182.515625 " fill-opacity="1" fill-rule="nonzero"/><path fill="#b7b7b7" d="M 176.886719 181.160156 L 188.921875 181.160156 L 188.921875 174.824219 L 176.886719 174.824219 Z M 189.988281 182.222656 L 189.988281 181.160156 Z M 174.757812 183.292969 L 174.757812 172.695312 L 191.050781 172.695312 L 191.050781 183.292969 L 174.757812 183.292969 " fill-opacity="1" fill-rule="nonzero"/><path fill="#472004" d="M 162.414062 43.070312 C 162.414062 43.070312 160.082031 33.132812 161.777344 25.515625 L 168.9375 19.492188 L 162.414062 43.070312 " fill-opacity="1" fill-rule="nonzero"/><path fill="#ee8c72" d="M 165.714844 40.421875 C 165.714844 40.421875 158.65625 37.945312 158.65625 44.992188 C 158.65625 52.042969 165.714844 49.945312 165.714844 49.945312 L 165.714844 40.421875 " fill-opacity="1" fill-rule="nonzero"/><path fill="#f7a184" d="M 200.558594 40.421875 C 200.558594 40.421875 207.621094 37.945312 207.621094 44.992188 C 207.621094 52.042969 200.558594 49.945312 200.558594 49.945312 L 200.558594 40.421875 " fill-opacity="1" fill-rule="nonzero"/><path fill="#f7a184" d="M 201.230469 52.832031 C 201.230469 64.375 192.53125 73.730469 181.804688 73.730469 C 171.066406 73.730469 162.375 64.375 162.375 52.832031 L 162.375 34.304688 C 162.375 22.757812 171.066406 13.410156 181.804688 13.410156 C 192.53125 13.410156 201.230469 22.757812 201.230469 34.304688 L 201.230469 52.832031 " fill-opacity="1" fill-rule="nonzero"/><path fill="#ee8c72" d="M 201.121094 32.105469 C 200.105469 21.601562 191.839844 13.410156 181.804688 13.410156 C 172.496094 13.410156 164.722656 20.441406 162.820312 29.839844 C 169.671875 29.550781 187.128906 29.214844 201.121094 32.105469 " fill-opacity="1" fill-rule="nonzero"/><path fill="#ee8c72" d="M 171.707031 23.96875 C 171.707031 23.96875 175.679688 24.820312 176.820312 25.667969 C 176.910156 25.738281 179.710938 24.386719 179.992188 24.296875 C 181.265625 23.875 182.515625 23.621094 183.867188 23.664062 C 185.742188 23.714844 187.558594 24.28125 189.390625 24.597656 C 193.464844 25.292969 197.691406 26.261719 200.671875 29.339844 C 198.597656 20.191406 190.941406 13.410156 181.804688 13.410156 C 173.285156 13.410156 166.050781 19.300781 163.425781 27.507812 C 165.40625 25.484375 168.613281 22.992188 171.707031 23.96875 " fill-opacity="1" fill-rule="nonzero"/><path fill="#ee8c72" d="M 198.796875 24.179688 C 199.949219 26.855469 200.617188 29.820312 200.617188 32.96875 L 200.617188 51.503906 C 200.617188 63.042969 191.917969 72.398438 181.183594 72.398438 C 173.867188 72.398438 167.511719 68.050781 164.191406 61.625 C 167.28125 68.765625 173.996094 73.734375 181.804688 73.734375 C 192.53125 73.734375 201.230469 64.378906 201.230469 52.835938 L 201.230469 34.300781 C 201.230469 30.625 200.34375 27.179688 198.796875 24.179688 " fill-opacity="1" fill-rule="nonzero"/><path fill="#472004" d="M 199.46875 48.566406 C 199.46875 48.566406 201.582031 46.242188 202.429688 42.433594 C 203.269531 38.625 208.144531 33.339844 207.507812 28.265625 C 207.507812 28.265625 209.839844 23.617188 204.125 19.386719 C 199.496094 15.960938 199.886719 12.199219 197.132812 9.660156 C 194.386719 7.125 184.222656 1.839844 174.269531 6.488281 C 174.269531 6.488281 170.03125 8.808594 168.765625 11.355469 C 168.765625 11.355469 170.671875 5.011719 175.328125 3.53125 C 175.328125 3.53125 158.816406 4.796875 161.777344 26.789062 L 161.667969 31.96875 C 161.667969 31.96875 163.472656 16.847656 177.445312 22.136719 C 177.445312 22.136719 189.9375 18.121094 197.132812 25.945312 C 197.132812 25.945312 198.191406 28.265625 197.769531 33.976562 L 198.828125 32.28125 C 198.828125 32.28125 199.042969 39.265625 199.46875 48.566406 " fill-opacity="1" fill-rule="nonzero"/><path fill="#3d1a01" d="M 170.773438 46.855469 C 170.773438 48.332031 170.179688 49.527344 169.453125 49.527344 C 168.714844 49.527344 168.125 48.332031 168.125 46.855469 C 168.125 45.375 168.714844 44.183594 169.453125 44.183594 C 170.179688 44.183594 170.773438 45.375 170.773438 46.855469 " fill-opacity="1" fill-rule="nonzero"/><path fill="#3d1a01" d="M 188.949219 46.855469 C 188.949219 48.332031 188.351562 49.527344 187.617188 49.527344 C 186.890625 49.527344 186.292969 48.332031 186.292969 46.855469 C 186.292969 45.375 186.890625 44.183594 187.617188 44.183594 C 188.351562 44.183594 188.949219 45.375 188.949219 46.855469 " fill-opacity="1" fill-rule="nonzero"/><path fill="#d24646" d="M 173.542969 57.878906 L 186.152344 57.878906 C 186.152344 57.878906 187.398438 57.84375 186.503906 59.765625 C 185.941406 60.976562 184.410156 63.5 180.0625 63.613281 C 174.898438 63.75 173.121094 59.652344 173.121094 59.652344 C 173.121094 59.652344 172.269531 57.878906 173.542969 57.878906 " fill-opacity="1" fill-rule="nonzero"/><path fill="#ffffff" d="M 186.714844 59.230469 C 187.144531 57.847656 186.152344 57.878906 186.152344 57.878906 L 173.542969 57.878906 C 172.59375 57.878906 172.828125 58.867188 173.003906 59.375 C 175.433594 60.003906 180.386719 60.78125 186.714844 59.230469 " fill-opacity="1" fill-rule="nonzero"/><path fill="#6d320a" d="M 189.890625 41.332031 C 189.058594 41.058594 188.191406 40.925781 187.324219 40.925781 C 186.460938 40.925781 185.59375 41.058594 184.761719 41.332031 C 184.453125 41.433594 184.117188 41.261719 184.019531 40.953125 C 183.917969 40.648438 184.089844 40.316406 184.398438 40.214844 C 185.347656 39.902344 186.335938 39.75 187.324219 39.75 C 188.316406 39.75 189.304688 39.902344 190.253906 40.214844 C 190.5625 40.316406 190.734375 40.648438 190.632812 40.953125 C 190.550781 41.203125 190.320312 41.363281 190.070312 41.363281 L 189.890625 41.332031 " fill-opacity="1" fill-rule="nonzero"/><path fill="#6d320a" d="M 164.667969 40.953125 C 164.566406 40.648438 164.738281 40.316406 165.046875 40.214844 C 166 39.902344 166.988281 39.75 167.972656 39.75 C 168.964844 39.75 169.953125 39.902344 170.902344 40.214844 C 171.214844 40.316406 171.378906 40.648438 171.28125 40.953125 C 171.183594 41.261719 170.847656 41.433594 170.539062 41.332031 C 169.707031 41.058594 168.839844 40.925781 167.972656 40.925781 C 167.109375 40.925781 166.246094 41.058594 165.414062 41.332031 L 165.230469 41.363281 C 164.984375 41.363281 164.75 41.203125 164.667969 40.953125 " fill-opacity="1" fill-rule="nonzero"/><path fill="#ee8c72" d="M 197.9375 53.003906 C 197.9375 53.910156 195.914062 54.644531 193.421875 54.644531 C 190.929688 54.644531 188.90625 53.910156 188.90625 53.003906 C 188.90625 52.097656 190.929688 51.363281 193.421875 51.363281 C 195.914062 51.363281 197.9375 52.097656 197.9375 53.003906 " fill-opacity="1" fill-rule="nonzero"/><path fill="#ee8c72" d="M 170.539062 53.003906 C 170.539062 53.527344 169.367188 53.953125 167.921875 53.953125 C 166.480469 53.953125 165.3125 53.527344 165.3125 53.003906 C 165.3125 52.480469 166.480469 52.054688 167.921875 52.054688 C 169.367188 52.054688 170.539062 52.480469 170.539062 53.003906 " fill-opacity="1" fill-rule="nonzero"/><path fill="#6d320a" d="M 177.226562 53.84375 C 177.226562 53.84375 186.960938 48.984375 191.007812 58.671875 C 191.007812 58.671875 186.746094 61.792969 177.511719 55.972656 L 177.226562 53.84375 " fill-opacity="1" fill-rule="nonzero"/><path fill="#6d320a" d="M 178.789062 53.84375 C 178.789062 53.84375 169.800781 49.835938 168.417969 58.671875 C 168.417969 58.671875 171.625 61.792969 178.574219 55.972656 L 178.789062 53.84375 " fill-opacity="1" fill-rule="nonzero"/><path fill="#ee8c72" d="M 177.628906 49.941406 C 177.628906 49.941406 174.597656 49.832031 174.597656 52.414062 C 174.597656 55 179.292969 54.335938 179.441406 52.414062 C 179.589844 50.496094 179.847656 36.304688 177.628906 49.941406 " fill-opacity="1" fill-rule="nonzero"/><path fill="#891313" d="M 207.199219 15.496094 C 197.375 1.929688 183.65625 1.707031 183.65625 1.707031 C 183.65625 1.707031 195.632812 7.796875 198.40625 14.273438 L 200.089844 29.484375 C 204.898438 30.625 207.941406 31.660156 207.941406 31.660156 C 209.023438 22.3125 207.199219 15.496094 207.199219 15.496094 " fill-opacity="1" fill-rule="nonzero"/><path fill="#cccccc" d="M 183.652344 1.707031 C 169.734375 3.019531 164.753906 8.449219 164.753906 8.449219 C 161.777344 12.542969 159.628906 28.6875 159.628906 28.6875 C 173.207031 24.179688 190.328125 27.171875 200.085938 29.484375 L 198.410156 14.273438 C 195.632812 7.796875 183.652344 1.707031 183.652344 1.707031 " fill-opacity="1" fill-rule="nonzero"/><path fill="#891313" d="M 185.898438 1.324219 C 185.890625 2.023438 184.851562 2.570312 183.582031 2.550781 C 182.308594 2.53125 181.289062 1.949219 181.300781 1.25 C 181.3125 0.550781 182.351562 0.00390625 183.621094 0.0234375 C 184.890625 0.0429688 185.910156 0.625 185.898438 1.324219 " fill-opacity="1" fill-rule="nonzero"/><path fill="#111111" d="M 186.613281 17.375 C 186.613281 21.652344 183.140625 25.117188 178.855469 25.117188 C 174.574219 25.117188 171.105469 21.652344 171.105469 17.375 C 171.105469 13.101562 174.574219 9.632812 178.855469 9.632812 C 183.140625 9.632812 186.613281 13.101562 186.613281 17.375 " fill-opacity="1" fill-rule="nonzero"/><path fill="#2b2b2b" d="M 182.691406 17.375 C 182.691406 22.230469 178.75 26.167969 173.882812 26.167969 C 169.027344 26.167969 165.082031 22.230469 165.082031 17.375 C 165.082031 12.519531 169.027344 8.589844 173.882812 8.589844 C 178.75 8.589844 182.691406 12.519531 182.691406 17.375 " fill-opacity="1" fill-rule="nonzero"/><path fill="#8ff4f9" d="M 180.929688 17.375 C 180.929688 21.261719 177.773438 24.410156 173.882812 24.410156 C 170 24.410156 166.847656 21.261719 166.847656 17.375 C 166.847656 13.492188 170 10.34375 173.882812 10.34375 C 177.773438 10.34375 180.929688 13.492188 180.929688 17.375 " fill-opacity="1" fill-rule="nonzero"/><path fill="#1b9393" d="M 179.503906 17.375 C 179.503906 20.214844 177.191406 22.519531 174.355469 22.519531 C 171.507812 22.519531 169.207031 20.214844 169.207031 17.375 C 169.207031 14.535156 171.507812 12.234375 174.355469 12.234375 C 177.191406 12.234375 179.503906 14.535156 179.503906 17.375 " fill-opacity="1" fill-rule="nonzero"/><path fill="#c8fafc" d="M 166.863281 17.070312 C 166.902344 16.160156 167.109375 15.300781 167.453125 14.519531 L 171.03125 10.957031 C 171.8125 10.605469 172.671875 10.394531 173.578125 10.359375 L 166.863281 17.070312 " fill-opacity="1" fill-rule="nonzero"/><path fill="#979797" d="M 167.105469 19.257812 C 167.101562 19.253906 167.101562 19.25 167.101562 19.242188 C 167.101562 19.25 167.101562 19.253906 167.105469 19.257812 M 175.398438 10.507812 C 175.398438 10.503906 175.394531 10.503906 175.390625 10.503906 C 175.394531 10.503906 175.398438 10.503906 175.398438 10.507812 " fill-opacity="1" fill-rule="nonzero"/><path fill="#c8fafc" d="M 167.5 20.335938 C 167.339844 19.988281 167.207031 19.628906 167.105469 19.257812 C 167.101562 19.253906 167.101562 19.25 167.101562 19.242188 C 167.066406 19.121094 167.035156 18.996094 167.011719 18.875 L 169.257812 16.625 C 169.222656 16.871094 169.207031 17.125 169.207031 17.375 C 169.207031 17.765625 169.25 18.144531 169.328125 18.511719 L 167.5 20.335938 M 175.488281 12.363281 C 175.121094 12.277344 174.742188 12.234375 174.355469 12.234375 C 174.097656 12.234375 173.84375 12.253906 173.601562 12.292969 L 175.390625 10.503906 C 175.394531 10.503906 175.398438 10.503906 175.398438 10.507812 C 175.902344 10.621094 176.390625 10.789062 176.84375 11 L 175.488281 12.363281 " fill-opacity="1" fill-rule="nonzero"/><path fill="#8fcaca" d="M 169.328125 18.511719 C 169.25 18.144531 169.207031 17.765625 169.207031 17.375 C 169.207031 17.125 169.222656 16.871094 169.257812 16.625 L 173.601562 12.292969 C 173.84375 12.253906 174.097656 12.234375 174.355469 12.234375 C 174.742188 12.234375 175.121094 12.277344 175.488281 12.363281 L 169.328125 18.511719 " fill-opacity="1" fill-rule="nonzero"/><path fill="#2b2b2b" d="M 178.859375 9.632812 C 178.359375 9.632812 177.875 9.679688 177.402344 9.769531 C 180.984375 10.453125 183.695312 13.597656 183.695312 17.375 C 183.695312 21.15625 180.984375 24.300781 177.402344 24.980469 C 177.875 25.074219 178.359375 25.121094 178.859375 25.121094 C 183.144531 25.121094 186.613281 21.652344 186.613281 17.375 C 186.613281 13.101562 183.144531 9.632812 178.859375 9.632812 " fill-opacity="1" fill-rule="nonzero"/><path fill="#dd3131" d="M 146.371094 21.8125 C 146.371094 21.8125 145.628906 18.722656 149.421875 17.691406 C 153.214844 16.660156 176.761719 13.816406 187.421875 20.070312 C 187.421875 20.070312 191.445312 22.144531 194.570312 24.601562 C 197.371094 26.800781 200.089844 29.484375 200.089844 29.484375 L 198.601562 29.550781 L 146.371094 21.8125 " fill-opacity="1" fill-rule="nonzero"/><path fill="#891313" d="M 159.632812 28.691406 C 159.632812 28.691406 137.476562 21.835938 149.988281 19.167969 C 162.5 16.492188 180.613281 17.441406 187.289062 21.21875 C 187.289062 21.21875 192.566406 23.796875 198.601562 29.550781 C 198.601562 29.550781 174.609375 25.3125 159.632812 28.691406 " fill-opacity="1" fill-rule="nonzero"/><path fill="#f7a184" d="M 245.101562 147.429688 C 244.691406 147.429688 244.308594 147.398438 243.964844 147.335938 C 243.414062 147.238281 242.914062 147.039062 242.394531 146.71875 L 242.371094 146.703125 L 242.34375 146.6875 C 241.714844 146.335938 241.15625 145.847656 240.679688 145.242188 L 240.652344 145.203125 L 240.625 145.171875 C 239.09375 143.503906 237.328125 140.816406 235.054688 136.730469 L 234.050781 134.933594 L 233.8125 134.507812 C 225.699219 119.925781 217.316406 104.839844 215.914062 98.808594 L 215.914062 98.785156 L 215.902344 98.761719 L 215.882812 98.664062 L 215.859375 98.550781 C 215.832031 98.425781 215.808594 98.292969 215.789062 98.167969 C 215.328125 95.609375 216.007812 93.039062 217.652344 91.085938 C 218.546875 90.015625 219.714844 89.171875 221.027344 88.640625 C 222.050781 88.230469 223.125 88.023438 224.226562 88.023438 C 226.769531 88.023438 229.171875 89.136719 230.820312 91.074219 L 230.9375 91.214844 L 231.09375 91.316406 L 231.265625 91.417969 C 232.585938 93.96875 234.035156 96.683594 235.566406 99.554688 C 244.332031 115.964844 256.335938 138.433594 250.945312 144.851562 L 250.929688 144.875 L 250.898438 144.914062 L 250.855469 144.976562 L 250.722656 145.140625 L 250.503906 145.425781 C 250.335938 145.625 250.125 145.832031 249.84375 146.066406 L 249.746094 146.152344 C 249.484375 146.386719 249.238281 146.609375 249.03125 146.679688 L 248.984375 146.695312 L 248.824219 146.746094 L 248.710938 146.792969 L 248.683594 146.808594 C 248.546875 146.859375 248.160156 146.988281 247.605469 147.117188 C 247.511719 147.140625 247.441406 147.152344 247.363281 147.171875 L 247.320312 147.175781 L 247.140625 147.21875 L 247.082031 147.226562 C 246.898438 147.261719 246.707031 147.296875 246.519531 147.320312 L 246.277344 147.351562 L 246.269531 147.351562 L 246.226562 147.359375 L 246.066406 147.378906 C 245.71875 147.414062 245.402344 147.429688 245.101562 147.429688 " fill-opacity="1" fill-rule="nonzero"/><path fill="#e2e2e2" d="M 232.183594 90.566406 C 232.035156 90.464844 231.886719 90.386719 231.742188 90.296875 C 229.082031 87.15625 224.601562 85.90625 220.574219 87.523438 C 219.082031 88.125 217.746094 89.089844 216.726562 90.3125 C 214.820312 92.574219 214.085938 95.519531 214.597656 98.355469 C 214.621094 98.503906 214.644531 98.652344 214.675781 98.808594 C 214.699219 98.898438 214.714844 98.992188 214.742188 99.082031 C 216.085938 104.890625 223.59375 118.605469 231.222656 132.335938 C 235.359375 130.09375 242.203125 126.296875 248.417969 122.460938 C 243.820312 111.894531 237.03125 99.945312 232.183594 90.566406 " fill-opacity="1" fill-rule="nonzero"/><g clip-path="url(#5552398abc)"><path fill="#d80000" d="M 292.289062 230.429688 C 289.199219 224.320312 283.1875 219.949219 276.085938 219.121094 L 222.535156 218.964844 L 222.535156 259.71875 L 291.5 259.765625 C 292.34375 259.765625 293.035156 259.082031 293.035156 258.230469 L 293.035156 231.738281 C 293.035156 231.183594 292.898438 231.421875 292.289062 230.429688 " fill-opacity="1" fill-rule="nonzero"/></g><g clip-path="url(#59fc83d5a6)"><path fill="#b50000" d="M 222.535156 255.117188 L 222.535156 259.71875 L 291.5 259.765625 C 292.34375 259.765625 293.035156 259.082031 293.035156 258.230469 L 293.035156 255.117188 L 222.535156 255.117188 " fill-opacity="1" fill-rule="nonzero"/></g><g clip-path="url(#34fa8cbd28)"><path fill="#c70000" d="M 292.289062 230.429688 C 289.199219 224.320312 283.1875 219.949219 276.085938 219.121094 L 222.535156 218.964844 L 222.535156 231.199219 L 292.847656 231.199219 C 292.734375 231.0625 292.558594 230.871094 292.289062 230.429688 " fill-opacity="1" fill-rule="nonzero"/></g><path fill="#b50000" d="M 241.039062 230.429688 C 237.597656 223.632812 230.550781 218.964844 222.398438 218.964844 C 214.25 218.964844 207.199219 223.632812 203.761719 230.429688 C 203.308594 231.0625 203.015625 231.183594 203.015625 231.738281 L 203.015625 258.230469 C 203.015625 259.082031 203.699219 259.765625 204.550781 259.765625 L 240.25 259.765625 C 241.097656 259.765625 241.785156 259.082031 241.785156 258.230469 L 241.785156 231.738281 C 241.785156 231.183594 241.652344 231.421875 241.039062 230.429688 " fill-opacity="1" fill-rule="nonzero"/><path fill="#a10000" d="M 203.015625 255.117188 L 203.015625 258.230469 C 203.015625 259.082031 203.699219 259.765625 204.550781 259.765625 L 240.25 259.765625 C 241.097656 259.765625 241.785156 259.082031 241.785156 258.230469 L 241.785156 255.117188 L 203.015625 255.117188 " fill-opacity="1" fill-rule="nonzero"/><path fill="#231f20" d="M 263.210938 231.199219 L 263.210938 238.960938 C 263.210938 239.808594 263.898438 240.492188 264.746094 240.492188 L 270.707031 240.492188 C 271.558594 240.492188 272.246094 239.808594 272.246094 238.960938 L 272.246094 231.199219 L 263.210938 231.199219 " fill-opacity="1" fill-rule="nonzero"/><path fill="#5e5d5e" d="M 263.933594 238.960938 L 263.933594 231.199219 L 263.210938 231.199219 L 263.210938 238.960938 C 263.210938 239.808594 263.898438 240.492188 264.746094 240.492188 L 265.46875 240.492188 C 264.621094 240.492188 263.933594 239.808594 263.933594 238.960938 " fill-opacity="1" fill-rule="nonzero"/><path fill="#231f20" d="M 271.046875 227.542969 C 270.597656 226.34375 270.359375 226.007812 269.511719 226.007812 L 263.546875 226.007812 C 262.699219 226.007812 262.011719 226.695312 262.011719 227.542969 L 263.21875 231.199219 L 272.257812 231.199219 L 271.046875 227.542969 " fill-opacity="1" fill-rule="nonzero"/><path fill="#3f3b3c" d="M 264.269531 226.007812 L 263.546875 226.007812 C 262.699219 226.007812 262.011719 226.695312 262.011719 227.542969 L 263.21875 231.199219 L 263.941406 231.199219 L 262.734375 227.542969 C 262.734375 226.695312 263.421875 226.007812 264.269531 226.007812 " fill-opacity="1" fill-rule="nonzero"/><path fill="#3f3b3c" d="M 269.261719 236.75 C 269.261719 237.398438 268.738281 237.921875 268.089844 237.921875 C 267.4375 237.921875 266.914062 237.398438 266.914062 236.75 C 266.914062 236.097656 267.4375 235.574219 268.089844 235.574219 C 268.738281 235.574219 269.261719 236.097656 269.261719 236.75 " fill-opacity="1" fill-rule="nonzero"/><path fill="#5e5d5e" d="M 268.089844 235.574219 C 268.011719 235.574219 267.933594 235.585938 267.863281 235.597656 C 268.402344 235.703125 268.8125 236.175781 268.8125 236.75 C 268.8125 237.320312 268.402344 237.796875 267.863281 237.898438 C 267.933594 237.914062 268.011719 237.921875 268.089844 237.921875 C 268.738281 237.921875 269.261719 237.398438 269.261719 236.75 C 269.261719 236.097656 268.738281 235.574219 268.089844 235.574219 " fill-opacity="1" fill-rule="nonzero"/><path fill="#949494" d="M 287.429688 206.671875 C 287.425781 204.660156 285.800781 203.035156 283.789062 203.03125 L 222.132812 203.03125 C 220.117188 203.035156 218.492188 204.660156 218.488281 206.671875 L 218.488281 233.183594 L 222.753906 233.183594 L 222.753906 207.289062 L 283.167969 207.289062 L 283.167969 221.277344 C 284.710938 222.066406 286.140625 223.042969 287.429688 224.175781 L 287.429688 206.671875 " fill-opacity="1" fill-rule="nonzero"/><path fill="#737373" d="M 225.910156 241.566406 C 225.910156 242.695312 224.996094 243.609375 223.867188 243.609375 L 218.402344 243.609375 C 217.273438 243.609375 216.363281 242.695312 216.363281 241.566406 L 216.363281 232.515625 C 216.363281 231.386719 217.273438 230.476562 218.402344 230.476562 L 223.867188 230.476562 C 224.996094 230.476562 225.910156 231.386719 225.910156 232.515625 L 225.910156 241.566406 " fill-opacity="1" fill-rule="nonzero"/><path fill="#2d2b2b" d="M 223.867188 230.476562 L 222.695312 230.476562 C 223.820312 230.476562 224.738281 231.386719 224.738281 232.515625 L 224.738281 241.566406 C 224.738281 242.695312 223.820312 243.609375 222.695312 243.609375 L 223.867188 243.609375 C 224.996094 243.609375 225.910156 242.695312 225.910156 241.566406 L 225.910156 232.515625 C 225.910156 231.386719 224.996094 230.476562 223.867188 230.476562 " fill-opacity="1" fill-rule="nonzero"/><path fill="#f7a184" d="M 250.671875 186.347656 C 246.628906 185.761719 245.007812 189.636719 245.007812 189.636719 C 245.007812 189.636719 240.171875 194.355469 239.832031 196.714844 C 239.390625 199.746094 236.859375 203.769531 236.859375 203.769531 C 236.859375 203.769531 239.8125 206.253906 242 201.226562 C 242 201.226562 241.578125 207.394531 243.382812 207.867188 C 243.382812 207.867188 244.367188 208.132812 245.542969 207.644531 C 245.542969 207.644531 247.03125 209.675781 249.144531 208.007812 C 249.144531 208.007812 251.160156 209.320312 252.414062 207.753906 C 252.414062 207.753906 253.632812 208.988281 254.90625 207.203125 C 256.210938 205.367188 256.316406 205.199219 257.53125 201.339844 C 257.53125 201.339844 258.449219 193.203125 255.636719 189.871094 C 255.636719 189.871094 254.714844 186.933594 250.671875 186.347656 " fill-opacity="1" fill-rule="nonzero"/><path fill="#faa284" d="M 253.988281 189.902344 C 251.683594 190.078125 250.042969 189.800781 247.398438 189.785156 C 246.988281 189.78125 246.617188 189.777344 246.3125 189.773438 C 244.9375 185.355469 243.019531 176.960938 239.671875 155.773438 C 239.042969 151.816406 239.550781 148.761719 239.476562 146.347656 C 239.421875 144.464844 239.628906 142.78125 240.097656 141.335938 L 240.117188 141.277344 L 240.128906 141.21875 C 240.535156 139.328125 241.777344 137.734375 243.527344 136.851562 L 243.546875 136.835938 L 243.566406 136.832031 C 243.726562 136.742188 243.871094 136.671875 243.988281 136.613281 C 244.078125 136.578125 244.148438 136.542969 244.207031 136.519531 L 244.320312 136.507812 L 244.445312 136.46875 C 244.71875 136.382812 245.042969 136.285156 245.371094 136.230469 C 245.550781 136.203125 245.984375 136.136719 246.660156 136.160156 L 246.796875 136.167969 C 247.984375 136.207031 249.050781 136.578125 250.007812 137.269531 C 250.796875 137.816406 251.421875 138.480469 251.898438 139.265625 L 251.910156 139.289062 L 251.929688 139.3125 C 252.03125 139.46875 252.121094 139.605469 252.183594 139.707031 L 252.195312 139.730469 L 252.210938 139.769531 C 252.234375 139.847656 252.253906 139.925781 252.28125 139.996094 L 252.296875 140.046875 L 252.316406 140.09375 C 252.535156 140.613281 252.683594 141.15625 252.753906 141.714844 L 252.761719 141.769531 L 252.777344 141.824219 C 255.960938 155.792969 255.597656 182.683594 253.988281 189.902344 " fill-opacity="1" fill-rule="nonzero"/></svg>