<svg xmlns="http://www.w3.org/2000/svg" xmlns:xlink="http://www.w3.org/1999/xlink" width="500" zoomAndPan="magnify" viewBox="0 0 375 374.999991" height="500" preserveAspectRatio="xMidYMid meet" version="1.0"><defs><clipPath id="4ef729b9a4"><path d="M 213 351 L 272 351 L 272 365.34375 L 213 365.34375 Z M 213 351 " clip-rule="nonzero"/></clipPath><clipPath id="38601b93f5"><path d="M 260 70 L 269 70 L 269 76 L 260 76 Z M 260 70 " clip-rule="nonzero"/></clipPath><clipPath id="dc9f9f5f4d"><path d="M 263.386719 75.894531 L 260.152344 73.671875 C 260.617188 73 261.675781 71.460938 262.273438 70.589844 C 262.386719 70.425781 262.53125 70.3125 262.726562 70.230469 C 262.921875 70.148438 263.171875 70.101562 263.46875 70.101562 C 263.46875 70.101562 263.472656 70.101562 263.476562 70.101562 C 264.117188 70.101562 264.957031 70.324219 265.832031 70.707031 C 266.824219 71.136719 267.867188 71.773438 268.773438 72.484375 C 268.140625 72.273438 267.546875 72.152344 267.03125 72.152344 C 266.363281 72.152344 265.820312 72.351562 265.507812 72.8125 C 264.910156 73.683594 263.851562 75.222656 263.386719 75.894531 " clip-rule="nonzero"/></clipPath></defs><path fill="#3da093" d="M 246.976562 325.71875 C 246.976562 330.355469 269.179688 334.109375 296.574219 334.109375 C 323.964844 334.109375 346.171875 330.355469 346.171875 325.71875 C 346.171875 321.085938 323.964844 317.335938 296.574219 317.335938 C 269.179688 317.335938 246.976562 321.085938 246.976562 325.71875 " fill-opacity="1" fill-rule="nonzero"/><g clip-path="url(#4ef729b9a4)"><path fill="#3da093" d="M 213.394531 358.535156 C 213.394531 362.175781 226.460938 365.128906 242.582031 365.128906 C 258.699219 365.128906 271.765625 362.175781 271.765625 358.535156 C 271.765625 354.894531 258.699219 351.945312 242.582031 351.945312 C 226.460938 351.945312 213.394531 354.894531 213.394531 358.535156 " fill-opacity="1" fill-rule="nonzero"/></g><path fill="#3da093" d="M 32.460938 317.335938 C 32.460938 321.96875 93.421875 325.722656 168.625 325.722656 C 243.820312 325.722656 304.78125 321.96875 304.78125 317.335938 C 304.78125 312.703125 243.820312 308.945312 168.625 308.945312 C 93.421875 308.945312 32.460938 312.703125 32.460938 317.335938 " fill-opacity="1" fill-rule="nonzero"/><path fill="#79c8b4" d="M 154.558594 49.792969 L 140.472656 49.792969 C 136.390625 49.792969 133.085938 46.5625 133.085938 42.574219 C 133.085938 38.589844 136.390625 35.355469 140.472656 35.355469 L 154.558594 35.355469 C 158.636719 35.355469 161.949219 38.589844 161.949219 42.574219 C 161.949219 46.5625 158.636719 49.792969 154.558594 49.792969 " fill-opacity="1" fill-rule="nonzero"/><path fill="#79c8b4" d="M 41.78125 49.792969 L 27.695312 49.792969 C 23.613281 49.792969 20.304688 46.5625 20.304688 42.574219 C 20.304688 38.589844 23.613281 35.355469 27.695312 35.355469 L 41.78125 35.355469 C 45.863281 35.355469 49.171875 38.589844 49.171875 42.574219 C 49.171875 46.5625 45.863281 49.792969 41.78125 49.792969 " fill-opacity="1" fill-rule="nonzero"/><path fill="#79c8b4" d="M 178.730469 74.511719 L 74.957031 74.511719 C 69.425781 63.394531 58.8125 55.242188 46.160156 53.105469 C 46.597656 53.050781 47.042969 53.023438 47.496094 53.023438 L 56.386719 53.023438 C 62.320312 53.023438 67.128906 48.210938 67.128906 42.273438 C 67.128906 36.339844 62.320312 31.53125 56.386719 31.53125 L 25.84375 31.53125 C 19.914062 31.53125 15.105469 26.71875 15.105469 20.78125 C 15.105469 14.851562 19.914062 10.039062 25.84375 10.039062 L 131.910156 10.039062 C 137.839844 10.039062 142.648438 14.851562 142.648438 20.78125 C 142.648438 26.71875 137.839844 31.53125 131.910156 31.53125 L 127.039062 31.53125 C 121.109375 31.53125 116.300781 36.339844 116.300781 42.273438 C 116.300781 48.210938 121.109375 53.023438 127.039062 53.023438 L 178.730469 53.023438 C 184.664062 53.023438 189.472656 57.832031 189.472656 63.769531 C 189.472656 69.703125 184.664062 74.511719 178.730469 74.511719 " fill-opacity="1" fill-rule="nonzero"/><path fill="#79c8b4" d="M 304.023438 172.6875 L 289.933594 172.6875 C 285.855469 172.6875 282.546875 169.457031 282.546875 165.46875 C 282.546875 161.480469 285.855469 158.25 289.933594 158.25 L 304.023438 158.25 C 308.101562 158.25 311.410156 161.480469 311.410156 165.46875 C 311.410156 169.457031 308.101562 172.6875 304.023438 172.6875 " fill-opacity="1" fill-rule="nonzero"/><path fill="#79c8b4" d="M 191.246094 172.6875 L 177.160156 172.6875 C 173.078125 172.6875 169.773438 169.457031 169.773438 165.46875 C 169.773438 161.480469 173.078125 158.25 177.160156 158.25 L 191.246094 158.25 C 195.328125 158.25 198.636719 161.480469 198.636719 165.46875 C 198.636719 169.457031 195.328125 172.6875 191.246094 172.6875 " fill-opacity="1" fill-rule="nonzero"/><path fill="#79c8b4" d="M 286.894531 197.40625 L 263.332031 197.40625 L 263.332031 180.328125 C 263.332031 177.058594 260.683594 174.40625 257.410156 174.40625 L 211.34375 174.40625 C 214.484375 172.53125 216.59375 169.09375 216.59375 165.167969 C 216.59375 159.230469 211.785156 154.421875 205.851562 154.421875 L 175.308594 154.421875 C 169.375 154.421875 164.570312 149.609375 164.570312 143.675781 C 164.570312 137.738281 169.375 132.929688 175.308594 132.929688 L 229.367188 132.929688 C 235.046875 136.078125 241.578125 137.871094 248.53125 137.871094 C 255.480469 137.871094 262.015625 136.078125 267.6875 132.929688 L 281.371094 132.929688 C 287.300781 132.929688 292.109375 137.738281 292.109375 143.675781 C 292.109375 149.609375 287.300781 154.421875 281.371094 154.421875 L 276.507812 154.421875 C 270.574219 154.421875 265.765625 159.230469 265.765625 165.167969 C 265.765625 171.101562 270.574219 175.910156 276.507812 175.910156 L 328.191406 175.910156 C 334.125 175.910156 338.933594 180.726562 338.933594 186.660156 C 338.933594 191.125 336.210938 194.957031 332.339844 196.578125 L 331.875 195.421875 C 331.730469 195.054688 331.375 194.824219 330.996094 194.824219 C 330.941406 194.824219 330.890625 194.832031 330.835938 194.835938 L 316.246094 197.339844 L 294.695312 185.269531 C 294.5625 185.195312 294.414062 185.15625 294.265625 185.15625 C 293.957031 185.15625 293.65625 185.320312 293.5 185.605469 L 286.894531 197.40625 " fill-opacity="1" fill-rule="nonzero"/><path fill="#f79745" d="M 330.996094 195.769531 L 262.074219 207.578125 L 228.351562 267.839844 L 323.238281 320.996094 L 356.957031 260.734375 L 330.996094 195.769531 " fill-opacity="1" fill-rule="nonzero"/><path fill="#2e1449" d="M 330.996094 195.769531 L 330.835938 194.835938 L 261.914062 206.648438 C 261.632812 206.691406 261.386719 206.867188 261.25 207.117188 L 227.523438 267.378906 C 227.269531 267.835938 227.433594 268.410156 227.890625 268.667969 L 322.773438 321.820312 C 322.992188 321.945312 323.246094 321.972656 323.492188 321.90625 C 323.734375 321.835938 323.9375 321.675781 324.0625 321.457031 L 357.78125 261.195312 C 357.921875 260.945312 357.941406 260.648438 357.835938 260.382812 L 331.875 195.421875 C 331.707031 195.003906 331.273438 194.761719 330.835938 194.835938 L 330.996094 195.769531 L 330.117188 196.121094 L 355.910156 260.667969 L 322.871094 319.707031 L 229.636719 267.480469 L 262.679688 208.4375 L 331.15625 196.703125 L 330.996094 195.769531 L 330.117188 196.121094 L 330.996094 195.769531 " fill-opacity="1" fill-rule="nonzero"/><path fill="#2e1449" d="M 261.609375 208.40625 L 278.113281 217.648438 C 278.566406 217.90625 279.148438 217.742188 279.402344 217.285156 C 279.65625 216.832031 279.492188 216.253906 279.035156 215.996094 L 262.535156 206.753906 C 262.078125 206.5 261.503906 206.664062 261.25 207.117188 C 260.996094 207.570312 261.15625 208.152344 261.609375 208.40625 " fill-opacity="1" fill-rule="nonzero"/><path fill="#2e1449" d="M 283.476562 220.652344 L 286.367188 222.269531 C 286.820312 222.523438 287.398438 222.359375 287.652344 221.910156 C 287.90625 221.453125 287.742188 220.875 287.285156 220.617188 L 284.398438 219.003906 C 283.945312 218.746094 283.367188 218.910156 283.113281 219.367188 C 282.859375 219.824219 283.023438 220.398438 283.476562 220.652344 " fill-opacity="1" fill-rule="nonzero"/><path fill="#2e1449" d="M 290.898438 224.8125 L 325.558594 244.226562 C 326.011719 244.480469 326.585938 244.316406 326.84375 243.859375 C 327.097656 243.40625 326.933594 242.828125 326.480469 242.574219 L 291.824219 223.160156 C 291.371094 222.90625 290.792969 223.070312 290.539062 223.527344 C 290.285156 223.984375 290.449219 224.558594 290.898438 224.8125 " fill-opacity="1" fill-rule="nonzero"/><path fill="#2e1449" d="M 332.980469 248.386719 L 338.753906 251.621094 C 339.210938 251.875 339.785156 251.710938 340.042969 251.257812 C 340.296875 250.800781 340.136719 250.222656 339.679688 249.96875 L 333.90625 246.738281 C 333.449219 246.480469 332.871094 246.640625 332.617188 247.097656 C 332.363281 247.554688 332.523438 248.128906 332.980469 248.386719 " fill-opacity="1" fill-rule="nonzero"/><path fill="#2e1449" d="M 345.355469 255.320312 L 356.496094 261.558594 C 356.949219 261.8125 357.527344 261.652344 357.78125 261.195312 C 358.039062 260.738281 357.875 260.164062 357.421875 259.910156 L 346.28125 253.667969 C 345.824219 253.414062 345.25 253.574219 344.992188 254.03125 C 344.738281 254.484375 344.902344 255.066406 345.355469 255.320312 " fill-opacity="1" fill-rule="nonzero"/><path fill="#ffffff" d="M 294.265625 186.039062 L 251.074219 263.222656 L 315.292969 299.195312 L 358.484375 222.015625 L 294.265625 186.039062 " fill-opacity="1" fill-rule="nonzero"/><path fill="#2e1449" d="M 294.265625 186.039062 L 293.5 185.605469 L 250.304688 262.789062 C 250.070312 263.214844 250.222656 263.753906 250.644531 263.992188 L 314.863281 299.964844 C 315.070312 300.078125 315.304688 300.109375 315.535156 300.046875 C 315.757812 299.980469 315.949219 299.832031 316.0625 299.625 L 359.253906 222.445312 C 359.367188 222.238281 359.398438 221.996094 359.335938 221.773438 C 359.273438 221.550781 359.121094 221.355469 358.917969 221.246094 L 294.695312 185.269531 C 294.273438 185.03125 293.734375 185.183594 293.5 185.605469 L 294.265625 186.039062 L 293.835938 186.804688 L 357.289062 222.351562 L 314.957031 297.996094 L 252.273438 262.886719 L 295.035156 186.46875 L 294.265625 186.039062 L 293.835938 186.804688 L 294.265625 186.039062 " fill-opacity="1" fill-rule="nonzero"/><path fill="#e77a40" d="M 323.238281 320.996094 L 228.351562 267.839844 L 262.074219 207.578125 L 290.578125 268 L 356.957031 260.734375 L 323.238281 320.996094 " fill-opacity="1" fill-rule="nonzero"/><path fill="#2e1449" d="M 323.238281 320.996094 L 323.695312 320.167969 L 229.636719 267.480469 L 262.003906 209.640625 L 289.722656 268.402344 C 289.890625 268.769531 290.277344 268.984375 290.679688 268.941406 L 355.238281 261.875 L 322.410156 320.53125 L 323.238281 320.996094 L 323.695312 320.167969 L 323.238281 320.996094 L 324.0625 321.457031 L 357.78125 261.195312 C 357.953125 260.886719 357.941406 260.507812 357.75 260.210938 C 357.550781 259.917969 357.203125 259.753906 356.855469 259.792969 L 291.144531 266.988281 L 262.925781 207.175781 C 262.777344 206.855469 262.460938 206.648438 262.105469 206.636719 C 261.753906 206.621094 261.421875 206.808594 261.25 207.117188 L 227.523438 267.378906 C 227.269531 267.835938 227.433594 268.410156 227.890625 268.667969 L 322.773438 321.820312 C 322.992188 321.945312 323.246094 321.972656 323.492188 321.90625 C 323.734375 321.835938 323.9375 321.675781 324.0625 321.457031 L 323.238281 320.996094 " fill-opacity="1" fill-rule="nonzero"/><path fill="#f79745" d="M 323.238281 320.996094 L 228.351562 267.839844 L 297.277344 256.03125 L 323.238281 320.996094 " fill-opacity="1" fill-rule="nonzero"/><path fill="#2e1449" d="M 323.238281 320.996094 L 323.695312 320.167969 L 231.144531 268.324219 L 296.683594 257.09375 L 322.359375 321.347656 L 323.238281 320.996094 L 323.695312 320.167969 L 323.238281 320.996094 L 324.113281 320.640625 L 298.152344 255.679688 C 297.988281 255.265625 297.554688 255.027344 297.117188 255.097656 L 228.191406 266.910156 C 227.800781 266.976562 227.488281 267.285156 227.417969 267.679688 C 227.351562 268.078125 227.539062 268.472656 227.890625 268.667969 L 322.773438 321.820312 C 323.121094 322.015625 323.558594 321.972656 323.859375 321.703125 C 324.160156 321.441406 324.261719 321.015625 324.113281 320.640625 L 323.238281 320.996094 " fill-opacity="1" fill-rule="nonzero"/><path fill="#f8a553" d="M 310.539062 301.773438 L 263.332031 275.332031 L 263.332031 266.574219 L 294.347656 261.261719 L 310.539062 301.773438 " fill-opacity="1" fill-rule="nonzero"/><path fill="#2e1449" d="M 344.414062 234.730469 L 292.023438 205.378906 L 295.488281 199.191406 L 347.882812 228.542969 L 344.414062 234.730469 " fill-opacity="1" fill-rule="nonzero"/><path fill="#2e1449" d="M 339.914062 242.78125 L 287.519531 213.429688 L 289.25 210.335938 L 341.644531 239.683594 L 339.914062 242.78125 " fill-opacity="1" fill-rule="nonzero"/><path fill="#2e1449" d="M 336.328125 249.175781 L 283.9375 219.832031 L 285.671875 216.734375 L 338.0625 246.082031 L 336.328125 249.175781 " fill-opacity="1" fill-rule="nonzero"/><path fill="#2e1449" d="M 332.75 255.574219 L 280.359375 226.226562 L 282.089844 223.128906 L 334.484375 252.480469 L 332.75 255.574219 " fill-opacity="1" fill-rule="nonzero"/><path fill="#2e1449" d="M 298.230469 244.640625 L 276.777344 232.621094 L 278.511719 229.527344 L 299.960938 241.546875 L 298.230469 244.640625 " fill-opacity="1" fill-rule="nonzero"/><path fill="#ffffff" d="M 262.484375 296.566406 C 262.484375 299.371094 260.210938 301.648438 257.410156 301.648438 L 61.152344 301.648438 C 58.347656 301.648438 56.078125 299.371094 56.078125 296.566406 L 56.078125 180.328125 C 56.078125 177.523438 58.347656 175.253906 61.152344 175.253906 L 257.410156 175.253906 C 260.210938 175.253906 262.484375 177.523438 262.484375 180.328125 L 262.484375 296.566406 " fill-opacity="1" fill-rule="nonzero"/><path fill="#2e1449" d="M 262.484375 296.566406 L 261.640625 296.566406 C 261.636719 297.738281 261.167969 298.792969 260.402344 299.5625 C 259.632812 300.328125 258.578125 300.800781 257.410156 300.800781 L 61.152344 300.800781 C 59.980469 300.800781 58.929688 300.328125 58.160156 299.5625 C 57.390625 298.792969 56.921875 297.738281 56.921875 296.566406 L 56.921875 180.328125 C 56.921875 179.15625 57.390625 178.105469 58.160156 177.339844 C 58.929688 176.570312 59.980469 176.097656 61.152344 176.097656 L 257.410156 176.097656 C 258.578125 176.097656 259.632812 176.570312 260.402344 177.339844 C 261.167969 178.105469 261.636719 179.15625 261.640625 180.328125 L 261.640625 296.566406 L 263.332031 296.566406 L 263.332031 180.328125 C 263.332031 177.058594 260.683594 174.40625 257.410156 174.40625 L 61.152344 174.40625 C 57.878906 174.40625 55.230469 177.058594 55.226562 180.328125 L 55.226562 296.566406 C 55.226562 299.839844 57.878906 302.492188 61.152344 302.492188 L 257.410156 302.492188 C 260.683594 302.492188 263.332031 299.839844 263.332031 296.566406 L 262.484375 296.566406 " fill-opacity="1" fill-rule="nonzero"/><path fill="#54c5bb" d="M 62.5625 293.746094 L 256 293.746094 L 256 188.230469 L 62.5625 188.230469 Z M 62.5625 293.746094 " fill-opacity="1" fill-rule="nonzero"/><path fill="#2e1449" d="M 256 293.746094 L 256 292.902344 L 63.40625 292.902344 L 63.40625 189.074219 L 255.152344 189.074219 L 255.152344 293.746094 L 256 293.746094 L 256 292.902344 L 256 293.746094 L 256.84375 293.746094 L 256.84375 188.230469 C 256.84375 188.007812 256.757812 187.789062 256.597656 187.632812 C 256.441406 187.472656 256.226562 187.386719 256 187.386719 L 62.5625 187.386719 C 62.335938 187.386719 62.121094 187.472656 61.964844 187.632812 C 61.804688 187.789062 61.714844 188.007812 61.714844 188.230469 L 61.714844 293.746094 C 61.714844 293.96875 61.804688 294.1875 61.964844 294.34375 C 62.121094 294.503906 62.335938 294.589844 62.5625 294.589844 L 256 294.589844 C 256.226562 294.589844 256.441406 294.503906 256.597656 294.34375 C 256.757812 294.1875 256.84375 293.96875 256.84375 293.746094 L 256 293.746094 " fill-opacity="1" fill-rule="nonzero"/><path fill="#6acdc8" d="M 232.722656 268.367188 C 198.710938 268.367188 164.554688 257.777344 137.96875 236.5625 C 125.738281 226.800781 116.144531 213.828125 112.0625 199.234375 L 254.167969 199.234375 L 254.167969 266.949219 C 247.074219 267.894531 239.898438 268.367188 232.722656 268.367188 " fill-opacity="1" fill-rule="nonzero"/><path fill="#338a87" d="M 255.152344 292.902344 L 63.40625 292.902344 L 63.40625 199.234375 L 66.226562 199.234375 L 66.226562 289.796875 L 255.152344 289.796875 L 255.152344 292.902344 " fill-opacity="1" fill-rule="nonzero"/><path fill="#1e0e32" d="M 256 293.746094 L 62.5625 293.746094 L 62.5625 199.234375 L 63.40625 199.234375 L 63.40625 292.902344 L 255.152344 292.902344 L 255.152344 289.796875 L 256 289.796875 L 256 293.746094 M 256 293.746094 L 256 292.902344 L 256 293.746094 " fill-opacity="1" fill-rule="nonzero"/><path fill="#ffffff" d="M 43.652344 301.648438 L 283.28125 301.648438 C 283.28125 301.648438 283.285156 317.164062 270.027344 317.164062 C 256.777344 317.164062 69.453125 317.164062 58.035156 317.164062 C 46.613281 317.164062 43.652344 301.648438 43.652344 301.648438 " fill-opacity="1" fill-rule="nonzero"/><path fill="#2e1449" d="M 43.652344 301.648438 L 43.652344 302.492188 L 283.28125 302.492188 L 283.28125 301.648438 L 282.4375 301.648438 L 282.4375 301.683594 C 282.433594 302.074219 282.324219 305.851562 280.695312 309.417969 C 279.882812 311.203125 278.707031 312.929688 277.007812 314.195312 C 275.304688 315.464844 273.078125 316.316406 270.027344 316.320312 C 256.777344 316.320312 69.453125 316.320312 58.035156 316.320312 C 55.371094 316.316406 53.25 315.429688 51.484375 314.070312 C 48.84375 312.039062 47.0625 308.886719 45.972656 306.234375 C 45.429688 304.910156 45.054688 303.714844 44.816406 302.855469 C 44.699219 302.425781 44.617188 302.078125 44.558594 301.84375 C 44.53125 301.722656 44.511719 301.632812 44.5 301.570312 L 44.480469 301.488281 L 43.652344 301.648438 L 43.652344 302.492188 L 43.652344 301.648438 L 42.820312 301.808594 C 42.835938 301.855469 43.582031 305.804688 45.820312 309.820312 C 46.949219 311.824219 48.445312 313.855469 50.449219 315.410156 C 52.457031 316.960938 54.984375 318.015625 58.035156 318.011719 C 69.453125 318.011719 256.777344 318.011719 270.027344 318.011719 C 273.503906 318.015625 276.207031 316.976562 278.210938 315.40625 C 281.226562 313.046875 282.675781 309.59375 283.402344 306.765625 C 284.125 303.933594 284.125 301.695312 284.128906 301.648438 C 284.128906 301.421875 284.039062 301.207031 283.878906 301.046875 C 283.722656 300.890625 283.503906 300.800781 283.28125 300.800781 L 43.652344 300.800781 C 43.402344 300.800781 43.160156 300.914062 43.003906 301.105469 C 42.839844 301.300781 42.773438 301.558594 42.820312 301.808594 L 43.652344 301.648438 " fill-opacity="1" fill-rule="nonzero"/><path fill="#f4f4f4" d="M 62.5625 198.386719 L 256 198.386719 L 256 188.230469 L 62.5625 188.230469 Z M 62.5625 198.386719 " fill-opacity="1" fill-rule="nonzero"/><path fill="#2e1449" d="M 256 198.386719 L 256 197.539062 L 63.40625 197.539062 L 63.40625 189.074219 L 255.152344 189.074219 L 255.152344 198.386719 L 256 198.386719 L 256 197.539062 L 256 198.386719 L 256.84375 198.386719 L 256.84375 188.230469 C 256.84375 188.007812 256.757812 187.789062 256.597656 187.632812 C 256.441406 187.472656 256.226562 187.386719 256 187.386719 L 62.5625 187.386719 C 62.335938 187.386719 62.121094 187.472656 61.964844 187.632812 C 61.804688 187.789062 61.714844 188.007812 61.714844 188.230469 L 61.714844 198.386719 C 61.714844 198.609375 61.804688 198.828125 61.964844 198.984375 C 62.121094 199.140625 62.335938 199.234375 62.5625 199.234375 L 256 199.234375 C 256.226562 199.234375 256.441406 199.140625 256.597656 198.984375 C 256.757812 198.828125 256.84375 198.609375 256.84375 198.386719 L 256 198.386719 " fill-opacity="1" fill-rule="nonzero"/><path fill="#f4f4f4" d="M 234.289062 193.730469 C 234.289062 195.367188 232.960938 196.695312 231.324219 196.695312 C 229.691406 196.695312 228.367188 195.367188 228.367188 193.730469 C 228.367188 192.09375 229.691406 190.769531 231.324219 190.769531 C 232.960938 190.769531 234.289062 192.09375 234.289062 193.730469 " fill-opacity="1" fill-rule="nonzero"/><path fill="#2e1449" d="M 234.289062 193.730469 L 233.441406 193.730469 C 233.441406 194.898438 232.492188 195.847656 231.324219 195.847656 C 230.15625 195.847656 229.214844 194.898438 229.214844 193.730469 C 229.214844 192.5625 230.15625 191.617188 231.324219 191.613281 C 232.492188 191.617188 233.441406 192.5625 233.441406 193.730469 L 235.132812 193.730469 C 235.132812 191.625 233.429688 189.925781 231.324219 189.925781 C 229.226562 189.925781 227.519531 191.625 227.519531 193.730469 C 227.519531 195.835938 229.226562 197.539062 231.324219 197.539062 C 233.429688 197.539062 235.132812 195.835938 235.132812 193.730469 L 234.289062 193.730469 " fill-opacity="1" fill-rule="nonzero"/><path fill="#f4f4f4" d="M 242.886719 193.730469 C 242.886719 195.367188 241.5625 196.695312 239.925781 196.695312 C 238.292969 196.695312 236.964844 195.367188 236.964844 193.730469 C 236.964844 192.09375 238.292969 190.769531 239.925781 190.769531 C 241.5625 190.769531 242.886719 192.09375 242.886719 193.730469 " fill-opacity="1" fill-rule="nonzero"/><path fill="#2e1449" d="M 242.886719 193.730469 L 242.039062 193.730469 C 242.039062 194.898438 241.09375 195.847656 239.925781 195.847656 C 238.761719 195.847656 237.8125 194.898438 237.8125 193.730469 C 237.8125 192.5625 238.761719 191.617188 239.925781 191.613281 C 241.09375 191.617188 242.039062 192.5625 242.039062 193.730469 L 243.734375 193.730469 C 243.734375 191.625 242.027344 189.925781 239.925781 189.925781 C 237.824219 189.925781 236.121094 191.625 236.121094 193.730469 C 236.121094 195.835938 237.824219 197.539062 239.925781 197.539062 C 242.027344 197.539062 243.734375 195.835938 243.734375 193.730469 L 242.886719 193.730469 " fill-opacity="1" fill-rule="nonzero"/><path fill="#f4f4f4" d="M 251.488281 193.730469 C 251.488281 195.367188 250.160156 196.695312 248.527344 196.695312 C 246.894531 196.695312 245.566406 195.367188 245.566406 193.730469 C 245.566406 192.09375 246.894531 190.769531 248.527344 190.769531 C 250.160156 190.769531 251.488281 192.09375 251.488281 193.730469 " fill-opacity="1" fill-rule="nonzero"/><path fill="#2e1449" d="M 251.488281 193.730469 L 250.644531 193.730469 C 250.640625 194.898438 249.699219 195.847656 248.527344 195.847656 C 247.363281 195.847656 246.414062 194.898438 246.414062 193.730469 C 246.414062 192.5625 247.363281 191.617188 248.527344 191.613281 C 249.699219 191.617188 250.640625 192.5625 250.644531 193.730469 L 252.335938 193.730469 C 252.332031 191.625 250.628906 189.925781 248.527344 189.925781 C 246.425781 189.925781 244.722656 191.625 244.722656 193.730469 C 244.722656 195.835938 246.425781 197.539062 248.527344 197.539062 C 250.628906 197.539062 252.332031 195.835938 252.335938 193.730469 L 251.488281 193.730469 " fill-opacity="1" fill-rule="nonzero"/><path fill="#f4f4f4" d="M 175.632812 193.308594 C 175.632812 194.945312 174.308594 196.273438 172.675781 196.273438 L 75.109375 196.273438 C 73.476562 196.273438 72.148438 194.945312 72.148438 193.308594 C 72.148438 191.671875 73.476562 190.347656 75.109375 190.347656 L 172.675781 190.347656 C 174.308594 190.347656 175.632812 191.671875 175.632812 193.308594 " fill-opacity="1" fill-rule="nonzero"/><path fill="#2e1449" d="M 175.632812 193.308594 L 174.789062 193.308594 C 174.789062 194.476562 173.84375 195.421875 172.675781 195.421875 L 75.109375 195.421875 C 73.941406 195.421875 72.996094 194.476562 72.996094 193.308594 C 72.996094 192.140625 73.941406 191.195312 75.109375 191.191406 L 172.675781 191.191406 C 173.84375 191.195312 174.789062 192.140625 174.789062 193.308594 L 176.480469 193.308594 C 176.480469 191.203125 174.777344 189.5 172.675781 189.5 L 75.109375 189.5 C 73.007812 189.5 71.304688 191.203125 71.304688 193.308594 C 71.304688 195.414062 73.007812 197.117188 75.109375 197.117188 L 172.675781 197.117188 C 174.777344 197.117188 176.480469 195.414062 176.480469 193.308594 L 175.632812 193.308594 " fill-opacity="1" fill-rule="nonzero"/><path fill="#f4f4f4" d="M 227.550781 289.515625 L 91.007812 289.515625 L 91.007812 203.464844 L 227.550781 203.464844 L 227.550781 289.515625 " fill-opacity="1" fill-rule="nonzero"/><path fill="#2e1449" d="M 227.550781 289.515625 L 227.550781 288.667969 L 91.855469 288.667969 L 91.855469 204.308594 L 226.707031 204.308594 L 226.707031 289.515625 L 227.550781 289.515625 L 227.550781 288.667969 L 227.550781 289.515625 L 228.398438 289.515625 L 228.398438 203.464844 C 228.398438 203.242188 228.308594 203.023438 228.152344 202.867188 C 227.992188 202.707031 227.777344 202.621094 227.550781 202.621094 L 91.007812 202.621094 C 90.785156 202.621094 90.566406 202.707031 90.410156 202.867188 C 90.253906 203.023438 90.164062 203.242188 90.164062 203.464844 L 90.164062 289.515625 C 90.164062 289.734375 90.253906 289.953125 90.410156 290.113281 C 90.566406 290.269531 90.785156 290.359375 91.007812 290.359375 L 227.550781 290.359375 C 227.777344 290.359375 227.992188 290.269531 228.152344 290.113281 C 228.308594 289.953125 228.398438 289.734375 228.398438 289.515625 L 227.550781 289.515625 " fill-opacity="1" fill-rule="nonzero"/><path fill="#7154af" d="M 227.550781 218.699219 L 91.007812 218.699219 L 91.007812 203.464844 L 227.550781 203.464844 L 227.550781 218.699219 " fill-opacity="1" fill-rule="nonzero"/><path fill="#2e1449" d="M 227.550781 218.699219 L 227.550781 217.855469 L 91.855469 217.855469 L 91.855469 204.308594 L 226.707031 204.308594 L 226.707031 218.699219 L 227.550781 218.699219 L 227.550781 217.855469 L 227.550781 218.699219 L 228.398438 218.699219 L 228.398438 203.464844 C 228.398438 203.242188 228.308594 203.023438 228.152344 202.867188 C 227.992188 202.707031 227.777344 202.621094 227.550781 202.621094 L 91.007812 202.621094 C 90.785156 202.621094 90.566406 202.707031 90.410156 202.867188 C 90.253906 203.023438 90.164062 203.242188 90.164062 203.464844 L 90.164062 218.699219 C 90.164062 218.925781 90.253906 219.140625 90.410156 219.296875 C 90.566406 219.457031 90.785156 219.546875 91.007812 219.546875 L 227.550781 219.546875 C 227.777344 219.546875 227.992188 219.457031 228.152344 219.296875 C 228.308594 219.140625 228.398438 218.925781 228.398438 218.699219 L 227.550781 218.699219 " fill-opacity="1" fill-rule="nonzero"/><path fill="#2e1449" d="M 102.289062 230.832031 L 139.507812 230.832031 C 139.976562 230.832031 140.351562 230.453125 140.351562 229.984375 C 140.351562 229.519531 139.976562 229.140625 139.507812 229.140625 L 102.289062 229.140625 C 101.820312 229.140625 101.441406 229.519531 101.441406 229.984375 C 101.441406 230.453125 101.820312 230.832031 102.289062 230.832031 " fill-opacity="1" fill-rule="nonzero"/><path fill="#2e1449" d="M 145.148438 230.832031 L 151.917969 230.832031 C 152.382812 230.832031 152.761719 230.453125 152.761719 229.984375 C 152.761719 229.519531 152.382812 229.140625 151.917969 229.140625 L 145.148438 229.140625 C 144.683594 229.140625 144.300781 229.519531 144.300781 229.984375 C 144.300781 230.453125 144.683594 230.832031 145.148438 230.832031 " fill-opacity="1" fill-rule="nonzero"/><path fill="#2e1449" d="M 159.28125 230.832031 L 181.136719 230.832031 C 181.605469 230.832031 181.984375 230.453125 181.984375 229.984375 C 181.984375 229.519531 181.605469 229.140625 181.136719 229.140625 L 159.28125 229.140625 C 158.8125 229.140625 158.4375 229.519531 158.4375 229.984375 C 158.4375 230.453125 158.8125 230.832031 159.28125 230.832031 " fill-opacity="1" fill-rule="nonzero"/><path fill="#2e1449" d="M 102.289062 241.554688 L 116.949219 241.554688 C 117.417969 241.554688 117.796875 241.171875 117.796875 240.707031 C 117.796875 240.242188 117.417969 239.859375 116.949219 239.859375 L 102.289062 239.859375 C 101.820312 239.859375 101.441406 240.242188 101.441406 240.707031 C 101.441406 241.171875 101.820312 241.554688 102.289062 241.554688 " fill-opacity="1" fill-rule="nonzero"/><path fill="#2e1449" d="M 124.84375 241.554688 L 133.304688 241.554688 C 133.773438 241.554688 134.148438 241.171875 134.148438 240.707031 C 134.148438 240.242188 133.773438 239.859375 133.304688 239.859375 L 124.84375 239.859375 C 124.378906 239.859375 124 240.242188 124 240.707031 C 124 241.171875 124.378906 241.554688 124.84375 241.554688 " fill-opacity="1" fill-rule="nonzero"/><path fill="#2e1449" d="M 139.507812 241.554688 L 179.988281 241.554688 C 180.453125 241.554688 180.832031 241.171875 180.832031 240.707031 C 180.832031 240.242188 180.453125 239.859375 179.988281 239.859375 L 139.507812 239.859375 C 139.042969 239.859375 138.664062 240.242188 138.664062 240.707031 C 138.664062 241.171875 139.042969 241.554688 139.507812 241.554688 " fill-opacity="1" fill-rule="nonzero"/><path fill="#2e1449" d="M 102.289062 252.269531 L 113.566406 252.269531 C 114.035156 252.269531 114.410156 251.894531 114.410156 251.425781 C 114.410156 250.957031 114.035156 250.582031 113.566406 250.582031 L 102.289062 250.582031 C 101.820312 250.582031 101.441406 250.957031 101.441406 251.425781 C 101.441406 251.894531 101.820312 252.269531 102.289062 252.269531 " fill-opacity="1" fill-rule="nonzero"/><path fill="#2e1449" d="M 120.898438 252.269531 L 166.015625 252.269531 C 166.480469 252.269531 166.863281 251.894531 166.863281 251.425781 C 166.863281 250.957031 166.480469 250.582031 166.015625 250.582031 L 120.898438 250.582031 C 120.429688 250.582031 120.050781 250.957031 120.050781 251.425781 C 120.050781 251.894531 120.429688 252.269531 120.898438 252.269531 " fill-opacity="1" fill-rule="nonzero"/><path fill="#2e1449" d="M 174.472656 252.269531 L 184.625 252.269531 C 185.09375 252.269531 185.46875 251.894531 185.46875 251.425781 C 185.46875 250.957031 185.09375 250.582031 184.625 250.582031 L 174.472656 250.582031 C 174.003906 250.582031 173.628906 250.957031 173.628906 251.425781 C 173.628906 251.894531 174.003906 252.269531 174.472656 252.269531 " fill-opacity="1" fill-rule="nonzero"/><path fill="#2e1449" d="M 192.867188 252.269531 L 219.097656 252.269531 C 219.558594 252.269531 219.941406 251.894531 219.941406 251.425781 C 219.941406 250.957031 219.558594 250.582031 219.097656 250.582031 L 192.867188 250.582031 C 192.402344 250.582031 192.023438 250.957031 192.023438 251.425781 C 192.023438 251.894531 192.402344 252.269531 192.867188 252.269531 " fill-opacity="1" fill-rule="nonzero"/><path fill="#2e1449" d="M 102.289062 258.902344 L 139.507812 258.902344 C 139.976562 258.902344 140.351562 258.523438 140.351562 258.054688 C 140.351562 257.585938 139.976562 257.210938 139.507812 257.210938 L 102.289062 257.210938 C 101.820312 257.210938 101.441406 257.585938 101.441406 258.054688 C 101.441406 258.523438 101.820312 258.902344 102.289062 258.902344 " fill-opacity="1" fill-rule="nonzero"/><path fill="#2e1449" d="M 145.148438 258.902344 L 151.917969 258.902344 C 152.382812 258.902344 152.761719 258.523438 152.761719 258.054688 C 152.761719 257.585938 152.382812 257.210938 151.917969 257.210938 L 145.148438 257.210938 C 144.683594 257.210938 144.300781 257.585938 144.300781 258.054688 C 144.300781 258.523438 144.683594 258.902344 145.148438 258.902344 " fill-opacity="1" fill-rule="nonzero"/><path fill="#2e1449" d="M 159.28125 258.902344 L 200.691406 258.902344 C 201.160156 258.902344 201.542969 258.523438 201.542969 258.054688 C 201.542969 257.585938 201.160156 257.210938 200.691406 257.210938 L 159.28125 257.210938 C 158.8125 257.210938 158.4375 257.585938 158.4375 258.054688 C 158.4375 258.523438 158.8125 258.902344 159.28125 258.902344 " fill-opacity="1" fill-rule="nonzero"/><path fill="#2e1449" d="M 207.042969 258.902344 L 219.097656 258.902344 C 219.558594 258.902344 219.941406 258.523438 219.941406 258.054688 C 219.941406 257.585938 219.558594 257.210938 219.097656 257.210938 L 207.042969 257.210938 C 206.574219 257.210938 206.195312 257.585938 206.195312 258.054688 C 206.195312 258.523438 206.574219 258.902344 207.042969 258.902344 " fill-opacity="1" fill-rule="nonzero"/><path fill="#2e1449" d="M 102.289062 269.625 L 116.949219 269.625 C 117.417969 269.625 117.796875 269.246094 117.796875 268.777344 C 117.796875 268.308594 117.417969 267.933594 116.949219 267.933594 L 102.289062 267.933594 C 101.820312 267.933594 101.441406 268.308594 101.441406 268.777344 C 101.441406 269.246094 101.820312 269.625 102.289062 269.625 " fill-opacity="1" fill-rule="nonzero"/><path fill="#2e1449" d="M 124.84375 269.625 L 133.304688 269.625 C 133.773438 269.625 134.148438 269.246094 134.148438 268.777344 C 134.148438 268.308594 133.773438 267.933594 133.304688 267.933594 L 124.84375 267.933594 C 124.378906 267.933594 124 268.308594 124 268.777344 C 124 269.246094 124.378906 269.625 124.84375 269.625 " fill-opacity="1" fill-rule="nonzero"/><path fill="#2e1449" d="M 139.507812 269.625 L 179.988281 269.625 C 180.453125 269.625 180.832031 269.246094 180.832031 268.777344 C 180.832031 268.308594 180.453125 267.933594 179.988281 267.933594 L 139.507812 267.933594 C 139.042969 267.933594 138.664062 268.308594 138.664062 268.777344 C 138.664062 269.246094 139.042969 269.625 139.507812 269.625 " fill-opacity="1" fill-rule="nonzero"/><path fill="#2e1449" d="M 188.640625 269.625 L 197.097656 269.625 C 197.566406 269.625 197.945312 269.246094 197.945312 268.777344 C 197.945312 268.308594 197.566406 267.933594 197.097656 267.933594 L 188.640625 267.933594 C 188.171875 267.933594 187.792969 268.308594 187.792969 268.777344 C 187.792969 269.246094 188.171875 269.625 188.640625 269.625 " fill-opacity="1" fill-rule="nonzero"/><path fill="#2e1449" d="M 200.691406 269.625 L 219.097656 269.625 C 219.558594 269.625 219.941406 269.246094 219.941406 268.777344 C 219.941406 268.308594 219.558594 267.933594 219.097656 267.933594 L 200.691406 267.933594 C 200.230469 267.933594 199.847656 268.308594 199.847656 268.777344 C 199.847656 269.246094 200.230469 269.625 200.691406 269.625 " fill-opacity="1" fill-rule="nonzero"/><path fill="#2e1449" d="M 102.289062 280.347656 L 113.566406 280.347656 C 114.035156 280.347656 114.410156 279.964844 114.410156 279.496094 C 114.410156 279.03125 114.035156 278.652344 113.566406 278.652344 L 102.289062 278.652344 C 101.820312 278.652344 101.441406 279.03125 101.441406 279.496094 C 101.441406 279.964844 101.820312 280.347656 102.289062 280.347656 " fill-opacity="1" fill-rule="nonzero"/><path fill="#2e1449" d="M 120.898438 280.347656 L 166.015625 280.347656 C 166.480469 280.347656 166.863281 279.964844 166.863281 279.496094 C 166.863281 279.03125 166.480469 278.652344 166.015625 278.652344 L 120.898438 278.652344 C 120.429688 278.652344 120.050781 279.03125 120.050781 279.496094 C 120.050781 279.964844 120.429688 280.347656 120.898438 280.347656 " fill-opacity="1" fill-rule="nonzero"/><path fill="#2e1449" d="M 174.472656 280.347656 L 184.625 280.347656 C 185.09375 280.347656 185.46875 279.964844 185.46875 279.496094 C 185.46875 279.03125 185.09375 278.652344 184.625 278.652344 L 174.472656 278.652344 C 174.003906 278.652344 173.628906 279.03125 173.628906 279.496094 C 173.628906 279.964844 174.003906 280.347656 174.472656 280.347656 " fill-opacity="1" fill-rule="nonzero"/><path fill="#2e1449" d="M 192.867188 280.347656 L 219.097656 280.347656 C 219.558594 280.347656 219.941406 279.964844 219.941406 279.496094 C 219.941406 279.03125 219.558594 278.652344 219.097656 278.652344 L 192.867188 278.652344 C 192.402344 278.652344 192.023438 279.03125 192.023438 279.496094 C 192.023438 279.964844 192.402344 280.347656 192.867188 280.347656 " fill-opacity="1" fill-rule="nonzero"/><path fill="#d57ac3" d="M 220.46875 245.460938 L 185.789062 245.460938 L 185.789062 226.632812 L 220.46875 226.632812 L 220.46875 245.460938 " fill-opacity="1" fill-rule="nonzero"/><path fill="#2e1449" d="M 220.46875 245.460938 L 220.46875 244.617188 L 186.636719 244.617188 L 186.636719 227.476562 L 219.625 227.476562 L 219.625 245.460938 L 220.46875 245.460938 L 220.46875 244.617188 L 220.46875 245.460938 L 221.316406 245.460938 L 221.316406 226.632812 C 221.316406 226.40625 221.226562 226.191406 221.070312 226.035156 C 220.910156 225.875 220.695312 225.785156 220.46875 225.785156 L 185.789062 225.785156 C 185.570312 225.785156 185.347656 225.875 185.191406 226.035156 C 185.035156 226.191406 184.945312 226.40625 184.945312 226.632812 L 184.945312 245.460938 C 184.945312 245.6875 185.035156 245.902344 185.191406 246.0625 C 185.347656 246.21875 185.570312 246.3125 185.789062 246.3125 L 220.46875 246.3125 C 220.695312 246.3125 220.910156 246.21875 221.070312 246.0625 C 221.226562 245.902344 221.316406 245.6875 221.316406 245.460938 L 220.46875 245.460938 " fill-opacity="1" fill-rule="nonzero"/><path fill="#54c5bb" d="M 167.59375 182.304688 C 167.59375 184.585938 165.746094 186.429688 163.46875 186.429688 C 161.191406 186.429688 159.347656 184.585938 159.347656 182.304688 C 159.347656 180.027344 161.191406 178.179688 163.46875 178.179688 C 165.746094 178.179688 167.59375 180.027344 167.59375 182.304688 " fill-opacity="1" fill-rule="nonzero"/><path fill="#2e1449" d="M 167.59375 182.304688 L 166.746094 182.304688 C 166.742188 184.117188 165.28125 185.582031 163.46875 185.585938 C 161.660156 185.582031 160.195312 184.117188 160.191406 182.304688 C 160.195312 180.492188 161.660156 179.027344 163.46875 179.023438 C 165.277344 179.027344 166.742188 180.492188 166.746094 182.304688 L 168.4375 182.304688 C 168.4375 179.558594 166.210938 177.332031 163.46875 177.332031 C 160.722656 177.332031 158.496094 179.558594 158.496094 182.304688 C 158.496094 185.054688 160.722656 187.277344 163.46875 187.277344 C 166.210938 187.277344 168.4375 185.054688 168.4375 182.304688 L 167.59375 182.304688 " fill-opacity="1" fill-rule="nonzero"/><path fill="#b6b5b5" d="M 182.683594 309.40625 L 144.253906 309.40625 L 144.253906 301.648438 L 182.683594 301.648438 L 182.683594 309.40625 " fill-opacity="1" fill-rule="nonzero"/><path fill="#2e1449" d="M 182.683594 309.40625 L 182.683594 308.558594 L 145.101562 308.558594 L 145.101562 302.492188 L 181.832031 302.492188 L 181.832031 309.40625 L 182.683594 309.40625 L 182.683594 308.558594 L 182.683594 309.40625 L 183.527344 309.40625 L 183.527344 301.648438 C 183.527344 301.421875 183.433594 301.207031 183.28125 301.046875 C 183.125 300.890625 182.902344 300.800781 182.683594 300.800781 L 144.253906 300.800781 C 144.03125 300.800781 143.816406 300.890625 143.65625 301.046875 C 143.5 301.207031 143.40625 301.421875 143.40625 301.648438 L 143.40625 309.40625 C 143.40625 309.628906 143.5 309.84375 143.65625 310.003906 C 143.816406 310.160156 144.03125 310.253906 144.253906 310.253906 L 182.683594 310.253906 C 182.902344 310.253906 183.125 310.160156 183.28125 310.003906 C 183.433594 309.84375 183.527344 309.628906 183.527344 309.40625 L 182.683594 309.40625 " fill-opacity="1" fill-rule="nonzero"/><path fill="#fddd10" d="M 141.140625 180.660156 L 135.144531 180.777344 L 136.398438 166.824219 L 138.441406 166.78125 L 141.140625 180.660156 " fill-opacity="1" fill-rule="nonzero"/><path fill="#2e1449" d="M 141.140625 180.660156 L 141.128906 179.96875 L 135.902344 180.070312 L 137.03125 167.503906 L 137.875 167.484375 L 140.460938 180.792969 L 141.140625 180.660156 L 141.128906 179.96875 L 141.140625 180.660156 L 141.820312 180.527344 L 139.121094 166.648438 C 139.054688 166.316406 138.761719 166.082031 138.429688 166.089844 L 136.382812 166.125 C 136.027344 166.132812 135.738281 166.410156 135.707031 166.757812 L 134.453125 180.714844 C 134.433594 180.914062 134.503906 181.105469 134.636719 181.25 C 134.773438 181.394531 134.960938 181.476562 135.15625 181.472656 L 141.15625 181.355469 C 141.363281 181.351562 141.550781 181.257812 141.679688 181.097656 C 141.808594 180.9375 141.859375 180.730469 141.820312 180.527344 L 141.140625 180.660156 " fill-opacity="1" fill-rule="nonzero"/><path fill="#485b68" d="M 157.820312 134.847656 L 7.675781 186.007812 L 6.300781 181.960938 L 76.355469 141.640625 L 156.449219 130.800781 L 157.820312 134.847656 " fill-opacity="1" fill-rule="nonzero"/><path fill="#2e1449" d="M 157.820312 134.847656 L 157.601562 134.1875 L 8.109375 185.128906 L 7.140625 182.28125 L 76.582031 142.308594 L 155.972656 131.566406 L 157.167969 135.070312 L 157.820312 134.847656 L 157.601562 134.1875 L 157.820312 134.847656 L 158.480469 134.621094 L 157.101562 130.578125 C 156.996094 130.265625 156.679688 130.070312 156.351562 130.117188 L 76.261719 140.957031 L 76.007812 141.039062 L 5.953125 181.363281 C 5.667969 181.527344 5.539062 181.875 5.644531 182.1875 L 7.023438 186.234375 C 7.078125 186.402344 7.207031 186.546875 7.371094 186.632812 C 7.535156 186.710938 7.726562 186.722656 7.902344 186.667969 L 158.042969 135.503906 C 158.21875 135.445312 158.359375 135.320312 158.445312 135.152344 C 158.523438 134.988281 158.539062 134.796875 158.480469 134.621094 L 157.820312 134.847656 " fill-opacity="1" fill-rule="nonzero"/><path fill="#3d4d57" d="M 88.84375 178.328125 L 7.675781 186.007812 L 77.730469 145.6875 L 157.820312 134.847656 L 88.84375 178.328125 " fill-opacity="1" fill-rule="nonzero"/><path fill="#2e1449" d="M 88.84375 178.328125 L 88.777344 177.640625 L 10.789062 185.019531 L 77.960938 146.355469 L 154.753906 135.960938 L 88.472656 177.742188 L 88.84375 178.328125 L 88.777344 177.640625 L 88.84375 178.328125 L 89.210938 178.914062 L 158.191406 135.433594 C 158.46875 135.257812 158.585938 134.914062 158.476562 134.609375 C 158.359375 134.300781 158.050781 134.117188 157.730469 134.160156 L 77.636719 145 L 77.386719 145.085938 L 7.332031 185.40625 C 7.050781 185.570312 6.917969 185.910156 7.019531 186.21875 C 7.117188 186.53125 7.417969 186.730469 7.742188 186.695312 L 88.90625 179.015625 C 89.015625 179.003906 89.121094 178.976562 89.210938 178.914062 L 88.84375 178.328125 " fill-opacity="1" fill-rule="nonzero"/><path fill="#3d4d57" d="M 132.128906 175.503906 C 132.128906 175.503906 119.96875 174.5 109.996094 182.726562 C 98.675781 192.0625 96.152344 199.800781 96.152344 199.800781 C 96.152344 199.800781 89.421875 193.28125 76.503906 194.136719 C 63.585938 194.992188 52.832031 202.527344 52.832031 202.527344 L 43.261719 174.40625 C 43.261719 174.40625 58.550781 162.21875 80.78125 154.640625 C 103.011719 147.066406 122.558594 147.386719 122.558594 147.386719 L 132.128906 175.503906 " fill-opacity="1" fill-rule="nonzero"/><path fill="#2e1449" d="M 132.128906 175.503906 L 132.191406 174.816406 C 132.171875 174.8125 131.683594 174.773438 130.832031 174.773438 C 127.355469 174.777344 117.765625 175.425781 109.554688 182.191406 C 98.125 191.617188 95.527344 199.480469 95.492188 199.585938 L 96.152344 199.800781 L 96.632812 199.300781 C 96.558594 199.234375 90.46875 193.367188 78.820312 193.367188 C 78.054688 193.367188 77.265625 193.390625 76.457031 193.445312 C 63.300781 194.328125 52.484375 201.933594 52.433594 201.957031 L 52.832031 202.527344 L 53.484375 202.304688 L 43.914062 174.1875 L 43.261719 174.40625 L 43.691406 174.953125 C 43.691406 174.953125 43.75 174.90625 43.863281 174.820312 C 45.585938 173.480469 60.277344 162.359375 81.003906 155.296875 C 101.378906 148.355469 119.527344 148.074219 122.210938 148.078125 C 122.433594 148.078125 122.546875 148.078125 122.546875 148.078125 L 122.558594 147.386719 L 121.90625 147.613281 L 131.476562 175.730469 L 132.128906 175.503906 L 132.191406 174.816406 L 132.128906 175.503906 L 132.789062 175.285156 L 123.21875 147.167969 C 123.121094 146.886719 122.867188 146.703125 122.574219 146.695312 C 122.570312 146.695312 122.445312 146.691406 122.210938 146.691406 C 119.433594 146.695312 101.160156 146.964844 80.558594 153.984375 C 58.203125 161.605469 42.867188 173.839844 42.828125 173.867188 C 42.597656 174.050781 42.507812 174.355469 42.601562 174.632812 L 52.171875 202.75 C 52.246094 202.957031 52.410156 203.121094 52.613281 203.1875 C 52.820312 203.253906 53.046875 203.21875 53.226562 203.097656 L 53.339844 203.015625 C 54.515625 202.214844 64.660156 195.605469 76.546875 194.832031 C 77.328125 194.777344 78.085938 194.753906 78.820312 194.753906 C 84.402344 194.753906 88.628906 196.160156 91.457031 197.550781 C 92.871094 198.25 93.933594 198.949219 94.640625 199.460938 C 94.988281 199.722656 95.25 199.9375 95.425781 200.082031 L 95.617188 200.25 L 95.660156 200.292969 L 95.671875 200.300781 C 95.839844 200.464844 96.089844 200.53125 96.320312 200.472656 C 96.550781 200.417969 96.738281 200.246094 96.8125 200.015625 L 96.816406 200.007812 C 96.941406 199.644531 99.574219 192.222656 110.4375 183.261719 C 118.25 176.804688 127.519531 176.15625 130.832031 176.160156 C 131.234375 176.160156 131.550781 176.167969 131.761719 176.179688 C 131.867188 176.183594 131.945312 176.183594 132 176.1875 L 132.074219 176.195312 C 132.308594 176.214844 132.53125 176.117188 132.675781 175.929688 C 132.820312 175.746094 132.863281 175.503906 132.789062 175.285156 L 132.128906 175.503906 " fill-opacity="1" fill-rule="nonzero"/><path fill="#323f47" d="M 53.195312 201.457031 L 44.074219 174.65625 C 46.5625 172.75 60.960938 162.125 81.003906 155.296875 C 83.207031 154.546875 85.386719 153.871094 87.527344 153.265625 C 78.753906 160.289062 63.777344 162.234375 58.960938 173.164062 C 55.714844 180.515625 62.972656 186.03125 69.578125 186.699219 C 74.453125 187.195312 78.507812 186.246094 83.199219 188.339844 C 86.433594 189.785156 93.359375 193.882812 94.871094 197.933594 C 92.289062 196.175781 86.886719 193.367188 78.820312 193.367188 C 78.054688 193.367188 77.265625 193.390625 76.457031 193.445312 C 65.335938 194.191406 55.886719 199.738281 53.195312 201.457031 " fill-opacity="1" fill-rule="nonzero"/><path fill="#26103b" d="M 52.832031 202.527344 L 43.261719 174.40625 C 43.261719 174.40625 58.550781 162.21875 80.78125 154.640625 C 83.488281 153.714844 86.152344 152.917969 88.75 152.210938 C 88.359375 152.578125 87.949219 152.929688 87.527344 153.265625 C 85.386719 153.871094 83.207031 154.546875 81.003906 155.296875 C 60.960938 162.125 46.5625 172.75 44.074219 174.65625 L 53.195312 201.457031 C 55.886719 199.738281 65.335938 194.191406 76.457031 193.445312 C 77.265625 193.390625 78.054688 193.367188 78.820312 193.367188 C 86.886719 193.367188 92.289062 196.175781 94.871094 197.933594 C 95 198.277344 95.09375 198.628906 95.132812 198.972656 C 93.007812 197.386719 87.515625 194.0625 78.828125 194.0625 C 78.078125 194.0625 77.300781 194.085938 76.503906 194.136719 C 63.585938 194.992188 52.832031 202.527344 52.832031 202.527344 " fill-opacity="1" fill-rule="nonzero"/><path fill="#2e1449" d="M 136.394531 132.558594 L 136.65625 163.242188 C 136.660156 163.621094 136.972656 163.929688 137.355469 163.925781 C 137.738281 163.921875 138.042969 163.609375 138.039062 163.230469 L 137.777344 132.546875 C 137.773438 132.167969 137.460938 131.859375 137.082031 131.859375 C 136.699219 131.863281 136.390625 132.179688 136.394531 132.558594 " fill-opacity="1" fill-rule="nonzero"/><path fill="#fddd10" d="M 139.320312 165.128906 C 139.335938 166.199219 138.488281 167.078125 137.425781 167.101562 C 136.355469 167.121094 135.476562 166.269531 135.453125 165.203125 C 135.433594 164.136719 136.285156 163.257812 137.347656 163.234375 C 138.414062 163.214844 139.296875 164.0625 139.320312 165.128906 " fill-opacity="1" fill-rule="nonzero"/><path fill="#2e1449" d="M 139.320312 165.128906 L 138.621094 165.144531 L 138.621094 165.167969 C 138.625 165.839844 138.085938 166.394531 137.410156 166.40625 L 137.386719 166.40625 C 136.714844 166.410156 136.160156 165.867188 136.144531 165.191406 L 136.144531 165.164062 C 136.144531 164.492188 136.6875 163.941406 137.363281 163.925781 L 137.386719 163.925781 L 137.386719 163.882812 L 137.386719 163.925781 L 137.386719 163.882812 L 137.386719 163.925781 C 138.054688 163.925781 138.609375 164.46875 138.621094 165.144531 L 139.320312 165.128906 L 140.011719 165.113281 C 139.980469 163.683594 138.8125 162.542969 137.386719 162.542969 L 137.320312 162.542969 L 137.347656 163.234375 L 137.335938 162.542969 C 135.902344 162.566406 134.761719 163.738281 134.761719 165.164062 L 134.761719 165.230469 L 135.453125 165.203125 L 134.761719 165.21875 C 134.792969 166.652344 135.960938 167.789062 137.386719 167.792969 L 137.4375 167.792969 C 138.867188 167.761719 140.011719 166.59375 140.011719 165.167969 L 140.011719 165.117188 L 139.320312 165.128906 " fill-opacity="1" fill-rule="nonzero"/><path fill="#485b68" d="M 76.257812 182.632812 C 80.175781 182.15625 84.488281 183.808594 87.003906 185.527344 C 89.523438 187.25 96.664062 192.445312 96.664062 192.445312 C 96.664062 192.445312 106.1875 178.777344 114.65625 175.886719 C 123.121094 173.003906 129.242188 172.675781 129.242188 172.675781 L 122.28125 152.230469 C 122.28125 152.230469 107.101562 151.167969 92.691406 155.21875 C 86.902344 156.847656 63.28125 167.054688 63.46875 175.066406 C 63.648438 183.074219 72.339844 183.113281 76.257812 182.632812 " fill-opacity="1" fill-rule="nonzero"/><path fill="#f89f74" d="M 246.007812 312.617188 L 222.316406 327.238281 C 222.316406 327.238281 216.441406 318.867188 214.277344 315.359375 C 212.113281 311.851562 194.3125 307.375 189.574219 299.6875 C 187.824219 296.847656 185.425781 292.960938 182.839844 288.761719 C 178.652344 281.976562 184.214844 269.3125 184.214844 269.3125 L 224.960938 264.929688 L 238.992188 285.835938 L 237.96875 299.378906 L 246.007812 312.617188 " fill-opacity="1" fill-rule="nonzero"/><path fill="#2e1449" d="M 246.007812 312.617188 L 245.53125 311.847656 L 221.84375 326.46875 L 222.316406 327.238281 L 223.054688 326.714844 C 223.054688 326.714844 222.691406 326.195312 222.105469 325.359375 C 220.359375 322.847656 216.636719 317.472656 215.042969 314.882812 C 214.644531 314.253906 214.042969 313.757812 213.292969 313.242188 C 211.972656 312.355469 210.144531 311.464844 208.050781 310.488281 C 204.910156 309.023438 201.1875 307.390625 197.890625 305.511719 C 194.59375 303.640625 191.742188 301.503906 190.34375 299.210938 C 188.59375 296.375 186.191406 292.484375 183.605469 288.285156 C 182.582031 286.636719 182.179688 284.511719 182.179688 282.261719 C 182.179688 279.269531 182.890625 276.097656 183.609375 273.699219 C 183.972656 272.496094 184.332031 271.488281 184.597656 270.777344 C 184.734375 270.425781 184.847656 270.148438 184.921875 269.957031 C 184.964844 269.863281 184.996094 269.792969 185.015625 269.742188 L 185.039062 269.679688 L 184.214844 269.3125 L 184.308594 270.210938 L 224.515625 265.882812 L 238.066406 286.078125 L 237.070312 299.3125 C 237.058594 299.496094 237.097656 299.683594 237.199219 299.847656 L 245.234375 313.085938 L 246.007812 312.617188 L 245.53125 311.847656 L 246.007812 312.617188 L 246.78125 312.148438 L 238.894531 299.15625 L 239.890625 285.898438 C 239.90625 285.703125 239.851562 285.496094 239.742188 285.328125 L 225.714844 264.421875 C 225.523438 264.144531 225.195312 263.992188 224.867188 264.03125 L 184.121094 268.414062 C 183.796875 268.449219 183.519531 268.65625 183.390625 268.949219 C 183.378906 268.976562 182.628906 270.675781 181.878906 273.179688 C 181.132812 275.683594 180.375 278.988281 180.375 282.261719 C 180.375 284.714844 180.800781 287.175781 182.066406 289.234375 C 184.65625 293.433594 187.054688 297.324219 188.804688 300.164062 C 190.105469 302.265625 192.207031 304.046875 194.632812 305.644531 C 198.277344 308.035156 202.691406 310 206.378906 311.707031 C 208.226562 312.554688 209.886719 313.339844 211.15625 314.054688 C 211.792969 314.414062 212.324219 314.75 212.726562 315.0625 C 213.136719 315.367188 213.398438 315.652344 213.507812 315.832031 C 214.609375 317.621094 216.621094 320.589844 218.363281 323.128906 C 220.109375 325.664062 221.574219 327.753906 221.574219 327.757812 C 221.851562 328.148438 222.386719 328.257812 222.792969 328.007812 L 246.484375 313.386719 C 246.90625 313.121094 247.039062 312.570312 246.78125 312.148438 L 246.007812 312.617188 " fill-opacity="1" fill-rule="nonzero"/><path fill="#f89f74" d="M 195.339844 287.359375 C 195.339844 287.359375 178.753906 260.457031 171.75 249.09375 C 165.875 239.5625 177.042969 232.902344 182.816406 242.261719 C 189.617188 253.292969 203.320312 275.515625 203.320312 275.515625 " fill-opacity="1" fill-rule="nonzero"/><path fill="#2e1449" d="M 196.113281 286.890625 C 196.113281 286.890625 179.523438 259.980469 172.519531 248.617188 C 171.425781 246.847656 170.992188 245.238281 170.992188 243.867188 C 170.996094 242.269531 171.570312 240.988281 172.472656 240.085938 C 173.375 239.179688 174.601562 238.65625 175.953125 238.65625 C 177.921875 238.660156 180.203125 239.765625 182.046875 242.734375 C 188.847656 253.761719 202.550781 275.992188 202.550781 275.992188 C 202.8125 276.414062 203.367188 276.546875 203.792969 276.285156 C 204.21875 276.023438 204.347656 275.46875 204.089844 275.042969 C 204.089844 275.042969 190.386719 252.816406 183.582031 241.785156 C 181.511719 238.402344 178.632812 236.84375 175.953125 236.851562 C 174.132812 236.851562 172.429688 237.5625 171.191406 238.804688 C 169.949219 240.046875 169.183594 241.824219 169.1875 243.867188 C 169.1875 245.621094 169.742188 247.5625 170.976562 249.570312 C 177.984375 260.929688 194.574219 287.835938 194.574219 287.835938 C 194.835938 288.261719 195.390625 288.390625 195.816406 288.128906 C 196.242188 287.871094 196.375 287.3125 196.113281 286.890625 " fill-opacity="1" fill-rule="nonzero"/><path fill="#f89f74" d="M 203.320312 275.515625 C 203.320312 275.515625 199.171875 268.789062 196.582031 264.589844 C 191.46875 256.296875 200.945312 250.453125 206.054688 258.742188 C 208.566406 262.816406 212.792969 269.671875 212.792969 269.671875 " fill-opacity="1" fill-rule="nonzero"/><path fill="#2e1449" d="M 204.089844 275.042969 C 204.089844 275.042969 199.941406 268.3125 197.347656 264.113281 C 196.390625 262.558594 196.019531 261.148438 196.015625 259.964844 C 196.019531 258.625 196.488281 257.558594 197.21875 256.808594 C 197.949219 256.0625 198.941406 255.632812 200.050781 255.632812 C 201.695312 255.636719 203.652344 256.582031 205.289062 259.214844 C 207.796875 263.289062 212.023438 270.144531 212.023438 270.144531 C 212.285156 270.570312 212.847656 270.699219 213.269531 270.441406 C 213.695312 270.175781 213.828125 269.617188 213.566406 269.195312 C 213.566406 269.195312 212.507812 267.484375 211.132812 265.257812 C 209.765625 263.035156 208.082031 260.300781 206.824219 258.265625 C 204.96875 255.234375 202.425781 253.820312 200.050781 253.824219 C 198.46875 253.820312 196.992188 254.453125 195.925781 255.542969 C 194.859375 256.636719 194.207031 258.1875 194.207031 259.964844 C 194.207031 261.539062 194.710938 263.273438 195.8125 265.0625 C 197.105469 267.164062 198.792969 269.890625 200.152344 272.101562 C 201.511719 274.3125 202.550781 275.988281 202.550781 275.992188 C 202.8125 276.414062 203.367188 276.546875 203.792969 276.285156 C 204.21875 276.023438 204.347656 275.46875 204.089844 275.042969 " fill-opacity="1" fill-rule="nonzero"/><path fill="#f89f74" d="M 213.722656 271.175781 C 213.722656 271.175781 209.984375 265.113281 207.394531 260.914062 C 203.210938 254.128906 211.242188 248.941406 215.527344 255.890625 C 218.042969 259.964844 222.269531 266.824219 222.269531 266.824219 " fill-opacity="1" fill-rule="nonzero"/><path fill="#2e1449" d="M 214.488281 270.699219 C 214.488281 270.699219 210.753906 264.636719 208.164062 260.4375 C 207.417969 259.222656 207.125 258.121094 207.125 257.175781 C 207.128906 256.054688 207.53125 255.148438 208.15625 254.507812 C 208.785156 253.871094 209.628906 253.5 210.554688 253.5 C 211.875 253.503906 213.4375 254.238281 214.757812 256.367188 C 216.015625 258.40625 217.699219 261.140625 219.070312 263.359375 C 220.441406 265.582031 221.5 267.296875 221.5 267.296875 C 221.757812 267.722656 222.316406 267.851562 222.738281 267.59375 C 223.164062 267.332031 223.300781 266.769531 223.035156 266.347656 C 223.035156 266.347656 218.8125 259.496094 216.296875 255.417969 C 214.75 252.886719 212.589844 251.683594 210.554688 251.691406 C 209.140625 251.691406 207.820312 252.265625 206.867188 253.246094 C 205.90625 254.21875 205.320312 255.609375 205.320312 257.175781 C 205.320312 258.496094 205.730469 259.9375 206.628906 261.386719 C 207.921875 263.488281 209.503906 266.050781 210.761719 268.09375 C 212.015625 270.132812 212.953125 271.648438 212.953125 271.648438 C 213.214844 272.074219 213.769531 272.207031 214.195312 271.945312 C 214.617188 271.679688 214.75 271.125 214.488281 270.699219 " fill-opacity="1" fill-rule="nonzero"/><path fill="#f89f74" d="M 222.578125 267.324219 C 222.578125 267.324219 220.078125 263.265625 217.488281 259.066406 C 212.996094 251.78125 220.769531 248.457031 224.601562 254.675781 C 226.273438 257.390625 235.101562 271.703125 238.265625 281.859375 C 240.492188 289 237.316406 298.515625 238.074219 299.75 " fill-opacity="1" fill-rule="nonzero"/><path fill="#2e1449" d="M 223.34375 266.847656 C 223.34375 266.847656 220.84375 262.789062 218.253906 258.59375 C 217.363281 257.144531 217.03125 255.929688 217.03125 255.003906 C 217.039062 254.082031 217.335938 253.445312 217.785156 253.003906 C 218.234375 252.566406 218.867188 252.3125 219.621094 252.3125 C 220.914062 252.3125 222.5625 253.097656 223.832031 255.152344 C 224.667969 256.503906 227.28125 260.742188 230.082031 265.90625 C 232.878906 271.066406 235.859375 277.160156 237.402344 282.132812 C 237.960938 283.925781 238.167969 285.917969 238.167969 287.910156 C 238.167969 290.210938 237.894531 292.5 237.617188 294.441406 C 237.480469 295.417969 237.339844 296.304688 237.230469 297.078125 C 237.125 297.847656 237.050781 298.5 237.050781 299.042969 C 237.050781 299.242188 237.058594 299.425781 237.089844 299.617188 C 237.121094 299.804688 237.171875 300.003906 237.304688 300.222656 C 237.570312 300.652344 238.125 300.78125 238.550781 300.515625 C 238.972656 300.25 239.105469 299.695312 238.839844 299.269531 L 238.550781 299.453125 L 238.875 299.339844 L 238.839844 299.269531 L 238.550781 299.453125 L 238.875 299.339844 L 238.863281 299.347656 L 238.878906 299.34375 L 238.875 299.339844 L 238.863281 299.347656 L 238.878906 299.34375 C 238.871094 299.328125 238.855469 299.214844 238.855469 299.042969 C 238.855469 298.675781 238.917969 298.070312 239.023438 297.324219 C 239.332031 295.078125 239.976562 291.570312 239.976562 287.910156 C 239.976562 285.796875 239.761719 283.628906 239.128906 281.59375 C 237.515625 276.40625 234.492188 270.261719 231.667969 265.046875 C 228.84375 259.832031 226.210938 255.5625 225.371094 254.199219 C 223.847656 251.71875 221.648438 250.503906 219.621094 250.503906 C 218.453125 250.503906 217.339844 250.917969 216.523438 251.710938 C 215.707031 252.503906 215.21875 253.664062 215.222656 255.003906 C 215.226562 256.355469 215.695312 257.882812 216.71875 259.539062 C 219.304688 263.742188 221.808594 267.800781 221.808594 267.800781 C 222.070312 268.222656 222.625 268.355469 223.050781 268.09375 C 223.476562 267.828125 223.605469 267.273438 223.34375 266.847656 " fill-opacity="1" fill-rule="nonzero"/><path fill="#ffffff" d="M 219.191406 329.53125 L 248.363281 311.527344 L 244.421875 305.132812 L 215.246094 323.140625 L 219.191406 329.53125 " fill-opacity="1" fill-rule="nonzero"/><path fill="#2e1449" d="M 219.191406 329.53125 L 219.664062 330.304688 L 248.835938 312.296875 C 249.042969 312.171875 249.183594 311.972656 249.242188 311.738281 C 249.296875 311.5 249.257812 311.257812 249.128906 311.050781 L 245.191406 304.660156 C 244.925781 304.234375 244.367188 304.101562 243.945312 304.363281 L 214.769531 322.371094 C 214.347656 322.632812 214.214844 323.1875 214.476562 323.613281 L 218.417969 330.007812 C 218.546875 330.214844 218.746094 330.359375 218.980469 330.414062 C 219.21875 330.46875 219.457031 330.429688 219.664062 330.304688 L 219.191406 329.53125 L 219.960938 329.058594 L 216.492188 323.4375 L 244.125 306.378906 L 247.117188 311.234375 L 218.714844 328.765625 L 219.191406 329.53125 L 219.960938 329.058594 L 219.191406 329.53125 " fill-opacity="1" fill-rule="nonzero"/><path fill="#f1511b" d="M 232.9375 358.535156 L 268.101562 336.832031 L 251.355469 309.679688 L 216.195312 331.382812 L 232.9375 358.535156 " fill-opacity="1" fill-rule="nonzero"/><path fill="#2e1449" d="M 232.9375 358.535156 L 233.410156 359.304688 L 268.570312 337.605469 C 268.777344 337.476562 268.921875 337.277344 268.980469 337.042969 C 269.03125 336.808594 268.996094 336.566406 268.867188 336.359375 L 252.125 309.203125 C 251.863281 308.78125 251.304688 308.648438 250.878906 308.910156 L 215.71875 330.613281 C 215.296875 330.875 215.164062 331.433594 215.425781 331.859375 L 232.164062 359.007812 C 232.296875 359.21875 232.492188 359.359375 232.730469 359.417969 C 232.960938 359.472656 233.203125 359.429688 233.410156 359.304688 L 232.9375 358.535156 L 233.707031 358.0625 L 217.4375 331.679688 L 251.0625 310.921875 L 266.855469 336.539062 L 232.460938 357.769531 L 232.9375 358.535156 L 233.707031 358.0625 L 232.9375 358.535156 " fill-opacity="1" fill-rule="nonzero"/><path fill="#ffffff" d="M 374.089844 145 C 374.089844 166.394531 356.753906 183.734375 335.375 183.734375 C 313.996094 183.734375 296.664062 166.394531 296.664062 145 C 296.664062 123.613281 313.996094 106.269531 335.375 106.269531 C 356.753906 106.269531 374.089844 123.613281 374.089844 145 " fill-opacity="1" fill-rule="nonzero"/><path fill="#2e1449" d="M 374.089844 145 L 373.242188 145 C 373.242188 155.464844 369.003906 164.933594 362.148438 171.792969 C 355.292969 178.652344 345.835938 182.886719 335.375 182.886719 C 324.917969 182.886719 315.453125 178.652344 308.597656 171.792969 C 301.746094 164.933594 297.507812 155.464844 297.507812 145 C 297.507812 134.539062 301.746094 125.070312 308.597656 118.210938 C 315.453125 111.351562 324.917969 107.117188 335.375 107.113281 C 345.835938 107.117188 355.292969 111.351562 362.148438 118.210938 C 369.003906 125.070312 373.242188 134.539062 373.242188 145 L 374.933594 145 C 374.933594 123.144531 357.222656 105.425781 335.375 105.425781 C 313.527344 105.425781 295.820312 123.144531 295.820312 145 C 295.820312 166.859375 313.527344 184.582031 335.375 184.582031 C 357.222656 184.582031 374.933594 166.859375 374.933594 145 L 374.089844 145 " fill-opacity="1" fill-rule="nonzero"/><path fill="#ffffff" d="M 287.242188 98.296875 C 287.242188 119.6875 269.90625 137.027344 248.53125 137.027344 C 227.148438 137.027344 209.816406 119.6875 209.816406 98.296875 C 209.816406 76.902344 227.148438 59.5625 248.53125 59.5625 C 269.90625 59.5625 287.242188 76.902344 287.242188 98.296875 " fill-opacity="1" fill-rule="nonzero"/><path fill="#2e1449" d="M 287.242188 98.296875 L 286.394531 98.296875 C 286.394531 108.761719 282.160156 118.226562 275.304688 125.085938 C 268.449219 131.941406 258.988281 136.179688 248.53125 136.179688 C 238.070312 136.179688 228.609375 131.941406 221.75 125.085938 C 214.898438 118.226562 210.664062 108.761719 210.664062 98.296875 C 210.664062 87.828125 214.898438 78.363281 221.75 71.507812 C 228.609375 64.648438 238.070312 60.410156 248.53125 60.410156 C 258.988281 60.410156 268.449219 64.648438 275.304688 71.507812 C 282.160156 78.363281 286.394531 87.828125 286.394531 98.296875 L 288.085938 98.296875 C 288.085938 76.4375 270.375 58.714844 248.53125 58.714844 C 226.679688 58.714844 208.96875 76.4375 208.96875 98.296875 C 208.96875 120.15625 226.679688 137.871094 248.53125 137.871094 C 270.375 137.871094 288.085938 120.15625 288.085938 98.296875 L 287.242188 98.296875 " fill-opacity="1" fill-rule="nonzero"/><path fill="#ffffff" d="M 78.238281 92.128906 C 78.238281 113.519531 60.902344 130.863281 39.527344 130.863281 C 18.144531 130.863281 0.816406 113.519531 0.816406 92.128906 C 0.816406 70.738281 18.144531 53.398438 39.527344 53.398438 C 60.902344 53.398438 78.238281 70.738281 78.238281 92.128906 " fill-opacity="1" fill-rule="nonzero"/><path fill="#2e1449" d="M 78.238281 92.128906 L 77.394531 92.128906 C 77.390625 102.59375 73.15625 112.0625 66.300781 118.917969 C 59.445312 125.777344 49.984375 130.015625 39.527344 130.015625 C 29.066406 130.015625 19.605469 125.777344 12.75 118.917969 C 5.898438 112.0625 1.660156 102.59375 1.660156 92.128906 C 1.660156 81.664062 5.898438 72.199219 12.75 65.339844 C 19.605469 58.484375 29.066406 54.242188 39.527344 54.242188 C 49.984375 54.242188 59.445312 58.484375 66.300781 65.339844 C 73.15625 72.199219 77.390625 81.664062 77.394531 92.128906 L 79.082031 92.128906 C 79.082031 70.269531 61.371094 52.550781 39.527344 52.550781 C 17.675781 52.550781 -0.0351562 70.269531 -0.0351562 92.128906 C -0.0351562 113.988281 17.675781 131.707031 39.527344 131.707031 C 61.371094 131.707031 79.082031 113.988281 79.082031 92.128906 L 78.238281 92.128906 " fill-opacity="1" fill-rule="nonzero"/><path fill="#ffffff" d="M 194.375 69.992188 C 194.375 91.382812 177.042969 108.726562 155.664062 108.726562 C 134.28125 108.726562 116.949219 91.382812 116.949219 69.992188 C 116.949219 48.597656 134.28125 31.261719 155.664062 31.261719 C 177.042969 31.261719 194.375 48.597656 194.375 69.992188 " fill-opacity="1" fill-rule="nonzero"/><path fill="#2e1449" d="M 194.375 69.992188 L 193.527344 69.992188 C 193.527344 80.457031 189.292969 89.921875 182.4375 96.785156 C 175.585938 103.640625 166.121094 107.878906 155.664062 107.878906 C 145.203125 107.878906 135.742188 103.640625 128.886719 96.785156 C 122.035156 89.921875 117.796875 80.457031 117.796875 69.992188 C 117.796875 59.53125 122.035156 50.0625 128.886719 43.203125 C 135.742188 36.34375 145.203125 32.109375 155.664062 32.109375 C 166.121094 32.109375 175.585938 36.34375 182.4375 43.203125 C 189.292969 50.0625 193.527344 59.53125 193.527344 69.992188 L 195.21875 69.992188 C 195.21875 48.136719 177.507812 30.414062 155.664062 30.414062 C 133.816406 30.414062 116.105469 48.136719 116.105469 69.992188 C 116.105469 91.851562 133.816406 109.574219 155.664062 109.574219 C 177.507812 109.574219 195.21875 91.851562 195.21875 69.992188 L 194.375 69.992188 " fill-opacity="1" fill-rule="nonzero"/><path fill="#d57ac3" d="M 327.679688 167.667969 L 318.960938 167.667969 L 318.960938 116.28125 L 327.679688 116.28125 L 327.679688 167.667969 " fill-opacity="1" fill-rule="nonzero"/><path fill="#2e1449" d="M 327.679688 167.667969 L 327.679688 166.875 L 319.757812 166.875 L 319.757812 117.078125 L 326.886719 117.078125 L 326.886719 167.667969 L 327.679688 167.667969 L 327.679688 166.875 L 327.679688 167.667969 L 328.472656 167.667969 L 328.472656 116.28125 C 328.472656 116.074219 328.386719 115.871094 328.242188 115.722656 C 328.09375 115.574219 327.886719 115.492188 327.679688 115.492188 L 318.960938 115.492188 C 318.75 115.492188 318.550781 115.574219 318.402344 115.722656 C 318.253906 115.871094 318.167969 116.074219 318.167969 116.28125 L 318.167969 167.667969 C 318.167969 167.878906 318.253906 168.078125 318.402344 168.226562 C 318.550781 168.375 318.75 168.460938 318.960938 168.460938 L 327.679688 168.460938 C 327.886719 168.460938 328.09375 168.375 328.242188 168.226562 C 328.386719 168.078125 328.472656 167.878906 328.472656 167.667969 L 327.679688 167.667969 " fill-opacity="1" fill-rule="nonzero"/><path fill="#d57ac3" d="M 341.683594 167.667969 L 332.960938 167.667969 L 332.960938 129.578125 L 341.683594 129.578125 L 341.683594 167.667969 " fill-opacity="1" fill-rule="nonzero"/><path fill="#2e1449" d="M 341.683594 167.667969 L 341.683594 166.875 L 333.757812 166.875 L 333.757812 130.371094 L 340.890625 130.371094 L 340.890625 167.667969 L 341.683594 167.667969 L 341.683594 166.875 L 341.683594 167.667969 L 342.476562 167.667969 L 342.476562 129.578125 C 342.476562 129.371094 342.390625 129.167969 342.242188 129.019531 C 342.09375 128.871094 341.890625 128.789062 341.683594 128.789062 L 332.960938 128.789062 C 332.757812 128.789062 332.550781 128.871094 332.402344 129.019531 C 332.253906 129.167969 332.171875 129.371094 332.171875 129.578125 L 332.171875 167.667969 C 332.171875 167.878906 332.253906 168.078125 332.402344 168.226562 C 332.550781 168.375 332.757812 168.460938 332.960938 168.460938 L 341.683594 168.460938 C 341.890625 168.460938 342.09375 168.375 342.242188 168.226562 C 342.390625 168.078125 342.476562 167.878906 342.476562 167.667969 L 341.683594 167.667969 " fill-opacity="1" fill-rule="nonzero"/><path fill="#d57ac3" d="M 354.890625 167.667969 L 346.171875 167.667969 L 346.171875 147.273438 L 354.890625 147.273438 L 354.890625 167.667969 " fill-opacity="1" fill-rule="nonzero"/><path fill="#2e1449" d="M 354.890625 167.667969 L 354.890625 166.875 L 346.96875 166.875 L 346.96875 148.0625 L 354.101562 148.0625 L 354.101562 167.667969 L 354.890625 167.667969 L 354.890625 166.875 L 354.890625 167.667969 L 355.6875 167.667969 L 355.6875 147.273438 C 355.6875 147.0625 355.601562 146.859375 355.453125 146.714844 C 355.304688 146.566406 355.101562 146.480469 354.890625 146.480469 L 346.171875 146.480469 C 345.96875 146.480469 345.761719 146.566406 345.613281 146.714844 C 345.464844 146.859375 345.382812 147.0625 345.382812 147.273438 L 345.382812 167.667969 C 345.382812 167.878906 345.464844 168.078125 345.613281 168.226562 C 345.761719 168.375 345.96875 168.460938 346.171875 168.460938 L 354.890625 168.460938 C 355.101562 168.460938 355.304688 168.375 355.453125 168.226562 C 355.601562 168.078125 355.6875 167.878906 355.6875 167.667969 L 354.890625 167.667969 " fill-opacity="1" fill-rule="nonzero"/><path fill="#2e1449" d="M 359.914062 166.875 L 312.621094 166.875 C 312.183594 166.875 311.828125 167.230469 311.828125 167.667969 C 311.828125 168.105469 312.183594 168.460938 312.621094 168.460938 L 359.914062 168.460938 C 360.351562 168.460938 360.703125 168.105469 360.703125 167.667969 C 360.703125 167.230469 360.351562 166.875 359.914062 166.875 " fill-opacity="1" fill-rule="nonzero"/><path fill="#7d7b7b" d="M 46.910156 120.949219 C 46.910156 120.949219 47.148438 123.984375 39.277344 123.984375 C 31.410156 123.984375 32.082031 120.949219 32.082031 120.949219 L 32.082031 110.113281 L 46.910156 110.113281 L 46.910156 120.949219 " fill-opacity="1" fill-rule="nonzero"/><path fill="#2e1449" d="M 46.910156 120.949219 L 46.332031 120.988281 L 46.503906 120.976562 L 46.332031 120.976562 L 46.332031 120.988281 L 46.503906 120.976562 L 46.332031 120.976562 C 46.332031 120.988281 46.332031 121.128906 46.234375 121.339844 C 46.089844 121.644531 45.742188 122.136719 44.722656 122.585938 C 43.703125 123.03125 42.011719 123.40625 39.277344 123.40625 C 35.980469 123.40625 34.28125 122.851562 33.46875 122.3125 C 33.0625 122.042969 32.871094 121.789062 32.765625 121.582031 C 32.664062 121.378906 32.644531 121.214844 32.644531 121.125 L 32.648438 121.066406 L 32.648438 121.0625 L 32.324219 121.003906 L 32.644531 121.078125 L 32.648438 121.0625 L 32.324219 121.003906 L 32.644531 121.078125 L 32.660156 120.949219 L 32.660156 110.691406 L 46.332031 110.691406 L 46.332031 120.988281 L 46.910156 120.949219 L 47.488281 120.949219 L 47.488281 110.113281 C 47.488281 109.960938 47.425781 109.8125 47.316406 109.707031 C 47.210938 109.597656 47.0625 109.535156 46.910156 109.535156 L 32.082031 109.535156 C 31.929688 109.535156 31.78125 109.597656 31.675781 109.707031 C 31.570312 109.8125 31.507812 109.960938 31.507812 110.113281 L 31.507812 120.949219 L 32.082031 120.949219 L 31.519531 120.824219 C 31.511719 120.855469 31.492188 120.964844 31.492188 121.125 C 31.492188 121.359375 31.539062 121.714844 31.734375 122.105469 C 32.03125 122.695312 32.667969 123.332031 33.832031 123.785156 C 35.003906 124.246094 36.710938 124.558594 39.277344 124.558594 C 43.050781 124.558594 45.078125 123.886719 46.214844 123.0625 C 46.78125 122.65625 47.109375 122.203125 47.285156 121.820312 C 47.460938 121.433594 47.488281 121.121094 47.488281 120.976562 L 47.484375 120.90625 L 46.910156 120.949219 L 47.488281 120.949219 L 46.910156 120.949219 " fill-opacity="1" fill-rule="nonzero"/><path fill="#f68712" d="M 39.527344 59.5625 C 27.367188 59.5625 19.21875 68.503906 19.21875 78.296875 C 19.21875 90.585938 26.210938 94.101562 28.667969 98.292969 C 31.125 102.480469 29.679688 109.390625 32.277344 109.390625 C 34.875 109.390625 39.527344 109.390625 39.527344 109.390625 C 39.527344 109.390625 44.175781 109.390625 46.773438 109.390625 C 49.375 109.390625 47.929688 102.480469 50.382812 98.292969 C 52.839844 94.101562 59.832031 90.585938 59.832031 78.296875 C 59.832031 68.503906 51.914062 59.5625 39.527344 59.5625 " fill-opacity="1" fill-rule="nonzero"/><path fill="#2e1449" d="M 39.527344 59.5625 L 39.527344 58.984375 C 33.304688 58.984375 28.074219 61.277344 24.410156 64.84375 C 20.746094 68.40625 18.644531 73.238281 18.644531 78.296875 C 18.636719 84.550781 20.4375 88.652344 22.550781 91.664062 C 24.65625 94.667969 27.035156 96.625 28.167969 98.585938 C 29.308594 100.515625 29.578125 103.21875 29.84375 105.480469 C 29.980469 106.617188 30.117188 107.636719 30.417969 108.449219 C 30.574219 108.855469 30.773438 109.222656 31.085938 109.511719 C 31.390625 109.800781 31.824219 109.972656 32.277344 109.96875 C 34.875 109.96875 39.527344 109.96875 39.527344 109.96875 C 39.527344 109.96875 44.175781 109.96875 46.773438 109.96875 C 47.226562 109.972656 47.660156 109.800781 47.964844 109.511719 C 48.503906 109 48.726562 108.28125 48.910156 107.453125 C 49.167969 106.199219 49.273438 104.632812 49.519531 103.042969 C 49.757812 101.449219 50.136719 99.851562 50.878906 98.585938 C 52.015625 96.625 54.390625 94.667969 56.503906 91.664062 C 58.613281 88.652344 60.414062 84.550781 60.410156 78.296875 C 60.410156 73.242188 58.367188 68.410156 54.730469 64.84375 C 51.09375 61.277344 45.859375 58.980469 39.527344 58.984375 L 39.527344 60.140625 C 45.582031 60.140625 50.5 62.320312 53.917969 65.667969 C 57.339844 69.023438 59.253906 73.554688 59.253906 78.296875 C 59.25 84.332031 57.550781 88.132812 55.554688 91 C 53.554688 93.875 51.207031 95.769531 49.882812 98 C 48.570312 100.257812 48.335938 103.101562 48.058594 105.34375 C 47.929688 106.460938 47.78125 107.429688 47.546875 108.042969 C 47.433594 108.347656 47.300781 108.550781 47.183594 108.660156 C 47.0625 108.765625 46.96875 108.808594 46.773438 108.8125 C 45.476562 108.8125 43.660156 108.8125 42.171875 108.8125 C 40.6875 108.8125 39.527344 108.8125 39.527344 108.8125 C 39.527344 108.8125 34.875 108.8125 32.277344 108.8125 C 32.078125 108.808594 31.988281 108.765625 31.863281 108.660156 C 31.652344 108.480469 31.421875 107.960938 31.273438 107.210938 C 31.035156 106.09375 30.925781 104.515625 30.675781 102.867188 C 30.421875 101.21875 30.03125 99.484375 29.164062 98 C 27.84375 95.769531 25.492188 93.875 23.496094 91 C 21.496094 88.132812 19.804688 84.332031 19.796875 78.296875 C 19.804688 68.828125 27.660156 60.144531 39.527344 60.140625 L 39.527344 59.5625 " fill-opacity="1" fill-rule="nonzero"/><path fill="#d56a11" d="M 39.1875 108.8125 C 38.074219 108.8125 34.457031 108.8125 32.277344 108.8125 C 32.078125 108.808594 31.988281 108.765625 31.863281 108.660156 C 31.652344 108.480469 31.421875 107.960938 31.273438 107.210938 C 31.035156 106.09375 30.925781 104.515625 30.675781 102.867188 C 30.421875 101.21875 30.03125 99.484375 29.164062 98 C 27.84375 95.769531 25.492188 93.875 23.496094 91 C 21.496094 88.132812 19.804688 84.332031 19.796875 78.296875 C 19.804688 71.4375 23.921875 64.996094 30.703125 61.957031 C 27.410156 66.566406 25.695312 72.378906 26.351562 77.75 C 27.855469 89.941406 34.15625 94.101562 36.609375 98.292969 C 38.636719 101.75 38.003906 107.0625 39.1875 108.8125 " fill-opacity="1" fill-rule="nonzero"/><path fill="#28113b" d="M 40.21875 109.390625 C 39.789062 109.390625 39.527344 109.390625 39.527344 109.390625 C 39.527344 109.390625 34.875 109.390625 32.277344 109.390625 C 29.679688 109.390625 31.125 102.480469 28.667969 98.292969 C 26.210938 94.101562 19.21875 90.585938 19.21875 78.296875 C 19.21875 70.898438 23.875 63.988281 31.390625 61.050781 C 31.152344 61.347656 30.925781 61.652344 30.703125 61.957031 C 23.921875 64.996094 19.804688 71.4375 19.796875 78.296875 C 19.804688 84.332031 21.496094 88.132812 23.496094 91 C 25.492188 93.875 27.84375 95.769531 29.164062 98 C 30.03125 99.484375 30.421875 101.21875 30.675781 102.867188 C 30.925781 104.515625 31.035156 106.09375 31.273438 107.210938 C 31.421875 107.960938 31.652344 108.480469 31.863281 108.660156 C 31.988281 108.765625 32.078125 108.808594 32.277344 108.8125 C 34.457031 108.8125 38.074219 108.8125 39.1875 108.8125 C 39.433594 109.179688 39.765625 109.390625 40.21875 109.390625 " fill-opacity="1" fill-rule="nonzero"/><path fill="#f79610" d="M 52.820312 87.472656 C 49.535156 87.472656 46.175781 83.320312 45.085938 77.703125 C 43.921875 71.671875 45.816406 66.226562 49.328125 65.550781 C 49.570312 65.503906 49.816406 65.480469 50.058594 65.480469 C 53.347656 65.480469 56.707031 69.628906 57.792969 75.242188 C 58.960938 81.277344 57.0625 86.722656 53.554688 87.398438 C 53.3125 87.445312 53.066406 87.472656 52.820312 87.472656 " fill-opacity="1" fill-rule="nonzero"/><path fill="#2e1449" d="M 34.445312 109.390625 L 34.445312 103.613281 C 34.445312 103.292969 34.183594 103.035156 33.867188 103.035156 C 33.546875 103.035156 33.289062 103.292969 33.289062 103.613281 L 33.289062 109.390625 C 33.289062 109.710938 33.546875 109.96875 33.867188 109.96875 C 34.183594 109.96875 34.445312 109.710938 34.445312 109.390625 " fill-opacity="1" fill-rule="nonzero"/><path fill="#2e1449" d="M 37.042969 109.390625 L 37.042969 106.5 C 37.042969 106.179688 36.785156 105.921875 36.464844 105.921875 C 36.144531 105.921875 35.886719 106.179688 35.886719 106.5 L 35.886719 109.390625 C 35.886719 109.710938 36.144531 109.96875 36.464844 109.96875 C 36.785156 109.96875 37.042969 109.710938 37.042969 109.390625 " fill-opacity="1" fill-rule="nonzero"/><path fill="#a7a5a6" d="M 48.304688 112.425781 L 30.6875 112.425781 L 30.6875 109.390625 L 48.304688 109.390625 L 48.304688 112.425781 " fill-opacity="1" fill-rule="nonzero"/><path fill="#2e1449" d="M 48.304688 112.425781 L 48.304688 111.847656 L 31.265625 111.847656 L 31.265625 109.96875 L 47.726562 109.96875 L 47.726562 112.425781 L 48.304688 112.425781 L 48.304688 111.847656 L 48.304688 112.425781 L 48.882812 112.425781 L 48.882812 109.390625 C 48.882812 109.238281 48.824219 109.089844 48.710938 108.984375 C 48.605469 108.875 48.457031 108.8125 48.304688 108.8125 L 30.6875 108.8125 C 30.535156 108.8125 30.386719 108.875 30.277344 108.984375 C 30.171875 109.089844 30.109375 109.238281 30.109375 109.390625 L 30.109375 112.425781 C 30.109375 112.578125 30.171875 112.726562 30.277344 112.832031 C 30.386719 112.941406 30.535156 113 30.6875 113 L 48.304688 113 C 48.460938 113 48.605469 112.945312 48.710938 112.832031 C 48.824219 112.722656 48.882812 112.578125 48.882812 112.425781 L 48.304688 112.425781 " fill-opacity="1" fill-rule="nonzero"/><path fill="#a7a5a6" d="M 48.304688 117.3125 L 30.6875 117.3125 L 30.6875 114.28125 L 48.304688 114.28125 L 48.304688 117.3125 " fill-opacity="1" fill-rule="nonzero"/><path fill="#2e1449" d="M 48.304688 117.3125 L 48.304688 116.734375 L 31.265625 116.734375 L 31.265625 114.859375 L 47.726562 114.859375 L 47.726562 117.3125 L 48.304688 117.3125 L 48.304688 116.734375 L 48.304688 117.3125 L 48.882812 117.3125 L 48.882812 114.28125 C 48.882812 114.128906 48.824219 113.980469 48.710938 113.871094 C 48.605469 113.761719 48.457031 113.703125 48.304688 113.703125 L 30.6875 113.703125 C 30.535156 113.703125 30.386719 113.761719 30.277344 113.871094 C 30.171875 113.980469 30.109375 114.128906 30.109375 114.28125 L 30.109375 117.3125 C 30.109375 117.464844 30.171875 117.613281 30.277344 117.71875 C 30.386719 117.832031 30.535156 117.890625 30.6875 117.890625 L 48.304688 117.890625 C 48.460938 117.890625 48.605469 117.832031 48.710938 117.71875 C 48.824219 117.613281 48.882812 117.464844 48.882812 117.3125 L 48.304688 117.3125 " fill-opacity="1" fill-rule="nonzero"/><path fill="#a7a5a6" d="M 48.304688 121.886719 L 30.6875 121.886719 L 30.6875 118.855469 L 48.304688 118.855469 L 48.304688 121.886719 " fill-opacity="1" fill-rule="nonzero"/><path fill="#2e1449" d="M 48.304688 121.886719 L 48.304688 121.308594 L 31.265625 121.308594 L 31.265625 119.433594 L 47.726562 119.433594 L 47.726562 121.886719 L 48.304688 121.886719 L 48.304688 121.308594 L 48.304688 121.886719 L 48.882812 121.886719 L 48.882812 118.855469 C 48.882812 118.703125 48.824219 118.554688 48.710938 118.449219 C 48.605469 118.335938 48.457031 118.277344 48.304688 118.277344 L 30.6875 118.277344 C 30.535156 118.277344 30.386719 118.335938 30.277344 118.449219 C 30.171875 118.554688 30.109375 118.703125 30.109375 118.855469 L 30.109375 121.886719 C 30.109375 122.039062 30.171875 122.1875 30.277344 122.296875 C 30.386719 122.40625 30.535156 122.464844 30.6875 122.464844 L 48.304688 122.464844 C 48.460938 122.464844 48.605469 122.40625 48.710938 122.296875 C 48.824219 122.1875 48.882812 122.039062 48.882812 121.886719 L 48.304688 121.886719 " fill-opacity="1" fill-rule="nonzero"/><path fill="#a06abb" d="M 159.882812 70.167969 C 159.882812 72.5 157.996094 74.390625 155.664062 74.390625 C 153.332031 74.390625 151.441406 72.5 151.441406 70.167969 C 151.441406 67.835938 153.332031 65.941406 155.664062 65.941406 C 157.996094 65.941406 159.882812 67.835938 159.882812 70.167969 " fill-opacity="1" fill-rule="nonzero"/><path fill="#2e1449" d="M 159.882812 70.167969 L 159.027344 70.167969 C 159.023438 72.027344 157.519531 73.527344 155.664062 73.53125 C 153.804688 73.527344 152.300781 72.027344 152.296875 70.167969 C 152.300781 68.308594 153.804688 66.800781 155.664062 66.800781 C 157.519531 66.800781 159.023438 68.308594 159.027344 70.167969 L 160.742188 70.167969 C 160.742188 67.359375 158.46875 65.085938 155.664062 65.082031 C 152.855469 65.085938 150.582031 67.359375 150.582031 70.167969 C 150.582031 72.976562 152.855469 75.246094 155.664062 75.246094 C 158.46875 75.246094 160.742188 72.976562 160.742188 70.167969 L 159.882812 70.167969 " fill-opacity="1" fill-rule="nonzero"/><path fill="#2e1449" d="M 166.125 70.167969 L 165.269531 70.167969 C 165.269531 78.683594 164.101562 86.394531 162.25 91.90625 C 161.324219 94.660156 160.222656 96.859375 159.0625 98.320312 C 158.484375 99.046875 157.898438 99.585938 157.324219 99.933594 C 156.75 100.277344 156.210938 100.4375 155.664062 100.4375 C 155.117188 100.4375 154.570312 100.277344 154 99.933594 C 153 99.328125 151.949219 98.117188 150.988281 96.375 C 149.539062 93.765625 148.296875 90 147.429688 85.5 C 146.558594 81 146.054688 75.757812 146.054688 70.167969 C 146.054688 61.648438 147.222656 53.9375 149.074219 48.429688 C 150 45.675781 151.101562 43.472656 152.257812 42.019531 C 152.839844 41.289062 153.429688 40.753906 154 40.402344 C 154.570312 40.054688 155.117188 39.898438 155.664062 39.894531 C 156.210938 39.898438 156.75 40.054688 157.324219 40.402344 C 158.328125 41.007812 159.375 42.21875 160.339844 43.960938 C 161.785156 46.570312 163.027344 50.335938 163.894531 54.832031 C 164.765625 59.335938 165.269531 64.578125 165.269531 70.167969 L 166.984375 70.167969 C 166.984375 61.488281 165.808594 53.636719 163.875 47.878906 C 162.90625 45.003906 161.75 42.644531 160.40625 40.949219 C 159.734375 40.105469 159.011719 39.421875 158.214844 38.9375 C 157.429688 38.453125 156.558594 38.179688 155.664062 38.179688 C 154.765625 38.179688 153.898438 38.453125 153.109375 38.9375 C 151.722656 39.785156 150.539062 41.230469 149.488281 43.125 C 147.910156 45.976562 146.636719 49.882812 145.742188 54.511719 C 144.847656 59.132812 144.339844 64.472656 144.339844 70.167969 C 144.34375 78.84375 145.519531 86.695312 147.453125 92.453125 C 148.421875 95.332031 149.574219 97.691406 150.917969 99.382812 C 151.589844 100.234375 152.316406 100.914062 153.109375 101.398438 C 153.898438 101.878906 154.765625 102.15625 155.664062 102.15625 C 156.558594 102.15625 157.429688 101.878906 158.214844 101.398438 C 159.601562 100.546875 160.785156 99.101562 161.835938 97.207031 C 163.410156 94.355469 164.6875 90.453125 165.585938 85.824219 C 166.472656 81.199219 166.984375 75.859375 166.984375 70.167969 L 166.125 70.167969 " fill-opacity="1" fill-rule="nonzero"/><path fill="#2e1449" d="M 161.109375 79.101562 L 160.664062 78.371094 C 155.699219 81.402344 150.769531 83.773438 146.335938 85.382812 C 141.90625 86.988281 137.957031 87.824219 135.011719 87.820312 C 133.652344 87.824219 132.507812 87.644531 131.644531 87.316406 C 130.773438 86.980469 130.195312 86.519531 129.835938 85.929688 C 129.550781 85.460938 129.402344 84.914062 129.402344 84.246094 C 129.394531 83.078125 129.882812 81.546875 130.871094 79.820312 C 132.347656 77.222656 134.910156 74.203125 138.296875 71.113281 C 141.683594 68.027344 145.890625 64.875 150.660156 61.960938 C 155.625 58.933594 160.554688 56.5625 164.988281 54.957031 C 169.417969 53.34375 173.367188 52.507812 176.3125 52.511719 C 177.675781 52.507812 178.816406 52.691406 179.679688 53.023438 C 180.550781 53.351562 181.128906 53.8125 181.492188 54.402344 C 181.777344 54.871094 181.921875 55.417969 181.925781 56.09375 C 181.929688 57.257812 181.441406 58.792969 180.453125 60.519531 C 178.980469 63.109375 176.417969 66.136719 173.027344 69.21875 C 169.644531 72.304688 165.433594 75.460938 160.664062 78.371094 L 161.109375 79.101562 L 161.558594 79.835938 C 168.03125 75.882812 173.503906 71.492188 177.382812 67.34375 C 179.324219 65.269531 180.871094 63.253906 181.945312 61.367188 C 183.015625 59.480469 183.636719 57.71875 183.640625 56.09375 C 183.640625 55.164062 183.425781 54.277344 182.957031 53.507812 C 182.363281 52.535156 181.421875 51.84375 180.292969 51.414062 C 179.15625 50.984375 177.820312 50.796875 176.3125 50.792969 C 173.054688 50.796875 168.964844 51.691406 164.40625 53.335938 C 159.84375 54.988281 154.828125 57.410156 149.769531 60.496094 C 143.292969 64.449219 137.824219 68.847656 133.941406 72.992188 C 132 75.070312 130.453125 77.082031 129.378906 78.964844 C 128.308594 80.859375 127.691406 82.621094 127.6875 84.246094 C 127.683594 85.167969 127.898438 86.058594 128.367188 86.824219 C 128.960938 87.800781 129.902344 88.492188 131.03125 88.917969 C 132.164062 89.347656 133.503906 89.539062 135.011719 89.542969 C 138.269531 89.539062 142.359375 88.644531 146.917969 86.996094 C 151.480469 85.34375 156.5 82.925781 161.558594 79.835938 L 161.109375 79.101562 " fill-opacity="1" fill-rule="nonzero"/><path fill="#2e1449" d="M 161.894531 61.757812 L 161.378906 62.449219 C 167.183594 66.75 172.019531 71.382812 175.382812 75.601562 C 177.0625 77.714844 178.371094 79.71875 179.25 81.515625 C 180.132812 83.3125 180.574219 84.894531 180.570312 86.113281 C 180.566406 86.988281 180.363281 87.660156 179.964844 88.191406 C 179.621094 88.660156 179.128906 89.015625 178.449219 89.277344 C 177.765625 89.53125 176.898438 89.667969 175.867188 89.667969 C 173.023438 89.675781 169.023438 88.605469 164.511719 86.585938 C 160 84.5625 154.960938 81.605469 149.941406 77.886719 C 144.136719 73.585938 139.304688 68.953125 135.941406 64.730469 C 134.261719 62.621094 132.953125 60.613281 132.074219 58.816406 C 131.191406 57.023438 130.75 55.4375 130.753906 54.21875 C 130.757812 53.34375 130.960938 52.671875 131.355469 52.140625 C 131.703125 51.671875 132.195312 51.3125 132.878906 51.058594 C 133.558594 50.804688 134.425781 50.664062 135.457031 50.664062 C 138.300781 50.660156 142.300781 51.726562 146.808594 53.75 C 151.324219 55.769531 156.363281 58.726562 161.378906 62.449219 L 161.894531 61.757812 L 162.402344 61.066406 C 157.292969 57.28125 152.160156 54.257812 147.507812 52.179688 C 142.855469 50.101562 138.707031 48.953125 135.457031 48.945312 C 134.277344 48.949219 133.210938 49.101562 132.277344 49.449219 C 131.347656 49.792969 130.546875 50.347656 129.976562 51.117188 C 129.328125 51.992188 129.035156 53.066406 129.035156 54.21875 C 129.039062 55.835938 129.582031 57.625 130.53125 59.570312 C 133.390625 65.390625 140.058594 72.683594 148.917969 79.265625 C 154.03125 83.054688 159.164062 86.070312 163.8125 88.152344 C 168.46875 90.226562 172.617188 91.378906 175.867188 91.382812 C 177.042969 91.382812 178.113281 91.230469 179.046875 90.886719 C 179.976562 90.539062 180.777344 89.984375 181.347656 89.214844 C 181.996094 88.339844 182.285156 87.261719 182.285156 86.113281 C 182.28125 84.5 181.742188 82.707031 180.792969 80.757812 C 177.929688 74.941406 171.265625 67.652344 162.402344 61.066406 L 161.894531 61.757812 " fill-opacity="1" fill-rule="nonzero"/><path fill="#2e1449" d="M 152.726562 45.582031 C 152.726562 47.410156 151.246094 48.890625 149.421875 48.890625 C 147.597656 48.890625 146.121094 47.410156 146.121094 45.582031 C 146.121094 43.757812 147.597656 42.273438 149.421875 42.273438 C 151.246094 42.273438 152.726562 43.757812 152.726562 45.582031 " fill-opacity="1" fill-rule="nonzero"/><path fill="#2e1449" d="M 174.203125 89.796875 C 174.203125 91.625 172.722656 93.101562 170.898438 93.101562 C 169.070312 93.101562 167.59375 91.625 167.59375 89.796875 C 167.59375 87.972656 169.070312 86.488281 170.898438 86.488281 C 172.722656 86.488281 174.203125 87.972656 174.203125 89.796875 " fill-opacity="1" fill-rule="nonzero"/><path fill="#2e1449" d="M 135.148438 77.699219 C 135.148438 79.523438 133.671875 81.003906 131.84375 81.003906 C 130.023438 81.003906 128.542969 79.523438 128.542969 77.699219 C 128.542969 75.871094 130.023438 74.390625 131.84375 74.390625 C 133.671875 74.390625 135.148438 75.871094 135.148438 77.699219 " fill-opacity="1" fill-rule="nonzero"/><path fill="#bdbcbc" d="M 264.460938 87.1875 L 254.898438 80.609375 L 259.59375 73.777344 L 269.152344 80.351562 L 264.460938 87.1875 " fill-opacity="1" fill-rule="nonzero"/><path fill="#2e1449" d="M 264.460938 87.1875 L 264.6875 86.851562 L 255.460938 80.507812 L 259.699219 74.339844 L 268.589844 80.457031 L 264.125 86.957031 L 264.460938 87.1875 L 264.6875 86.851562 L 264.460938 87.1875 L 264.789062 87.414062 L 269.488281 80.578125 C 269.546875 80.492188 269.574219 80.382812 269.550781 80.277344 C 269.53125 80.171875 269.46875 80.078125 269.382812 80.019531 L 259.824219 73.445312 C 259.636719 73.316406 259.386719 73.363281 259.261719 73.550781 L 254.566406 80.382812 C 254.441406 80.566406 254.488281 80.820312 254.667969 80.945312 L 264.230469 87.519531 C 264.320312 87.578125 264.425781 87.601562 264.53125 87.582031 C 264.640625 87.5625 264.730469 87.503906 264.789062 87.414062 L 264.460938 87.1875 " fill-opacity="1" fill-rule="nonzero"/><path fill="#ee2629" d="M 269.152344 80.351562 L 259.59375 73.777344 C 259.59375 73.777344 261.160156 71.5 261.941406 70.359375 C 263.816406 67.628906 273.484375 74.054688 271.5 76.9375 C 270.40625 78.53125 269.152344 80.351562 269.152344 80.351562 " fill-opacity="1" fill-rule="nonzero"/><path fill="#2e1449" d="M 269.152344 80.351562 L 269.382812 80.019531 L 259.824219 73.445312 L 259.59375 73.777344 L 259.925781 74.007812 C 259.929688 74.003906 261.492188 71.726562 262.273438 70.589844 C 262.386719 70.425781 262.53125 70.3125 262.726562 70.230469 C 262.921875 70.148438 263.171875 70.101562 263.46875 70.101562 C 264.109375 70.101562 264.953125 70.324219 265.832031 70.707031 C 267.15625 71.28125 268.570312 72.21875 269.632812 73.226562 C 270.703125 74.226562 271.378906 75.324219 271.363281 76.058594 C 271.359375 76.300781 271.304688 76.511719 271.167969 76.710938 C 270.070312 78.304688 268.824219 80.121094 268.820312 80.125 L 269.152344 80.351562 L 269.382812 80.019531 L 269.152344 80.351562 L 269.488281 80.578125 C 269.488281 80.578125 270.734375 78.761719 271.832031 77.164062 C 272.0625 76.832031 272.171875 76.445312 272.171875 76.058594 C 272.167969 75.277344 271.777344 74.503906 271.199219 73.75 C 270.328125 72.617188 268.992188 71.527344 267.578125 70.695312 C 266.164062 69.871094 264.6875 69.304688 263.46875 69.296875 C 263.089844 69.296875 262.738281 69.347656 262.417969 69.480469 C 262.09375 69.617188 261.8125 69.835938 261.605469 70.132812 C 260.828125 71.269531 259.261719 73.550781 259.261719 73.550781 C 259.199219 73.636719 259.175781 73.746094 259.195312 73.851562 C 259.214844 73.953125 259.277344 74.050781 259.363281 74.109375 L 268.925781 80.6875 C 269.109375 80.8125 269.359375 80.765625 269.488281 80.578125 L 269.152344 80.351562 " fill-opacity="1" fill-rule="nonzero"/><g clip-path="url(#38601b93f5)"><g clip-path="url(#dc9f9f5f4d)"><path fill="#b5191d" d="M 260.152344 75.894531 L 268.773438 75.894531 L 268.773438 70.101562 L 260.152344 70.101562 Z M 260.152344 75.894531 " fill-opacity="1" fill-rule="nonzero"/></g></g><path fill="#230f2f" d="M 263.160156 76.230469 L 259.59375 73.777344 C 259.59375 73.777344 261.160156 71.5 261.941406 70.359375 C 262.257812 69.902344 262.796875 69.699219 263.46875 69.699219 C 265.300781 69.699219 268.109375 71.210938 269.941406 72.964844 C 269.546875 72.773438 269.152344 72.613281 268.773438 72.484375 C 267.867188 71.773438 266.824219 71.136719 265.832031 70.707031 C 264.957031 70.324219 264.117188 70.101562 263.476562 70.101562 C 263.472656 70.101562 263.46875 70.101562 263.46875 70.101562 C 263.171875 70.101562 262.921875 70.148438 262.726562 70.230469 C 262.53125 70.3125 262.386719 70.425781 262.273438 70.589844 C 261.675781 71.460938 260.617188 73 260.152344 73.671875 L 263.386719 75.894531 C 263.246094 76.105469 263.160156 76.230469 263.160156 76.230469 " fill-opacity="1" fill-rule="nonzero"/><path fill="#fbc713" d="M 244.667969 115.988281 L 235.105469 109.417969 L 254.898438 80.609375 L 264.460938 87.1875 L 244.667969 115.988281 " fill-opacity="1" fill-rule="nonzero"/><path fill="#2e1449" d="M 244.667969 115.988281 L 244.898438 115.65625 L 235.667969 109.3125 L 255.003906 81.171875 L 263.898438 87.289062 L 244.335938 115.761719 L 244.667969 115.988281 L 244.898438 115.65625 L 244.667969 115.988281 L 245 116.222656 L 264.789062 87.414062 C 264.851562 87.328125 264.875 87.21875 264.855469 87.113281 C 264.835938 87.007812 264.777344 86.914062 264.6875 86.851562 L 255.128906 80.277344 C 254.941406 80.148438 254.691406 80.199219 254.566406 80.382812 L 234.773438 109.1875 C 234.714844 109.277344 234.691406 109.386719 234.710938 109.488281 C 234.730469 109.59375 234.789062 109.691406 234.878906 109.746094 L 244.441406 116.324219 C 244.527344 116.386719 244.632812 116.40625 244.742188 116.386719 C 244.847656 116.371094 244.9375 116.308594 245 116.222656 L 244.667969 115.988281 " fill-opacity="1" fill-rule="nonzero"/><path fill="#e39514" d="M 239.28125 111.796875 L 235.667969 109.3125 L 255.003906 81.171875 L 258.613281 83.660156 L 239.28125 111.796875 " fill-opacity="1" fill-rule="nonzero"/><path fill="#2a133a" d="M 239.054688 112.128906 L 235.105469 109.417969 L 254.898438 80.609375 L 258.84375 83.324219 L 258.613281 83.660156 L 255.003906 81.171875 L 235.667969 109.3125 L 239.28125 111.796875 L 239.054688 112.128906 " fill-opacity="1" fill-rule="nonzero"/><path fill="#fddd2e" d="M 243.226562 114.511719 L 241.257812 113.152344 L 260.503906 85.136719 L 262.476562 86.492188 L 243.226562 114.511719 " fill-opacity="1" fill-rule="nonzero"/><path fill="#611365" d="M 243 114.84375 L 241.023438 113.488281 L 241.257812 113.152344 L 243.226562 114.511719 L 243 114.84375 " fill-opacity="1" fill-rule="nonzero"/><path fill="#e7e4b9" d="M 244.667969 115.988281 L 235.105469 109.417969 L 230.132812 126.894531 Z M 244.667969 115.988281 " fill-opacity="1" fill-rule="nonzero"/><path fill="#2e1449" d="M 244.667969 115.988281 L 244.898438 115.65625 L 235.339844 109.082031 C 235.226562 109.007812 235.09375 108.992188 234.972656 109.035156 C 234.847656 109.082031 234.757812 109.179688 234.71875 109.304688 L 229.746094 126.785156 C 229.699219 126.953125 229.765625 127.132812 229.90625 127.230469 C 230.050781 127.332031 230.238281 127.328125 230.378906 127.21875 L 244.910156 116.3125 C 245.015625 116.238281 245.074219 116.109375 245.070312 115.980469 C 245.066406 115.851562 245.003906 115.730469 244.898438 115.65625 L 244.667969 115.988281 L 244.425781 115.664062 L 230.851562 125.855469 L 235.34375 110.066406 L 244.441406 116.324219 L 244.667969 115.988281 L 244.425781 115.664062 L 244.667969 115.988281 " fill-opacity="1" fill-rule="nonzero"/><path fill="#2e1449" d="M 232.621094 118.160156 L 230.132812 126.894531 L 237.410156 121.453125 Z M 232.621094 118.160156 " fill-opacity="1" fill-rule="nonzero"/><path fill="#bdbcbc" d="M 255.789062 79.320312 L 261.25 83.078125 " fill-opacity="1" fill-rule="nonzero"/><path fill="#2e1449" d="M 255.554688 79.65625 L 261.019531 83.410156 C 261.203125 83.535156 261.453125 83.492188 261.582031 83.304688 C 261.710938 83.121094 261.660156 82.871094 261.476562 82.746094 L 256.015625 78.988281 C 255.828125 78.859375 255.578125 78.910156 255.453125 79.089844 C 255.328125 79.273438 255.371094 79.527344 255.554688 79.65625 " fill-opacity="1" fill-rule="nonzero"/><path fill="#2e1449" d="M 262.761719 84.609375 L 263.90625 85.394531 C 264.085938 85.519531 264.339844 85.472656 264.464844 85.292969 C 264.589844 85.105469 264.542969 84.855469 264.359375 84.726562 L 263.222656 83.945312 C 263.039062 83.820312 262.785156 83.863281 262.660156 84.046875 C 262.535156 84.234375 262.582031 84.484375 262.761719 84.609375 " fill-opacity="1" fill-rule="nonzero"/><path fill="#2e1449" d="M 266.722656 83.890625 L 261.105469 80.03125 C 260.921875 79.90625 260.671875 79.953125 260.546875 80.132812 C 260.421875 80.316406 260.464844 80.570312 260.648438 80.699219 L 266.261719 84.558594 C 266.449219 84.683594 266.699219 84.636719 266.824219 84.453125 C 266.953125 84.269531 266.90625 84.015625 266.722656 83.890625 " fill-opacity="1" fill-rule="nonzero"/><path fill="#2e1449" d="M 257.390625 78.453125 L 258.679688 79.339844 C 258.859375 79.464844 259.113281 79.417969 259.238281 79.234375 C 259.367188 79.050781 259.316406 78.796875 259.132812 78.671875 L 257.84375 77.785156 C 257.660156 77.660156 257.40625 77.707031 257.28125 77.894531 C 257.15625 78.074219 257.203125 78.328125 257.390625 78.453125 " fill-opacity="1" fill-rule="nonzero"/><path fill="#2e1449" d="M 257.851562 76.3125 L 262.628906 79.601562 C 262.816406 79.726562 263.066406 79.679688 263.191406 79.496094 C 263.320312 79.3125 263.273438 79.0625 263.089844 78.933594 L 258.308594 75.648438 C 258.125 75.519531 257.875 75.566406 257.746094 75.75 C 257.621094 75.933594 257.667969 76.1875 257.851562 76.3125 " fill-opacity="1" fill-rule="nonzero"/><path fill="#2e1449" d="M 263.773438 80.382812 L 265.628906 81.660156 C 265.808594 81.789062 266.066406 81.742188 266.191406 81.558594 C 266.316406 81.371094 266.269531 81.121094 266.089844 80.996094 L 264.226562 79.714844 C 264.042969 79.589844 263.789062 79.636719 263.664062 79.824219 C 263.539062 80.003906 263.585938 80.257812 263.773438 80.382812 " fill-opacity="1" fill-rule="nonzero"/><path fill="#2e1449" d="M 268.703125 81.007812 L 261.535156 76.078125 C 261.351562 75.949219 261.101562 75.996094 260.972656 76.179688 C 260.847656 76.363281 260.890625 76.613281 261.078125 76.738281 L 268.25 81.675781 C 268.429688 81.800781 268.683594 81.753906 268.808594 81.570312 C 268.933594 81.386719 268.886719 81.136719 268.703125 81.007812 " fill-opacity="1" fill-rule="nonzero"/></svg>