<svg xmlns="http://www.w3.org/2000/svg" xmlns:xlink="http://www.w3.org/1999/xlink" width="500" zoomAndPan="magnify" viewBox="0 0 375 374.999991" height="500" preserveAspectRatio="xMidYMid meet" version="1.0"><path fill="#fff" d="M 329.703125 125.054688 C 328.816406 125 327.851562 125 326.851562 125 L 287.40625 125 C 255.101562 125 227.457031 150.429688 227.457031 183.59375 C 227.457031 216.757812 255.101562 242.1875 287.40625 242.1875 L 326.851562 242.1875 C 327.851562 242.1875 328.816406 242.1875 329.703125 242.132812 C 342.824219 241.304688 354.429688 231.035156 355.40625 216.691406 C 355.46875 215.75 355.46875 214.734375 355.46875 213.796875 L 355.46875 153.390625 C 355.46875 152.453125 355.46875 151.4375 355.40625 150.496094 C 354.429688 136.152344 342.824219 125.882812 329.703125 125.054688 Z M 283.933594 199.21875 C 292.25 199.21875 298.992188 192.222656 298.992188 183.59375 C 298.992188 174.964844 292.25 167.96875 283.933594 167.96875 C 275.617188 167.96875 268.871094 174.964844 268.871094 183.59375 C 268.871094 192.222656 275.617188 199.21875 283.933594 199.21875 Z M 283.933594 199.21875 " fill-opacity="1" fill-rule="evenodd"/><path fill="#fff" d="M 326.84375 265.625 C 329.171875 265.5625 330.9375 267.722656 330.304688 269.964844 C 327.167969 281.097656 322.1875 290.585938 314.199219 298.574219 C 302.507812 310.265625 287.679688 315.457031 269.359375 317.921875 C 251.558594 320.3125 228.816406 320.3125 200.101562 320.3125 L 167.085938 320.3125 C 138.371094 320.3125 115.628906 320.3125 97.828125 317.921875 C 79.507812 315.457031 64.679688 310.265625 52.988281 298.574219 C 41.296875 286.882812 36.105469 272.054688 33.644531 253.734375 C 31.25 235.933594 31.25 213.191406 31.25 184.476562 L 31.25 182.710938 C 31.25 153.996094 31.25 131.253906 33.644531 113.453125 C 36.105469 95.132812 41.296875 80.304688 52.988281 68.613281 C 64.679688 56.921875 79.507812 51.730469 97.828125 49.269531 C 115.628906 46.875 138.371094 46.875 167.085938 46.875 L 200.101562 46.875 C 228.816406 46.875 251.558594 46.875 269.359375 49.269531 C 287.679688 51.730469 302.507812 56.921875 314.199219 68.613281 C 322.1875 76.601562 327.164062 86.089844 330.304688 97.222656 C 330.9375 99.464844 329.171875 101.621094 326.84375 101.5625 L 287.40625 101.5625 C 243.085938 101.5625 204.015625 136.578125 204.015625 183.59375 C 204.015625 230.609375 243.085938 265.625 287.40625 265.625 Z M 89.84375 109.375 C 83.371094 109.375 78.125 114.621094 78.125 121.09375 C 78.125 127.566406 83.371094 132.8125 89.84375 132.8125 L 152.34375 132.8125 C 158.816406 132.8125 164.0625 127.566406 164.0625 121.09375 C 164.0625 114.621094 158.816406 109.375 152.34375 109.375 Z M 89.84375 109.375 " fill-opacity="1" fill-rule="evenodd"/></svg>