<svg xmlns="http://www.w3.org/2000/svg" xmlns:xlink="http://www.w3.org/1999/xlink" width="500" zoomAndPan="magnify" viewBox="0 0 375 374.999991" height="500" preserveAspectRatio="xMidYMid meet" version="1.0"><path fill="#702481" d="M 10.921875 177.5 L 14.664062 177.5 C 14.78125 177.492188 14.878906 177.527344 14.960938 177.609375 C 15.042969 177.691406 15.082031 177.789062 15.074219 177.90625 C 16.152344 182.273438 17.5 186.582031 18.257812 191.03125 C 18.257812 191.15625 18.328125 191.273438 18.417969 191.597656 C 18.882812 189.488281 19.308594 187.582031 19.71875 185.671875 C 20.28125 183.128906 20.824219 180.597656 21.351562 178.066406 C 21.34375 177.976562 21.355469 177.886719 21.390625 177.800781 C 21.425781 177.714844 21.476562 177.640625 21.542969 177.582031 C 21.613281 177.519531 21.691406 177.480469 21.78125 177.457031 C 21.871094 177.433594 21.957031 177.433594 22.046875 177.453125 C 22.960938 177.5 23.878906 177.5 24.792969 177.453125 C 24.882812 177.433594 24.972656 177.433594 25.066406 177.457031 C 25.15625 177.476562 25.238281 177.519531 25.308594 177.578125 C 25.378906 177.636719 25.433594 177.710938 25.472656 177.796875 C 25.511719 177.882812 25.527344 177.972656 25.523438 178.066406 C 26.457031 182.453125 27.398438 186.835938 28.351562 191.21875 C 28.351562 191.273438 28.351562 191.328125 28.484375 191.554688 C 28.769531 190.28125 29 189.175781 29.277344 188.074219 C 30.105469 184.714844 30.960938 181.335938 31.78125 177.941406 C 31.78125 177.78125 31.84375 177.652344 31.964844 177.550781 C 32.085938 177.453125 32.226562 177.417969 32.378906 177.453125 L 35.332031 177.453125 C 35.804688 177.453125 35.875 177.542969 35.742188 178.011719 C 34.3125 183.046875 32.898438 188.0625 31.496094 193.066406 C 31.140625 194.347656 30.746094 195.617188 30.425781 196.90625 C 30.410156 197.085938 30.328125 197.230469 30.179688 197.339844 C 30.035156 197.449219 29.875 197.484375 29.695312 197.445312 L 27.019531 197.445312 C 26.867188 197.480469 26.726562 197.445312 26.601562 197.347656 C 26.476562 197.25 26.410156 197.117188 26.40625 196.957031 C 25.445312 192.453125 24.339844 188.046875 23.4375 183.355469 C 23.222656 184.464844 23.070312 185.398438 22.867188 186.320312 C 22.074219 189.859375 21.261719 193.390625 20.476562 196.929688 C 20.480469 197.09375 20.421875 197.230469 20.296875 197.335938 C 20.171875 197.441406 20.03125 197.476562 19.871094 197.445312 L 17.054688 197.445312 C 16.933594 197.476562 16.820312 197.457031 16.714844 197.390625 C 16.609375 197.320312 16.542969 197.226562 16.519531 197.101562 C 14.660156 190.609375 12.792969 184.113281 10.921875 177.617188 C 10.914062 177.578125 10.914062 177.539062 10.921875 177.5 Z M 181.253906 183.4375 C 180.523438 187.722656 179.472656 191.789062 178.578125 195.878906 C 178.578125 196.398438 178.441406 196.882812 178.167969 197.328125 C 177.65625 197.5 177.136719 197.53125 176.609375 197.425781 C 175.914062 197.425781 175.039062 197.660156 174.585938 197.320312 C 174.132812 196.976562 174.113281 196.058594 173.925781 195.390625 C 172.285156 189.722656 170.652344 184.050781 169.023438 178.382812 C 168.890625 178.097656 168.835938 177.796875 168.863281 177.480469 L 172.542969 177.480469 C 172.9375 177.480469 172.964844 177.722656 173.027344 177.984375 C 174.132812 182.488281 175.496094 186.886719 176.269531 191.453125 C 176.289062 191.5 176.308594 191.546875 176.332031 191.589844 C 176.714844 189.859375 177.082031 188.183594 177.4375 186.515625 C 178.054688 183.699219 178.667969 180.878906 179.222656 178.058594 C 179.214844 177.96875 179.226562 177.878906 179.261719 177.796875 C 179.292969 177.710938 179.34375 177.636719 179.414062 177.578125 C 179.480469 177.519531 179.558594 177.476562 179.644531 177.457031 C 179.734375 177.433594 179.820312 177.433594 179.90625 177.453125 L 182.726562 177.453125 C 182.804688 177.4375 182.882812 177.4375 182.964844 177.457031 C 183.042969 177.472656 183.113281 177.507812 183.175781 177.5625 C 183.242188 177.613281 183.289062 177.675781 183.324219 177.75 C 183.359375 177.824219 183.375 177.902344 183.375 177.984375 C 184.265625 182.265625 185.210938 186.535156 186.140625 190.804688 C 186.183594 191.023438 186.238281 191.238281 186.328125 191.625 C 186.738281 189.824219 187.085938 188.21875 187.476562 186.605469 C 188.179688 183.761719 188.921875 180.886719 189.632812 177.996094 C 189.628906 177.828125 189.691406 177.6875 189.816406 177.578125 C 189.941406 177.464844 190.085938 177.425781 190.25 177.453125 L 193.746094 177.453125 C 193.335938 178.929688 192.941406 180.363281 192.539062 181.777344 C 191.132812 186.839844 189.707031 191.867188 188.332031 196.851562 C 188.324219 197.046875 188.242188 197.203125 188.089844 197.324219 C 187.9375 197.441406 187.765625 197.484375 187.574219 197.445312 C 186.683594 197.398438 185.792969 197.445312 184.902344 197.445312 C 184.738281 197.480469 184.597656 197.445312 184.46875 197.339844 C 184.34375 197.234375 184.28125 197.097656 184.285156 196.929688 C 183.394531 192.589844 182.261719 188.28125 181.449219 183.921875 C 181.394531 183.757812 181.328125 183.59375 181.253906 183.4375 Z M 112.792969 192.335938 C 113.425781 189.273438 114.308594 186.4375 115.03125 183.542969 C 115.046875 183.40625 115.105469 183.292969 115.21875 183.210938 C 115.328125 183.125 115.449219 183.097656 115.585938 183.121094 L 117.867188 183.121094 C 118.039062 183.089844 118.191406 183.128906 118.324219 183.238281 C 118.460938 183.347656 118.535156 183.488281 118.542969 183.660156 C 119.3125 186.488281 120.160156 189.292969 120.835938 192.140625 C 121.027344 192.050781 121.109375 191.898438 121.078125 191.6875 L 123.214844 183.582031 C 123.21875 183.4375 123.269531 183.320312 123.375 183.226562 C 123.480469 183.132812 123.601562 183.097656 123.742188 183.113281 L 126.558594 183.113281 C 126.933594 183.113281 127.003906 183.210938 126.898438 183.589844 C 125.566406 188.058594 124.25 192.527344 122.949219 197.003906 C 122.925781 197.152344 122.855469 197.269531 122.734375 197.351562 C 122.613281 197.4375 122.476562 197.464844 122.332031 197.4375 L 119.917969 197.4375 C 119.738281 197.476562 119.578125 197.4375 119.433594 197.328125 C 119.285156 197.21875 119.207031 197.070312 119.195312 196.886719 C 118.4375 193.96875 117.652344 191.046875 116.851562 188.003906 C 116.761719 188.28125 116.691406 188.445312 116.644531 188.617188 C 115.886719 191.371094 115.121094 194.128906 114.390625 196.894531 C 114.386719 197.070312 114.316406 197.210938 114.179688 197.320312 C 114.042969 197.429688 113.890625 197.46875 113.722656 197.4375 L 111.242188 197.4375 C 111.109375 197.460938 110.988281 197.429688 110.882812 197.347656 C 110.773438 197.265625 110.710938 197.15625 110.699219 197.023438 C 109.414062 192.542969 108.121094 188.0625 106.8125 183.589844 C 106.707031 183.21875 106.75 183.113281 107.140625 183.121094 L 109.960938 183.121094 C 110.117188 183.089844 110.257812 183.125 110.386719 183.226562 C 110.511719 183.324219 110.582031 183.453125 110.59375 183.617188 C 111.261719 186.320312 111.957031 189.023438 112.644531 191.722656 C 112.652344 191.867188 112.707031 192.03125 112.792969 192.335938 Z M 357.785156 187.472656 L 357.785156 178.121094 C 357.785156 177.617188 357.90625 177.472656 358.40625 177.480469 L 363.835938 177.480469 C 364.238281 177.480469 364.425781 177.527344 364.425781 178.011719 L 364.425781 196.929688 C 364.472656 197.09375 364.4375 197.238281 364.320312 197.359375 C 364.203125 197.480469 364.0625 197.519531 363.898438 197.472656 L 358.335938 197.472656 C 357.871094 197.472656 357.785156 197.320312 357.785156 196.894531 C 357.792969 193.75 357.785156 190.605469 357.785156 187.472656 Z M 344.722656 187.507812 L 344.722656 196.859375 C 344.722656 197.320312 344.625 197.480469 344.132812 197.472656 L 338.632812 197.472656 C 338.179688 197.472656 338.070312 197.335938 338.070312 196.894531 L 338.070312 178.066406 C 338.070312 177.644531 338.160156 177.492188 338.625 177.492188 L 344.125 177.492188 C 344.597656 177.492188 344.722656 177.617188 344.722656 178.09375 C 344.710938 181.230469 344.722656 184.363281 344.722656 187.507812 Z M 276.734375 187.445312 L 276.734375 178.09375 C 276.734375 177.625 276.84375 177.480469 277.324219 177.492188 L 282.824219 177.492188 C 283.269531 177.492188 283.386719 177.617188 283.386719 178.058594 L 283.386719 196.886719 C 283.386719 197.308594 283.304688 197.472656 282.832031 197.464844 L 277.332031 197.464844 C 276.859375 197.464844 276.734375 197.328125 276.746094 196.859375 C 276.746094 193.722656 276.734375 190.582031 276.734375 187.445312 Z M 303.089844 187.460938 L 303.089844 196.742188 C 303.089844 197.28125 302.992188 197.480469 302.402344 197.472656 L 296.972656 197.472656 C 296.8125 197.515625 296.675781 197.480469 296.558594 197.359375 C 296.441406 197.242188 296.402344 197.101562 296.445312 196.941406 L 296.445312 178.019531 C 296.445312 177.542969 296.617188 177.472656 297.027344 177.480469 L 302.457031 177.480469 C 302.945312 177.480469 303.097656 177.589844 303.089844 178.109375 C 303.070312 181.226562 303.089844 184.34375 303.089844 187.460938 Z M 317.265625 187.363281 L 317.265625 178.085938 C 317.265625 177.5625 317.40625 177.445312 317.898438 177.453125 L 323.246094 177.453125 C 323.71875 177.453125 323.898438 177.527344 323.898438 178.066406 L 323.898438 196.832031 C 323.949219 197.015625 323.910156 197.175781 323.773438 197.3125 C 323.640625 197.449219 323.480469 197.488281 323.300781 197.433594 L 317.871094 197.433594 C 317.34375 197.433594 317.253906 197.253906 317.253906 196.777344 C 317.273438 193.667969 317.265625 190.535156 317.265625 187.363281 Z M 136.292969 191.355469 L 131.738281 191.355469 C 131.464844 191.355469 131.214844 191.300781 131.265625 191.75 C 131.300781 192.007812 131.359375 192.257812 131.445312 192.503906 C 131.53125 192.75 131.640625 192.980469 131.777344 193.203125 C 131.914062 193.421875 132.070312 193.625 132.25 193.8125 C 132.429688 193.996094 132.628906 194.160156 132.84375 194.304688 C 133.058594 194.449219 133.285156 194.566406 133.523438 194.660156 C 133.765625 194.753906 134.011719 194.820312 134.265625 194.859375 C 134.519531 194.898438 134.773438 194.910156 135.03125 194.890625 C 135.289062 194.875 135.539062 194.832031 135.785156 194.757812 C 136.457031 194.601562 136.953125 194.214844 137.277344 193.597656 C 137.347656 193.417969 137.46875 193.285156 137.636719 193.191406 C 137.800781 193.097656 137.980469 193.066406 138.167969 193.101562 L 140.582031 193.101562 C 141.144531 193.101562 141.289062 193.199219 141.082031 193.777344 C 140.75 194.761719 140.199219 195.59375 139.425781 196.28125 C 138.65625 196.96875 137.765625 197.414062 136.757812 197.625 C 136.03125 197.835938 135.289062 197.933594 134.53125 197.914062 C 133.773438 197.894531 133.039062 197.765625 132.320312 197.519531 C 131.605469 197.273438 130.941406 196.925781 130.328125 196.472656 C 129.71875 196.023438 129.1875 195.492188 128.734375 194.875 C 128.261719 194.113281 127.917969 193.289062 127.707031 192.414062 C 127.492188 191.539062 127.421875 190.652344 127.488281 189.75 C 127.558594 188.851562 127.761719 187.984375 128.105469 187.152344 C 128.449219 186.320312 128.910156 185.558594 129.492188 184.875 C 129.929688 184.398438 130.421875 183.992188 130.972656 183.65625 C 131.523438 183.320312 132.109375 183.070312 132.730469 182.902344 C 133.351562 182.734375 133.980469 182.660156 134.625 182.671875 C 135.265625 182.6875 135.894531 182.789062 136.507812 182.984375 C 139.261719 183.695312 140.59375 185.785156 141.214844 188.433594 C 141.371094 189.164062 141.46875 189.898438 141.511719 190.640625 C 141.511719 191.183594 141.429688 191.382812 140.839844 191.363281 C 139.300781 191.316406 137.792969 191.351562 136.292969 191.351562 Z M 134.386719 188.734375 L 137 188.734375 C 137.417969 188.734375 137.535156 188.640625 137.453125 188.199219 C 137.398438 187.839844 137.28125 187.5 137.105469 187.183594 C 136.929688 186.867188 136.703125 186.589844 136.425781 186.355469 C 136.148438 186.121094 135.839844 185.941406 135.5 185.820312 C 135.160156 185.699219 134.808594 185.644531 134.449219 185.652344 C 134.074219 185.652344 133.707031 185.71875 133.355469 185.851562 C 133.003906 185.984375 132.683594 186.175781 132.398438 186.421875 C 132.113281 186.671875 131.878906 186.960938 131.699219 187.292969 C 131.515625 187.625 131.394531 187.980469 131.339844 188.355469 C 131.285156 188.75 131.488281 188.695312 131.710938 188.695312 L 134.386719 188.695312 Z M 205.914062 197.433594 L 202.488281 197.433594 C 202.363281 197.449219 202.25 197.417969 202.148438 197.339844 C 202.046875 197.261719 201.988281 197.15625 201.972656 197.03125 L 201.707031 195.976562 C 199.78125 198.175781 197.445312 198.175781 195.011719 197.273438 C 194.652344 197.144531 194.324219 196.964844 194.023438 196.730469 C 193.722656 196.5 193.460938 196.226562 193.246094 195.910156 C 193.027344 195.597656 192.863281 195.257812 192.75 194.890625 C 192.636719 194.527344 192.582031 194.152344 192.585938 193.769531 C 192.53125 193.375 192.535156 192.980469 192.601562 192.585938 C 192.667969 192.191406 192.792969 191.820312 192.972656 191.464844 C 193.15625 191.113281 193.386719 190.792969 193.667969 190.515625 C 193.949219 190.234375 194.265625 190.003906 194.617188 189.824219 C 196.074219 189.15625 197.597656 188.753906 199.191406 188.617188 C 199.71875 188.527344 200.238281 188.410156 200.75 188.265625 C 200.988281 188.21875 201.1875 188.105469 201.351562 187.929688 C 201.515625 187.75 201.613281 187.542969 201.644531 187.300781 C 201.675781 187.035156 201.640625 186.78125 201.53125 186.535156 C 201.425781 186.292969 201.261719 186.09375 201.046875 185.941406 C 200.863281 185.8125 200.667969 185.707031 200.464844 185.625 C 200.257812 185.539062 200.046875 185.480469 199.828125 185.441406 C 199.609375 185.40625 199.390625 185.394531 199.167969 185.40625 C 198.949219 185.421875 198.730469 185.457031 198.519531 185.519531 C 198.304688 185.578125 198.101562 185.664062 197.90625 185.769531 C 197.710938 185.875 197.53125 186.003906 197.363281 186.148438 C 197.199219 186.296875 197.050781 186.460938 196.917969 186.640625 C 196.785156 186.820312 196.675781 187.015625 196.589844 187.21875 C 196.578125 187.308594 196.539062 187.382812 196.46875 187.4375 C 196.398438 187.496094 196.320312 187.519531 196.230469 187.507812 L 193.558594 187.507812 C 193.09375 187.507812 193.191406 187.210938 193.234375 186.957031 C 193.3125 186.28125 193.539062 185.660156 193.914062 185.097656 C 194.292969 184.53125 194.777344 184.085938 195.367188 183.757812 C 195.953125 183.429688 196.574219 183.171875 197.222656 182.992188 C 197.875 182.8125 198.535156 182.714844 199.207031 182.699219 C 199.882812 182.683594 200.546875 182.746094 201.203125 182.894531 C 201.863281 183.042969 202.492188 183.269531 203.097656 183.570312 C 204.726562 184.335938 205.273438 185.902344 205.308594 187.617188 C 205.351562 190.238281 205.308594 192.851562 205.308594 195.472656 C 205.25 196.207031 205.453125 196.863281 205.914062 197.433594 Z M 201.777344 191.5 L 201.777344 190.886719 C 201.777344 190.472656 201.777344 190.246094 201.257812 190.488281 C 200.761719 190.6875 200.25 190.839844 199.726562 190.949219 C 198.824219 191.113281 197.957031 191.386719 197.125 191.777344 C 196.792969 191.941406 196.542969 192.191406 196.378906 192.527344 C 196.210938 192.859375 196.164062 193.210938 196.230469 193.578125 C 196.261719 193.953125 196.410156 194.277344 196.671875 194.542969 C 196.933594 194.808594 197.25 194.960938 197.621094 194.992188 C 200.15625 195.523438 201.777344 194.148438 201.777344 191.5 Z M 91.34375 190.191406 C 91.503906 185.6875 94.660156 182.570312 98.96875 182.714844 C 103.273438 182.859375 106.3125 186.15625 106.160156 190.679688 C 106.019531 195.046875 102.730469 197.992188 98.136719 197.832031 C 97.667969 197.804688 97.203125 197.730469 96.75 197.609375 C 96.292969 197.488281 95.851562 197.328125 95.429688 197.121094 C 95.003906 196.914062 94.601562 196.667969 94.226562 196.382812 C 93.847656 196.09375 93.503906 195.777344 93.1875 195.421875 C 92.875 195.066406 92.597656 194.6875 92.355469 194.277344 C 92.113281 193.867188 91.914062 193.4375 91.757812 192.992188 C 91.597656 192.542969 91.484375 192.082031 91.414062 191.613281 C 91.34375 191.140625 91.320312 190.667969 91.34375 190.191406 Z M 102.308594 190.652344 C 102.398438 189.550781 102.210938 188.5 101.75 187.5 C 101.488281 186.914062 101.089844 186.457031 100.550781 186.117188 C 100.015625 185.777344 99.429688 185.617188 98.796875 185.632812 C 98.480469 185.609375 98.171875 185.636719 97.863281 185.710938 C 97.554688 185.789062 97.265625 185.90625 96.996094 186.074219 C 96.726562 186.242188 96.488281 186.445312 96.28125 186.6875 C 96.074219 186.929688 95.910156 187.195312 95.785156 187.488281 C 95.347656 188.386719 95.132812 189.335938 95.144531 190.332031 C 95.152344 191.332031 95.382812 192.277344 95.835938 193.164062 C 95.972656 193.421875 96.136719 193.660156 96.332031 193.875 C 96.53125 194.089844 96.75 194.273438 96.992188 194.429688 C 97.238281 194.585938 97.496094 194.707031 97.773438 194.796875 C 98.046875 194.882812 98.332031 194.933594 98.617188 194.945312 C 98.90625 194.957031 99.191406 194.933594 99.476562 194.871094 C 99.757812 194.808594 100.027344 194.710938 100.28125 194.574219 C 100.539062 194.441406 100.773438 194.277344 100.988281 194.078125 C 101.203125 193.882812 101.386719 193.664062 101.542969 193.417969 C 102.058594 192.574219 102.316406 191.652344 102.308594 190.660156 Z M 230.394531 190.246094 C 230.371094 189.746094 230.398438 189.25 230.480469 188.757812 C 230.558594 188.265625 230.6875 187.785156 230.867188 187.320312 C 231.042969 186.855469 231.265625 186.414062 231.535156 185.996094 C 231.804688 185.574219 232.113281 185.1875 232.460938 184.835938 C 232.808594 184.480469 233.191406 184.167969 233.601562 183.894531 C 234.015625 183.617188 234.453125 183.390625 234.910156 183.207031 C 235.371094 183.027344 235.84375 182.894531 236.332031 182.808594 C 236.820312 182.726562 237.308594 182.695312 237.804688 182.714844 C 242.164062 182.714844 245.175781 185.902344 245.175781 190.425781 C 245.175781 194.769531 242.027344 197.839844 237.589844 197.832031 C 233.433594 197.832031 230.394531 194.632812 230.394531 190.246094 Z M 237.765625 185.625 C 237.140625 185.59375 236.558594 185.742188 236.019531 186.070312 C 235.480469 186.398438 235.082031 186.851562 234.816406 187.425781 C 234.441406 188.21875 234.230469 189.054688 234.191406 189.933594 C 234.148438 190.8125 234.277344 191.664062 234.574219 192.488281 C 234.671875 192.839844 234.824219 193.167969 235.03125 193.464844 C 235.234375 193.765625 235.484375 194.023438 235.773438 194.242188 C 236.066406 194.457031 236.382812 194.621094 236.726562 194.730469 C 237.070312 194.839844 237.425781 194.886719 237.785156 194.875 C 238.140625 194.882812 238.488281 194.832031 238.824219 194.722656 C 239.164062 194.617188 239.476562 194.457031 239.765625 194.246094 C 240.050781 194.035156 240.300781 193.785156 240.507812 193.492188 C 240.714844 193.203125 240.871094 192.886719 240.976562 192.542969 C 241.511719 191.019531 241.511719 189.492188 240.976562 187.96875 C 240.875 187.621094 240.71875 187.300781 240.511719 187.007812 C 240.304688 186.714844 240.058594 186.464844 239.769531 186.253906 C 239.480469 186.042969 239.164062 185.882812 238.824219 185.777344 C 238.480469 185.671875 238.132812 185.625 237.777344 185.632812 Z M 250.835938 184.867188 C 251.585938 183.898438 252.539062 183.230469 253.699219 182.859375 C 254.054688 182.75 254.414062 182.679688 254.785156 182.65625 C 255.15625 182.628906 255.523438 182.644531 255.890625 182.707031 C 256.257812 182.765625 256.613281 182.867188 256.953125 183.007812 C 257.296875 183.152344 257.621094 183.332031 257.921875 183.550781 C 258.222656 183.769531 258.496094 184.019531 258.742188 184.300781 C 258.988281 184.582031 259.195312 184.886719 259.371094 185.21875 C 259.546875 185.550781 259.683594 185.894531 259.777344 186.257812 C 259.875 186.621094 259.929688 186.988281 259.9375 187.363281 C 260.117188 190.570312 259.9375 193.777344 260.011719 196.984375 C 260.042969 197.113281 260.015625 197.226562 259.917969 197.320312 C 259.820312 197.414062 259.710938 197.4375 259.582031 197.398438 L 256.695312 197.398438 C 256.25 197.398438 256.195312 197.226562 256.195312 196.839844 L 256.195312 188.976562 C 256.195312 187.074219 255.417969 186.066406 253.914062 185.992188 C 253.519531 185.976562 253.140625 186.035156 252.773438 186.175781 C 252.40625 186.316406 252.082031 186.527344 251.800781 186.800781 C 251.519531 187.078125 251.304688 187.402344 251.15625 187.765625 C 251.007812 188.132812 250.9375 188.515625 250.945312 188.914062 C 250.882812 191.101562 250.945312 193.300781 250.945312 195.488281 C 250.945312 196.09375 251.140625 196.902344 250.835938 197.292969 C 250.535156 197.679688 249.660156 197.390625 249.054688 197.425781 L 247.777344 197.425781 C 247.394531 197.425781 247.171875 197.316406 247.171875 196.851562 L 247.171875 183.695312 C 247.171875 183.265625 247.261719 183.09375 247.726562 183.109375 L 250.335938 183.109375 C 250.503906 183.058594 250.644531 183.097656 250.765625 183.222656 C 250.882812 183.351562 250.914062 183.496094 250.855469 183.660156 C 250.808594 184.058594 250.839844 184.460938 250.839844 184.867188 Z M 250.835938 184.867188 " fill-opacity="1" fill-rule="nonzero"/><path fill="#702481" d="M 88.609375 189.164062 L 88.609375 196.824219 C 88.609375 197.28125 88.507812 197.445312 88.027344 197.425781 L 85.148438 197.425781 C 84.65625 197.425781 84.570312 197.273438 84.570312 196.8125 L 84.570312 181.707031 C 84.570312 180.984375 84.363281 180.859375 83.675781 180.878906 C 82.179688 180.921875 80.683594 180.878906 79.21875 180.878906 C 78.695312 180.878906 78.585938 180.722656 78.605469 180.230469 L 78.605469 177.859375 C 78.675781 177.582031 78.746094 177.453125 79.066406 177.453125 L 94.152344 177.453125 C 94.28125 177.421875 94.390625 177.453125 94.484375 177.546875 C 94.574219 177.644531 94.601562 177.757812 94.5625 177.886719 L 94.5625 180.390625 C 94.5625 180.789062 94.421875 180.878906 94.054688 180.878906 L 89.230469 180.878906 C 88.742188 180.878906 88.582031 180.984375 88.589844 181.507812 C 88.617188 184.085938 88.605469 186.632812 88.605469 189.164062 Z M 65.527344 192.769531 C 65.683594 192.777344 65.839844 192.777344 66 192.769531 C 66.757812 192.679688 67.335938 192.769531 67.550781 193.671875 C 67.640625 193.984375 67.804688 194.25 68.042969 194.472656 C 68.277344 194.695312 68.554688 194.84375 68.871094 194.914062 C 69.832031 195.246094 70.796875 195.246094 71.757812 194.914062 C 72.074219 194.839844 72.339844 194.679688 72.546875 194.425781 C 72.753906 194.171875 72.863281 193.882812 72.871094 193.554688 C 72.871094 193.234375 72.769531 192.957031 72.566406 192.710938 C 72.367188 192.46875 72.109375 192.316406 71.800781 192.257812 C 70.6875 191.929688 69.558594 191.671875 68.414062 191.480469 C 67.808594 191.347656 67.210938 191.167969 66.632812 190.941406 C 65.972656 190.734375 65.425781 190.363281 64.984375 189.828125 C 64.542969 189.292969 64.285156 188.675781 64.207031 187.984375 C 64.125 187.589844 64.105469 187.1875 64.140625 186.785156 C 64.175781 186.382812 64.269531 185.992188 64.421875 185.617188 C 64.570312 185.242188 64.769531 184.894531 65.019531 184.578125 C 65.269531 184.261719 65.5625 183.988281 65.890625 183.761719 C 67.261719 182.90625 68.746094 182.554688 70.347656 182.707031 C 71.460938 182.714844 72.515625 182.972656 73.503906 183.480469 C 74.183594 183.84375 74.738281 184.34375 75.175781 184.980469 C 75.613281 185.617188 75.882812 186.316406 75.984375 187.085938 C 76.046875 187.410156 75.9375 187.527344 75.609375 187.515625 L 73.058594 187.515625 C 72.988281 187.546875 72.917969 187.554688 72.84375 187.546875 C 72.769531 187.539062 72.699219 187.515625 72.636719 187.472656 C 72.574219 187.429688 72.523438 187.375 72.488281 187.308594 C 72.453125 187.242188 72.4375 187.167969 72.433594 187.09375 C 72.351562 186.652344 72.144531 186.28125 71.8125 185.980469 C 71.484375 185.679688 71.09375 185.511719 70.652344 185.472656 C 69.914062 185.332031 69.1875 185.386719 68.476562 185.632812 C 68.183594 185.707031 67.941406 185.863281 67.75 186.097656 C 67.5625 186.335938 67.460938 186.609375 67.453125 186.914062 C 67.453125 187.210938 67.550781 187.46875 67.742188 187.691406 C 67.9375 187.914062 68.179688 188.042969 68.46875 188.085938 C 69.636719 188.5 70.875 188.570312 72.035156 188.886719 C 72.707031 189.050781 73.363281 189.265625 74.003906 189.527344 C 76.9375 190.769531 76.804688 194.769531 74.992188 196.335938 C 74.046875 197.148438 72.957031 197.621094 71.722656 197.75 C 69.980469 198.039062 68.296875 197.839844 66.667969 197.15625 C 65.886719 196.828125 65.238281 196.328125 64.714844 195.65625 C 64.195312 194.984375 63.871094 194.226562 63.742188 193.382812 C 63.671875 192.96875 63.742188 192.75 64.234375 192.796875 C 64.722656 192.839844 65.097656 192.769531 65.527344 192.769531 Z M 154.453125 192.769531 L 154.722656 192.769531 C 155.550781 192.714844 156.335938 192.644531 156.503906 193.804688 C 156.6875 194.316406 157.039062 194.644531 157.558594 194.789062 C 158.644531 195.246094 159.734375 195.246094 160.820312 194.789062 C 161.109375 194.695312 161.34375 194.527344 161.523438 194.277344 C 161.699219 194.027344 161.789062 193.75 161.785156 193.445312 C 161.769531 193.152344 161.671875 192.890625 161.484375 192.664062 C 161.300781 192.4375 161.066406 192.289062 160.785156 192.21875 C 159.628906 191.875 158.453125 191.609375 157.261719 191.417969 C 156.65625 191.28125 156.0625 191.097656 155.480469 190.867188 C 154.835938 190.660156 154.296875 190.292969 153.867188 189.761719 C 153.433594 189.234375 153.179688 188.628906 153.101562 187.949219 C 153.023438 187.558594 153.003906 187.164062 153.039062 186.769531 C 153.074219 186.371094 153.167969 185.988281 153.3125 185.617188 C 153.460938 185.246094 153.65625 184.90625 153.898438 184.59375 C 154.144531 184.28125 154.425781 184.007812 154.75 183.777344 C 155.371094 183.40625 156.027344 183.121094 156.722656 182.929688 C 157.417969 182.734375 158.128906 182.640625 158.851562 182.640625 C 159.570312 182.640625 160.28125 182.734375 160.976562 182.929688 C 161.671875 183.121094 162.332031 183.40625 162.953125 183.777344 C 163.472656 184.160156 163.898438 184.632812 164.230469 185.191406 C 164.5625 185.75 164.777344 186.351562 164.867188 186.996094 C 164.921875 187.308594 164.867188 187.445312 164.519531 187.445312 L 161.910156 187.445312 C 161.785156 187.46875 161.671875 187.441406 161.570312 187.363281 C 161.472656 187.28125 161.421875 187.175781 161.417969 187.046875 C 161.378906 186.824219 161.304688 186.613281 161.191406 186.414062 C 161.082031 186.214844 160.941406 186.039062 160.769531 185.886719 C 160.601562 185.738281 160.410156 185.617188 160.199219 185.535156 C 159.988281 185.449219 159.773438 185.402344 159.546875 185.390625 C 158.707031 185.222656 157.902344 185.324219 157.128906 185.6875 C 156.886719 185.796875 156.691406 185.964844 156.550781 186.191406 C 156.410156 186.421875 156.347656 186.671875 156.363281 186.941406 C 156.390625 187.1875 156.488281 187.402344 156.648438 187.589844 C 156.8125 187.773438 157.015625 187.894531 157.253906 187.949219 C 158.300781 188.273438 159.363281 188.515625 160.445312 188.679688 C 161.1875 188.832031 161.917969 189.039062 162.628906 189.300781 C 163.019531 189.421875 163.378906 189.605469 163.707031 189.847656 C 164.035156 190.085938 164.320312 190.375 164.554688 190.707031 C 164.792969 191.042969 164.96875 191.40625 165.089844 191.796875 C 165.207031 192.191406 165.261719 192.59375 165.25 193.003906 C 165.277344 193.40625 165.246094 193.804688 165.152344 194.199219 C 165.0625 194.59375 164.917969 194.964844 164.71875 195.316406 C 164.519531 195.664062 164.273438 195.980469 163.980469 196.257812 C 163.6875 196.53125 163.363281 196.761719 163.003906 196.941406 C 161.414062 197.730469 159.738281 197.988281 157.984375 197.714844 C 156.894531 197.632812 155.886719 197.300781 154.953125 196.722656 C 154.335938 196.339844 153.828125 195.84375 153.433594 195.226562 C 153.042969 194.609375 152.796875 193.9375 152.707031 193.210938 C 152.652344 192.867188 152.707031 192.707031 153.101562 192.734375 C 153.492188 192.761719 154 192.769531 154.457031 192.769531 Z M 218.214844 192.769531 L 218.484375 192.769531 C 219.304688 192.769531 219.972656 192.679688 220.339844 193.789062 C 220.703125 194.894531 222.300781 195.355469 223.851562 195.058594 C 224.046875 195.023438 224.242188 194.972656 224.429688 194.90625 C 224.757812 194.824219 225.027344 194.65625 225.242188 194.394531 C 225.453125 194.128906 225.566406 193.828125 225.582031 193.488281 C 225.5625 193.171875 225.449219 192.898438 225.242188 192.660156 C 225.035156 192.421875 224.773438 192.277344 224.464844 192.21875 C 223.199219 191.769531 221.84375 191.6875 220.5625 191.320312 C 220.257812 191.230469 219.953125 191.15625 219.667969 191.046875 C 217.886719 190.398438 216.941406 189.292969 216.871094 187.652344 C 216.808594 187.203125 216.824219 186.757812 216.910156 186.316406 C 216.996094 185.871094 217.152344 185.457031 217.378906 185.066406 C 217.605469 184.675781 217.886719 184.332031 218.226562 184.039062 C 218.566406 183.742188 218.941406 183.511719 219.359375 183.347656 C 220.40625 182.878906 221.503906 182.648438 222.648438 182.648438 C 223.792969 182.648438 224.890625 182.878906 225.9375 183.347656 C 226.671875 183.664062 227.285156 184.144531 227.769531 184.785156 C 228.257812 185.425781 228.554688 186.148438 228.664062 186.949219 C 228.738281 187.292969 228.664062 187.5 228.253906 187.480469 L 225.777344 187.480469 C 225.640625 187.511719 225.519531 187.484375 225.40625 187.402344 C 225.296875 187.316406 225.234375 187.207031 225.222656 187.066406 C 225.183594 186.84375 225.109375 186.632812 224.996094 186.433594 C 224.882812 186.234375 224.742188 186.058594 224.574219 185.910156 C 224.402344 185.761719 224.214844 185.644531 224.003906 185.558594 C 223.792969 185.476562 223.578125 185.425781 223.351562 185.417969 C 222.609375 185.285156 221.886719 185.347656 221.175781 185.605469 C 220.882812 185.6875 220.644531 185.847656 220.460938 186.089844 C 220.277344 186.332031 220.1875 186.609375 220.1875 186.914062 C 220.203125 187.195312 220.304688 187.441406 220.496094 187.652344 C 220.683594 187.863281 220.917969 187.988281 221.195312 188.03125 C 222.378906 188.445312 223.636719 188.535156 224.847656 188.839844 C 225.59375 189.003906 226.3125 189.253906 226.996094 189.589844 C 227.292969 189.761719 227.566406 189.964844 227.8125 190.203125 C 228.058594 190.441406 228.269531 190.707031 228.453125 191 C 228.632812 191.289062 228.777344 191.597656 228.882812 191.925781 C 228.988281 192.253906 229.054688 192.589844 229.078125 192.933594 C 229.101562 193.277344 229.082031 193.621094 229.019531 193.957031 C 228.960938 194.296875 228.859375 194.625 228.722656 194.9375 C 228.582031 195.253906 228.40625 195.542969 228.191406 195.816406 C 227.980469 196.085938 227.742188 196.324219 227.46875 196.535156 C 225.234375 198.335938 219.769531 198.292969 217.707031 195.878906 C 217.042969 195.097656 216.636719 194.195312 216.488281 193.175781 C 216.433594 192.839844 216.488281 192.679688 216.886719 192.707031 C 217.289062 192.734375 217.753906 192.769531 218.214844 192.769531 Z M 208.835938 190.300781 L 208.835938 186.238281 C 208.835938 185.824219 208.773438 185.644531 208.300781 185.652344 C 206.839844 185.652344 206.839844 185.652344 206.839844 184.128906 L 206.839844 183.515625 C 206.808594 183.398438 206.835938 183.292969 206.921875 183.207031 C 207.011719 183.117188 207.113281 183.09375 207.234375 183.128906 L 207.304688 183.128906 C 207.792969 183.128906 208.445312 183.347656 208.722656 183.039062 C 209 182.734375 208.835938 181.957031 208.835938 181.464844 L 208.835938 179.15625 C 208.835938 178.796875 208.898438 178.625 209.308594 178.644531 L 212.054688 178.644531 C 212.210938 178.601562 212.34375 178.636719 212.453125 178.753906 C 212.5625 178.867188 212.59375 179.003906 212.546875 179.15625 L 212.546875 182.410156 C 212.546875 183.039062 212.742188 183.191406 213.304688 183.140625 L 214.507812 183.140625 C 214.648438 183.09375 214.773438 183.125 214.878906 183.226562 C 214.984375 183.332031 215.019531 183.453125 214.980469 183.597656 L 214.980469 185.292969 C 214.992188 185.347656 214.992188 185.402344 214.976562 185.457031 C 214.960938 185.511719 214.933594 185.558594 214.890625 185.597656 C 214.851562 185.636719 214.804688 185.664062 214.75 185.679688 C 214.695312 185.691406 214.640625 185.695312 214.589844 185.679688 L 213.046875 185.679688 C 212.527344 185.679688 212.554688 185.824219 212.554688 186.191406 L 212.554688 193.238281 C 212.554688 194.246094 212.984375 194.625 214.027344 194.632812 C 215.070312 194.644531 215.050781 194.632812 215.050781 195.699219 C 215.050781 197.5 215.050781 197.5 213.269531 197.5 C 212.527344 197.542969 211.796875 197.472656 211.074219 197.292969 C 210.742188 197.207031 210.433594 197.070312 210.148438 196.875 C 209.859375 196.683594 209.617188 196.445312 209.410156 196.167969 C 209.207031 195.886719 209.054688 195.582031 208.957031 195.25 C 208.859375 194.914062 208.820312 194.574219 208.835938 194.230469 Z M 48 187.472656 L 48 196.6875 C 48 197.335938 47.804688 197.480469 47.214844 197.445312 C 46.410156 197.398438 45.605469 197.398438 44.796875 197.445312 C 44.308594 197.445312 44.148438 197.347656 44.15625 196.8125 L 44.15625 178.238281 C 44.15625 177.589844 44.351562 177.445312 44.941406 177.480469 C 45.746094 177.527344 46.550781 177.527344 47.355469 177.480469 C 47.855469 177.480469 48 177.589844 48 178.113281 C 47.980469 181.238281 48 184.355469 48 187.472656 Z M 54.792969 187.460938 L 54.792969 196.8125 C 54.792969 197.328125 54.660156 197.472656 54.160156 197.445312 C 53.355469 197.394531 52.546875 197.394531 51.742188 197.445312 C 51.164062 197.445312 50.996094 197.335938 51.003906 196.714844 C 51.039062 192.109375 51.039062 187.496094 51.039062 182.859375 L 51.039062 178.046875 C 50.984375 177.867188 51.023438 177.707031 51.15625 177.574219 C 51.289062 177.4375 51.449219 177.398438 51.628906 177.453125 L 54.175781 177.453125 C 54.667969 177.453125 54.808594 177.5625 54.808594 178.074219 C 54.773438 181.226562 54.792969 184.34375 54.792969 187.460938 Z M 147.242188 185.425781 C 147.597656 184.914062 147.820312 184.523438 148.089844 184.210938 C 148.472656 183.734375 148.945312 183.382812 149.507812 183.15625 C 150.070312 182.933594 150.652344 182.863281 151.253906 182.949219 C 151.394531 182.933594 151.515625 182.976562 151.613281 183.078125 C 151.710938 183.179688 151.75 183.304688 151.726562 183.445312 L 151.726562 185.949219 C 151.726562 186.308594 151.601562 186.40625 151.261719 186.382812 C 150.507812 186.308594 149.796875 186.457031 149.132812 186.832031 C 148.554688 187.1875 148.113281 187.671875 147.804688 188.285156 C 147.5 188.898438 147.378906 189.546875 147.4375 190.226562 L 147.4375 196.804688 C 147.4375 197.300781 147.332031 197.472656 146.816406 197.445312 C 145.921875 197.398438 145.03125 197.445312 144.140625 197.445312 C 143.792969 197.445312 143.625 197.445312 143.625 196.976562 L 143.625 183.625 C 143.578125 183.472656 143.613281 183.339844 143.722656 183.226562 C 143.832031 183.113281 143.960938 183.078125 144.113281 183.121094 L 146.789062 183.121094 C 146.925781 183.082031 147.046875 183.113281 147.152344 183.214844 C 147.253906 183.316406 147.289062 183.4375 147.25 183.578125 C 147.226562 184.136719 147.242188 184.660156 147.242188 185.425781 Z M 333.75 182.515625 L 333.75 187.019531 C 333.75 187.425781 333.648438 187.5625 333.230469 187.5625 L 327.667969 187.5625 C 327.507812 187.609375 327.367188 187.574219 327.246094 187.457031 C 327.125 187.335938 327.085938 187.195312 327.132812 187.03125 L 327.132812 178.019531 C 327.03125 177.851562 327.042969 177.695312 327.171875 177.550781 C 327.304688 177.402344 327.457031 177.371094 327.632812 177.453125 L 333.265625 177.453125 C 333.722656 177.453125 333.765625 177.632812 333.757812 178.003906 C 333.730469 179.535156 333.746094 181.058594 333.746094 182.515625 Z M 307.441406 182.453125 L 307.441406 177.949219 C 307.441406 177.5625 307.546875 177.460938 307.929688 177.460938 L 313.5625 177.460938 C 313.9375 177.460938 314.0625 177.550781 314.054688 177.949219 L 314.054688 186.957031 C 314.097656 187.121094 314.0625 187.257812 313.945312 187.378906 C 313.828125 187.496094 313.6875 187.535156 313.527344 187.488281 L 307.964844 187.488281 C 307.804688 187.539062 307.664062 187.507812 307.542969 187.386719 C 307.421875 187.261719 307.386719 187.121094 307.441406 186.957031 C 307.457031 185.480469 307.441406 183.964844 307.441406 182.453125 Z M 293.21875 192.488281 L 293.21875 196.894531 C 293.21875 197.316406 293.140625 197.480469 292.675781 197.472656 L 287.113281 197.472656 C 286.675781 197.472656 286.605469 197.316406 286.605469 196.929688 L 286.605469 188.058594 C 286.605469 187.550781 286.773438 187.472656 287.21875 187.472656 L 292.570312 187.472656 C 293.128906 187.472656 293.21875 187.667969 293.210938 188.164062 C 293.199219 189.597656 293.222656 191.039062 293.222656 192.488281 Z M 347.96875 192.472656 L 347.96875 187.96875 C 347.96875 187.554688 348.066406 187.425781 348.484375 187.4375 L 354.046875 187.4375 C 354.210938 187.386719 354.351562 187.421875 354.472656 187.542969 C 354.589844 187.660156 354.628906 187.804688 354.582031 187.96875 L 354.582031 196.914062 C 354.632812 197.078125 354.601562 197.21875 354.480469 197.339844 C 354.359375 197.460938 354.21875 197.496094 354.058594 197.445312 L 348.492188 197.445312 C 348.09375 197.445312 347.960938 197.355469 347.96875 196.921875 C 347.984375 195.472656 347.96875 193.96875 347.96875 192.472656 Z M 37.390625 190.246094 L 37.390625 183.816406 C 37.390625 183.238281 37.558594 183.085938 38.101562 183.113281 L 40.714844 183.113281 C 40.867188 183.066406 41 183.097656 41.113281 183.214844 C 41.226562 183.328125 41.261719 183.460938 41.214844 183.617188 L 41.214844 196.957031 C 41.214844 197.363281 41.070312 197.445312 40.707031 197.4375 L 38.03125 197.4375 C 37.542969 197.4375 37.390625 197.328125 37.398438 196.804688 C 37.410156 194.632812 37.390625 192.4375 37.390625 190.246094 Z M 61.613281 190.292969 L 61.613281 196.734375 C 61.613281 197.363281 61.425781 197.480469 60.871094 197.453125 C 59.980469 197.410156 59.089844 197.453125 58.261719 197.453125 C 58.132812 197.492188 58.023438 197.46875 57.925781 197.375 C 57.828125 197.28125 57.796875 197.167969 57.832031 197.039062 L 57.832031 183.527344 C 57.796875 183.394531 57.828125 183.285156 57.925781 183.191406 C 58.023438 183.097656 58.132812 183.070312 58.261719 183.113281 L 61.078125 183.113281 C 61.566406 183.113281 61.605469 183.308594 61.605469 183.707031 C 61.605469 185.914062 61.613281 188.101562 61.613281 190.292969 Z M 39.308594 177.542969 C 39.902344 177.542969 40.707031 177.308594 41.089844 177.605469 C 41.472656 177.90625 41.214844 178.789062 41.222656 179.410156 C 41.222656 180.914062 41.222656 180.914062 39.742188 180.914062 L 37.871094 180.914062 C 37.730469 180.957031 37.605469 180.925781 37.503906 180.820312 C 37.398438 180.710938 37.371094 180.585938 37.417969 180.445312 L 37.417969 177.941406 C 37.367188 177.804688 37.390625 177.683594 37.484375 177.574219 C 37.578125 177.464844 37.695312 177.425781 37.835938 177.453125 L 39.308594 177.453125 Z M 59.75 177.554688 C 60.347656 177.554688 61.132812 177.320312 61.53125 177.617188 C 61.933594 177.914062 61.640625 178.761719 61.648438 179.355469 C 61.648438 180.90625 61.648438 180.90625 60.089844 180.90625 L 58.304688 180.90625 C 57.964844 180.90625 57.832031 180.824219 57.839844 180.457031 L 57.839844 177.949219 C 57.839844 177.546875 57.984375 177.457031 58.339844 177.480469 C 58.695312 177.507812 59.277344 177.480469 59.75 177.480469 Z M 59.75 177.554688 " fill-opacity="1" fill-rule="nonzero"/></svg>